<?xml version="1.0" encoding="UTF-8" standalone="no"?>
<!DOCTYPE svg PUBLIC "-//W3C//DTD SVG 1.1//EN"
 "http://www.w3.org/Graphics/SVG/1.1/DTD/svg11.dtd">
<!-- Generated by graphviz version 2.36.0 (20140111.2315)
 -->
<!-- Title: de.flashpixx.rrd_antlr4.antlr.IGrammarElement Pages: 1 -->
<svg width="1684pt" height="746pt"
 viewBox="0.00 0.00 1684.00 746.00" xmlns="http://www.w3.org/2000/svg" xmlns:xlink="http://www.w3.org/1999/xlink">
<g id="graph0" class="graph" transform="scale(1 1) rotate(0) translate(4 742)">
<title>de.flashpixx.rrd_antlr4.antlr.IGrammarElement</title>
<!-- Node0 -->
<g id="node1" class="node"><title>Node0</title>
<polygon fill="#bfbfbf" stroke="black" points="1050,-663 1050,-737 1180,-737 1180,-663 1050,-663"/>
<text text-anchor="start" x="1058" y="-725.8" font-family="Helvetica,sans-Serif" font-size="9.00">de.flashpixx.rrd_antlr4.antlr.</text>
<text text-anchor="middle" x="1115" y="-715.8" font-family="Helvetica,sans-Serif" font-size="9.00">IGrammarElement</text>
<polyline fill="none" stroke="black" points="1050,-709 1180,-709 "/>
<text text-anchor="middle" x="1115" y="-697.8" font-family="Helvetica,sans-Serif" font-size="9.00"> </text>
<polyline fill="none" stroke="black" points="1050,-691 1180,-691 "/>
<text text-anchor="start" x="1058" y="-679.8" font-family="Helvetica,sans-Serif" font-size="9.00">+ cardinality()</text>
<text text-anchor="start" x="1058" y="-669.8" font-family="Helvetica,sans-Serif" font-size="9.00">+ cardinality()</text>
</g>
<!-- Node1 -->
<g id="node2" class="node"><title>Node1</title>
<g id="a_node2"><a xlink:href="../../da/dbc/interfacede_1_1flashpixx_1_1rrd__antlr4_1_1antlr_1_1IGrammarCollection.html" target="_top" xlink:title="interface of grammar collection elements ">
<polygon fill="none" stroke="black" points="308,-554 308,-618 438,-618 438,-554 308,-554"/>
<text text-anchor="start" x="316" y="-606.8" font-family="Helvetica,sans-Serif" font-size="9.00">de.flashpixx.rrd_antlr4.antlr.</text>
<text text-anchor="middle" x="373" y="-596.8" font-family="Helvetica,sans-Serif" font-size="9.00">IGrammarCollection</text>
<polyline fill="none" stroke="black" points="308,-590 438,-590 "/>
<text text-anchor="middle" x="373" y="-578.8" font-family="Helvetica,sans-Serif" font-size="9.00"> </text>
<polyline fill="none" stroke="black" points="308,-572 438,-572 "/>
<text text-anchor="start" x="316" y="-560.8" font-family="Helvetica,sans-Serif" font-size="9.00">+ get()</text>
</a>
</g>
</g>
<!-- Node0&#45;&gt;Node1 -->
<g id="edge1" class="edge"><title>Node0&#45;&gt;Node1</title>
<path fill="none" stroke="midnightblue" d="M1039.6,-687.62C893.753,-665.604 575.281,-617.533 438.049,-596.819"/>
<polygon fill="none" stroke="midnightblue" points="1039.39,-691.127 1049.8,-689.159 1040.44,-684.206 1039.39,-691.127"/>
</g>
<!-- Node8 -->
<g id="node9" class="node"><title>Node8</title>
<g id="a_node9"><a xlink:href="../../df/ddb/interfacede_1_1flashpixx_1_1rrd__antlr4_1_1antlr_1_1IGrammarComplexElement.html" target="_top" xlink:title="base interface of a complex grammar element ">
<polygon fill="none" stroke="black" points="841,-549 841,-623 971,-623 971,-549 841,-549"/>
<text text-anchor="start" x="849" y="-611.8" font-family="Helvetica,sans-Serif" font-size="9.00">de.flashpixx.rrd_antlr4.antlr.</text>
<text text-anchor="middle" x="906" y="-601.8" font-family="Helvetica,sans-Serif" font-size="9.00">IGrammarComplexElement</text>
<polyline fill="none" stroke="black" points="841,-595 971,-595 "/>
<text text-anchor="middle" x="906" y="-583.8" font-family="Helvetica,sans-Serif" font-size="9.00"> </text>
<polyline fill="none" stroke="black" points="841,-577 971,-577 "/>
<text text-anchor="start" x="849" y="-565.8" font-family="Helvetica,sans-Serif" font-size="9.00">+ documentation()</text>
<text text-anchor="start" x="849" y="-555.8" font-family="Helvetica,sans-Serif" font-size="9.00">+ id()</text>
</a>
</g>
</g>
<!-- Node0&#45;&gt;Node8 -->
<g id="edge10" class="edge"><title>Node0&#45;&gt;Node8</title>
<path fill="none" stroke="midnightblue" d="M1040.8,-659.236C1018.06,-647.049 993.221,-633.74 971.133,-621.904"/>
<polygon fill="none" stroke="midnightblue" points="1039.26,-662.385 1049.73,-664.023 1042.57,-656.215 1039.26,-662.385"/>
</g>
<!-- Node14 -->
<g id="node15" class="node"><title>Node14</title>
<g id="a_node15"><a xlink:href="../../dc/d3e/interfacede_1_1flashpixx_1_1rrd__antlr4_1_1antlr_1_1IGrammarGroup.html" target="_top" xlink:title="any grammar element group ">
<polygon fill="none" stroke="black" points="1050,-554 1050,-618 1180,-618 1180,-554 1050,-554"/>
<text text-anchor="start" x="1058" y="-606.8" font-family="Helvetica,sans-Serif" font-size="9.00">de.flashpixx.rrd_antlr4.antlr.</text>
<text text-anchor="middle" x="1115" y="-596.8" font-family="Helvetica,sans-Serif" font-size="9.00">IGrammarGroup</text>
<polyline fill="none" stroke="black" points="1050,-590 1180,-590 "/>
<text text-anchor="middle" x="1115" y="-578.8" font-family="Helvetica,sans-Serif" font-size="9.00"> </text>
<polyline fill="none" stroke="black" points="1050,-572 1180,-572 "/>
<text text-anchor="start" x="1058" y="-560.8" font-family="Helvetica,sans-Serif" font-size="9.00">+ element()</text>
</a>
</g>
</g>
<!-- Node0&#45;&gt;Node14 -->
<g id="edge16" class="edge"><title>Node0&#45;&gt;Node14</title>
<path fill="none" stroke="midnightblue" d="M1115,-652.863C1115,-641.154 1115,-628.851 1115,-618.089"/>
<polygon fill="none" stroke="midnightblue" points="1111.5,-652.946 1115,-662.946 1118.5,-652.946 1111.5,-652.946"/>
</g>
<!-- Node16 -->
<g id="node17" class="node"><title>Node16</title>
<g id="a_node17"><a xlink:href="../../de/d81/interfacede_1_1flashpixx_1_1rrd__antlr4_1_1antlr_1_1IGrammarNegation.html" target="_top" xlink:title="a negation element ">
<polygon fill="none" stroke="black" points="1198,-554 1198,-618 1328,-618 1328,-554 1198,-554"/>
<text text-anchor="start" x="1206" y="-606.8" font-family="Helvetica,sans-Serif" font-size="9.00">de.flashpixx.rrd_antlr4.antlr.</text>
<text text-anchor="middle" x="1263" y="-596.8" font-family="Helvetica,sans-Serif" font-size="9.00">IGrammarNegation</text>
<polyline fill="none" stroke="black" points="1198,-590 1328,-590 "/>
<text text-anchor="middle" x="1263" y="-578.8" font-family="Helvetica,sans-Serif" font-size="9.00"> </text>
<polyline fill="none" stroke="black" points="1198,-572 1328,-572 "/>
<text text-anchor="start" x="1206" y="-560.8" font-family="Helvetica,sans-Serif" font-size="9.00">+ inner()</text>
</a>
</g>
</g>
<!-- Node0&#45;&gt;Node16 -->
<g id="edge18" class="edge"><title>Node0&#45;&gt;Node16</title>
<path fill="none" stroke="midnightblue" d="M1170.84,-656.741C1187.8,-643.907 1206.12,-630.046 1221.92,-618.089"/>
<polygon fill="none" stroke="midnightblue" points="1168.5,-654.121 1162.64,-662.946 1172.73,-659.702 1168.5,-654.121"/>
</g>
<!-- Node18 -->
<g id="node19" class="node"><title>Node18</title>
<g id="a_node19"><a xlink:href="../../dd/d41/interfacede_1_1flashpixx_1_1rrd__antlr4_1_1antlr_1_1IGrammarSimpleElement.html" target="_top" xlink:title="a simple grammar element ">
<polygon fill="none" stroke="black" points="1355,-549 1355,-623 1495,-623 1495,-549 1355,-549"/>
<text text-anchor="start" x="1363" y="-611.8" font-family="Helvetica,sans-Serif" font-size="9.00">de.flashpixx.rrd_antlr4.antlr.</text>
<text text-anchor="middle" x="1425" y="-601.8" font-family="Helvetica,sans-Serif" font-size="9.00">IGrammarSimpleElement&lt; T &gt;</text>
<polyline fill="none" stroke="black" points="1355,-595 1495,-595 "/>
<text text-anchor="middle" x="1425" y="-583.8" font-family="Helvetica,sans-Serif" font-size="9.00"> </text>
<polyline fill="none" stroke="black" points="1355,-577 1495,-577 "/>
<text text-anchor="start" x="1363" y="-565.8" font-family="Helvetica,sans-Serif" font-size="9.00">+ get()</text>
<text text-anchor="start" x="1363" y="-555.8" font-family="Helvetica,sans-Serif" font-size="9.00">+ isValueAssignableTo()</text>
</a>
</g>
</g>
<!-- Node0&#45;&gt;Node18 -->
<g id="edge20" class="edge"><title>Node0&#45;&gt;Node18</title>
<path fill="none" stroke="midnightblue" d="M1189.65,-675.272C1232.95,-661.138 1288.36,-642.413 1337,-624 1342.73,-621.829 1348.65,-619.512 1354.57,-617.138"/>
<polygon fill="none" stroke="midnightblue" points="1188.46,-671.976 1180.04,-678.398 1190.63,-678.632 1188.46,-671.976"/>
</g>
<!-- Node2 -->
<g id="node3" class="node"><title>Node2</title>
<g id="a_node3"><a xlink:href="../../d5/d4c/classde_1_1flashpixx_1_1rrd__antlr4_1_1antlr_1_1CGrammarEmptyCollection.html" target="_top" xlink:title="empty grammar collection ">
<polygon fill="none" stroke="black" points="148,-357 148,-481 288,-481 288,-357 148,-357"/>
<text text-anchor="start" x="156" y="-469.8" font-family="Helvetica,sans-Serif" font-size="9.00">de.flashpixx.rrd_antlr4.antlr.</text>
<text text-anchor="middle" x="218" y="-459.8" font-family="Helvetica,sans-Serif" font-size="9.00">CGrammarEmptyCollection</text>
<polyline fill="none" stroke="black" points="148,-453 288,-453 "/>
<text text-anchor="start" x="156" y="-441.8" font-family="Helvetica,sans-Serif" font-size="9.00">&#45; INSTANCE</text>
<polyline fill="none" stroke="black" points="148,-435 288,-435 "/>
<text text-anchor="start" x="156" y="-423.8" font-family="Helvetica,sans-Serif" font-size="9.00">+ cardinality()</text>
<text text-anchor="start" x="156" y="-413.8" font-family="Helvetica,sans-Serif" font-size="9.00">+ cardinality()</text>
<text text-anchor="start" x="156" y="-403.8" font-family="Helvetica,sans-Serif" font-size="9.00">+ equals()</text>
<text text-anchor="start" x="156" y="-393.8" font-family="Helvetica,sans-Serif" font-size="9.00">+ get()</text>
<text text-anchor="start" x="156" y="-383.8" font-family="Helvetica,sans-Serif" font-size="9.00">+ hashCode()</text>
<text text-anchor="start" x="156" y="-373.8" font-family="Helvetica,sans-Serif" font-size="9.00">+ toString()</text>
<text text-anchor="start" x="156" y="-363.8" font-family="Helvetica,sans-Serif" font-size="9.00">&#45; CGrammarEmptyCollection()</text>
</a>
</g>
</g>
<!-- Node1&#45;&gt;Node2 -->
<g id="edge2" class="edge"><title>Node1&#45;&gt;Node2</title>
<path fill="none" stroke="midnightblue" d="M336.837,-546.504C318.629,-527.121 296.117,-503.157 275.601,-481.317"/>
<polygon fill="none" stroke="midnightblue" points="334.448,-549.073 343.846,-553.965 339.55,-544.28 334.448,-549.073"/>
</g>
<!-- Node3 -->
<g id="node4" class="node"><title>Node3</title>
<g id="a_node4"><a xlink:href="../../d1/de6/classde_1_1flashpixx_1_1rrd__antlr4_1_1antlr_1_1IGrammarBaseCollection.html" target="_top" xlink:title="abstract class for collection ">
<polygon fill="none" stroke="black" points="306.5,-357 306.5,-481 439.5,-481 439.5,-357 306.5,-357"/>
<text text-anchor="start" x="314.5" y="-469.8" font-family="Helvetica,sans-Serif" font-size="9.00">de.flashpixx.rrd_antlr4.antlr.</text>
<text text-anchor="middle" x="373" y="-459.8" font-family="Helvetica,sans-Serif" font-size="9.00">IGrammarBaseCollection</text>
<polyline fill="none" stroke="black" points="306.5,-453 439.5,-453 "/>
<text text-anchor="start" x="314.5" y="-441.8" font-family="Helvetica,sans-Serif" font-size="9.00"># m_cardinality</text>
<text text-anchor="start" x="314.5" y="-431.8" font-family="Helvetica,sans-Serif" font-size="9.00"># m_data</text>
<polyline fill="none" stroke="black" points="306.5,-425 439.5,-425 "/>
<text text-anchor="start" x="314.5" y="-413.8" font-family="Helvetica,sans-Serif" font-size="9.00">+ cardinality()</text>
<text text-anchor="start" x="314.5" y="-403.8" font-family="Helvetica,sans-Serif" font-size="9.00">+ cardinality()</text>
<text text-anchor="start" x="314.5" y="-393.8" font-family="Helvetica,sans-Serif" font-size="9.00">+ equals()</text>
<text text-anchor="start" x="314.5" y="-383.8" font-family="Helvetica,sans-Serif" font-size="9.00">+ get()</text>
<text text-anchor="start" x="314.5" y="-373.8" font-family="Helvetica,sans-Serif" font-size="9.00">+ hashCode()</text>
<text text-anchor="start" x="314.5" y="-363.8" font-family="Helvetica,sans-Serif" font-size="9.00"># IGrammarBaseCollection()</text>
</a>
</g>
</g>
<!-- Node1&#45;&gt;Node3 -->
<g id="edge3" class="edge"><title>Node1&#45;&gt;Node3</title>
<path fill="none" stroke="midnightblue" d="M373,-543.905C373,-525.004 373,-502.191 373,-481.317"/>
<polygon fill="none" stroke="midnightblue" points="369.5,-543.965 373,-553.965 376.5,-543.965 369.5,-543.965"/>
</g>
<!-- Node6 -->
<g id="node7" class="node"><title>Node6</title>
<g id="a_node7"><a xlink:href="../../de/db0/interfacede_1_1flashpixx_1_1rrd__antlr4_1_1antlr_1_1IGrammarChoice.html" target="_top" xlink:title="grammar element sequence ">
<polygon fill="none" stroke="black" points="458,-387 458,-451 588,-451 588,-387 458,-387"/>
<text text-anchor="start" x="466" y="-439.8" font-family="Helvetica,sans-Serif" font-size="9.00">de.flashpixx.rrd_antlr4.antlr.</text>
<text text-anchor="middle" x="523" y="-429.8" font-family="Helvetica,sans-Serif" font-size="9.00">IGrammarChoice</text>
<polyline fill="none" stroke="black" points="458,-423 588,-423 "/>
<text text-anchor="middle" x="523" y="-411.8" font-family="Helvetica,sans-Serif" font-size="9.00"> </text>
<polyline fill="none" stroke="black" points="458,-405 588,-405 "/>
<text text-anchor="middle" x="523" y="-393.8" font-family="Helvetica,sans-Serif" font-size="9.00"> </text>
</a>
</g>
</g>
<!-- Node1&#45;&gt;Node6 -->
<g id="edge6" class="edge"><title>Node1&#45;&gt;Node6</title>
<path fill="none" stroke="midnightblue" d="M408.045,-546.451C434.41,-517.449 470.08,-478.212 494.658,-451.176"/>
<polygon fill="none" stroke="midnightblue" points="405.351,-544.211 401.214,-553.965 410.53,-548.92 405.351,-544.211"/>
</g>
<!-- Node7 -->
<g id="node8" class="node"><title>Node7</title>
<g id="a_node8"><a xlink:href="../../d8/d61/interfacede_1_1flashpixx_1_1rrd__antlr4_1_1antlr_1_1IGrammarSequence.html" target="_top" xlink:title="grammar element sequence ">
<polygon fill="none" stroke="black" points="0,-387 0,-451 130,-451 130,-387 0,-387"/>
<text text-anchor="start" x="8" y="-439.8" font-family="Helvetica,sans-Serif" font-size="9.00">de.flashpixx.rrd_antlr4.antlr.</text>
<text text-anchor="middle" x="65" y="-429.8" font-family="Helvetica,sans-Serif" font-size="9.00">IGrammarSequence</text>
<polyline fill="none" stroke="black" points="0,-423 130,-423 "/>
<text text-anchor="middle" x="65" y="-411.8" font-family="Helvetica,sans-Serif" font-size="9.00"> </text>
<polyline fill="none" stroke="black" points="0,-405 130,-405 "/>
<text text-anchor="middle" x="65" y="-393.8" font-family="Helvetica,sans-Serif" font-size="9.00"> </text>
</a>
</g>
</g>
<!-- Node1&#45;&gt;Node7 -->
<g id="edge8" class="edge"><title>Node1&#45;&gt;Node7</title>
<path fill="none" stroke="midnightblue" d="M298.222,-568.612C249.994,-555.688 187.461,-534.36 139,-502 118.747,-488.476 100.376,-468.189 87.0054,-451.178"/>
<polygon fill="none" stroke="midnightblue" points="297.417,-572.019 307.977,-571.165 299.189,-565.247 297.417,-572.019"/>
</g>
<!-- Node4 -->
<g id="node5" class="node"><title>Node4</title>
<g id="a_node5"><a xlink:href="../../df/d2c/classde_1_1flashpixx_1_1rrd__antlr4_1_1antlr_1_1CGrammarChoice.html" target="_top" xlink:title="grammar choice ">
<polygon fill="none" stroke="black" points="402,-150 402,-244 532,-244 532,-150 402,-150"/>
<text text-anchor="start" x="410" y="-232.8" font-family="Helvetica,sans-Serif" font-size="9.00">de.flashpixx.rrd_antlr4.antlr.</text>
<text text-anchor="middle" x="467" y="-222.8" font-family="Helvetica,sans-Serif" font-size="9.00">CGrammarChoice</text>
<polyline fill="none" stroke="black" points="402,-216 532,-216 "/>
<text text-anchor="middle" x="467" y="-204.8" font-family="Helvetica,sans-Serif" font-size="9.00"> </text>
<polyline fill="none" stroke="black" points="402,-198 532,-198 "/>
<text text-anchor="start" x="410" y="-186.8" font-family="Helvetica,sans-Serif" font-size="9.00">+ CGrammarChoice()</text>
<text text-anchor="start" x="410" y="-176.8" font-family="Helvetica,sans-Serif" font-size="9.00">+ CGrammarChoice()</text>
<text text-anchor="start" x="410" y="-166.8" font-family="Helvetica,sans-Serif" font-size="9.00">+ CGrammarChoice()</text>
<text text-anchor="start" x="410" y="-156.8" font-family="Helvetica,sans-Serif" font-size="9.00">+ toString()</text>
</a>
</g>
</g>
<!-- Node3&#45;&gt;Node4 -->
<g id="edge4" class="edge"><title>Node3&#45;&gt;Node4</title>
<path fill="none" stroke="midnightblue" d="M403.181,-347.363C417.6,-313.618 434.451,-274.179 447.216,-244.304"/>
<polygon fill="none" stroke="midnightblue" points="399.895,-346.147 399.184,-356.718 406.332,-348.897 399.895,-346.147"/>
</g>
<!-- Node5 -->
<g id="node6" class="node"><title>Node5</title>
<g id="a_node6"><a xlink:href="../../dc/df3/classde_1_1flashpixx_1_1rrd__antlr4_1_1antlr_1_1CGrammarSequence.html" target="_top" xlink:title="grammar sequence ">
<polygon fill="none" stroke="black" points="188,-150 188,-244 318,-244 318,-150 188,-150"/>
<text text-anchor="start" x="196" y="-232.8" font-family="Helvetica,sans-Serif" font-size="9.00">de.flashpixx.rrd_antlr4.antlr.</text>
<text text-anchor="middle" x="253" y="-222.8" font-family="Helvetica,sans-Serif" font-size="9.00">CGrammarSequence</text>
<polyline fill="none" stroke="black" points="188,-216 318,-216 "/>
<text text-anchor="middle" x="253" y="-204.8" font-family="Helvetica,sans-Serif" font-size="9.00"> </text>
<polyline fill="none" stroke="black" points="188,-198 318,-198 "/>
<text text-anchor="start" x="196" y="-186.8" font-family="Helvetica,sans-Serif" font-size="9.00">+ CGrammarSequence()</text>
<text text-anchor="start" x="196" y="-176.8" font-family="Helvetica,sans-Serif" font-size="9.00">+ CGrammarSequence()</text>
<text text-anchor="start" x="196" y="-166.8" font-family="Helvetica,sans-Serif" font-size="9.00">+ CGrammarSequence()</text>
<text text-anchor="start" x="196" y="-156.8" font-family="Helvetica,sans-Serif" font-size="9.00">+ toString()</text>
</a>
</g>
</g>
<!-- Node3&#45;&gt;Node5 -->
<g id="edge5" class="edge"><title>Node3&#45;&gt;Node5</title>
<path fill="none" stroke="midnightblue" d="M334.707,-347.796C316.248,-313.955 294.622,-274.307 278.257,-244.304"/>
<polygon fill="none" stroke="midnightblue" points="331.712,-349.615 339.573,-356.718 337.857,-346.263 331.712,-349.615"/>
</g>
<!-- Node6&#45;&gt;Node4 -->
<g id="edge7" class="edge"><title>Node6&#45;&gt;Node4</title>
<path fill="none" stroke="midnightblue" d="M512.518,-376.822C502.925,-339.134 488.746,-283.43 478.768,-244.23"/>
<polygon fill="none" stroke="midnightblue" points="509.237,-378.118 515.095,-386.946 516.02,-376.392 509.237,-378.118"/>
</g>
<!-- Node7&#45;&gt;Node5 -->
<g id="edge9" class="edge"><title>Node7&#45;&gt;Node5</title>
<path fill="none" stroke="midnightblue" d="M98.145,-379.213C130.353,-341.523 179.28,-284.268 213.494,-244.23"/>
<polygon fill="none" stroke="midnightblue" points="95.3728,-377.07 91.5371,-386.946 100.694,-381.617 95.3728,-377.07"/>
</g>
<!-- Node9 -->
<g id="node10" class="node"><title>Node9</title>
<g id="a_node10"><a xlink:href="../../d7/d65/classde_1_1flashpixx_1_1rrd__antlr4_1_1antlr_1_1CGrammar.html" target="_top" xlink:title="grammar information ">
<polygon fill="none" stroke="black" points="754,-347 754,-491 884,-491 884,-347 754,-347"/>
<text text-anchor="start" x="762" y="-479.8" font-family="Helvetica,sans-Serif" font-size="9.00">de.flashpixx.rrd_antlr4.antlr.</text>
<text text-anchor="middle" x="819" y="-469.8" font-family="Helvetica,sans-Serif" font-size="9.00">CGrammar</text>
<polyline fill="none" stroke="black" points="754,-463 884,-463 "/>
<text text-anchor="start" x="762" y="-451.8" font-family="Helvetica,sans-Serif" font-size="9.00">&#45; m_documentation</text>
<text text-anchor="start" x="762" y="-441.8" font-family="Helvetica,sans-Serif" font-size="9.00">&#45; m_id</text>
<polyline fill="none" stroke="black" points="754,-435 884,-435 "/>
<text text-anchor="start" x="762" y="-423.8" font-family="Helvetica,sans-Serif" font-size="9.00">+ cardinality()</text>
<text text-anchor="start" x="762" y="-413.8" font-family="Helvetica,sans-Serif" font-size="9.00">+ cardinality()</text>
<text text-anchor="start" x="762" y="-403.8" font-family="Helvetica,sans-Serif" font-size="9.00">+ documentation()</text>
<text text-anchor="start" x="762" y="-393.8" font-family="Helvetica,sans-Serif" font-size="9.00">+ equals()</text>
<text text-anchor="start" x="762" y="-383.8" font-family="Helvetica,sans-Serif" font-size="9.00">+ hashCode()</text>
<text text-anchor="start" x="762" y="-373.8" font-family="Helvetica,sans-Serif" font-size="9.00">+ id()</text>
<text text-anchor="start" x="762" y="-363.8" font-family="Helvetica,sans-Serif" font-size="9.00">+ toString()</text>
<text text-anchor="start" x="762" y="-353.8" font-family="Helvetica,sans-Serif" font-size="9.00">~ CGrammar()</text>
</a>
</g>
</g>
<!-- Node8&#45;&gt;Node9 -->
<g id="edge11" class="edge"><title>Node8&#45;&gt;Node9</title>
<path fill="none" stroke="midnightblue" d="M882.123,-539.716C874.189,-524.669 865.154,-507.534 856.449,-491.023"/>
<polygon fill="none" stroke="midnightblue" points="879.147,-541.577 886.907,-548.79 885.339,-538.312 879.147,-541.577"/>
</g>
<!-- Node10 -->
<g id="node11" class="node"><title>Node10</title>
<g id="a_node11"><a xlink:href="../../d3/d53/interfacede_1_1flashpixx_1_1rrd__antlr4_1_1antlr_1_1IGrammarRule.html" target="_top" xlink:title="interface for a grammar rule ">
<polygon fill="none" stroke="black" points="902,-387 902,-451 1032,-451 1032,-387 902,-387"/>
<text text-anchor="start" x="910" y="-439.8" font-family="Helvetica,sans-Serif" font-size="9.00">de.flashpixx.rrd_antlr4.antlr.</text>
<text text-anchor="middle" x="967" y="-429.8" font-family="Helvetica,sans-Serif" font-size="9.00">IGrammarRule</text>
<polyline fill="none" stroke="black" points="902,-423 1032,-423 "/>
<text text-anchor="middle" x="967" y="-411.8" font-family="Helvetica,sans-Serif" font-size="9.00"> </text>
<polyline fill="none" stroke="black" points="902,-405 1032,-405 "/>
<text text-anchor="start" x="910" y="-393.8" font-family="Helvetica,sans-Serif" font-size="9.00">+ children()</text>
</a>
</g>
</g>
<!-- Node8&#45;&gt;Node10 -->
<g id="edge12" class="edge"><title>Node8&#45;&gt;Node10</title>
<path fill="none" stroke="midnightblue" d="M922.935,-539.192C933.307,-511.136 946.307,-475.972 955.492,-451.129"/>
<polygon fill="none" stroke="midnightblue" points="919.572,-538.197 919.387,-548.79 926.137,-540.624 919.572,-538.197"/>
</g>
<!-- Node12 -->
<g id="node13" class="node"><title>Node12</title>
<g id="a_node13"><a xlink:href="../../da/d3c/interfacede_1_1flashpixx_1_1rrd__antlr4_1_1antlr_1_1IGrammarTerminal.html" target="_top" xlink:title="interface of grammar terminal ">
<polygon fill="none" stroke="black" points="606,-387 606,-451 736,-451 736,-387 606,-387"/>
<text text-anchor="start" x="614" y="-439.8" font-family="Helvetica,sans-Serif" font-size="9.00">de.flashpixx.rrd_antlr4.antlr.</text>
<text text-anchor="middle" x="671" y="-429.8" font-family="Helvetica,sans-Serif" font-size="9.00">IGrammarTerminal</text>
<polyline fill="none" stroke="black" points="606,-423 736,-423 "/>
<text text-anchor="middle" x="671" y="-411.8" font-family="Helvetica,sans-Serif" font-size="9.00"> </text>
<polyline fill="none" stroke="black" points="606,-405 736,-405 "/>
<text text-anchor="start" x="614" y="-393.8" font-family="Helvetica,sans-Serif" font-size="9.00">+ children()</text>
</a>
</g>
</g>
<!-- Node8&#45;&gt;Node12 -->
<g id="edge14" class="edge"><title>Node8&#45;&gt;Node12</title>
<path fill="none" stroke="midnightblue" d="M831.806,-553.69C803.293,-539.924 771.303,-522.259 745,-502 726.162,-487.491 708.211,-467.798 694.708,-451.348"/>
<polygon fill="none" stroke="midnightblue" points="830.395,-556.894 840.929,-558.02 833.396,-550.57 830.395,-556.894"/>
</g>
<!-- Node11 -->
<g id="node12" class="node"><title>Node11</title>
<g id="a_node12"><a xlink:href="../../dc/dc5/classde_1_1flashpixx_1_1rrd__antlr4_1_1antlr_1_1CGrammarRule.html" target="_top" xlink:title="represenation of a grammar rule ">
<polygon fill="none" stroke="black" points="902,-115 902,-279 1032,-279 1032,-115 902,-115"/>
<text text-anchor="start" x="910" y="-267.8" font-family="Helvetica,sans-Serif" font-size="9.00">de.flashpixx.rrd_antlr4.antlr.</text>
<text text-anchor="middle" x="967" y="-257.8" font-family="Helvetica,sans-Serif" font-size="9.00">CGrammarRule</text>
<polyline fill="none" stroke="black" points="902,-251 1032,-251 "/>
<text text-anchor="start" x="910" y="-239.8" font-family="Helvetica,sans-Serif" font-size="9.00">&#45; m_documentation</text>
<text text-anchor="start" x="910" y="-229.8" font-family="Helvetica,sans-Serif" font-size="9.00">&#45; m_element</text>
<text text-anchor="start" x="910" y="-219.8" font-family="Helvetica,sans-Serif" font-size="9.00">&#45; m_id</text>
<polyline fill="none" stroke="black" points="902,-213 1032,-213 "/>
<text text-anchor="start" x="910" y="-201.8" font-family="Helvetica,sans-Serif" font-size="9.00">+ CGrammarRule()</text>
<text text-anchor="start" x="910" y="-191.8" font-family="Helvetica,sans-Serif" font-size="9.00">+ cardinality()</text>
<text text-anchor="start" x="910" y="-181.8" font-family="Helvetica,sans-Serif" font-size="9.00">+ cardinality()</text>
<text text-anchor="start" x="910" y="-171.8" font-family="Helvetica,sans-Serif" font-size="9.00">+ children()</text>
<text text-anchor="start" x="910" y="-161.8" font-family="Helvetica,sans-Serif" font-size="9.00">+ documentation()</text>
<text text-anchor="start" x="910" y="-151.8" font-family="Helvetica,sans-Serif" font-size="9.00">+ equals()</text>
<text text-anchor="start" x="910" y="-141.8" font-family="Helvetica,sans-Serif" font-size="9.00">+ hashCode()</text>
<text text-anchor="start" x="910" y="-131.8" font-family="Helvetica,sans-Serif" font-size="9.00">+ id()</text>
<text text-anchor="start" x="910" y="-121.8" font-family="Helvetica,sans-Serif" font-size="9.00">+ toString()</text>
</a>
</g>
</g>
<!-- Node10&#45;&gt;Node11 -->
<g id="edge13" class="edge"><title>Node10&#45;&gt;Node11</title>
<path fill="none" stroke="midnightblue" d="M967,-376.921C967,-349.465 967,-312.416 967,-279.153"/>
<polygon fill="none" stroke="midnightblue" points="963.5,-376.946 967,-386.946 970.5,-376.946 963.5,-376.946"/>
</g>
<!-- Node13 -->
<g id="node14" class="node"><title>Node13</title>
<g id="a_node14"><a xlink:href="../../d5/d65/classde_1_1flashpixx_1_1rrd__antlr4_1_1antlr_1_1CGrammarNonTerminal.html" target="_top" xlink:title="represenation of a terminal symbol ">
<polygon fill="none" stroke="black" points="606,-105 606,-289 736,-289 736,-105 606,-105"/>
<text text-anchor="start" x="614" y="-277.8" font-family="Helvetica,sans-Serif" font-size="9.00">de.flashpixx.rrd_antlr4.antlr.</text>
<text text-anchor="middle" x="671" y="-267.8" font-family="Helvetica,sans-Serif" font-size="9.00">CGrammarNonTerminal</text>
<polyline fill="none" stroke="black" points="606,-261 736,-261 "/>
<text text-anchor="start" x="614" y="-249.8" font-family="Helvetica,sans-Serif" font-size="9.00">&#45; m_cardinality</text>
<text text-anchor="start" x="614" y="-239.8" font-family="Helvetica,sans-Serif" font-size="9.00">&#45; m_documentation</text>
<text text-anchor="start" x="614" y="-229.8" font-family="Helvetica,sans-Serif" font-size="9.00">&#45; m_element</text>
<text text-anchor="start" x="614" y="-219.8" font-family="Helvetica,sans-Serif" font-size="9.00">&#45; m_id</text>
<polyline fill="none" stroke="black" points="606,-213 736,-213 "/>
<text text-anchor="start" x="614" y="-201.8" font-family="Helvetica,sans-Serif" font-size="9.00">+ CGrammarNonTerminal()</text>
<text text-anchor="start" x="614" y="-191.8" font-family="Helvetica,sans-Serif" font-size="9.00">+ CGrammarNonTerminal()</text>
<text text-anchor="start" x="614" y="-181.8" font-family="Helvetica,sans-Serif" font-size="9.00">+ cardinality()</text>
<text text-anchor="start" x="614" y="-171.8" font-family="Helvetica,sans-Serif" font-size="9.00">+ cardinality()</text>
<text text-anchor="start" x="614" y="-161.8" font-family="Helvetica,sans-Serif" font-size="9.00">+ children()</text>
<text text-anchor="start" x="614" y="-151.8" font-family="Helvetica,sans-Serif" font-size="9.00">+ documentation()</text>
<text text-anchor="start" x="614" y="-141.8" font-family="Helvetica,sans-Serif" font-size="9.00">+ equals()</text>
<text text-anchor="start" x="614" y="-131.8" font-family="Helvetica,sans-Serif" font-size="9.00">+ hashCode()</text>
<text text-anchor="start" x="614" y="-121.8" font-family="Helvetica,sans-Serif" font-size="9.00">+ id()</text>
<text text-anchor="start" x="614" y="-111.8" font-family="Helvetica,sans-Serif" font-size="9.00">+ toString()</text>
</a>
</g>
</g>
<!-- Node12&#45;&gt;Node13 -->
<g id="edge15" class="edge"><title>Node12&#45;&gt;Node13</title>
<path fill="none" stroke="midnightblue" d="M671,-376.866C671,-352.172 671,-319.732 671,-289.268"/>
<polygon fill="none" stroke="midnightblue" points="667.5,-376.946 671,-386.946 674.5,-376.946 667.5,-376.946"/>
</g>
<!-- Node15 -->
<g id="node16" class="node"><title>Node15</title>
<g id="a_node16"><a xlink:href="../../d2/dea/classde_1_1flashpixx_1_1rrd__antlr4_1_1antlr_1_1CGrammarGroup.html" target="_top" xlink:title="group of grammar elements ">
<polygon fill="none" stroke="black" points="1050,-347 1050,-491 1180,-491 1180,-347 1050,-347"/>
<text text-anchor="start" x="1058" y="-479.8" font-family="Helvetica,sans-Serif" font-size="9.00">de.flashpixx.rrd_antlr4.antlr.</text>
<text text-anchor="middle" x="1115" y="-469.8" font-family="Helvetica,sans-Serif" font-size="9.00">CGrammarGroup</text>
<polyline fill="none" stroke="black" points="1050,-463 1180,-463 "/>
<text text-anchor="start" x="1058" y="-451.8" font-family="Helvetica,sans-Serif" font-size="9.00">&#45; m_cardinality</text>
<text text-anchor="start" x="1058" y="-441.8" font-family="Helvetica,sans-Serif" font-size="9.00">&#45; m_element</text>
<polyline fill="none" stroke="black" points="1050,-435 1180,-435 "/>
<text text-anchor="start" x="1058" y="-423.8" font-family="Helvetica,sans-Serif" font-size="9.00">+ CGrammarGroup()</text>
<text text-anchor="start" x="1058" y="-413.8" font-family="Helvetica,sans-Serif" font-size="9.00">+ CGrammarGroup()</text>
<text text-anchor="start" x="1058" y="-403.8" font-family="Helvetica,sans-Serif" font-size="9.00">+ cardinality()</text>
<text text-anchor="start" x="1058" y="-393.8" font-family="Helvetica,sans-Serif" font-size="9.00">+ cardinality()</text>
<text text-anchor="start" x="1058" y="-383.8" font-family="Helvetica,sans-Serif" font-size="9.00">+ element()</text>
<text text-anchor="start" x="1058" y="-373.8" font-family="Helvetica,sans-Serif" font-size="9.00">+ equals()</text>
<text text-anchor="start" x="1058" y="-363.8" font-family="Helvetica,sans-Serif" font-size="9.00">+ hashCode()</text>
<text text-anchor="start" x="1058" y="-353.8" font-family="Helvetica,sans-Serif" font-size="9.00">+ toString()</text>
</a>
</g>
</g>
<!-- Node14&#45;&gt;Node15 -->
<g id="edge17" class="edge"><title>Node14&#45;&gt;Node15</title>
<path fill="none" stroke="midnightblue" d="M1115,-543.929C1115,-527.989 1115,-509.264 1115,-491.266"/>
<polygon fill="none" stroke="midnightblue" points="1111.5,-543.965 1115,-553.965 1118.5,-543.965 1111.5,-543.965"/>
</g>
<!-- Node17 -->
<g id="node18" class="node"><title>Node17</title>
<g id="a_node18"><a xlink:href="../../d8/d1c/classde_1_1flashpixx_1_1rrd__antlr4_1_1antlr_1_1CGrammarNegation.html" target="_top" xlink:title="negation ">
<polygon fill="none" stroke="black" points="1198,-347 1198,-491 1328,-491 1328,-347 1198,-347"/>
<text text-anchor="start" x="1206" y="-479.8" font-family="Helvetica,sans-Serif" font-size="9.00">de.flashpixx.rrd_antlr4.antlr.</text>
<text text-anchor="middle" x="1263" y="-469.8" font-family="Helvetica,sans-Serif" font-size="9.00">CGrammarNegation</text>
<polyline fill="none" stroke="black" points="1198,-463 1328,-463 "/>
<text text-anchor="start" x="1206" y="-451.8" font-family="Helvetica,sans-Serif" font-size="9.00">&#45; m_cardinality</text>
<text text-anchor="start" x="1206" y="-441.8" font-family="Helvetica,sans-Serif" font-size="9.00">&#45; m_element</text>
<polyline fill="none" stroke="black" points="1198,-435 1328,-435 "/>
<text text-anchor="start" x="1206" y="-423.8" font-family="Helvetica,sans-Serif" font-size="9.00">+ CGrammarNegation()</text>
<text text-anchor="start" x="1206" y="-413.8" font-family="Helvetica,sans-Serif" font-size="9.00">+ CGrammarNegation()</text>
<text text-anchor="start" x="1206" y="-403.8" font-family="Helvetica,sans-Serif" font-size="9.00">+ cardinality()</text>
<text text-anchor="start" x="1206" y="-393.8" font-family="Helvetica,sans-Serif" font-size="9.00">+ cardinality()</text>
<text text-anchor="start" x="1206" y="-383.8" font-family="Helvetica,sans-Serif" font-size="9.00">+ equals()</text>
<text text-anchor="start" x="1206" y="-373.8" font-family="Helvetica,sans-Serif" font-size="9.00">+ hashCode()</text>
<text text-anchor="start" x="1206" y="-363.8" font-family="Helvetica,sans-Serif" font-size="9.00">+ inner()</text>
<text text-anchor="start" x="1206" y="-353.8" font-family="Helvetica,sans-Serif" font-size="9.00">+ toString()</text>
</a>
</g>
</g>
<!-- Node16&#45;&gt;Node17 -->
<g id="edge19" class="edge"><title>Node16&#45;&gt;Node17</title>
<path fill="none" stroke="midnightblue" d="M1263,-543.929C1263,-527.989 1263,-509.264 1263,-491.266"/>
<polygon fill="none" stroke="midnightblue" points="1259.5,-543.965 1263,-553.965 1266.5,-543.965 1259.5,-543.965"/>
</g>
<!-- Node19 -->
<g id="node20" class="node"><title>Node19</title>
<g id="a_node20"><a xlink:href="../../df/dba/classde_1_1flashpixx_1_1rrd__antlr4_1_1antlr_1_1CGrammarTerminalValue.html" target="_top" xlink:title="stores any terminal value ">
<polygon fill="none" stroke="black" points="1522.5,-337 1522.5,-501 1675.5,-501 1675.5,-337 1522.5,-337"/>
<text text-anchor="start" x="1530.5" y="-489.8" font-family="Helvetica,sans-Serif" font-size="9.00">de::flashpixx::rrd</text>
<text text-anchor="start" x="1530.5" y="-479.8" font-family="Helvetica,sans-Serif" font-size="9.00">_antlr4::antlr::CGrammarTerminal</text>
<text text-anchor="middle" x="1599" y="-469.8" font-family="Helvetica,sans-Serif" font-size="9.00">Value&lt; T &gt;</text>
<polyline fill="none" stroke="black" points="1522.5,-463 1675.5,-463 "/>
<text text-anchor="start" x="1530.5" y="-451.8" font-family="Helvetica,sans-Serif" font-size="9.00">&#45; m_cardinality</text>
<text text-anchor="start" x="1530.5" y="-441.8" font-family="Helvetica,sans-Serif" font-size="9.00">&#45; m_value</text>
<polyline fill="none" stroke="black" points="1522.5,-435 1675.5,-435 "/>
<text text-anchor="start" x="1530.5" y="-423.8" font-family="Helvetica,sans-Serif" font-size="9.00">+ CGrammarTerminalValue()</text>
<text text-anchor="start" x="1530.5" y="-413.8" font-family="Helvetica,sans-Serif" font-size="9.00">+ CGrammarTerminalValue()</text>
<text text-anchor="start" x="1530.5" y="-403.8" font-family="Helvetica,sans-Serif" font-size="9.00">+ cardinality()</text>
<text text-anchor="start" x="1530.5" y="-393.8" font-family="Helvetica,sans-Serif" font-size="9.00">+ cardinality()</text>
<text text-anchor="start" x="1530.5" y="-383.8" font-family="Helvetica,sans-Serif" font-size="9.00">+ equals()</text>
<text text-anchor="start" x="1530.5" y="-373.8" font-family="Helvetica,sans-Serif" font-size="9.00">+ get()</text>
<text text-anchor="start" x="1530.5" y="-363.8" font-family="Helvetica,sans-Serif" font-size="9.00">+ hashCode()</text>
<text text-anchor="start" x="1530.5" y="-353.8" font-family="Helvetica,sans-Serif" font-size="9.00">+ isValueAssignableTo()</text>
<text text-anchor="start" x="1530.5" y="-343.8" font-family="Helvetica,sans-Serif" font-size="9.00">+ toString()</text>
</a>
</g>
</g>
<!-- Node18&#45;&gt;Node19 -->
<g id="edge21" class="edge"><title>Node18&#45;&gt;Node19</title>
<path fill="none" stroke="midnightblue" d="M1470.74,-541.622C1486.56,-526.628 1504.73,-509.39 1522.34,-492.696"/>
<polygon fill="none" stroke="midnightblue" points="1468.03,-539.369 1463.19,-548.79 1472.85,-544.449 1468.03,-539.369"/>
</g>
<!-- Node22 -->
<g id="node23" class="node"><title>Node22</title>
<g id="a_node23"><a xlink:href="../../dd/d41/interfacede_1_1flashpixx_1_1rrd__antlr4_1_1antlr_1_1IGrammarSimpleElement.html" target="_top" xlink:title="{de.flashpixx.rrd_antlr4.antlr.\lIGrammarSimpleElement\&lt; String \&gt;\n||+ get()\l+ isValueAssignableTo()\l}">
<polygon fill="none" stroke="black" points="1346,-382 1346,-456 1504,-456 1504,-382 1346,-382"/>
<text text-anchor="start" x="1354" y="-444.8" font-family="Helvetica,sans-Serif" font-size="9.00">de.flashpixx.rrd_antlr4.antlr.</text>
<text text-anchor="middle" x="1425" y="-434.8" font-family="Helvetica,sans-Serif" font-size="9.00">IGrammarSimpleElement&lt; String &gt;</text>
<polyline fill="none" stroke="black" points="1346,-428 1504,-428 "/>
<text text-anchor="middle" x="1425" y="-416.8" font-family="Helvetica,sans-Serif" font-size="9.00"> </text>
<polyline fill="none" stroke="black" points="1346,-410 1504,-410 "/>
<text text-anchor="start" x="1354" y="-398.8" font-family="Helvetica,sans-Serif" font-size="9.00">+ get()</text>
<text text-anchor="start" x="1354" y="-388.8" font-family="Helvetica,sans-Serif" font-size="9.00">+ isValueAssignableTo()</text>
</a>
</g>
</g>
<!-- Node18&#45;&gt;Node22 -->
<g id="edge24" class="edge"><title>Node18&#45;&gt;Node22</title>
<path fill="none" stroke="orange" d="M1425,-538.733C1425,-512.592 1425,-480.394 1425,-456.125"/>
<polygon fill="orange" stroke="orange" points="1421.5,-538.79 1425,-548.79 1428.5,-538.79 1421.5,-538.79"/>
<text text-anchor="middle" x="1446" y="-522.8" font-family="Helvetica,sans-Serif" font-size="9.00"> &lt; String &gt;</text>
</g>
<!-- Node20 -->
<g id="node21" class="node"><title>Node20</title>
<g id="a_node21"><a xlink:href="../../df/dba/classde_1_1flashpixx_1_1rrd__antlr4_1_1antlr_1_1CGrammarTerminalValue.html" target="_top" xlink:title="{de.flashpixx.rrd_antlr4.antlr.\lCGrammarTerminalValue\&lt; String \&gt;\n|&#45; m_cardinality\l&#45; m_value\l|+ CGrammarTerminalValue()\l+ CGrammarTerminalValue()\l+ cardinality()\l+ cardinality()\l+ equals()\l+ get()\l+ hashCode()\l+ isValueAssignableTo()\l+ toString()\l}">
<polygon fill="none" stroke="black" points="1515.5,-120 1515.5,-274 1676.5,-274 1676.5,-120 1515.5,-120"/>
<text text-anchor="start" x="1523.5" y="-262.8" font-family="Helvetica,sans-Serif" font-size="9.00">de.flashpixx.rrd_antlr4.antlr.</text>
<text text-anchor="middle" x="1596" y="-252.8" font-family="Helvetica,sans-Serif" font-size="9.00">CGrammarTerminalValue&lt; String &gt;</text>
<polyline fill="none" stroke="black" points="1515.5,-246 1676.5,-246 "/>
<text text-anchor="start" x="1523.5" y="-234.8" font-family="Helvetica,sans-Serif" font-size="9.00">&#45; m_cardinality</text>
<text text-anchor="start" x="1523.5" y="-224.8" font-family="Helvetica,sans-Serif" font-size="9.00">&#45; m_value</text>
<polyline fill="none" stroke="black" points="1515.5,-218 1676.5,-218 "/>
<text text-anchor="start" x="1523.5" y="-206.8" font-family="Helvetica,sans-Serif" font-size="9.00">+ CGrammarTerminalValue()</text>
<text text-anchor="start" x="1523.5" y="-196.8" font-family="Helvetica,sans-Serif" font-size="9.00">+ CGrammarTerminalValue()</text>
<text text-anchor="start" x="1523.5" y="-186.8" font-family="Helvetica,sans-Serif" font-size="9.00">+ cardinality()</text>
<text text-anchor="start" x="1523.5" y="-176.8" font-family="Helvetica,sans-Serif" font-size="9.00">+ cardinality()</text>
<text text-anchor="start" x="1523.5" y="-166.8" font-family="Helvetica,sans-Serif" font-size="9.00">+ equals()</text>
<text text-anchor="start" x="1523.5" y="-156.8" font-family="Helvetica,sans-Serif" font-size="9.00">+ get()</text>
<text text-anchor="start" x="1523.5" y="-146.8" font-family="Helvetica,sans-Serif" font-size="9.00">+ hashCode()</text>
<text text-anchor="start" x="1523.5" y="-136.8" font-family="Helvetica,sans-Serif" font-size="9.00">+ isValueAssignableTo()</text>
<text text-anchor="start" x="1523.5" y="-126.8" font-family="Helvetica,sans-Serif" font-size="9.00">+ toString()</text>
</a>
</g>
</g>
<!-- Node19&#45;&gt;Node20 -->
<g id="edge22" class="edge"><title>Node19&#45;&gt;Node20</title>
<path fill="none" stroke="orange" d="M1597.75,-326.543C1597.52,-309.135 1597.27,-291.09 1597.04,-274.218"/>
<polygon fill="orange" stroke="orange" points="1594.26,-326.754 1597.89,-336.705 1601.25,-326.658 1594.26,-326.754"/>
<text text-anchor="middle" x="1618" y="-310.8" font-family="Helvetica,sans-Serif" font-size="9.00"> &lt; String &gt;</text>
</g>
<!-- Node21 -->
<g id="node22" class="node"><title>Node21</title>
<g id="a_node22"><a xlink:href="../../d0/dbc/classde_1_1flashpixx_1_1rrd__antlr4_1_1antlr_1_1CGrammarIdentifier.html" target="_top" xlink:title="identifier of a rule for referencing ">
<polygon fill="none" stroke="black" points="1466,-1 1466,-65 1596,-65 1596,-1 1466,-1"/>
<text text-anchor="start" x="1474" y="-53.8" font-family="Helvetica,sans-Serif" font-size="9.00">de.flashpixx.rrd_antlr4.antlr.</text>
<text text-anchor="middle" x="1531" y="-43.8" font-family="Helvetica,sans-Serif" font-size="9.00">CGrammarIdentifier</text>
<polyline fill="none" stroke="black" points="1466,-37 1596,-37 "/>
<text text-anchor="middle" x="1531" y="-25.8" font-family="Helvetica,sans-Serif" font-size="9.00"> </text>
<polyline fill="none" stroke="black" points="1466,-19 1596,-19 "/>
<text text-anchor="start" x="1474" y="-7.8" font-family="Helvetica,sans-Serif" font-size="9.00">+ CGrammarIdentifier()</text>
</a>
</g>
</g>
<!-- Node20&#45;&gt;Node21 -->
<g id="edge23" class="edge"><title>Node20&#45;&gt;Node21</title>
<path fill="none" stroke="midnightblue" d="M1561.57,-110.202C1555.08,-94.012 1548.69,-78.079 1543.44,-65.0017"/>
<polygon fill="none" stroke="midnightblue" points="1558.43,-111.766 1565.4,-119.744 1564.93,-109.16 1558.43,-111.766"/>
</g>
<!-- Node23 -->
<g id="node24" class="node"><title>Node23</title>
<g id="a_node24"><a xlink:href="../../d8/d86/interfacede_1_1flashpixx_1_1rrd__antlr4_1_1antlr_1_1IGrammarIdentifier.html" target="_top" xlink:title="grammar identifier &#45; for linkage between elements ">
<polygon fill="none" stroke="black" points="1366,-165 1366,-229 1496,-229 1496,-165 1366,-165"/>
<text text-anchor="start" x="1374" y="-217.8" font-family="Helvetica,sans-Serif" font-size="9.00">de.flashpixx.rrd_antlr4.antlr.</text>
<text text-anchor="middle" x="1431" y="-207.8" font-family="Helvetica,sans-Serif" font-size="9.00">IGrammarIdentifier</text>
<polyline fill="none" stroke="black" points="1366,-201 1496,-201 "/>
<text text-anchor="middle" x="1431" y="-189.8" font-family="Helvetica,sans-Serif" font-size="9.00"> </text>
<polyline fill="none" stroke="black" points="1366,-183 1496,-183 "/>
<text text-anchor="middle" x="1431" y="-171.8" font-family="Helvetica,sans-Serif" font-size="9.00"> </text>
</a>
</g>
</g>
<!-- Node22&#45;&gt;Node23 -->
<g id="edge25" class="edge"><title>Node22&#45;&gt;Node23</title>
<path fill="none" stroke="midnightblue" d="M1426.27,-371.489C1427.44,-328.607 1429.14,-266.152 1430.15,-229.043"/>
<polygon fill="none" stroke="midnightblue" points="1422.76,-371.58 1425.99,-381.671 1429.76,-371.771 1422.76,-371.58"/>
</g>
<!-- Node23&#45;&gt;Node21 -->
<g id="edge26" class="edge"><title>Node23&#45;&gt;Node21</title>
<path fill="none" stroke="midnightblue" d="M1455.69,-155.997C1473.01,-127.95 1495.82,-90.9971 1511.78,-65.1393"/>
<polygon fill="none" stroke="midnightblue" points="1452.56,-154.417 1450.28,-164.765 1458.51,-158.094 1452.56,-154.417"/>
</g>
</g>
</svg>
