<?xml version="1.0" encoding="UTF-8" standalone="no"?>
<!DOCTYPE svg PUBLIC "-//W3C//DTD SVG 1.1//EN"
 "http://www.w3.org/Graphics/SVG/1.1/DTD/svg11.dtd">
<!-- Generated by graphviz version 2.36.0 (20140111.2315)
 -->
<!-- Title: de.flashpixx.rrd_antlr4.engine.template.ITemplate.element Pages: 1 -->
<svg width="400pt" height="83pt"
 viewBox="0.00 0.00 400.00 83.00" xmlns="http://www.w3.org/2000/svg" xmlns:xlink="http://www.w3.org/1999/xlink">
<g id="graph0" class="graph" transform="scale(1 1) rotate(0) translate(4 79)">
<title>de.flashpixx.rrd_antlr4.engine.template.ITemplate.element</title>
<!-- Node1 -->
<g id="node1" class="node"><title>Node1</title>
<polygon fill="#bfbfbf" stroke="black" points="0,-23 0,-51 178,-51 178,-23 0,-23"/>
<text text-anchor="start" x="8" y="-39.8" font-family="Helvetica,sans-Serif" font-size="9.00">de.flashpixx.rrd_antlr4.engine.template.</text>
<text text-anchor="middle" x="89" y="-29.8" font-family="Helvetica,sans-Serif" font-size="9.00">ITemplate.element</text>
</g>
<!-- Node2 -->
<g id="node2" class="node"><title>Node2</title>
<g id="a_node2"><a xlink:href="../../d6/da3/classde_1_1flashpixx_1_1rrd__antlr4_1_1antlr_1_1CASTVisitorAntLR.html#a3001276765ec297b9e776a1f2445e522" target="_top" xlink:title="de.flashpixx.rrd_antlr4.antlr.\lCASTVisitorAntLR.visitLexerRuleSpec">
<polygon fill="none" stroke="black" points="216.5,-47 216.5,-75 389.5,-75 389.5,-47 216.5,-47"/>
<text text-anchor="start" x="224.5" y="-63.8" font-family="Helvetica,sans-Serif" font-size="9.00">de.flashpixx.rrd_antlr4.antlr.</text>
<text text-anchor="middle" x="303" y="-53.8" font-family="Helvetica,sans-Serif" font-size="9.00">CASTVisitorAntLR.visitLexerRuleSpec</text>
</a>
</g>
</g>
<!-- Node1&#45;&gt;Node2 -->
<g id="edge1" class="edge"><title>Node1&#45;&gt;Node2</title>
<path fill="none" stroke="midnightblue" d="M188.188,-48.1156C197.559,-49.1765 207.013,-50.2467 216.253,-51.2927"/>
<polygon fill="midnightblue" stroke="midnightblue" points="188.396,-44.6169 178.065,-46.9697 187.608,-51.5724 188.396,-44.6169"/>
</g>
<!-- Node3 -->
<g id="node3" class="node"><title>Node3</title>
<g id="a_node3"><a xlink:href="../../d6/da3/classde_1_1flashpixx_1_1rrd__antlr4_1_1antlr_1_1CASTVisitorAntLR.html#af09827c856efc9b8ba62a94af7795208" target="_top" xlink:title="de.flashpixx.rrd_antlr4.antlr.\lCASTVisitorAntLR.visitParserRuleSpec">
<polygon fill="none" stroke="black" points="214.5,-0 214.5,-28 391.5,-28 391.5,-0 214.5,-0"/>
<text text-anchor="start" x="222.5" y="-16.8" font-family="Helvetica,sans-Serif" font-size="9.00">de.flashpixx.rrd_antlr4.antlr.</text>
<text text-anchor="middle" x="303" y="-6.8" font-family="Helvetica,sans-Serif" font-size="9.00">CASTVisitorAntLR.visitParserRuleSpec</text>
</a>
</g>
</g>
<!-- Node1&#45;&gt;Node3 -->
<g id="edge2" class="edge"><title>Node1&#45;&gt;Node3</title>
<path fill="none" stroke="midnightblue" d="M188.204,-26.3458C196.88,-25.4045 205.627,-24.4556 214.209,-23.5245"/>
<polygon fill="midnightblue" stroke="midnightblue" points="187.629,-22.8875 178.065,-27.4457 188.385,-29.8467 187.629,-22.8875"/>
</g>
</g>
</svg>
