<?xml version="1.0" encoding="UTF-8" standalone="no"?>
<!DOCTYPE svg PUBLIC "-//W3C//DTD SVG 1.1//EN"
 "http://www.w3.org/Graphics/SVG/1.1/DTD/svg11.dtd">
<!-- Generated by graphviz version 2.36.0 (20140111.2315)
 -->
<!-- Title: de.flashpixx.rrd_antlr4.engine.template.ITemplate.name Pages: 1 -->
<svg width="722pt" height="83pt"
 viewBox="0.00 0.00 722.00 83.00" xmlns="http://www.w3.org/2000/svg" xmlns:xlink="http://www.w3.org/1999/xlink">
<g id="graph0" class="graph" transform="scale(1 1) rotate(0) translate(4 79)">
<title>de.flashpixx.rrd_antlr4.engine.template.ITemplate.name</title>
<!-- Node10 -->
<g id="node1" class="node"><title>Node10</title>
<polygon fill="#bfbfbf" stroke="black" points="0,-23 0,-51 178,-51 178,-23 0,-23"/>
<text text-anchor="start" x="8" y="-39.8" font-family="Helvetica,sans-Serif" font-size="9.00">de.flashpixx.rrd_antlr4.engine.template.</text>
<text text-anchor="middle" x="89" y="-29.8" font-family="Helvetica,sans-Serif" font-size="9.00">ITemplate.name</text>
</g>
<!-- Node11 -->
<g id="node2" class="node"><title>Node11</title>
<g id="a_node2"><a xlink:href="../../d1/d8a/classde_1_1flashpixx_1_1rrd__antlr4_1_1CCommon.html#a29c6ecdaf50a517dc970e71726339c36" target="_top" xlink:title="generates the full output directory ">
<polygon fill="none" stroke="black" points="214,-23 214,-51 338,-51 338,-23 214,-23"/>
<text text-anchor="start" x="222" y="-39.8" font-family="Helvetica,sans-Serif" font-size="9.00">de.flashpixx.rrd_antlr4.</text>
<text text-anchor="middle" x="276" y="-29.8" font-family="Helvetica,sans-Serif" font-size="9.00">CCommon.outputdirectory</text>
</a>
</g>
</g>
<!-- Node10&#45;&gt;Node11 -->
<g id="edge1" class="edge"><title>Node10&#45;&gt;Node11</title>
<path fill="none" stroke="midnightblue" d="M188.378,-37C197.067,-37 205.686,-37 213.927,-37"/>
<polygon fill="midnightblue" stroke="midnightblue" points="188.166,-33.5001 178.165,-37 188.165,-40.5001 188.166,-33.5001"/>
</g>
<!-- Node12 -->
<g id="node3" class="node"><title>Node12</title>
<g id="a_node3"><a xlink:href="../../d9/d6b/classde_1_1flashpixx_1_1rrd__antlr4_1_1engine_1_1CEngine.html#adfcfdc703142684016ec6cb0bf8722a5" target="_top" xlink:title="generator call ">
<polygon fill="none" stroke="black" points="380,-47 380,-75 520,-75 520,-47 380,-47"/>
<text text-anchor="start" x="388" y="-63.8" font-family="Helvetica,sans-Serif" font-size="9.00">de.flashpixx.rrd_antlr4.engine.</text>
<text text-anchor="middle" x="450" y="-53.8" font-family="Helvetica,sans-Serif" font-size="9.00">CEngine.generate</text>
</a>
</g>
</g>
<!-- Node11&#45;&gt;Node12 -->
<g id="edge2" class="edge"><title>Node11&#45;&gt;Node12</title>
<path fill="none" stroke="midnightblue" d="M348.083,-46.9186C358.59,-48.3847 369.403,-49.8935 379.87,-51.3539"/>
<polygon fill="midnightblue" stroke="midnightblue" points="348.513,-43.4447 338.125,-45.5291 347.545,-50.3775 348.513,-43.4447"/>
</g>
<!-- Node14 -->
<g id="node5" class="node"><title>Node14</title>
<g id="a_node5"><a xlink:href="../../d2/d08/classde_1_1flashpixx_1_1rrd__antlr4_1_1generator_1_1CPlugin.html#ad3887b358097a93113bd4a67370836e7" target="_top" xlink:title="de.flashpixx.rrd_antlr4.generator.\lCPlugin.processmessages">
<polygon fill="none" stroke="black" points="374,-0 374,-28 526,-28 526,-0 374,-0"/>
<text text-anchor="start" x="382" y="-16.8" font-family="Helvetica,sans-Serif" font-size="9.00">de.flashpixx.rrd_antlr4.generator.</text>
<text text-anchor="middle" x="450" y="-6.8" font-family="Helvetica,sans-Serif" font-size="9.00">CPlugin.processmessages</text>
</a>
</g>
</g>
<!-- Node11&#45;&gt;Node14 -->
<g id="edge4" class="edge"><title>Node11&#45;&gt;Node14</title>
<path fill="none" stroke="midnightblue" d="M348.037,-27.5009C356.578,-26.3588 365.322,-25.1895 373.918,-24.04"/>
<polygon fill="midnightblue" stroke="midnightblue" points="347.573,-24.0317 338.125,-28.8263 348.501,-30.9699 347.573,-24.0317"/>
</g>
<!-- Node13 -->
<g id="node4" class="node"><title>Node13</title>
<g id="a_node4"><a xlink:href="../../d8/d1c/classde_1_1flashpixx_1_1rrd__antlr4_1_1generator_1_1IBaseGenerator.html#a4c93c2753b6799b45d62a1f64abfa023" target="_top" xlink:title="generates export for a grammar file ">
<polygon fill="none" stroke="black" points="562,-47 562,-75 714,-75 714,-47 562,-47"/>
<text text-anchor="start" x="570" y="-63.8" font-family="Helvetica,sans-Serif" font-size="9.00">de.flashpixx.rrd_antlr4.generator.</text>
<text text-anchor="middle" x="638" y="-53.8" font-family="Helvetica,sans-Serif" font-size="9.00">IBaseGenerator.generate</text>
</a>
</g>
</g>
<!-- Node12&#45;&gt;Node13 -->
<g id="edge3" class="edge"><title>Node12&#45;&gt;Node13</title>
<path fill="none" stroke="midnightblue" d="M530.523,-61C540.881,-61 551.467,-61 561.753,-61"/>
<polygon fill="midnightblue" stroke="midnightblue" points="530.26,-57.5001 520.26,-61 530.26,-64.5001 530.26,-57.5001"/>
</g>
</g>
</svg>
