<?xml version="1.0" encoding="UTF-8" standalone="no"?>
<!DOCTYPE svg PUBLIC "-//W3C//DTD SVG 1.1//EN"
 "http://www.w3.org/Graphics/SVG/1.1/DTD/svg11.dtd">
<!-- Generated by graphviz version 2.36.0 (20140111.2315)
 -->
<!-- Title: de.flashpixx.rrd_antlr4.antlr.IGrammarComplexElement Pages: 1 -->
<!--zoomable 600 -->
<svg id="main" version="1.1" xmlns="http://www.w3.org/2000/svg" xmlns:xlink="http://www.w3.org/1999/xlink" xml:space="preserve" onload="init(evt)">
<style type="text/css"><![CDATA[
.edge:hover path { stroke: red; }
.edge:hover polygon { stroke: red; fill: red; }
]]></style>
<script type="text/javascript"><![CDATA[
var edges = document.getElementsByTagName('g');
if (edges && edges.length) {
  for (var i=0;i<edges.length;i++) {
    if (edges[i].id.substr(0,4)=='edge') {
      edges[i].setAttribute('class','edge');
    }
  }
}
]]></script>
        <defs>
                <circle id="rim" cx="0" cy="0" r="7"/>
                <circle id="rim2" cx="0" cy="0" r="3.5"/>
                <g id="zoomPlus">
                        <use xlink:href="#rim" fill="#404040">
                                <set attributeName="fill" to="#808080" begin="zoomplus.mouseover" end="zoomplus.mouseout"/>
                        </use>
                        <path d="M-4,0h8M0,-4v8" fill="none" stroke="white" stroke-width="1.5" pointer-events="none"/>
                </g>
                <g id="zoomMin">
                        <use xlink:href="#rim" fill="#404040">
                                <set attributeName="fill" to="#808080" begin="zoomminus.mouseover" end="zoomminus.mouseout"/>
                        </use>
                        <path d="M-4,0h8" fill="none" stroke="white" stroke-width="1.5" pointer-events="none"/>
                </g>
                <g id="dirArrow">
                        <path fill="none" stroke="white" stroke-width="1.5" d="M0,-3.0v7 M-2.5,-0.5L0,-3.0L2.5,-0.5"/>
                </g>
               <g id="resetDef">
                       <use xlink:href="#rim2" fill="#404040">
                               <set attributeName="fill" to="#808080" begin="reset.mouseover" end="reset.mouseout"/>
                       </use>
               </g>
        </defs>

<script type="text/javascript">
var viewWidth = 434;
var viewHeight = 600;
var sectionId = 'dynsection-0';
</script>
<script xlink:href="../../svgpan.js"/>
<svg id="graph" class="graph">
<g id="viewport">
<title>de.flashpixx.rrd_antlr4.antlr.IGrammarComplexElement</title>
<!-- Node0 -->
<g id="node1" class="node"><title>Node0</title>
<polygon fill="#bfbfbf" stroke="black" points="148,-405 148,-479 278,-479 278,-405 148,-405"/>
<text text-anchor="start" x="156" y="-467.8" font-family="Helvetica,sans-Serif" font-size="9.00">de.flashpixx.rrd_antlr4.antlr.</text>
<text text-anchor="middle" x="213" y="-457.8" font-family="Helvetica,sans-Serif" font-size="9.00">IGrammarComplexElement</text>
<polyline fill="none" stroke="black" points="148,-451 278,-451 "/>
<text text-anchor="middle" x="213" y="-439.8" font-family="Helvetica,sans-Serif" font-size="9.00"> </text>
<polyline fill="none" stroke="black" points="148,-433 278,-433 "/>
<text text-anchor="start" x="156" y="-421.8" font-family="Helvetica,sans-Serif" font-size="9.00">+ documentation()</text>
<text text-anchor="start" x="156" y="-411.8" font-family="Helvetica,sans-Serif" font-size="9.00">+ id()</text>
</g>
<!-- Node2 -->
<g id="node3" class="node"><title>Node2</title>
<g id="a_node3"><a xlink:href="../../d7/d65/classde_1_1flashpixx_1_1rrd__antlr4_1_1antlr_1_1CGrammar.html" target="_top" xlink:title="grammar information ">
<polygon fill="none" stroke="black" points="0,-223 0,-367 130,-367 130,-223 0,-223"/>
<text text-anchor="start" x="8" y="-355.8" font-family="Helvetica,sans-Serif" font-size="9.00">de.flashpixx.rrd_antlr4.antlr.</text>
<text text-anchor="middle" x="65" y="-345.8" font-family="Helvetica,sans-Serif" font-size="9.00">CGrammar</text>
<polyline fill="none" stroke="black" points="0,-339 130,-339 "/>
<text text-anchor="start" x="8" y="-327.8" font-family="Helvetica,sans-Serif" font-size="9.00">&#45; m_documentation</text>
<text text-anchor="start" x="8" y="-317.8" font-family="Helvetica,sans-Serif" font-size="9.00">&#45; m_id</text>
<polyline fill="none" stroke="black" points="0,-311 130,-311 "/>
<text text-anchor="start" x="8" y="-299.8" font-family="Helvetica,sans-Serif" font-size="9.00">+ cardinality()</text>
<text text-anchor="start" x="8" y="-289.8" font-family="Helvetica,sans-Serif" font-size="9.00">+ cardinality()</text>
<text text-anchor="start" x="8" y="-279.8" font-family="Helvetica,sans-Serif" font-size="9.00">+ documentation()</text>
<text text-anchor="start" x="8" y="-269.8" font-family="Helvetica,sans-Serif" font-size="9.00">+ equals()</text>
<text text-anchor="start" x="8" y="-259.8" font-family="Helvetica,sans-Serif" font-size="9.00">+ hashCode()</text>
<text text-anchor="start" x="8" y="-249.8" font-family="Helvetica,sans-Serif" font-size="9.00">+ id()</text>
<text text-anchor="start" x="8" y="-239.8" font-family="Helvetica,sans-Serif" font-size="9.00">+ toString()</text>
<text text-anchor="start" x="8" y="-229.8" font-family="Helvetica,sans-Serif" font-size="9.00">~ CGrammar()</text>
</a>
</g>
</g>
<!-- Node0&#45;&gt;Node2 -->
<g id="edge2" class="edge"><title>Node0&#45;&gt;Node2</title>
<path fill="none" stroke="midnightblue" d="M168.691,-397.589C156.609,-385.752 143.261,-372.675 130.277,-359.954"/>
<polygon fill="none" stroke="midnightblue" points="166.443,-400.286 176.035,-404.784 171.341,-395.286 166.443,-400.286"/>
</g>
<!-- Node3 -->
<g id="node4" class="node"><title>Node3</title>
<g id="a_node4"><a xlink:href="../../d3/d53/interfacede_1_1flashpixx_1_1rrd__antlr4_1_1antlr_1_1IGrammarRule.html" target="_top" xlink:title="interface for a grammar rule ">
<polygon fill="none" stroke="black" points="148,-263 148,-327 278,-327 278,-263 148,-263"/>
<text text-anchor="start" x="156" y="-315.8" font-family="Helvetica,sans-Serif" font-size="9.00">de.flashpixx.rrd_antlr4.antlr.</text>
<text text-anchor="middle" x="213" y="-305.8" font-family="Helvetica,sans-Serif" font-size="9.00">IGrammarRule</text>
<polyline fill="none" stroke="black" points="148,-299 278,-299 "/>
<text text-anchor="middle" x="213" y="-287.8" font-family="Helvetica,sans-Serif" font-size="9.00"> </text>
<polyline fill="none" stroke="black" points="148,-281 278,-281 "/>
<text text-anchor="start" x="156" y="-269.8" font-family="Helvetica,sans-Serif" font-size="9.00">+ children()</text>
</a>
</g>
</g>
<!-- Node0&#45;&gt;Node3 -->
<g id="edge3" class="edge"><title>Node0&#45;&gt;Node3</title>
<path fill="none" stroke="midnightblue" d="M213,-394.657C213,-372.673 213,-346.984 213,-327.332"/>
<polygon fill="none" stroke="midnightblue" points="209.5,-394.784 213,-404.784 216.5,-394.784 209.5,-394.784"/>
</g>
<!-- Node5 -->
<g id="node6" class="node"><title>Node5</title>
<g id="a_node6"><a xlink:href="../../da/d3c/interfacede_1_1flashpixx_1_1rrd__antlr4_1_1antlr_1_1IGrammarTerminal.html" target="_top" xlink:title="interface of grammar terminal ">
<polygon fill="none" stroke="black" points="296,-263 296,-327 426,-327 426,-263 296,-263"/>
<text text-anchor="start" x="304" y="-315.8" font-family="Helvetica,sans-Serif" font-size="9.00">de.flashpixx.rrd_antlr4.antlr.</text>
<text text-anchor="middle" x="361" y="-305.8" font-family="Helvetica,sans-Serif" font-size="9.00">IGrammarTerminal</text>
<polyline fill="none" stroke="black" points="296,-299 426,-299 "/>
<text text-anchor="middle" x="361" y="-287.8" font-family="Helvetica,sans-Serif" font-size="9.00"> </text>
<polyline fill="none" stroke="black" points="296,-281 426,-281 "/>
<text text-anchor="start" x="304" y="-269.8" font-family="Helvetica,sans-Serif" font-size="9.00">+ children()</text>
</a>
</g>
</g>
<!-- Node0&#45;&gt;Node5 -->
<g id="edge5" class="edge"><title>Node0&#45;&gt;Node5</title>
<path fill="none" stroke="midnightblue" d="M257.28,-397.618C280.355,-375.011 308.053,-347.874 329.02,-327.332"/>
<polygon fill="none" stroke="midnightblue" points="254.659,-395.286 249.965,-404.784 259.557,-400.286 254.659,-395.286"/>
</g>
<!-- Node1 -->
<g id="node2" class="node"><title>Node1</title>
<g id="a_node2"><a xlink:href="../../dd/da7/interfacede_1_1flashpixx_1_1rrd__antlr4_1_1antlr_1_1IGrammarElement.html" target="_top" xlink:title="any grammar element ">
<polygon fill="none" stroke="black" points="148,-517 148,-591 278,-591 278,-517 148,-517"/>
<text text-anchor="start" x="156" y="-579.8" font-family="Helvetica,sans-Serif" font-size="9.00">de.flashpixx.rrd_antlr4.antlr.</text>
<text text-anchor="middle" x="213" y="-569.8" font-family="Helvetica,sans-Serif" font-size="9.00">IGrammarElement</text>
<polyline fill="none" stroke="black" points="148,-563 278,-563 "/>
<text text-anchor="middle" x="213" y="-551.8" font-family="Helvetica,sans-Serif" font-size="9.00"> </text>
<polyline fill="none" stroke="black" points="148,-545 278,-545 "/>
<text text-anchor="start" x="156" y="-533.8" font-family="Helvetica,sans-Serif" font-size="9.00">+ cardinality()</text>
<text text-anchor="start" x="156" y="-523.8" font-family="Helvetica,sans-Serif" font-size="9.00">+ cardinality()</text>
</a>
</g>
</g>
<!-- Node1&#45;&gt;Node0 -->
<g id="edge1" class="edge"><title>Node1&#45;&gt;Node0</title>
<path fill="none" stroke="midnightblue" d="M213,-506.752C213,-497.513 213,-487.935 213,-479.099"/>
<polygon fill="none" stroke="midnightblue" points="209.5,-506.982 213,-516.982 216.5,-506.982 209.5,-506.982"/>
</g>
<!-- Node4 -->
<g id="node5" class="node"><title>Node4</title>
<g id="a_node5"><a xlink:href="../../dc/dc5/classde_1_1flashpixx_1_1rrd__antlr4_1_1antlr_1_1CGrammarRule.html" target="_top" xlink:title="represenation of a grammar rule ">
<polygon fill="none" stroke="black" points="148,-11 148,-175 278,-175 278,-11 148,-11"/>
<text text-anchor="start" x="156" y="-163.8" font-family="Helvetica,sans-Serif" font-size="9.00">de.flashpixx.rrd_antlr4.antlr.</text>
<text text-anchor="middle" x="213" y="-153.8" font-family="Helvetica,sans-Serif" font-size="9.00">CGrammarRule</text>
<polyline fill="none" stroke="black" points="148,-147 278,-147 "/>
<text text-anchor="start" x="156" y="-135.8" font-family="Helvetica,sans-Serif" font-size="9.00">&#45; m_documentation</text>
<text text-anchor="start" x="156" y="-125.8" font-family="Helvetica,sans-Serif" font-size="9.00">&#45; m_element</text>
<text text-anchor="start" x="156" y="-115.8" font-family="Helvetica,sans-Serif" font-size="9.00">&#45; m_id</text>
<polyline fill="none" stroke="black" points="148,-109 278,-109 "/>
<text text-anchor="start" x="156" y="-97.8" font-family="Helvetica,sans-Serif" font-size="9.00">+ CGrammarRule()</text>
<text text-anchor="start" x="156" y="-87.8" font-family="Helvetica,sans-Serif" font-size="9.00">+ cardinality()</text>
<text text-anchor="start" x="156" y="-77.8" font-family="Helvetica,sans-Serif" font-size="9.00">+ cardinality()</text>
<text text-anchor="start" x="156" y="-67.8" font-family="Helvetica,sans-Serif" font-size="9.00">+ children()</text>
<text text-anchor="start" x="156" y="-57.8" font-family="Helvetica,sans-Serif" font-size="9.00">+ documentation()</text>
<text text-anchor="start" x="156" y="-47.8" font-family="Helvetica,sans-Serif" font-size="9.00">+ equals()</text>
<text text-anchor="start" x="156" y="-37.8" font-family="Helvetica,sans-Serif" font-size="9.00">+ hashCode()</text>
<text text-anchor="start" x="156" y="-27.8" font-family="Helvetica,sans-Serif" font-size="9.00">+ id()</text>
<text text-anchor="start" x="156" y="-17.8" font-family="Helvetica,sans-Serif" font-size="9.00">+ toString()</text>
</a>
</g>
</g>
<!-- Node3&#45;&gt;Node4 -->
<g id="edge4" class="edge"><title>Node3&#45;&gt;Node4</title>
<path fill="none" stroke="midnightblue" d="M213,-252.587C213,-230.17 213,-201.685 213,-175.059"/>
<polygon fill="none" stroke="midnightblue" points="209.5,-252.75 213,-262.75 216.5,-252.75 209.5,-252.75"/>
</g>
<!-- Node6 -->
<g id="node7" class="node"><title>Node6</title>
<g id="a_node7"><a xlink:href="../../d5/d65/classde_1_1flashpixx_1_1rrd__antlr4_1_1antlr_1_1CGrammarNonTerminal.html" target="_top" xlink:title="represenation of a terminal symbol ">
<polygon fill="none" stroke="black" points="296,-1 296,-185 426,-185 426,-1 296,-1"/>
<text text-anchor="start" x="304" y="-173.8" font-family="Helvetica,sans-Serif" font-size="9.00">de.flashpixx.rrd_antlr4.antlr.</text>
<text text-anchor="middle" x="361" y="-163.8" font-family="Helvetica,sans-Serif" font-size="9.00">CGrammarNonTerminal</text>
<polyline fill="none" stroke="black" points="296,-157 426,-157 "/>
<text text-anchor="start" x="304" y="-145.8" font-family="Helvetica,sans-Serif" font-size="9.00">&#45; m_cardinality</text>
<text text-anchor="start" x="304" y="-135.8" font-family="Helvetica,sans-Serif" font-size="9.00">&#45; m_documentation</text>
<text text-anchor="start" x="304" y="-125.8" font-family="Helvetica,sans-Serif" font-size="9.00">&#45; m_element</text>
<text text-anchor="start" x="304" y="-115.8" font-family="Helvetica,sans-Serif" font-size="9.00">&#45; m_id</text>
<polyline fill="none" stroke="black" points="296,-109 426,-109 "/>
<text text-anchor="start" x="304" y="-97.8" font-family="Helvetica,sans-Serif" font-size="9.00">+ CGrammarNonTerminal()</text>
<text text-anchor="start" x="304" y="-87.8" font-family="Helvetica,sans-Serif" font-size="9.00">+ CGrammarNonTerminal()</text>
<text text-anchor="start" x="304" y="-77.8" font-family="Helvetica,sans-Serif" font-size="9.00">+ cardinality()</text>
<text text-anchor="start" x="304" y="-67.8" font-family="Helvetica,sans-Serif" font-size="9.00">+ cardinality()</text>
<text text-anchor="start" x="304" y="-57.8" font-family="Helvetica,sans-Serif" font-size="9.00">+ children()</text>
<text text-anchor="start" x="304" y="-47.8" font-family="Helvetica,sans-Serif" font-size="9.00">+ documentation()</text>
<text text-anchor="start" x="304" y="-37.8" font-family="Helvetica,sans-Serif" font-size="9.00">+ equals()</text>
<text text-anchor="start" x="304" y="-27.8" font-family="Helvetica,sans-Serif" font-size="9.00">+ hashCode()</text>
<text text-anchor="start" x="304" y="-17.8" font-family="Helvetica,sans-Serif" font-size="9.00">+ id()</text>
<text text-anchor="start" x="304" y="-7.8" font-family="Helvetica,sans-Serif" font-size="9.00">+ toString()</text>
</a>
</g>
</g>
<!-- Node5&#45;&gt;Node6 -->
<g id="edge6" class="edge"><title>Node5&#45;&gt;Node6</title>
<path fill="none" stroke="midnightblue" d="M361,-252.646C361,-233.009 361,-208.707 361,-185.075"/>
<polygon fill="none" stroke="midnightblue" points="357.5,-252.75 361,-262.75 364.5,-252.75 357.5,-252.75"/>
</g>
</g>
</svg>
        <g id="navigator" transform="translate(0 0)" fill="#404254">
                <rect fill="#f2f5e9" fill-opacity="0.5" stroke="#606060" stroke-width=".5" x="0" y="0" width="60" height="60"/>
                <use id="zoomplus" xlink:href="#zoomPlus" x="17" y="9" onmousedown="handleZoom(evt,'in')"/>
                <use id="zoomminus" xlink:href="#zoomMin" x="42" y="9" onmousedown="handleZoom(evt,'out')"/>
                <use id="reset" xlink:href="#resetDef" x="30" y="36" onmousedown="handleReset()"/>
                <g id="arrowUp" xlink:href="#dirArrow" transform="translate(30 24)" onmousedown="handlePan(0,-1)">
                  <use xlink:href="#rim" fill="#404040">
                        <set attributeName="fill" to="#808080" begin="arrowUp.mouseover" end="arrowUp.mouseout"/>
                  </use>
                  <path fill="none" stroke="white" stroke-width="1.5" d="M0,-3.0v7 M-2.5,-0.5L0,-3.0L2.5,-0.5"/>
                </g>
                <g id="arrowRight" xlink:href="#dirArrow" transform="rotate(90) translate(36 -43)" onmousedown="handlePan(1,0)">
                  <use xlink:href="#rim" fill="#404040">
                        <set attributeName="fill" to="#808080" begin="arrowRight.mouseover" end="arrowRight.mouseout"/>
                  </use>
                  <path fill="none" stroke="white" stroke-width="1.5" d="M0,-3.0v7 M-2.5,-0.5L0,-3.0L2.5,-0.5"/>
                </g>
                <g id="arrowDown" xlink:href="#dirArrow" transform="rotate(180) translate(-30 -48)" onmousedown="handlePan(0,1)">
                  <use xlink:href="#rim" fill="#404040">
                        <set attributeName="fill" to="#808080" begin="arrowDown.mouseover" end="arrowDown.mouseout"/>
                  </use>
                  <path fill="none" stroke="white" stroke-width="1.5" d="M0,-3.0v7 M-2.5,-0.5L0,-3.0L2.5,-0.5"/>
                </g>
                <g id="arrowLeft" xlink:href="#dirArrow" transform="rotate(270) translate(-36 17)" onmousedown="handlePan(-1,0)">
                  <use xlink:href="#rim" fill="#404040">
                        <set attributeName="fill" to="#808080" begin="arrowLeft.mouseover" end="arrowLeft.mouseout"/>
                  </use>
                  <path fill="none" stroke="white" stroke-width="1.5" d="M0,-3.0v7 M-2.5,-0.5L0,-3.0L2.5,-0.5"/>
                </g>
        </g>
        <svg viewBox="0 0 15 15" width="100%" height="30px" preserveAspectRatio="xMaxYMin meet">
         <g id="arrow_out" transform="scale(0.3 0.3)">
          <a xlink:href="interfacede_1_1flashpixx_1_1rrd__antlr4_1_1antlr_1_1IGrammarComplexElement__inherit__graph_org.svg" target="_base">
           <rect id="button" ry="5" rx="5" y="6" x="6" height="38" width="38"
                fill="#f2f5e9" fill-opacity="0.5" stroke="#606060" stroke-width="1.0"/>
           <path id="arrow"
             d="M 11.500037,31.436501 C 11.940474,20.09759 22.043105,11.32322 32.158766,21.979434 L 37.068811,17.246167 C 37.068811,17.246167 37.088388,32 37.088388,32 L 22.160133,31.978069 C 22.160133,31.978069 26.997745,27.140456 26.997745,27.140456 C 18.528582,18.264221 13.291696,25.230495 11.500037,31.436501 z"
             style="fill:#404040;"/>
          </a>
         </g>
        </svg>
</svg>
