<?xml version="1.0" encoding="UTF-8" standalone="no"?>
<!DOCTYPE svg PUBLIC "-//W3C//DTD SVG 1.1//EN"
 "http://www.w3.org/Graphics/SVG/1.1/DTD/svg11.dtd">
<!-- Generated by graphviz version 2.36.0 (20140111.2315)
 -->
<!-- Title: de.flashpixx.rrd_antlr4.engine.template.CHTML Pages: 1 -->
<svg width="334pt" height="620pt"
 viewBox="0.00 0.00 334.00 620.00" xmlns="http://www.w3.org/2000/svg" xmlns:xlink="http://www.w3.org/1999/xlink">
<g id="graph0" class="graph" transform="scale(1 1) rotate(0) translate(4 616)">
<title>de.flashpixx.rrd_antlr4.engine.template.CHTML</title>
<!-- Node3 -->
<g id="node1" class="node"><title>Node3</title>
<polygon fill="#bfbfbf" stroke="black" points="103,-1 103,-175 281,-175 281,-1 103,-1"/>
<text text-anchor="start" x="111" y="-163.8" font-family="Helvetica,sans-Serif" font-size="9.00">de.flashpixx.rrd_antlr4.engine.template.</text>
<text text-anchor="middle" x="192" y="-153.8" font-family="Helvetica,sans-Serif" font-size="9.00">CHTML</text>
<polyline fill="none" stroke="black" points="103,-147 281,-147 "/>
<text text-anchor="start" x="111" y="-135.8" font-family="Helvetica,sans-Serif" font-size="9.00">&#45; m_rules</text>
<polyline fill="none" stroke="black" points="103,-129 281,-129 "/>
<text text-anchor="start" x="111" y="-117.8" font-family="Helvetica,sans-Serif" font-size="9.00">+ element()</text>
<text text-anchor="start" x="111" y="-107.8" font-family="Helvetica,sans-Serif" font-size="9.00">+ grammar()</text>
<text text-anchor="start" x="111" y="-97.8" font-family="Helvetica,sans-Serif" font-size="9.00">+ postprocess()</text>
<text text-anchor="start" x="111" y="-87.8" font-family="Helvetica,sans-Serif" font-size="9.00">+ preprocess()</text>
<text text-anchor="start" x="111" y="-77.8" font-family="Helvetica,sans-Serif" font-size="9.00">~ CHTML()</text>
<text text-anchor="start" x="111" y="-67.8" font-family="Helvetica,sans-Serif" font-size="9.00"># cardinality()</text>
<text text-anchor="start" x="111" y="-57.8" font-family="Helvetica,sans-Serif" font-size="9.00"># choice()</text>
<text text-anchor="start" x="111" y="-47.8" font-family="Helvetica,sans-Serif" font-size="9.00"># group()</text>
<text text-anchor="start" x="111" y="-37.8" font-family="Helvetica,sans-Serif" font-size="9.00"># negation()</text>
<text text-anchor="start" x="111" y="-27.8" font-family="Helvetica,sans-Serif" font-size="9.00"># nonterminal()</text>
<text text-anchor="start" x="111" y="-17.8" font-family="Helvetica,sans-Serif" font-size="9.00"># sequence()</text>
<text text-anchor="start" x="111" y="-7.8" font-family="Helvetica,sans-Serif" font-size="9.00"># terminalvalue()</text>
</g>
<!-- Node4 -->
<g id="node2" class="node"><title>Node4</title>
<g id="a_node2"><a xlink:href="../../d5/dcc/classde_1_1flashpixx_1_1rrd__antlr4_1_1engine_1_1template_1_1IBaseTemplate.html" target="_top" xlink:title="base implementation ">
<polygon fill="none" stroke="black" points="0,-223 0,-457 178,-457 178,-223 0,-223"/>
<text text-anchor="start" x="8" y="-445.8" font-family="Helvetica,sans-Serif" font-size="9.00">de.flashpixx.rrd_antlr4.engine.template.</text>
<text text-anchor="middle" x="89" y="-435.8" font-family="Helvetica,sans-Serif" font-size="9.00">IBaseTemplate</text>
<polyline fill="none" stroke="black" points="0,-429 178,-429 "/>
<text text-anchor="start" x="8" y="-417.8" font-family="Helvetica,sans-Serif" font-size="9.00">&#45; m_index</text>
<text text-anchor="start" x="8" y="-407.8" font-family="Helvetica,sans-Serif" font-size="9.00">&#45; m_name</text>
<polyline fill="none" stroke="black" points="0,-401 178,-401 "/>
<text text-anchor="start" x="8" y="-389.8" font-family="Helvetica,sans-Serif" font-size="9.00">+ IBaseTemplate()</text>
<text text-anchor="start" x="8" y="-379.8" font-family="Helvetica,sans-Serif" font-size="9.00">+ index()</text>
<text text-anchor="start" x="8" y="-369.8" font-family="Helvetica,sans-Serif" font-size="9.00">+ name()</text>
<text text-anchor="start" x="8" y="-359.8" font-family="Helvetica,sans-Serif" font-size="9.00"># cardinality()</text>
<text text-anchor="start" x="8" y="-349.8" font-family="Helvetica,sans-Serif" font-size="9.00"># choice()</text>
<text text-anchor="start" x="8" y="-339.8" font-family="Helvetica,sans-Serif" font-size="9.00"># copy()</text>
<text text-anchor="start" x="8" y="-329.8" font-family="Helvetica,sans-Serif" font-size="9.00"># group()</text>
<text text-anchor="start" x="8" y="-319.8" font-family="Helvetica,sans-Serif" font-size="9.00"># map()</text>
<text text-anchor="start" x="8" y="-309.8" font-family="Helvetica,sans-Serif" font-size="9.00"># negation()</text>
<text text-anchor="start" x="8" y="-299.8" font-family="Helvetica,sans-Serif" font-size="9.00"># nonterminal()</text>
<text text-anchor="start" x="8" y="-289.8" font-family="Helvetica,sans-Serif" font-size="9.00"># replace()</text>
<text text-anchor="start" x="8" y="-279.8" font-family="Helvetica,sans-Serif" font-size="9.00"># rule()</text>
<text text-anchor="start" x="8" y="-269.8" font-family="Helvetica,sans-Serif" font-size="9.00"># sequence()</text>
<text text-anchor="start" x="8" y="-259.8" font-family="Helvetica,sans-Serif" font-size="9.00"># terminal()</text>
<text text-anchor="start" x="8" y="-249.8" font-family="Helvetica,sans-Serif" font-size="9.00"># terminalvalue()</text>
<text text-anchor="start" x="8" y="-239.8" font-family="Helvetica,sans-Serif" font-size="9.00"># linkhash()</text>
<text text-anchor="start" x="8" y="-229.8" font-family="Helvetica,sans-Serif" font-size="9.00"># removequotes()</text>
</a>
</g>
</g>
<!-- Node4&#45;&gt;Node3 -->
<g id="edge1" class="edge"><title>Node4&#45;&gt;Node3</title>
<path fill="none" stroke="midnightblue" d="M140.766,-213.354C146.104,-200.398 151.439,-187.45 156.54,-175.069"/>
<polygon fill="none" stroke="midnightblue" points="137.455,-212.203 136.882,-222.783 143.927,-214.87 137.455,-212.203"/>
</g>
<!-- Node5 -->
<g id="node3" class="node"><title>Node5</title>
<g id="a_node3"><a xlink:href="../../d6/d71/interfacede_1_1flashpixx_1_1rrd__antlr4_1_1engine_1_1template_1_1ITemplate.html" target="_top" xlink:title="interface of a template ">
<polygon fill="none" stroke="black" points="0,-497 0,-611 178,-611 178,-497 0,-497"/>
<text text-anchor="start" x="8" y="-599.8" font-family="Helvetica,sans-Serif" font-size="9.00">de.flashpixx.rrd_antlr4.engine.template.</text>
<text text-anchor="middle" x="89" y="-589.8" font-family="Helvetica,sans-Serif" font-size="9.00">ITemplate</text>
<polyline fill="none" stroke="black" points="0,-583 178,-583 "/>
<text text-anchor="middle" x="89" y="-571.8" font-family="Helvetica,sans-Serif" font-size="9.00"> </text>
<polyline fill="none" stroke="black" points="0,-565 178,-565 "/>
<text text-anchor="start" x="8" y="-553.8" font-family="Helvetica,sans-Serif" font-size="9.00">+ element()</text>
<text text-anchor="start" x="8" y="-543.8" font-family="Helvetica,sans-Serif" font-size="9.00">+ grammar()</text>
<text text-anchor="start" x="8" y="-533.8" font-family="Helvetica,sans-Serif" font-size="9.00">+ index()</text>
<text text-anchor="start" x="8" y="-523.8" font-family="Helvetica,sans-Serif" font-size="9.00">+ name()</text>
<text text-anchor="start" x="8" y="-513.8" font-family="Helvetica,sans-Serif" font-size="9.00">+ postprocess()</text>
<text text-anchor="start" x="8" y="-503.8" font-family="Helvetica,sans-Serif" font-size="9.00">+ preprocess()</text>
</a>
</g>
</g>
<!-- Node5&#45;&gt;Node4 -->
<g id="edge2" class="edge"><title>Node5&#45;&gt;Node4</title>
<path fill="none" stroke="midnightblue" d="M89,-486.641C89,-477.134 89,-467.13 89,-457.003"/>
<polygon fill="none" stroke="midnightblue" points="85.5001,-486.744 89,-496.744 92.5001,-486.745 85.5001,-486.744"/>
</g>
<!-- Node6 -->
<g id="node4" class="node"><title>Node6</title>
<g id="a_node4"><a xlink:href="../../df/ddb/interfacede_1_1flashpixx_1_1rrd__antlr4_1_1antlr_1_1IGrammarComplexElement.html" target="_top" xlink:title="base interface of a complex grammar element ">
<polygon fill="none" stroke="black" points="196,-303 196,-377 326,-377 326,-303 196,-303"/>
<text text-anchor="start" x="204" y="-365.8" font-family="Helvetica,sans-Serif" font-size="9.00">de.flashpixx.rrd_antlr4.antlr.</text>
<text text-anchor="middle" x="261" y="-355.8" font-family="Helvetica,sans-Serif" font-size="9.00">IGrammarComplexElement</text>
<polyline fill="none" stroke="black" points="196,-349 326,-349 "/>
<text text-anchor="middle" x="261" y="-337.8" font-family="Helvetica,sans-Serif" font-size="9.00"> </text>
<polyline fill="none" stroke="black" points="196,-331 326,-331 "/>
<text text-anchor="start" x="204" y="-319.8" font-family="Helvetica,sans-Serif" font-size="9.00">+ documentation()</text>
<text text-anchor="start" x="204" y="-309.8" font-family="Helvetica,sans-Serif" font-size="9.00">+ id()</text>
</a>
</g>
</g>
<!-- Node6&#45;&gt;Node3 -->
<g id="edge3" class="edge"><title>Node6&#45;&gt;Node3</title>
<path fill="none" stroke="#404040" d="M251.04,-302.915C242.649,-272.513 230.243,-227.561 218.965,-186.701"/>
<polygon fill="none" stroke="#404040" points="218.934,-186.587 213.482,-181.868 215.741,-175.02 221.194,-179.739 218.934,-186.587"/>
<text text-anchor="middle" x="250.5" y="-196.8" font-family="Helvetica,sans-Serif" font-size="9.00"> &#45;m_grammar</text>
</g>
<!-- Node7 -->
<g id="node5" class="node"><title>Node7</title>
<g id="a_node5"><a xlink:href="../../dd/da7/interfacede_1_1flashpixx_1_1rrd__antlr4_1_1antlr_1_1IGrammarElement.html" target="_top" xlink:title="any grammar element ">
<polygon fill="none" stroke="black" points="196,-517 196,-591 326,-591 326,-517 196,-517"/>
<text text-anchor="start" x="204" y="-579.8" font-family="Helvetica,sans-Serif" font-size="9.00">de.flashpixx.rrd_antlr4.antlr.</text>
<text text-anchor="middle" x="261" y="-569.8" font-family="Helvetica,sans-Serif" font-size="9.00">IGrammarElement</text>
<polyline fill="none" stroke="black" points="196,-563 326,-563 "/>
<text text-anchor="middle" x="261" y="-551.8" font-family="Helvetica,sans-Serif" font-size="9.00"> </text>
<polyline fill="none" stroke="black" points="196,-545 326,-545 "/>
<text text-anchor="start" x="204" y="-533.8" font-family="Helvetica,sans-Serif" font-size="9.00">+ cardinality()</text>
<text text-anchor="start" x="204" y="-523.8" font-family="Helvetica,sans-Serif" font-size="9.00">+ cardinality()</text>
</a>
</g>
</g>
<!-- Node7&#45;&gt;Node6 -->
<g id="edge4" class="edge"><title>Node7&#45;&gt;Node6</title>
<path fill="none" stroke="midnightblue" d="M261,-506.543C261,-467.688 261,-413.034 261,-377.323"/>
<polygon fill="none" stroke="midnightblue" points="257.5,-506.556 261,-516.556 264.5,-506.556 257.5,-506.556"/>
</g>
</g>
</svg>
