<?xml version="1.0" encoding="UTF-8" standalone="no"?>
<!DOCTYPE svg PUBLIC "-//W3C//DTD SVG 1.1//EN"
 "http://www.w3.org/Graphics/SVG/1.1/DTD/svg11.dtd">
<!-- Generated by graphviz version 2.36.0 (20140111.2315)
 -->
<!-- Title: de.flashpixx.rrd_antlr4.antlr.IGrammarSimpleElement&lt; T &gt; Pages: 1 -->
<svg width="337pt" height="716pt"
 viewBox="0.00 0.00 337.00 716.00" xmlns="http://www.w3.org/2000/svg" xmlns:xlink="http://www.w3.org/1999/xlink">
<g id="graph0" class="graph" transform="scale(1 1) rotate(0) translate(4 712)">
<title>de.flashpixx.rrd_antlr4.antlr.IGrammarSimpleElement&lt; T &gt;</title>
<!-- Node0 -->
<g id="node1" class="node"><title>Node0</title>
<polygon fill="#bfbfbf" stroke="black" points="57,-519 57,-593 197,-593 197,-519 57,-519"/>
<text text-anchor="start" x="65" y="-581.8" font-family="Helvetica,sans-Serif" font-size="9.00">de.flashpixx.rrd_antlr4.antlr.</text>
<text text-anchor="middle" x="127" y="-571.8" font-family="Helvetica,sans-Serif" font-size="9.00">IGrammarSimpleElement&lt; T &gt;</text>
<polyline fill="none" stroke="black" points="57,-565 197,-565 "/>
<text text-anchor="middle" x="127" y="-553.8" font-family="Helvetica,sans-Serif" font-size="9.00"> </text>
<polyline fill="none" stroke="black" points="57,-547 197,-547 "/>
<text text-anchor="start" x="65" y="-535.8" font-family="Helvetica,sans-Serif" font-size="9.00">+ get()</text>
<text text-anchor="start" x="65" y="-525.8" font-family="Helvetica,sans-Serif" font-size="9.00">+ isValueAssignableTo()</text>
</g>
<!-- Node2 -->
<g id="node3" class="node"><title>Node2</title>
<g id="a_node3"><a xlink:href="../../df/dba/classde_1_1flashpixx_1_1rrd__antlr4_1_1antlr_1_1CGrammarTerminalValue.html" target="_top" xlink:title="stores any terminal value ">
<polygon fill="none" stroke="black" points="-0.5,-307 -0.5,-471 152.5,-471 152.5,-307 -0.5,-307"/>
<text text-anchor="start" x="7.5" y="-459.8" font-family="Helvetica,sans-Serif" font-size="9.00">de::flashpixx::rrd</text>
<text text-anchor="start" x="7.5" y="-449.8" font-family="Helvetica,sans-Serif" font-size="9.00">_antlr4::antlr::CGrammarTerminal</text>
<text text-anchor="middle" x="76" y="-439.8" font-family="Helvetica,sans-Serif" font-size="9.00">Value&lt; T &gt;</text>
<polyline fill="none" stroke="black" points="-0.5,-433 152.5,-433 "/>
<text text-anchor="start" x="7.5" y="-421.8" font-family="Helvetica,sans-Serif" font-size="9.00">&#45; m_cardinality</text>
<text text-anchor="start" x="7.5" y="-411.8" font-family="Helvetica,sans-Serif" font-size="9.00">&#45; m_value</text>
<polyline fill="none" stroke="black" points="-0.5,-405 152.5,-405 "/>
<text text-anchor="start" x="7.5" y="-393.8" font-family="Helvetica,sans-Serif" font-size="9.00">+ CGrammarTerminalValue()</text>
<text text-anchor="start" x="7.5" y="-383.8" font-family="Helvetica,sans-Serif" font-size="9.00">+ CGrammarTerminalValue()</text>
<text text-anchor="start" x="7.5" y="-373.8" font-family="Helvetica,sans-Serif" font-size="9.00">+ cardinality()</text>
<text text-anchor="start" x="7.5" y="-363.8" font-family="Helvetica,sans-Serif" font-size="9.00">+ cardinality()</text>
<text text-anchor="start" x="7.5" y="-353.8" font-family="Helvetica,sans-Serif" font-size="9.00">+ equals()</text>
<text text-anchor="start" x="7.5" y="-343.8" font-family="Helvetica,sans-Serif" font-size="9.00">+ get()</text>
<text text-anchor="start" x="7.5" y="-333.8" font-family="Helvetica,sans-Serif" font-size="9.00">+ hashCode()</text>
<text text-anchor="start" x="7.5" y="-323.8" font-family="Helvetica,sans-Serif" font-size="9.00">+ isValueAssignableTo()</text>
<text text-anchor="start" x="7.5" y="-313.8" font-family="Helvetica,sans-Serif" font-size="9.00">+ toString()</text>
</a>
</g>
</g>
<!-- Node0&#45;&gt;Node2 -->
<g id="edge2" class="edge"><title>Node0&#45;&gt;Node2</title>
<path fill="none" stroke="midnightblue" d="M112.831,-509.158C109.166,-497.302 105.11,-484.179 101.068,-471.102"/>
<polygon fill="none" stroke="midnightblue" points="109.511,-510.27 115.808,-518.79 116.199,-508.202 109.511,-510.27"/>
</g>
<!-- Node5 -->
<g id="node6" class="node"><title>Node5</title>
<g id="a_node6"><a xlink:href="../../dd/d41/interfacede_1_1flashpixx_1_1rrd__antlr4_1_1antlr_1_1IGrammarSimpleElement.html" target="_top" xlink:title="{de.flashpixx.rrd_antlr4.antlr.\lIGrammarSimpleElement\&lt; String \&gt;\n||+ get()\l+ isValueAssignableTo()\l}">
<polygon fill="none" stroke="black" points="171,-352 171,-426 329,-426 329,-352 171,-352"/>
<text text-anchor="start" x="179" y="-414.8" font-family="Helvetica,sans-Serif" font-size="9.00">de.flashpixx.rrd_antlr4.antlr.</text>
<text text-anchor="middle" x="250" y="-404.8" font-family="Helvetica,sans-Serif" font-size="9.00">IGrammarSimpleElement&lt; String &gt;</text>
<polyline fill="none" stroke="black" points="171,-398 329,-398 "/>
<text text-anchor="middle" x="250" y="-386.8" font-family="Helvetica,sans-Serif" font-size="9.00"> </text>
<polyline fill="none" stroke="black" points="171,-380 329,-380 "/>
<text text-anchor="start" x="179" y="-368.8" font-family="Helvetica,sans-Serif" font-size="9.00">+ get()</text>
<text text-anchor="start" x="179" y="-358.8" font-family="Helvetica,sans-Serif" font-size="9.00">+ isValueAssignableTo()</text>
</a>
</g>
</g>
<!-- Node0&#45;&gt;Node5 -->
<g id="edge5" class="edge"><title>Node0&#45;&gt;Node5</title>
<path fill="none" stroke="orange" d="M160.203,-510.459C179.912,-484.02 204.579,-450.931 223.07,-426.125"/>
<polygon fill="orange" stroke="orange" points="157.163,-508.681 153.993,-518.79 162.776,-512.864 157.163,-508.681"/>
<text text-anchor="middle" x="195" y="-492.8" font-family="Helvetica,sans-Serif" font-size="9.00"> &lt; String &gt;</text>
</g>
<!-- Node1 -->
<g id="node2" class="node"><title>Node1</title>
<g id="a_node2"><a xlink:href="../../dd/da7/interfacede_1_1flashpixx_1_1rrd__antlr4_1_1antlr_1_1IGrammarElement.html" target="_top" xlink:title="any grammar element ">
<polygon fill="none" stroke="black" points="62,-633 62,-707 192,-707 192,-633 62,-633"/>
<text text-anchor="start" x="70" y="-695.8" font-family="Helvetica,sans-Serif" font-size="9.00">de.flashpixx.rrd_antlr4.antlr.</text>
<text text-anchor="middle" x="127" y="-685.8" font-family="Helvetica,sans-Serif" font-size="9.00">IGrammarElement</text>
<polyline fill="none" stroke="black" points="62,-679 192,-679 "/>
<text text-anchor="middle" x="127" y="-667.8" font-family="Helvetica,sans-Serif" font-size="9.00"> </text>
<polyline fill="none" stroke="black" points="62,-661 192,-661 "/>
<text text-anchor="start" x="70" y="-649.8" font-family="Helvetica,sans-Serif" font-size="9.00">+ cardinality()</text>
<text text-anchor="start" x="70" y="-639.8" font-family="Helvetica,sans-Serif" font-size="9.00">+ cardinality()</text>
</a>
</g>
</g>
<!-- Node1&#45;&gt;Node0 -->
<g id="edge1" class="edge"><title>Node1&#45;&gt;Node0</title>
<path fill="none" stroke="midnightblue" d="M127,-622.894C127,-613.051 127,-602.787 127,-593.37"/>
<polygon fill="none" stroke="midnightblue" points="123.5,-622.946 127,-632.946 130.5,-622.946 123.5,-622.946"/>
</g>
<!-- Node3 -->
<g id="node4" class="node"><title>Node3</title>
<g id="a_node4"><a xlink:href="../../df/dba/classde_1_1flashpixx_1_1rrd__antlr4_1_1antlr_1_1CGrammarTerminalValue.html" target="_top" xlink:title="{de.flashpixx.rrd_antlr4.antlr.\lCGrammarTerminalValue\&lt; String \&gt;\n|&#45; m_cardinality\l&#45; m_value\l|+ CGrammarTerminalValue()\l+ CGrammarTerminalValue()\l+ cardinality()\l+ cardinality()\l+ equals()\l+ get()\l+ hashCode()\l+ isValueAssignableTo()\l+ toString()\l}">
<polygon fill="none" stroke="black" points="1.5,-105 1.5,-259 162.5,-259 162.5,-105 1.5,-105"/>
<text text-anchor="start" x="9.5" y="-247.8" font-family="Helvetica,sans-Serif" font-size="9.00">de.flashpixx.rrd_antlr4.antlr.</text>
<text text-anchor="middle" x="82" y="-237.8" font-family="Helvetica,sans-Serif" font-size="9.00">CGrammarTerminalValue&lt; String &gt;</text>
<polyline fill="none" stroke="black" points="1.5,-231 162.5,-231 "/>
<text text-anchor="start" x="9.5" y="-219.8" font-family="Helvetica,sans-Serif" font-size="9.00">&#45; m_cardinality</text>
<text text-anchor="start" x="9.5" y="-209.8" font-family="Helvetica,sans-Serif" font-size="9.00">&#45; m_value</text>
<polyline fill="none" stroke="black" points="1.5,-203 162.5,-203 "/>
<text text-anchor="start" x="9.5" y="-191.8" font-family="Helvetica,sans-Serif" font-size="9.00">+ CGrammarTerminalValue()</text>
<text text-anchor="start" x="9.5" y="-181.8" font-family="Helvetica,sans-Serif" font-size="9.00">+ CGrammarTerminalValue()</text>
<text text-anchor="start" x="9.5" y="-171.8" font-family="Helvetica,sans-Serif" font-size="9.00">+ cardinality()</text>
<text text-anchor="start" x="9.5" y="-161.8" font-family="Helvetica,sans-Serif" font-size="9.00">+ cardinality()</text>
<text text-anchor="start" x="9.5" y="-151.8" font-family="Helvetica,sans-Serif" font-size="9.00">+ equals()</text>
<text text-anchor="start" x="9.5" y="-141.8" font-family="Helvetica,sans-Serif" font-size="9.00">+ get()</text>
<text text-anchor="start" x="9.5" y="-131.8" font-family="Helvetica,sans-Serif" font-size="9.00">+ hashCode()</text>
<text text-anchor="start" x="9.5" y="-121.8" font-family="Helvetica,sans-Serif" font-size="9.00">+ isValueAssignableTo()</text>
<text text-anchor="start" x="9.5" y="-111.8" font-family="Helvetica,sans-Serif" font-size="9.00">+ toString()</text>
</a>
</g>
</g>
<!-- Node2&#45;&gt;Node3 -->
<g id="edge3" class="edge"><title>Node2&#45;&gt;Node3</title>
<path fill="none" stroke="orange" d="M78.666,-296.913C79.0357,-284.28 79.4123,-271.414 79.7729,-259.093"/>
<polygon fill="orange" stroke="orange" points="75.1655,-296.88 78.3714,-306.979 82.1625,-297.085 75.1655,-296.88"/>
<text text-anchor="middle" x="101" y="-280.8" font-family="Helvetica,sans-Serif" font-size="9.00"> &lt; String &gt;</text>
</g>
<!-- Node4 -->
<g id="node5" class="node"><title>Node4</title>
<g id="a_node5"><a xlink:href="../../d0/dbc/classde_1_1flashpixx_1_1rrd__antlr4_1_1antlr_1_1CGrammarIdentifier.html" target="_top" xlink:title="identifier of a rule for referencing ">
<polygon fill="none" stroke="black" points="117,-1 117,-65 247,-65 247,-1 117,-1"/>
<text text-anchor="start" x="125" y="-53.8" font-family="Helvetica,sans-Serif" font-size="9.00">de.flashpixx.rrd_antlr4.antlr.</text>
<text text-anchor="middle" x="182" y="-43.8" font-family="Helvetica,sans-Serif" font-size="9.00">CGrammarIdentifier</text>
<polyline fill="none" stroke="black" points="117,-37 247,-37 "/>
<text text-anchor="middle" x="182" y="-25.8" font-family="Helvetica,sans-Serif" font-size="9.00"> </text>
<polyline fill="none" stroke="black" points="117,-19 247,-19 "/>
<text text-anchor="start" x="125" y="-7.8" font-family="Helvetica,sans-Serif" font-size="9.00">+ CGrammarIdentifier()</text>
</a>
</g>
</g>
<!-- Node3&#45;&gt;Node4 -->
<g id="edge4" class="edge"><title>Node3&#45;&gt;Node4</title>
<path fill="none" stroke="midnightblue" d="M139.544,-96.411C147.066,-85.3533 154.355,-74.6385 160.708,-65.2986"/>
<polygon fill="none" stroke="midnightblue" points="136.488,-94.6796 133.757,-104.916 142.276,-98.6169 136.488,-94.6796"/>
</g>
<!-- Node6 -->
<g id="node7" class="node"><title>Node6</title>
<g id="a_node7"><a xlink:href="../../d8/d86/interfacede_1_1flashpixx_1_1rrd__antlr4_1_1antlr_1_1IGrammarIdentifier.html" target="_top" xlink:title="grammar identifier &#45; for linkage between elements ">
<polygon fill="none" stroke="black" points="182,-150 182,-214 312,-214 312,-150 182,-150"/>
<text text-anchor="start" x="190" y="-202.8" font-family="Helvetica,sans-Serif" font-size="9.00">de.flashpixx.rrd_antlr4.antlr.</text>
<text text-anchor="middle" x="247" y="-192.8" font-family="Helvetica,sans-Serif" font-size="9.00">IGrammarIdentifier</text>
<polyline fill="none" stroke="black" points="182,-186 312,-186 "/>
<text text-anchor="middle" x="247" y="-174.8" font-family="Helvetica,sans-Serif" font-size="9.00"> </text>
<polyline fill="none" stroke="black" points="182,-168 312,-168 "/>
<text text-anchor="middle" x="247" y="-156.8" font-family="Helvetica,sans-Serif" font-size="9.00"> </text>
</a>
</g>
</g>
<!-- Node5&#45;&gt;Node6 -->
<g id="edge6" class="edge"><title>Node5&#45;&gt;Node6</title>
<path fill="none" stroke="midnightblue" d="M249.324,-341.775C248.753,-302.797 247.952,-248.083 247.455,-214.125"/>
<polygon fill="none" stroke="midnightblue" points="245.825,-341.874 249.471,-351.822 252.824,-341.772 245.825,-341.874"/>
</g>
<!-- Node6&#45;&gt;Node4 -->
<g id="edge7" class="edge"><title>Node6&#45;&gt;Node4</title>
<path fill="none" stroke="midnightblue" d="M229.031,-140.363C218.52,-116.592 205.455,-87.0451 195.765,-65.13"/>
<polygon fill="none" stroke="midnightblue" points="225.97,-142.095 233.215,-149.825 232.372,-139.264 225.97,-142.095"/>
</g>
</g>
</svg>
