<?xml version="1.0" encoding="UTF-8" standalone="no"?>
<!DOCTYPE svg PUBLIC "-//W3C//DTD SVG 1.1//EN"
 "http://www.w3.org/Graphics/SVG/1.1/DTD/svg11.dtd">
<!-- Generated by graphviz version 2.36.0 (20140111.2315)
 -->
<!-- Title: de.flashpixx.rrd_antlr4.generator.CStandalone Pages: 1 -->
<svg width="318pt" height="420pt"
 viewBox="0.00 0.00 318.00 420.00" xmlns="http://www.w3.org/2000/svg" xmlns:xlink="http://www.w3.org/1999/xlink">
<g id="graph0" class="graph" transform="scale(1 1) rotate(0) translate(4 416)">
<title>de.flashpixx.rrd_antlr4.generator.CStandalone</title>
<!-- Node3 -->
<g id="node1" class="node"><title>Node3</title>
<polygon fill="#bfbfbf" stroke="black" points="82,-1 82,-85 234,-85 234,-1 82,-1"/>
<text text-anchor="start" x="90" y="-73.8" font-family="Helvetica,sans-Serif" font-size="9.00">de.flashpixx.rrd_antlr4.generator.</text>
<text text-anchor="middle" x="158" y="-63.8" font-family="Helvetica,sans-Serif" font-size="9.00">CStandalone</text>
<polyline fill="none" stroke="black" points="82,-57 234,-57 "/>
<text text-anchor="middle" x="158" y="-45.8" font-family="Helvetica,sans-Serif" font-size="9.00"> </text>
<polyline fill="none" stroke="black" points="82,-39 234,-39 "/>
<text text-anchor="start" x="90" y="-27.8" font-family="Helvetica,sans-Serif" font-size="9.00">+ CStandalone()</text>
<text text-anchor="start" x="90" y="-17.8" font-family="Helvetica,sans-Serif" font-size="9.00"># processmessages()</text>
<text text-anchor="start" x="90" y="-7.8" font-family="Helvetica,sans-Serif" font-size="9.00"># processoutputdirectory()</text>
</g>
<!-- Node4 -->
<g id="node2" class="node"><title>Node4</title>
<g id="a_node2"><a xlink:href="../../d8/d1c/classde_1_1flashpixx_1_1rrd__antlr4_1_1generator_1_1IBaseGenerator.html" target="_top" xlink:title="base generator class with default definitions ">
<polygon fill="none" stroke="black" points="82,-125 82,-279 234,-279 234,-125 82,-125"/>
<text text-anchor="start" x="90" y="-267.8" font-family="Helvetica,sans-Serif" font-size="9.00">de.flashpixx.rrd_antlr4.generator.</text>
<text text-anchor="middle" x="158" y="-257.8" font-family="Helvetica,sans-Serif" font-size="9.00">IBaseGenerator</text>
<polyline fill="none" stroke="black" points="82,-251 234,-251 "/>
<text text-anchor="start" x="90" y="-239.8" font-family="Helvetica,sans-Serif" font-size="9.00"># m_baseoutput</text>
<text text-anchor="start" x="90" y="-229.8" font-family="Helvetica,sans-Serif" font-size="9.00"># m_error</text>
<text text-anchor="start" x="90" y="-219.8" font-family="Helvetica,sans-Serif" font-size="9.00"># m_templates</text>
<text text-anchor="start" x="90" y="-209.8" font-family="Helvetica,sans-Serif" font-size="9.00">&#45; m_docuclean</text>
<text text-anchor="start" x="90" y="-199.8" font-family="Helvetica,sans-Serif" font-size="9.00">&#45; m_imports</text>
<polyline fill="none" stroke="black" points="82,-193 234,-193 "/>
<text text-anchor="start" x="90" y="-181.8" font-family="Helvetica,sans-Serif" font-size="9.00">+ finish()</text>
<text text-anchor="start" x="90" y="-171.8" font-family="Helvetica,sans-Serif" font-size="9.00">+ generate()</text>
<text text-anchor="start" x="90" y="-161.8" font-family="Helvetica,sans-Serif" font-size="9.00">+ hasError()</text>
<text text-anchor="start" x="90" y="-151.8" font-family="Helvetica,sans-Serif" font-size="9.00"># IBaseGenerator()</text>
<text text-anchor="start" x="90" y="-141.8" font-family="Helvetica,sans-Serif" font-size="9.00"># processmessages()</text>
<text text-anchor="start" x="90" y="-131.8" font-family="Helvetica,sans-Serif" font-size="9.00"># processoutputdirectory()</text>
</a>
</g>
</g>
<!-- Node4&#45;&gt;Node3 -->
<g id="edge1" class="edge"><title>Node4&#45;&gt;Node3</title>
<path fill="none" stroke="midnightblue" d="M158,-114.612C158,-104.458 158,-94.4827 158,-85.3734"/>
<polygon fill="none" stroke="midnightblue" points="154.5,-114.799 158,-124.8 161.5,-114.8 154.5,-114.799"/>
</g>
<!-- Node5 -->
<g id="node3" class="node"><title>Node5</title>
<g id="a_node3"><a xlink:href="../../df/dd6/interfacede_1_1flashpixx_1_1rrd__antlr4_1_1generator_1_1IGenerator.html" target="_top" xlink:title="interface to generate data ">
<polygon fill="none" stroke="black" points="0,-327 0,-411 152,-411 152,-327 0,-327"/>
<text text-anchor="start" x="8" y="-399.8" font-family="Helvetica,sans-Serif" font-size="9.00">de.flashpixx.rrd_antlr4.generator.</text>
<text text-anchor="middle" x="76" y="-389.8" font-family="Helvetica,sans-Serif" font-size="9.00">IGenerator</text>
<polyline fill="none" stroke="black" points="0,-383 152,-383 "/>
<text text-anchor="middle" x="76" y="-371.8" font-family="Helvetica,sans-Serif" font-size="9.00"> </text>
<polyline fill="none" stroke="black" points="0,-365 152,-365 "/>
<text text-anchor="start" x="8" y="-353.8" font-family="Helvetica,sans-Serif" font-size="9.00">+ finish()</text>
<text text-anchor="start" x="8" y="-343.8" font-family="Helvetica,sans-Serif" font-size="9.00">+ generate()</text>
<text text-anchor="start" x="8" y="-333.8" font-family="Helvetica,sans-Serif" font-size="9.00">+ hasError()</text>
</a>
</g>
</g>
<!-- Node5&#45;&gt;Node4 -->
<g id="edge2" class="edge"><title>Node5&#45;&gt;Node4</title>
<path fill="none" stroke="midnightblue" d="M101.005,-317.686C107.077,-305.468 113.704,-292.133 120.221,-279.018"/>
<polygon fill="none" stroke="midnightblue" points="97.7967,-316.276 96.4805,-326.789 104.065,-319.392 97.7967,-316.276"/>
</g>
<!-- Node6 -->
<g id="node4" class="node"><title>Node6</title>
<g id="a_node4"><a xlink:href="../../d9/d6b/classde_1_1flashpixx_1_1rrd__antlr4_1_1engine_1_1CEngine.html" target="_top" xlink:title="template engine ">
<polygon fill="none" stroke="black" points="170,-332 170,-406 310,-406 310,-332 170,-332"/>
<text text-anchor="start" x="178" y="-394.8" font-family="Helvetica,sans-Serif" font-size="9.00">de.flashpixx.rrd_antlr4.engine.</text>
<text text-anchor="middle" x="240" y="-384.8" font-family="Helvetica,sans-Serif" font-size="9.00">CEngine</text>
<polyline fill="none" stroke="black" points="170,-378 310,-378 "/>
<text text-anchor="middle" x="240" y="-366.8" font-family="Helvetica,sans-Serif" font-size="9.00"> </text>
<polyline fill="none" stroke="black" points="170,-360 310,-360 "/>
<text text-anchor="start" x="178" y="-348.8" font-family="Helvetica,sans-Serif" font-size="9.00">+ generate()</text>
<text text-anchor="start" x="178" y="-338.8" font-family="Helvetica,sans-Serif" font-size="9.00">&#45; parse()</text>
</a>
</g>
</g>
<!-- Node6&#45;&gt;Node4 -->
<g id="edge3" class="edge"><title>Node6&#45;&gt;Node4</title>
<path fill="none" stroke="#404040" d="M222.005,-331.79C215.783,-319.271 208.517,-304.649 201.157,-289.84"/>
<polygon fill="none" stroke="#404040" points="201.136,-289.798 194.884,-286.205 195.795,-279.052 202.048,-282.645 201.136,-289.798"/>
<text text-anchor="middle" x="228" y="-300.8" font-family="Helvetica,sans-Serif" font-size="9.00"> &#45;ENGINE</text>
</g>
</g>
</svg>
