<?xml version="1.0" encoding="UTF-8" standalone="no"?>
<!DOCTYPE svg PUBLIC "-//W3C//DTD SVG 1.1//EN"
 "http://www.w3.org/Graphics/SVG/1.1/DTD/svg11.dtd">
<!-- Generated by graphviz version 2.36.0 (20140111.2315)
 -->
<!-- Title: de.flashpixx.rrd_antlr4.TestCLanguageLabels.testResourceString Pages: 1 -->
<svg width="402pt" height="83pt"
 viewBox="0.00 0.00 402.00 83.00" xmlns="http://www.w3.org/2000/svg" xmlns:xlink="http://www.w3.org/1999/xlink">
<g id="graph0" class="graph" transform="scale(1 1) rotate(0) translate(4 79)">
<title>de.flashpixx.rrd_antlr4.TestCLanguageLabels.testResourceString</title>
<!-- Node8 -->
<g id="node1" class="node"><title>Node8</title>
<polygon fill="#bfbfbf" stroke="black" points="0.5,-18 0.5,-56 167.5,-56 167.5,-18 0.5,-18"/>
<text text-anchor="start" x="8.5" y="-44.8" font-family="Helvetica,sans-Serif" font-size="9.00">de.flashpixx.rrd_antlr4.</text>
<text text-anchor="start" x="8.5" y="-34.8" font-family="Helvetica,sans-Serif" font-size="9.00">TestCLanguageLabels.testResource</text>
<text text-anchor="middle" x="84" y="-24.8" font-family="Helvetica,sans-Serif" font-size="9.00">String</text>
</g>
<!-- Node9 -->
<g id="node2" class="node"><title>Node9</title>
<g id="a_node2"><a xlink:href="../../d2/d7b/classde_1_1flashpixx_1_1rrd__antlr4_1_1TestCLanguageLabels_1_1CJavaVistor.html#afe233906305119251ef8ea03495ec5b5" target="_top" xlink:title="returns the translated labels ">
<polygon fill="none" stroke="black" points="204.5,-47 204.5,-75 393.5,-75 393.5,-47 204.5,-47"/>
<text text-anchor="start" x="212.5" y="-63.8" font-family="Helvetica,sans-Serif" font-size="9.00">de.flashpixx.rrd_antlr4.</text>
<text text-anchor="middle" x="299" y="-53.8" font-family="Helvetica,sans-Serif" font-size="9.00">TestCLanguageLabels.CJavaVistor.labels</text>
</a>
</g>
</g>
<!-- Node8&#45;&gt;Node9 -->
<g id="edge1" class="edge"><title>Node8&#45;&gt;Node9</title>
<path fill="none" stroke="midnightblue" d="M167.656,-46.3134C176.407,-47.2994 185.385,-48.311 194.336,-49.3196"/>
<polygon fill="midnightblue" stroke="midnightblue" points="194.088,-52.8137 204.417,-50.4554 194.872,-45.8577 194.088,-52.8137"/>
</g>
<!-- Node10 -->
<g id="node3" class="node"><title>Node10</title>
<g id="a_node3"><a xlink:href="../../d2/d7b/classde_1_1flashpixx_1_1rrd__antlr4_1_1TestCLanguageLabels_1_1CJavaVistor.html#a97be6b7abe2aa5cced4a00acd4a8f225" target="_top" xlink:title="de.flashpixx.rrd_antlr4.\lTestCLanguageLabels.CJavaVistor.visit">
<polygon fill="none" stroke="black" points="209,-0 209,-28 389,-28 389,-0 209,-0"/>
<text text-anchor="start" x="217" y="-16.8" font-family="Helvetica,sans-Serif" font-size="9.00">de.flashpixx.rrd_antlr4.</text>
<text text-anchor="middle" x="299" y="-6.8" font-family="Helvetica,sans-Serif" font-size="9.00">TestCLanguageLabels.CJavaVistor.visit</text>
</a>
</g>
</g>
<!-- Node8&#45;&gt;Node10 -->
<g id="edge2" class="edge"><title>Node8&#45;&gt;Node10</title>
<path fill="none" stroke="midnightblue" d="M167.656,-28.0747C177.742,-26.9856 188.129,-25.864 198.429,-24.7518"/>
<polygon fill="midnightblue" stroke="midnightblue" points="199.119,-28.1977 208.686,-23.6443 198.368,-21.2382 199.119,-28.1977"/>
</g>
</g>
</svg>
