<?xml version="1.0" encoding="UTF-8" standalone="no"?>
<!DOCTYPE svg PUBLIC "-//W3C//DTD SVG 1.1//EN"
 "http://www.w3.org/Graphics/SVG/1.1/DTD/svg11.dtd">
<!-- Generated by graphviz version 2.36.0 (20140111.2315)
 -->
<!-- Title: de.flashpixx.rrd_antlr4.TestCLanguageLabels.main Pages: 1 -->
<svg width="580pt" height="83pt"
 viewBox="0.00 0.00 580.00 83.00" xmlns="http://www.w3.org/2000/svg" xmlns:xlink="http://www.w3.org/1999/xlink">
<g id="graph0" class="graph" transform="scale(1 1) rotate(0) translate(4 79)">
<title>de.flashpixx.rrd_antlr4.TestCLanguageLabels.main</title>
<!-- Node2 -->
<g id="node1" class="node"><title>Node2</title>
<polygon fill="#bfbfbf" stroke="black" points="0.5,-23 0.5,-51 133.5,-51 133.5,-23 0.5,-23"/>
<text text-anchor="start" x="8.5" y="-39.8" font-family="Helvetica,sans-Serif" font-size="9.00">de.flashpixx.rrd_antlr4.</text>
<text text-anchor="middle" x="67" y="-29.8" font-family="Helvetica,sans-Serif" font-size="9.00">TestCLanguageLabels.main</text>
</g>
<!-- Node3 -->
<g id="node2" class="node"><title>Node3</title>
<g id="a_node2"><a xlink:href="../../d7/d61/classde_1_1flashpixx_1_1rrd__antlr4_1_1IBaseTest.html#a99f6652f8a9edcc2934f5f099a1d07aa" target="_top" xlink:title="invoke all test manually ">
<polygon fill="none" stroke="black" points="170,-23 170,-51 280,-51 280,-23 170,-23"/>
<text text-anchor="start" x="178" y="-39.8" font-family="Helvetica,sans-Serif" font-size="9.00">de.flashpixx.rrd_antlr4.</text>
<text text-anchor="middle" x="225" y="-29.8" font-family="Helvetica,sans-Serif" font-size="9.00">IBaseTest.invoketest</text>
</a>
</g>
</g>
<!-- Node2&#45;&gt;Node3 -->
<g id="edge1" class="edge"><title>Node2&#45;&gt;Node3</title>
<path fill="none" stroke="midnightblue" d="M133.706,-37C142.231,-37 150.956,-37 159.462,-37"/>
<polygon fill="midnightblue" stroke="midnightblue" points="159.699,-40.5001 169.699,-37 159.699,-33.5001 159.699,-40.5001"/>
</g>
<!-- Node4 -->
<g id="node3" class="node"><title>Node4</title>
<g id="a_node3"><a xlink:href="../../d7/d61/classde_1_1flashpixx_1_1rrd__antlr4_1_1IBaseTest.html#a8a65d314b9c70dde764f0b7cd01a7ddb" target="_top" xlink:title="reads the before annotated methods ">
<polygon fill="none" stroke="black" points="316,-47 316,-75 426,-75 426,-47 316,-47"/>
<text text-anchor="start" x="324" y="-63.8" font-family="Helvetica,sans-Serif" font-size="9.00">de.flashpixx.rrd_antlr4.</text>
<text text-anchor="middle" x="371" y="-53.8" font-family="Helvetica,sans-Serif" font-size="9.00">IBaseTest.before</text>
</a>
</g>
</g>
<!-- Node3&#45;&gt;Node4 -->
<g id="edge2" class="edge"><title>Node3&#45;&gt;Node4</title>
<path fill="none" stroke="midnightblue" d="M280.03,-46.005C288.405,-47.4008 297.126,-48.8543 305.7,-50.2833"/>
<polygon fill="midnightblue" stroke="midnightblue" points="305.228,-53.7528 315.667,-51.9445 306.379,-46.8481 305.228,-53.7528"/>
</g>
<!-- Node5 -->
<g id="node4" class="node"><title>Node5</title>
<g id="a_node4"><a xlink:href="../../d7/d61/classde_1_1flashpixx_1_1rrd__antlr4_1_1IBaseTest.html#aa2463bf5995845ccd89bdbe12f9a345a" target="_top" xlink:title="invoke method and read if possible the data&#45;provider ">
<polygon fill="none" stroke="black" points="316,-0 316,-28 426,-28 426,-0 316,-0"/>
<text text-anchor="start" x="324" y="-16.8" font-family="Helvetica,sans-Serif" font-size="9.00">de.flashpixx.rrd_antlr4.</text>
<text text-anchor="middle" x="371" y="-6.8" font-family="Helvetica,sans-Serif" font-size="9.00">IBaseTest.invoke</text>
</a>
</g>
</g>
<!-- Node3&#45;&gt;Node5 -->
<g id="edge3" class="edge"><title>Node3&#45;&gt;Node5</title>
<path fill="none" stroke="midnightblue" d="M280.03,-28.3702C288.405,-27.0326 297.126,-25.6396 305.7,-24.2702"/>
<polygon fill="midnightblue" stroke="midnightblue" points="306.344,-27.7117 315.667,-22.6782 305.24,-20.7993 306.344,-27.7117"/>
</g>
<!-- Node6 -->
<g id="node5" class="node"><title>Node6</title>
<g id="a_node5"><a xlink:href="../../d7/d61/classde_1_1flashpixx_1_1rrd__antlr4_1_1IBaseTest.html#a290fb1f029c2dc3be7aa7359e3f73cb9" target="_top" xlink:title="invokes the method within the current object context ">
<polygon fill="none" stroke="black" points="462,-0 462,-28 572,-28 572,-0 462,-0"/>
<text text-anchor="start" x="470" y="-16.8" font-family="Helvetica,sans-Serif" font-size="9.00">de.flashpixx.rrd_antlr4.</text>
<text text-anchor="middle" x="517" y="-6.8" font-family="Helvetica,sans-Serif" font-size="9.00">IBaseTest.execute</text>
</a>
</g>
</g>
<!-- Node5&#45;&gt;Node6 -->
<g id="edge4" class="edge"><title>Node5&#45;&gt;Node6</title>
<path fill="none" stroke="midnightblue" d="M426.03,-14C434.314,-14 442.936,-14 451.42,-14"/>
<polygon fill="midnightblue" stroke="midnightblue" points="451.667,-17.5001 461.667,-14 451.667,-10.5001 451.667,-17.5001"/>
</g>
</g>
</svg>
