<?xml version="1.0" encoding="UTF-8" standalone="no"?>
<!DOCTYPE svg PUBLIC "-//W3C//DTD SVG 1.1//EN"
 "http://www.w3.org/Graphics/SVG/1.1/DTD/svg11.dtd">
<!-- Generated by graphviz version 2.36.0 (20140111.2315)
 -->
<!-- Title: de.flashpixx.rrd_antlr4.generator.CStandalone Pages: 1 -->
<svg width="160pt" height="418pt"
 viewBox="0.00 0.00 160.00 418.00" xmlns="http://www.w3.org/2000/svg" xmlns:xlink="http://www.w3.org/1999/xlink">
<g id="graph0" class="graph" transform="scale(1 1) rotate(0) translate(4 414)">
<title>de.flashpixx.rrd_antlr4.generator.CStandalone</title>
<!-- Node0 -->
<g id="node1" class="node"><title>Node0</title>
<polygon fill="#bfbfbf" stroke="black" points="0,-1 0,-85 152,-85 152,-1 0,-1"/>
<text text-anchor="start" x="8" y="-73.8" font-family="Helvetica,sans-Serif" font-size="9.00">de.flashpixx.rrd_antlr4.generator.</text>
<text text-anchor="middle" x="76" y="-63.8" font-family="Helvetica,sans-Serif" font-size="9.00">CStandalone</text>
<polyline fill="none" stroke="black" points="0,-57 152,-57 "/>
<text text-anchor="middle" x="76" y="-45.8" font-family="Helvetica,sans-Serif" font-size="9.00"> </text>
<polyline fill="none" stroke="black" points="0,-39 152,-39 "/>
<text text-anchor="start" x="8" y="-27.8" font-family="Helvetica,sans-Serif" font-size="9.00">+ CStandalone()</text>
<text text-anchor="start" x="8" y="-17.8" font-family="Helvetica,sans-Serif" font-size="9.00"># processmessages()</text>
<text text-anchor="start" x="8" y="-7.8" font-family="Helvetica,sans-Serif" font-size="9.00"># processoutputdirectory()</text>
</g>
<!-- Node1 -->
<g id="node2" class="node"><title>Node1</title>
<g id="a_node2"><a xlink:href="../../d8/d1c/classde_1_1flashpixx_1_1rrd__antlr4_1_1generator_1_1IBaseGenerator.html" target="_top" xlink:title="base generator class with default definitions ">
<polygon fill="none" stroke="black" points="0,-123 0,-287 152,-287 152,-123 0,-123"/>
<text text-anchor="start" x="8" y="-275.8" font-family="Helvetica,sans-Serif" font-size="9.00">de.flashpixx.rrd_antlr4.generator.</text>
<text text-anchor="middle" x="76" y="-265.8" font-family="Helvetica,sans-Serif" font-size="9.00">IBaseGenerator</text>
<polyline fill="none" stroke="black" points="0,-259 152,-259 "/>
<text text-anchor="start" x="8" y="-247.8" font-family="Helvetica,sans-Serif" font-size="9.00"># m_baseoutput</text>
<text text-anchor="start" x="8" y="-237.8" font-family="Helvetica,sans-Serif" font-size="9.00"># m_error</text>
<text text-anchor="start" x="8" y="-227.8" font-family="Helvetica,sans-Serif" font-size="9.00"># m_templates</text>
<text text-anchor="start" x="8" y="-217.8" font-family="Helvetica,sans-Serif" font-size="9.00">&#45; m_docuclean</text>
<text text-anchor="start" x="8" y="-207.8" font-family="Helvetica,sans-Serif" font-size="9.00">&#45; m_imports</text>
<text text-anchor="start" x="8" y="-197.8" font-family="Helvetica,sans-Serif" font-size="9.00">&#45; ENGINE</text>
<polyline fill="none" stroke="black" points="0,-191 152,-191 "/>
<text text-anchor="start" x="8" y="-179.8" font-family="Helvetica,sans-Serif" font-size="9.00">+ finish()</text>
<text text-anchor="start" x="8" y="-169.8" font-family="Helvetica,sans-Serif" font-size="9.00">+ generate()</text>
<text text-anchor="start" x="8" y="-159.8" font-family="Helvetica,sans-Serif" font-size="9.00">+ hasError()</text>
<text text-anchor="start" x="8" y="-149.8" font-family="Helvetica,sans-Serif" font-size="9.00"># IBaseGenerator()</text>
<text text-anchor="start" x="8" y="-139.8" font-family="Helvetica,sans-Serif" font-size="9.00"># processmessages()</text>
<text text-anchor="start" x="8" y="-129.8" font-family="Helvetica,sans-Serif" font-size="9.00"># processoutputdirectory()</text>
</a>
</g>
</g>
<!-- Node1&#45;&gt;Node0 -->
<g id="edge1" class="edge"><title>Node1&#45;&gt;Node0</title>
<path fill="none" stroke="midnightblue" d="M76,-112.295C76,-102.86 76,-93.6478 76,-85.1975"/>
<polygon fill="none" stroke="midnightblue" points="72.5001,-112.594 76,-122.594 79.5001,-112.594 72.5001,-112.594"/>
</g>
<!-- Node2 -->
<g id="node3" class="node"><title>Node2</title>
<g id="a_node3"><a xlink:href="../../df/dd6/interfacede_1_1flashpixx_1_1rrd__antlr4_1_1generator_1_1IGenerator.html" target="_top" xlink:title="interface to generate data ">
<polygon fill="none" stroke="black" points="0,-325 0,-409 152,-409 152,-325 0,-325"/>
<text text-anchor="start" x="8" y="-397.8" font-family="Helvetica,sans-Serif" font-size="9.00">de.flashpixx.rrd_antlr4.generator.</text>
<text text-anchor="middle" x="76" y="-387.8" font-family="Helvetica,sans-Serif" font-size="9.00">IGenerator</text>
<polyline fill="none" stroke="black" points="0,-381 152,-381 "/>
<text text-anchor="middle" x="76" y="-369.8" font-family="Helvetica,sans-Serif" font-size="9.00"> </text>
<polyline fill="none" stroke="black" points="0,-363 152,-363 "/>
<text text-anchor="start" x="8" y="-351.8" font-family="Helvetica,sans-Serif" font-size="9.00">+ finish()</text>
<text text-anchor="start" x="8" y="-341.8" font-family="Helvetica,sans-Serif" font-size="9.00">+ generate()</text>
<text text-anchor="start" x="8" y="-331.8" font-family="Helvetica,sans-Serif" font-size="9.00">+ hasError()</text>
</a>
</g>
</g>
<!-- Node2&#45;&gt;Node1 -->
<g id="edge2" class="edge"><title>Node2&#45;&gt;Node1</title>
<path fill="none" stroke="midnightblue" d="M76,-314.722C76,-305.904 76,-296.55 76,-287.174"/>
<polygon fill="none" stroke="midnightblue" points="72.5001,-314.796 76,-324.796 79.5001,-314.796 72.5001,-314.796"/>
</g>
</g>
</svg>
