<?xml version="1.0" encoding="UTF-8" standalone="no"?>
<!DOCTYPE svg PUBLIC "-//W3C//DTD SVG 1.1//EN"
 "http://www.w3.org/Graphics/SVG/1.1/DTD/svg11.dtd">
<!-- Generated by graphviz version 2.36.0 (20140111.2315)
 -->
<!-- Title: de.flashpixx.rrd_antlr4.antlr.IGrammarIdentifier Pages: 1 -->
<svg width="164pt" height="424pt"
 viewBox="0.00 0.00 164.00 424.00" xmlns="http://www.w3.org/2000/svg" xmlns:xlink="http://www.w3.org/1999/xlink">
<g id="graph0" class="graph" transform="scale(1 1) rotate(0) translate(4 420)">
<title>de.flashpixx.rrd_antlr4.antlr.IGrammarIdentifier</title>
<!-- Node5 -->
<g id="node1" class="node"><title>Node5</title>
<polygon fill="#bfbfbf" stroke="black" points="13,-1 13,-65 143,-65 143,-1 13,-1"/>
<text text-anchor="start" x="21" y="-53.8" font-family="Helvetica,sans-Serif" font-size="9.00">de.flashpixx.rrd_antlr4.antlr.</text>
<text text-anchor="middle" x="78" y="-43.8" font-family="Helvetica,sans-Serif" font-size="9.00">IGrammarIdentifier</text>
<polyline fill="none" stroke="black" points="13,-37 143,-37 "/>
<text text-anchor="middle" x="78" y="-25.8" font-family="Helvetica,sans-Serif" font-size="9.00"> </text>
<polyline fill="none" stroke="black" points="13,-19 143,-19 "/>
<text text-anchor="middle" x="78" y="-7.8" font-family="Helvetica,sans-Serif" font-size="9.00"> </text>
</g>
<!-- Node6 -->
<g id="node2" class="node"><title>Node6</title>
<g id="a_node2"><a xlink:href="../../dd/d41/interfacede_1_1flashpixx_1_1rrd__antlr4_1_1antlr_1_1IGrammarSimpleElement.html" target="_top" xlink:title="{de.flashpixx.rrd_antlr4.antlr.\lIGrammarSimpleElement\&lt; String \&gt;\n||+ get()\l+ isValueAssignableTo()\l}">
<polygon fill="none" stroke="black" points="-1,-105 -1,-179 157,-179 157,-105 -1,-105"/>
<text text-anchor="start" x="7" y="-167.8" font-family="Helvetica,sans-Serif" font-size="9.00">de.flashpixx.rrd_antlr4.antlr.</text>
<text text-anchor="middle" x="78" y="-157.8" font-family="Helvetica,sans-Serif" font-size="9.00">IGrammarSimpleElement&lt; String &gt;</text>
<polyline fill="none" stroke="black" points="-1,-151 157,-151 "/>
<text text-anchor="middle" x="78" y="-139.8" font-family="Helvetica,sans-Serif" font-size="9.00"> </text>
<polyline fill="none" stroke="black" points="-1,-133 157,-133 "/>
<text text-anchor="start" x="7" y="-121.8" font-family="Helvetica,sans-Serif" font-size="9.00">+ get()</text>
<text text-anchor="start" x="7" y="-111.8" font-family="Helvetica,sans-Serif" font-size="9.00">+ isValueAssignableTo()</text>
</a>
</g>
</g>
<!-- Node6&#45;&gt;Node5 -->
<g id="edge1" class="edge"><title>Node6&#45;&gt;Node5</title>
<path fill="none" stroke="midnightblue" d="M78,-94.5954C78,-84.6552 78,-74.3825 78,-65.1825"/>
<polygon fill="none" stroke="midnightblue" points="74.5001,-94.7746 78,-104.775 81.5001,-94.7747 74.5001,-94.7746"/>
</g>
<!-- Node7 -->
<g id="node3" class="node"><title>Node7</title>
<g id="a_node3"><a xlink:href="../../dd/d41/interfacede_1_1flashpixx_1_1rrd__antlr4_1_1antlr_1_1IGrammarSimpleElement.html" target="_top" xlink:title="a simple grammar element ">
<polygon fill="none" stroke="black" points="8,-227 8,-301 148,-301 148,-227 8,-227"/>
<text text-anchor="start" x="16" y="-289.8" font-family="Helvetica,sans-Serif" font-size="9.00">de.flashpixx.rrd_antlr4.antlr.</text>
<text text-anchor="middle" x="78" y="-279.8" font-family="Helvetica,sans-Serif" font-size="9.00">IGrammarSimpleElement&lt; T &gt;</text>
<polyline fill="none" stroke="black" points="8,-273 148,-273 "/>
<text text-anchor="middle" x="78" y="-261.8" font-family="Helvetica,sans-Serif" font-size="9.00"> </text>
<polyline fill="none" stroke="black" points="8,-255 148,-255 "/>
<text text-anchor="start" x="16" y="-243.8" font-family="Helvetica,sans-Serif" font-size="9.00">+ get()</text>
<text text-anchor="start" x="16" y="-233.8" font-family="Helvetica,sans-Serif" font-size="9.00">+ isValueAssignableTo()</text>
</a>
</g>
</g>
<!-- Node7&#45;&gt;Node6 -->
<g id="edge2" class="edge"><title>Node7&#45;&gt;Node6</title>
<path fill="none" stroke="orange" d="M78,-216.823C78,-204.42 78,-191.183 78,-179.393"/>
<polygon fill="orange" stroke="orange" points="74.5001,-216.996 78,-226.996 81.5001,-216.996 74.5001,-216.996"/>
<text text-anchor="middle" x="99" y="-200.8" font-family="Helvetica,sans-Serif" font-size="9.00"> &lt; String &gt;</text>
</g>
<!-- Node8 -->
<g id="node4" class="node"><title>Node8</title>
<g id="a_node4"><a xlink:href="../../dd/da7/interfacede_1_1flashpixx_1_1rrd__antlr4_1_1antlr_1_1IGrammarElement.html" target="_top" xlink:title="any grammar element ">
<polygon fill="none" stroke="black" points="13,-341 13,-415 143,-415 143,-341 13,-341"/>
<text text-anchor="start" x="21" y="-403.8" font-family="Helvetica,sans-Serif" font-size="9.00">de.flashpixx.rrd_antlr4.antlr.</text>
<text text-anchor="middle" x="78" y="-393.8" font-family="Helvetica,sans-Serif" font-size="9.00">IGrammarElement</text>
<polyline fill="none" stroke="black" points="13,-387 143,-387 "/>
<text text-anchor="middle" x="78" y="-375.8" font-family="Helvetica,sans-Serif" font-size="9.00"> </text>
<polyline fill="none" stroke="black" points="13,-369 143,-369 "/>
<text text-anchor="start" x="21" y="-357.8" font-family="Helvetica,sans-Serif" font-size="9.00">+ cardinality()</text>
<text text-anchor="start" x="21" y="-347.8" font-family="Helvetica,sans-Serif" font-size="9.00">+ cardinality()</text>
</a>
</g>
</g>
<!-- Node8&#45;&gt;Node7 -->
<g id="edge3" class="edge"><title>Node8&#45;&gt;Node7</title>
<path fill="none" stroke="midnightblue" d="M78,-330.894C78,-321.051 78,-310.787 78,-301.37"/>
<polygon fill="none" stroke="midnightblue" points="74.5001,-330.946 78,-340.946 81.5001,-330.946 74.5001,-330.946"/>
</g>
</g>
</svg>
