<?xml version="1.0" encoding="UTF-8" standalone="no"?>
<!DOCTYPE svg PUBLIC "-//W3C//DTD SVG 1.1//EN"
 "http://www.w3.org/Graphics/SVG/1.1/DTD/svg11.dtd">
<!-- Generated by graphviz version 2.36.0 (20140111.2315)
 -->
<!-- Title: de.flashpixx.rrd_antlr4.TestCLanguageLabels.CJavaVistor.buildlabel Pages: 1 -->
<svg width="652pt" height="36pt"
 viewBox="0.00 0.00 652.00 36.00" xmlns="http://www.w3.org/2000/svg" xmlns:xlink="http://www.w3.org/1999/xlink">
<g id="graph0" class="graph" transform="scale(1 1) rotate(0) translate(4 32)">
<title>de.flashpixx.rrd_antlr4.TestCLanguageLabels.CJavaVistor.buildlabel</title>
<!-- Node1 -->
<g id="node1" class="node"><title>Node1</title>
<polygon fill="#bfbfbf" stroke="black" points="0.5,-0 0.5,-28 205.5,-28 205.5,-0 0.5,-0"/>
<text text-anchor="start" x="8.5" y="-16.8" font-family="Helvetica,sans-Serif" font-size="9.00">de.flashpixx.rrd_antlr4.</text>
<text text-anchor="middle" x="103" y="-6.8" font-family="Helvetica,sans-Serif" font-size="9.00">TestCLanguageLabels.CJavaVistor.buildlabel</text>
</g>
<!-- Node2 -->
<g id="node2" class="node"><title>Node2</title>
<g id="a_node2"><a xlink:href="../../d2/d7b/classde_1_1flashpixx_1_1rrd__antlr4_1_1TestCLanguageLabels_1_1CJavaVistor.html#a6c18dc3119f0c1e0604331f113a2e626" target="_top" xlink:title="gets the class name and label name ">
<polygon fill="none" stroke="black" points="242.5,-0 242.5,-28 427.5,-28 427.5,-0 242.5,-0"/>
<text text-anchor="start" x="250.5" y="-16.8" font-family="Helvetica,sans-Serif" font-size="9.00">de.flashpixx.rrd_antlr4.</text>
<text text-anchor="middle" x="335" y="-6.8" font-family="Helvetica,sans-Serif" font-size="9.00">TestCLanguageLabels.CJavaVistor.label</text>
</a>
</g>
</g>
<!-- Node1&#45;&gt;Node2 -->
<g id="edge1" class="edge"><title>Node1&#45;&gt;Node2</title>
<path fill="none" stroke="midnightblue" d="M215.655,-14C224.624,-14 233.621,-14 242.427,-14"/>
<polygon fill="midnightblue" stroke="midnightblue" points="215.551,-10.5001 205.551,-14 215.551,-17.5001 215.551,-10.5001"/>
</g>
<!-- Node3 -->
<g id="node3" class="node"><title>Node3</title>
<g id="a_node3"><a xlink:href="../../d2/d7b/classde_1_1flashpixx_1_1rrd__antlr4_1_1TestCLanguageLabels_1_1CJavaVistor.html#aaddb9e056158395921888a686f32d457" target="_top" xlink:title="de.flashpixx.rrd_antlr4.\lTestCLanguageLabels.CJavaVistor.visit">
<polygon fill="none" stroke="black" points="464,-0 464,-28 644,-28 644,-0 464,-0"/>
<text text-anchor="start" x="472" y="-16.8" font-family="Helvetica,sans-Serif" font-size="9.00">de.flashpixx.rrd_antlr4.</text>
<text text-anchor="middle" x="554" y="-6.8" font-family="Helvetica,sans-Serif" font-size="9.00">TestCLanguageLabels.CJavaVistor.visit</text>
</a>
</g>
</g>
<!-- Node2&#45;&gt;Node3 -->
<g id="edge2" class="edge"><title>Node2&#45;&gt;Node3</title>
<path fill="none" stroke="midnightblue" d="M437.818,-14C446.46,-14 455.158,-14 463.693,-14"/>
<polygon fill="midnightblue" stroke="midnightblue" points="437.713,-10.5001 427.713,-14 437.713,-17.5001 437.713,-10.5001"/>
</g>
</g>
</svg>
