<?xml version="1.0" encoding="UTF-8" standalone="no"?>
<!DOCTYPE svg PUBLIC "-//W3C//DTD SVG 1.1//EN"
 "http://www.w3.org/Graphics/SVG/1.1/DTD/svg11.dtd">
<!-- Generated by graphviz version 2.36.0 (20140111.2315)
 -->
<!-- Title: de.flashpixx.rrd_antlr4.antlr.CGrammarEmptyCollection Pages: 1 -->
<svg width="218pt" height="352pt"
 viewBox="0.00 0.00 218.00 352.00" xmlns="http://www.w3.org/2000/svg" xmlns:xlink="http://www.w3.org/1999/xlink">
<g id="graph0" class="graph" transform="scale(1 1) rotate(0) translate(4 348)">
<title>de.flashpixx.rrd_antlr4.antlr.CGrammarEmptyCollection</title>
<!-- Node3 -->
<g id="node1" class="node"><title>Node3</title>
<polygon fill="#bfbfbf" stroke="black" points="0,-1 0,-125 140,-125 140,-1 0,-1"/>
<text text-anchor="start" x="8" y="-113.8" font-family="Helvetica,sans-Serif" font-size="9.00">de.flashpixx.rrd_antlr4.antlr.</text>
<text text-anchor="middle" x="70" y="-103.8" font-family="Helvetica,sans-Serif" font-size="9.00">CGrammarEmptyCollection</text>
<polyline fill="none" stroke="black" points="0,-97 140,-97 "/>
<text text-anchor="middle" x="70" y="-85.8" font-family="Helvetica,sans-Serif" font-size="9.00"> </text>
<polyline fill="none" stroke="black" points="0,-79 140,-79 "/>
<text text-anchor="start" x="8" y="-67.8" font-family="Helvetica,sans-Serif" font-size="9.00">+ cardinality()</text>
<text text-anchor="start" x="8" y="-57.8" font-family="Helvetica,sans-Serif" font-size="9.00">+ cardinality()</text>
<text text-anchor="start" x="8" y="-47.8" font-family="Helvetica,sans-Serif" font-size="9.00">+ equals()</text>
<text text-anchor="start" x="8" y="-37.8" font-family="Helvetica,sans-Serif" font-size="9.00">+ get()</text>
<text text-anchor="start" x="8" y="-27.8" font-family="Helvetica,sans-Serif" font-size="9.00">+ hashCode()</text>
<text text-anchor="start" x="8" y="-17.8" font-family="Helvetica,sans-Serif" font-size="9.00">+ toString()</text>
<text text-anchor="start" x="8" y="-7.8" font-family="Helvetica,sans-Serif" font-size="9.00">&#45; CGrammarEmptyCollection()</text>
</g>
<!-- Node3&#45;&gt;Node3 -->
<g id="edge3" class="edge"><title>Node3&#45;&gt;Node3</title>
<path fill="none" stroke="#404040" d="M140.071,-77.0199C150.749,-74.8803 158,-70.207 158,-63 158,-58.8334 155.577,-55.5137 151.468,-53.0408"/>
<polygon fill="none" stroke="#404040" points="151.375,-53.0076 144.38,-54.7618 140.071,-48.9801 147.065,-47.2258 151.375,-53.0076"/>
<text text-anchor="middle" x="184" y="-60.8" font-family="Helvetica,sans-Serif" font-size="9.00"> &#45;INSTANCE</text>
</g>
<!-- Node4 -->
<g id="node2" class="node"><title>Node4</title>
<g id="a_node2"><a xlink:href="../../da/dbc/interfacede_1_1flashpixx_1_1rrd__antlr4_1_1antlr_1_1IGrammarCollection.html" target="_top" xlink:title="interface of grammar collection elements ">
<polygon fill="none" stroke="black" points="5,-165 5,-229 135,-229 135,-165 5,-165"/>
<text text-anchor="start" x="13" y="-217.8" font-family="Helvetica,sans-Serif" font-size="9.00">de.flashpixx.rrd_antlr4.antlr.</text>
<text text-anchor="middle" x="70" y="-207.8" font-family="Helvetica,sans-Serif" font-size="9.00">IGrammarCollection</text>
<polyline fill="none" stroke="black" points="5,-201 135,-201 "/>
<text text-anchor="middle" x="70" y="-189.8" font-family="Helvetica,sans-Serif" font-size="9.00"> </text>
<polyline fill="none" stroke="black" points="5,-183 135,-183 "/>
<text text-anchor="start" x="13" y="-171.8" font-family="Helvetica,sans-Serif" font-size="9.00">+ get()</text>
</a>
</g>
</g>
<!-- Node4&#45;&gt;Node3 -->
<g id="edge1" class="edge"><title>Node4&#45;&gt;Node3</title>
<path fill="none" stroke="midnightblue" d="M70,-154.539C70,-145.192 70,-135.079 70,-125.116"/>
<polygon fill="none" stroke="midnightblue" points="66.5001,-154.718 70,-164.718 73.5001,-154.718 66.5001,-154.718"/>
</g>
<!-- Node5 -->
<g id="node3" class="node"><title>Node5</title>
<g id="a_node3"><a xlink:href="../../dd/da7/interfacede_1_1flashpixx_1_1rrd__antlr4_1_1antlr_1_1IGrammarElement.html" target="_top" xlink:title="any grammar element ">
<polygon fill="none" stroke="black" points="5,-269 5,-343 135,-343 135,-269 5,-269"/>
<text text-anchor="start" x="13" y="-331.8" font-family="Helvetica,sans-Serif" font-size="9.00">de.flashpixx.rrd_antlr4.antlr.</text>
<text text-anchor="middle" x="70" y="-321.8" font-family="Helvetica,sans-Serif" font-size="9.00">IGrammarElement</text>
<polyline fill="none" stroke="black" points="5,-315 135,-315 "/>
<text text-anchor="middle" x="70" y="-303.8" font-family="Helvetica,sans-Serif" font-size="9.00"> </text>
<polyline fill="none" stroke="black" points="5,-297 135,-297 "/>
<text text-anchor="start" x="13" y="-285.8" font-family="Helvetica,sans-Serif" font-size="9.00">+ cardinality()</text>
<text text-anchor="start" x="13" y="-275.8" font-family="Helvetica,sans-Serif" font-size="9.00">+ cardinality()</text>
</a>
</g>
</g>
<!-- Node5&#45;&gt;Node4 -->
<g id="edge2" class="edge"><title>Node5&#45;&gt;Node4</title>
<path fill="none" stroke="midnightblue" d="M70,-258.595C70,-248.655 70,-238.382 70,-229.182"/>
<polygon fill="none" stroke="midnightblue" points="66.5001,-258.775 70,-268.775 73.5001,-258.775 66.5001,-258.775"/>
</g>
</g>
</svg>
