<?xml version="1.0" encoding="UTF-8" standalone="no"?>
<!DOCTYPE svg PUBLIC "-//W3C//DTD SVG 1.1//EN"
 "http://www.w3.org/Graphics/SVG/1.1/DTD/svg11.dtd">
<!-- Generated by graphviz version 2.36.0 (20140111.2315)
 -->
<!-- Title: de.flashpixx.rrd_antlr4.antlr.IGrammarSimpleElement.get Pages: 1 -->
<svg width="356pt" height="177pt"
 viewBox="0.00 0.00 356.00 177.00" xmlns="http://www.w3.org/2000/svg" xmlns:xlink="http://www.w3.org/1999/xlink">
<g id="graph0" class="graph" transform="scale(1 1) rotate(0) translate(4 173)">
<title>de.flashpixx.rrd_antlr4.antlr.IGrammarSimpleElement.get</title>
<!-- Node1 -->
<g id="node1" class="node"><title>Node1</title>
<polygon fill="#bfbfbf" stroke="black" points="0,-70 0,-98 134,-98 134,-70 0,-70"/>
<text text-anchor="start" x="8" y="-86.8" font-family="Helvetica,sans-Serif" font-size="9.00">de.flashpixx.rrd_antlr4.antlr.</text>
<text text-anchor="middle" x="67" y="-76.8" font-family="Helvetica,sans-Serif" font-size="9.00">IGrammarSimpleElement.get</text>
</g>
<!-- Node2 -->
<g id="node2" class="node"><title>Node2</title>
<g id="a_node2"><a xlink:href="../../da/d63/classde_1_1flashpixx_1_1rrd__antlr4_1_1engine_1_1template_1_1CLaTeXSyntax.html#aba3fe3a52c7750b61dbf164fb8369967" target="_top" xlink:title="de.flashpixx.rrd_antlr4.engine.template.\lCLaTeXSyntax.nonterminal">
<polygon fill="none" stroke="black" points="170,-141 170,-169 348,-169 348,-141 170,-141"/>
<text text-anchor="start" x="178" y="-157.8" font-family="Helvetica,sans-Serif" font-size="9.00">de.flashpixx.rrd_antlr4.engine.template.</text>
<text text-anchor="middle" x="259" y="-147.8" font-family="Helvetica,sans-Serif" font-size="9.00">CLaTeXSyntax.nonterminal</text>
</a>
</g>
</g>
<!-- Node1&#45;&gt;Node2 -->
<g id="edge1" class="edge"><title>Node1&#45;&gt;Node2</title>
<path fill="none" stroke="midnightblue" d="M104.195,-102.458C123.421,-111.804 147.641,-122.863 170,-131 179.821,-134.574 190.428,-137.901 200.762,-140.87"/>
<polygon fill="midnightblue" stroke="midnightblue" points="105.706,-99.3003 95.188,-98.0271 102.616,-105.582 105.706,-99.3003"/>
</g>
<!-- Node3 -->
<g id="node3" class="node"><title>Node3</title>
<g id="a_node3"><a xlink:href="../../df/db0/classde_1_1flashpixx_1_1rrd__antlr4_1_1engine_1_1template_1_1CHTML.html#a246f7b99948e2cd65f1118e178b2afdd" target="_top" xlink:title="de.flashpixx.rrd_antlr4.engine.template.\lCHTML.nonterminal">
<polygon fill="none" stroke="black" points="170,-94 170,-122 348,-122 348,-94 170,-94"/>
<text text-anchor="start" x="178" y="-110.8" font-family="Helvetica,sans-Serif" font-size="9.00">de.flashpixx.rrd_antlr4.engine.template.</text>
<text text-anchor="middle" x="259" y="-100.8" font-family="Helvetica,sans-Serif" font-size="9.00">CHTML.nonterminal</text>
</a>
</g>
</g>
<!-- Node1&#45;&gt;Node3 -->
<g id="edge2" class="edge"><title>Node1&#45;&gt;Node3</title>
<path fill="none" stroke="midnightblue" d="M144.355,-93.6449C152.791,-94.7104 161.43,-95.8017 169.994,-96.8834"/>
<polygon fill="midnightblue" stroke="midnightblue" points="144.546,-90.1412 134.186,-92.3603 143.669,-97.086 144.546,-90.1412"/>
</g>
<!-- Node4 -->
<g id="node4" class="node"><title>Node4</title>
<g id="a_node4"><a xlink:href="../../da/d63/classde_1_1flashpixx_1_1rrd__antlr4_1_1engine_1_1template_1_1CLaTeXSyntax.html#adc9563210a9aef0d9d757f7a034333f2" target="_top" xlink:title="de.flashpixx.rrd_antlr4.engine.template.\lCLaTeXSyntax.terminalvalue">
<polygon fill="none" stroke="black" points="170,-47 170,-75 348,-75 348,-47 170,-47"/>
<text text-anchor="start" x="178" y="-63.8" font-family="Helvetica,sans-Serif" font-size="9.00">de.flashpixx.rrd_antlr4.engine.template.</text>
<text text-anchor="middle" x="259" y="-53.8" font-family="Helvetica,sans-Serif" font-size="9.00">CLaTeXSyntax.terminalvalue</text>
</a>
</g>
</g>
<!-- Node1&#45;&gt;Node4 -->
<g id="edge3" class="edge"><title>Node1&#45;&gt;Node4</title>
<path fill="none" stroke="midnightblue" d="M144.355,-74.757C152.791,-73.7359 161.43,-72.69 169.994,-71.6534"/>
<polygon fill="midnightblue" stroke="midnightblue" points="143.693,-71.3115 134.186,-75.988 144.534,-78.2608 143.693,-71.3115"/>
</g>
<!-- Node5 -->
<g id="node5" class="node"><title>Node5</title>
<g id="a_node5"><a xlink:href="../../df/db0/classde_1_1flashpixx_1_1rrd__antlr4_1_1engine_1_1template_1_1CHTML.html#a9bc18d6178f781f81e8a758a1a21e0b5" target="_top" xlink:title="de.flashpixx.rrd_antlr4.engine.template.\lCHTML.terminalvalue">
<polygon fill="none" stroke="black" points="170,-0 170,-28 348,-28 348,-0 170,-0"/>
<text text-anchor="start" x="178" y="-16.8" font-family="Helvetica,sans-Serif" font-size="9.00">de.flashpixx.rrd_antlr4.engine.template.</text>
<text text-anchor="middle" x="259" y="-6.8" font-family="Helvetica,sans-Serif" font-size="9.00">CHTML.terminalvalue</text>
</a>
</g>
</g>
<!-- Node1&#45;&gt;Node5 -->
<g id="edge4" class="edge"><title>Node1&#45;&gt;Node5</title>
<path fill="none" stroke="midnightblue" d="M105.313,-65.4678C124.372,-56.4415 148.105,-45.8674 170,-38 179.985,-34.4121 190.771,-31.0584 201.255,-28.0619"/>
<polygon fill="midnightblue" stroke="midnightblue" points="103.59,-62.4122 96.0841,-69.8897 106.615,-68.7249 103.59,-62.4122"/>
</g>
</g>
</svg>
