<?xml version="1.0" encoding="UTF-8" standalone="no"?>
<!DOCTYPE svg PUBLIC "-//W3C//DTD SVG 1.1//EN"
 "http://www.w3.org/Graphics/SVG/1.1/DTD/svg11.dtd">
<!-- Generated by graphviz version 2.36.0 (20140111.2315)
 -->
<!-- Title: de.flashpixx.rrd_antlr4.TestCLanguageLabels Pages: 1 -->
<svg width="122pt" height="256pt"
 viewBox="0.00 0.00 122.00 256.00" xmlns="http://www.w3.org/2000/svg" xmlns:xlink="http://www.w3.org/1999/xlink">
<g id="graph0" class="graph" transform="scale(1 1) rotate(0) translate(4 252)">
<title>de.flashpixx.rrd_antlr4.TestCLanguageLabels</title>
<!-- Node0 -->
<g id="node1" class="node"><title>Node0</title>
<polygon fill="#bfbfbf" stroke="black" points="-1,-1 -1,-115 115,-115 115,-1 -1,-1"/>
<text text-anchor="start" x="7" y="-103.8" font-family="Helvetica,sans-Serif" font-size="9.00">de.flashpixx.rrd_antlr4.</text>
<text text-anchor="middle" x="57" y="-93.8" font-family="Helvetica,sans-Serif" font-size="9.00">TestCLanguageLabels</text>
<polyline fill="none" stroke="black" points="-1,-87 115,-87 "/>
<text text-anchor="start" x="7" y="-75.8" font-family="Helvetica,sans-Serif" font-size="9.00">&#45; CLASSSEPARATOR</text>
<text text-anchor="start" x="7" y="-65.8" font-family="Helvetica,sans-Serif" font-size="9.00">&#45; LANGUAGEPROPERY</text>
<text text-anchor="start" x="7" y="-55.8" font-family="Helvetica,sans-Serif" font-size="9.00">&#45; SEARCHPATH</text>
<polyline fill="none" stroke="black" points="-1,-49 115,-49 "/>
<text text-anchor="start" x="7" y="-37.8" font-family="Helvetica,sans-Serif" font-size="9.00">+ testResourceString()</text>
<text text-anchor="start" x="7" y="-27.8" font-family="Helvetica,sans-Serif" font-size="9.00">+ testTranslation()</text>
<text text-anchor="start" x="7" y="-17.8" font-family="Helvetica,sans-Serif" font-size="9.00">+ main()</text>
<text text-anchor="start" x="7" y="-7.8" font-family="Helvetica,sans-Serif" font-size="9.00">~ [static initializer]()</text>
</g>
<!-- Node1 -->
<g id="node2" class="node"><title>Node1</title>
<g id="a_node2"><a xlink:href="../../d7/d61/classde_1_1flashpixx_1_1rrd__antlr4_1_1IBaseTest.html" target="_top" xlink:title="base test class with helpers ">
<polygon fill="none" stroke="black" points="2,-153 2,-247 112,-247 112,-153 2,-153"/>
<text text-anchor="start" x="10" y="-235.8" font-family="Helvetica,sans-Serif" font-size="9.00">de.flashpixx.rrd_antlr4.</text>
<text text-anchor="middle" x="57" y="-225.8" font-family="Helvetica,sans-Serif" font-size="9.00">IBaseTest</text>
<polyline fill="none" stroke="black" points="2,-219 112,-219 "/>
<text text-anchor="middle" x="57" y="-207.8" font-family="Helvetica,sans-Serif" font-size="9.00"> </text>
<polyline fill="none" stroke="black" points="2,-201 112,-201 "/>
<text text-anchor="start" x="10" y="-189.8" font-family="Helvetica,sans-Serif" font-size="9.00"># invoketest()</text>
<text text-anchor="start" x="10" y="-179.8" font-family="Helvetica,sans-Serif" font-size="9.00">&#45; before()</text>
<text text-anchor="start" x="10" y="-169.8" font-family="Helvetica,sans-Serif" font-size="9.00">&#45; execute()</text>
<text text-anchor="start" x="10" y="-159.8" font-family="Helvetica,sans-Serif" font-size="9.00">&#45; invoke()</text>
</a>
</g>
</g>
<!-- Node1&#45;&gt;Node0 -->
<g id="edge1" class="edge"><title>Node1&#45;&gt;Node0</title>
<path fill="none" stroke="midnightblue" d="M57,-142.769C57,-133.761 57,-124.437 57,-115.425"/>
<polygon fill="none" stroke="midnightblue" points="53.5001,-142.771 57,-152.771 60.5001,-142.771 53.5001,-142.771"/>
</g>
</g>
</svg>
