<?xml version="1.0" encoding="UTF-8" standalone="no"?>
<!DOCTYPE svg PUBLIC "-//W3C//DTD SVG 1.1//EN"
 "http://www.w3.org/Graphics/SVG/1.1/DTD/svg11.dtd">
<!-- Generated by graphviz version 2.36.0 (20140111.2315)
 -->
<!-- Title: de.flashpixx.rrd_antlr4.engine.template.CLaTeXSyntax Pages: 1 -->
<svg width="334pt" height="630pt"
 viewBox="0.00 0.00 334.00 630.00" xmlns="http://www.w3.org/2000/svg" xmlns:xlink="http://www.w3.org/1999/xlink">
<g id="graph0" class="graph" transform="scale(1 1) rotate(0) translate(4 626)">
<title>de.flashpixx.rrd_antlr4.engine.template.CLaTeXSyntax</title>
<!-- Node3 -->
<g id="node1" class="node"><title>Node3</title>
<polygon fill="#bfbfbf" stroke="black" points="103,-1 103,-185 281,-185 281,-1 103,-1"/>
<text text-anchor="start" x="111" y="-173.8" font-family="Helvetica,sans-Serif" font-size="9.00">de.flashpixx.rrd_antlr4.engine.template.</text>
<text text-anchor="middle" x="192" y="-163.8" font-family="Helvetica,sans-Serif" font-size="9.00">CLaTeXSyntax</text>
<polyline fill="none" stroke="black" points="103,-157 281,-157 "/>
<text text-anchor="start" x="111" y="-145.8" font-family="Helvetica,sans-Serif" font-size="9.00">&#45; m_rules</text>
<polyline fill="none" stroke="black" points="103,-139 281,-139 "/>
<text text-anchor="start" x="111" y="-127.8" font-family="Helvetica,sans-Serif" font-size="9.00">+ element()</text>
<text text-anchor="start" x="111" y="-117.8" font-family="Helvetica,sans-Serif" font-size="9.00">+ grammar()</text>
<text text-anchor="start" x="111" y="-107.8" font-family="Helvetica,sans-Serif" font-size="9.00">+ postprocess()</text>
<text text-anchor="start" x="111" y="-97.8" font-family="Helvetica,sans-Serif" font-size="9.00">+ preprocess()</text>
<text text-anchor="start" x="111" y="-87.8" font-family="Helvetica,sans-Serif" font-size="9.00">~ CLaTeXSyntax()</text>
<text text-anchor="start" x="111" y="-77.8" font-family="Helvetica,sans-Serif" font-size="9.00"># cardinality()</text>
<text text-anchor="start" x="111" y="-67.8" font-family="Helvetica,sans-Serif" font-size="9.00"># choice()</text>
<text text-anchor="start" x="111" y="-57.8" font-family="Helvetica,sans-Serif" font-size="9.00"># group()</text>
<text text-anchor="start" x="111" y="-47.8" font-family="Helvetica,sans-Serif" font-size="9.00"># negation()</text>
<text text-anchor="start" x="111" y="-37.8" font-family="Helvetica,sans-Serif" font-size="9.00"># nonterminal()</text>
<text text-anchor="start" x="111" y="-27.8" font-family="Helvetica,sans-Serif" font-size="9.00"># sequence()</text>
<text text-anchor="start" x="111" y="-17.8" font-family="Helvetica,sans-Serif" font-size="9.00"># terminalvalue()</text>
<text text-anchor="start" x="111" y="-7.8" font-family="Helvetica,sans-Serif" font-size="9.00">&#45; escapelatex()</text>
</g>
<!-- Node4 -->
<g id="node2" class="node"><title>Node4</title>
<g id="a_node2"><a xlink:href="../../d5/dcc/classde_1_1flashpixx_1_1rrd__antlr4_1_1engine_1_1template_1_1IBaseTemplate.html" target="_top" xlink:title="base implementation ">
<polygon fill="none" stroke="black" points="0,-233 0,-467 178,-467 178,-233 0,-233"/>
<text text-anchor="start" x="8" y="-455.8" font-family="Helvetica,sans-Serif" font-size="9.00">de.flashpixx.rrd_antlr4.engine.template.</text>
<text text-anchor="middle" x="89" y="-445.8" font-family="Helvetica,sans-Serif" font-size="9.00">IBaseTemplate</text>
<polyline fill="none" stroke="black" points="0,-439 178,-439 "/>
<text text-anchor="start" x="8" y="-427.8" font-family="Helvetica,sans-Serif" font-size="9.00">&#45; m_index</text>
<text text-anchor="start" x="8" y="-417.8" font-family="Helvetica,sans-Serif" font-size="9.00">&#45; m_name</text>
<polyline fill="none" stroke="black" points="0,-411 178,-411 "/>
<text text-anchor="start" x="8" y="-399.8" font-family="Helvetica,sans-Serif" font-size="9.00">+ IBaseTemplate()</text>
<text text-anchor="start" x="8" y="-389.8" font-family="Helvetica,sans-Serif" font-size="9.00">+ index()</text>
<text text-anchor="start" x="8" y="-379.8" font-family="Helvetica,sans-Serif" font-size="9.00">+ name()</text>
<text text-anchor="start" x="8" y="-369.8" font-family="Helvetica,sans-Serif" font-size="9.00"># cardinality()</text>
<text text-anchor="start" x="8" y="-359.8" font-family="Helvetica,sans-Serif" font-size="9.00"># choice()</text>
<text text-anchor="start" x="8" y="-349.8" font-family="Helvetica,sans-Serif" font-size="9.00"># copy()</text>
<text text-anchor="start" x="8" y="-339.8" font-family="Helvetica,sans-Serif" font-size="9.00"># group()</text>
<text text-anchor="start" x="8" y="-329.8" font-family="Helvetica,sans-Serif" font-size="9.00"># map()</text>
<text text-anchor="start" x="8" y="-319.8" font-family="Helvetica,sans-Serif" font-size="9.00"># negation()</text>
<text text-anchor="start" x="8" y="-309.8" font-family="Helvetica,sans-Serif" font-size="9.00"># nonterminal()</text>
<text text-anchor="start" x="8" y="-299.8" font-family="Helvetica,sans-Serif" font-size="9.00"># replace()</text>
<text text-anchor="start" x="8" y="-289.8" font-family="Helvetica,sans-Serif" font-size="9.00"># rule()</text>
<text text-anchor="start" x="8" y="-279.8" font-family="Helvetica,sans-Serif" font-size="9.00"># sequence()</text>
<text text-anchor="start" x="8" y="-269.8" font-family="Helvetica,sans-Serif" font-size="9.00"># terminal()</text>
<text text-anchor="start" x="8" y="-259.8" font-family="Helvetica,sans-Serif" font-size="9.00"># terminalvalue()</text>
<text text-anchor="start" x="8" y="-249.8" font-family="Helvetica,sans-Serif" font-size="9.00"># linkhash()</text>
<text text-anchor="start" x="8" y="-239.8" font-family="Helvetica,sans-Serif" font-size="9.00"># removequotes()</text>
</a>
</g>
</g>
<!-- Node4&#45;&gt;Node3 -->
<g id="edge1" class="edge"><title>Node4&#45;&gt;Node3</title>
<path fill="none" stroke="midnightblue" d="M139.748,-223.361C144.932,-210.529 150.125,-197.671 155.119,-185.308"/>
<polygon fill="none" stroke="midnightblue" points="136.479,-222.11 135.979,-232.693 142.969,-224.732 136.479,-222.11"/>
</g>
<!-- Node5 -->
<g id="node3" class="node"><title>Node5</title>
<g id="a_node3"><a xlink:href="../../d6/d71/interfacede_1_1flashpixx_1_1rrd__antlr4_1_1engine_1_1template_1_1ITemplate.html" target="_top" xlink:title="interface of a template ">
<polygon fill="none" stroke="black" points="0,-507 0,-621 178,-621 178,-507 0,-507"/>
<text text-anchor="start" x="8" y="-609.8" font-family="Helvetica,sans-Serif" font-size="9.00">de.flashpixx.rrd_antlr4.engine.template.</text>
<text text-anchor="middle" x="89" y="-599.8" font-family="Helvetica,sans-Serif" font-size="9.00">ITemplate</text>
<polyline fill="none" stroke="black" points="0,-593 178,-593 "/>
<text text-anchor="middle" x="89" y="-581.8" font-family="Helvetica,sans-Serif" font-size="9.00"> </text>
<polyline fill="none" stroke="black" points="0,-575 178,-575 "/>
<text text-anchor="start" x="8" y="-563.8" font-family="Helvetica,sans-Serif" font-size="9.00">+ element()</text>
<text text-anchor="start" x="8" y="-553.8" font-family="Helvetica,sans-Serif" font-size="9.00">+ grammar()</text>
<text text-anchor="start" x="8" y="-543.8" font-family="Helvetica,sans-Serif" font-size="9.00">+ index()</text>
<text text-anchor="start" x="8" y="-533.8" font-family="Helvetica,sans-Serif" font-size="9.00">+ name()</text>
<text text-anchor="start" x="8" y="-523.8" font-family="Helvetica,sans-Serif" font-size="9.00">+ postprocess()</text>
<text text-anchor="start" x="8" y="-513.8" font-family="Helvetica,sans-Serif" font-size="9.00">+ preprocess()</text>
</a>
</g>
</g>
<!-- Node5&#45;&gt;Node4 -->
<g id="edge2" class="edge"><title>Node5&#45;&gt;Node4</title>
<path fill="none" stroke="midnightblue" d="M89,-496.641C89,-487.134 89,-477.13 89,-467.003"/>
<polygon fill="none" stroke="midnightblue" points="85.5001,-496.744 89,-506.744 92.5001,-496.745 85.5001,-496.744"/>
</g>
<!-- Node6 -->
<g id="node4" class="node"><title>Node6</title>
<g id="a_node4"><a xlink:href="../../df/ddb/interfacede_1_1flashpixx_1_1rrd__antlr4_1_1antlr_1_1IGrammarComplexElement.html" target="_top" xlink:title="base interface of a complex grammar element ">
<polygon fill="none" stroke="black" points="196,-313 196,-387 326,-387 326,-313 196,-313"/>
<text text-anchor="start" x="204" y="-375.8" font-family="Helvetica,sans-Serif" font-size="9.00">de.flashpixx.rrd_antlr4.antlr.</text>
<text text-anchor="middle" x="261" y="-365.8" font-family="Helvetica,sans-Serif" font-size="9.00">IGrammarComplexElement</text>
<polyline fill="none" stroke="black" points="196,-359 326,-359 "/>
<text text-anchor="middle" x="261" y="-347.8" font-family="Helvetica,sans-Serif" font-size="9.00"> </text>
<polyline fill="none" stroke="black" points="196,-341 326,-341 "/>
<text text-anchor="start" x="204" y="-329.8" font-family="Helvetica,sans-Serif" font-size="9.00">+ documentation()</text>
<text text-anchor="start" x="204" y="-319.8" font-family="Helvetica,sans-Serif" font-size="9.00">+ id()</text>
</a>
</g>
</g>
<!-- Node6&#45;&gt;Node3 -->
<g id="edge3" class="edge"><title>Node6&#45;&gt;Node3</title>
<path fill="none" stroke="#404040" d="M251.187,-312.736C243.009,-282.51 230.943,-237.919 219.835,-196.87"/>
<polygon fill="none" stroke="#404040" points="219.79,-196.701 214.361,-191.954 216.655,-185.118 222.084,-189.865 219.79,-196.701"/>
<text text-anchor="middle" x="252.5" y="-206.8" font-family="Helvetica,sans-Serif" font-size="9.00"> &#45;m_grammar</text>
</g>
<!-- Node7 -->
<g id="node5" class="node"><title>Node7</title>
<g id="a_node5"><a xlink:href="../../dd/da7/interfacede_1_1flashpixx_1_1rrd__antlr4_1_1antlr_1_1IGrammarElement.html" target="_top" xlink:title="any grammar element ">
<polygon fill="none" stroke="black" points="196,-527 196,-601 326,-601 326,-527 196,-527"/>
<text text-anchor="start" x="204" y="-589.8" font-family="Helvetica,sans-Serif" font-size="9.00">de.flashpixx.rrd_antlr4.antlr.</text>
<text text-anchor="middle" x="261" y="-579.8" font-family="Helvetica,sans-Serif" font-size="9.00">IGrammarElement</text>
<polyline fill="none" stroke="black" points="196,-573 326,-573 "/>
<text text-anchor="middle" x="261" y="-561.8" font-family="Helvetica,sans-Serif" font-size="9.00"> </text>
<polyline fill="none" stroke="black" points="196,-555 326,-555 "/>
<text text-anchor="start" x="204" y="-543.8" font-family="Helvetica,sans-Serif" font-size="9.00">+ cardinality()</text>
<text text-anchor="start" x="204" y="-533.8" font-family="Helvetica,sans-Serif" font-size="9.00">+ cardinality()</text>
</a>
</g>
</g>
<!-- Node7&#45;&gt;Node6 -->
<g id="edge4" class="edge"><title>Node7&#45;&gt;Node6</title>
<path fill="none" stroke="midnightblue" d="M261,-516.543C261,-477.688 261,-423.034 261,-387.323"/>
<polygon fill="none" stroke="midnightblue" points="257.5,-516.556 261,-526.556 264.5,-516.556 257.5,-516.556"/>
</g>
</g>
</svg>
