<?xml version="1.0" encoding="UTF-8" standalone="no"?>
<!DOCTYPE svg PUBLIC "-//W3C//DTD SVG 1.1//EN"
 "http://www.w3.org/Graphics/SVG/1.1/DTD/svg11.dtd">
<!-- Generated by graphviz version 2.36.0 (20140111.2315)
 -->
<!-- Title: de.flashpixx.rrd_antlr4.IBaseTest.invoketest Pages: 1 -->
<svg width="410pt" height="83pt"
 viewBox="0.00 0.00 410.00 83.00" xmlns="http://www.w3.org/2000/svg" xmlns:xlink="http://www.w3.org/1999/xlink">
<g id="graph0" class="graph" transform="scale(1 1) rotate(0) translate(4 79)">
<title>de.flashpixx.rrd_antlr4.IBaseTest.invoketest</title>
<!-- Node14 -->
<g id="node1" class="node"><title>Node14</title>
<polygon fill="#bfbfbf" stroke="black" points="0,-23 0,-51 110,-51 110,-23 0,-23"/>
<text text-anchor="start" x="8" y="-39.8" font-family="Helvetica,sans-Serif" font-size="9.00">de.flashpixx.rrd_antlr4.</text>
<text text-anchor="middle" x="55" y="-29.8" font-family="Helvetica,sans-Serif" font-size="9.00">IBaseTest.invoketest</text>
</g>
<!-- Node15 -->
<g id="node2" class="node"><title>Node15</title>
<g id="a_node2"><a xlink:href="../../d7/d61/classde_1_1flashpixx_1_1rrd__antlr4_1_1IBaseTest.html#a8a65d314b9c70dde764f0b7cd01a7ddb" target="_top" xlink:title="reads the before annotated methods ">
<polygon fill="none" stroke="black" points="146,-47 146,-75 256,-75 256,-47 146,-47"/>
<text text-anchor="start" x="154" y="-63.8" font-family="Helvetica,sans-Serif" font-size="9.00">de.flashpixx.rrd_antlr4.</text>
<text text-anchor="middle" x="201" y="-53.8" font-family="Helvetica,sans-Serif" font-size="9.00">IBaseTest.before</text>
</a>
</g>
</g>
<!-- Node14&#45;&gt;Node15 -->
<g id="edge1" class="edge"><title>Node14&#45;&gt;Node15</title>
<path fill="none" stroke="midnightblue" d="M110.03,-46.005C118.405,-47.4008 127.126,-48.8543 135.7,-50.2833"/>
<polygon fill="midnightblue" stroke="midnightblue" points="135.228,-53.7528 145.667,-51.9445 136.379,-46.8481 135.228,-53.7528"/>
</g>
<!-- Node16 -->
<g id="node3" class="node"><title>Node16</title>
<g id="a_node3"><a xlink:href="../../d7/d61/classde_1_1flashpixx_1_1rrd__antlr4_1_1IBaseTest.html#aa2463bf5995845ccd89bdbe12f9a345a" target="_top" xlink:title="invoke method and read if possible the data&#45;provider ">
<polygon fill="none" stroke="black" points="146,-0 146,-28 256,-28 256,-0 146,-0"/>
<text text-anchor="start" x="154" y="-16.8" font-family="Helvetica,sans-Serif" font-size="9.00">de.flashpixx.rrd_antlr4.</text>
<text text-anchor="middle" x="201" y="-6.8" font-family="Helvetica,sans-Serif" font-size="9.00">IBaseTest.invoke</text>
</a>
</g>
</g>
<!-- Node14&#45;&gt;Node16 -->
<g id="edge2" class="edge"><title>Node14&#45;&gt;Node16</title>
<path fill="none" stroke="midnightblue" d="M110.03,-28.3702C118.405,-27.0326 127.126,-25.6396 135.7,-24.2702"/>
<polygon fill="midnightblue" stroke="midnightblue" points="136.344,-27.7117 145.667,-22.6782 135.24,-20.7993 136.344,-27.7117"/>
</g>
<!-- Node17 -->
<g id="node4" class="node"><title>Node17</title>
<g id="a_node4"><a xlink:href="../../d7/d61/classde_1_1flashpixx_1_1rrd__antlr4_1_1IBaseTest.html#a290fb1f029c2dc3be7aa7359e3f73cb9" target="_top" xlink:title="invokes the method within the current object context ">
<polygon fill="none" stroke="black" points="292,-0 292,-28 402,-28 402,-0 292,-0"/>
<text text-anchor="start" x="300" y="-16.8" font-family="Helvetica,sans-Serif" font-size="9.00">de.flashpixx.rrd_antlr4.</text>
<text text-anchor="middle" x="347" y="-6.8" font-family="Helvetica,sans-Serif" font-size="9.00">IBaseTest.execute</text>
</a>
</g>
</g>
<!-- Node16&#45;&gt;Node17 -->
<g id="edge3" class="edge"><title>Node16&#45;&gt;Node17</title>
<path fill="none" stroke="midnightblue" d="M256.03,-14C264.314,-14 272.936,-14 281.42,-14"/>
<polygon fill="midnightblue" stroke="midnightblue" points="281.667,-17.5001 291.667,-14 281.667,-10.5001 281.667,-17.5001"/>
</g>
</g>
</svg>
