<?xml version="1.0" encoding="UTF-8" standalone="no"?>
<!DOCTYPE svg PUBLIC "-//W3C//DTD SVG 1.1//EN"
 "http://www.w3.org/Graphics/SVG/1.1/DTD/svg11.dtd">
<!-- Generated by graphviz version 2.36.0 (20140111.2315)
 -->
<!-- Title: de.flashpixx.rrd_antlr4.IBaseTest.execute Pages: 1 -->
<!--zoomable 36 -->
<svg id="main" version="1.1" xmlns="http://www.w3.org/2000/svg" xmlns:xlink="http://www.w3.org/1999/xlink" xml:space="preserve" onload="init(evt)">
<style type="text/css"><![CDATA[
.edge:hover path { stroke: red; }
.edge:hover polygon { stroke: red; fill: red; }
]]></style>
<script type="text/javascript"><![CDATA[
var edges = document.getElementsByTagName('g');
if (edges && edges.length) {
  for (var i=0;i<edges.length;i++) {
    if (edges[i].id.substr(0,4)=='edge') {
      edges[i].setAttribute('class','edge');
    }
  }
}
]]></script>
        <defs>
                <circle id="rim" cx="0" cy="0" r="7"/>
                <circle id="rim2" cx="0" cy="0" r="3.5"/>
                <g id="zoomPlus">
                        <use xlink:href="#rim" fill="#404040">
                                <set attributeName="fill" to="#808080" begin="zoomplus.mouseover" end="zoomplus.mouseout"/>
                        </use>
                        <path d="M-4,0h8M0,-4v8" fill="none" stroke="white" stroke-width="1.5" pointer-events="none"/>
                </g>
                <g id="zoomMin">
                        <use xlink:href="#rim" fill="#404040">
                                <set attributeName="fill" to="#808080" begin="zoomminus.mouseover" end="zoomminus.mouseout"/>
                        </use>
                        <path d="M-4,0h8" fill="none" stroke="white" stroke-width="1.5" pointer-events="none"/>
                </g>
                <g id="dirArrow">
                        <path fill="none" stroke="white" stroke-width="1.5" d="M0,-3.0v7 M-2.5,-0.5L0,-3.0L2.5,-0.5"/>
                </g>
               <g id="resetDef">
                       <use xlink:href="#rim2" fill="#404040">
                               <set attributeName="fill" to="#808080" begin="reset.mouseover" end="reset.mouseout"/>
                       </use>
               </g>
        </defs>

<script type="text/javascript">
var viewWidth = 580;
var viewHeight = 36;
var sectionId = 'dynsection-3';
</script>
<script xlink:href="../../svgpan.js"/>
<svg id="graph" class="graph">
<g id="viewport">
<title>de.flashpixx.rrd_antlr4.IBaseTest.execute</title>
<!-- Node5 -->
<g id="node1" class="node"><title>Node5</title>
<polygon fill="#bfbfbf" stroke="black" points="0,-0 0,-28 110,-28 110,-0 0,-0"/>
<text text-anchor="start" x="8" y="-16.8" font-family="Helvetica,sans-Serif" font-size="9.00">de.flashpixx.rrd_antlr4.</text>
<text text-anchor="middle" x="55" y="-6.8" font-family="Helvetica,sans-Serif" font-size="9.00">IBaseTest.execute</text>
</g>
<!-- Node6 -->
<g id="node2" class="node"><title>Node6</title>
<g id="a_node2"><a xlink:href="../../d7/d61/classde_1_1flashpixx_1_1rrd__antlr4_1_1IBaseTest.html#aa2463bf5995845ccd89bdbe12f9a345a" target="_top" xlink:title="invoke method and read if possible the data&#45;provider ">
<polygon fill="none" stroke="black" points="146,-0 146,-28 256,-28 256,-0 146,-0"/>
<text text-anchor="start" x="154" y="-16.8" font-family="Helvetica,sans-Serif" font-size="9.00">de.flashpixx.rrd_antlr4.</text>
<text text-anchor="middle" x="201" y="-6.8" font-family="Helvetica,sans-Serif" font-size="9.00">IBaseTest.invoke</text>
</a>
</g>
</g>
<!-- Node5&#45;&gt;Node6 -->
<g id="edge1" class="edge"><title>Node5&#45;&gt;Node6</title>
<path fill="none" stroke="midnightblue" d="M120.27,-14C128.75,-14 137.375,-14 145.667,-14"/>
<polygon fill="midnightblue" stroke="midnightblue" points="120.03,-10.5001 110.03,-14 120.03,-17.5001 120.03,-10.5001"/>
</g>
<!-- Node7 -->
<g id="node3" class="node"><title>Node7</title>
<g id="a_node3"><a xlink:href="../../d7/d61/classde_1_1flashpixx_1_1rrd__antlr4_1_1IBaseTest.html#a99f6652f8a9edcc2934f5f099a1d07aa" target="_top" xlink:title="invoke all test manually ">
<polygon fill="none" stroke="black" points="292,-0 292,-28 402,-28 402,-0 292,-0"/>
<text text-anchor="start" x="300" y="-16.8" font-family="Helvetica,sans-Serif" font-size="9.00">de.flashpixx.rrd_antlr4.</text>
<text text-anchor="middle" x="347" y="-6.8" font-family="Helvetica,sans-Serif" font-size="9.00">IBaseTest.invoketest</text>
</a>
</g>
</g>
<!-- Node6&#45;&gt;Node7 -->
<g id="edge2" class="edge"><title>Node6&#45;&gt;Node7</title>
<path fill="none" stroke="midnightblue" d="M266.27,-14C274.75,-14 283.375,-14 291.667,-14"/>
<polygon fill="midnightblue" stroke="midnightblue" points="266.03,-10.5001 256.03,-14 266.03,-17.5001 266.03,-10.5001"/>
</g>
<!-- Node8 -->
<g id="node4" class="node"><title>Node8</title>
<g id="a_node4"><a xlink:href="../../dc/d57/classde_1_1flashpixx_1_1rrd__antlr4_1_1TestCLanguageLabels.html#a806d8dd58bde10c414225394c77891a3" target="_top" xlink:title="main method ">
<polygon fill="none" stroke="black" points="438.5,-0 438.5,-28 571.5,-28 571.5,-0 438.5,-0"/>
<text text-anchor="start" x="446.5" y="-16.8" font-family="Helvetica,sans-Serif" font-size="9.00">de.flashpixx.rrd_antlr4.</text>
<text text-anchor="middle" x="505" y="-6.8" font-family="Helvetica,sans-Serif" font-size="9.00">TestCLanguageLabels.main</text>
</a>
</g>
</g>
<!-- Node7&#45;&gt;Node8 -->
<g id="edge3" class="edge"><title>Node7&#45;&gt;Node8</title>
<path fill="none" stroke="midnightblue" d="M412.16,-14C420.825,-14 429.726,-14 438.415,-14"/>
<polygon fill="midnightblue" stroke="midnightblue" points="412.123,-10.5001 402.123,-14 412.123,-17.5001 412.123,-10.5001"/>
</g>
</g>
</svg>
        <g id="navigator" transform="translate(0 0)" fill="#404254">
                <rect fill="#f2f5e9" fill-opacity="0.5" stroke="#606060" stroke-width=".5" x="0" y="0" width="60" height="60"/>
                <use id="zoomplus" xlink:href="#zoomPlus" x="17" y="9" onmousedown="handleZoom(evt,'in')"/>
                <use id="zoomminus" xlink:href="#zoomMin" x="42" y="9" onmousedown="handleZoom(evt,'out')"/>
                <use id="reset" xlink:href="#resetDef" x="30" y="36" onmousedown="handleReset()"/>
                <g id="arrowUp" xlink:href="#dirArrow" transform="translate(30 24)" onmousedown="handlePan(0,-1)">
                  <use xlink:href="#rim" fill="#404040">
                        <set attributeName="fill" to="#808080" begin="arrowUp.mouseover" end="arrowUp.mouseout"/>
                  </use>
                  <path fill="none" stroke="white" stroke-width="1.5" d="M0,-3.0v7 M-2.5,-0.5L0,-3.0L2.5,-0.5"/>
                </g>
                <g id="arrowRight" xlink:href="#dirArrow" transform="rotate(90) translate(36 -43)" onmousedown="handlePan(1,0)">
                  <use xlink:href="#rim" fill="#404040">
                        <set attributeName="fill" to="#808080" begin="arrowRight.mouseover" end="arrowRight.mouseout"/>
                  </use>
                  <path fill="none" stroke="white" stroke-width="1.5" d="M0,-3.0v7 M-2.5,-0.5L0,-3.0L2.5,-0.5"/>
                </g>
                <g id="arrowDown" xlink:href="#dirArrow" transform="rotate(180) translate(-30 -48)" onmousedown="handlePan(0,1)">
                  <use xlink:href="#rim" fill="#404040">
                        <set attributeName="fill" to="#808080" begin="arrowDown.mouseover" end="arrowDown.mouseout"/>
                  </use>
                  <path fill="none" stroke="white" stroke-width="1.5" d="M0,-3.0v7 M-2.5,-0.5L0,-3.0L2.5,-0.5"/>
                </g>
                <g id="arrowLeft" xlink:href="#dirArrow" transform="rotate(270) translate(-36 17)" onmousedown="handlePan(-1,0)">
                  <use xlink:href="#rim" fill="#404040">
                        <set attributeName="fill" to="#808080" begin="arrowLeft.mouseover" end="arrowLeft.mouseout"/>
                  </use>
                  <path fill="none" stroke="white" stroke-width="1.5" d="M0,-3.0v7 M-2.5,-0.5L0,-3.0L2.5,-0.5"/>
                </g>
        </g>
        <svg viewBox="0 0 15 15" width="100%" height="30px" preserveAspectRatio="xMaxYMin meet">
         <g id="arrow_out" transform="scale(0.3 0.3)">
          <a xlink:href="classde_1_1flashpixx_1_1rrd__antlr4_1_1IBaseTest_a290fb1f029c2dc3be7aa7359e3f73cb9_icgraph_org.svg" target="_base">
           <rect id="button" ry="5" rx="5" y="6" x="6" height="38" width="38"
                fill="#f2f5e9" fill-opacity="0.5" stroke="#606060" stroke-width="1.0"/>
           <path id="arrow"
             d="M 11.500037,31.436501 C 11.940474,20.09759 22.043105,11.32322 32.158766,21.979434 L 37.068811,17.246167 C 37.068811,17.246167 37.088388,32 37.088388,32 L 22.160133,31.978069 C 22.160133,31.978069 26.997745,27.140456 26.997745,27.140456 C 18.528582,18.264221 13.291696,25.230495 11.500037,31.436501 z"
             style="fill:#404040;"/>
          </a>
         </g>
        </svg>
</svg>
