<?xml version="1.0" encoding="UTF-8" standalone="no"?>
<!DOCTYPE svg PUBLIC "-//W3C//DTD SVG 1.1//EN"
 "http://www.w3.org/Graphics/SVG/1.1/DTD/svg11.dtd">
<!-- Generated by graphviz version 2.36.0 (20140111.2315)
 -->
<!-- Title: de.flashpixx.rrd_antlr4.IBaseTest.invoke Pages: 1 -->
<svg width="434pt" height="36pt"
 viewBox="0.00 0.00 434.00 36.00" xmlns="http://www.w3.org/2000/svg" xmlns:xlink="http://www.w3.org/1999/xlink">
<g id="graph0" class="graph" transform="scale(1 1) rotate(0) translate(4 32)">
<title>de.flashpixx.rrd_antlr4.IBaseTest.invoke</title>
<!-- Node11 -->
<g id="node1" class="node"><title>Node11</title>
<polygon fill="#bfbfbf" stroke="black" points="0,-0 0,-28 110,-28 110,-0 0,-0"/>
<text text-anchor="start" x="8" y="-16.8" font-family="Helvetica,sans-Serif" font-size="9.00">de.flashpixx.rrd_antlr4.</text>
<text text-anchor="middle" x="55" y="-6.8" font-family="Helvetica,sans-Serif" font-size="9.00">IBaseTest.invoke</text>
</g>
<!-- Node12 -->
<g id="node2" class="node"><title>Node12</title>
<g id="a_node2"><a xlink:href="../../d7/d61/classde_1_1flashpixx_1_1rrd__antlr4_1_1IBaseTest.html#a99f6652f8a9edcc2934f5f099a1d07aa" target="_top" xlink:title="invoke all test manually ">
<polygon fill="none" stroke="black" points="146,-0 146,-28 256,-28 256,-0 146,-0"/>
<text text-anchor="start" x="154" y="-16.8" font-family="Helvetica,sans-Serif" font-size="9.00">de.flashpixx.rrd_antlr4.</text>
<text text-anchor="middle" x="201" y="-6.8" font-family="Helvetica,sans-Serif" font-size="9.00">IBaseTest.invoketest</text>
</a>
</g>
</g>
<!-- Node11&#45;&gt;Node12 -->
<g id="edge1" class="edge"><title>Node11&#45;&gt;Node12</title>
<path fill="none" stroke="midnightblue" d="M120.27,-14C128.75,-14 137.375,-14 145.667,-14"/>
<polygon fill="midnightblue" stroke="midnightblue" points="120.03,-10.5001 110.03,-14 120.03,-17.5001 120.03,-10.5001"/>
</g>
<!-- Node13 -->
<g id="node3" class="node"><title>Node13</title>
<g id="a_node3"><a xlink:href="../../dc/d57/classde_1_1flashpixx_1_1rrd__antlr4_1_1TestCLanguageLabels.html#a806d8dd58bde10c414225394c77891a3" target="_top" xlink:title="main method ">
<polygon fill="none" stroke="black" points="292.5,-0 292.5,-28 425.5,-28 425.5,-0 292.5,-0"/>
<text text-anchor="start" x="300.5" y="-16.8" font-family="Helvetica,sans-Serif" font-size="9.00">de.flashpixx.rrd_antlr4.</text>
<text text-anchor="middle" x="359" y="-6.8" font-family="Helvetica,sans-Serif" font-size="9.00">TestCLanguageLabels.main</text>
</a>
</g>
</g>
<!-- Node12&#45;&gt;Node13 -->
<g id="edge2" class="edge"><title>Node12&#45;&gt;Node13</title>
<path fill="none" stroke="midnightblue" d="M266.16,-14C274.825,-14 283.726,-14 292.415,-14"/>
<polygon fill="midnightblue" stroke="midnightblue" points="266.123,-10.5001 256.123,-14 266.123,-17.5001 266.123,-10.5001"/>
</g>
</g>
</svg>
