<?xml version="1.0" encoding="UTF-8" standalone="no"?>
<!DOCTYPE svg PUBLIC "-//W3C//DTD SVG 1.1//EN"
 "http://www.w3.org/Graphics/SVG/1.1/DTD/svg11.dtd">
<!-- Generated by graphviz version 2.36.0 (20140111.2315)
 -->
<!-- Title: de.flashpixx.rrd_antlr4.IBaseTest.execute Pages: 1 -->
<svg width="580pt" height="36pt"
 viewBox="0.00 0.00 580.00 36.00" xmlns="http://www.w3.org/2000/svg" xmlns:xlink="http://www.w3.org/1999/xlink">
<g id="graph0" class="graph" transform="scale(1 1) rotate(0) translate(4 32)">
<title>de.flashpixx.rrd_antlr4.IBaseTest.execute</title>
<!-- Node5 -->
<g id="node1" class="node"><title>Node5</title>
<polygon fill="#bfbfbf" stroke="black" points="0,-0 0,-28 110,-28 110,-0 0,-0"/>
<text text-anchor="start" x="8" y="-16.8" font-family="Helvetica,sans-Serif" font-size="9.00">de.flashpixx.rrd_antlr4.</text>
<text text-anchor="middle" x="55" y="-6.8" font-family="Helvetica,sans-Serif" font-size="9.00">IBaseTest.execute</text>
</g>
<!-- Node6 -->
<g id="node2" class="node"><title>Node6</title>
<g id="a_node2"><a xlink:href="../../d7/d61/classde_1_1flashpixx_1_1rrd__antlr4_1_1IBaseTest.html#aa2463bf5995845ccd89bdbe12f9a345a" target="_top" xlink:title="invoke method and read if possible the data&#45;provider ">
<polygon fill="none" stroke="black" points="146,-0 146,-28 256,-28 256,-0 146,-0"/>
<text text-anchor="start" x="154" y="-16.8" font-family="Helvetica,sans-Serif" font-size="9.00">de.flashpixx.rrd_antlr4.</text>
<text text-anchor="middle" x="201" y="-6.8" font-family="Helvetica,sans-Serif" font-size="9.00">IBaseTest.invoke</text>
</a>
</g>
</g>
<!-- Node5&#45;&gt;Node6 -->
<g id="edge1" class="edge"><title>Node5&#45;&gt;Node6</title>
<path fill="none" stroke="midnightblue" d="M120.27,-14C128.75,-14 137.375,-14 145.667,-14"/>
<polygon fill="midnightblue" stroke="midnightblue" points="120.03,-10.5001 110.03,-14 120.03,-17.5001 120.03,-10.5001"/>
</g>
<!-- Node7 -->
<g id="node3" class="node"><title>Node7</title>
<g id="a_node3"><a xlink:href="../../d7/d61/classde_1_1flashpixx_1_1rrd__antlr4_1_1IBaseTest.html#a99f6652f8a9edcc2934f5f099a1d07aa" target="_top" xlink:title="invoke all test manually ">
<polygon fill="none" stroke="black" points="292,-0 292,-28 402,-28 402,-0 292,-0"/>
<text text-anchor="start" x="300" y="-16.8" font-family="Helvetica,sans-Serif" font-size="9.00">de.flashpixx.rrd_antlr4.</text>
<text text-anchor="middle" x="347" y="-6.8" font-family="Helvetica,sans-Serif" font-size="9.00">IBaseTest.invoketest</text>
</a>
</g>
</g>
<!-- Node6&#45;&gt;Node7 -->
<g id="edge2" class="edge"><title>Node6&#45;&gt;Node7</title>
<path fill="none" stroke="midnightblue" d="M266.27,-14C274.75,-14 283.375,-14 291.667,-14"/>
<polygon fill="midnightblue" stroke="midnightblue" points="266.03,-10.5001 256.03,-14 266.03,-17.5001 266.03,-10.5001"/>
</g>
<!-- Node8 -->
<g id="node4" class="node"><title>Node8</title>
<g id="a_node4"><a xlink:href="../../dc/d57/classde_1_1flashpixx_1_1rrd__antlr4_1_1TestCLanguageLabels.html#a806d8dd58bde10c414225394c77891a3" target="_top" xlink:title="main method ">
<polygon fill="none" stroke="black" points="438.5,-0 438.5,-28 571.5,-28 571.5,-0 438.5,-0"/>
<text text-anchor="start" x="446.5" y="-16.8" font-family="Helvetica,sans-Serif" font-size="9.00">de.flashpixx.rrd_antlr4.</text>
<text text-anchor="middle" x="505" y="-6.8" font-family="Helvetica,sans-Serif" font-size="9.00">TestCLanguageLabels.main</text>
</a>
</g>
</g>
<!-- Node7&#45;&gt;Node8 -->
<g id="edge3" class="edge"><title>Node7&#45;&gt;Node8</title>
<path fill="none" stroke="midnightblue" d="M412.16,-14C420.825,-14 429.726,-14 438.415,-14"/>
<polygon fill="midnightblue" stroke="midnightblue" points="412.123,-10.5001 402.123,-14 412.123,-17.5001 412.123,-10.5001"/>
</g>
</g>
</svg>
