<?xml version="1.0" encoding="UTF-8" standalone="no"?>
<!DOCTYPE svg PUBLIC "-//W3C//DTD SVG 1.1//EN"
 "http://www.w3.org/Graphics/SVG/1.1/DTD/svg11.dtd">
<!-- Generated by graphviz version 2.36.0 (20140111.2315)
 -->
<!-- Title: de.flashpixx.rrd_antlr4.engine.template.IBaseTemplate.map Pages: 1 -->
<svg width="614pt" height="424pt"
 viewBox="0.00 0.00 614.00 424.00" xmlns="http://www.w3.org/2000/svg" xmlns:xlink="http://www.w3.org/1999/xlink">
<g id="graph0" class="graph" transform="scale(1 1) rotate(0) translate(4 420)">
<title>de.flashpixx.rrd_antlr4.engine.template.IBaseTemplate.map</title>
<!-- Node51 -->
<g id="node1" class="node"><title>Node51</title>
<polygon fill="#bfbfbf" stroke="black" points="0,-202 0,-230 178,-230 178,-202 0,-202"/>
<text text-anchor="start" x="8" y="-218.8" font-family="Helvetica,sans-Serif" font-size="9.00">de.flashpixx.rrd_antlr4.engine.template.</text>
<text text-anchor="middle" x="89" y="-208.8" font-family="Helvetica,sans-Serif" font-size="9.00">IBaseTemplate.map</text>
</g>
<!-- Node52 -->
<g id="node2" class="node"><title>Node52</title>
<g id="a_node2"><a xlink:href="../../dd/da7/interfacede_1_1flashpixx_1_1rrd__antlr4_1_1antlr_1_1IGrammarElement.html#ad38b129b0ef008046ccfe6eeae9cf0fe" target="_top" xlink:title="returns the cardinality ">
<polygon fill="none" stroke="black" points="235.5,-388 235.5,-416 370.5,-416 370.5,-388 235.5,-388"/>
<text text-anchor="start" x="243.5" y="-404.8" font-family="Helvetica,sans-Serif" font-size="9.00">de.flashpixx.rrd_antlr4.antlr.</text>
<text text-anchor="middle" x="303" y="-394.8" font-family="Helvetica,sans-Serif" font-size="9.00">IGrammarElement.cardinality</text>
</a>
</g>
</g>
<!-- Node51&#45;&gt;Node52 -->
<g id="edge1" class="edge"><title>Node51&#45;&gt;Node52</title>
<path fill="none" stroke="midnightblue" d="M97.5325,-230.455C114.286,-261.222 157.644,-333.585 214,-373 219.981,-377.183 226.607,-380.795 233.46,-383.906"/>
<polygon fill="midnightblue" stroke="midnightblue" points="232.332,-387.227 242.908,-387.844 235.025,-380.766 232.332,-387.227"/>
</g>
<!-- Node53 -->
<g id="node3" class="node"><title>Node53</title>
<g id="a_node3"><a xlink:href="../../d5/dcc/classde_1_1flashpixx_1_1rrd__antlr4_1_1engine_1_1template_1_1IBaseTemplate.html#a1f104e1a0c40d1716200169010c13ed5" target="_top" xlink:title="sets the cardinality ">
<polygon fill="none" stroke="black" points="428,-376 428,-404 606,-404 606,-376 428,-376"/>
<text text-anchor="start" x="436" y="-392.8" font-family="Helvetica,sans-Serif" font-size="9.00">de.flashpixx.rrd_antlr4.engine.template.</text>
<text text-anchor="middle" x="517" y="-382.8" font-family="Helvetica,sans-Serif" font-size="9.00">IBaseTemplate.cardinality</text>
</a>
</g>
</g>
<!-- Node51&#45;&gt;Node53 -->
<g id="edge2" class="edge"><title>Node51&#45;&gt;Node53</title>
<path fill="none" stroke="midnightblue" d="M100.448,-230.366C119.765,-255.764 163.71,-308.329 214,-334 248.928,-351.829 343.41,-367.657 417.484,-377.897"/>
<polygon fill="midnightblue" stroke="midnightblue" points="417.411,-381.419 427.792,-379.305 418.358,-374.484 417.411,-381.419"/>
</g>
<!-- Node54 -->
<g id="node4" class="node"><title>Node54</title>
<g id="a_node4"><a xlink:href="../../d5/dcc/classde_1_1flashpixx_1_1rrd__antlr4_1_1engine_1_1template_1_1IBaseTemplate.html#a835ed841a393331edd830c5ed9b1c62d" target="_top" xlink:title="creates a grammar choice ">
<polygon fill="none" stroke="black" points="428,-329 428,-357 606,-357 606,-329 428,-329"/>
<text text-anchor="start" x="436" y="-345.8" font-family="Helvetica,sans-Serif" font-size="9.00">de.flashpixx.rrd_antlr4.engine.template.</text>
<text text-anchor="middle" x="517" y="-335.8" font-family="Helvetica,sans-Serif" font-size="9.00">IBaseTemplate.choice</text>
</a>
</g>
</g>
<!-- Node51&#45;&gt;Node54 -->
<g id="edge3" class="edge"><title>Node51&#45;&gt;Node54</title>
<path fill="none" stroke="midnightblue" d="M105.454,-230.191C127.652,-249.68 170.678,-284.219 214,-301 278.977,-326.169 356.981,-336.559 417.434,-340.714"/>
<polygon fill="midnightblue" stroke="midnightblue" points="417.541,-344.228 427.744,-341.374 417.988,-337.242 417.541,-344.228"/>
</g>
<!-- Node55 -->
<g id="node5" class="node"><title>Node55</title>
<g id="a_node5"><a xlink:href="../../d5/dcc/classde_1_1flashpixx_1_1rrd__antlr4_1_1engine_1_1template_1_1IBaseTemplate.html#a68821bc9abb712354d06330676499b0d" target="_top" xlink:title="crates a grammer group ">
<polygon fill="none" stroke="black" points="428,-235 428,-263 606,-263 606,-235 428,-235"/>
<text text-anchor="start" x="436" y="-251.8" font-family="Helvetica,sans-Serif" font-size="9.00">de.flashpixx.rrd_antlr4.engine.template.</text>
<text text-anchor="middle" x="517" y="-241.8" font-family="Helvetica,sans-Serif" font-size="9.00">IBaseTemplate.group</text>
</a>
</g>
</g>
<!-- Node51&#45;&gt;Node55 -->
<g id="edge4" class="edge"><title>Node51&#45;&gt;Node55</title>
<path fill="none" stroke="midnightblue" d="M178.009,-222.818C247.817,-228.225 345.342,-235.78 417.701,-241.385"/>
<polygon fill="midnightblue" stroke="midnightblue" points="417.498,-244.88 427.739,-242.163 418.039,-237.901 417.498,-244.88"/>
</g>
<!-- Node56 -->
<g id="node6" class="node"><title>Node56</title>
<g id="a_node6"><a xlink:href="../../d5/dcc/classde_1_1flashpixx_1_1rrd__antlr4_1_1engine_1_1template_1_1IBaseTemplate.html#aad62be40b5226177829c66f72e638569" target="_top" xlink:title="creates a negation structure ">
<polygon fill="none" stroke="black" points="428,-94 428,-122 606,-122 606,-94 428,-94"/>
<text text-anchor="start" x="436" y="-110.8" font-family="Helvetica,sans-Serif" font-size="9.00">de.flashpixx.rrd_antlr4.engine.template.</text>
<text text-anchor="middle" x="517" y="-100.8" font-family="Helvetica,sans-Serif" font-size="9.00">IBaseTemplate.negation</text>
</a>
</g>
</g>
<!-- Node51&#45;&gt;Node56 -->
<g id="edge5" class="edge"><title>Node51&#45;&gt;Node56</title>
<path fill="none" stroke="midnightblue" d="M123.482,-201.992C148.175,-192.054 182.765,-178.943 214,-170 281.978,-150.537 360.22,-134.651 420.03,-123.833"/>
<polygon fill="midnightblue" stroke="midnightblue" points="420.993,-127.216 430.219,-122.006 419.758,-120.326 420.993,-127.216"/>
</g>
<!-- Node57 -->
<g id="node7" class="node"><title>Node57</title>
<g id="a_node7"><a xlink:href="../../d5/dcc/classde_1_1flashpixx_1_1rrd__antlr4_1_1engine_1_1template_1_1IBaseTemplate.html#a2197fdee7c3dfb376324cf4682029b59" target="_top" xlink:title="creates a non&#45;terminal ">
<polygon fill="none" stroke="black" points="428,-0 428,-28 606,-28 606,-0 428,-0"/>
<text text-anchor="start" x="436" y="-16.8" font-family="Helvetica,sans-Serif" font-size="9.00">de.flashpixx.rrd_antlr4.engine.template.</text>
<text text-anchor="middle" x="517" y="-6.8" font-family="Helvetica,sans-Serif" font-size="9.00">IBaseTemplate.nonterminal</text>
</a>
</g>
</g>
<!-- Node51&#45;&gt;Node57 -->
<g id="edge6" class="edge"><title>Node51&#45;&gt;Node57</title>
<path fill="none" stroke="midnightblue" d="M96.1789,-201.718C111.081,-169.189 152.382,-89.6564 214,-54 275.358,-18.494 355.255,-9.20317 417.456,-8.40946"/>
<polygon fill="midnightblue" stroke="midnightblue" points="417.693,-11.9083 427.673,-8.35284 417.654,-4.9084 417.693,-11.9083"/>
</g>
<!-- Node58 -->
<g id="node8" class="node"><title>Node58</title>
<g id="a_node8"><a xlink:href="../../d5/dcc/classde_1_1flashpixx_1_1rrd__antlr4_1_1engine_1_1template_1_1IBaseTemplate.html#a644daf65240deb390d1b3b8715491f13" target="_top" xlink:title="creates a rule ">
<polygon fill="none" stroke="black" points="214,-264 214,-292 392,-292 392,-264 214,-264"/>
<text text-anchor="start" x="222" y="-280.8" font-family="Helvetica,sans-Serif" font-size="9.00">de.flashpixx.rrd_antlr4.engine.template.</text>
<text text-anchor="middle" x="303" y="-270.8" font-family="Helvetica,sans-Serif" font-size="9.00">IBaseTemplate.rule</text>
</a>
</g>
</g>
<!-- Node51&#45;&gt;Node58 -->
<g id="edge7" class="edge"><title>Node51&#45;&gt;Node58</title>
<path fill="none" stroke="midnightblue" d="M159.71,-230.002C193.284,-239.12 232.382,-250.863 261.089,-260.576"/>
<polygon fill="midnightblue" stroke="midnightblue" points="260.188,-263.968 270.783,-263.919 262.471,-257.35 260.188,-263.968"/>
</g>
<!-- Node60 -->
<g id="node10" class="node"><title>Node60</title>
<g id="a_node10"><a xlink:href="../../d5/dcc/classde_1_1flashpixx_1_1rrd__antlr4_1_1engine_1_1template_1_1IBaseTemplate.html#ada35faeaaf5646a4818d934aac5a6103" target="_top" xlink:title="creates a grammar sequence ">
<polygon fill="none" stroke="black" points="428,-188 428,-216 606,-216 606,-188 428,-188"/>
<text text-anchor="start" x="436" y="-204.8" font-family="Helvetica,sans-Serif" font-size="9.00">de.flashpixx.rrd_antlr4.engine.template.</text>
<text text-anchor="middle" x="517" y="-194.8" font-family="Helvetica,sans-Serif" font-size="9.00">IBaseTemplate.sequence</text>
</a>
</g>
</g>
<!-- Node51&#45;&gt;Node60 -->
<g id="edge15" class="edge"><title>Node51&#45;&gt;Node60</title>
<path fill="none" stroke="midnightblue" d="M178.009,-213.108C247.817,-210.814 345.342,-207.608 417.701,-205.23"/>
<polygon fill="midnightblue" stroke="midnightblue" points="417.859,-208.727 427.739,-204.901 417.629,-201.731 417.859,-208.727"/>
</g>
<!-- Node61 -->
<g id="node11" class="node"><title>Node61</title>
<g id="a_node11"><a xlink:href="../../d5/dcc/classde_1_1flashpixx_1_1rrd__antlr4_1_1engine_1_1template_1_1IBaseTemplate.html#af9d688420b32b00be68a53432053dda2" target="_top" xlink:title="creates a terminal ">
<polygon fill="none" stroke="black" points="428,-141 428,-169 606,-169 606,-141 428,-141"/>
<text text-anchor="start" x="436" y="-157.8" font-family="Helvetica,sans-Serif" font-size="9.00">de.flashpixx.rrd_antlr4.engine.template.</text>
<text text-anchor="middle" x="517" y="-147.8" font-family="Helvetica,sans-Serif" font-size="9.00">IBaseTemplate.terminalvalue</text>
</a>
</g>
</g>
<!-- Node51&#45;&gt;Node61 -->
<g id="edge21" class="edge"><title>Node51&#45;&gt;Node61</title>
<path fill="none" stroke="midnightblue" d="M178.009,-203.398C247.817,-193.402 345.342,-179.437 417.701,-169.076"/>
<polygon fill="midnightblue" stroke="midnightblue" points="418.336,-172.521 427.739,-167.638 417.343,-165.591 418.336,-172.521"/>
</g>
<!-- Node62 -->
<g id="node12" class="node"><title>Node62</title>
<g id="a_node12"><a xlink:href="../../d5/dcc/classde_1_1flashpixx_1_1rrd__antlr4_1_1engine_1_1template_1_1IBaseTemplate.html#aed006de3401e84ff45301922a9ebd7f3" target="_top" xlink:title="creates a terminal ">
<polygon fill="none" stroke="black" points="214,-64 214,-92 392,-92 392,-64 214,-64"/>
<text text-anchor="start" x="222" y="-80.8" font-family="Helvetica,sans-Serif" font-size="9.00">de.flashpixx.rrd_antlr4.engine.template.</text>
<text text-anchor="middle" x="303" y="-70.8" font-family="Helvetica,sans-Serif" font-size="9.00">IBaseTemplate.terminal</text>
</a>
</g>
</g>
<!-- Node51&#45;&gt;Node62 -->
<g id="edge16" class="edge"><title>Node51&#45;&gt;Node62</title>
<path fill="none" stroke="midnightblue" d="M98.3416,-201.636C117.025,-176.479 164.493,-126.328 214,-98 214.681,-97.6105 215.367,-97.2254 216.059,-96.8446"/>
<polygon fill="midnightblue" stroke="midnightblue" points="217.994,-99.7878 225.329,-92.1429 214.828,-93.5449 217.994,-99.7878"/>
</g>
<!-- Node58&#45;&gt;Node51 -->
<g id="edge8" class="edge"><title>Node58&#45;&gt;Node51</title>
<path fill="none" stroke="midnightblue" d="M231.977,-263.914C198.487,-254.811 159.561,-243.117 130.947,-233.436"/>
<polygon fill="midnightblue" stroke="midnightblue" points="131.876,-230.055 121.281,-230.104 129.594,-236.672 131.876,-230.055"/>
</g>
<!-- Node58&#45;&gt;Node53 -->
<g id="edge10" class="edge"><title>Node58&#45;&gt;Node53</title>
<path fill="none" stroke="midnightblue" d="M322.23,-292.143C350.999,-314.253 405.926,-355.561 428,-366 433.011,-368.369 438.296,-370.54 443.687,-372.521"/>
<polygon fill="midnightblue" stroke="midnightblue" points="442.875,-375.942 453.47,-375.884 445.151,-369.323 442.875,-375.942"/>
</g>
<!-- Node58&#45;&gt;Node54 -->
<g id="edge12" class="edge"><title>Node58&#45;&gt;Node54</title>
<path fill="none" stroke="midnightblue" d="M346.978,-292.131C361.302,-296.849 377.342,-302.142 392,-307 408.009,-312.306 411.858,-314.113 428,-319 435.952,-321.408 444.341,-323.837 452.654,-326.177"/>
<polygon fill="midnightblue" stroke="midnightblue" points="451.775,-329.565 462.347,-328.877 453.653,-322.822 451.775,-329.565"/>
</g>
<!-- Node58&#45;&gt;Node55 -->
<g id="edge13" class="edge"><title>Node58&#45;&gt;Node55</title>
<path fill="none" stroke="midnightblue" d="M392.065,-265.953C400.569,-264.79 409.232,-263.605 417.825,-262.43"/>
<polygon fill="midnightblue" stroke="midnightblue" points="418.434,-265.879 427.868,-261.056 417.485,-258.944 418.434,-265.879"/>
</g>
<!-- Node59 -->
<g id="node9" class="node"><title>Node59</title>
<g id="a_node9"><a xlink:href="../../d3/d53/interfacede_1_1flashpixx_1_1rrd__antlr4_1_1antlr_1_1IGrammarRule.html#aeea0d2d97829ead065e371fad38a54c9" target="_top" xlink:title="returns child element ">
<polygon fill="none" stroke="black" points="452,-282 452,-310 582,-310 582,-282 452,-282"/>
<text text-anchor="start" x="460" y="-298.8" font-family="Helvetica,sans-Serif" font-size="9.00">de.flashpixx.rrd_antlr4.antlr.</text>
<text text-anchor="middle" x="517" y="-288.8" font-family="Helvetica,sans-Serif" font-size="9.00">IGrammarRule.children</text>
</a>
</g>
</g>
<!-- Node58&#45;&gt;Node59 -->
<g id="edge9" class="edge"><title>Node58&#45;&gt;Node59</title>
<path fill="none" stroke="midnightblue" d="M392.065,-285.477C408.49,-286.872 425.506,-288.317 441.474,-289.672"/>
<polygon fill="midnightblue" stroke="midnightblue" points="441.539,-293.19 451.8,-290.549 442.132,-286.215 441.539,-293.19"/>
</g>
<!-- Node58&#45;&gt;Node60 -->
<g id="edge11" class="edge"><title>Node58&#45;&gt;Node60</title>
<path fill="none" stroke="midnightblue" d="M333.582,-263.883C358.405,-252.398 394.996,-236.297 428,-225 434.324,-222.835 440.962,-220.758 447.638,-218.798"/>
<polygon fill="midnightblue" stroke="midnightblue" points="448.756,-222.119 457.414,-216.014 446.838,-215.387 448.756,-222.119"/>
</g>
<!-- Node58&#45;&gt;Node61 -->
<g id="edge14" class="edge"><title>Node58&#45;&gt;Node61</title>
<path fill="none" stroke="midnightblue" d="M317.475,-263.803C338.865,-242.099 382.812,-200.792 428,-178 431.807,-176.08 435.789,-174.309 439.868,-172.677"/>
<polygon fill="midnightblue" stroke="midnightblue" points="441.352,-175.86 449.524,-169.117 438.931,-169.293 441.352,-175.86"/>
</g>
<!-- Node62&#45;&gt;Node51 -->
<g id="edge17" class="edge"><title>Node62&#45;&gt;Node51</title>
<path fill="none" stroke="midnightblue" d="M273.437,-92.0302C255.596,-97.9623 232.569,-105.375 214,-116 176.003,-137.742 139.207,-172.339 115.704,-194.802"/>
<polygon fill="midnightblue" stroke="midnightblue" points="113.07,-192.479 108.261,-201.919 117.908,-197.538 113.07,-192.479"/>
</g>
<!-- Node62&#45;&gt;Node56 -->
<g id="edge20" class="edge"><title>Node62&#45;&gt;Node56</title>
<path fill="none" stroke="midnightblue" d="M392.065,-90.4621C400.569,-91.6654 409.232,-92.8913 417.825,-94.1073"/>
<polygon fill="midnightblue" stroke="midnightblue" points="417.476,-97.5927 427.868,-95.5284 418.457,-90.6617 417.476,-97.5927"/>
</g>
<!-- Node62&#45;&gt;Node57 -->
<g id="edge19" class="edge"><title>Node62&#45;&gt;Node57</title>
<path fill="none" stroke="midnightblue" d="M344.284,-63.9591C368.441,-55.7197 399.842,-45.3256 428,-37 435.16,-34.883 442.677,-32.7635 450.174,-30.7145"/>
<polygon fill="midnightblue" stroke="midnightblue" points="451.245,-34.0509 459.988,-28.0677 449.422,-27.2924 451.245,-34.0509"/>
</g>
<!-- Node63 -->
<g id="node13" class="node"><title>Node63</title>
<g id="a_node13"><a xlink:href="../../da/d3c/interfacede_1_1flashpixx_1_1rrd__antlr4_1_1antlr_1_1IGrammarTerminal.html#a5335c08fcf626be523cb17e1e50d131a" target="_top" xlink:title="terminal alternatives ">
<polygon fill="none" stroke="black" points="452,-47 452,-75 582,-75 582,-47 452,-47"/>
<text text-anchor="start" x="460" y="-63.8" font-family="Helvetica,sans-Serif" font-size="9.00">de.flashpixx.rrd_antlr4.antlr.</text>
<text text-anchor="middle" x="517" y="-53.8" font-family="Helvetica,sans-Serif" font-size="9.00">IGrammarTerminal.children</text>
</a>
</g>
</g>
<!-- Node62&#45;&gt;Node63 -->
<g id="edge18" class="edge"><title>Node62&#45;&gt;Node63</title>
<path fill="none" stroke="midnightblue" d="M392.065,-70.9382C408.49,-69.6211 425.506,-68.2566 441.474,-66.9761"/>
<polygon fill="midnightblue" stroke="midnightblue" points="442.111,-70.4363 451.8,-66.1481 441.552,-63.4587 442.111,-70.4363"/>
</g>
</g>
</svg>
