<?xml version="1.0" encoding="UTF-8" standalone="no"?>
<!DOCTYPE svg PUBLIC "-//W3C//DTD SVG 1.1//EN"
 "http://www.w3.org/Graphics/SVG/1.1/DTD/svg11.dtd">
<!-- Generated by graphviz version 2.36.0 (20140111.2315)
 -->
<!-- Title: de.flashpixx.rrd_antlr4.engine.template.IBaseTemplate.terminal Pages: 1 -->
<!--zoomable 365 -->
<svg id="main" version="1.1" xmlns="http://www.w3.org/2000/svg" xmlns:xlink="http://www.w3.org/1999/xlink" xml:space="preserve" onload="init(evt)">
<style type="text/css"><![CDATA[
.edge:hover path { stroke: red; }
.edge:hover polygon { stroke: red; fill: red; }
]]></style>
<script type="text/javascript"><![CDATA[
var edges = document.getElementsByTagName('g');
if (edges && edges.length) {
  for (var i=0;i<edges.length;i++) {
    if (edges[i].id.substr(0,4)=='edge') {
      edges[i].setAttribute('class','edge');
    }
  }
}
]]></script>
        <defs>
                <circle id="rim" cx="0" cy="0" r="7"/>
                <circle id="rim2" cx="0" cy="0" r="3.5"/>
                <g id="zoomPlus">
                        <use xlink:href="#rim" fill="#404040">
                                <set attributeName="fill" to="#808080" begin="zoomplus.mouseover" end="zoomplus.mouseout"/>
                        </use>
                        <path d="M-4,0h8M0,-4v8" fill="none" stroke="white" stroke-width="1.5" pointer-events="none"/>
                </g>
                <g id="zoomMin">
                        <use xlink:href="#rim" fill="#404040">
                                <set attributeName="fill" to="#808080" begin="zoomminus.mouseover" end="zoomminus.mouseout"/>
                        </use>
                        <path d="M-4,0h8" fill="none" stroke="white" stroke-width="1.5" pointer-events="none"/>
                </g>
                <g id="dirArrow">
                        <path fill="none" stroke="white" stroke-width="1.5" d="M0,-3.0v7 M-2.5,-0.5L0,-3.0L2.5,-0.5"/>
                </g>
               <g id="resetDef">
                       <use xlink:href="#rim2" fill="#404040">
                               <set attributeName="fill" to="#808080" begin="reset.mouseover" end="reset.mouseout"/>
                       </use>
               </g>
        </defs>

<script type="text/javascript">
var viewWidth = 614;
var viewHeight = 365;
var sectionId = 'dynsection-19';
</script>
<script xlink:href="../../svgpan.js"/>
<svg id="graph" class="graph">
<g id="viewport">
<title>de.flashpixx.rrd_antlr4.engine.template.IBaseTemplate.terminal</title>
<!-- Node160 -->
<g id="node1" class="node"><title>Node160</title>
<polygon fill="#bfbfbf" stroke="black" points="0,-141 0,-169 178,-169 178,-141 0,-141"/>
<text text-anchor="start" x="8" y="-157.8" font-family="Helvetica,sans-Serif" font-size="9.00">de.flashpixx.rrd_antlr4.engine.template.</text>
<text text-anchor="middle" x="89" y="-147.8" font-family="Helvetica,sans-Serif" font-size="9.00">IBaseTemplate.terminal</text>
</g>
<!-- Node161 -->
<g id="node2" class="node"><title>Node161</title>
<g id="a_node2"><a xlink:href="../../d5/dcc/classde_1_1flashpixx_1_1rrd__antlr4_1_1engine_1_1template_1_1IBaseTemplate.html#aba059762f4ecba4c0fa04758165dbf11" target="_top" xlink:title="calls the sub routines to format the lement ">
<polygon fill="none" stroke="black" points="214,-141 214,-169 392,-169 392,-141 214,-141"/>
<text text-anchor="start" x="222" y="-157.8" font-family="Helvetica,sans-Serif" font-size="9.00">de.flashpixx.rrd_antlr4.engine.template.</text>
<text text-anchor="middle" x="303" y="-147.8" font-family="Helvetica,sans-Serif" font-size="9.00">IBaseTemplate.map</text>
</a>
</g>
</g>
<!-- Node160&#45;&gt;Node161 -->
<g id="edge1" class="edge"><title>Node160&#45;&gt;Node161</title>
<path fill="none" stroke="midnightblue" d="M188.107,-148.267C196.7,-148.23 205.363,-148.253 213.868,-148.336"/>
<polygon fill="midnightblue" stroke="midnightblue" points="188.041,-144.767 178.065,-148.337 188.09,-151.767 188.041,-144.767"/>
</g>
<!-- Node161&#45;&gt;Node160 -->
<g id="edge11" class="edge"><title>Node161&#45;&gt;Node160</title>
<path fill="none" stroke="midnightblue" d="M203.825,-161.734C195.232,-161.77 186.569,-161.746 178.065,-161.663"/>
<polygon fill="midnightblue" stroke="midnightblue" points="203.892,-165.233 213.868,-161.664 203.844,-158.234 203.892,-165.233"/>
</g>
<!-- Node162 -->
<g id="node3" class="node"><title>Node162</title>
<g id="a_node3"><a xlink:href="../../df/db0/classde_1_1flashpixx_1_1rrd__antlr4_1_1engine_1_1template_1_1CHTML.html#a78b97b93b551354bf558d71e8e842778" target="_top" xlink:title="de.flashpixx.rrd_antlr4.engine.template.\lCHTML.choice">
<polygon fill="none" stroke="black" points="428,-329 428,-357 606,-357 606,-329 428,-329"/>
<text text-anchor="start" x="436" y="-345.8" font-family="Helvetica,sans-Serif" font-size="9.00">de.flashpixx.rrd_antlr4.engine.template.</text>
<text text-anchor="middle" x="517" y="-335.8" font-family="Helvetica,sans-Serif" font-size="9.00">CHTML.choice</text>
</a>
</g>
</g>
<!-- Node161&#45;&gt;Node162 -->
<g id="edge2" class="edge"><title>Node161&#45;&gt;Node162</title>
<path fill="none" stroke="midnightblue" d="M315.358,-178.582C333.863,-214.46 373.953,-282.434 428,-319 433.771,-322.904 440.158,-326.176 446.778,-328.916"/>
<polygon fill="midnightblue" stroke="midnightblue" points="318.341,-176.724 310.717,-169.367 312.089,-179.872 318.341,-176.724"/>
</g>
<!-- Node163 -->
<g id="node4" class="node"><title>Node163</title>
<g id="a_node4"><a xlink:href="../../da/d63/classde_1_1flashpixx_1_1rrd__antlr4_1_1engine_1_1template_1_1CLaTeXSyntax.html#a7f1b2a77fcff93135d1dab1a98e0eab0" target="_top" xlink:title="is called if any grammar element is completed ">
<polygon fill="none" stroke="black" points="428,-282 428,-310 606,-310 606,-282 428,-282"/>
<text text-anchor="start" x="436" y="-298.8" font-family="Helvetica,sans-Serif" font-size="9.00">de.flashpixx.rrd_antlr4.engine.template.</text>
<text text-anchor="middle" x="517" y="-288.8" font-family="Helvetica,sans-Serif" font-size="9.00">CLaTeXSyntax.element</text>
</a>
</g>
</g>
<!-- Node161&#45;&gt;Node163 -->
<g id="edge3" class="edge"><title>Node161&#45;&gt;Node163</title>
<path fill="none" stroke="midnightblue" d="M321.512,-177.152C343.578,-203.585 383.978,-247.301 428,-272 434.905,-275.874 442.47,-279.151 450.173,-281.915"/>
<polygon fill="midnightblue" stroke="midnightblue" points="324.057,-174.736 315.01,-169.223 318.644,-179.175 324.057,-174.736"/>
</g>
<!-- Node164 -->
<g id="node5" class="node"><title>Node164</title>
<g id="a_node5"><a xlink:href="../../df/db0/classde_1_1flashpixx_1_1rrd__antlr4_1_1engine_1_1template_1_1CHTML.html#a4a9260119c44dc505e7d8269f408bb4a" target="_top" xlink:title="is called if any grammar element is completed ">
<polygon fill="none" stroke="black" points="428,-235 428,-263 606,-263 606,-235 428,-235"/>
<text text-anchor="start" x="436" y="-251.8" font-family="Helvetica,sans-Serif" font-size="9.00">de.flashpixx.rrd_antlr4.engine.template.</text>
<text text-anchor="middle" x="517" y="-241.8" font-family="Helvetica,sans-Serif" font-size="9.00">CHTML.element</text>
</a>
</g>
</g>
<!-- Node161&#45;&gt;Node164 -->
<g id="edge4" class="edge"><title>Node161&#45;&gt;Node164</title>
<path fill="none" stroke="midnightblue" d="M333.597,-174.484C358.081,-189.91 394.197,-211.102 428,-225 437.081,-228.734 446.924,-232.066 456.629,-234.974"/>
<polygon fill="midnightblue" stroke="midnightblue" points="335.443,-171.51 325.129,-169.086 331.68,-177.413 335.443,-171.51"/>
</g>
<!-- Node165 -->
<g id="node6" class="node"><title>Node165</title>
<g id="a_node6"><a xlink:href="../../da/d63/classde_1_1flashpixx_1_1rrd__antlr4_1_1engine_1_1template_1_1CLaTeXSyntax.html#a42c60e6e62f33c5775b5518415295848" target="_top" xlink:title="de.flashpixx.rrd_antlr4.engine.template.\lCLaTeXSyntax.group">
<polygon fill="none" stroke="black" points="428,-188 428,-216 606,-216 606,-188 428,-188"/>
<text text-anchor="start" x="436" y="-204.8" font-family="Helvetica,sans-Serif" font-size="9.00">de.flashpixx.rrd_antlr4.engine.template.</text>
<text text-anchor="middle" x="517" y="-194.8" font-family="Helvetica,sans-Serif" font-size="9.00">CLaTeXSyntax.group</text>
</a>
</g>
</g>
<!-- Node161&#45;&gt;Node165 -->
<g id="edge5" class="edge"><title>Node161&#45;&gt;Node165</title>
<path fill="none" stroke="midnightblue" d="M377.294,-171.249C401.821,-176.687 428.937,-182.698 452.64,-187.953"/>
<polygon fill="midnightblue" stroke="midnightblue" points="377.84,-167.785 367.32,-169.038 376.325,-174.619 377.84,-167.785"/>
</g>
<!-- Node166 -->
<g id="node7" class="node"><title>Node166</title>
<g id="a_node7"><a xlink:href="../../df/db0/classde_1_1flashpixx_1_1rrd__antlr4_1_1engine_1_1template_1_1CHTML.html#a5386e78d33f56f39bda5e51841c5ca79" target="_top" xlink:title="de.flashpixx.rrd_antlr4.engine.template.\lCHTML.group">
<polygon fill="none" stroke="black" points="428,-141 428,-169 606,-169 606,-141 428,-141"/>
<text text-anchor="start" x="436" y="-157.8" font-family="Helvetica,sans-Serif" font-size="9.00">de.flashpixx.rrd_antlr4.engine.template.</text>
<text text-anchor="middle" x="517" y="-147.8" font-family="Helvetica,sans-Serif" font-size="9.00">CHTML.group</text>
</a>
</g>
</g>
<!-- Node161&#45;&gt;Node166 -->
<g id="edge6" class="edge"><title>Node161&#45;&gt;Node166</title>
<path fill="none" stroke="midnightblue" d="M402.107,-155C410.7,-155 419.363,-155 427.868,-155"/>
<polygon fill="midnightblue" stroke="midnightblue" points="402.065,-151.5 392.065,-155 402.065,-158.5 402.065,-151.5"/>
</g>
<!-- Node167 -->
<g id="node8" class="node"><title>Node167</title>
<g id="a_node8"><a xlink:href="../../da/d63/classde_1_1flashpixx_1_1rrd__antlr4_1_1engine_1_1template_1_1CLaTeXSyntax.html#acc257f441259efa9986735bd21ae76ec" target="_top" xlink:title="de.flashpixx.rrd_antlr4.engine.template.\lCLaTeXSyntax.negation">
<polygon fill="none" stroke="black" points="428,-94 428,-122 606,-122 606,-94 428,-94"/>
<text text-anchor="start" x="436" y="-110.8" font-family="Helvetica,sans-Serif" font-size="9.00">de.flashpixx.rrd_antlr4.engine.template.</text>
<text text-anchor="middle" x="517" y="-100.8" font-family="Helvetica,sans-Serif" font-size="9.00">CLaTeXSyntax.negation</text>
</a>
</g>
</g>
<!-- Node161&#45;&gt;Node167 -->
<g id="edge7" class="edge"><title>Node161&#45;&gt;Node167</title>
<path fill="none" stroke="midnightblue" d="M377.294,-138.751C401.821,-133.313 428.937,-127.302 452.64,-122.047"/>
<polygon fill="midnightblue" stroke="midnightblue" points="376.325,-135.381 367.32,-140.962 377.84,-142.215 376.325,-135.381"/>
</g>
<!-- Node168 -->
<g id="node9" class="node"><title>Node168</title>
<g id="a_node9"><a xlink:href="../../df/db0/classde_1_1flashpixx_1_1rrd__antlr4_1_1engine_1_1template_1_1CHTML.html#ad38ec163952e6855c783251da5c0c618" target="_top" xlink:title="de.flashpixx.rrd_antlr4.engine.template.\lCHTML.negation">
<polygon fill="none" stroke="black" points="428,-47 428,-75 606,-75 606,-47 428,-47"/>
<text text-anchor="start" x="436" y="-63.8" font-family="Helvetica,sans-Serif" font-size="9.00">de.flashpixx.rrd_antlr4.engine.template.</text>
<text text-anchor="middle" x="517" y="-53.8" font-family="Helvetica,sans-Serif" font-size="9.00">CHTML.negation</text>
</a>
</g>
</g>
<!-- Node161&#45;&gt;Node168 -->
<g id="edge8" class="edge"><title>Node161&#45;&gt;Node168</title>
<path fill="none" stroke="midnightblue" d="M333.597,-135.516C358.081,-120.09 394.197,-98.8983 428,-85 437.081,-81.2665 446.924,-77.9336 456.629,-75.0264"/>
<polygon fill="midnightblue" stroke="midnightblue" points="331.68,-132.587 325.129,-140.914 335.443,-138.49 331.68,-132.587"/>
</g>
<!-- Node169 -->
<g id="node10" class="node"><title>Node169</title>
<g id="a_node10"><a xlink:href="../../d5/dcc/classde_1_1flashpixx_1_1rrd__antlr4_1_1engine_1_1template_1_1IBaseTemplate.html#a644daf65240deb390d1b3b8715491f13" target="_top" xlink:title="creates a rule ">
<polygon fill="none" stroke="black" points="428,-0 428,-28 606,-28 606,-0 428,-0"/>
<text text-anchor="start" x="436" y="-16.8" font-family="Helvetica,sans-Serif" font-size="9.00">de.flashpixx.rrd_antlr4.engine.template.</text>
<text text-anchor="middle" x="517" y="-6.8" font-family="Helvetica,sans-Serif" font-size="9.00">IBaseTemplate.rule</text>
</a>
</g>
</g>
<!-- Node161&#45;&gt;Node169 -->
<g id="edge9" class="edge"><title>Node161&#45;&gt;Node169</title>
<path fill="none" stroke="midnightblue" d="M316.954,-132.667C337.666,-103.936 380.747,-55.5126 428,-29 428.552,-28.6901 429.109,-28.3839 429.67,-28.0816"/>
<polygon fill="midnightblue" stroke="midnightblue" points="314.067,-130.688 311.264,-140.905 319.827,-134.666 314.067,-130.688"/>
</g>
<!-- Node169&#45;&gt;Node161 -->
<g id="edge10" class="edge"><title>Node169&#45;&gt;Node161</title>
<path fill="none" stroke="midnightblue" d="M469.449,-30.7692C455.558,-34.7961 440.669,-39.8918 428,-47 383.086,-72.2001 341.942,-117.195 320.192,-140.608"/>
<polygon fill="midnightblue" stroke="midnightblue" points="470.649,-34.0685 479.342,-28.0125 468.77,-27.3254 470.649,-34.0685"/>
</g>
</g>
</svg>
        <g id="navigator" transform="translate(0 0)" fill="#404254">
                <rect fill="#f2f5e9" fill-opacity="0.5" stroke="#606060" stroke-width=".5" x="0" y="0" width="60" height="60"/>
                <use id="zoomplus" xlink:href="#zoomPlus" x="17" y="9" onmousedown="handleZoom(evt,'in')"/>
                <use id="zoomminus" xlink:href="#zoomMin" x="42" y="9" onmousedown="handleZoom(evt,'out')"/>
                <use id="reset" xlink:href="#resetDef" x="30" y="36" onmousedown="handleReset()"/>
                <g id="arrowUp" xlink:href="#dirArrow" transform="translate(30 24)" onmousedown="handlePan(0,-1)">
                  <use xlink:href="#rim" fill="#404040">
                        <set attributeName="fill" to="#808080" begin="arrowUp.mouseover" end="arrowUp.mouseout"/>
                  </use>
                  <path fill="none" stroke="white" stroke-width="1.5" d="M0,-3.0v7 M-2.5,-0.5L0,-3.0L2.5,-0.5"/>
                </g>
                <g id="arrowRight" xlink:href="#dirArrow" transform="rotate(90) translate(36 -43)" onmousedown="handlePan(1,0)">
                  <use xlink:href="#rim" fill="#404040">
                        <set attributeName="fill" to="#808080" begin="arrowRight.mouseover" end="arrowRight.mouseout"/>
                  </use>
                  <path fill="none" stroke="white" stroke-width="1.5" d="M0,-3.0v7 M-2.5,-0.5L0,-3.0L2.5,-0.5"/>
                </g>
                <g id="arrowDown" xlink:href="#dirArrow" transform="rotate(180) translate(-30 -48)" onmousedown="handlePan(0,1)">
                  <use xlink:href="#rim" fill="#404040">
                        <set attributeName="fill" to="#808080" begin="arrowDown.mouseover" end="arrowDown.mouseout"/>
                  </use>
                  <path fill="none" stroke="white" stroke-width="1.5" d="M0,-3.0v7 M-2.5,-0.5L0,-3.0L2.5,-0.5"/>
                </g>
                <g id="arrowLeft" xlink:href="#dirArrow" transform="rotate(270) translate(-36 17)" onmousedown="handlePan(-1,0)">
                  <use xlink:href="#rim" fill="#404040">
                        <set attributeName="fill" to="#808080" begin="arrowLeft.mouseover" end="arrowLeft.mouseout"/>
                  </use>
                  <path fill="none" stroke="white" stroke-width="1.5" d="M0,-3.0v7 M-2.5,-0.5L0,-3.0L2.5,-0.5"/>
                </g>
        </g>
        <svg viewBox="0 0 15 15" width="100%" height="30px" preserveAspectRatio="xMaxYMin meet">
         <g id="arrow_out" transform="scale(0.3 0.3)">
          <a xlink:href="classde_1_1flashpixx_1_1rrd__antlr4_1_1engine_1_1template_1_1IBaseTemplate_aed006de3401e84ff45301922a9ebd7f3_icgraph_org.svg" target="_base">
           <rect id="button" ry="5" rx="5" y="6" x="6" height="38" width="38"
                fill="#f2f5e9" fill-opacity="0.5" stroke="#606060" stroke-width="1.0"/>
           <path id="arrow"
             d="M 11.500037,31.436501 C 11.940474,20.09759 22.043105,11.32322 32.158766,21.979434 L 37.068811,17.246167 C 37.068811,17.246167 37.088388,32 37.088388,32 L 22.160133,31.978069 C 22.160133,31.978069 26.997745,27.140456 26.997745,27.140456 C 18.528582,18.264221 13.291696,25.230495 11.500037,31.436501 z"
             style="fill:#404040;"/>
          </a>
         </g>
        </svg>
</svg>
