<?xml version="1.0" encoding="UTF-8" standalone="no"?>
<!DOCTYPE svg PUBLIC "-//W3C//DTD SVG 1.1//EN"
 "http://www.w3.org/Graphics/SVG/1.1/DTD/svg11.dtd">
<!-- Generated by graphviz version 2.36.0 (20140111.2315)
 -->
<!-- Title: de.flashpixx.rrd_antlr4.engine.template.IBaseTemplate.removequotes Pages: 1 -->
<svg width="614pt" height="177pt"
 viewBox="0.00 0.00 614.00 177.00" xmlns="http://www.w3.org/2000/svg" xmlns:xlink="http://www.w3.org/1999/xlink">
<g id="graph0" class="graph" transform="scale(1 1) rotate(0) translate(4 173)">
<title>de.flashpixx.rrd_antlr4.engine.template.IBaseTemplate.removequotes</title>
<!-- Node101 -->
<g id="node1" class="node"><title>Node101</title>
<polygon fill="#bfbfbf" stroke="black" points="0,-70 0,-98 178,-98 178,-70 0,-70"/>
<text text-anchor="start" x="8" y="-86.8" font-family="Helvetica,sans-Serif" font-size="9.00">de.flashpixx.rrd_antlr4.engine.template.</text>
<text text-anchor="middle" x="89" y="-76.8" font-family="Helvetica,sans-Serif" font-size="9.00">IBaseTemplate.removequotes</text>
</g>
<!-- Node102 -->
<g id="node2" class="node"><title>Node102</title>
<g id="a_node2"><a xlink:href="../../da/d63/classde_1_1flashpixx_1_1rrd__antlr4_1_1engine_1_1template_1_1CLaTeXSyntax.html#abc6b410353d7790a4a46b952adbda470" target="_top" xlink:title="escape string with correct LaTeX definition ">
<polygon fill="none" stroke="black" points="214,-141 214,-169 392,-169 392,-141 214,-141"/>
<text text-anchor="start" x="222" y="-157.8" font-family="Helvetica,sans-Serif" font-size="9.00">de.flashpixx.rrd_antlr4.engine.template.</text>
<text text-anchor="middle" x="303" y="-147.8" font-family="Helvetica,sans-Serif" font-size="9.00">CLaTeXSyntax.escapelatex</text>
</a>
</g>
</g>
<!-- Node101&#45;&gt;Node102 -->
<g id="edge1" class="edge"><title>Node101&#45;&gt;Node102</title>
<path fill="none" stroke="midnightblue" d="M133.797,-101.777C157.37,-111.046 187.059,-122.243 214,-131 224.693,-134.476 236.223,-137.869 247.304,-140.96"/>
<polygon fill="midnightblue" stroke="midnightblue" points="135.012,-98.4941 124.426,-98.0678 132.436,-105.003 135.012,-98.4941"/>
</g>
<!-- Node104 -->
<g id="node4" class="node"><title>Node104</title>
<g id="a_node4"><a xlink:href="../../da/d63/classde_1_1flashpixx_1_1rrd__antlr4_1_1engine_1_1template_1_1CLaTeXSyntax.html#aba3fe3a52c7750b61dbf164fb8369967" target="_top" xlink:title="de.flashpixx.rrd_antlr4.engine.template.\lCLaTeXSyntax.nonterminal">
<polygon fill="none" stroke="black" points="214,-94 214,-122 392,-122 392,-94 214,-94"/>
<text text-anchor="start" x="222" y="-110.8" font-family="Helvetica,sans-Serif" font-size="9.00">de.flashpixx.rrd_antlr4.engine.template.</text>
<text text-anchor="middle" x="303" y="-100.8" font-family="Helvetica,sans-Serif" font-size="9.00">CLaTeXSyntax.nonterminal</text>
</a>
</g>
</g>
<!-- Node101&#45;&gt;Node104 -->
<g id="edge3" class="edge"><title>Node101&#45;&gt;Node104</title>
<path fill="none" stroke="midnightblue" d="M188.107,-95.1065C196.7,-96.0793 205.363,-97.06 213.868,-98.0227"/>
<polygon fill="midnightblue" stroke="midnightblue" points="188.396,-91.6169 178.065,-93.9697 187.608,-98.5724 188.396,-91.6169"/>
</g>
<!-- Node105 -->
<g id="node5" class="node"><title>Node105</title>
<g id="a_node5"><a xlink:href="../../df/db0/classde_1_1flashpixx_1_1rrd__antlr4_1_1engine_1_1template_1_1CHTML.html#a246f7b99948e2cd65f1118e178b2afdd" target="_top" xlink:title="de.flashpixx.rrd_antlr4.engine.template.\lCHTML.nonterminal">
<polygon fill="none" stroke="black" points="214,-47 214,-75 392,-75 392,-47 214,-47"/>
<text text-anchor="start" x="222" y="-63.8" font-family="Helvetica,sans-Serif" font-size="9.00">de.flashpixx.rrd_antlr4.engine.template.</text>
<text text-anchor="middle" x="303" y="-53.8" font-family="Helvetica,sans-Serif" font-size="9.00">CHTML.nonterminal</text>
</a>
</g>
</g>
<!-- Node101&#45;&gt;Node105 -->
<g id="edge4" class="edge"><title>Node101&#45;&gt;Node105</title>
<path fill="none" stroke="midnightblue" d="M188.107,-73.3563C196.7,-72.424 205.363,-71.4842 213.868,-70.5615"/>
<polygon fill="midnightblue" stroke="midnightblue" points="187.629,-69.8875 178.065,-74.4457 188.385,-76.8467 187.629,-69.8875"/>
</g>
<!-- Node106 -->
<g id="node6" class="node"><title>Node106</title>
<g id="a_node6"><a xlink:href="../../df/db0/classde_1_1flashpixx_1_1rrd__antlr4_1_1engine_1_1template_1_1CHTML.html#a9bc18d6178f781f81e8a758a1a21e0b5" target="_top" xlink:title="de.flashpixx.rrd_antlr4.engine.template.\lCHTML.terminalvalue">
<polygon fill="none" stroke="black" points="214,-0 214,-28 392,-28 392,-0 214,-0"/>
<text text-anchor="start" x="222" y="-16.8" font-family="Helvetica,sans-Serif" font-size="9.00">de.flashpixx.rrd_antlr4.engine.template.</text>
<text text-anchor="middle" x="303" y="-6.8" font-family="Helvetica,sans-Serif" font-size="9.00">CHTML.terminalvalue</text>
</a>
</g>
</g>
<!-- Node101&#45;&gt;Node106 -->
<g id="edge5" class="edge"><title>Node101&#45;&gt;Node106</title>
<path fill="none" stroke="midnightblue" d="M134.59,-66.3642C158.048,-57.3657 187.388,-46.5463 214,-38 224.705,-34.5622 236.241,-31.1852 247.323,-28.0997"/>
<polygon fill="midnightblue" stroke="midnightblue" points="133.321,-63.1025 125.252,-69.9691 135.842,-69.6328 133.321,-63.1025"/>
</g>
<!-- Node103 -->
<g id="node3" class="node"><title>Node103</title>
<g id="a_node3"><a xlink:href="../../da/d63/classde_1_1flashpixx_1_1rrd__antlr4_1_1engine_1_1template_1_1CLaTeXSyntax.html#adc9563210a9aef0d9d757f7a034333f2" target="_top" xlink:title="de.flashpixx.rrd_antlr4.engine.template.\lCLaTeXSyntax.terminalvalue">
<polygon fill="none" stroke="black" points="428,-141 428,-169 606,-169 606,-141 428,-141"/>
<text text-anchor="start" x="436" y="-157.8" font-family="Helvetica,sans-Serif" font-size="9.00">de.flashpixx.rrd_antlr4.engine.template.</text>
<text text-anchor="middle" x="517" y="-147.8" font-family="Helvetica,sans-Serif" font-size="9.00">CLaTeXSyntax.terminalvalue</text>
</a>
</g>
</g>
<!-- Node102&#45;&gt;Node103 -->
<g id="edge2" class="edge"><title>Node102&#45;&gt;Node103</title>
<path fill="none" stroke="midnightblue" d="M402.107,-155C410.7,-155 419.363,-155 427.868,-155"/>
<polygon fill="midnightblue" stroke="midnightblue" points="402.065,-151.5 392.065,-155 402.065,-158.5 402.065,-151.5"/>
</g>
</g>
</svg>
