<?xml version="1.0" encoding="UTF-8" standalone="no"?>
<!DOCTYPE svg PUBLIC "-//W3C//DTD SVG 1.1//EN"
 "http://www.w3.org/Graphics/SVG/1.1/DTD/svg11.dtd">
<!-- Generated by graphviz version 2.36.0 (20140111.2315)
 -->
<!-- Title: de.flashpixx.rrd_antlr4.engine.template.IBaseTemplate.copy Pages: 1 -->
<svg width="400pt" height="83pt"
 viewBox="0.00 0.00 400.00 83.00" xmlns="http://www.w3.org/2000/svg" xmlns:xlink="http://www.w3.org/1999/xlink">
<g id="graph0" class="graph" transform="scale(1 1) rotate(0) translate(4 79)">
<title>de.flashpixx.rrd_antlr4.engine.template.IBaseTemplate.copy</title>
<!-- Node28 -->
<g id="node1" class="node"><title>Node28</title>
<polygon fill="#bfbfbf" stroke="black" points="0,-23 0,-51 178,-51 178,-23 0,-23"/>
<text text-anchor="start" x="8" y="-39.8" font-family="Helvetica,sans-Serif" font-size="9.00">de.flashpixx.rrd_antlr4.engine.template.</text>
<text text-anchor="middle" x="89" y="-29.8" font-family="Helvetica,sans-Serif" font-size="9.00">IBaseTemplate.copy</text>
</g>
<!-- Node29 -->
<g id="node2" class="node"><title>Node29</title>
<g id="a_node2"><a xlink:href="../../df/db0/classde_1_1flashpixx_1_1rrd__antlr4_1_1engine_1_1template_1_1CHTML.html#aa7507dba1f5f25745319524e2514dbc0" target="_top" xlink:title="postprocessing (after AST visiting) ">
<polygon fill="none" stroke="black" points="214,-47 214,-75 392,-75 392,-47 214,-47"/>
<text text-anchor="start" x="222" y="-63.8" font-family="Helvetica,sans-Serif" font-size="9.00">de.flashpixx.rrd_antlr4.engine.template.</text>
<text text-anchor="middle" x="303" y="-53.8" font-family="Helvetica,sans-Serif" font-size="9.00">CHTML.postprocess</text>
</a>
</g>
</g>
<!-- Node28&#45;&gt;Node29 -->
<g id="edge1" class="edge"><title>Node28&#45;&gt;Node29</title>
<path fill="none" stroke="midnightblue" d="M188.107,-48.1065C196.7,-49.0793 205.363,-50.06 213.868,-51.0227"/>
<polygon fill="midnightblue" stroke="midnightblue" points="188.396,-44.6169 178.065,-46.9697 187.608,-51.5724 188.396,-44.6169"/>
</g>
<!-- Node30 -->
<g id="node3" class="node"><title>Node30</title>
<g id="a_node3"><a xlink:href="../../da/d63/classde_1_1flashpixx_1_1rrd__antlr4_1_1engine_1_1template_1_1CLaTeXSyntax.html#af67e20f51735f5e721e494e7f9752c8d" target="_top" xlink:title="postprocessing (after AST visiting) ">
<polygon fill="none" stroke="black" points="214,-0 214,-28 392,-28 392,-0 214,-0"/>
<text text-anchor="start" x="222" y="-16.8" font-family="Helvetica,sans-Serif" font-size="9.00">de.flashpixx.rrd_antlr4.engine.template.</text>
<text text-anchor="middle" x="303" y="-6.8" font-family="Helvetica,sans-Serif" font-size="9.00">CLaTeXSyntax.postprocess</text>
</a>
</g>
</g>
<!-- Node28&#45;&gt;Node30 -->
<g id="edge2" class="edge"><title>Node28&#45;&gt;Node30</title>
<path fill="none" stroke="midnightblue" d="M188.107,-26.3563C196.7,-25.424 205.363,-24.4842 213.868,-23.5615"/>
<polygon fill="midnightblue" stroke="midnightblue" points="187.629,-22.8875 178.065,-27.4457 188.385,-29.8467 187.629,-22.8875"/>
</g>
</g>
</svg>
