<?xml version="1.0" encoding="UTF-8" standalone="no"?>
<!DOCTYPE svg PUBLIC "-//W3C//DTD SVG 1.1//EN"
 "http://www.w3.org/Graphics/SVG/1.1/DTD/svg11.dtd">
<!-- Generated by graphviz version 2.36.0 (20140111.2315)
 -->
<!-- Title: de.flashpixx.rrd_antlr4.engine.template.IBaseTemplate.map Pages: 1 -->
<svg width="400pt" height="412pt"
 viewBox="0.00 0.00 400.00 412.00" xmlns="http://www.w3.org/2000/svg" xmlns:xlink="http://www.w3.org/1999/xlink">
<g id="graph0" class="graph" transform="scale(1 1) rotate(0) translate(4 408)">
<title>de.flashpixx.rrd_antlr4.engine.template.IBaseTemplate.map</title>
<!-- Node64 -->
<g id="node1" class="node"><title>Node64</title>
<polygon fill="#bfbfbf" stroke="black" points="0,-141 0,-169 178,-169 178,-141 0,-141"/>
<text text-anchor="start" x="8" y="-157.8" font-family="Helvetica,sans-Serif" font-size="9.00">de.flashpixx.rrd_antlr4.engine.template.</text>
<text text-anchor="middle" x="89" y="-147.8" font-family="Helvetica,sans-Serif" font-size="9.00">IBaseTemplate.map</text>
</g>
<!-- Node65 -->
<g id="node2" class="node"><title>Node65</title>
<g id="a_node2"><a xlink:href="../../df/db0/classde_1_1flashpixx_1_1rrd__antlr4_1_1engine_1_1template_1_1CHTML.html#a78b97b93b551354bf558d71e8e842778" target="_top" xlink:title="de.flashpixx.rrd_antlr4.engine.template.\lCHTML.choice">
<polygon fill="none" stroke="black" points="214,-376 214,-404 392,-404 392,-376 214,-376"/>
<text text-anchor="start" x="222" y="-392.8" font-family="Helvetica,sans-Serif" font-size="9.00">de.flashpixx.rrd_antlr4.engine.template.</text>
<text text-anchor="middle" x="303" y="-382.8" font-family="Helvetica,sans-Serif" font-size="9.00">CHTML.choice</text>
</a>
</g>
</g>
<!-- Node64&#45;&gt;Node65 -->
<g id="edge1" class="edge"><title>Node64&#45;&gt;Node65</title>
<path fill="none" stroke="midnightblue" d="M97.2018,-178.609C111.81,-222.437 149.164,-316.417 214,-366 219.157,-369.944 224.92,-373.24 230.962,-375.995"/>
<polygon fill="midnightblue" stroke="midnightblue" points="100.529,-177.523 94.1246,-169.083 93.8683,-179.675 100.529,-177.523"/>
</g>
<!-- Node66 -->
<g id="node3" class="node"><title>Node66</title>
<g id="a_node3"><a xlink:href="../../da/d63/classde_1_1flashpixx_1_1rrd__antlr4_1_1engine_1_1template_1_1CLaTeXSyntax.html#a7f1b2a77fcff93135d1dab1a98e0eab0" target="_top" xlink:title="is called if any grammar element is completed ">
<polygon fill="none" stroke="black" points="214,-329 214,-357 392,-357 392,-329 214,-329"/>
<text text-anchor="start" x="222" y="-345.8" font-family="Helvetica,sans-Serif" font-size="9.00">de.flashpixx.rrd_antlr4.engine.template.</text>
<text text-anchor="middle" x="303" y="-335.8" font-family="Helvetica,sans-Serif" font-size="9.00">CLaTeXSyntax.element</text>
</a>
</g>
</g>
<!-- Node64&#45;&gt;Node66 -->
<g id="edge2" class="edge"><title>Node64&#45;&gt;Node66</title>
<path fill="none" stroke="midnightblue" d="M101.358,-178.582C119.863,-214.46 159.953,-282.434 214,-319 219.771,-322.904 226.158,-326.176 232.778,-328.916"/>
<polygon fill="midnightblue" stroke="midnightblue" points="104.341,-176.724 96.7167,-169.367 98.0886,-179.872 104.341,-176.724"/>
</g>
<!-- Node67 -->
<g id="node4" class="node"><title>Node67</title>
<g id="a_node4"><a xlink:href="../../df/db0/classde_1_1flashpixx_1_1rrd__antlr4_1_1engine_1_1template_1_1CHTML.html#a4a9260119c44dc505e7d8269f408bb4a" target="_top" xlink:title="is called if any grammar element is completed ">
<polygon fill="none" stroke="black" points="214,-282 214,-310 392,-310 392,-282 214,-282"/>
<text text-anchor="start" x="222" y="-298.8" font-family="Helvetica,sans-Serif" font-size="9.00">de.flashpixx.rrd_antlr4.engine.template.</text>
<text text-anchor="middle" x="303" y="-288.8" font-family="Helvetica,sans-Serif" font-size="9.00">CHTML.element</text>
</a>
</g>
</g>
<!-- Node64&#45;&gt;Node67 -->
<g id="edge3" class="edge"><title>Node64&#45;&gt;Node67</title>
<path fill="none" stroke="midnightblue" d="M107.512,-177.152C129.578,-203.585 169.978,-247.301 214,-272 220.905,-275.874 228.47,-279.151 236.173,-281.915"/>
<polygon fill="midnightblue" stroke="midnightblue" points="110.057,-174.736 101.01,-169.223 104.644,-179.175 110.057,-174.736"/>
</g>
<!-- Node68 -->
<g id="node5" class="node"><title>Node68</title>
<g id="a_node5"><a xlink:href="../../da/d63/classde_1_1flashpixx_1_1rrd__antlr4_1_1engine_1_1template_1_1CLaTeXSyntax.html#a42c60e6e62f33c5775b5518415295848" target="_top" xlink:title="de.flashpixx.rrd_antlr4.engine.template.\lCLaTeXSyntax.group">
<polygon fill="none" stroke="black" points="214,-235 214,-263 392,-263 392,-235 214,-235"/>
<text text-anchor="start" x="222" y="-251.8" font-family="Helvetica,sans-Serif" font-size="9.00">de.flashpixx.rrd_antlr4.engine.template.</text>
<text text-anchor="middle" x="303" y="-241.8" font-family="Helvetica,sans-Serif" font-size="9.00">CLaTeXSyntax.group</text>
</a>
</g>
</g>
<!-- Node64&#45;&gt;Node68 -->
<g id="edge4" class="edge"><title>Node64&#45;&gt;Node68</title>
<path fill="none" stroke="midnightblue" d="M119.597,-174.484C144.081,-189.91 180.197,-211.102 214,-225 223.081,-228.734 232.924,-232.066 242.629,-234.974"/>
<polygon fill="midnightblue" stroke="midnightblue" points="121.443,-171.51 111.129,-169.086 117.68,-177.413 121.443,-171.51"/>
</g>
<!-- Node69 -->
<g id="node6" class="node"><title>Node69</title>
<g id="a_node6"><a xlink:href="../../df/db0/classde_1_1flashpixx_1_1rrd__antlr4_1_1engine_1_1template_1_1CHTML.html#a5386e78d33f56f39bda5e51841c5ca79" target="_top" xlink:title="de.flashpixx.rrd_antlr4.engine.template.\lCHTML.group">
<polygon fill="none" stroke="black" points="214,-188 214,-216 392,-216 392,-188 214,-188"/>
<text text-anchor="start" x="222" y="-204.8" font-family="Helvetica,sans-Serif" font-size="9.00">de.flashpixx.rrd_antlr4.engine.template.</text>
<text text-anchor="middle" x="303" y="-194.8" font-family="Helvetica,sans-Serif" font-size="9.00">CHTML.group</text>
</a>
</g>
</g>
<!-- Node64&#45;&gt;Node69 -->
<g id="edge5" class="edge"><title>Node64&#45;&gt;Node69</title>
<path fill="none" stroke="midnightblue" d="M163.294,-171.249C187.821,-176.687 214.937,-182.698 238.64,-187.953"/>
<polygon fill="midnightblue" stroke="midnightblue" points="163.84,-167.785 153.32,-169.038 162.325,-174.619 163.84,-167.785"/>
</g>
<!-- Node70 -->
<g id="node7" class="node"><title>Node70</title>
<g id="a_node7"><a xlink:href="../../da/d63/classde_1_1flashpixx_1_1rrd__antlr4_1_1engine_1_1template_1_1CLaTeXSyntax.html#acc257f441259efa9986735bd21ae76ec" target="_top" xlink:title="de.flashpixx.rrd_antlr4.engine.template.\lCLaTeXSyntax.negation">
<polygon fill="none" stroke="black" points="214,-141 214,-169 392,-169 392,-141 214,-141"/>
<text text-anchor="start" x="222" y="-157.8" font-family="Helvetica,sans-Serif" font-size="9.00">de.flashpixx.rrd_antlr4.engine.template.</text>
<text text-anchor="middle" x="303" y="-147.8" font-family="Helvetica,sans-Serif" font-size="9.00">CLaTeXSyntax.negation</text>
</a>
</g>
</g>
<!-- Node64&#45;&gt;Node70 -->
<g id="edge6" class="edge"><title>Node64&#45;&gt;Node70</title>
<path fill="none" stroke="midnightblue" d="M188.107,-155C196.7,-155 205.363,-155 213.868,-155"/>
<polygon fill="midnightblue" stroke="midnightblue" points="188.065,-151.5 178.065,-155 188.065,-158.5 188.065,-151.5"/>
</g>
<!-- Node71 -->
<g id="node8" class="node"><title>Node71</title>
<g id="a_node8"><a xlink:href="../../df/db0/classde_1_1flashpixx_1_1rrd__antlr4_1_1engine_1_1template_1_1CHTML.html#ad38ec163952e6855c783251da5c0c618" target="_top" xlink:title="de.flashpixx.rrd_antlr4.engine.template.\lCHTML.negation">
<polygon fill="none" stroke="black" points="214,-94 214,-122 392,-122 392,-94 214,-94"/>
<text text-anchor="start" x="222" y="-110.8" font-family="Helvetica,sans-Serif" font-size="9.00">de.flashpixx.rrd_antlr4.engine.template.</text>
<text text-anchor="middle" x="303" y="-100.8" font-family="Helvetica,sans-Serif" font-size="9.00">CHTML.negation</text>
</a>
</g>
</g>
<!-- Node64&#45;&gt;Node71 -->
<g id="edge7" class="edge"><title>Node64&#45;&gt;Node71</title>
<path fill="none" stroke="midnightblue" d="M163.294,-138.751C187.821,-133.313 214.937,-127.302 238.64,-122.047"/>
<polygon fill="midnightblue" stroke="midnightblue" points="162.325,-135.381 153.32,-140.962 163.84,-142.215 162.325,-135.381"/>
</g>
<!-- Node72 -->
<g id="node9" class="node"><title>Node72</title>
<g id="a_node9"><a xlink:href="../../d5/dcc/classde_1_1flashpixx_1_1rrd__antlr4_1_1engine_1_1template_1_1IBaseTemplate.html#a644daf65240deb390d1b3b8715491f13" target="_top" xlink:title="creates a rule ">
<polygon fill="none" stroke="black" points="214,-47 214,-75 392,-75 392,-47 214,-47"/>
<text text-anchor="start" x="222" y="-63.8" font-family="Helvetica,sans-Serif" font-size="9.00">de.flashpixx.rrd_antlr4.engine.template.</text>
<text text-anchor="middle" x="303" y="-53.8" font-family="Helvetica,sans-Serif" font-size="9.00">IBaseTemplate.rule</text>
</a>
</g>
</g>
<!-- Node64&#45;&gt;Node72 -->
<g id="edge8" class="edge"><title>Node64&#45;&gt;Node72</title>
<path fill="none" stroke="midnightblue" d="M110.892,-134.545C134.906,-116.569 175.921,-91.6565 214,-76 214.732,-75.6989 215.47,-75.4004 216.211,-75.1046"/>
<polygon fill="midnightblue" stroke="midnightblue" points="108.578,-131.911 102.85,-140.825 112.886,-137.428 108.578,-131.911"/>
</g>
<!-- Node73 -->
<g id="node10" class="node"><title>Node73</title>
<g id="a_node10"><a xlink:href="../../d5/dcc/classde_1_1flashpixx_1_1rrd__antlr4_1_1engine_1_1template_1_1IBaseTemplate.html#aed006de3401e84ff45301922a9ebd7f3" target="_top" xlink:title="creates a terminal ">
<polygon fill="none" stroke="black" points="214,-0 214,-28 392,-28 392,-0 214,-0"/>
<text text-anchor="start" x="222" y="-16.8" font-family="Helvetica,sans-Serif" font-size="9.00">de.flashpixx.rrd_antlr4.engine.template.</text>
<text text-anchor="middle" x="303" y="-6.8" font-family="Helvetica,sans-Serif" font-size="9.00">IBaseTemplate.terminal</text>
</a>
</g>
</g>
<!-- Node64&#45;&gt;Node73 -->
<g id="edge10" class="edge"><title>Node64&#45;&gt;Node73</title>
<path fill="none" stroke="midnightblue" d="M102.954,-132.667C123.666,-103.936 166.747,-55.5126 214,-29 214.552,-28.6901 215.109,-28.3839 215.67,-28.0816"/>
<polygon fill="midnightblue" stroke="midnightblue" points="100.067,-130.688 97.2643,-140.905 105.827,-134.666 100.067,-130.688"/>
</g>
<!-- Node72&#45;&gt;Node64 -->
<g id="edge9" class="edge"><title>Node72&#45;&gt;Node64</title>
<path fill="none" stroke="midnightblue" d="M262.319,-77.979C246.946,-82.5034 229.378,-87.6771 214,-94 181.647,-107.302 147.176,-127.285 122.812,-140.98"/>
<polygon fill="midnightblue" stroke="midnightblue" points="263.466,-81.2898 272.06,-75.094 261.478,-74.578 263.466,-81.2898"/>
</g>
<!-- Node73&#45;&gt;Node64 -->
<g id="edge11" class="edge"><title>Node73&#45;&gt;Node64</title>
<path fill="none" stroke="midnightblue" d="M255.449,-30.7692C241.558,-34.7961 226.669,-39.8918 214,-47 169.086,-72.2001 127.942,-117.195 106.192,-140.608"/>
<polygon fill="midnightblue" stroke="midnightblue" points="256.649,-34.0685 265.342,-28.0125 254.77,-27.3254 256.649,-34.0685"/>
</g>
</g>
</svg>
