<?xml version="1.0" encoding="UTF-8" standalone="no"?>
<!DOCTYPE svg PUBLIC "-//W3C//DTD SVG 1.1//EN"
 "http://www.w3.org/Graphics/SVG/1.1/DTD/svg11.dtd">
<!-- Generated by graphviz version 2.36.0 (20140111.2315)
 -->
<!-- Title: de.flashpixx.rrd_antlr4.engine.template.IBaseTemplate.rule Pages: 1 -->
<svg width="614pt" height="365pt"
 viewBox="0.00 0.00 614.00 365.00" xmlns="http://www.w3.org/2000/svg" xmlns:xlink="http://www.w3.org/1999/xlink">
<g id="graph0" class="graph" transform="scale(1 1) rotate(0) translate(4 361)">
<title>de.flashpixx.rrd_antlr4.engine.template.IBaseTemplate.rule</title>
<!-- Node125 -->
<g id="node1" class="node"><title>Node125</title>
<polygon fill="#bfbfbf" stroke="black" points="0,-141 0,-169 178,-169 178,-141 0,-141"/>
<text text-anchor="start" x="8" y="-157.8" font-family="Helvetica,sans-Serif" font-size="9.00">de.flashpixx.rrd_antlr4.engine.template.</text>
<text text-anchor="middle" x="89" y="-147.8" font-family="Helvetica,sans-Serif" font-size="9.00">IBaseTemplate.rule</text>
</g>
<!-- Node126 -->
<g id="node2" class="node"><title>Node126</title>
<g id="a_node2"><a xlink:href="../../d5/dcc/classde_1_1flashpixx_1_1rrd__antlr4_1_1engine_1_1template_1_1IBaseTemplate.html#aba059762f4ecba4c0fa04758165dbf11" target="_top" xlink:title="calls the sub routines to format the lement ">
<polygon fill="none" stroke="black" points="214,-141 214,-169 392,-169 392,-141 214,-141"/>
<text text-anchor="start" x="222" y="-157.8" font-family="Helvetica,sans-Serif" font-size="9.00">de.flashpixx.rrd_antlr4.engine.template.</text>
<text text-anchor="middle" x="303" y="-147.8" font-family="Helvetica,sans-Serif" font-size="9.00">IBaseTemplate.map</text>
</a>
</g>
</g>
<!-- Node125&#45;&gt;Node126 -->
<g id="edge1" class="edge"><title>Node125&#45;&gt;Node126</title>
<path fill="none" stroke="midnightblue" d="M188.107,-148.267C196.7,-148.23 205.363,-148.253 213.868,-148.336"/>
<polygon fill="midnightblue" stroke="midnightblue" points="188.041,-144.767 178.065,-148.337 188.09,-151.767 188.041,-144.767"/>
</g>
<!-- Node126&#45;&gt;Node125 -->
<g id="edge9" class="edge"><title>Node126&#45;&gt;Node125</title>
<path fill="none" stroke="midnightblue" d="M203.825,-161.734C195.232,-161.77 186.569,-161.746 178.065,-161.663"/>
<polygon fill="midnightblue" stroke="midnightblue" points="203.892,-165.233 213.868,-161.664 203.844,-158.234 203.892,-165.233"/>
</g>
<!-- Node127 -->
<g id="node3" class="node"><title>Node127</title>
<g id="a_node3"><a xlink:href="../../df/db0/classde_1_1flashpixx_1_1rrd__antlr4_1_1engine_1_1template_1_1CHTML.html#a78b97b93b551354bf558d71e8e842778" target="_top" xlink:title="de.flashpixx.rrd_antlr4.engine.template.\lCHTML.choice">
<polygon fill="none" stroke="black" points="428,-329 428,-357 606,-357 606,-329 428,-329"/>
<text text-anchor="start" x="436" y="-345.8" font-family="Helvetica,sans-Serif" font-size="9.00">de.flashpixx.rrd_antlr4.engine.template.</text>
<text text-anchor="middle" x="517" y="-335.8" font-family="Helvetica,sans-Serif" font-size="9.00">CHTML.choice</text>
</a>
</g>
</g>
<!-- Node126&#45;&gt;Node127 -->
<g id="edge2" class="edge"><title>Node126&#45;&gt;Node127</title>
<path fill="none" stroke="midnightblue" d="M315.358,-178.582C333.863,-214.46 373.953,-282.434 428,-319 433.771,-322.904 440.158,-326.176 446.778,-328.916"/>
<polygon fill="midnightblue" stroke="midnightblue" points="318.341,-176.724 310.717,-169.367 312.089,-179.872 318.341,-176.724"/>
</g>
<!-- Node128 -->
<g id="node4" class="node"><title>Node128</title>
<g id="a_node4"><a xlink:href="../../da/d63/classde_1_1flashpixx_1_1rrd__antlr4_1_1engine_1_1template_1_1CLaTeXSyntax.html#a7f1b2a77fcff93135d1dab1a98e0eab0" target="_top" xlink:title="is called if any grammar element is completed ">
<polygon fill="none" stroke="black" points="428,-282 428,-310 606,-310 606,-282 428,-282"/>
<text text-anchor="start" x="436" y="-298.8" font-family="Helvetica,sans-Serif" font-size="9.00">de.flashpixx.rrd_antlr4.engine.template.</text>
<text text-anchor="middle" x="517" y="-288.8" font-family="Helvetica,sans-Serif" font-size="9.00">CLaTeXSyntax.element</text>
</a>
</g>
</g>
<!-- Node126&#45;&gt;Node128 -->
<g id="edge3" class="edge"><title>Node126&#45;&gt;Node128</title>
<path fill="none" stroke="midnightblue" d="M321.512,-177.152C343.578,-203.585 383.978,-247.301 428,-272 434.905,-275.874 442.47,-279.151 450.173,-281.915"/>
<polygon fill="midnightblue" stroke="midnightblue" points="324.057,-174.736 315.01,-169.223 318.644,-179.175 324.057,-174.736"/>
</g>
<!-- Node129 -->
<g id="node5" class="node"><title>Node129</title>
<g id="a_node5"><a xlink:href="../../df/db0/classde_1_1flashpixx_1_1rrd__antlr4_1_1engine_1_1template_1_1CHTML.html#a4a9260119c44dc505e7d8269f408bb4a" target="_top" xlink:title="is called if any grammar element is completed ">
<polygon fill="none" stroke="black" points="428,-235 428,-263 606,-263 606,-235 428,-235"/>
<text text-anchor="start" x="436" y="-251.8" font-family="Helvetica,sans-Serif" font-size="9.00">de.flashpixx.rrd_antlr4.engine.template.</text>
<text text-anchor="middle" x="517" y="-241.8" font-family="Helvetica,sans-Serif" font-size="9.00">CHTML.element</text>
</a>
</g>
</g>
<!-- Node126&#45;&gt;Node129 -->
<g id="edge4" class="edge"><title>Node126&#45;&gt;Node129</title>
<path fill="none" stroke="midnightblue" d="M333.597,-174.484C358.081,-189.91 394.197,-211.102 428,-225 437.081,-228.734 446.924,-232.066 456.629,-234.974"/>
<polygon fill="midnightblue" stroke="midnightblue" points="335.443,-171.51 325.129,-169.086 331.68,-177.413 335.443,-171.51"/>
</g>
<!-- Node130 -->
<g id="node6" class="node"><title>Node130</title>
<g id="a_node6"><a xlink:href="../../da/d63/classde_1_1flashpixx_1_1rrd__antlr4_1_1engine_1_1template_1_1CLaTeXSyntax.html#a42c60e6e62f33c5775b5518415295848" target="_top" xlink:title="de.flashpixx.rrd_antlr4.engine.template.\lCLaTeXSyntax.group">
<polygon fill="none" stroke="black" points="428,-188 428,-216 606,-216 606,-188 428,-188"/>
<text text-anchor="start" x="436" y="-204.8" font-family="Helvetica,sans-Serif" font-size="9.00">de.flashpixx.rrd_antlr4.engine.template.</text>
<text text-anchor="middle" x="517" y="-194.8" font-family="Helvetica,sans-Serif" font-size="9.00">CLaTeXSyntax.group</text>
</a>
</g>
</g>
<!-- Node126&#45;&gt;Node130 -->
<g id="edge5" class="edge"><title>Node126&#45;&gt;Node130</title>
<path fill="none" stroke="midnightblue" d="M377.294,-171.249C401.821,-176.687 428.937,-182.698 452.64,-187.953"/>
<polygon fill="midnightblue" stroke="midnightblue" points="377.84,-167.785 367.32,-169.038 376.325,-174.619 377.84,-167.785"/>
</g>
<!-- Node131 -->
<g id="node7" class="node"><title>Node131</title>
<g id="a_node7"><a xlink:href="../../df/db0/classde_1_1flashpixx_1_1rrd__antlr4_1_1engine_1_1template_1_1CHTML.html#a5386e78d33f56f39bda5e51841c5ca79" target="_top" xlink:title="de.flashpixx.rrd_antlr4.engine.template.\lCHTML.group">
<polygon fill="none" stroke="black" points="428,-141 428,-169 606,-169 606,-141 428,-141"/>
<text text-anchor="start" x="436" y="-157.8" font-family="Helvetica,sans-Serif" font-size="9.00">de.flashpixx.rrd_antlr4.engine.template.</text>
<text text-anchor="middle" x="517" y="-147.8" font-family="Helvetica,sans-Serif" font-size="9.00">CHTML.group</text>
</a>
</g>
</g>
<!-- Node126&#45;&gt;Node131 -->
<g id="edge6" class="edge"><title>Node126&#45;&gt;Node131</title>
<path fill="none" stroke="midnightblue" d="M402.107,-155C410.7,-155 419.363,-155 427.868,-155"/>
<polygon fill="midnightblue" stroke="midnightblue" points="402.065,-151.5 392.065,-155 402.065,-158.5 402.065,-151.5"/>
</g>
<!-- Node132 -->
<g id="node8" class="node"><title>Node132</title>
<g id="a_node8"><a xlink:href="../../da/d63/classde_1_1flashpixx_1_1rrd__antlr4_1_1engine_1_1template_1_1CLaTeXSyntax.html#acc257f441259efa9986735bd21ae76ec" target="_top" xlink:title="de.flashpixx.rrd_antlr4.engine.template.\lCLaTeXSyntax.negation">
<polygon fill="none" stroke="black" points="428,-94 428,-122 606,-122 606,-94 428,-94"/>
<text text-anchor="start" x="436" y="-110.8" font-family="Helvetica,sans-Serif" font-size="9.00">de.flashpixx.rrd_antlr4.engine.template.</text>
<text text-anchor="middle" x="517" y="-100.8" font-family="Helvetica,sans-Serif" font-size="9.00">CLaTeXSyntax.negation</text>
</a>
</g>
</g>
<!-- Node126&#45;&gt;Node132 -->
<g id="edge7" class="edge"><title>Node126&#45;&gt;Node132</title>
<path fill="none" stroke="midnightblue" d="M377.294,-138.751C401.821,-133.313 428.937,-127.302 452.64,-122.047"/>
<polygon fill="midnightblue" stroke="midnightblue" points="376.325,-135.381 367.32,-140.962 377.84,-142.215 376.325,-135.381"/>
</g>
<!-- Node133 -->
<g id="node9" class="node"><title>Node133</title>
<g id="a_node9"><a xlink:href="../../df/db0/classde_1_1flashpixx_1_1rrd__antlr4_1_1engine_1_1template_1_1CHTML.html#ad38ec163952e6855c783251da5c0c618" target="_top" xlink:title="de.flashpixx.rrd_antlr4.engine.template.\lCHTML.negation">
<polygon fill="none" stroke="black" points="428,-47 428,-75 606,-75 606,-47 428,-47"/>
<text text-anchor="start" x="436" y="-63.8" font-family="Helvetica,sans-Serif" font-size="9.00">de.flashpixx.rrd_antlr4.engine.template.</text>
<text text-anchor="middle" x="517" y="-53.8" font-family="Helvetica,sans-Serif" font-size="9.00">CHTML.negation</text>
</a>
</g>
</g>
<!-- Node126&#45;&gt;Node133 -->
<g id="edge8" class="edge"><title>Node126&#45;&gt;Node133</title>
<path fill="none" stroke="midnightblue" d="M333.597,-135.516C358.081,-120.09 394.197,-98.8983 428,-85 437.081,-81.2665 446.924,-77.9336 456.629,-75.0264"/>
<polygon fill="midnightblue" stroke="midnightblue" points="331.68,-132.587 325.129,-140.914 335.443,-138.49 331.68,-132.587"/>
</g>
<!-- Node134 -->
<g id="node10" class="node"><title>Node134</title>
<g id="a_node10"><a xlink:href="../../d5/dcc/classde_1_1flashpixx_1_1rrd__antlr4_1_1engine_1_1template_1_1IBaseTemplate.html#aed006de3401e84ff45301922a9ebd7f3" target="_top" xlink:title="creates a terminal ">
<polygon fill="none" stroke="black" points="428,-0 428,-28 606,-28 606,-0 428,-0"/>
<text text-anchor="start" x="436" y="-16.8" font-family="Helvetica,sans-Serif" font-size="9.00">de.flashpixx.rrd_antlr4.engine.template.</text>
<text text-anchor="middle" x="517" y="-6.8" font-family="Helvetica,sans-Serif" font-size="9.00">IBaseTemplate.terminal</text>
</a>
</g>
</g>
<!-- Node126&#45;&gt;Node134 -->
<g id="edge10" class="edge"><title>Node126&#45;&gt;Node134</title>
<path fill="none" stroke="midnightblue" d="M316.954,-132.667C337.666,-103.936 380.747,-55.5126 428,-29 428.552,-28.6901 429.109,-28.3839 429.67,-28.0816"/>
<polygon fill="midnightblue" stroke="midnightblue" points="314.067,-130.688 311.264,-140.905 319.827,-134.666 314.067,-130.688"/>
</g>
<!-- Node134&#45;&gt;Node126 -->
<g id="edge11" class="edge"><title>Node134&#45;&gt;Node126</title>
<path fill="none" stroke="midnightblue" d="M469.449,-30.7692C455.558,-34.7961 440.669,-39.8918 428,-47 383.086,-72.2001 341.942,-117.195 320.192,-140.608"/>
<polygon fill="midnightblue" stroke="midnightblue" points="470.649,-34.0685 479.342,-28.0125 468.77,-27.3254 470.649,-34.0685"/>
</g>
</g>
</svg>
