<?xml version="1.0" encoding="UTF-8" standalone="no"?>
<!DOCTYPE svg PUBLIC "-//W3C//DTD SVG 1.1//EN"
 "http://www.w3.org/Graphics/SVG/1.1/DTD/svg11.dtd">
<!-- Generated by graphviz version 2.36.0 (20140111.2315)
 -->
<!-- Title: de.flashpixx.rrd_antlr4.engine.template.IBaseTemplate.negation Pages: 1 -->
<svg width="614pt" height="412pt"
 viewBox="0.00 0.00 614.00 412.00" xmlns="http://www.w3.org/2000/svg" xmlns:xlink="http://www.w3.org/1999/xlink">
<g id="graph0" class="graph" transform="scale(1 1) rotate(0) translate(4 408)">
<title>de.flashpixx.rrd_antlr4.engine.template.IBaseTemplate.negation</title>
<!-- Node77 -->
<g id="node1" class="node"><title>Node77</title>
<polygon fill="#bfbfbf" stroke="black" points="0,-83 0,-111 178,-111 178,-83 0,-83"/>
<text text-anchor="start" x="8" y="-99.8" font-family="Helvetica,sans-Serif" font-size="9.00">de.flashpixx.rrd_antlr4.engine.template.</text>
<text text-anchor="middle" x="89" y="-89.8" font-family="Helvetica,sans-Serif" font-size="9.00">IBaseTemplate.negation</text>
</g>
<!-- Node78 -->
<g id="node2" class="node"><title>Node78</title>
<g id="a_node2"><a xlink:href="../../d5/dcc/classde_1_1flashpixx_1_1rrd__antlr4_1_1engine_1_1template_1_1IBaseTemplate.html#aba059762f4ecba4c0fa04758165dbf11" target="_top" xlink:title="calls the sub routines to format the lement ">
<polygon fill="none" stroke="black" points="214,-117 214,-145 392,-145 392,-117 214,-117"/>
<text text-anchor="start" x="222" y="-133.8" font-family="Helvetica,sans-Serif" font-size="9.00">de.flashpixx.rrd_antlr4.engine.template.</text>
<text text-anchor="middle" x="303" y="-123.8" font-family="Helvetica,sans-Serif" font-size="9.00">IBaseTemplate.map</text>
</a>
</g>
</g>
<!-- Node77&#45;&gt;Node78 -->
<g id="edge1" class="edge"><title>Node77&#45;&gt;Node78</title>
<path fill="none" stroke="midnightblue" d="M187.526,-112.641C196.491,-114.079 205.537,-115.53 214.406,-116.952"/>
<polygon fill="midnightblue" stroke="midnightblue" points="187.881,-109.153 177.452,-111.025 186.772,-116.065 187.881,-109.153"/>
</g>
<!-- Node87 -->
<g id="node11" class="node"><title>Node87</title>
<g id="a_node11"><a xlink:href="../../d5/dcc/classde_1_1flashpixx_1_1rrd__antlr4_1_1engine_1_1template_1_1IBaseTemplate.html#aed006de3401e84ff45301922a9ebd7f3" target="_top" xlink:title="creates a terminal ">
<polygon fill="none" stroke="black" points="428,-0 428,-28 606,-28 606,-0 428,-0"/>
<text text-anchor="start" x="436" y="-16.8" font-family="Helvetica,sans-Serif" font-size="9.00">de.flashpixx.rrd_antlr4.engine.template.</text>
<text text-anchor="middle" x="517" y="-6.8" font-family="Helvetica,sans-Serif" font-size="9.00">IBaseTemplate.terminal</text>
</a>
</g>
</g>
<!-- Node77&#45;&gt;Node87 -->
<g id="edge13" class="edge"><title>Node77&#45;&gt;Node87</title>
<path fill="none" stroke="midnightblue" d="M172.16,-80.9922C251,-65.6315 368.877,-42.6649 444.093,-28.0101"/>
<polygon fill="midnightblue" stroke="midnightblue" points="171.411,-77.5723 162.265,-82.9202 172.75,-84.4431 171.411,-77.5723"/>
</g>
<!-- Node79 -->
<g id="node3" class="node"><title>Node79</title>
<g id="a_node3"><a xlink:href="../../df/db0/classde_1_1flashpixx_1_1rrd__antlr4_1_1engine_1_1template_1_1CHTML.html#a78b97b93b551354bf558d71e8e842778" target="_top" xlink:title="de.flashpixx.rrd_antlr4.engine.template.\lCHTML.choice">
<polygon fill="none" stroke="black" points="428,-376 428,-404 606,-404 606,-376 428,-376"/>
<text text-anchor="start" x="436" y="-392.8" font-family="Helvetica,sans-Serif" font-size="9.00">de.flashpixx.rrd_antlr4.engine.template.</text>
<text text-anchor="middle" x="517" y="-382.8" font-family="Helvetica,sans-Serif" font-size="9.00">CHTML.choice</text>
</a>
</g>
</g>
<!-- Node78&#45;&gt;Node79 -->
<g id="edge2" class="edge"><title>Node78&#45;&gt;Node79</title>
<path fill="none" stroke="midnightblue" d="M309.765,-154.914C322.521,-202.579 357.731,-309.667 428,-366 432.819,-369.863 438.212,-373.106 443.892,-375.828"/>
<polygon fill="midnightblue" stroke="midnightblue" points="313.138,-153.976 307.251,-145.167 306.36,-155.724 313.138,-153.976"/>
</g>
<!-- Node80 -->
<g id="node4" class="node"><title>Node80</title>
<g id="a_node4"><a xlink:href="../../da/d63/classde_1_1flashpixx_1_1rrd__antlr4_1_1engine_1_1template_1_1CLaTeXSyntax.html#a7f1b2a77fcff93135d1dab1a98e0eab0" target="_top" xlink:title="is called if any grammar element is completed ">
<polygon fill="none" stroke="black" points="428,-329 428,-357 606,-357 606,-329 428,-329"/>
<text text-anchor="start" x="436" y="-345.8" font-family="Helvetica,sans-Serif" font-size="9.00">de.flashpixx.rrd_antlr4.engine.template.</text>
<text text-anchor="middle" x="517" y="-335.8" font-family="Helvetica,sans-Serif" font-size="9.00">CLaTeXSyntax.element</text>
</a>
</g>
</g>
<!-- Node78&#45;&gt;Node80 -->
<g id="edge3" class="edge"><title>Node78&#45;&gt;Node80</title>
<path fill="none" stroke="midnightblue" d="M312.967,-154.539C329.452,-194.592 368.435,-275.845 428,-319 433.386,-322.902 439.373,-326.17 445.62,-328.906"/>
<polygon fill="midnightblue" stroke="midnightblue" points="316.141,-153.051 309.175,-145.068 309.643,-155.653 316.141,-153.051"/>
</g>
<!-- Node81 -->
<g id="node5" class="node"><title>Node81</title>
<g id="a_node5"><a xlink:href="../../df/db0/classde_1_1flashpixx_1_1rrd__antlr4_1_1engine_1_1template_1_1CHTML.html#a4a9260119c44dc505e7d8269f408bb4a" target="_top" xlink:title="is called if any grammar element is completed ">
<polygon fill="none" stroke="black" points="428,-282 428,-310 606,-310 606,-282 428,-282"/>
<text text-anchor="start" x="436" y="-298.8" font-family="Helvetica,sans-Serif" font-size="9.00">de.flashpixx.rrd_antlr4.engine.template.</text>
<text text-anchor="middle" x="517" y="-288.8" font-family="Helvetica,sans-Serif" font-size="9.00">CHTML.element</text>
</a>
</g>
</g>
<!-- Node78&#45;&gt;Node81 -->
<g id="edge4" class="edge"><title>Node78&#45;&gt;Node81</title>
<path fill="none" stroke="midnightblue" d="M317.676,-153.531C337.874,-184.867 378.663,-241.216 428,-272 434.18,-275.856 440.98,-279.101 447.979,-281.831"/>
<polygon fill="midnightblue" stroke="midnightblue" points="320.607,-151.618 312.309,-145.032 314.689,-155.356 320.607,-151.618"/>
</g>
<!-- Node82 -->
<g id="node6" class="node"><title>Node82</title>
<g id="a_node6"><a xlink:href="../../da/d63/classde_1_1flashpixx_1_1rrd__antlr4_1_1engine_1_1template_1_1CLaTeXSyntax.html#a42c60e6e62f33c5775b5518415295848" target="_top" xlink:title="de.flashpixx.rrd_antlr4.engine.template.\lCLaTeXSyntax.group">
<polygon fill="none" stroke="black" points="428,-235 428,-263 606,-263 606,-235 428,-235"/>
<text text-anchor="start" x="436" y="-251.8" font-family="Helvetica,sans-Serif" font-size="9.00">de.flashpixx.rrd_antlr4.engine.template.</text>
<text text-anchor="middle" x="517" y="-241.8" font-family="Helvetica,sans-Serif" font-size="9.00">CLaTeXSyntax.group</text>
</a>
</g>
</g>
<!-- Node78&#45;&gt;Node82 -->
<g id="edge5" class="edge"><title>Node78&#45;&gt;Node82</title>
<path fill="none" stroke="midnightblue" d="M326.427,-152.285C349.987,-173.558 388.975,-205.789 428,-225 435.814,-228.847 444.333,-232.148 452.892,-234.962"/>
<polygon fill="midnightblue" stroke="midnightblue" points="328.498,-149.435 318.762,-145.257 323.767,-154.595 328.498,-149.435"/>
</g>
<!-- Node83 -->
<g id="node7" class="node"><title>Node83</title>
<g id="a_node7"><a xlink:href="../../df/db0/classde_1_1flashpixx_1_1rrd__antlr4_1_1engine_1_1template_1_1CHTML.html#a5386e78d33f56f39bda5e51841c5ca79" target="_top" xlink:title="de.flashpixx.rrd_antlr4.engine.template.\lCHTML.group">
<polygon fill="none" stroke="black" points="428,-188 428,-216 606,-216 606,-188 428,-188"/>
<text text-anchor="start" x="436" y="-204.8" font-family="Helvetica,sans-Serif" font-size="9.00">de.flashpixx.rrd_antlr4.engine.template.</text>
<text text-anchor="middle" x="517" y="-194.8" font-family="Helvetica,sans-Serif" font-size="9.00">CHTML.group</text>
</a>
</g>
</g>
<!-- Node78&#45;&gt;Node83 -->
<g id="edge6" class="edge"><title>Node78&#45;&gt;Node83</title>
<path fill="none" stroke="midnightblue" d="M347.797,-148.777C371.37,-158.046 401.059,-169.243 428,-178 438.693,-181.476 450.223,-184.869 461.304,-187.96"/>
<polygon fill="midnightblue" stroke="midnightblue" points="349.012,-145.494 338.426,-145.068 346.436,-152.003 349.012,-145.494"/>
</g>
<!-- Node84 -->
<g id="node8" class="node"><title>Node84</title>
<g id="a_node8"><a xlink:href="../../da/d63/classde_1_1flashpixx_1_1rrd__antlr4_1_1engine_1_1template_1_1CLaTeXSyntax.html#acc257f441259efa9986735bd21ae76ec" target="_top" xlink:title="de.flashpixx.rrd_antlr4.engine.template.\lCLaTeXSyntax.negation">
<polygon fill="none" stroke="black" points="428,-141 428,-169 606,-169 606,-141 428,-141"/>
<text text-anchor="start" x="436" y="-157.8" font-family="Helvetica,sans-Serif" font-size="9.00">de.flashpixx.rrd_antlr4.engine.template.</text>
<text text-anchor="middle" x="517" y="-147.8" font-family="Helvetica,sans-Serif" font-size="9.00">CLaTeXSyntax.negation</text>
</a>
</g>
</g>
<!-- Node78&#45;&gt;Node84 -->
<g id="edge7" class="edge"><title>Node78&#45;&gt;Node84</title>
<path fill="none" stroke="midnightblue" d="M402.107,-142.106C410.7,-143.079 419.363,-144.06 427.868,-145.023"/>
<polygon fill="midnightblue" stroke="midnightblue" points="402.396,-138.617 392.065,-140.97 401.608,-145.572 402.396,-138.617"/>
</g>
<!-- Node85 -->
<g id="node9" class="node"><title>Node85</title>
<g id="a_node9"><a xlink:href="../../df/db0/classde_1_1flashpixx_1_1rrd__antlr4_1_1engine_1_1template_1_1CHTML.html#ad38ec163952e6855c783251da5c0c618" target="_top" xlink:title="de.flashpixx.rrd_antlr4.engine.template.\lCHTML.negation">
<polygon fill="none" stroke="black" points="428,-94 428,-122 606,-122 606,-94 428,-94"/>
<text text-anchor="start" x="436" y="-110.8" font-family="Helvetica,sans-Serif" font-size="9.00">de.flashpixx.rrd_antlr4.engine.template.</text>
<text text-anchor="middle" x="517" y="-100.8" font-family="Helvetica,sans-Serif" font-size="9.00">CHTML.negation</text>
</a>
</g>
</g>
<!-- Node78&#45;&gt;Node85 -->
<g id="edge8" class="edge"><title>Node78&#45;&gt;Node85</title>
<path fill="none" stroke="midnightblue" d="M402.107,-120.356C410.7,-119.424 419.363,-118.484 427.868,-117.562"/>
<polygon fill="midnightblue" stroke="midnightblue" points="401.629,-116.887 392.065,-121.446 402.385,-123.847 401.629,-116.887"/>
</g>
<!-- Node86 -->
<g id="node10" class="node"><title>Node86</title>
<g id="a_node10"><a xlink:href="../../d5/dcc/classde_1_1flashpixx_1_1rrd__antlr4_1_1engine_1_1template_1_1IBaseTemplate.html#a644daf65240deb390d1b3b8715491f13" target="_top" xlink:title="creates a rule ">
<polygon fill="none" stroke="black" points="428,-47 428,-75 606,-75 606,-47 428,-47"/>
<text text-anchor="start" x="436" y="-63.8" font-family="Helvetica,sans-Serif" font-size="9.00">de.flashpixx.rrd_antlr4.engine.template.</text>
<text text-anchor="middle" x="517" y="-53.8" font-family="Helvetica,sans-Serif" font-size="9.00">IBaseTemplate.rule</text>
</a>
</g>
</g>
<!-- Node78&#45;&gt;Node86 -->
<g id="edge9" class="edge"><title>Node78&#45;&gt;Node86</title>
<path fill="none" stroke="midnightblue" d="M332.828,-112.321C357.798,-100.693 394.997,-86.5986 428,-76 428.905,-75.7095 429.815,-75.4194 430.731,-75.13"/>
<polygon fill="midnightblue" stroke="midnightblue" points="331.042,-109.297 323.569,-116.807 334.095,-115.596 331.042,-109.297"/>
</g>
<!-- Node78&#45;&gt;Node87 -->
<g id="edge11" class="edge"><title>Node78&#45;&gt;Node87</title>
<path fill="none" stroke="midnightblue" d="M327.93,-111.417C346.362,-99.7925 371.992,-84.6549 392,-68 410.239,-52.8181 407.613,-40.6281 427.525,-28.2914"/>
<polygon fill="midnightblue" stroke="midnightblue" points="326.03,-108.478 319.515,-116.833 329.819,-114.364 326.03,-108.478"/>
</g>
<!-- Node86&#45;&gt;Node78 -->
<g id="edge10" class="edge"><title>Node86&#45;&gt;Node78</title>
<path fill="none" stroke="midnightblue" d="M480.443,-78.1437C464.333,-83.1685 445.106,-88.5066 428,-94 406.029,-101.056 382.198,-109.661 361.354,-116.967"/>
<polygon fill="midnightblue" stroke="midnightblue" points="481.578,-81.4551 490.023,-75.0569 479.431,-74.7924 481.578,-81.4551"/>
</g>
<!-- Node87&#45;&gt;Node78 -->
<g id="edge12" class="edge"><title>Node87&#45;&gt;Node78</title>
<path fill="none" stroke="midnightblue" d="M464.66,-30.7969C452.084,-34.4804 439.069,-39.262 428,-46 407.57,-58.4364 410.382,-70.6985 392,-86 378.086,-97.5823 361.453,-108.431 346.413,-116.769"/>
<polygon fill="midnightblue" stroke="midnightblue" points="465.892,-34.0881 474.606,-28.0618 464.036,-27.3386 465.892,-34.0881"/>
</g>
</g>
</svg>
