<?xml version="1.0" encoding="UTF-8" standalone="no"?>
<!DOCTYPE svg PUBLIC "-//W3C//DTD SVG 1.1//EN"
 "http://www.w3.org/Graphics/SVG/1.1/DTD/svg11.dtd">
<!-- Generated by graphviz version 2.36.0 (20140111.2315)
 -->
<!-- Title: de.flashpixx.rrd_antlr4.engine.template.IBaseTemplate.terminal Pages: 1 -->
<svg width="828pt" height="369pt"
 viewBox="0.00 0.00 828.00 369.00" xmlns="http://www.w3.org/2000/svg" xmlns:xlink="http://www.w3.org/1999/xlink">
<g id="graph0" class="graph" transform="scale(1 1) rotate(0) translate(4 365)">
<title>de.flashpixx.rrd_antlr4.engine.template.IBaseTemplate.terminal</title>
<!-- Node147 -->
<g id="node1" class="node"><title>Node147</title>
<polygon fill="#bfbfbf" stroke="black" points="0,-171 0,-199 178,-199 178,-171 0,-171"/>
<text text-anchor="start" x="8" y="-187.8" font-family="Helvetica,sans-Serif" font-size="9.00">de.flashpixx.rrd_antlr4.engine.template.</text>
<text text-anchor="middle" x="89" y="-177.8" font-family="Helvetica,sans-Serif" font-size="9.00">IBaseTemplate.terminal</text>
</g>
<!-- Node148 -->
<g id="node2" class="node"><title>Node148</title>
<g id="a_node2"><a xlink:href="../../da/d3c/interfacede_1_1flashpixx_1_1rrd__antlr4_1_1antlr_1_1IGrammarTerminal.html#a5335c08fcf626be523cb17e1e50d131a" target="_top" xlink:title="terminal alternatives ">
<polygon fill="none" stroke="black" points="238,-257 238,-285 368,-285 368,-257 238,-257"/>
<text text-anchor="start" x="246" y="-273.8" font-family="Helvetica,sans-Serif" font-size="9.00">de.flashpixx.rrd_antlr4.antlr.</text>
<text text-anchor="middle" x="303" y="-263.8" font-family="Helvetica,sans-Serif" font-size="9.00">IGrammarTerminal.children</text>
</a>
</g>
</g>
<!-- Node147&#45;&gt;Node148 -->
<g id="edge1" class="edge"><title>Node147&#45;&gt;Node148</title>
<path fill="none" stroke="midnightblue" d="M118.172,-199.054C143.053,-211.198 180.484,-228.822 214,-242 224.316,-246.056 235.454,-250.029 246.224,-253.671"/>
<polygon fill="midnightblue" stroke="midnightblue" points="245.384,-257.08 255.977,-256.915 247.593,-250.438 245.384,-257.08"/>
</g>
<!-- Node149 -->
<g id="node3" class="node"><title>Node149</title>
<g id="a_node3"><a xlink:href="../../d5/dcc/classde_1_1flashpixx_1_1rrd__antlr4_1_1engine_1_1template_1_1IBaseTemplate.html#aba059762f4ecba4c0fa04758165dbf11" target="_top" xlink:title="calls the sub routines to format the lement ">
<polygon fill="none" stroke="black" points="214,-171 214,-199 392,-199 392,-171 214,-171"/>
<text text-anchor="start" x="222" y="-187.8" font-family="Helvetica,sans-Serif" font-size="9.00">de.flashpixx.rrd_antlr4.engine.template.</text>
<text text-anchor="middle" x="303" y="-177.8" font-family="Helvetica,sans-Serif" font-size="9.00">IBaseTemplate.map</text>
</a>
</g>
</g>
<!-- Node147&#45;&gt;Node149 -->
<g id="edge2" class="edge"><title>Node147&#45;&gt;Node149</title>
<path fill="none" stroke="midnightblue" d="M178.065,-178.337C186.569,-178.254 195.232,-178.23 203.825,-178.266"/>
<polygon fill="midnightblue" stroke="midnightblue" points="203.844,-181.766 213.868,-178.336 203.892,-174.767 203.844,-181.766"/>
</g>
<!-- Node154 -->
<g id="node8" class="node"><title>Node154</title>
<g id="a_node8"><a xlink:href="../../d5/dcc/classde_1_1flashpixx_1_1rrd__antlr4_1_1engine_1_1template_1_1IBaseTemplate.html#aad62be40b5226177829c66f72e638569" target="_top" xlink:title="creates a negation structure ">
<polygon fill="none" stroke="black" points="428,-333 428,-361 606,-361 606,-333 428,-333"/>
<text text-anchor="start" x="436" y="-349.8" font-family="Helvetica,sans-Serif" font-size="9.00">de.flashpixx.rrd_antlr4.engine.template.</text>
<text text-anchor="middle" x="517" y="-339.8" font-family="Helvetica,sans-Serif" font-size="9.00">IBaseTemplate.negation</text>
</a>
</g>
</g>
<!-- Node147&#45;&gt;Node154 -->
<g id="edge20" class="edge"><title>Node147&#45;&gt;Node154</title>
<path fill="none" stroke="midnightblue" d="M165.799,-199.028C252.156,-215.239 382.631,-240.522 392,-247 416.645,-264.041 405.692,-283.996 428,-304 439.212,-314.054 453.198,-322.298 466.697,-328.781"/>
<polygon fill="midnightblue" stroke="midnightblue" points="465.374,-332.024 475.925,-332.988 468.278,-325.655 465.374,-332.024"/>
</g>
<!-- Node155 -->
<g id="node9" class="node"><title>Node155</title>
<g id="a_node9"><a xlink:href="../../d5/dcc/classde_1_1flashpixx_1_1rrd__antlr4_1_1engine_1_1template_1_1IBaseTemplate.html#a2197fdee7c3dfb376324cf4682029b59" target="_top" xlink:title="creates a non&#45;terminal ">
<polygon fill="none" stroke="black" points="428,-0 428,-28 606,-28 606,-0 428,-0"/>
<text text-anchor="start" x="436" y="-16.8" font-family="Helvetica,sans-Serif" font-size="9.00">de.flashpixx.rrd_antlr4.engine.template.</text>
<text text-anchor="middle" x="517" y="-6.8" font-family="Helvetica,sans-Serif" font-size="9.00">IBaseTemplate.nonterminal</text>
</a>
</g>
</g>
<!-- Node147&#45;&gt;Node155 -->
<g id="edge21" class="edge"><title>Node147&#45;&gt;Node155</title>
<path fill="none" stroke="midnightblue" d="M117.887,-170.992C174.961,-142.728 309.692,-78.0771 428,-37 434.214,-34.8425 440.736,-32.7781 447.301,-30.8337"/>
<polygon fill="midnightblue" stroke="midnightblue" points="448.272,-34.1962 456.919,-28.0738 446.341,-27.4677 448.272,-34.1962"/>
</g>
<!-- Node149&#45;&gt;Node147 -->
<g id="edge18" class="edge"><title>Node149&#45;&gt;Node147</title>
<path fill="none" stroke="midnightblue" d="M213.868,-191.664C205.363,-191.747 196.7,-191.77 188.107,-191.733"/>
<polygon fill="midnightblue" stroke="midnightblue" points="188.09,-188.233 178.065,-191.663 188.041,-195.233 188.09,-188.233"/>
</g>
<!-- Node150 -->
<g id="node4" class="node"><title>Node150</title>
<g id="a_node4"><a xlink:href="../../dd/da7/interfacede_1_1flashpixx_1_1rrd__antlr4_1_1antlr_1_1IGrammarElement.html#ad38b129b0ef008046ccfe6eeae9cf0fe" target="_top" xlink:title="returns the cardinality ">
<polygon fill="none" stroke="black" points="449.5,-47 449.5,-75 584.5,-75 584.5,-47 449.5,-47"/>
<text text-anchor="start" x="457.5" y="-63.8" font-family="Helvetica,sans-Serif" font-size="9.00">de.flashpixx.rrd_antlr4.antlr.</text>
<text text-anchor="middle" x="517" y="-53.8" font-family="Helvetica,sans-Serif" font-size="9.00">IGrammarElement.cardinality</text>
</a>
</g>
</g>
<!-- Node149&#45;&gt;Node150 -->
<g id="edge3" class="edge"><title>Node149&#45;&gt;Node150</title>
<path fill="none" stroke="midnightblue" d="M318.885,-170.882C341.069,-150.506 384.838,-112.803 428,-90 436.147,-85.6958 445.054,-81.8658 453.973,-78.5133"/>
<polygon fill="midnightblue" stroke="midnightblue" points="455.383,-81.7262 463.621,-75.0631 453.026,-75.1351 455.383,-81.7262"/>
</g>
<!-- Node151 -->
<g id="node5" class="node"><title>Node151</title>
<g id="a_node5"><a xlink:href="../../d5/dcc/classde_1_1flashpixx_1_1rrd__antlr4_1_1engine_1_1template_1_1IBaseTemplate.html#a1f104e1a0c40d1716200169010c13ed5" target="_top" xlink:title="sets the cardinality ">
<polygon fill="none" stroke="black" points="642,-261 642,-289 820,-289 820,-261 642,-261"/>
<text text-anchor="start" x="650" y="-277.8" font-family="Helvetica,sans-Serif" font-size="9.00">de.flashpixx.rrd_antlr4.engine.template.</text>
<text text-anchor="middle" x="731" y="-267.8" font-family="Helvetica,sans-Serif" font-size="9.00">IBaseTemplate.cardinality</text>
</a>
</g>
</g>
<!-- Node149&#45;&gt;Node151 -->
<g id="edge4" class="edge"><title>Node149&#45;&gt;Node151</title>
<path fill="none" stroke="midnightblue" d="M349.527,-199.044C363.276,-203.542 378.343,-208.73 392,-214 408.335,-220.303 411.188,-225.11 428,-230 494.521,-249.35 571.829,-260.671 631.574,-267.118"/>
<polygon fill="midnightblue" stroke="midnightblue" points="631.45,-270.624 641.762,-268.188 632.182,-263.662 631.45,-270.624"/>
</g>
<!-- Node152 -->
<g id="node6" class="node"><title>Node152</title>
<g id="a_node6"><a xlink:href="../../d5/dcc/classde_1_1flashpixx_1_1rrd__antlr4_1_1engine_1_1template_1_1IBaseTemplate.html#a835ed841a393331edd830c5ed9b1c62d" target="_top" xlink:title="creates a grammar choice ">
<polygon fill="none" stroke="black" points="642,-214 642,-242 820,-242 820,-214 642,-214"/>
<text text-anchor="start" x="650" y="-230.8" font-family="Helvetica,sans-Serif" font-size="9.00">de.flashpixx.rrd_antlr4.engine.template.</text>
<text text-anchor="middle" x="731" y="-220.8" font-family="Helvetica,sans-Serif" font-size="9.00">IBaseTemplate.choice</text>
</a>
</g>
</g>
<!-- Node149&#45;&gt;Node152 -->
<g id="edge5" class="edge"><title>Node149&#45;&gt;Node152</title>
<path fill="none" stroke="midnightblue" d="M371.673,-199.037C389.894,-202.409 409.643,-205.698 428,-208 495.768,-216.499 572.574,-221.524 631.77,-224.411"/>
<polygon fill="midnightblue" stroke="midnightblue" points="631.706,-227.912 641.861,-224.891 632.039,-220.919 631.706,-227.912"/>
</g>
<!-- Node153 -->
<g id="node7" class="node"><title>Node153</title>
<g id="a_node7"><a xlink:href="../../d5/dcc/classde_1_1flashpixx_1_1rrd__antlr4_1_1engine_1_1template_1_1IBaseTemplate.html#a68821bc9abb712354d06330676499b0d" target="_top" xlink:title="crates a grammer group ">
<polygon fill="none" stroke="black" points="642,-120 642,-148 820,-148 820,-120 642,-120"/>
<text text-anchor="start" x="650" y="-136.8" font-family="Helvetica,sans-Serif" font-size="9.00">de.flashpixx.rrd_antlr4.engine.template.</text>
<text text-anchor="middle" x="731" y="-126.8" font-family="Helvetica,sans-Serif" font-size="9.00">IBaseTemplate.group</text>
</a>
</g>
</g>
<!-- Node149&#45;&gt;Node153 -->
<g id="edge6" class="edge"><title>Node149&#45;&gt;Node153</title>
<path fill="none" stroke="midnightblue" d="M369.752,-170.979C388.504,-167.333 409.002,-163.681 428,-161 495.75,-151.44 572.556,-144.628 631.757,-140.237"/>
<polygon fill="midnightblue" stroke="midnightblue" points="632.131,-143.719 641.849,-139.499 631.621,-136.738 632.131,-143.719"/>
</g>
<!-- Node149&#45;&gt;Node154 -->
<g id="edge7" class="edge"><title>Node149&#45;&gt;Node154</title>
<path fill="none" stroke="midnightblue" d="M369.904,-199.076C378.041,-202.911 385.698,-207.791 392,-214 426.844,-248.328 393.156,-283.672 428,-318 431.939,-321.881 436.407,-325.242 441.191,-328.154"/>
<polygon fill="midnightblue" stroke="midnightblue" points="439.628,-331.287 450.096,-332.924 442.934,-325.117 439.628,-331.287"/>
</g>
<!-- Node149&#45;&gt;Node155 -->
<g id="edge8" class="edge"><title>Node149&#45;&gt;Node155</title>
<path fill="none" stroke="midnightblue" d="M318.869,-170.914C337.088,-153.3 368.436,-121.825 392,-92 410.112,-69.0764 404.281,-54.0567 428,-37 430.131,-35.4673 432.357,-34.0367 434.656,-32.7013"/>
<polygon fill="midnightblue" stroke="midnightblue" points="436.527,-35.6756 443.84,-28.0087 433.342,-29.4422 436.527,-35.6756"/>
</g>
<!-- Node156 -->
<g id="node10" class="node"><title>Node156</title>
<g id="a_node10"><a xlink:href="../../d5/dcc/classde_1_1flashpixx_1_1rrd__antlr4_1_1engine_1_1template_1_1IBaseTemplate.html#a644daf65240deb390d1b3b8715491f13" target="_top" xlink:title="creates a rule ">
<polygon fill="none" stroke="black" points="428,-171 428,-199 606,-199 606,-171 428,-171"/>
<text text-anchor="start" x="436" y="-187.8" font-family="Helvetica,sans-Serif" font-size="9.00">de.flashpixx.rrd_antlr4.engine.template.</text>
<text text-anchor="middle" x="517" y="-177.8" font-family="Helvetica,sans-Serif" font-size="9.00">IBaseTemplate.rule</text>
</a>
</g>
</g>
<!-- Node149&#45;&gt;Node156 -->
<g id="edge9" class="edge"><title>Node149&#45;&gt;Node156</title>
<path fill="none" stroke="midnightblue" d="M392.065,-178.337C400.569,-178.254 409.232,-178.23 417.825,-178.266"/>
<polygon fill="midnightblue" stroke="midnightblue" points="417.844,-181.766 427.868,-178.336 417.892,-174.767 417.844,-181.766"/>
</g>
<!-- Node158 -->
<g id="node12" class="node"><title>Node158</title>
<g id="a_node12"><a xlink:href="../../d5/dcc/classde_1_1flashpixx_1_1rrd__antlr4_1_1engine_1_1template_1_1IBaseTemplate.html#ada35faeaaf5646a4818d934aac5a6103" target="_top" xlink:title="creates a grammar sequence ">
<polygon fill="none" stroke="black" points="642,-73 642,-101 820,-101 820,-73 642,-73"/>
<text text-anchor="start" x="650" y="-89.8" font-family="Helvetica,sans-Serif" font-size="9.00">de.flashpixx.rrd_antlr4.engine.template.</text>
<text text-anchor="middle" x="731" y="-79.8" font-family="Helvetica,sans-Serif" font-size="9.00">IBaseTemplate.sequence</text>
</a>
</g>
</g>
<!-- Node149&#45;&gt;Node158 -->
<g id="edge17" class="edge"><title>Node149&#45;&gt;Node158</title>
<path fill="none" stroke="midnightblue" d="M336.878,-170.905C361.562,-160.792 396.404,-147.502 428,-139 495.02,-120.965 572.157,-107.808 631.697,-99.2399"/>
<polygon fill="midnightblue" stroke="midnightblue" points="632.439,-102.67 641.848,-97.799 631.456,-95.7392 632.439,-102.67"/>
</g>
<!-- Node159 -->
<g id="node13" class="node"><title>Node159</title>
<g id="a_node13"><a xlink:href="../../d5/dcc/classde_1_1flashpixx_1_1rrd__antlr4_1_1engine_1_1template_1_1IBaseTemplate.html#af9d688420b32b00be68a53432053dda2" target="_top" xlink:title="creates a terminal ">
<polygon fill="none" stroke="black" points="642,-308 642,-336 820,-336 820,-308 642,-308"/>
<text text-anchor="start" x="650" y="-324.8" font-family="Helvetica,sans-Serif" font-size="9.00">de.flashpixx.rrd_antlr4.engine.template.</text>
<text text-anchor="middle" x="731" y="-314.8" font-family="Helvetica,sans-Serif" font-size="9.00">IBaseTemplate.terminalvalue</text>
</a>
</g>
</g>
<!-- Node149&#45;&gt;Node159 -->
<g id="edge19" class="edge"><title>Node149&#45;&gt;Node159</title>
<path fill="none" stroke="midnightblue" d="M363.679,-199.155C373.654,-203.029 383.507,-207.901 392,-214 413.66,-229.555 405.431,-247.796 428,-262 488.855,-300.298 569.137,-314.915 631.629,-320.163"/>
<polygon fill="midnightblue" stroke="midnightblue" points="631.654,-323.675 641.894,-320.955 632.192,-316.696 631.654,-323.675"/>
</g>
<!-- Node156&#45;&gt;Node149 -->
<g id="edge14" class="edge"><title>Node156&#45;&gt;Node149</title>
<path fill="none" stroke="midnightblue" d="M427.868,-191.664C419.363,-191.747 410.7,-191.77 402.107,-191.733"/>
<polygon fill="midnightblue" stroke="midnightblue" points="402.09,-188.233 392.065,-191.663 402.041,-195.233 402.09,-188.233"/>
</g>
<!-- Node156&#45;&gt;Node151 -->
<g id="edge10" class="edge"><title>Node156&#45;&gt;Node151</title>
<path fill="none" stroke="midnightblue" d="M541.024,-199.268C565.376,-213.871 605.277,-236.431 642,-251 648.231,-253.472 654.807,-255.782 661.443,-257.917"/>
<polygon fill="midnightblue" stroke="midnightblue" points="660.59,-261.317 671.178,-260.918 662.652,-254.628 660.59,-261.317"/>
</g>
<!-- Node156&#45;&gt;Node152 -->
<g id="edge12" class="edge"><title>Node156&#45;&gt;Node152</title>
<path fill="none" stroke="midnightblue" d="M587.123,-199.02C607.568,-203.167 630.104,-207.738 651.116,-212"/>
<polygon fill="midnightblue" stroke="midnightblue" points="650.474,-215.441 660.971,-213.999 651.866,-208.581 650.474,-215.441"/>
</g>
<!-- Node156&#45;&gt;Node153 -->
<g id="edge13" class="edge"><title>Node156&#45;&gt;Node153</title>
<path fill="none" stroke="midnightblue" d="M576.21,-170.997C602.63,-164.641 634.059,-157.08 661.598,-150.455"/>
<polygon fill="midnightblue" stroke="midnightblue" points="662.648,-153.803 671.552,-148.061 661.01,-146.997 662.648,-153.803"/>
</g>
<!-- Node157 -->
<g id="node11" class="node"><title>Node157</title>
<g id="a_node11"><a xlink:href="../../d3/d53/interfacede_1_1flashpixx_1_1rrd__antlr4_1_1antlr_1_1IGrammarRule.html#aeea0d2d97829ead065e371fad38a54c9" target="_top" xlink:title="returns child element ">
<polygon fill="none" stroke="black" points="666,-167 666,-195 796,-195 796,-167 666,-167"/>
<text text-anchor="start" x="674" y="-183.8" font-family="Helvetica,sans-Serif" font-size="9.00">de.flashpixx.rrd_antlr4.antlr.</text>
<text text-anchor="middle" x="731" y="-173.8" font-family="Helvetica,sans-Serif" font-size="9.00">IGrammarRule.children</text>
</a>
</g>
</g>
<!-- Node156&#45;&gt;Node157 -->
<g id="edge11" class="edge"><title>Node156&#45;&gt;Node157</title>
<path fill="none" stroke="midnightblue" d="M606.065,-183.338C622.49,-183.028 639.506,-182.707 655.474,-182.406"/>
<polygon fill="midnightblue" stroke="midnightblue" points="655.868,-185.899 665.8,-182.211 655.735,-178.901 655.868,-185.899"/>
</g>
<!-- Node156&#45;&gt;Node158 -->
<g id="edge15" class="edge"><title>Node156&#45;&gt;Node158</title>
<path fill="none" stroke="midnightblue" d="M537.241,-170.931C560.848,-154.259 602.602,-126.648 642,-110 647,-107.887 652.244,-105.927 657.576,-104.117"/>
<polygon fill="midnightblue" stroke="midnightblue" points="658.782,-107.406 667.236,-101.019 656.645,-100.74 658.782,-107.406"/>
</g>
<!-- Node156&#45;&gt;Node159 -->
<g id="edge16" class="edge"><title>Node156&#45;&gt;Node159</title>
<path fill="none" stroke="midnightblue" d="M529.442,-199.1C549.634,-223.045 594.016,-271.622 642,-298 646.202,-300.31 650.641,-302.409 655.203,-304.316"/>
<polygon fill="midnightblue" stroke="midnightblue" points="654.111,-307.645 664.701,-307.963 656.62,-301.111 654.111,-307.645"/>
</g>
</g>
</svg>
