<?xml version="1.0" encoding="UTF-8" standalone="no"?>
<!DOCTYPE svg PUBLIC "-//W3C//DTD SVG 1.1//EN"
 "http://www.w3.org/Graphics/SVG/1.1/DTD/svg11.dtd">
<!-- Generated by graphviz version 2.36.0 (20140111.2315)
 -->
<!-- Title: de.flashpixx.rrd_antlr4.engine.template.IBaseTemplate.rule Pages: 1 -->
<!--zoomable 396 -->
<svg id="main" version="1.1" xmlns="http://www.w3.org/2000/svg" xmlns:xlink="http://www.w3.org/1999/xlink" xml:space="preserve" onload="init(evt)">
<style type="text/css"><![CDATA[
.edge:hover path { stroke: red; }
.edge:hover polygon { stroke: red; fill: red; }
]]></style>
<script type="text/javascript"><![CDATA[
var edges = document.getElementsByTagName('g');
if (edges && edges.length) {
  for (var i=0;i<edges.length;i++) {
    if (edges[i].id.substr(0,4)=='edge') {
      edges[i].setAttribute('class','edge');
    }
  }
}
]]></script>
        <defs>
                <circle id="rim" cx="0" cy="0" r="7"/>
                <circle id="rim2" cx="0" cy="0" r="3.5"/>
                <g id="zoomPlus">
                        <use xlink:href="#rim" fill="#404040">
                                <set attributeName="fill" to="#808080" begin="zoomplus.mouseover" end="zoomplus.mouseout"/>
                        </use>
                        <path d="M-4,0h8M0,-4v8" fill="none" stroke="white" stroke-width="1.5" pointer-events="none"/>
                </g>
                <g id="zoomMin">
                        <use xlink:href="#rim" fill="#404040">
                                <set attributeName="fill" to="#808080" begin="zoomminus.mouseover" end="zoomminus.mouseout"/>
                        </use>
                        <path d="M-4,0h8" fill="none" stroke="white" stroke-width="1.5" pointer-events="none"/>
                </g>
                <g id="dirArrow">
                        <path fill="none" stroke="white" stroke-width="1.5" d="M0,-3.0v7 M-2.5,-0.5L0,-3.0L2.5,-0.5"/>
                </g>
               <g id="resetDef">
                       <use xlink:href="#rim2" fill="#404040">
                               <set attributeName="fill" to="#808080" begin="reset.mouseover" end="reset.mouseout"/>
                       </use>
               </g>
        </defs>

<script type="text/javascript">
var viewWidth = 828;
var viewHeight = 396;
var sectionId = 'dynsection-15';
</script>
<script xlink:href="../../svgpan.js"/>
<svg id="graph" class="graph">
<g id="viewport">
<title>de.flashpixx.rrd_antlr4.engine.template.IBaseTemplate.rule</title>
<!-- Node112 -->
<g id="node1" class="node"><title>Node112</title>
<polygon fill="#bfbfbf" stroke="black" points="0,-180 0,-208 178,-208 178,-180 0,-180"/>
<text text-anchor="start" x="8" y="-196.8" font-family="Helvetica,sans-Serif" font-size="9.00">de.flashpixx.rrd_antlr4.engine.template.</text>
<text text-anchor="middle" x="89" y="-186.8" font-family="Helvetica,sans-Serif" font-size="9.00">IBaseTemplate.rule</text>
</g>
<!-- Node113 -->
<g id="node2" class="node"><title>Node113</title>
<g id="a_node2"><a xlink:href="../../d5/dcc/classde_1_1flashpixx_1_1rrd__antlr4_1_1engine_1_1template_1_1IBaseTemplate.html#a1f104e1a0c40d1716200169010c13ed5" target="_top" xlink:title="sets the cardinality ">
<polygon fill="none" stroke="black" points="428,-360 428,-388 606,-388 606,-360 428,-360"/>
<text text-anchor="start" x="436" y="-376.8" font-family="Helvetica,sans-Serif" font-size="9.00">de.flashpixx.rrd_antlr4.engine.template.</text>
<text text-anchor="middle" x="517" y="-366.8" font-family="Helvetica,sans-Serif" font-size="9.00">IBaseTemplate.cardinality</text>
</a>
</g>
</g>
<!-- Node112&#45;&gt;Node113 -->
<g id="edge1" class="edge"><title>Node112&#45;&gt;Node113</title>
<path fill="none" stroke="midnightblue" d="M104.807,-208.166C126.894,-228.573 170.544,-266.181 214,-288 281.725,-322.004 364.947,-344.437 426.867,-357.839"/>
<polygon fill="midnightblue" stroke="midnightblue" points="426.495,-361.338 437.004,-359.994 427.95,-354.491 426.495,-361.338"/>
</g>
<!-- Node114 -->
<g id="node3" class="node"><title>Node114</title>
<g id="a_node3"><a xlink:href="../../d3/d53/interfacede_1_1flashpixx_1_1rrd__antlr4_1_1antlr_1_1IGrammarRule.html#aeea0d2d97829ead065e371fad38a54c9" target="_top" xlink:title="returns child element ">
<polygon fill="none" stroke="black" points="238,-56 238,-84 368,-84 368,-56 238,-56"/>
<text text-anchor="start" x="246" y="-72.8" font-family="Helvetica,sans-Serif" font-size="9.00">de.flashpixx.rrd_antlr4.antlr.</text>
<text text-anchor="middle" x="303" y="-62.8" font-family="Helvetica,sans-Serif" font-size="9.00">IGrammarRule.children</text>
</a>
</g>
</g>
<!-- Node112&#45;&gt;Node114 -->
<g id="edge2" class="edge"><title>Node112&#45;&gt;Node114</title>
<path fill="none" stroke="midnightblue" d="M104.885,-179.882C127.069,-159.506 170.838,-121.803 214,-99 222.147,-94.6958 231.054,-90.8658 239.973,-87.5133"/>
<polygon fill="midnightblue" stroke="midnightblue" points="241.383,-90.7262 249.621,-84.0631 239.026,-84.1351 241.383,-90.7262"/>
</g>
<!-- Node115 -->
<g id="node4" class="node"><title>Node115</title>
<g id="a_node4"><a xlink:href="../../d5/dcc/classde_1_1flashpixx_1_1rrd__antlr4_1_1engine_1_1template_1_1IBaseTemplate.html#a835ed841a393331edd830c5ed9b1c62d" target="_top" xlink:title="creates a grammar choice ">
<polygon fill="none" stroke="black" points="428,-313 428,-341 606,-341 606,-313 428,-313"/>
<text text-anchor="start" x="436" y="-329.8" font-family="Helvetica,sans-Serif" font-size="9.00">de.flashpixx.rrd_antlr4.engine.template.</text>
<text text-anchor="middle" x="517" y="-319.8" font-family="Helvetica,sans-Serif" font-size="9.00">IBaseTemplate.choice</text>
</a>
</g>
</g>
<!-- Node112&#45;&gt;Node115 -->
<g id="edge3" class="edge"><title>Node112&#45;&gt;Node115</title>
<path fill="none" stroke="midnightblue" d="M117.502,-208.099C142.261,-220.383 179.891,-238.053 214,-250 288.131,-275.967 375.3,-297.244 436.882,-310.8"/>
<polygon fill="midnightblue" stroke="midnightblue" points="436.406,-314.279 446.922,-312.992 437.899,-307.44 436.406,-314.279"/>
</g>
<!-- Node116 -->
<g id="node5" class="node"><title>Node116</title>
<g id="a_node5"><a xlink:href="../../d5/dcc/classde_1_1flashpixx_1_1rrd__antlr4_1_1engine_1_1template_1_1IBaseTemplate.html#a68821bc9abb712354d06330676499b0d" target="_top" xlink:title="crates a grammer group ">
<polygon fill="none" stroke="black" points="428,-266 428,-294 606,-294 606,-266 428,-266"/>
<text text-anchor="start" x="436" y="-282.8" font-family="Helvetica,sans-Serif" font-size="9.00">de.flashpixx.rrd_antlr4.engine.template.</text>
<text text-anchor="middle" x="517" y="-272.8" font-family="Helvetica,sans-Serif" font-size="9.00">IBaseTemplate.group</text>
</a>
</g>
</g>
<!-- Node112&#45;&gt;Node116 -->
<g id="edge4" class="edge"><title>Node112&#45;&gt;Node116</title>
<path fill="none" stroke="midnightblue" d="M159.392,-208.009C235.361,-223.345 356.948,-247.891 436.648,-263.981"/>
<polygon fill="midnightblue" stroke="midnightblue" points="436.142,-267.449 446.637,-265.997 437.528,-260.587 436.142,-267.449"/>
</g>
<!-- Node117 -->
<g id="node6" class="node"><title>Node117</title>
<g id="a_node6"><a xlink:href="../../d5/dcc/classde_1_1flashpixx_1_1rrd__antlr4_1_1engine_1_1template_1_1IBaseTemplate.html#aba059762f4ecba4c0fa04758165dbf11" target="_top" xlink:title="calls the sub routines to format the lement ">
<polygon fill="none" stroke="black" points="214,-180 214,-208 392,-208 392,-180 214,-180"/>
<text text-anchor="start" x="222" y="-196.8" font-family="Helvetica,sans-Serif" font-size="9.00">de.flashpixx.rrd_antlr4.engine.template.</text>
<text text-anchor="middle" x="303" y="-186.8" font-family="Helvetica,sans-Serif" font-size="9.00">IBaseTemplate.map</text>
</a>
</g>
</g>
<!-- Node112&#45;&gt;Node117 -->
<g id="edge5" class="edge"><title>Node112&#45;&gt;Node117</title>
<path fill="none" stroke="midnightblue" d="M178.065,-187.337C186.569,-187.254 195.232,-187.23 203.825,-187.266"/>
<polygon fill="midnightblue" stroke="midnightblue" points="203.844,-190.766 213.868,-187.336 203.892,-183.767 203.844,-190.766"/>
</g>
<!-- Node121 -->
<g id="node10" class="node"><title>Node121</title>
<g id="a_node10"><a xlink:href="../../d5/dcc/classde_1_1flashpixx_1_1rrd__antlr4_1_1engine_1_1template_1_1IBaseTemplate.html#ada35faeaaf5646a4818d934aac5a6103" target="_top" xlink:title="creates a grammar sequence ">
<polygon fill="none" stroke="black" points="428,-47 428,-75 606,-75 606,-47 428,-47"/>
<text text-anchor="start" x="436" y="-63.8" font-family="Helvetica,sans-Serif" font-size="9.00">de.flashpixx.rrd_antlr4.engine.template.</text>
<text text-anchor="middle" x="517" y="-53.8" font-family="Helvetica,sans-Serif" font-size="9.00">IBaseTemplate.sequence</text>
</a>
</g>
</g>
<!-- Node112&#45;&gt;Node121 -->
<g id="edge20" class="edge"><title>Node112&#45;&gt;Node121</title>
<path fill="none" stroke="midnightblue" d="M158.554,-179.954C244.522,-162.17 381.96,-133.101 392,-127 413.3,-114.056 406.945,-97.3389 428,-84 430.649,-82.3217 433.417,-80.7654 436.269,-79.3222"/>
<polygon fill="midnightblue" stroke="midnightblue" points="437.955,-82.4007 445.621,-75.0874 435.068,-76.0239 437.955,-82.4007"/>
</g>
<!-- Node124 -->
<g id="node13" class="node"><title>Node124</title>
<g id="a_node13"><a xlink:href="../../d5/dcc/classde_1_1flashpixx_1_1rrd__antlr4_1_1engine_1_1template_1_1IBaseTemplate.html#af9d688420b32b00be68a53432053dda2" target="_top" xlink:title="creates a terminal ">
<polygon fill="none" stroke="black" points="428,-0 428,-28 606,-28 606,-0 428,-0"/>
<text text-anchor="start" x="436" y="-16.8" font-family="Helvetica,sans-Serif" font-size="9.00">de.flashpixx.rrd_antlr4.engine.template.</text>
<text text-anchor="middle" x="517" y="-6.8" font-family="Helvetica,sans-Serif" font-size="9.00">IBaseTemplate.terminalvalue</text>
</a>
</g>
</g>
<!-- Node112&#45;&gt;Node124 -->
<g id="edge21" class="edge"><title>Node112&#45;&gt;Node124</title>
<path fill="none" stroke="midnightblue" d="M111.448,-179.755C135.447,-164.461 175.965,-140.543 214,-127 289.875,-99.9841 325.259,-138.084 392,-93 416.518,-76.4377 404.049,-54.3731 428,-37 430.069,-35.4991 432.228,-34.0961 434.458,-32.7845"/>
<polygon fill="midnightblue" stroke="midnightblue" points="436.1,-35.8758 443.367,-28.1657 432.878,-29.6614 436.1,-35.8758"/>
</g>
<!-- Node117&#45;&gt;Node112 -->
<g id="edge12" class="edge"><title>Node117&#45;&gt;Node112</title>
<path fill="none" stroke="midnightblue" d="M213.868,-200.664C205.363,-200.747 196.7,-200.77 188.107,-200.733"/>
<polygon fill="midnightblue" stroke="midnightblue" points="188.09,-197.233 178.065,-200.663 188.041,-204.233 188.09,-197.233"/>
</g>
<!-- Node117&#45;&gt;Node113 -->
<g id="edge7" class="edge"><title>Node117&#45;&gt;Node113</title>
<path fill="none" stroke="midnightblue" d="M311.155,-208.123C327.472,-238.863 370.514,-312.113 428,-350 431.161,-352.083 434.499,-353.987 437.953,-355.726"/>
<polygon fill="midnightblue" stroke="midnightblue" points="436.773,-359.033 447.328,-359.956 439.652,-352.653 436.773,-359.033"/>
</g>
<!-- Node117&#45;&gt;Node115 -->
<g id="edge8" class="edge"><title>Node117&#45;&gt;Node115</title>
<path fill="none" stroke="midnightblue" d="M316.213,-208.326C336.867,-231.644 381.053,-277.737 428,-303 432.223,-305.272 436.678,-307.343 441.251,-309.228"/>
<polygon fill="midnightblue" stroke="midnightblue" points="440.176,-312.563 450.768,-312.84 442.661,-306.019 440.176,-312.563"/>
</g>
<!-- Node117&#45;&gt;Node116 -->
<g id="edge9" class="edge"><title>Node117&#45;&gt;Node116</title>
<path fill="none" stroke="midnightblue" d="M332.172,-208.054C357.053,-220.198 394.484,-237.822 428,-251 438.316,-255.056 449.454,-259.029 460.224,-262.671"/>
<polygon fill="midnightblue" stroke="midnightblue" points="459.384,-266.08 469.977,-265.915 461.593,-259.438 459.384,-266.08"/>
</g>
<!-- Node118 -->
<g id="node7" class="node"><title>Node118</title>
<g id="a_node7"><a xlink:href="../../dd/da7/interfacede_1_1flashpixx_1_1rrd__antlr4_1_1antlr_1_1IGrammarElement.html#ad38b129b0ef008046ccfe6eeae9cf0fe" target="_top" xlink:title="returns the cardinality ">
<polygon fill="none" stroke="black" points="449.5,-94 449.5,-122 584.5,-122 584.5,-94 449.5,-94"/>
<text text-anchor="start" x="457.5" y="-110.8" font-family="Helvetica,sans-Serif" font-size="9.00">de.flashpixx.rrd_antlr4.antlr.</text>
<text text-anchor="middle" x="517" y="-100.8" font-family="Helvetica,sans-Serif" font-size="9.00">IGrammarElement.cardinality</text>
</a>
</g>
</g>
<!-- Node117&#45;&gt;Node118 -->
<g id="edge6" class="edge"><title>Node117&#45;&gt;Node118</title>
<path fill="none" stroke="midnightblue" d="M356.411,-179.996C368.433,-175.899 380.927,-170.902 392,-165 409.888,-155.466 410.112,-146.534 428,-137 436.131,-132.666 445.03,-128.82 453.945,-125.46"/>
<polygon fill="midnightblue" stroke="midnightblue" points="455.356,-128.672 463.589,-122.004 452.995,-122.082 455.356,-128.672"/>
</g>
<!-- Node119 -->
<g id="node8" class="node"><title>Node119</title>
<g id="a_node8"><a xlink:href="../../d5/dcc/classde_1_1flashpixx_1_1rrd__antlr4_1_1engine_1_1template_1_1IBaseTemplate.html#aad62be40b5226177829c66f72e638569" target="_top" xlink:title="creates a negation structure ">
<polygon fill="none" stroke="black" points="642,-133 642,-161 820,-161 820,-133 642,-133"/>
<text text-anchor="start" x="650" y="-149.8" font-family="Helvetica,sans-Serif" font-size="9.00">de.flashpixx.rrd_antlr4.engine.template.</text>
<text text-anchor="middle" x="731" y="-139.8" font-family="Helvetica,sans-Serif" font-size="9.00">IBaseTemplate.negation</text>
</a>
</g>
</g>
<!-- Node117&#45;&gt;Node119 -->
<g id="edge10" class="edge"><title>Node117&#45;&gt;Node119</title>
<path fill="none" stroke="midnightblue" d="M369.087,-179.941C388.013,-176.251 408.767,-172.585 428,-170 495.738,-160.896 572.544,-155.108 631.748,-151.615"/>
<polygon fill="midnightblue" stroke="midnightblue" points="632.059,-155.103 641.841,-151.032 631.655,-148.114 632.059,-155.103"/>
</g>
<!-- Node120 -->
<g id="node9" class="node"><title>Node120</title>
<g id="a_node9"><a xlink:href="../../d5/dcc/classde_1_1flashpixx_1_1rrd__antlr4_1_1engine_1_1template_1_1IBaseTemplate.html#a2197fdee7c3dfb376324cf4682029b59" target="_top" xlink:title="creates a non&#45;terminal ">
<polygon fill="none" stroke="black" points="642,-227 642,-255 820,-255 820,-227 642,-227"/>
<text text-anchor="start" x="650" y="-243.8" font-family="Helvetica,sans-Serif" font-size="9.00">de.flashpixx.rrd_antlr4.engine.template.</text>
<text text-anchor="middle" x="731" y="-233.8" font-family="Helvetica,sans-Serif" font-size="9.00">IBaseTemplate.nonterminal</text>
</a>
</g>
</g>
<!-- Node117&#45;&gt;Node120 -->
<g id="edge11" class="edge"><title>Node117&#45;&gt;Node120</title>
<path fill="none" stroke="midnightblue" d="M372.665,-208.054C390.615,-211.365 409.984,-214.62 428,-217 495.775,-225.954 572.581,-232.003 631.775,-235.788"/>
<polygon fill="midnightblue" stroke="midnightblue" points="631.666,-239.288 641.866,-236.422 632.106,-232.302 631.666,-239.288"/>
</g>
<!-- Node117&#45;&gt;Node121 -->
<g id="edge13" class="edge"><title>Node117&#45;&gt;Node121</title>
<path fill="none" stroke="midnightblue" d="M368.529,-179.825C377.067,-176.002 385.201,-171.152 392,-165 421.213,-138.569 397.973,-109.503 428,-84 429.535,-82.6966 431.135,-81.4661 432.79,-80.3043"/>
<polygon fill="midnightblue" stroke="midnightblue" points="434.732,-83.2201 441.476,-75.0496 431.109,-77.2306 434.732,-83.2201"/>
</g>
<!-- Node122 -->
<g id="node11" class="node"><title>Node122</title>
<g id="a_node11"><a xlink:href="../../d5/dcc/classde_1_1flashpixx_1_1rrd__antlr4_1_1engine_1_1template_1_1IBaseTemplate.html#aed006de3401e84ff45301922a9ebd7f3" target="_top" xlink:title="creates a terminal ">
<polygon fill="none" stroke="black" points="428,-180 428,-208 606,-208 606,-180 428,-180"/>
<text text-anchor="start" x="436" y="-196.8" font-family="Helvetica,sans-Serif" font-size="9.00">de.flashpixx.rrd_antlr4.engine.template.</text>
<text text-anchor="middle" x="517" y="-186.8" font-family="Helvetica,sans-Serif" font-size="9.00">IBaseTemplate.terminal</text>
</a>
</g>
</g>
<!-- Node117&#45;&gt;Node122 -->
<g id="edge14" class="edge"><title>Node117&#45;&gt;Node122</title>
<path fill="none" stroke="midnightblue" d="M392.065,-187.337C400.569,-187.254 409.232,-187.23 417.825,-187.266"/>
<polygon fill="midnightblue" stroke="midnightblue" points="417.844,-190.766 427.868,-187.336 417.892,-183.767 417.844,-190.766"/>
</g>
<!-- Node117&#45;&gt;Node124 -->
<g id="edge19" class="edge"><title>Node117&#45;&gt;Node124</title>
<path fill="none" stroke="midnightblue" d="M329.379,-179.879C348.792,-167.968 375.027,-149.313 392,-127 418.082,-92.7111 395.696,-65.5031 428,-37 429.343,-35.8149 430.74,-34.6896 432.183,-33.6212"/>
<polygon fill="midnightblue" stroke="midnightblue" points="434.325,-36.4078 440.905,-28.1036 430.583,-30.4923 434.325,-36.4078"/>
</g>
<!-- Node122&#45;&gt;Node117 -->
<g id="edge15" class="edge"><title>Node122&#45;&gt;Node117</title>
<path fill="none" stroke="midnightblue" d="M427.868,-200.664C419.363,-200.747 410.7,-200.77 402.107,-200.733"/>
<polygon fill="midnightblue" stroke="midnightblue" points="402.09,-197.233 392.065,-200.663 402.041,-204.233 402.09,-197.233"/>
</g>
<!-- Node122&#45;&gt;Node119 -->
<g id="edge18" class="edge"><title>Node122&#45;&gt;Node119</title>
<path fill="none" stroke="midnightblue" d="M581.32,-179.962C605.019,-174.708 632.135,-168.697 656.664,-163.258"/>
<polygon fill="midnightblue" stroke="midnightblue" points="657.635,-166.628 666.64,-161.047 656.12,-159.794 657.635,-166.628"/>
</g>
<!-- Node122&#45;&gt;Node120 -->
<g id="edge17" class="edge"><title>Node122&#45;&gt;Node120</title>
<path fill="none" stroke="midnightblue" d="M581.32,-208.038C605.019,-213.292 632.135,-219.303 656.664,-224.742"/>
<polygon fill="midnightblue" stroke="midnightblue" points="656.12,-228.206 666.64,-226.953 657.635,-221.372 656.12,-228.206"/>
</g>
<!-- Node123 -->
<g id="node12" class="node"><title>Node123</title>
<g id="a_node12"><a xlink:href="../../da/d3c/interfacede_1_1flashpixx_1_1rrd__antlr4_1_1antlr_1_1IGrammarTerminal.html#a5335c08fcf626be523cb17e1e50d131a" target="_top" xlink:title="terminal alternatives ">
<polygon fill="none" stroke="black" points="666,-180 666,-208 796,-208 796,-180 666,-180"/>
<text text-anchor="start" x="674" y="-196.8" font-family="Helvetica,sans-Serif" font-size="9.00">de.flashpixx.rrd_antlr4.antlr.</text>
<text text-anchor="middle" x="731" y="-186.8" font-family="Helvetica,sans-Serif" font-size="9.00">IGrammarTerminal.children</text>
</a>
</g>
</g>
<!-- Node122&#45;&gt;Node123 -->
<g id="edge16" class="edge"><title>Node122&#45;&gt;Node123</title>
<path fill="none" stroke="midnightblue" d="M606.065,-194C622.49,-194 639.506,-194 655.474,-194"/>
<polygon fill="midnightblue" stroke="midnightblue" points="655.8,-197.5 665.8,-194 655.8,-190.5 655.8,-197.5"/>
</g>
</g>
</svg>
        <g id="navigator" transform="translate(0 0)" fill="#404254">
                <rect fill="#f2f5e9" fill-opacity="0.5" stroke="#606060" stroke-width=".5" x="0" y="0" width="60" height="60"/>
                <use id="zoomplus" xlink:href="#zoomPlus" x="17" y="9" onmousedown="handleZoom(evt,'in')"/>
                <use id="zoomminus" xlink:href="#zoomMin" x="42" y="9" onmousedown="handleZoom(evt,'out')"/>
                <use id="reset" xlink:href="#resetDef" x="30" y="36" onmousedown="handleReset()"/>
                <g id="arrowUp" xlink:href="#dirArrow" transform="translate(30 24)" onmousedown="handlePan(0,-1)">
                  <use xlink:href="#rim" fill="#404040">
                        <set attributeName="fill" to="#808080" begin="arrowUp.mouseover" end="arrowUp.mouseout"/>
                  </use>
                  <path fill="none" stroke="white" stroke-width="1.5" d="M0,-3.0v7 M-2.5,-0.5L0,-3.0L2.5,-0.5"/>
                </g>
                <g id="arrowRight" xlink:href="#dirArrow" transform="rotate(90) translate(36 -43)" onmousedown="handlePan(1,0)">
                  <use xlink:href="#rim" fill="#404040">
                        <set attributeName="fill" to="#808080" begin="arrowRight.mouseover" end="arrowRight.mouseout"/>
                  </use>
                  <path fill="none" stroke="white" stroke-width="1.5" d="M0,-3.0v7 M-2.5,-0.5L0,-3.0L2.5,-0.5"/>
                </g>
                <g id="arrowDown" xlink:href="#dirArrow" transform="rotate(180) translate(-30 -48)" onmousedown="handlePan(0,1)">
                  <use xlink:href="#rim" fill="#404040">
                        <set attributeName="fill" to="#808080" begin="arrowDown.mouseover" end="arrowDown.mouseout"/>
                  </use>
                  <path fill="none" stroke="white" stroke-width="1.5" d="M0,-3.0v7 M-2.5,-0.5L0,-3.0L2.5,-0.5"/>
                </g>
                <g id="arrowLeft" xlink:href="#dirArrow" transform="rotate(270) translate(-36 17)" onmousedown="handlePan(-1,0)">
                  <use xlink:href="#rim" fill="#404040">
                        <set attributeName="fill" to="#808080" begin="arrowLeft.mouseover" end="arrowLeft.mouseout"/>
                  </use>
                  <path fill="none" stroke="white" stroke-width="1.5" d="M0,-3.0v7 M-2.5,-0.5L0,-3.0L2.5,-0.5"/>
                </g>
        </g>
        <svg viewBox="0 0 15 15" width="100%" height="30px" preserveAspectRatio="xMaxYMin meet">
         <g id="arrow_out" transform="scale(0.3 0.3)">
          <a xlink:href="classde_1_1flashpixx_1_1rrd__antlr4_1_1engine_1_1template_1_1IBaseTemplate_a644daf65240deb390d1b3b8715491f13_cgraph_org.svg" target="_base">
           <rect id="button" ry="5" rx="5" y="6" x="6" height="38" width="38"
                fill="#f2f5e9" fill-opacity="0.5" stroke="#606060" stroke-width="1.0"/>
           <path id="arrow"
             d="M 11.500037,31.436501 C 11.940474,20.09759 22.043105,11.32322 32.158766,21.979434 L 37.068811,17.246167 C 37.068811,17.246167 37.088388,32 37.088388,32 L 22.160133,31.978069 C 22.160133,31.978069 26.997745,27.140456 26.997745,27.140456 C 18.528582,18.264221 13.291696,25.230495 11.500037,31.436501 z"
             style="fill:#404040;"/>
          </a>
         </g>
        </svg>
</svg>
