<?xml version="1.0" encoding="UTF-8" standalone="no"?>
<!DOCTYPE svg PUBLIC "-//W3C//DTD SVG 1.1//EN"
 "http://www.w3.org/Graphics/SVG/1.1/DTD/svg11.dtd">
<!-- Generated by graphviz version 2.36.0 (20140111.2315)
 -->
<!-- Title: de.flashpixx.rrd_antlr4.generator.CPlugin Pages: 1 -->
<svg width="160pt" height="468pt"
 viewBox="0.00 0.00 160.00 468.00" xmlns="http://www.w3.org/2000/svg" xmlns:xlink="http://www.w3.org/1999/xlink">
<g id="graph0" class="graph" transform="scale(1 1) rotate(0) translate(4 464)">
<title>de.flashpixx.rrd_antlr4.generator.CPlugin</title>
<!-- Node0 -->
<g id="node1" class="node"><title>Node0</title>
<polygon fill="#bfbfbf" stroke="black" points="0,-1 0,-135 152,-135 152,-1 0,-1"/>
<text text-anchor="start" x="8" y="-123.8" font-family="Helvetica,sans-Serif" font-size="9.00">de.flashpixx.rrd_antlr4.generator.</text>
<text text-anchor="middle" x="76" y="-113.8" font-family="Helvetica,sans-Serif" font-size="9.00">CPlugin</text>
<polyline fill="none" stroke="black" points="0,-107 152,-107 "/>
<text text-anchor="start" x="8" y="-95.8" font-family="Helvetica,sans-Serif" font-size="9.00">&#45; m_files</text>
<text text-anchor="start" x="8" y="-85.8" font-family="Helvetica,sans-Serif" font-size="9.00">&#45; m_grammarbase</text>
<text text-anchor="start" x="8" y="-75.8" font-family="Helvetica,sans-Serif" font-size="9.00">&#45; m_report</text>
<text text-anchor="start" x="8" y="-65.8" font-family="Helvetica,sans-Serif" font-size="9.00">&#45; m_reportdirectory</text>
<text text-anchor="start" x="8" y="-55.8" font-family="Helvetica,sans-Serif" font-size="9.00">&#45; m_reporttitle</text>
<polyline fill="none" stroke="black" points="0,-49 152,-49 "/>
<text text-anchor="start" x="8" y="-37.8" font-family="Helvetica,sans-Serif" font-size="9.00">+ CPlugin()</text>
<text text-anchor="start" x="8" y="-27.8" font-family="Helvetica,sans-Serif" font-size="9.00">+ finish()</text>
<text text-anchor="start" x="8" y="-17.8" font-family="Helvetica,sans-Serif" font-size="9.00"># processmessages()</text>
<text text-anchor="start" x="8" y="-7.8" font-family="Helvetica,sans-Serif" font-size="9.00"># processoutputdirectory()</text>
</g>
<!-- Node1 -->
<g id="node2" class="node"><title>Node1</title>
<g id="a_node2"><a xlink:href="../../d8/d1c/classde_1_1flashpixx_1_1rrd__antlr4_1_1generator_1_1IBaseGenerator.html" target="_top" xlink:title="base generator class with default definitions ">
<polygon fill="none" stroke="black" points="0,-173 0,-337 152,-337 152,-173 0,-173"/>
<text text-anchor="start" x="8" y="-325.8" font-family="Helvetica,sans-Serif" font-size="9.00">de.flashpixx.rrd_antlr4.generator.</text>
<text text-anchor="middle" x="76" y="-315.8" font-family="Helvetica,sans-Serif" font-size="9.00">IBaseGenerator</text>
<polyline fill="none" stroke="black" points="0,-309 152,-309 "/>
<text text-anchor="start" x="8" y="-297.8" font-family="Helvetica,sans-Serif" font-size="9.00"># m_baseoutput</text>
<text text-anchor="start" x="8" y="-287.8" font-family="Helvetica,sans-Serif" font-size="9.00"># m_error</text>
<text text-anchor="start" x="8" y="-277.8" font-family="Helvetica,sans-Serif" font-size="9.00"># m_templates</text>
<text text-anchor="start" x="8" y="-267.8" font-family="Helvetica,sans-Serif" font-size="9.00">&#45; m_docuclean</text>
<text text-anchor="start" x="8" y="-257.8" font-family="Helvetica,sans-Serif" font-size="9.00">&#45; m_imports</text>
<text text-anchor="start" x="8" y="-247.8" font-family="Helvetica,sans-Serif" font-size="9.00">&#45; ENGINE</text>
<polyline fill="none" stroke="black" points="0,-241 152,-241 "/>
<text text-anchor="start" x="8" y="-229.8" font-family="Helvetica,sans-Serif" font-size="9.00">+ finish()</text>
<text text-anchor="start" x="8" y="-219.8" font-family="Helvetica,sans-Serif" font-size="9.00">+ generate()</text>
<text text-anchor="start" x="8" y="-209.8" font-family="Helvetica,sans-Serif" font-size="9.00">+ hasError()</text>
<text text-anchor="start" x="8" y="-199.8" font-family="Helvetica,sans-Serif" font-size="9.00"># IBaseGenerator()</text>
<text text-anchor="start" x="8" y="-189.8" font-family="Helvetica,sans-Serif" font-size="9.00"># processmessages()</text>
<text text-anchor="start" x="8" y="-179.8" font-family="Helvetica,sans-Serif" font-size="9.00"># processoutputdirectory()</text>
</a>
</g>
</g>
<!-- Node1&#45;&gt;Node0 -->
<g id="edge1" class="edge"><title>Node1&#45;&gt;Node0</title>
<path fill="none" stroke="midnightblue" d="M76,-162.756C76,-153.426 76,-144.078 76,-135.093"/>
<polygon fill="none" stroke="midnightblue" points="72.5001,-162.856 76,-172.856 79.5001,-162.856 72.5001,-162.856"/>
</g>
<!-- Node2 -->
<g id="node3" class="node"><title>Node2</title>
<g id="a_node3"><a xlink:href="../../df/dd6/interfacede_1_1flashpixx_1_1rrd__antlr4_1_1generator_1_1IGenerator.html" target="_top" xlink:title="interface to generate data ">
<polygon fill="none" stroke="black" points="0,-375 0,-459 152,-459 152,-375 0,-375"/>
<text text-anchor="start" x="8" y="-447.8" font-family="Helvetica,sans-Serif" font-size="9.00">de.flashpixx.rrd_antlr4.generator.</text>
<text text-anchor="middle" x="76" y="-437.8" font-family="Helvetica,sans-Serif" font-size="9.00">IGenerator</text>
<polyline fill="none" stroke="black" points="0,-431 152,-431 "/>
<text text-anchor="middle" x="76" y="-419.8" font-family="Helvetica,sans-Serif" font-size="9.00"> </text>
<polyline fill="none" stroke="black" points="0,-413 152,-413 "/>
<text text-anchor="start" x="8" y="-401.8" font-family="Helvetica,sans-Serif" font-size="9.00">+ finish()</text>
<text text-anchor="start" x="8" y="-391.8" font-family="Helvetica,sans-Serif" font-size="9.00">+ generate()</text>
<text text-anchor="start" x="8" y="-381.8" font-family="Helvetica,sans-Serif" font-size="9.00">+ hasError()</text>
</a>
</g>
</g>
<!-- Node2&#45;&gt;Node1 -->
<g id="edge2" class="edge"><title>Node2&#45;&gt;Node1</title>
<path fill="none" stroke="midnightblue" d="M76,-364.722C76,-355.904 76,-346.55 76,-337.174"/>
<polygon fill="none" stroke="midnightblue" points="72.5001,-364.796 76,-374.796 79.5001,-364.796 72.5001,-364.796"/>
</g>
</g>
</svg>
