<?xml version="1.0" encoding="UTF-8" standalone="no"?>
<!DOCTYPE svg PUBLIC "-//W3C//DTD SVG 1.1//EN"
 "http://www.w3.org/Graphics/SVG/1.1/DTD/svg11.dtd">
<!-- Generated by graphviz version 2.36.0 (20140111.2315)
 -->
<!-- Title: de.flashpixx.rrd_antlr4.antlr.CGrammar Pages: 1 -->
<svg width="138pt" height="378pt"
 viewBox="0.00 0.00 138.00 378.00" xmlns="http://www.w3.org/2000/svg" xmlns:xlink="http://www.w3.org/1999/xlink">
<g id="graph0" class="graph" transform="scale(1 1) rotate(0) translate(4 374)">
<title>de.flashpixx.rrd_antlr4.antlr.CGrammar</title>
<!-- Node0 -->
<g id="node1" class="node"><title>Node0</title>
<polygon fill="#bfbfbf" stroke="black" points="0,-1 0,-145 130,-145 130,-1 0,-1"/>
<text text-anchor="start" x="8" y="-133.8" font-family="Helvetica,sans-Serif" font-size="9.00">de.flashpixx.rrd_antlr4.antlr.</text>
<text text-anchor="middle" x="65" y="-123.8" font-family="Helvetica,sans-Serif" font-size="9.00">CGrammar</text>
<polyline fill="none" stroke="black" points="0,-117 130,-117 "/>
<text text-anchor="start" x="8" y="-105.8" font-family="Helvetica,sans-Serif" font-size="9.00">&#45; m_documentation</text>
<text text-anchor="start" x="8" y="-95.8" font-family="Helvetica,sans-Serif" font-size="9.00">&#45; m_id</text>
<polyline fill="none" stroke="black" points="0,-89 130,-89 "/>
<text text-anchor="start" x="8" y="-77.8" font-family="Helvetica,sans-Serif" font-size="9.00">+ cardinality()</text>
<text text-anchor="start" x="8" y="-67.8" font-family="Helvetica,sans-Serif" font-size="9.00">+ cardinality()</text>
<text text-anchor="start" x="8" y="-57.8" font-family="Helvetica,sans-Serif" font-size="9.00">+ documentation()</text>
<text text-anchor="start" x="8" y="-47.8" font-family="Helvetica,sans-Serif" font-size="9.00">+ equals()</text>
<text text-anchor="start" x="8" y="-37.8" font-family="Helvetica,sans-Serif" font-size="9.00">+ hashCode()</text>
<text text-anchor="start" x="8" y="-27.8" font-family="Helvetica,sans-Serif" font-size="9.00">+ id()</text>
<text text-anchor="start" x="8" y="-17.8" font-family="Helvetica,sans-Serif" font-size="9.00">+ toString()</text>
<text text-anchor="start" x="8" y="-7.8" font-family="Helvetica,sans-Serif" font-size="9.00">~ CGrammar()</text>
</g>
<!-- Node1 -->
<g id="node2" class="node"><title>Node1</title>
<g id="a_node2"><a xlink:href="../../df/ddb/interfacede_1_1flashpixx_1_1rrd__antlr4_1_1antlr_1_1IGrammarComplexElement.html" target="_top" xlink:title="base interface of a complex grammar element ">
<polygon fill="none" stroke="black" points="0,-183 0,-257 130,-257 130,-183 0,-183"/>
<text text-anchor="start" x="8" y="-245.8" font-family="Helvetica,sans-Serif" font-size="9.00">de.flashpixx.rrd_antlr4.antlr.</text>
<text text-anchor="middle" x="65" y="-235.8" font-family="Helvetica,sans-Serif" font-size="9.00">IGrammarComplexElement</text>
<polyline fill="none" stroke="black" points="0,-229 130,-229 "/>
<text text-anchor="middle" x="65" y="-217.8" font-family="Helvetica,sans-Serif" font-size="9.00"> </text>
<polyline fill="none" stroke="black" points="0,-211 130,-211 "/>
<text text-anchor="start" x="8" y="-199.8" font-family="Helvetica,sans-Serif" font-size="9.00">+ documentation()</text>
<text text-anchor="start" x="8" y="-189.8" font-family="Helvetica,sans-Serif" font-size="9.00">+ id()</text>
</a>
</g>
</g>
<!-- Node1&#45;&gt;Node0 -->
<g id="edge1" class="edge"><title>Node1&#45;&gt;Node0</title>
<path fill="none" stroke="midnightblue" d="M65,-172.737C65,-163.911 65,-154.486 65,-145.092"/>
<polygon fill="none" stroke="midnightblue" points="61.5001,-172.784 65,-182.784 68.5001,-172.784 61.5001,-172.784"/>
</g>
<!-- Node2 -->
<g id="node3" class="node"><title>Node2</title>
<g id="a_node3"><a xlink:href="../../dd/da7/interfacede_1_1flashpixx_1_1rrd__antlr4_1_1antlr_1_1IGrammarElement.html" target="_top" xlink:title="any grammar element ">
<polygon fill="none" stroke="black" points="0,-295 0,-369 130,-369 130,-295 0,-295"/>
<text text-anchor="start" x="8" y="-357.8" font-family="Helvetica,sans-Serif" font-size="9.00">de.flashpixx.rrd_antlr4.antlr.</text>
<text text-anchor="middle" x="65" y="-347.8" font-family="Helvetica,sans-Serif" font-size="9.00">IGrammarElement</text>
<polyline fill="none" stroke="black" points="0,-341 130,-341 "/>
<text text-anchor="middle" x="65" y="-329.8" font-family="Helvetica,sans-Serif" font-size="9.00"> </text>
<polyline fill="none" stroke="black" points="0,-323 130,-323 "/>
<text text-anchor="start" x="8" y="-311.8" font-family="Helvetica,sans-Serif" font-size="9.00">+ cardinality()</text>
<text text-anchor="start" x="8" y="-301.8" font-family="Helvetica,sans-Serif" font-size="9.00">+ cardinality()</text>
</a>
</g>
</g>
<!-- Node2&#45;&gt;Node1 -->
<g id="edge2" class="edge"><title>Node2&#45;&gt;Node1</title>
<path fill="none" stroke="midnightblue" d="M65,-284.752C65,-275.513 65,-265.935 65,-257.099"/>
<polygon fill="none" stroke="midnightblue" points="61.5001,-284.982 65,-294.982 68.5001,-284.982 61.5001,-284.982"/>
</g>
</g>
</svg>
