<?xml version="1.0" encoding="UTF-8" standalone="no"?>
<!DOCTYPE svg PUBLIC "-//W3C//DTD SVG 1.1//EN"
 "http://www.w3.org/Graphics/SVG/1.1/DTD/svg11.dtd">
<!-- Generated by graphviz version 2.36.0 (20140111.2315)
 -->
<!-- Title: de.flashpixx.rrd_antlr4.antlr.IGrammarTerminal Pages: 1 -->
<svg width="138pt" height="298pt"
 viewBox="0.00 0.00 138.00 298.00" xmlns="http://www.w3.org/2000/svg" xmlns:xlink="http://www.w3.org/1999/xlink">
<g id="graph0" class="graph" transform="scale(1 1) rotate(0) translate(4 294)">
<title>de.flashpixx.rrd_antlr4.antlr.IGrammarTerminal</title>
<!-- Node4 -->
<g id="node1" class="node"><title>Node4</title>
<polygon fill="#bfbfbf" stroke="black" points="0,-1 0,-65 130,-65 130,-1 0,-1"/>
<text text-anchor="start" x="8" y="-53.8" font-family="Helvetica,sans-Serif" font-size="9.00">de.flashpixx.rrd_antlr4.antlr.</text>
<text text-anchor="middle" x="65" y="-43.8" font-family="Helvetica,sans-Serif" font-size="9.00">IGrammarTerminal</text>
<polyline fill="none" stroke="black" points="0,-37 130,-37 "/>
<text text-anchor="middle" x="65" y="-25.8" font-family="Helvetica,sans-Serif" font-size="9.00"> </text>
<polyline fill="none" stroke="black" points="0,-19 130,-19 "/>
<text text-anchor="start" x="8" y="-7.8" font-family="Helvetica,sans-Serif" font-size="9.00">+ children()</text>
</g>
<!-- Node5 -->
<g id="node2" class="node"><title>Node5</title>
<g id="a_node2"><a xlink:href="../../df/ddb/interfacede_1_1flashpixx_1_1rrd__antlr4_1_1antlr_1_1IGrammarComplexElement.html" target="_top" xlink:title="base interface of a complex grammar element ">
<polygon fill="none" stroke="black" points="0,-103 0,-177 130,-177 130,-103 0,-103"/>
<text text-anchor="start" x="8" y="-165.8" font-family="Helvetica,sans-Serif" font-size="9.00">de.flashpixx.rrd_antlr4.antlr.</text>
<text text-anchor="middle" x="65" y="-155.8" font-family="Helvetica,sans-Serif" font-size="9.00">IGrammarComplexElement</text>
<polyline fill="none" stroke="black" points="0,-149 130,-149 "/>
<text text-anchor="middle" x="65" y="-137.8" font-family="Helvetica,sans-Serif" font-size="9.00"> </text>
<polyline fill="none" stroke="black" points="0,-131 130,-131 "/>
<text text-anchor="start" x="8" y="-119.8" font-family="Helvetica,sans-Serif" font-size="9.00">+ documentation()</text>
<text text-anchor="start" x="8" y="-109.8" font-family="Helvetica,sans-Serif" font-size="9.00">+ id()</text>
</a>
</g>
</g>
<!-- Node5&#45;&gt;Node4 -->
<g id="edge1" class="edge"><title>Node5&#45;&gt;Node4</title>
<path fill="none" stroke="midnightblue" d="M65,-92.6077C65,-83.3716 65,-73.8798 65,-65.2968"/>
<polygon fill="none" stroke="midnightblue" points="61.5001,-92.8649 65,-102.865 68.5001,-92.865 61.5001,-92.8649"/>
</g>
<!-- Node6 -->
<g id="node3" class="node"><title>Node6</title>
<g id="a_node3"><a xlink:href="../../dd/da7/interfacede_1_1flashpixx_1_1rrd__antlr4_1_1antlr_1_1IGrammarElement.html" target="_top" xlink:title="any grammar element ">
<polygon fill="none" stroke="black" points="0,-215 0,-289 130,-289 130,-215 0,-215"/>
<text text-anchor="start" x="8" y="-277.8" font-family="Helvetica,sans-Serif" font-size="9.00">de.flashpixx.rrd_antlr4.antlr.</text>
<text text-anchor="middle" x="65" y="-267.8" font-family="Helvetica,sans-Serif" font-size="9.00">IGrammarElement</text>
<polyline fill="none" stroke="black" points="0,-261 130,-261 "/>
<text text-anchor="middle" x="65" y="-249.8" font-family="Helvetica,sans-Serif" font-size="9.00"> </text>
<polyline fill="none" stroke="black" points="0,-243 130,-243 "/>
<text text-anchor="start" x="8" y="-231.8" font-family="Helvetica,sans-Serif" font-size="9.00">+ cardinality()</text>
<text text-anchor="start" x="8" y="-221.8" font-family="Helvetica,sans-Serif" font-size="9.00">+ cardinality()</text>
</a>
</g>
</g>
<!-- Node6&#45;&gt;Node5 -->
<g id="edge2" class="edge"><title>Node6&#45;&gt;Node5</title>
<path fill="none" stroke="midnightblue" d="M65,-204.752C65,-195.513 65,-185.935 65,-177.099"/>
<polygon fill="none" stroke="midnightblue" points="61.5001,-204.982 65,-214.982 68.5001,-204.982 61.5001,-204.982"/>
</g>
</g>
</svg>
