<?xml version="1.0" encoding="UTF-8" standalone="no"?>
<!DOCTYPE svg PUBLIC "-//W3C//DTD SVG 1.1//EN"
 "http://www.w3.org/Graphics/SVG/1.1/DTD/svg11.dtd">
<!-- Generated by graphviz version 2.36.0 (20140111.2315)
 -->
<!-- Title: Graph Legend Pages: 1 -->
<svg width="490pt" height="154pt"
 viewBox="0.00 0.00 490.00 154.00" xmlns="http://www.w3.org/2000/svg" xmlns:xlink="http://www.w3.org/1999/xlink">
<g id="graph0" class="graph" transform="scale(1 1) rotate(0) translate(4 150)">
<title>Graph Legend</title>
<!-- Node9 -->
<g id="node1" class="node"><title>Node9</title>
<polygon fill="#bfbfbf" stroke="black" points="280.25,-18 227.75,-18 227.75,-0 280.25,-0 280.25,-18"/>
<text text-anchor="middle" x="254" y="-6.8" font-family="Helvetica,sans-Serif" font-size="9.00">Inherited</text>
</g>
<!-- Node10 -->
<g id="node2" class="node"><title>Node10</title>
<g id="a_node2"><a xlink:href="$classPublicBase.html" xlink:title="PublicBase">
<polygon fill="none" stroke="black" points="62.25,-82 -0.25,-82 -0.25,-64 62.25,-64 62.25,-82"/>
<text text-anchor="middle" x="31" y="-70.8" font-family="Helvetica,sans-Serif" font-size="9.00">PublicBase</text>
</a>
</g>
</g>
<!-- Node10&#45;&gt;Node9 -->
<g id="edge1" class="edge"><title>Node10&#45;&gt;Node9</title>
<path fill="none" stroke="midnightblue" d="M69.9056,-61.1832C115.139,-48.607 188.57,-28.1914 227.619,-17.3346"/>
<polygon fill="midnightblue" stroke="midnightblue" points="68.8504,-57.8437 60.1534,-63.8946 70.7255,-64.5879 68.8504,-57.8437"/>
</g>
<!-- Node11 -->
<g id="node3" class="node"><title>Node11</title>
<g id="a_node3"><a xlink:href="$classTruncated.html" xlink:title="Truncated">
<polygon fill="none" stroke="red" points="59.5,-146 2.5,-146 2.5,-128 59.5,-128 59.5,-146"/>
<text text-anchor="middle" x="31" y="-134.8" font-family="Helvetica,sans-Serif" font-size="9.00">Truncated</text>
</a>
</g>
</g>
<!-- Node11&#45;&gt;Node10 -->
<g id="edge2" class="edge"><title>Node11&#45;&gt;Node10</title>
<path fill="none" stroke="midnightblue" d="M31,-117.828C31,-106.079 31,-91.3449 31,-82.3053"/>
<polygon fill="midnightblue" stroke="midnightblue" points="27.5001,-117.895 31,-127.895 34.5001,-117.895 27.5001,-117.895"/>
</g>
<!-- Node13 -->
<g id="node4" class="node"><title>Node13</title>
<g id="a_node4"><a xlink:href="$classProtectedBase.html" xlink:title="ProtectedBase">
<polygon fill="none" stroke="black" points="157.25,-82 80.75,-82 80.75,-64 157.25,-64 157.25,-82"/>
<text text-anchor="middle" x="119" y="-70.8" font-family="Helvetica,sans-Serif" font-size="9.00">ProtectedBase</text>
</a>
</g>
</g>
<!-- Node13&#45;&gt;Node9 -->
<g id="edge3" class="edge"><title>Node13&#45;&gt;Node9</title>
<path fill="none" stroke="darkgreen" d="M145.873,-59.6584C172.747,-47.3164 213.302,-28.691 236.347,-18.1074"/>
<polygon fill="darkgreen" stroke="darkgreen" points="144.276,-56.5404 136.649,-63.8946 147.197,-62.9016 144.276,-56.5404"/>
</g>
<!-- Node14 -->
<g id="node5" class="node"><title>Node14</title>
<g id="a_node5"><a xlink:href="$classPrivateBase.html" xlink:title="PrivateBase">
<polygon fill="none" stroke="black" points="242,-82 176,-82 176,-64 242,-64 242,-82"/>
<text text-anchor="middle" x="209" y="-70.8" font-family="Helvetica,sans-Serif" font-size="9.00">PrivateBase</text>
</a>
</g>
</g>
<!-- Node14&#45;&gt;Node9 -->
<g id="edge4" class="edge"><title>Node14&#45;&gt;Node9</title>
<path fill="none" stroke="#8b1a1a" d="M220.889,-55.6198C229.604,-43.6129 241.073,-27.8108 247.972,-18.3053"/>
<polygon fill="#8b1a1a" stroke="#8b1a1a" points="217.924,-53.7457 214.883,-63.8946 223.59,-57.8575 217.924,-53.7457"/>
</g>
<!-- Node15 -->
<g id="node6" class="node"><title>Node15</title>
<polygon fill="none" stroke="#bfbfbf" points="340,-82 260,-82 260,-64 340,-64 340,-82"/>
<text text-anchor="middle" x="300" y="-70.8" font-family="Helvetica,sans-Serif" font-size="9.00">Undocumented</text>
</g>
<!-- Node15&#45;&gt;Node9 -->
<g id="edge5" class="edge"><title>Node15&#45;&gt;Node9</title>
<path fill="none" stroke="midnightblue" d="M287.847,-55.6198C278.939,-43.6129 267.214,-27.8108 260.162,-18.3053"/>
<polygon fill="midnightblue" stroke="midnightblue" points="285.217,-57.9491 293.986,-63.8946 290.839,-53.7781 285.217,-57.9491"/>
</g>
<!-- Node16 -->
<g id="node7" class="node"><title>Node16</title>
<g id="a_node7"><a xlink:href="$classTempl.html" xlink:title="Templ&lt; int &gt;">
<polygon fill="none" stroke="black" points="425.25,-82 358.75,-82 358.75,-64 425.25,-64 425.25,-82"/>
<text text-anchor="middle" x="392" y="-70.8" font-family="Helvetica,sans-Serif" font-size="9.00">Templ&lt; int &gt;</text>
</a>
</g>
</g>
<!-- Node16&#45;&gt;Node9 -->
<g id="edge6" class="edge"><title>Node16&#45;&gt;Node9</title>
<path fill="none" stroke="midnightblue" d="M364.53,-59.6584C337.059,-47.3164 295.603,-28.691 272.046,-18.1074"/>
<polygon fill="midnightblue" stroke="midnightblue" points="363.403,-62.989 373.959,-63.8946 366.272,-56.6038 363.403,-62.989"/>
</g>
<!-- Node17 -->
<g id="node8" class="node"><title>Node17</title>
<g id="a_node8"><a xlink:href="$classTempl.html" xlink:title="Templ&lt; T &gt;">
<polygon fill="none" stroke="black" points="422.5,-146 361.5,-146 361.5,-128 422.5,-128 422.5,-146"/>
<text text-anchor="middle" x="392" y="-134.8" font-family="Helvetica,sans-Serif" font-size="9.00">Templ&lt; T &gt;</text>
</a>
</g>
</g>
<!-- Node17&#45;&gt;Node16 -->
<g id="edge7" class="edge"><title>Node17&#45;&gt;Node16</title>
<path fill="none" stroke="orange" stroke-dasharray="5,2" d="M392,-117.828C392,-106.079 392,-91.3449 392,-82.3053"/>
<polygon fill="orange" stroke="orange" points="388.5,-117.895 392,-127.895 395.5,-117.895 388.5,-117.895"/>
<text text-anchor="middle" x="404.5" y="-102.8" font-family="Helvetica,sans-Serif" font-size="9.00">&lt; int &gt;</text>
</g>
<!-- Node18 -->
<g id="node9" class="node"><title>Node18</title>
<g id="a_node9"><a xlink:href="$classUsed.html" xlink:title="Used">
<polygon fill="none" stroke="black" points="482,-82 444,-82 444,-64 482,-64 482,-82"/>
<text text-anchor="middle" x="463" y="-70.8" font-family="Helvetica,sans-Serif" font-size="9.00">Used</text>
</a>
</g>
</g>
<!-- Node18&#45;&gt;Node9 -->
<g id="edge8" class="edge"><title>Node18&#45;&gt;Node9</title>
<path fill="none" stroke="#9a32cd" stroke-dasharray="5,2" d="M434.109,-63.4295C393.381,-51.3474 319.675,-29.4825 280.364,-17.8209"/>
<polygon fill="#9a32cd" stroke="#9a32cd" points="433.13,-66.7897 443.712,-66.2783 435.121,-60.0788 433.13,-66.7897"/>
<text text-anchor="middle" x="400.5" y="-38.8" font-family="Helvetica,sans-Serif" font-size="9.00">m_usedClass</text>
</g>
</g>
</svg>
