<?xml version="1.0" encoding="UTF-8" standalone="no"?>
<!DOCTYPE svg PUBLIC "-//W3C//DTD SVG 1.1//EN"
 "http://www.w3.org/Graphics/SVG/1.1/DTD/svg11.dtd">
<!-- Generated by graphviz version 2.36.0 (20140111.2315)
 -->
<!-- Title: Graphical Class Hierarchy Pages: 1 -->
<svg width="658pt" height="459pt"
 viewBox="0.00 0.00 658.00 459.00" xmlns="http://www.w3.org/2000/svg" xmlns:xlink="http://www.w3.org/1999/xlink">
<g id="graph0" class="graph" transform="scale(1 1) rotate(0) translate(4 455)">
<title>Graphical Class Hierarchy</title>
<!-- Node0 -->
<g id="node1" class="node"><title>Node0</title>
<g id="a_node1"><a xlink:href="dd/da7/interfacede_1_1flashpixx_1_1rrd__antlr4_1_1antlr_1_1IGrammarElement.html" target="_top" xlink:title="any grammar element ">
<polygon fill="none" stroke="black" points="0,-94 0,-122 130,-122 130,-94 0,-94"/>
<text text-anchor="start" x="8" y="-110.8" font-family="Helvetica,sans-Serif" font-size="9.00">de.flashpixx.rrd_antlr4.antlr.</text>
<text text-anchor="middle" x="65" y="-100.8" font-family="Helvetica,sans-Serif" font-size="9.00">IGrammarElement</text>
</a>
</g>
</g>
<!-- Node1 -->
<g id="node2" class="node"><title>Node1</title>
<g id="a_node2"><a xlink:href="da/dbc/interfacede_1_1flashpixx_1_1rrd__antlr4_1_1antlr_1_1IGrammarCollection.html" target="_top" xlink:title="interface of grammar collection elements ">
<polygon fill="none" stroke="black" points="171,-329 171,-357 301,-357 301,-329 171,-329"/>
<text text-anchor="start" x="179" y="-345.8" font-family="Helvetica,sans-Serif" font-size="9.00">de.flashpixx.rrd_antlr4.antlr.</text>
<text text-anchor="middle" x="236" y="-335.8" font-family="Helvetica,sans-Serif" font-size="9.00">IGrammarCollection</text>
</a>
</g>
</g>
<!-- Node0&#45;&gt;Node1 -->
<g id="edge1" class="edge"><title>Node0&#45;&gt;Node1</title>
<path fill="none" stroke="midnightblue" d="M82.2069,-130.536C116.695,-178.493 196.51,-289.479 224.818,-328.841"/>
<polygon fill="midnightblue" stroke="midnightblue" points="84.9974,-128.422 76.3173,-122.347 79.3143,-132.509 84.9974,-128.422"/>
</g>
<!-- Node10 -->
<g id="node9" class="node"><title>Node10</title>
<g id="a_node9"><a xlink:href="df/ddb/interfacede_1_1flashpixx_1_1rrd__antlr4_1_1antlr_1_1IGrammarComplexElement.html" target="_top" xlink:title="base interface of a complex grammar element ">
<polygon fill="none" stroke="black" points="171,-165 171,-193 301,-193 301,-165 171,-165"/>
<text text-anchor="start" x="179" y="-181.8" font-family="Helvetica,sans-Serif" font-size="9.00">de.flashpixx.rrd_antlr4.antlr.</text>
<text text-anchor="middle" x="236" y="-171.8" font-family="Helvetica,sans-Serif" font-size="9.00">IGrammarComplexElement</text>
</a>
</g>
</g>
<!-- Node0&#45;&gt;Node10 -->
<g id="edge10" class="edge"><title>Node0&#45;&gt;Node10</title>
<path fill="none" stroke="midnightblue" d="M108.772,-125.969C137.492,-138.035 174.8,-153.709 201.392,-164.88"/>
<polygon fill="midnightblue" stroke="midnightblue" points="109.964,-122.674 99.389,-122.027 107.253,-129.127 109.964,-122.674"/>
</g>
<!-- Node16 -->
<g id="node15" class="node"><title>Node16</title>
<g id="a_node15"><a xlink:href="dc/d3e/interfacede_1_1flashpixx_1_1rrd__antlr4_1_1antlr_1_1IGrammarGroup.html" target="_top" xlink:title="any grammar element group ">
<polygon fill="none" stroke="black" points="171,-94 171,-122 301,-122 301,-94 171,-94"/>
<text text-anchor="start" x="179" y="-110.8" font-family="Helvetica,sans-Serif" font-size="9.00">de.flashpixx.rrd_antlr4.antlr.</text>
<text text-anchor="middle" x="236" y="-100.8" font-family="Helvetica,sans-Serif" font-size="9.00">IGrammarGroup</text>
</a>
</g>
</g>
<!-- Node0&#45;&gt;Node16 -->
<g id="edge16" class="edge"><title>Node0&#45;&gt;Node16</title>
<path fill="none" stroke="midnightblue" d="M140.417,-108C150.548,-108 160.876,-108 170.805,-108"/>
<polygon fill="midnightblue" stroke="midnightblue" points="140.374,-104.5 130.374,-108 140.374,-111.5 140.374,-104.5"/>
</g>
<!-- Node18 -->
<g id="node17" class="node"><title>Node18</title>
<g id="a_node17"><a xlink:href="de/d81/interfacede_1_1flashpixx_1_1rrd__antlr4_1_1antlr_1_1IGrammarNegation.html" target="_top" xlink:title="a negation element ">
<polygon fill="none" stroke="black" points="171,-47 171,-75 301,-75 301,-47 171,-47"/>
<text text-anchor="start" x="179" y="-63.8" font-family="Helvetica,sans-Serif" font-size="9.00">de.flashpixx.rrd_antlr4.antlr.</text>
<text text-anchor="middle" x="236" y="-53.8" font-family="Helvetica,sans-Serif" font-size="9.00">IGrammarNegation</text>
</a>
</g>
</g>
<!-- Node0&#45;&gt;Node18 -->
<g id="edge18" class="edge"><title>Node0&#45;&gt;Node18</title>
<path fill="none" stroke="midnightblue" d="M126.482,-91.1796C145.53,-85.8821 166.354,-80.0908 184.622,-75.0106"/>
<polygon fill="midnightblue" stroke="midnightblue" points="125.402,-87.847 116.706,-93.8985 127.278,-94.591 125.402,-87.847"/>
</g>
<!-- Node20 -->
<g id="node19" class="node"><title>Node20</title>
<g id="a_node19"><a xlink:href="dd/d41/interfacede_1_1flashpixx_1_1rrd__antlr4_1_1antlr_1_1IGrammarSimpleElement.html" target="_top" xlink:title="a simple grammar element ">
<polygon fill="none" stroke="black" points="166,-0 166,-28 306,-28 306,-0 166,-0"/>
<text text-anchor="start" x="174" y="-16.8" font-family="Helvetica,sans-Serif" font-size="9.00">de.flashpixx.rrd_antlr4.antlr.</text>
<text text-anchor="middle" x="236" y="-6.8" font-family="Helvetica,sans-Serif" font-size="9.00">IGrammarSimpleElement&lt; T &gt;</text>
</a>
</g>
</g>
<!-- Node0&#45;&gt;Node20 -->
<g id="edge20" class="edge"><title>Node0&#45;&gt;Node20</title>
<path fill="none" stroke="midnightblue" d="M90.7302,-87.2822C110.2,-71.7781 138.544,-50.9321 166,-37 172.531,-33.6859 179.644,-30.6929 186.741,-28.0457"/>
<polygon fill="midnightblue" stroke="midnightblue" points="88.2767,-84.7651 82.7016,-93.7745 92.6782,-90.2081 88.2767,-84.7651"/>
</g>
<!-- Node2 -->
<g id="node3" class="node"><title>Node2</title>
<g id="a_node3"><a xlink:href="d5/d4c/classde_1_1flashpixx_1_1rrd__antlr4_1_1antlr_1_1CGrammarEmptyCollection.html" target="_top" xlink:title="empty grammar collection ">
<polygon fill="none" stroke="black" points="348,-423 348,-451 478,-451 478,-423 348,-423"/>
<text text-anchor="start" x="356" y="-439.8" font-family="Helvetica,sans-Serif" font-size="9.00">de.flashpixx.rrd_antlr4.antlr.</text>
<text text-anchor="middle" x="413" y="-429.8" font-family="Helvetica,sans-Serif" font-size="9.00">CGrammarEmptyCollection</text>
</a>
</g>
</g>
<!-- Node1&#45;&gt;Node2 -->
<g id="edge2" class="edge"><title>Node1&#45;&gt;Node2</title>
<path fill="none" stroke="midnightblue" d="M263.308,-363.325C283.877,-378.511 313.645,-398.982 342,-413 349.371,-416.644 357.431,-419.966 365.375,-422.899"/>
<polygon fill="midnightblue" stroke="midnightblue" points="265.19,-360.362 255.086,-357.174 260.997,-365.967 265.19,-360.362"/>
</g>
<!-- Node3 -->
<g id="node4" class="node"><title>Node3</title>
<g id="a_node4"><a xlink:href="d1/de6/classde_1_1flashpixx_1_1rrd__antlr4_1_1antlr_1_1IGrammarBaseCollection.html" target="_top" xlink:title="abstract class for collection ">
<polygon fill="none" stroke="black" points="348,-329 348,-357 478,-357 478,-329 348,-329"/>
<text text-anchor="start" x="356" y="-345.8" font-family="Helvetica,sans-Serif" font-size="9.00">de.flashpixx.rrd_antlr4.antlr.</text>
<text text-anchor="middle" x="413" y="-335.8" font-family="Helvetica,sans-Serif" font-size="9.00">IGrammarBaseCollection</text>
</a>
</g>
</g>
<!-- Node1&#45;&gt;Node3 -->
<g id="edge3" class="edge"><title>Node1&#45;&gt;Node3</title>
<path fill="none" stroke="midnightblue" d="M311.281,-343C323.441,-343 335.949,-343 347.838,-343"/>
<polygon fill="midnightblue" stroke="midnightblue" points="311.17,-339.5 301.17,-343 311.17,-346.5 311.17,-339.5"/>
</g>
<!-- Node6 -->
<g id="node7" class="node"><title>Node6</title>
<g id="a_node7"><a xlink:href="de/db0/interfacede_1_1flashpixx_1_1rrd__antlr4_1_1antlr_1_1IGrammarChoice.html" target="_top" xlink:title="grammar element sequence ">
<polygon fill="none" stroke="black" points="348,-376 348,-404 478,-404 478,-376 348,-376"/>
<text text-anchor="start" x="356" y="-392.8" font-family="Helvetica,sans-Serif" font-size="9.00">de.flashpixx.rrd_antlr4.antlr.</text>
<text text-anchor="middle" x="413" y="-382.8" font-family="Helvetica,sans-Serif" font-size="9.00">IGrammarChoice</text>
</a>
</g>
</g>
<!-- Node1&#45;&gt;Node6 -->
<g id="edge6" class="edge"><title>Node1&#45;&gt;Node6</title>
<path fill="none" stroke="midnightblue" d="M299.358,-359.748C319.156,-365.065 340.831,-370.886 359.833,-375.989"/>
<polygon fill="midnightblue" stroke="midnightblue" points="300.071,-356.315 289.506,-357.102 298.256,-363.076 300.071,-356.315"/>
</g>
<!-- Node8 -->
<g id="node8" class="node"><title>Node8</title>
<g id="a_node8"><a xlink:href="d8/d61/interfacede_1_1flashpixx_1_1rrd__antlr4_1_1antlr_1_1IGrammarSequence.html" target="_top" xlink:title="grammar element sequence ">
<polygon fill="none" stroke="black" points="348,-282 348,-310 478,-310 478,-282 348,-282"/>
<text text-anchor="start" x="356" y="-298.8" font-family="Helvetica,sans-Serif" font-size="9.00">de.flashpixx.rrd_antlr4.antlr.</text>
<text text-anchor="middle" x="413" y="-288.8" font-family="Helvetica,sans-Serif" font-size="9.00">IGrammarSequence</text>
</a>
</g>
</g>
<!-- Node1&#45;&gt;Node8 -->
<g id="edge8" class="edge"><title>Node1&#45;&gt;Node8</title>
<path fill="none" stroke="midnightblue" d="M299.358,-326.252C319.156,-320.935 340.831,-315.114 359.833,-310.011"/>
<polygon fill="midnightblue" stroke="midnightblue" points="298.256,-322.924 289.506,-328.898 300.071,-329.685 298.256,-322.924"/>
</g>
<!-- Node7 -->
<g id="node5" class="node"><title>Node7</title>
<g id="a_node5"><a xlink:href="df/d2c/classde_1_1flashpixx_1_1rrd__antlr4_1_1antlr_1_1CGrammarChoice.html" target="_top" xlink:title="grammar choice ">
<polygon fill="none" stroke="black" points="520,-364 520,-392 650,-392 650,-364 520,-364"/>
<text text-anchor="start" x="528" y="-380.8" font-family="Helvetica,sans-Serif" font-size="9.00">de.flashpixx.rrd_antlr4.antlr.</text>
<text text-anchor="middle" x="585" y="-370.8" font-family="Helvetica,sans-Serif" font-size="9.00">CGrammarChoice</text>
</a>
</g>
</g>
<!-- Node3&#45;&gt;Node7 -->
<g id="edge4" class="edge"><title>Node3&#45;&gt;Node7</title>
<path fill="none" stroke="midnightblue" d="M488.287,-358.294C498.829,-360.465 509.595,-362.681 519.921,-364.807"/>
<polygon fill="midnightblue" stroke="midnightblue" points="488.77,-354.821 478.27,-356.232 487.358,-361.677 488.77,-354.821"/>
</g>
<!-- Node9 -->
<g id="node6" class="node"><title>Node9</title>
<g id="a_node6"><a xlink:href="dc/df3/classde_1_1flashpixx_1_1rrd__antlr4_1_1antlr_1_1CGrammarSequence.html" target="_top" xlink:title="grammar sequence ">
<polygon fill="none" stroke="black" points="520,-294 520,-322 650,-322 650,-294 520,-294"/>
<text text-anchor="start" x="528" y="-310.8" font-family="Helvetica,sans-Serif" font-size="9.00">de.flashpixx.rrd_antlr4.antlr.</text>
<text text-anchor="middle" x="585" y="-300.8" font-family="Helvetica,sans-Serif" font-size="9.00">CGrammarSequence</text>
</a>
</g>
</g>
<!-- Node3&#45;&gt;Node9 -->
<g id="edge5" class="edge"><title>Node3&#45;&gt;Node9</title>
<path fill="none" stroke="midnightblue" d="M488.287,-327.706C498.829,-325.535 509.595,-323.319 519.921,-321.193"/>
<polygon fill="midnightblue" stroke="midnightblue" points="487.358,-324.323 478.27,-329.768 488.77,-331.179 487.358,-324.323"/>
</g>
<!-- Node6&#45;&gt;Node7 -->
<g id="edge7" class="edge"><title>Node6&#45;&gt;Node7</title>
<path fill="none" stroke="midnightblue" d="M488.287,-384.756C498.829,-384.012 509.595,-383.252 519.921,-382.523"/>
<polygon fill="midnightblue" stroke="midnightblue" points="487.998,-381.268 478.27,-385.463 488.491,-388.25 487.998,-381.268"/>
</g>
<!-- Node8&#45;&gt;Node9 -->
<g id="edge9" class="edge"><title>Node8&#45;&gt;Node9</title>
<path fill="none" stroke="midnightblue" d="M488.287,-301.244C498.829,-301.988 509.595,-302.748 519.921,-303.477"/>
<polygon fill="midnightblue" stroke="midnightblue" points="488.491,-297.75 478.27,-300.537 487.998,-304.732 488.491,-297.75"/>
</g>
<!-- Node11 -->
<g id="node10" class="node"><title>Node11</title>
<g id="a_node10"><a xlink:href="d7/d65/classde_1_1flashpixx_1_1rrd__antlr4_1_1antlr_1_1CGrammar.html" target="_top" xlink:title="grammar information ">
<polygon fill="none" stroke="black" points="348,-235 348,-263 478,-263 478,-235 348,-235"/>
<text text-anchor="start" x="356" y="-251.8" font-family="Helvetica,sans-Serif" font-size="9.00">de.flashpixx.rrd_antlr4.antlr.</text>
<text text-anchor="middle" x="413" y="-241.8" font-family="Helvetica,sans-Serif" font-size="9.00">CGrammar</text>
</a>
</g>
</g>
<!-- Node10&#45;&gt;Node11 -->
<g id="edge11" class="edge"><title>Node10&#45;&gt;Node11</title>
<path fill="none" stroke="midnightblue" d="M276.697,-197.315C296.209,-206.08 320.168,-216.492 342,-225 350.738,-228.405 360.185,-231.82 369.226,-234.962"/>
<polygon fill="midnightblue" stroke="midnightblue" points="278.058,-194.09 267.504,-193.16 275.175,-200.468 278.058,-194.09"/>
</g>
<!-- Node12 -->
<g id="node11" class="node"><title>Node12</title>
<g id="a_node11"><a xlink:href="d3/d53/interfacede_1_1flashpixx_1_1rrd__antlr4_1_1antlr_1_1IGrammarRule.html" target="_top" xlink:title="interface for a grammar rule ">
<polygon fill="none" stroke="black" points="348,-188 348,-216 478,-216 478,-188 348,-188"/>
<text text-anchor="start" x="356" y="-204.8" font-family="Helvetica,sans-Serif" font-size="9.00">de.flashpixx.rrd_antlr4.antlr.</text>
<text text-anchor="middle" x="413" y="-194.8" font-family="Helvetica,sans-Serif" font-size="9.00">IGrammarRule</text>
</a>
</g>
</g>
<!-- Node10&#45;&gt;Node12 -->
<g id="edge12" class="edge"><title>Node10&#45;&gt;Node12</title>
<path fill="none" stroke="midnightblue" d="M311.281,-188.763C323.441,-190.361 335.949,-192.005 347.838,-193.567"/>
<polygon fill="midnightblue" stroke="midnightblue" points="311.541,-185.267 301.17,-187.434 310.628,-192.207 311.541,-185.267"/>
</g>
<!-- Node14 -->
<g id="node13" class="node"><title>Node14</title>
<g id="a_node13"><a xlink:href="da/d3c/interfacede_1_1flashpixx_1_1rrd__antlr4_1_1antlr_1_1IGrammarTerminal.html" target="_top" xlink:title="interface of grammar terminal ">
<polygon fill="none" stroke="black" points="348,-141 348,-169 478,-169 478,-141 348,-141"/>
<text text-anchor="start" x="356" y="-157.8" font-family="Helvetica,sans-Serif" font-size="9.00">de.flashpixx.rrd_antlr4.antlr.</text>
<text text-anchor="middle" x="413" y="-147.8" font-family="Helvetica,sans-Serif" font-size="9.00">IGrammarTerminal</text>
</a>
</g>
</g>
<!-- Node10&#45;&gt;Node14 -->
<g id="edge14" class="edge"><title>Node10&#45;&gt;Node14</title>
<path fill="none" stroke="midnightblue" d="M311.281,-168.813C323.441,-167.145 335.949,-165.43 347.838,-163.799"/>
<polygon fill="midnightblue" stroke="midnightblue" points="310.602,-165.373 301.17,-170.2 311.553,-172.308 310.602,-165.373"/>
</g>
<!-- Node13 -->
<g id="node12" class="node"><title>Node13</title>
<g id="a_node12"><a xlink:href="dc/dc5/classde_1_1flashpixx_1_1rrd__antlr4_1_1antlr_1_1CGrammarRule.html" target="_top" xlink:title="represenation of a grammar rule ">
<polygon fill="none" stroke="black" points="520,-188 520,-216 650,-216 650,-188 520,-188"/>
<text text-anchor="start" x="528" y="-204.8" font-family="Helvetica,sans-Serif" font-size="9.00">de.flashpixx.rrd_antlr4.antlr.</text>
<text text-anchor="middle" x="585" y="-194.8" font-family="Helvetica,sans-Serif" font-size="9.00">CGrammarRule</text>
</a>
</g>
</g>
<!-- Node12&#45;&gt;Node13 -->
<g id="edge13" class="edge"><title>Node12&#45;&gt;Node13</title>
<path fill="none" stroke="midnightblue" d="M488.287,-202C498.829,-202 509.595,-202 519.921,-202"/>
<polygon fill="midnightblue" stroke="midnightblue" points="488.27,-198.5 478.27,-202 488.27,-205.5 488.27,-198.5"/>
</g>
<!-- Node15 -->
<g id="node14" class="node"><title>Node15</title>
<g id="a_node14"><a xlink:href="d5/d65/classde_1_1flashpixx_1_1rrd__antlr4_1_1antlr_1_1CGrammarNonTerminal.html" target="_top" xlink:title="represenation of a terminal symbol ">
<polygon fill="none" stroke="black" points="520,-141 520,-169 650,-169 650,-141 520,-141"/>
<text text-anchor="start" x="528" y="-157.8" font-family="Helvetica,sans-Serif" font-size="9.00">de.flashpixx.rrd_antlr4.antlr.</text>
<text text-anchor="middle" x="585" y="-147.8" font-family="Helvetica,sans-Serif" font-size="9.00">CGrammarNonTerminal</text>
</a>
</g>
</g>
<!-- Node14&#45;&gt;Node15 -->
<g id="edge15" class="edge"><title>Node14&#45;&gt;Node15</title>
<path fill="none" stroke="midnightblue" d="M488.287,-155C498.829,-155 509.595,-155 519.921,-155"/>
<polygon fill="midnightblue" stroke="midnightblue" points="488.27,-151.5 478.27,-155 488.27,-158.5 488.27,-151.5"/>
</g>
<!-- Node17 -->
<g id="node16" class="node"><title>Node17</title>
<g id="a_node16"><a xlink:href="d2/dea/classde_1_1flashpixx_1_1rrd__antlr4_1_1antlr_1_1CGrammarGroup.html" target="_top" xlink:title="group of grammar elements ">
<polygon fill="none" stroke="black" points="348,-94 348,-122 478,-122 478,-94 348,-94"/>
<text text-anchor="start" x="356" y="-110.8" font-family="Helvetica,sans-Serif" font-size="9.00">de.flashpixx.rrd_antlr4.antlr.</text>
<text text-anchor="middle" x="413" y="-100.8" font-family="Helvetica,sans-Serif" font-size="9.00">CGrammarGroup</text>
</a>
</g>
</g>
<!-- Node16&#45;&gt;Node17 -->
<g id="edge17" class="edge"><title>Node16&#45;&gt;Node17</title>
<path fill="none" stroke="midnightblue" d="M311.281,-108C323.441,-108 335.949,-108 347.838,-108"/>
<polygon fill="midnightblue" stroke="midnightblue" points="311.17,-104.5 301.17,-108 311.17,-111.5 311.17,-104.5"/>
</g>
<!-- Node19 -->
<g id="node18" class="node"><title>Node19</title>
<g id="a_node18"><a xlink:href="d8/d1c/classde_1_1flashpixx_1_1rrd__antlr4_1_1antlr_1_1CGrammarNegation.html" target="_top" xlink:title="negation ">
<polygon fill="none" stroke="black" points="348,-47 348,-75 478,-75 478,-47 348,-47"/>
<text text-anchor="start" x="356" y="-63.8" font-family="Helvetica,sans-Serif" font-size="9.00">de.flashpixx.rrd_antlr4.antlr.</text>
<text text-anchor="middle" x="413" y="-53.8" font-family="Helvetica,sans-Serif" font-size="9.00">CGrammarNegation</text>
</a>
</g>
</g>
<!-- Node18&#45;&gt;Node19 -->
<g id="edge19" class="edge"><title>Node18&#45;&gt;Node19</title>
<path fill="none" stroke="midnightblue" d="M311.281,-61C323.441,-61 335.949,-61 347.838,-61"/>
<polygon fill="midnightblue" stroke="midnightblue" points="311.17,-57.5001 301.17,-61 311.17,-64.5001 311.17,-57.5001"/>
</g>
<!-- Node21 -->
<g id="node20" class="node"><title>Node21</title>
<g id="a_node20"><a xlink:href="df/dba/classde_1_1flashpixx_1_1rrd__antlr4_1_1antlr_1_1CGrammarTerminalValue.html" target="_top" xlink:title="stores any terminal value ">
<polygon fill="none" stroke="black" points="342,-0 342,-28 484,-28 484,-0 342,-0"/>
<text text-anchor="start" x="350" y="-16.8" font-family="Helvetica,sans-Serif" font-size="9.00">de.flashpixx.rrd_antlr4.antlr.</text>
<text text-anchor="middle" x="413" y="-6.8" font-family="Helvetica,sans-Serif" font-size="9.00">CGrammarTerminalValue&lt; T &gt;</text>
</a>
</g>
</g>
<!-- Node20&#45;&gt;Node21 -->
<g id="edge21" class="edge"><title>Node20&#45;&gt;Node21</title>
<path fill="none" stroke="midnightblue" d="M316.169,-14C324.751,-14 333.441,-14 341.904,-14"/>
<polygon fill="midnightblue" stroke="midnightblue" points="316.165,-10.5001 306.165,-14 316.165,-17.5001 316.165,-10.5001"/>
</g>
</g>
</svg>
