<?xml version="1.0" encoding="UTF-8" standalone="no"?>
<!DOCTYPE svg PUBLIC "-//W3C//DTD SVG 1.1//EN"
 "http://www.w3.org/Graphics/SVG/1.1/DTD/svg11.dtd">
<!-- Generated by graphviz version 2.36.0 (20140111.2315)
 -->
<!-- Title: Graphical Class Hierarchy Pages: 1 -->
<svg width="614pt" height="83pt"
 viewBox="0.00 0.00 614.00 83.00" xmlns="http://www.w3.org/2000/svg" xmlns:xlink="http://www.w3.org/1999/xlink">
<g id="graph0" class="graph" transform="scale(1 1) rotate(0) translate(4 79)">
<title>Graphical Class Hierarchy</title>
<!-- Node0 -->
<g id="node1" class="node"><title>Node0</title>
<g id="a_node1"><a xlink:href="d6/d71/interfacede_1_1flashpixx_1_1rrd__antlr4_1_1engine_1_1template_1_1ITemplate.html" target="_top" xlink:title="interface of a template ">
<polygon fill="none" stroke="black" points="0,-23 0,-51 178,-51 178,-23 0,-23"/>
<text text-anchor="start" x="8" y="-39.8" font-family="Helvetica,sans-Serif" font-size="9.00">de.flashpixx.rrd_antlr4.engine.template.</text>
<text text-anchor="middle" x="89" y="-29.8" font-family="Helvetica,sans-Serif" font-size="9.00">ITemplate</text>
</a>
</g>
</g>
<!-- Node1 -->
<g id="node2" class="node"><title>Node1</title>
<g id="a_node2"><a xlink:href="d5/dcc/classde_1_1flashpixx_1_1rrd__antlr4_1_1engine_1_1template_1_1IBaseTemplate.html" target="_top" xlink:title="base implementation ">
<polygon fill="none" stroke="black" points="214,-23 214,-51 392,-51 392,-23 214,-23"/>
<text text-anchor="start" x="222" y="-39.8" font-family="Helvetica,sans-Serif" font-size="9.00">de.flashpixx.rrd_antlr4.engine.template.</text>
<text text-anchor="middle" x="303" y="-29.8" font-family="Helvetica,sans-Serif" font-size="9.00">IBaseTemplate</text>
</a>
</g>
</g>
<!-- Node0&#45;&gt;Node1 -->
<g id="edge1" class="edge"><title>Node0&#45;&gt;Node1</title>
<path fill="none" stroke="midnightblue" d="M188.107,-37C196.7,-37 205.363,-37 213.868,-37"/>
<polygon fill="midnightblue" stroke="midnightblue" points="188.065,-33.5001 178.065,-37 188.065,-40.5001 188.065,-33.5001"/>
</g>
<!-- Node2 -->
<g id="node3" class="node"><title>Node2</title>
<g id="a_node3"><a xlink:href="df/db0/classde_1_1flashpixx_1_1rrd__antlr4_1_1engine_1_1template_1_1CHTML.html" target="_top" xlink:title="template for HTML export ">
<polygon fill="none" stroke="black" points="428,-47 428,-75 606,-75 606,-47 428,-47"/>
<text text-anchor="start" x="436" y="-63.8" font-family="Helvetica,sans-Serif" font-size="9.00">de.flashpixx.rrd_antlr4.engine.template.</text>
<text text-anchor="middle" x="517" y="-53.8" font-family="Helvetica,sans-Serif" font-size="9.00">CHTML</text>
</a>
</g>
</g>
<!-- Node1&#45;&gt;Node2 -->
<g id="edge2" class="edge"><title>Node1&#45;&gt;Node2</title>
<path fill="none" stroke="midnightblue" d="M402.107,-48.1065C410.7,-49.0793 419.363,-50.06 427.868,-51.0227"/>
<polygon fill="midnightblue" stroke="midnightblue" points="402.396,-44.6169 392.065,-46.9697 401.608,-51.5724 402.396,-44.6169"/>
</g>
<!-- Node3 -->
<g id="node4" class="node"><title>Node3</title>
<g id="a_node4"><a xlink:href="da/d63/classde_1_1flashpixx_1_1rrd__antlr4_1_1engine_1_1template_1_1CLaTeXSyntax.html" target="_top" xlink:title="template for LaTeX text export ">
<polygon fill="none" stroke="black" points="428,-0 428,-28 606,-28 606,-0 428,-0"/>
<text text-anchor="start" x="436" y="-16.8" font-family="Helvetica,sans-Serif" font-size="9.00">de.flashpixx.rrd_antlr4.engine.template.</text>
<text text-anchor="middle" x="517" y="-6.8" font-family="Helvetica,sans-Serif" font-size="9.00">CLaTeXSyntax</text>
</a>
</g>
</g>
<!-- Node1&#45;&gt;Node3 -->
<g id="edge3" class="edge"><title>Node1&#45;&gt;Node3</title>
<path fill="none" stroke="midnightblue" d="M402.107,-26.3563C410.7,-25.424 419.363,-24.4842 427.868,-23.5615"/>
<polygon fill="midnightblue" stroke="midnightblue" points="401.629,-22.8875 392.065,-27.4457 402.385,-29.8467 401.629,-22.8875"/>
</g>
</g>
</svg>
