<?xml version="1.0" encoding="UTF-8" standalone="no"?>
<!DOCTYPE svg PUBLIC "-//W3C//DTD SVG 1.1//EN"
 "http://www.w3.org/Graphics/SVG/1.1/DTD/svg11.dtd">
<!-- Generated by graphviz version 2.36.0 (20140111.2315)
 -->
<!-- Title: Graphical Class Hierarchy Pages: 1 -->
<svg width="530pt" height="83pt"
 viewBox="0.00 0.00 530.00 83.00" xmlns="http://www.w3.org/2000/svg" xmlns:xlink="http://www.w3.org/1999/xlink">
<g id="graph0" class="graph" transform="scale(1 1) rotate(0) translate(4 79)">
<title>Graphical Class Hierarchy</title>
<!-- Node40 -->
<g id="node1" class="node"><title>Node40</title>
<g id="a_node1"><a xlink:href="df/dba/classde_1_1flashpixx_1_1rrd__antlr4_1_1antlr_1_1CGrammarTerminalValue.html" target="_top" xlink:title="de.flashpixx.rrd_antlr4.antlr.\lCGrammarTerminalValue\&lt; String \&gt;">
<polygon fill="none" stroke="black" points="194.5,-47 194.5,-75 355.5,-75 355.5,-47 194.5,-47"/>
<text text-anchor="start" x="202.5" y="-63.8" font-family="Helvetica,sans-Serif" font-size="9.00">de.flashpixx.rrd_antlr4.antlr.</text>
<text text-anchor="middle" x="275" y="-53.8" font-family="Helvetica,sans-Serif" font-size="9.00">CGrammarTerminalValue&lt; String &gt;</text>
</a>
</g>
</g>
<!-- Node2 -->
<g id="node2" class="node"><title>Node2</title>
<g id="a_node2"><a xlink:href="d0/dbc/classde_1_1flashpixx_1_1rrd__antlr4_1_1antlr_1_1CGrammarIdentifier.html" target="_top" xlink:title="identifier of a rule for referencing ">
<polygon fill="none" stroke="black" points="392,-23 392,-51 522,-51 522,-23 392,-23"/>
<text text-anchor="start" x="400" y="-39.8" font-family="Helvetica,sans-Serif" font-size="9.00">de.flashpixx.rrd_antlr4.antlr.</text>
<text text-anchor="middle" x="457" y="-29.8" font-family="Helvetica,sans-Serif" font-size="9.00">CGrammarIdentifier</text>
</a>
</g>
</g>
<!-- Node40&#45;&gt;Node2 -->
<g id="edge1" class="edge"><title>Node40&#45;&gt;Node2</title>
<path fill="none" stroke="midnightblue" d="M365.726,-49.0366C374.591,-47.8545 383.46,-46.672 391.988,-45.535"/>
<polygon fill="midnightblue" stroke="midnightblue" points="365.186,-45.5774 355.737,-50.3684 366.112,-52.516 365.186,-45.5774"/>
</g>
<!-- Node0 -->
<g id="node3" class="node"><title>Node0</title>
<g id="a_node3"><a xlink:href="dd/d41/interfacede_1_1flashpixx_1_1rrd__antlr4_1_1antlr_1_1IGrammarSimpleElement.html" target="_top" xlink:title="de.flashpixx.rrd_antlr4.antlr.\lIGrammarSimpleElement\&lt; String \&gt;">
<polygon fill="none" stroke="black" points="0,-0 0,-28 158,-28 158,-0 0,-0"/>
<text text-anchor="start" x="8" y="-16.8" font-family="Helvetica,sans-Serif" font-size="9.00">de.flashpixx.rrd_antlr4.antlr.</text>
<text text-anchor="middle" x="79" y="-6.8" font-family="Helvetica,sans-Serif" font-size="9.00">IGrammarSimpleElement&lt; String &gt;</text>
</a>
</g>
</g>
<!-- Node1 -->
<g id="node4" class="node"><title>Node1</title>
<g id="a_node4"><a xlink:href="d8/d86/interfacede_1_1flashpixx_1_1rrd__antlr4_1_1antlr_1_1IGrammarIdentifier.html" target="_top" xlink:title="grammar identifier &#45; for linkage between elements ">
<polygon fill="none" stroke="black" points="210,-0 210,-28 340,-28 340,-0 210,-0"/>
<text text-anchor="start" x="218" y="-16.8" font-family="Helvetica,sans-Serif" font-size="9.00">de.flashpixx.rrd_antlr4.antlr.</text>
<text text-anchor="middle" x="275" y="-6.8" font-family="Helvetica,sans-Serif" font-size="9.00">IGrammarIdentifier</text>
</a>
</g>
</g>
<!-- Node0&#45;&gt;Node1 -->
<g id="edge2" class="edge"><title>Node0&#45;&gt;Node1</title>
<path fill="none" stroke="midnightblue" d="M168.202,-14C182.201,-14 196.446,-14 209.759,-14"/>
<polygon fill="midnightblue" stroke="midnightblue" points="168.069,-10.5001 158.069,-14 168.069,-17.5001 168.069,-10.5001"/>
</g>
<!-- Node1&#45;&gt;Node2 -->
<g id="edge3" class="edge"><title>Node1&#45;&gt;Node2</title>
<path fill="none" stroke="midnightblue" d="M350.172,-23.4775C363.988,-25.2429 378.317,-27.0739 391.803,-28.797"/>
<polygon fill="midnightblue" stroke="midnightblue" points="350.585,-20.0019 340.222,-22.2061 349.698,-26.9455 350.585,-20.0019"/>
</g>
</g>
</svg>
