<?xml version="1.0" encoding="UTF-8" standalone="no"?>
<!DOCTYPE svg PUBLIC "-//W3C//DTD SVG 1.1//EN"
 "http://www.w3.org/Graphics/SVG/1.1/DTD/svg11.dtd">
<!-- Generated by graphviz version 2.36.0 (20140111.2315)
 -->
<!-- Title: Graphical Class Hierarchy Pages: 1 -->
<svg width="536pt" height="83pt"
 viewBox="0.00 0.00 536.00 83.00" xmlns="http://www.w3.org/2000/svg" xmlns:xlink="http://www.w3.org/1999/xlink">
<g id="graph0" class="graph" transform="scale(1 1) rotate(0) translate(4 79)">
<title>Graphical Class Hierarchy</title>
<!-- Node0 -->
<g id="node1" class="node"><title>Node0</title>
<g id="a_node1"><a xlink:href="df/dd6/interfacede_1_1flashpixx_1_1rrd__antlr4_1_1generator_1_1IGenerator.html" target="_top" xlink:title="interface to generate data ">
<polygon fill="none" stroke="black" points="0,-23 0,-51 152,-51 152,-23 0,-23"/>
<text text-anchor="start" x="8" y="-39.8" font-family="Helvetica,sans-Serif" font-size="9.00">de.flashpixx.rrd_antlr4.generator.</text>
<text text-anchor="middle" x="76" y="-29.8" font-family="Helvetica,sans-Serif" font-size="9.00">IGenerator</text>
</a>
</g>
</g>
<!-- Node1 -->
<g id="node2" class="node"><title>Node1</title>
<g id="a_node2"><a xlink:href="d8/d1c/classde_1_1flashpixx_1_1rrd__antlr4_1_1generator_1_1IBaseGenerator.html" target="_top" xlink:title="base generator class with default definitions ">
<polygon fill="none" stroke="black" points="188,-23 188,-51 340,-51 340,-23 188,-23"/>
<text text-anchor="start" x="196" y="-39.8" font-family="Helvetica,sans-Serif" font-size="9.00">de.flashpixx.rrd_antlr4.generator.</text>
<text text-anchor="middle" x="264" y="-29.8" font-family="Helvetica,sans-Serif" font-size="9.00">IBaseGenerator</text>
</a>
</g>
</g>
<!-- Node0&#45;&gt;Node1 -->
<g id="edge1" class="edge"><title>Node0&#45;&gt;Node1</title>
<path fill="none" stroke="midnightblue" d="M162.147,-37C170.742,-37 179.426,-37 187.905,-37"/>
<polygon fill="midnightblue" stroke="midnightblue" points="162.117,-33.5001 152.117,-37 162.117,-40.5001 162.117,-33.5001"/>
</g>
<!-- Node2 -->
<g id="node3" class="node"><title>Node2</title>
<g id="a_node3"><a xlink:href="d2/d08/classde_1_1flashpixx_1_1rrd__antlr4_1_1generator_1_1CPlugin.html" target="_top" xlink:title="maven plugin generator ">
<polygon fill="none" stroke="black" points="376,-47 376,-75 528,-75 528,-47 376,-47"/>
<text text-anchor="start" x="384" y="-63.8" font-family="Helvetica,sans-Serif" font-size="9.00">de.flashpixx.rrd_antlr4.generator.</text>
<text text-anchor="middle" x="452" y="-53.8" font-family="Helvetica,sans-Serif" font-size="9.00">CPlugin</text>
</a>
</g>
</g>
<!-- Node1&#45;&gt;Node2 -->
<g id="edge2" class="edge"><title>Node1&#45;&gt;Node2</title>
<path fill="none" stroke="midnightblue" d="M350.147,-47.9867C358.742,-49.0957 367.426,-50.2163 375.905,-51.3103"/>
<polygon fill="midnightblue" stroke="midnightblue" points="350.483,-44.5011 340.117,-46.6925 349.587,-51.4436 350.483,-44.5011"/>
</g>
<!-- Node3 -->
<g id="node4" class="node"><title>Node3</title>
<g id="a_node4"><a xlink:href="d9/d99/classde_1_1flashpixx_1_1rrd__antlr4_1_1generator_1_1CStandalone.html" target="_top" xlink:title="generator of a standalone program ">
<polygon fill="none" stroke="black" points="376,-0 376,-28 528,-28 528,-0 376,-0"/>
<text text-anchor="start" x="384" y="-16.8" font-family="Helvetica,sans-Serif" font-size="9.00">de.flashpixx.rrd_antlr4.generator.</text>
<text text-anchor="middle" x="452" y="-6.8" font-family="Helvetica,sans-Serif" font-size="9.00">CStandalone</text>
</a>
</g>
</g>
<!-- Node1&#45;&gt;Node3 -->
<g id="edge3" class="edge"><title>Node1&#45;&gt;Node3</title>
<path fill="none" stroke="midnightblue" d="M350.147,-26.471C358.742,-25.4083 367.426,-24.3344 375.905,-23.286"/>
<polygon fill="midnightblue" stroke="midnightblue" points="349.612,-23.0105 340.117,-27.7113 350.471,-29.9576 349.612,-23.0105"/>
</g>
</g>
</svg>
