<?xml version="1.0" encoding="UTF-8" standalone="no"?>
<!DOCTYPE svg PUBLIC "-//W3C//DTD SVG 1.1//EN"
 "http://www.w3.org/Graphics/SVG/1.1/DTD/svg11.dtd">
<!-- Generated by graphviz version 2.36.0 (20140111.2315)
 -->
<!-- Title: de.flashpixx.rrd_antlr4.antlr.CGrammarIdentifier Pages: 1 -->
<svg width="334pt" height="716pt"
 viewBox="0.00 0.00 334.00 716.00" xmlns="http://www.w3.org/2000/svg" xmlns:xlink="http://www.w3.org/1999/xlink">
<g id="graph0" class="graph" transform="scale(1 1) rotate(0) translate(4 712)">
<title>de.flashpixx.rrd_antlr4.antlr.CGrammarIdentifier</title>
<!-- Node8 -->
<g id="node1" class="node"><title>Node8</title>
<polygon fill="#bfbfbf" stroke="black" points="62,-1 62,-65 192,-65 192,-1 62,-1"/>
<text text-anchor="start" x="70" y="-53.8" font-family="Helvetica,sans-Serif" font-size="9.00">de.flashpixx.rrd_antlr4.antlr.</text>
<text text-anchor="middle" x="127" y="-43.8" font-family="Helvetica,sans-Serif" font-size="9.00">CGrammarIdentifier</text>
<polyline fill="none" stroke="black" points="62,-37 192,-37 "/>
<text text-anchor="middle" x="127" y="-25.8" font-family="Helvetica,sans-Serif" font-size="9.00"> </text>
<polyline fill="none" stroke="black" points="62,-19 192,-19 "/>
<text text-anchor="start" x="70" y="-7.8" font-family="Helvetica,sans-Serif" font-size="9.00">+ CGrammarIdentifier()</text>
</g>
<!-- Node9 -->
<g id="node2" class="node"><title>Node9</title>
<g id="a_node2"><a xlink:href="../../df/dba/classde_1_1flashpixx_1_1rrd__antlr4_1_1antlr_1_1CGrammarTerminalValue.html" target="_top" xlink:title="{de.flashpixx.rrd_antlr4.antlr.\lCGrammarTerminalValue\&lt; String \&gt;\n|&#45; m_cardinality\l&#45; m_value\l|+ CGrammarTerminalValue()\l+ CGrammarTerminalValue()\l+ cardinality()\l+ cardinality()\l+ equals()\l+ get()\l+ hashCode()\l+ isValueAssignableTo()\l+ toString()\l}">
<polygon fill="none" stroke="black" points="-0.5,-105 -0.5,-259 160.5,-259 160.5,-105 -0.5,-105"/>
<text text-anchor="start" x="7.5" y="-247.8" font-family="Helvetica,sans-Serif" font-size="9.00">de.flashpixx.rrd_antlr4.antlr.</text>
<text text-anchor="middle" x="80" y="-237.8" font-family="Helvetica,sans-Serif" font-size="9.00">CGrammarTerminalValue&lt; String &gt;</text>
<polyline fill="none" stroke="black" points="-0.5,-231 160.5,-231 "/>
<text text-anchor="start" x="7.5" y="-219.8" font-family="Helvetica,sans-Serif" font-size="9.00">&#45; m_cardinality</text>
<text text-anchor="start" x="7.5" y="-209.8" font-family="Helvetica,sans-Serif" font-size="9.00">&#45; m_value</text>
<polyline fill="none" stroke="black" points="-0.5,-203 160.5,-203 "/>
<text text-anchor="start" x="7.5" y="-191.8" font-family="Helvetica,sans-Serif" font-size="9.00">+ CGrammarTerminalValue()</text>
<text text-anchor="start" x="7.5" y="-181.8" font-family="Helvetica,sans-Serif" font-size="9.00">+ CGrammarTerminalValue()</text>
<text text-anchor="start" x="7.5" y="-171.8" font-family="Helvetica,sans-Serif" font-size="9.00">+ cardinality()</text>
<text text-anchor="start" x="7.5" y="-161.8" font-family="Helvetica,sans-Serif" font-size="9.00">+ cardinality()</text>
<text text-anchor="start" x="7.5" y="-151.8" font-family="Helvetica,sans-Serif" font-size="9.00">+ equals()</text>
<text text-anchor="start" x="7.5" y="-141.8" font-family="Helvetica,sans-Serif" font-size="9.00">+ get()</text>
<text text-anchor="start" x="7.5" y="-131.8" font-family="Helvetica,sans-Serif" font-size="9.00">+ hashCode()</text>
<text text-anchor="start" x="7.5" y="-121.8" font-family="Helvetica,sans-Serif" font-size="9.00">+ isValueAssignableTo()</text>
<text text-anchor="start" x="7.5" y="-111.8" font-family="Helvetica,sans-Serif" font-size="9.00">+ toString()</text>
</a>
</g>
</g>
<!-- Node9&#45;&gt;Node8 -->
<g id="edge1" class="edge"><title>Node9&#45;&gt;Node8</title>
<path fill="none" stroke="midnightblue" d="M107.461,-95.1117C110.849,-84.5151 114.124,-74.2722 116.993,-65.2986"/>
<polygon fill="none" stroke="midnightblue" points="104.038,-94.3256 104.326,-104.916 110.705,-96.4574 104.038,-94.3256"/>
</g>
<!-- Node10 -->
<g id="node3" class="node"><title>Node10</title>
<g id="a_node3"><a xlink:href="../../df/dba/classde_1_1flashpixx_1_1rrd__antlr4_1_1antlr_1_1CGrammarTerminalValue.html" target="_top" xlink:title="stores any terminal value ">
<polygon fill="none" stroke="black" points="8,-307 8,-461 150,-461 150,-307 8,-307"/>
<text text-anchor="start" x="16" y="-449.8" font-family="Helvetica,sans-Serif" font-size="9.00">de.flashpixx.rrd_antlr4.antlr.</text>
<text text-anchor="middle" x="79" y="-439.8" font-family="Helvetica,sans-Serif" font-size="9.00">CGrammarTerminalValue&lt; T &gt;</text>
<polyline fill="none" stroke="black" points="8,-433 150,-433 "/>
<text text-anchor="start" x="16" y="-421.8" font-family="Helvetica,sans-Serif" font-size="9.00">&#45; m_cardinality</text>
<text text-anchor="start" x="16" y="-411.8" font-family="Helvetica,sans-Serif" font-size="9.00">&#45; m_value</text>
<polyline fill="none" stroke="black" points="8,-405 150,-405 "/>
<text text-anchor="start" x="16" y="-393.8" font-family="Helvetica,sans-Serif" font-size="9.00">+ CGrammarTerminalValue()</text>
<text text-anchor="start" x="16" y="-383.8" font-family="Helvetica,sans-Serif" font-size="9.00">+ CGrammarTerminalValue()</text>
<text text-anchor="start" x="16" y="-373.8" font-family="Helvetica,sans-Serif" font-size="9.00">+ cardinality()</text>
<text text-anchor="start" x="16" y="-363.8" font-family="Helvetica,sans-Serif" font-size="9.00">+ cardinality()</text>
<text text-anchor="start" x="16" y="-353.8" font-family="Helvetica,sans-Serif" font-size="9.00">+ equals()</text>
<text text-anchor="start" x="16" y="-343.8" font-family="Helvetica,sans-Serif" font-size="9.00">+ get()</text>
<text text-anchor="start" x="16" y="-333.8" font-family="Helvetica,sans-Serif" font-size="9.00">+ hashCode()</text>
<text text-anchor="start" x="16" y="-323.8" font-family="Helvetica,sans-Serif" font-size="9.00">+ isValueAssignableTo()</text>
<text text-anchor="start" x="16" y="-313.8" font-family="Helvetica,sans-Serif" font-size="9.00">+ toString()</text>
</a>
</g>
</g>
<!-- Node10&#45;&gt;Node9 -->
<g id="edge2" class="edge"><title>Node10&#45;&gt;Node9</title>
<path fill="none" stroke="orange" d="M79.4325,-296.503C79.4944,-284.125 79.5577,-271.465 79.6185,-259.301"/>
<polygon fill="orange" stroke="orange" points="75.931,-296.801 79.3809,-306.818 82.931,-296.836 75.931,-296.801"/>
<text text-anchor="middle" x="101" y="-280.8" font-family="Helvetica,sans-Serif" font-size="9.00"> &lt; String &gt;</text>
</g>
<!-- Node11 -->
<g id="node4" class="node"><title>Node11</title>
<g id="a_node4"><a xlink:href="../../dd/d41/interfacede_1_1flashpixx_1_1rrd__antlr4_1_1antlr_1_1IGrammarSimpleElement.html" target="_top" xlink:title="a simple grammar element ">
<polygon fill="none" stroke="black" points="13.5,-509 13.5,-593 154.5,-593 154.5,-509 13.5,-509"/>
<text text-anchor="start" x="21.5" y="-581.8" font-family="Helvetica,sans-Serif" font-size="9.00">de::flashpixx::rrd</text>
<text text-anchor="start" x="21.5" y="-571.8" font-family="Helvetica,sans-Serif" font-size="9.00">_antlr4::antlr::IGrammarSimple</text>
<text text-anchor="middle" x="84" y="-561.8" font-family="Helvetica,sans-Serif" font-size="9.00">Element&lt; T &gt;</text>
<polyline fill="none" stroke="black" points="13.5,-555 154.5,-555 "/>
<text text-anchor="middle" x="84" y="-543.8" font-family="Helvetica,sans-Serif" font-size="9.00"> </text>
<polyline fill="none" stroke="black" points="13.5,-537 154.5,-537 "/>
<text text-anchor="start" x="21.5" y="-525.8" font-family="Helvetica,sans-Serif" font-size="9.00">+ get()</text>
<text text-anchor="start" x="21.5" y="-515.8" font-family="Helvetica,sans-Serif" font-size="9.00">+ isValueAssignableTo()</text>
</a>
</g>
</g>
<!-- Node11&#45;&gt;Node10 -->
<g id="edge3" class="edge"><title>Node11&#45;&gt;Node10</title>
<path fill="none" stroke="midnightblue" d="M82.4426,-498.605C82.0813,-486.684 81.6893,-473.747 81.3036,-461.018"/>
<polygon fill="none" stroke="midnightblue" points="78.9498,-498.9 82.7512,-508.789 85.9466,-498.688 78.9498,-498.9"/>
</g>
<!-- Node12 -->
<g id="node5" class="node"><title>Node12</title>
<g id="a_node5"><a xlink:href="../../dd/da7/interfacede_1_1flashpixx_1_1rrd__antlr4_1_1antlr_1_1IGrammarElement.html" target="_top" xlink:title="any grammar element ">
<polygon fill="none" stroke="black" points="115,-633 115,-707 245,-707 245,-633 115,-633"/>
<text text-anchor="start" x="123" y="-695.8" font-family="Helvetica,sans-Serif" font-size="9.00">de.flashpixx.rrd_antlr4.antlr.</text>
<text text-anchor="middle" x="180" y="-685.8" font-family="Helvetica,sans-Serif" font-size="9.00">IGrammarElement</text>
<polyline fill="none" stroke="black" points="115,-679 245,-679 "/>
<text text-anchor="middle" x="180" y="-667.8" font-family="Helvetica,sans-Serif" font-size="9.00"> </text>
<polyline fill="none" stroke="black" points="115,-661 245,-661 "/>
<text text-anchor="start" x="123" y="-649.8" font-family="Helvetica,sans-Serif" font-size="9.00">+ cardinality()</text>
<text text-anchor="start" x="123" y="-639.8" font-family="Helvetica,sans-Serif" font-size="9.00">+ cardinality()</text>
</a>
</g>
</g>
<!-- Node12&#45;&gt;Node11 -->
<g id="edge4" class="edge"><title>Node12&#45;&gt;Node11</title>
<path fill="none" stroke="midnightblue" d="M143.955,-625.07C135.344,-614.575 126.184,-603.412 117.684,-593.052"/>
<polygon fill="none" stroke="midnightblue" points="141.365,-627.431 150.414,-632.941 146.776,-622.991 141.365,-627.431"/>
</g>
<!-- Node15 -->
<g id="node8" class="node"><title>Node15</title>
<g id="a_node8"><a xlink:href="../../dd/d41/interfacede_1_1flashpixx_1_1rrd__antlr4_1_1antlr_1_1IGrammarSimpleElement.html" target="_top" xlink:title="a simple grammar element ">
<polygon fill="none" stroke="black" points="174,-514 174,-588 314,-588 314,-514 174,-514"/>
<text text-anchor="start" x="182" y="-576.8" font-family="Helvetica,sans-Serif" font-size="9.00">de.flashpixx.rrd_antlr4.antlr.</text>
<text text-anchor="middle" x="244" y="-566.8" font-family="Helvetica,sans-Serif" font-size="9.00">IGrammarSimpleElement&lt; T &gt;</text>
<polyline fill="none" stroke="black" points="174,-560 314,-560 "/>
<text text-anchor="middle" x="244" y="-548.8" font-family="Helvetica,sans-Serif" font-size="9.00"> </text>
<polyline fill="none" stroke="black" points="174,-542 314,-542 "/>
<text text-anchor="start" x="182" y="-530.8" font-family="Helvetica,sans-Serif" font-size="9.00">+ get()</text>
<text text-anchor="start" x="182" y="-520.8" font-family="Helvetica,sans-Serif" font-size="9.00">+ isValueAssignableTo()</text>
</a>
</g>
</g>
<!-- Node12&#45;&gt;Node15 -->
<g id="edge8" class="edge"><title>Node12&#45;&gt;Node15</title>
<path fill="none" stroke="midnightblue" d="M204.591,-624.044C211.091,-612.161 218.022,-599.49 224.231,-588.141"/>
<polygon fill="none" stroke="midnightblue" points="201.453,-622.489 199.724,-632.941 207.594,-625.848 201.453,-622.489"/>
</g>
<!-- Node13 -->
<g id="node6" class="node"><title>Node13</title>
<g id="a_node6"><a xlink:href="../../d8/d86/interfacede_1_1flashpixx_1_1rrd__antlr4_1_1antlr_1_1IGrammarIdentifier.html" target="_top" xlink:title="grammar identifier &#45; for linkage between elements ">
<polygon fill="none" stroke="black" points="181,-150 181,-214 311,-214 311,-150 181,-150"/>
<text text-anchor="start" x="189" y="-202.8" font-family="Helvetica,sans-Serif" font-size="9.00">de.flashpixx.rrd_antlr4.antlr.</text>
<text text-anchor="middle" x="246" y="-192.8" font-family="Helvetica,sans-Serif" font-size="9.00">IGrammarIdentifier</text>
<polyline fill="none" stroke="black" points="181,-186 311,-186 "/>
<text text-anchor="middle" x="246" y="-174.8" font-family="Helvetica,sans-Serif" font-size="9.00"> </text>
<polyline fill="none" stroke="black" points="181,-168 311,-168 "/>
<text text-anchor="middle" x="246" y="-156.8" font-family="Helvetica,sans-Serif" font-size="9.00"> </text>
</a>
</g>
</g>
<!-- Node13&#45;&gt;Node8 -->
<g id="edge5" class="edge"><title>Node13&#45;&gt;Node8</title>
<path fill="none" stroke="midnightblue" d="M214.38,-141.94C194.926,-117.909 170.336,-87.5321 152.2,-65.13"/>
<polygon fill="none" stroke="midnightblue" points="211.751,-144.255 220.763,-149.825 217.192,-139.85 211.751,-144.255"/>
</g>
<!-- Node14 -->
<g id="node7" class="node"><title>Node14</title>
<g id="a_node7"><a xlink:href="../../dd/d41/interfacede_1_1flashpixx_1_1rrd__antlr4_1_1antlr_1_1IGrammarSimpleElement.html" target="_top" xlink:title="{de.flashpixx.rrd_antlr4.antlr.\lIGrammarSimpleElement\&lt; String \&gt;\n||+ get()\l+ isValueAssignableTo()\l}">
<polygon fill="none" stroke="black" points="168,-347 168,-421 326,-421 326,-347 168,-347"/>
<text text-anchor="start" x="176" y="-409.8" font-family="Helvetica,sans-Serif" font-size="9.00">de.flashpixx.rrd_antlr4.antlr.</text>
<text text-anchor="middle" x="247" y="-399.8" font-family="Helvetica,sans-Serif" font-size="9.00">IGrammarSimpleElement&lt; String &gt;</text>
<polyline fill="none" stroke="black" points="168,-393 326,-393 "/>
<text text-anchor="middle" x="247" y="-381.8" font-family="Helvetica,sans-Serif" font-size="9.00"> </text>
<polyline fill="none" stroke="black" points="168,-375 326,-375 "/>
<text text-anchor="start" x="176" y="-363.8" font-family="Helvetica,sans-Serif" font-size="9.00">+ get()</text>
<text text-anchor="start" x="176" y="-353.8" font-family="Helvetica,sans-Serif" font-size="9.00">+ isValueAssignableTo()</text>
</a>
</g>
</g>
<!-- Node14&#45;&gt;Node13 -->
<g id="edge6" class="edge"><title>Node14&#45;&gt;Node13</title>
<path fill="none" stroke="midnightblue" d="M246.768,-336.564C246.579,-298.884 246.319,-246.812 246.155,-214.026"/>
<polygon fill="none" stroke="midnightblue" points="243.269,-336.799 246.819,-346.782 250.269,-336.764 243.269,-336.799"/>
</g>
<!-- Node15&#45;&gt;Node14 -->
<g id="edge7" class="edge"><title>Node15&#45;&gt;Node14</title>
<path fill="none" stroke="orange" d="M244.841,-503.733C245.317,-477.592 245.902,-445.394 246.343,-421.125"/>
<polygon fill="orange" stroke="orange" points="241.341,-503.728 244.658,-513.79 248.34,-503.855 241.341,-503.728"/>
<text text-anchor="middle" x="266" y="-482.8" font-family="Helvetica,sans-Serif" font-size="9.00"> &lt; String &gt;</text>
</g>
</g>
</svg>
