<?xml version="1.0" encoding="UTF-8" standalone="no"?>
<!DOCTYPE svg PUBLIC "-//W3C//DTD SVG 1.1//EN"
 "http://www.w3.org/Graphics/SVG/1.1/DTD/svg11.dtd">
<!-- Generated by graphviz version 2.36.0 (20140111.2315)
 -->
<!-- Title: de.flashpixx.rrd_antlr4.generator.IGenerator Pages: 1 -->
<svg width="330pt" height="468pt"
 viewBox="0.00 0.00 330.00 468.00" xmlns="http://www.w3.org/2000/svg" xmlns:xlink="http://www.w3.org/1999/xlink">
<g id="graph0" class="graph" transform="scale(1 1) rotate(0) translate(4 464)">
<title>de.flashpixx.rrd_antlr4.generator.IGenerator</title>
<!-- Node0 -->
<g id="node1" class="node"><title>Node0</title>
<polygon fill="#bfbfbf" stroke="black" points="85,-375 85,-459 237,-459 237,-375 85,-375"/>
<text text-anchor="start" x="93" y="-447.8" font-family="Helvetica,sans-Serif" font-size="9.00">de.flashpixx.rrd_antlr4.generator.</text>
<text text-anchor="middle" x="161" y="-437.8" font-family="Helvetica,sans-Serif" font-size="9.00">IGenerator</text>
<polyline fill="none" stroke="black" points="85,-431 237,-431 "/>
<text text-anchor="middle" x="161" y="-419.8" font-family="Helvetica,sans-Serif" font-size="9.00"> </text>
<polyline fill="none" stroke="black" points="85,-413 237,-413 "/>
<text text-anchor="start" x="93" y="-401.8" font-family="Helvetica,sans-Serif" font-size="9.00">+ finish()</text>
<text text-anchor="start" x="93" y="-391.8" font-family="Helvetica,sans-Serif" font-size="9.00">+ generate()</text>
<text text-anchor="start" x="93" y="-381.8" font-family="Helvetica,sans-Serif" font-size="9.00">+ hasError()</text>
</g>
<!-- Node1 -->
<g id="node2" class="node"><title>Node1</title>
<g id="a_node2"><a xlink:href="../../d8/d1c/classde_1_1flashpixx_1_1rrd__antlr4_1_1generator_1_1IBaseGenerator.html" target="_top" xlink:title="base generator class with default definitions ">
<polygon fill="none" stroke="black" points="85,-173 85,-337 237,-337 237,-173 85,-173"/>
<text text-anchor="start" x="93" y="-325.8" font-family="Helvetica,sans-Serif" font-size="9.00">de.flashpixx.rrd_antlr4.generator.</text>
<text text-anchor="middle" x="161" y="-315.8" font-family="Helvetica,sans-Serif" font-size="9.00">IBaseGenerator</text>
<polyline fill="none" stroke="black" points="85,-309 237,-309 "/>
<text text-anchor="start" x="93" y="-297.8" font-family="Helvetica,sans-Serif" font-size="9.00"># m_baseoutput</text>
<text text-anchor="start" x="93" y="-287.8" font-family="Helvetica,sans-Serif" font-size="9.00"># m_error</text>
<text text-anchor="start" x="93" y="-277.8" font-family="Helvetica,sans-Serif" font-size="9.00"># m_templates</text>
<text text-anchor="start" x="93" y="-267.8" font-family="Helvetica,sans-Serif" font-size="9.00">&#45; m_docuclean</text>
<text text-anchor="start" x="93" y="-257.8" font-family="Helvetica,sans-Serif" font-size="9.00">&#45; m_imports</text>
<text text-anchor="start" x="93" y="-247.8" font-family="Helvetica,sans-Serif" font-size="9.00">&#45; ENGINE</text>
<polyline fill="none" stroke="black" points="85,-241 237,-241 "/>
<text text-anchor="start" x="93" y="-229.8" font-family="Helvetica,sans-Serif" font-size="9.00">+ finish()</text>
<text text-anchor="start" x="93" y="-219.8" font-family="Helvetica,sans-Serif" font-size="9.00">+ generate()</text>
<text text-anchor="start" x="93" y="-209.8" font-family="Helvetica,sans-Serif" font-size="9.00">+ hasError()</text>
<text text-anchor="start" x="93" y="-199.8" font-family="Helvetica,sans-Serif" font-size="9.00"># IBaseGenerator()</text>
<text text-anchor="start" x="93" y="-189.8" font-family="Helvetica,sans-Serif" font-size="9.00"># processmessages()</text>
<text text-anchor="start" x="93" y="-179.8" font-family="Helvetica,sans-Serif" font-size="9.00"># processoutputdirectory()</text>
</a>
</g>
</g>
<!-- Node0&#45;&gt;Node1 -->
<g id="edge1" class="edge"><title>Node0&#45;&gt;Node1</title>
<path fill="none" stroke="midnightblue" d="M161,-364.722C161,-355.904 161,-346.55 161,-337.174"/>
<polygon fill="none" stroke="midnightblue" points="157.5,-364.796 161,-374.796 164.5,-364.796 157.5,-364.796"/>
</g>
<!-- Node2 -->
<g id="node3" class="node"><title>Node2</title>
<g id="a_node3"><a xlink:href="../../d2/d08/classde_1_1flashpixx_1_1rrd__antlr4_1_1generator_1_1CPlugin.html" target="_top" xlink:title="maven plugin generator ">
<polygon fill="none" stroke="black" points="0,-1 0,-135 152,-135 152,-1 0,-1"/>
<text text-anchor="start" x="8" y="-123.8" font-family="Helvetica,sans-Serif" font-size="9.00">de.flashpixx.rrd_antlr4.generator.</text>
<text text-anchor="middle" x="76" y="-113.8" font-family="Helvetica,sans-Serif" font-size="9.00">CPlugin</text>
<polyline fill="none" stroke="black" points="0,-107 152,-107 "/>
<text text-anchor="start" x="8" y="-95.8" font-family="Helvetica,sans-Serif" font-size="9.00">&#45; m_files</text>
<text text-anchor="start" x="8" y="-85.8" font-family="Helvetica,sans-Serif" font-size="9.00">&#45; m_grammarbase</text>
<text text-anchor="start" x="8" y="-75.8" font-family="Helvetica,sans-Serif" font-size="9.00">&#45; m_report</text>
<text text-anchor="start" x="8" y="-65.8" font-family="Helvetica,sans-Serif" font-size="9.00">&#45; m_reportdirectory</text>
<text text-anchor="start" x="8" y="-55.8" font-family="Helvetica,sans-Serif" font-size="9.00">&#45; m_reporttitle</text>
<polyline fill="none" stroke="black" points="0,-49 152,-49 "/>
<text text-anchor="start" x="8" y="-37.8" font-family="Helvetica,sans-Serif" font-size="9.00">+ CPlugin()</text>
<text text-anchor="start" x="8" y="-27.8" font-family="Helvetica,sans-Serif" font-size="9.00">+ finish()</text>
<text text-anchor="start" x="8" y="-17.8" font-family="Helvetica,sans-Serif" font-size="9.00"># processmessages()</text>
<text text-anchor="start" x="8" y="-7.8" font-family="Helvetica,sans-Serif" font-size="9.00"># processoutputdirectory()</text>
</a>
</g>
</g>
<!-- Node1&#45;&gt;Node2 -->
<g id="edge2" class="edge"><title>Node1&#45;&gt;Node2</title>
<path fill="none" stroke="midnightblue" d="M119.488,-163.65C115.065,-154.023 110.627,-144.365 106.367,-135.093"/>
<polygon fill="none" stroke="midnightblue" points="116.362,-165.231 123.718,-172.856 122.723,-162.308 116.362,-165.231"/>
</g>
<!-- Node3 -->
<g id="node4" class="node"><title>Node3</title>
<g id="a_node4"><a xlink:href="../../d9/d99/classde_1_1flashpixx_1_1rrd__antlr4_1_1generator_1_1CStandalone.html" target="_top" xlink:title="generator of a standalone program ">
<polygon fill="none" stroke="black" points="170,-26 170,-110 322,-110 322,-26 170,-26"/>
<text text-anchor="start" x="178" y="-98.8" font-family="Helvetica,sans-Serif" font-size="9.00">de.flashpixx.rrd_antlr4.generator.</text>
<text text-anchor="middle" x="246" y="-88.8" font-family="Helvetica,sans-Serif" font-size="9.00">CStandalone</text>
<polyline fill="none" stroke="black" points="170,-82 322,-82 "/>
<text text-anchor="middle" x="246" y="-70.8" font-family="Helvetica,sans-Serif" font-size="9.00"> </text>
<polyline fill="none" stroke="black" points="170,-64 322,-64 "/>
<text text-anchor="start" x="178" y="-52.8" font-family="Helvetica,sans-Serif" font-size="9.00">+ CStandalone()</text>
<text text-anchor="start" x="178" y="-42.8" font-family="Helvetica,sans-Serif" font-size="9.00"># processmessages()</text>
<text text-anchor="start" x="178" y="-32.8" font-family="Helvetica,sans-Serif" font-size="9.00"># processoutputdirectory()</text>
</a>
</g>
</g>
<!-- Node1&#45;&gt;Node3 -->
<g id="edge3" class="edge"><title>Node1&#45;&gt;Node3</title>
<path fill="none" stroke="midnightblue" d="M202.477,-163.727C211.042,-145.085 219.663,-126.322 226.947,-110.469"/>
<polygon fill="none" stroke="midnightblue" points="199.277,-162.308 198.282,-172.856 205.638,-165.231 199.277,-162.308"/>
</g>
</g>
</svg>
