<?xml version="1.0" encoding="UTF-8" standalone="no"?>
<!DOCTYPE svg PUBLIC "-//W3C//DTD SVG 1.1//EN"
 "http://www.w3.org/Graphics/SVG/1.1/DTD/svg11.dtd">
<!-- Generated by graphviz version 2.36.0 (20140111.2315)
 -->
<!-- Title: de.flashpixx.rrd_antlr4.generator.CPlugin Pages: 1 -->
<svg width="318pt" height="470pt"
 viewBox="0.00 0.00 318.00 470.00" xmlns="http://www.w3.org/2000/svg" xmlns:xlink="http://www.w3.org/1999/xlink">
<g id="graph0" class="graph" transform="scale(1 1) rotate(0) translate(4 466)">
<title>de.flashpixx.rrd_antlr4.generator.CPlugin</title>
<!-- Node3 -->
<g id="node1" class="node"><title>Node3</title>
<polygon fill="#bfbfbf" stroke="black" points="82,-1 82,-135 234,-135 234,-1 82,-1"/>
<text text-anchor="start" x="90" y="-123.8" font-family="Helvetica,sans-Serif" font-size="9.00">de.flashpixx.rrd_antlr4.generator.</text>
<text text-anchor="middle" x="158" y="-113.8" font-family="Helvetica,sans-Serif" font-size="9.00">CPlugin</text>
<polyline fill="none" stroke="black" points="82,-107 234,-107 "/>
<text text-anchor="start" x="90" y="-95.8" font-family="Helvetica,sans-Serif" font-size="9.00">&#45; m_files</text>
<text text-anchor="start" x="90" y="-85.8" font-family="Helvetica,sans-Serif" font-size="9.00">&#45; m_grammarbase</text>
<text text-anchor="start" x="90" y="-75.8" font-family="Helvetica,sans-Serif" font-size="9.00">&#45; m_report</text>
<text text-anchor="start" x="90" y="-65.8" font-family="Helvetica,sans-Serif" font-size="9.00">&#45; m_reportdirectory</text>
<text text-anchor="start" x="90" y="-55.8" font-family="Helvetica,sans-Serif" font-size="9.00">&#45; m_reporttitle</text>
<polyline fill="none" stroke="black" points="82,-49 234,-49 "/>
<text text-anchor="start" x="90" y="-37.8" font-family="Helvetica,sans-Serif" font-size="9.00">+ CPlugin()</text>
<text text-anchor="start" x="90" y="-27.8" font-family="Helvetica,sans-Serif" font-size="9.00">+ finish()</text>
<text text-anchor="start" x="90" y="-17.8" font-family="Helvetica,sans-Serif" font-size="9.00"># processmessages()</text>
<text text-anchor="start" x="90" y="-7.8" font-family="Helvetica,sans-Serif" font-size="9.00"># processoutputdirectory()</text>
</g>
<!-- Node4 -->
<g id="node2" class="node"><title>Node4</title>
<g id="a_node2"><a xlink:href="../../d8/d1c/classde_1_1flashpixx_1_1rrd__antlr4_1_1generator_1_1IBaseGenerator.html" target="_top" xlink:title="base generator class with default definitions ">
<polygon fill="none" stroke="black" points="82,-175 82,-329 234,-329 234,-175 82,-175"/>
<text text-anchor="start" x="90" y="-317.8" font-family="Helvetica,sans-Serif" font-size="9.00">de.flashpixx.rrd_antlr4.generator.</text>
<text text-anchor="middle" x="158" y="-307.8" font-family="Helvetica,sans-Serif" font-size="9.00">IBaseGenerator</text>
<polyline fill="none" stroke="black" points="82,-301 234,-301 "/>
<text text-anchor="start" x="90" y="-289.8" font-family="Helvetica,sans-Serif" font-size="9.00"># m_baseoutput</text>
<text text-anchor="start" x="90" y="-279.8" font-family="Helvetica,sans-Serif" font-size="9.00"># m_error</text>
<text text-anchor="start" x="90" y="-269.8" font-family="Helvetica,sans-Serif" font-size="9.00"># m_templates</text>
<text text-anchor="start" x="90" y="-259.8" font-family="Helvetica,sans-Serif" font-size="9.00">&#45; m_docuclean</text>
<text text-anchor="start" x="90" y="-249.8" font-family="Helvetica,sans-Serif" font-size="9.00">&#45; m_imports</text>
<polyline fill="none" stroke="black" points="82,-243 234,-243 "/>
<text text-anchor="start" x="90" y="-231.8" font-family="Helvetica,sans-Serif" font-size="9.00">+ finish()</text>
<text text-anchor="start" x="90" y="-221.8" font-family="Helvetica,sans-Serif" font-size="9.00">+ generate()</text>
<text text-anchor="start" x="90" y="-211.8" font-family="Helvetica,sans-Serif" font-size="9.00">+ hasError()</text>
<text text-anchor="start" x="90" y="-201.8" font-family="Helvetica,sans-Serif" font-size="9.00"># IBaseGenerator()</text>
<text text-anchor="start" x="90" y="-191.8" font-family="Helvetica,sans-Serif" font-size="9.00"># processmessages()</text>
<text text-anchor="start" x="90" y="-181.8" font-family="Helvetica,sans-Serif" font-size="9.00"># processoutputdirectory()</text>
</a>
</g>
</g>
<!-- Node4&#45;&gt;Node3 -->
<g id="edge1" class="edge"><title>Node4&#45;&gt;Node3</title>
<path fill="none" stroke="midnightblue" d="M158,-164.634C158,-154.767 158,-144.828 158,-135.281"/>
<polygon fill="none" stroke="midnightblue" points="154.5,-164.87 158,-174.87 161.5,-164.87 154.5,-164.87"/>
</g>
<!-- Node5 -->
<g id="node3" class="node"><title>Node5</title>
<g id="a_node3"><a xlink:href="../../df/dd6/interfacede_1_1flashpixx_1_1rrd__antlr4_1_1generator_1_1IGenerator.html" target="_top" xlink:title="interface to generate data ">
<polygon fill="none" stroke="black" points="0,-377 0,-461 152,-461 152,-377 0,-377"/>
<text text-anchor="start" x="8" y="-449.8" font-family="Helvetica,sans-Serif" font-size="9.00">de.flashpixx.rrd_antlr4.generator.</text>
<text text-anchor="middle" x="76" y="-439.8" font-family="Helvetica,sans-Serif" font-size="9.00">IGenerator</text>
<polyline fill="none" stroke="black" points="0,-433 152,-433 "/>
<text text-anchor="middle" x="76" y="-421.8" font-family="Helvetica,sans-Serif" font-size="9.00"> </text>
<polyline fill="none" stroke="black" points="0,-415 152,-415 "/>
<text text-anchor="start" x="8" y="-403.8" font-family="Helvetica,sans-Serif" font-size="9.00">+ finish()</text>
<text text-anchor="start" x="8" y="-393.8" font-family="Helvetica,sans-Serif" font-size="9.00">+ generate()</text>
<text text-anchor="start" x="8" y="-383.8" font-family="Helvetica,sans-Serif" font-size="9.00">+ hasError()</text>
</a>
</g>
</g>
<!-- Node5&#45;&gt;Node4 -->
<g id="edge2" class="edge"><title>Node5&#45;&gt;Node4</title>
<path fill="none" stroke="midnightblue" d="M101.005,-367.686C107.077,-355.468 113.704,-342.133 120.221,-329.018"/>
<polygon fill="none" stroke="midnightblue" points="97.7967,-366.276 96.4805,-376.789 104.065,-369.392 97.7967,-366.276"/>
</g>
<!-- Node6 -->
<g id="node4" class="node"><title>Node6</title>
<g id="a_node4"><a xlink:href="../../d9/d6b/classde_1_1flashpixx_1_1rrd__antlr4_1_1engine_1_1CEngine.html" target="_top" xlink:title="template engine ">
<polygon fill="none" stroke="black" points="170,-382 170,-456 310,-456 310,-382 170,-382"/>
<text text-anchor="start" x="178" y="-444.8" font-family="Helvetica,sans-Serif" font-size="9.00">de.flashpixx.rrd_antlr4.engine.</text>
<text text-anchor="middle" x="240" y="-434.8" font-family="Helvetica,sans-Serif" font-size="9.00">CEngine</text>
<polyline fill="none" stroke="black" points="170,-428 310,-428 "/>
<text text-anchor="middle" x="240" y="-416.8" font-family="Helvetica,sans-Serif" font-size="9.00"> </text>
<polyline fill="none" stroke="black" points="170,-410 310,-410 "/>
<text text-anchor="start" x="178" y="-398.8" font-family="Helvetica,sans-Serif" font-size="9.00">+ generate()</text>
<text text-anchor="start" x="178" y="-388.8" font-family="Helvetica,sans-Serif" font-size="9.00">&#45; parse()</text>
</a>
</g>
</g>
<!-- Node6&#45;&gt;Node4 -->
<g id="edge3" class="edge"><title>Node6&#45;&gt;Node4</title>
<path fill="none" stroke="#404040" d="M222.005,-381.79C215.783,-369.271 208.517,-354.649 201.157,-339.84"/>
<polygon fill="none" stroke="#404040" points="201.136,-339.798 194.884,-336.205 195.795,-329.052 202.048,-332.645 201.136,-339.798"/>
<text text-anchor="middle" x="228" y="-350.8" font-family="Helvetica,sans-Serif" font-size="9.00"> &#45;ENGINE</text>
</g>
</g>
</svg>
