<?xml version="1.0" encoding="UTF-8" standalone="no"?>
<!DOCTYPE svg PUBLIC "-//W3C//DTD SVG 1.1//EN"
 "http://www.w3.org/Graphics/SVG/1.1/DTD/svg11.dtd">
<!-- Generated by graphviz version 2.36.0 (20140111.2315)
 -->
<!-- Title: de.flashpixx.rrd_antlr4.antlr.IGrammarComplexElement.id Pages: 1 -->
<svg width="360pt" height="177pt"
 viewBox="0.00 0.00 360.00 177.00" xmlns="http://www.w3.org/2000/svg" xmlns:xlink="http://www.w3.org/1999/xlink">
<g id="graph0" class="graph" transform="scale(1 1) rotate(0) translate(4 173)">
<title>de.flashpixx.rrd_antlr4.antlr.IGrammarComplexElement.id</title>
<!-- Node6 -->
<g id="node1" class="node"><title>Node6</title>
<polygon fill="#bfbfbf" stroke="black" points="0.5,-70 0.5,-98 137.5,-98 137.5,-70 0.5,-70"/>
<text text-anchor="start" x="8.5" y="-86.8" font-family="Helvetica,sans-Serif" font-size="9.00">de.flashpixx.rrd_antlr4.antlr.</text>
<text text-anchor="middle" x="69" y="-76.8" font-family="Helvetica,sans-Serif" font-size="9.00">IGrammarComplexElement.id</text>
</g>
<!-- Node7 -->
<g id="node2" class="node"><title>Node7</title>
<g id="a_node2"><a xlink:href="../../da/d63/classde_1_1flashpixx_1_1rrd__antlr4_1_1engine_1_1template_1_1CLaTeXSyntax.html#a7f1b2a77fcff93135d1dab1a98e0eab0" target="_top" xlink:title="is called if any grammar element is completed ">
<polygon fill="none" stroke="black" points="174,-141 174,-169 352,-169 352,-141 174,-141"/>
<text text-anchor="start" x="182" y="-157.8" font-family="Helvetica,sans-Serif" font-size="9.00">de.flashpixx.rrd_antlr4.engine.template.</text>
<text text-anchor="middle" x="263" y="-147.8" font-family="Helvetica,sans-Serif" font-size="9.00">CLaTeXSyntax.element</text>
</a>
</g>
</g>
<!-- Node6&#45;&gt;Node7 -->
<g id="edge1" class="edge"><title>Node6&#45;&gt;Node7</title>
<path fill="none" stroke="midnightblue" d="M107.358,-102.615C126.904,-111.909 151.409,-122.872 174,-131 183.984,-134.592 194.769,-137.947 205.253,-140.944"/>
<polygon fill="midnightblue" stroke="midnightblue" points="108.72,-99.3866 98.1909,-98.2067 105.686,-105.695 108.72,-99.3866"/>
</g>
<!-- Node8 -->
<g id="node3" class="node"><title>Node8</title>
<g id="a_node3"><a xlink:href="../../df/db0/classde_1_1flashpixx_1_1rrd__antlr4_1_1engine_1_1template_1_1CHTML.html#a4a9260119c44dc505e7d8269f408bb4a" target="_top" xlink:title="is called if any grammar element is completed ">
<polygon fill="none" stroke="black" points="174,-94 174,-122 352,-122 352,-94 174,-94"/>
<text text-anchor="start" x="182" y="-110.8" font-family="Helvetica,sans-Serif" font-size="9.00">de.flashpixx.rrd_antlr4.engine.template.</text>
<text text-anchor="middle" x="263" y="-100.8" font-family="Helvetica,sans-Serif" font-size="9.00">CHTML.element</text>
</a>
</g>
</g>
<!-- Node6&#45;&gt;Node8 -->
<g id="edge2" class="edge"><title>Node6&#45;&gt;Node8</title>
<path fill="none" stroke="midnightblue" d="M147.658,-93.7073C156.242,-94.7803 165.029,-95.8787 173.731,-96.9664"/>
<polygon fill="midnightblue" stroke="midnightblue" points="148.049,-90.229 137.692,-92.4615 147.181,-97.1749 148.049,-90.229"/>
</g>
<!-- Node9 -->
<g id="node4" class="node"><title>Node9</title>
<g id="a_node4"><a xlink:href="../../da/d63/classde_1_1flashpixx_1_1rrd__antlr4_1_1engine_1_1template_1_1CLaTeXSyntax.html#af67e20f51735f5e721e494e7f9752c8d" target="_top" xlink:title="postprocessing (after AST visiting) ">
<polygon fill="none" stroke="black" points="174,-47 174,-75 352,-75 352,-47 174,-47"/>
<text text-anchor="start" x="182" y="-63.8" font-family="Helvetica,sans-Serif" font-size="9.00">de.flashpixx.rrd_antlr4.engine.template.</text>
<text text-anchor="middle" x="263" y="-53.8" font-family="Helvetica,sans-Serif" font-size="9.00">CLaTeXSyntax.postprocess</text>
</a>
</g>
</g>
<!-- Node6&#45;&gt;Node9 -->
<g id="edge3" class="edge"><title>Node6&#45;&gt;Node9</title>
<path fill="none" stroke="midnightblue" d="M147.658,-74.6972C156.242,-73.6689 165.029,-72.6163 173.731,-71.5739"/>
<polygon fill="midnightblue" stroke="midnightblue" points="147.205,-71.2264 137.692,-75.8911 148.037,-78.1767 147.205,-71.2264"/>
</g>
<!-- Node10 -->
<g id="node5" class="node"><title>Node10</title>
<g id="a_node5"><a xlink:href="../../df/db0/classde_1_1flashpixx_1_1rrd__antlr4_1_1engine_1_1template_1_1CHTML.html#aa7507dba1f5f25745319524e2514dbc0" target="_top" xlink:title="postprocessing (after AST visiting) ">
<polygon fill="none" stroke="black" points="174,-0 174,-28 352,-28 352,-0 174,-0"/>
<text text-anchor="start" x="182" y="-16.8" font-family="Helvetica,sans-Serif" font-size="9.00">de.flashpixx.rrd_antlr4.engine.template.</text>
<text text-anchor="middle" x="263" y="-6.8" font-family="Helvetica,sans-Serif" font-size="9.00">CHTML.postprocess</text>
</a>
</g>
</g>
<!-- Node6&#45;&gt;Node10 -->
<g id="edge4" class="edge"><title>Node6&#45;&gt;Node10</title>
<path fill="none" stroke="midnightblue" d="M107.815,-65.6319C127.302,-56.5892 151.617,-45.9515 174,-38 183.998,-34.4483 194.79,-31.1117 205.276,-28.121"/>
<polygon fill="midnightblue" stroke="midnightblue" points="106.232,-62.5082 98.6659,-69.9242 109.206,-68.8455 106.232,-62.5082"/>
</g>
</g>
</svg>
