<?xml version="1.0" encoding="UTF-8" standalone="no"?>
<!DOCTYPE svg PUBLIC "-//W3C//DTD SVG 1.1//EN"
 "http://www.w3.org/Graphics/SVG/1.1/DTD/svg11.dtd">
<!-- Generated by graphviz version 2.36.0 (20140111.2315)
 -->
<!-- Title: de.flashpixx.rrd_antlr4.antlr.IGrammarCollection Pages: 1 -->
<svg width="596pt" height="480pt"
 viewBox="0.00 0.00 596.00 480.00" xmlns="http://www.w3.org/2000/svg" xmlns:xlink="http://www.w3.org/1999/xlink">
<g id="graph0" class="graph" transform="scale(1 1) rotate(0) translate(4 476)">
<title>de.flashpixx.rrd_antlr4.antlr.IGrammarCollection</title>
<!-- Node0 -->
<g id="node1" class="node"><title>Node0</title>
<polygon fill="#bfbfbf" stroke="black" points="233,-295 233,-359 363,-359 363,-295 233,-295"/>
<text text-anchor="start" x="241" y="-347.8" font-family="Helvetica,sans-Serif" font-size="9.00">de.flashpixx.rrd_antlr4.antlr.</text>
<text text-anchor="middle" x="298" y="-337.8" font-family="Helvetica,sans-Serif" font-size="9.00">IGrammarCollection</text>
<polyline fill="none" stroke="black" points="233,-331 363,-331 "/>
<text text-anchor="middle" x="298" y="-319.8" font-family="Helvetica,sans-Serif" font-size="9.00"> </text>
<polyline fill="none" stroke="black" points="233,-313 363,-313 "/>
<text text-anchor="start" x="241" y="-301.8" font-family="Helvetica,sans-Serif" font-size="9.00">+ get()</text>
</g>
<!-- Node2 -->
<g id="node3" class="node"><title>Node2</title>
<g id="a_node3"><a xlink:href="../../d5/d4c/classde_1_1flashpixx_1_1rrd__antlr4_1_1antlr_1_1CGrammarEmptyCollection.html" target="_top" xlink:title="empty grammar collection ">
<polygon fill="none" stroke="black" points="0,-133 0,-257 140,-257 140,-133 0,-133"/>
<text text-anchor="start" x="8" y="-245.8" font-family="Helvetica,sans-Serif" font-size="9.00">de.flashpixx.rrd_antlr4.antlr.</text>
<text text-anchor="middle" x="70" y="-235.8" font-family="Helvetica,sans-Serif" font-size="9.00">CGrammarEmptyCollection</text>
<polyline fill="none" stroke="black" points="0,-229 140,-229 "/>
<text text-anchor="start" x="8" y="-217.8" font-family="Helvetica,sans-Serif" font-size="9.00">&#45; INSTANCE</text>
<polyline fill="none" stroke="black" points="0,-211 140,-211 "/>
<text text-anchor="start" x="8" y="-199.8" font-family="Helvetica,sans-Serif" font-size="9.00">+ cardinality()</text>
<text text-anchor="start" x="8" y="-189.8" font-family="Helvetica,sans-Serif" font-size="9.00">+ cardinality()</text>
<text text-anchor="start" x="8" y="-179.8" font-family="Helvetica,sans-Serif" font-size="9.00">+ equals()</text>
<text text-anchor="start" x="8" y="-169.8" font-family="Helvetica,sans-Serif" font-size="9.00">+ get()</text>
<text text-anchor="start" x="8" y="-159.8" font-family="Helvetica,sans-Serif" font-size="9.00">+ hashCode()</text>
<text text-anchor="start" x="8" y="-149.8" font-family="Helvetica,sans-Serif" font-size="9.00">+ toString()</text>
<text text-anchor="start" x="8" y="-139.8" font-family="Helvetica,sans-Serif" font-size="9.00">&#45; CGrammarEmptyCollection()</text>
</a>
</g>
</g>
<!-- Node0&#45;&gt;Node2 -->
<g id="edge2" class="edge"><title>Node0&#45;&gt;Node2</title>
<path fill="none" stroke="midnightblue" d="M223.629,-296.219C199.217,-285.361 172.368,-272.224 149,-258 146.021,-256.187 143.026,-254.279 140.035,-252.302"/>
<polygon fill="none" stroke="midnightblue" points="222.29,-299.453 232.853,-300.266 225.102,-293.043 222.29,-299.453"/>
</g>
<!-- Node3 -->
<g id="node4" class="node"><title>Node3</title>
<g id="a_node4"><a xlink:href="../../d1/de6/classde_1_1flashpixx_1_1rrd__antlr4_1_1antlr_1_1IGrammarBaseCollection.html" target="_top" xlink:title="abstract class for collection ">
<polygon fill="none" stroke="black" points="306.5,-133 306.5,-257 439.5,-257 439.5,-133 306.5,-133"/>
<text text-anchor="start" x="314.5" y="-245.8" font-family="Helvetica,sans-Serif" font-size="9.00">de.flashpixx.rrd_antlr4.antlr.</text>
<text text-anchor="middle" x="373" y="-235.8" font-family="Helvetica,sans-Serif" font-size="9.00">IGrammarBaseCollection</text>
<polyline fill="none" stroke="black" points="306.5,-229 439.5,-229 "/>
<text text-anchor="start" x="314.5" y="-217.8" font-family="Helvetica,sans-Serif" font-size="9.00"># m_cardinality</text>
<text text-anchor="start" x="314.5" y="-207.8" font-family="Helvetica,sans-Serif" font-size="9.00"># m_data</text>
<polyline fill="none" stroke="black" points="306.5,-201 439.5,-201 "/>
<text text-anchor="start" x="314.5" y="-189.8" font-family="Helvetica,sans-Serif" font-size="9.00">+ cardinality()</text>
<text text-anchor="start" x="314.5" y="-179.8" font-family="Helvetica,sans-Serif" font-size="9.00">+ cardinality()</text>
<text text-anchor="start" x="314.5" y="-169.8" font-family="Helvetica,sans-Serif" font-size="9.00">+ equals()</text>
<text text-anchor="start" x="314.5" y="-159.8" font-family="Helvetica,sans-Serif" font-size="9.00">+ get()</text>
<text text-anchor="start" x="314.5" y="-149.8" font-family="Helvetica,sans-Serif" font-size="9.00">+ hashCode()</text>
<text text-anchor="start" x="314.5" y="-139.8" font-family="Helvetica,sans-Serif" font-size="9.00"># IGrammarBaseCollection()</text>
</a>
</g>
</g>
<!-- Node0&#45;&gt;Node3 -->
<g id="edge3" class="edge"><title>Node0&#45;&gt;Node3</title>
<path fill="none" stroke="midnightblue" d="M321.06,-286.03C326.323,-276.906 332.035,-267.006 337.68,-257.221"/>
<polygon fill="none" stroke="midnightblue" points="317.93,-284.451 315.964,-294.862 323.993,-287.949 317.93,-284.451"/>
</g>
<!-- Node6 -->
<g id="node7" class="node"><title>Node6</title>
<g id="a_node7"><a xlink:href="../../de/db0/interfacede_1_1flashpixx_1_1rrd__antlr4_1_1antlr_1_1IGrammarChoice.html" target="_top" xlink:title="grammar element sequence ">
<polygon fill="none" stroke="black" points="158,-163 158,-227 288,-227 288,-163 158,-163"/>
<text text-anchor="start" x="166" y="-215.8" font-family="Helvetica,sans-Serif" font-size="9.00">de.flashpixx.rrd_antlr4.antlr.</text>
<text text-anchor="middle" x="223" y="-205.8" font-family="Helvetica,sans-Serif" font-size="9.00">IGrammarChoice</text>
<polyline fill="none" stroke="black" points="158,-199 288,-199 "/>
<text text-anchor="middle" x="223" y="-187.8" font-family="Helvetica,sans-Serif" font-size="9.00"> </text>
<polyline fill="none" stroke="black" points="158,-181 288,-181 "/>
<text text-anchor="middle" x="223" y="-169.8" font-family="Helvetica,sans-Serif" font-size="9.00"> </text>
</a>
</g>
</g>
<!-- Node0&#45;&gt;Node6 -->
<g id="edge6" class="edge"><title>Node0&#45;&gt;Node6</title>
<path fill="none" stroke="midnightblue" d="M275.019,-286.166C264.114,-267.265 251.273,-245.007 241.078,-227.335"/>
<polygon fill="none" stroke="midnightblue" points="272.007,-287.949 280.036,-294.862 278.07,-284.451 272.007,-287.949"/>
</g>
<!-- Node7 -->
<g id="node8" class="node"><title>Node7</title>
<g id="a_node8"><a xlink:href="../../d8/d61/interfacede_1_1flashpixx_1_1rrd__antlr4_1_1antlr_1_1IGrammarSequence.html" target="_top" xlink:title="grammar element sequence ">
<polygon fill="none" stroke="black" points="458,-163 458,-227 588,-227 588,-163 458,-163"/>
<text text-anchor="start" x="466" y="-215.8" font-family="Helvetica,sans-Serif" font-size="9.00">de.flashpixx.rrd_antlr4.antlr.</text>
<text text-anchor="middle" x="523" y="-205.8" font-family="Helvetica,sans-Serif" font-size="9.00">IGrammarSequence</text>
<polyline fill="none" stroke="black" points="458,-199 588,-199 "/>
<text text-anchor="middle" x="523" y="-187.8" font-family="Helvetica,sans-Serif" font-size="9.00"> </text>
<polyline fill="none" stroke="black" points="458,-181 588,-181 "/>
<text text-anchor="middle" x="523" y="-169.8" font-family="Helvetica,sans-Serif" font-size="9.00"> </text>
</a>
</g>
</g>
<!-- Node0&#45;&gt;Node7 -->
<g id="edge8" class="edge"><title>Node0&#45;&gt;Node7</title>
<path fill="none" stroke="midnightblue" d="M372.415,-296.923C397.188,-286.037 424.452,-272.705 448,-258 462.33,-249.052 476.908,-237.634 489.355,-227.041"/>
<polygon fill="none" stroke="midnightblue" points="370.843,-293.789 363.056,-300.973 373.623,-300.214 370.843,-293.789"/>
</g>
<!-- Node1 -->
<g id="node2" class="node"><title>Node1</title>
<g id="a_node2"><a xlink:href="../../dd/da7/interfacede_1_1flashpixx_1_1rrd__antlr4_1_1antlr_1_1IGrammarElement.html" target="_top" xlink:title="any grammar element ">
<polygon fill="none" stroke="black" points="233,-397 233,-471 363,-471 363,-397 233,-397"/>
<text text-anchor="start" x="241" y="-459.8" font-family="Helvetica,sans-Serif" font-size="9.00">de.flashpixx.rrd_antlr4.antlr.</text>
<text text-anchor="middle" x="298" y="-449.8" font-family="Helvetica,sans-Serif" font-size="9.00">IGrammarElement</text>
<polyline fill="none" stroke="black" points="233,-443 363,-443 "/>
<text text-anchor="middle" x="298" y="-431.8" font-family="Helvetica,sans-Serif" font-size="9.00"> </text>
<polyline fill="none" stroke="black" points="233,-425 363,-425 "/>
<text text-anchor="start" x="241" y="-413.8" font-family="Helvetica,sans-Serif" font-size="9.00">+ cardinality()</text>
<text text-anchor="start" x="241" y="-403.8" font-family="Helvetica,sans-Serif" font-size="9.00">+ cardinality()</text>
</a>
</g>
</g>
<!-- Node1&#45;&gt;Node0 -->
<g id="edge1" class="edge"><title>Node1&#45;&gt;Node0</title>
<path fill="none" stroke="midnightblue" d="M298,-386.608C298,-377.372 298,-367.88 298,-359.297"/>
<polygon fill="none" stroke="midnightblue" points="294.5,-386.865 298,-396.865 301.5,-386.865 294.5,-386.865"/>
</g>
<!-- Node4 -->
<g id="node5" class="node"><title>Node4</title>
<g id="a_node5"><a xlink:href="../../df/d2c/classde_1_1flashpixx_1_1rrd__antlr4_1_1antlr_1_1CGrammarChoice.html" target="_top" xlink:title="grammar choice ">
<polygon fill="none" stroke="black" points="233,-1 233,-95 363,-95 363,-1 233,-1"/>
<text text-anchor="start" x="241" y="-83.8" font-family="Helvetica,sans-Serif" font-size="9.00">de.flashpixx.rrd_antlr4.antlr.</text>
<text text-anchor="middle" x="298" y="-73.8" font-family="Helvetica,sans-Serif" font-size="9.00">CGrammarChoice</text>
<polyline fill="none" stroke="black" points="233,-67 363,-67 "/>
<text text-anchor="middle" x="298" y="-55.8" font-family="Helvetica,sans-Serif" font-size="9.00"> </text>
<polyline fill="none" stroke="black" points="233,-49 363,-49 "/>
<text text-anchor="start" x="241" y="-37.8" font-family="Helvetica,sans-Serif" font-size="9.00">+ CGrammarChoice()</text>
<text text-anchor="start" x="241" y="-27.8" font-family="Helvetica,sans-Serif" font-size="9.00">+ CGrammarChoice()</text>
<text text-anchor="start" x="241" y="-17.8" font-family="Helvetica,sans-Serif" font-size="9.00">+ CGrammarChoice()</text>
<text text-anchor="start" x="241" y="-7.8" font-family="Helvetica,sans-Serif" font-size="9.00">+ toString()</text>
</a>
</g>
</g>
<!-- Node3&#45;&gt;Node4 -->
<g id="edge4" class="edge"><title>Node3&#45;&gt;Node4</title>
<path fill="none" stroke="midnightblue" d="M336.764,-123.944C331.684,-114.121 326.572,-104.239 321.803,-95.019"/>
<polygon fill="none" stroke="midnightblue" points="333.708,-125.653 341.411,-132.927 339.925,-122.437 333.708,-125.653"/>
</g>
<!-- Node5 -->
<g id="node6" class="node"><title>Node5</title>
<g id="a_node6"><a xlink:href="../../dc/df3/classde_1_1flashpixx_1_1rrd__antlr4_1_1antlr_1_1CGrammarSequence.html" target="_top" xlink:title="grammar sequence ">
<polygon fill="none" stroke="black" points="382,-1 382,-95 512,-95 512,-1 382,-1"/>
<text text-anchor="start" x="390" y="-83.8" font-family="Helvetica,sans-Serif" font-size="9.00">de.flashpixx.rrd_antlr4.antlr.</text>
<text text-anchor="middle" x="447" y="-73.8" font-family="Helvetica,sans-Serif" font-size="9.00">CGrammarSequence</text>
<polyline fill="none" stroke="black" points="382,-67 512,-67 "/>
<text text-anchor="middle" x="447" y="-55.8" font-family="Helvetica,sans-Serif" font-size="9.00"> </text>
<polyline fill="none" stroke="black" points="382,-49 512,-49 "/>
<text text-anchor="start" x="390" y="-37.8" font-family="Helvetica,sans-Serif" font-size="9.00">+ CGrammarSequence()</text>
<text text-anchor="start" x="390" y="-27.8" font-family="Helvetica,sans-Serif" font-size="9.00">+ CGrammarSequence()</text>
<text text-anchor="start" x="390" y="-17.8" font-family="Helvetica,sans-Serif" font-size="9.00">+ CGrammarSequence()</text>
<text text-anchor="start" x="390" y="-7.8" font-family="Helvetica,sans-Serif" font-size="9.00">+ toString()</text>
</a>
</g>
</g>
<!-- Node3&#45;&gt;Node5 -->
<g id="edge5" class="edge"><title>Node3&#45;&gt;Node5</title>
<path fill="none" stroke="midnightblue" d="M408.753,-123.944C413.766,-114.121 418.809,-104.239 423.514,-95.019"/>
<polygon fill="none" stroke="midnightblue" points="405.596,-122.429 404.168,-132.927 411.831,-125.611 405.596,-122.429"/>
</g>
<!-- Node6&#45;&gt;Node4 -->
<g id="edge7" class="edge"><title>Node6&#45;&gt;Node4</title>
<path fill="none" stroke="midnightblue" d="M243.825,-153.738C253.219,-135.576 264.367,-114.024 274.1,-95.2067"/>
<polygon fill="none" stroke="midnightblue" points="240.575,-152.404 239.089,-162.894 246.792,-155.62 240.575,-152.404"/>
</g>
<!-- Node7&#45;&gt;Node5 -->
<g id="edge9" class="edge"><title>Node7&#45;&gt;Node5</title>
<path fill="none" stroke="midnightblue" d="M501.897,-153.738C492.378,-135.576 481.082,-114.024 471.219,-95.2067"/>
<polygon fill="none" stroke="midnightblue" points="498.954,-155.662 506.696,-162.894 505.154,-152.412 498.954,-155.662"/>
</g>
</g>
</svg>
