<?xml version="1.0" encoding="UTF-8" standalone="no"?>
<!DOCTYPE svg PUBLIC "-//W3C//DTD SVG 1.1//EN"
 "http://www.w3.org/Graphics/SVG/1.1/DTD/svg11.dtd">
<!-- Generated by graphviz version 2.36.0 (20140111.2315)
 -->
<!-- Title: de.flashpixx.rrd_antlr4.antlr.CGrammarTerminalValue&lt; T &gt; Pages: 1 -->
<svg width="150pt" height="398pt"
 viewBox="0.00 0.00 150.00 398.00" xmlns="http://www.w3.org/2000/svg" xmlns:xlink="http://www.w3.org/1999/xlink">
<g id="graph0" class="graph" transform="scale(1 1) rotate(0) translate(4 394)">
<title>de.flashpixx.rrd_antlr4.antlr.CGrammarTerminalValue&lt; T &gt;</title>
<!-- Node5 -->
<g id="node1" class="node"><title>Node5</title>
<polygon fill="#bfbfbf" stroke="black" points="0,-1 0,-155 142,-155 142,-1 0,-1"/>
<text text-anchor="start" x="8" y="-143.8" font-family="Helvetica,sans-Serif" font-size="9.00">de.flashpixx.rrd_antlr4.antlr.</text>
<text text-anchor="middle" x="71" y="-133.8" font-family="Helvetica,sans-Serif" font-size="9.00">CGrammarTerminalValue&lt; T &gt;</text>
<polyline fill="none" stroke="black" points="0,-127 142,-127 "/>
<text text-anchor="start" x="8" y="-115.8" font-family="Helvetica,sans-Serif" font-size="9.00">&#45; m_cardinality</text>
<text text-anchor="start" x="8" y="-105.8" font-family="Helvetica,sans-Serif" font-size="9.00">&#45; m_value</text>
<polyline fill="none" stroke="black" points="0,-99 142,-99 "/>
<text text-anchor="start" x="8" y="-87.8" font-family="Helvetica,sans-Serif" font-size="9.00">+ CGrammarTerminalValue()</text>
<text text-anchor="start" x="8" y="-77.8" font-family="Helvetica,sans-Serif" font-size="9.00">+ CGrammarTerminalValue()</text>
<text text-anchor="start" x="8" y="-67.8" font-family="Helvetica,sans-Serif" font-size="9.00">+ cardinality()</text>
<text text-anchor="start" x="8" y="-57.8" font-family="Helvetica,sans-Serif" font-size="9.00">+ cardinality()</text>
<text text-anchor="start" x="8" y="-47.8" font-family="Helvetica,sans-Serif" font-size="9.00">+ equals()</text>
<text text-anchor="start" x="8" y="-37.8" font-family="Helvetica,sans-Serif" font-size="9.00">+ get()</text>
<text text-anchor="start" x="8" y="-27.8" font-family="Helvetica,sans-Serif" font-size="9.00">+ hashCode()</text>
<text text-anchor="start" x="8" y="-17.8" font-family="Helvetica,sans-Serif" font-size="9.00">+ isValueAssignableTo()</text>
<text text-anchor="start" x="8" y="-7.8" font-family="Helvetica,sans-Serif" font-size="9.00">+ toString()</text>
</g>
<!-- Node6 -->
<g id="node2" class="node"><title>Node6</title>
<g id="a_node2"><a xlink:href="../../dd/d41/interfacede_1_1flashpixx_1_1rrd__antlr4_1_1antlr_1_1IGrammarSimpleElement.html" target="_top" xlink:title="a simple grammar element ">
<polygon fill="none" stroke="black" points="0.5,-193 0.5,-277 141.5,-277 141.5,-193 0.5,-193"/>
<text text-anchor="start" x="8.5" y="-265.8" font-family="Helvetica,sans-Serif" font-size="9.00">de::flashpixx::rrd</text>
<text text-anchor="start" x="8.5" y="-255.8" font-family="Helvetica,sans-Serif" font-size="9.00">_antlr4::antlr::IGrammarSimple</text>
<text text-anchor="middle" x="71" y="-245.8" font-family="Helvetica,sans-Serif" font-size="9.00">Element&lt; T &gt;</text>
<polyline fill="none" stroke="black" points="0.5,-239 141.5,-239 "/>
<text text-anchor="middle" x="71" y="-227.8" font-family="Helvetica,sans-Serif" font-size="9.00"> </text>
<polyline fill="none" stroke="black" points="0.5,-221 141.5,-221 "/>
<text text-anchor="start" x="8.5" y="-209.8" font-family="Helvetica,sans-Serif" font-size="9.00">+ get()</text>
<text text-anchor="start" x="8.5" y="-199.8" font-family="Helvetica,sans-Serif" font-size="9.00">+ isValueAssignableTo()</text>
</a>
</g>
</g>
<!-- Node6&#45;&gt;Node5 -->
<g id="edge1" class="edge"><title>Node6&#45;&gt;Node5</title>
<path fill="none" stroke="midnightblue" d="M71,-182.728C71,-173.857 71,-164.467 71,-155.104"/>
<polygon fill="none" stroke="midnightblue" points="67.5001,-182.87 71,-192.87 74.5001,-182.87 67.5001,-182.87"/>
</g>
<!-- Node7 -->
<g id="node3" class="node"><title>Node7</title>
<g id="a_node3"><a xlink:href="../../dd/da7/interfacede_1_1flashpixx_1_1rrd__antlr4_1_1antlr_1_1IGrammarElement.html" target="_top" xlink:title="any grammar element ">
<polygon fill="none" stroke="black" points="6,-315 6,-389 136,-389 136,-315 6,-315"/>
<text text-anchor="start" x="14" y="-377.8" font-family="Helvetica,sans-Serif" font-size="9.00">de.flashpixx.rrd_antlr4.antlr.</text>
<text text-anchor="middle" x="71" y="-367.8" font-family="Helvetica,sans-Serif" font-size="9.00">IGrammarElement</text>
<polyline fill="none" stroke="black" points="6,-361 136,-361 "/>
<text text-anchor="middle" x="71" y="-349.8" font-family="Helvetica,sans-Serif" font-size="9.00"> </text>
<polyline fill="none" stroke="black" points="6,-343 136,-343 "/>
<text text-anchor="start" x="14" y="-331.8" font-family="Helvetica,sans-Serif" font-size="9.00">+ cardinality()</text>
<text text-anchor="start" x="14" y="-321.8" font-family="Helvetica,sans-Serif" font-size="9.00">+ cardinality()</text>
</a>
</g>
</g>
<!-- Node7&#45;&gt;Node6 -->
<g id="edge2" class="edge"><title>Node7&#45;&gt;Node6</title>
<path fill="none" stroke="midnightblue" d="M71,-304.821C71,-295.673 71,-286.127 71,-277.159"/>
<polygon fill="none" stroke="midnightblue" points="67.5001,-304.929 71,-314.929 74.5001,-304.929 67.5001,-304.929"/>
</g>
</g>
</svg>
