<?xml version="1.0" encoding="UTF-8" standalone="no"?>
<!DOCTYPE svg PUBLIC "-//W3C//DTD SVG 1.1//EN"
 "http://www.w3.org/Graphics/SVG/1.1/DTD/svg11.dtd">
<!-- Generated by graphviz version 2.36.0 (20140111.2315)
 -->
<!-- Title: de.flashpixx.rrd_antlr4.antlr.CGrammarEmptyCollection Pages: 1 -->
<svg width="148pt" height="348pt"
 viewBox="0.00 0.00 148.00 348.00" xmlns="http://www.w3.org/2000/svg" xmlns:xlink="http://www.w3.org/1999/xlink">
<g id="graph0" class="graph" transform="scale(1 1) rotate(0) translate(4 344)">
<title>de.flashpixx.rrd_antlr4.antlr.CGrammarEmptyCollection</title>
<!-- Node0 -->
<g id="node1" class="node"><title>Node0</title>
<polygon fill="#bfbfbf" stroke="black" points="0,-1 0,-125 140,-125 140,-1 0,-1"/>
<text text-anchor="start" x="8" y="-113.8" font-family="Helvetica,sans-Serif" font-size="9.00">de.flashpixx.rrd_antlr4.antlr.</text>
<text text-anchor="middle" x="70" y="-103.8" font-family="Helvetica,sans-Serif" font-size="9.00">CGrammarEmptyCollection</text>
<polyline fill="none" stroke="black" points="0,-97 140,-97 "/>
<text text-anchor="start" x="8" y="-85.8" font-family="Helvetica,sans-Serif" font-size="9.00">&#45; INSTANCE</text>
<polyline fill="none" stroke="black" points="0,-79 140,-79 "/>
<text text-anchor="start" x="8" y="-67.8" font-family="Helvetica,sans-Serif" font-size="9.00">+ cardinality()</text>
<text text-anchor="start" x="8" y="-57.8" font-family="Helvetica,sans-Serif" font-size="9.00">+ cardinality()</text>
<text text-anchor="start" x="8" y="-47.8" font-family="Helvetica,sans-Serif" font-size="9.00">+ equals()</text>
<text text-anchor="start" x="8" y="-37.8" font-family="Helvetica,sans-Serif" font-size="9.00">+ get()</text>
<text text-anchor="start" x="8" y="-27.8" font-family="Helvetica,sans-Serif" font-size="9.00">+ hashCode()</text>
<text text-anchor="start" x="8" y="-17.8" font-family="Helvetica,sans-Serif" font-size="9.00">+ toString()</text>
<text text-anchor="start" x="8" y="-7.8" font-family="Helvetica,sans-Serif" font-size="9.00">&#45; CGrammarEmptyCollection()</text>
</g>
<!-- Node1 -->
<g id="node2" class="node"><title>Node1</title>
<g id="a_node2"><a xlink:href="../../da/dbc/interfacede_1_1flashpixx_1_1rrd__antlr4_1_1antlr_1_1IGrammarCollection.html" target="_top" xlink:title="interface of grammar collection elements ">
<polygon fill="none" stroke="black" points="5,-163 5,-227 135,-227 135,-163 5,-163"/>
<text text-anchor="start" x="13" y="-215.8" font-family="Helvetica,sans-Serif" font-size="9.00">de.flashpixx.rrd_antlr4.antlr.</text>
<text text-anchor="middle" x="70" y="-205.8" font-family="Helvetica,sans-Serif" font-size="9.00">IGrammarCollection</text>
<polyline fill="none" stroke="black" points="5,-199 135,-199 "/>
<text text-anchor="middle" x="70" y="-187.8" font-family="Helvetica,sans-Serif" font-size="9.00"> </text>
<polyline fill="none" stroke="black" points="5,-181 135,-181 "/>
<text text-anchor="start" x="13" y="-169.8" font-family="Helvetica,sans-Serif" font-size="9.00">+ get()</text>
</a>
</g>
</g>
<!-- Node1&#45;&gt;Node0 -->
<g id="edge1" class="edge"><title>Node1&#45;&gt;Node0</title>
<path fill="none" stroke="midnightblue" d="M70,-152.598C70,-143.875 70,-134.497 70,-125.221"/>
<polygon fill="none" stroke="midnightblue" points="66.5001,-152.862 70,-162.862 73.5001,-152.862 66.5001,-152.862"/>
</g>
<!-- Node2 -->
<g id="node3" class="node"><title>Node2</title>
<g id="a_node3"><a xlink:href="../../dd/da7/interfacede_1_1flashpixx_1_1rrd__antlr4_1_1antlr_1_1IGrammarElement.html" target="_top" xlink:title="any grammar element ">
<polygon fill="none" stroke="black" points="5,-265 5,-339 135,-339 135,-265 5,-265"/>
<text text-anchor="start" x="13" y="-327.8" font-family="Helvetica,sans-Serif" font-size="9.00">de.flashpixx.rrd_antlr4.antlr.</text>
<text text-anchor="middle" x="70" y="-317.8" font-family="Helvetica,sans-Serif" font-size="9.00">IGrammarElement</text>
<polyline fill="none" stroke="black" points="5,-311 135,-311 "/>
<text text-anchor="middle" x="70" y="-299.8" font-family="Helvetica,sans-Serif" font-size="9.00"> </text>
<polyline fill="none" stroke="black" points="5,-293 135,-293 "/>
<text text-anchor="start" x="13" y="-281.8" font-family="Helvetica,sans-Serif" font-size="9.00">+ cardinality()</text>
<text text-anchor="start" x="13" y="-271.8" font-family="Helvetica,sans-Serif" font-size="9.00">+ cardinality()</text>
</a>
</g>
</g>
<!-- Node2&#45;&gt;Node1 -->
<g id="edge2" class="edge"><title>Node2&#45;&gt;Node1</title>
<path fill="none" stroke="midnightblue" d="M70,-254.608C70,-245.372 70,-235.88 70,-227.297"/>
<polygon fill="none" stroke="midnightblue" points="66.5001,-254.865 70,-264.865 73.5001,-254.865 66.5001,-254.865"/>
</g>
</g>
</svg>
