<?xml version="1.0" encoding="UTF-8" standalone="no"?>
<!DOCTYPE svg PUBLIC "-//W3C//DTD SVG 1.1//EN"
 "http://www.w3.org/Graphics/SVG/1.1/DTD/svg11.dtd">
<!-- Generated by graphviz version 2.36.0 (20140111.2315)
 -->
<!-- Title: de.flashpixx.rrd_antlr4.antlr.CASTVisitorAntLR Pages: 1 -->
<svg width="334pt" height="560pt"
 viewBox="0.00 0.00 334.00 560.00" xmlns="http://www.w3.org/2000/svg" xmlns:xlink="http://www.w3.org/1999/xlink">
<g id="graph0" class="graph" transform="scale(1 1) rotate(0) translate(4 556)">
<title>de.flashpixx.rrd_antlr4.antlr.CASTVisitorAntLR</title>
<!-- Node1 -->
<g id="node1" class="node"><title>Node1</title>
<polygon fill="#bfbfbf" stroke="black" points="129,-1 129,-275 259,-275 259,-1 129,-1"/>
<text text-anchor="start" x="137" y="-263.8" font-family="Helvetica,sans-Serif" font-size="9.00">de.flashpixx.rrd_antlr4.antlr.</text>
<text text-anchor="middle" x="194" y="-253.8" font-family="Helvetica,sans-Serif" font-size="9.00">CASTVisitorAntLR</text>
<polyline fill="none" stroke="black" points="129,-247 259,-247 "/>
<text text-anchor="start" x="137" y="-235.8" font-family="Helvetica,sans-Serif" font-size="9.00">&#45; m_docuclean</text>
<text text-anchor="start" x="137" y="-225.8" font-family="Helvetica,sans-Serif" font-size="9.00">&#45; m_imports</text>
<polyline fill="none" stroke="black" points="129,-219 259,-219 "/>
<text text-anchor="start" x="137" y="-207.8" font-family="Helvetica,sans-Serif" font-size="9.00">+ CASTVisitorAntLR()</text>
<text text-anchor="start" x="137" y="-197.8" font-family="Helvetica,sans-Serif" font-size="9.00">+ getGrammarImports()</text>
<text text-anchor="start" x="137" y="-187.8" font-family="Helvetica,sans-Serif" font-size="9.00">+ visitAlternative()</text>
<text text-anchor="start" x="137" y="-177.8" font-family="Helvetica,sans-Serif" font-size="9.00">+ visitAltList()</text>
<text text-anchor="start" x="137" y="-167.8" font-family="Helvetica,sans-Serif" font-size="9.00">+ visitBlock()</text>
<text text-anchor="start" x="137" y="-157.8" font-family="Helvetica,sans-Serif" font-size="9.00">+ visitBlockSet()</text>
<text text-anchor="start" x="137" y="-147.8" font-family="Helvetica,sans-Serif" font-size="9.00">+ visitDelegateGrammar()</text>
<text text-anchor="start" x="137" y="-137.8" font-family="Helvetica,sans-Serif" font-size="9.00">+ visitEbnf()</text>
<text text-anchor="start" x="137" y="-127.8" font-family="Helvetica,sans-Serif" font-size="9.00">+ visitElement()</text>
<text text-anchor="start" x="137" y="-117.8" font-family="Helvetica,sans-Serif" font-size="9.00">+ visitGrammarSpec()</text>
<text text-anchor="start" x="137" y="-107.8" font-family="Helvetica,sans-Serif" font-size="9.00">+ visitId()</text>
<text text-anchor="start" x="137" y="-97.8" font-family="Helvetica,sans-Serif" font-size="9.00">+ visitLexerAlt()</text>
<text text-anchor="start" x="137" y="-87.8" font-family="Helvetica,sans-Serif" font-size="9.00">+ visitLexerAltList()</text>
<text text-anchor="start" x="137" y="-77.8" font-family="Helvetica,sans-Serif" font-size="9.00">+ visitLexerElement()</text>
<text text-anchor="start" x="137" y="-67.8" font-family="Helvetica,sans-Serif" font-size="9.00">+ visitLexerElements()</text>
<text text-anchor="start" x="137" y="-57.8" font-family="Helvetica,sans-Serif" font-size="9.00">+ visitLexerRuleSpec()</text>
<text text-anchor="start" x="137" y="-47.8" font-family="Helvetica,sans-Serif" font-size="9.00">+ visitNotSet()</text>
<text text-anchor="start" x="137" y="-37.8" font-family="Helvetica,sans-Serif" font-size="9.00">+ visitParserRuleSpec()</text>
<text text-anchor="start" x="137" y="-27.8" font-family="Helvetica,sans-Serif" font-size="9.00">+ visitRuleAltList()</text>
<text text-anchor="start" x="137" y="-17.8" font-family="Helvetica,sans-Serif" font-size="9.00">+ visitRuleref()</text>
<text text-anchor="start" x="137" y="-7.8" font-family="Helvetica,sans-Serif" font-size="9.00">+ visitTerminal()</text>
</g>
<!-- Node2 -->
<g id="node2" class="node"><title>Node2</title>
<g id="a_node2"><a xlink:href="../../df/ddb/interfacede_1_1flashpixx_1_1rrd__antlr4_1_1antlr_1_1IGrammarComplexElement.html" target="_top" xlink:title="base interface of a complex grammar element ">
<polygon fill="none" stroke="black" points="0,-343 0,-417 130,-417 130,-343 0,-343"/>
<text text-anchor="start" x="8" y="-405.8" font-family="Helvetica,sans-Serif" font-size="9.00">de.flashpixx.rrd_antlr4.antlr.</text>
<text text-anchor="middle" x="65" y="-395.8" font-family="Helvetica,sans-Serif" font-size="9.00">IGrammarComplexElement</text>
<polyline fill="none" stroke="black" points="0,-389 130,-389 "/>
<text text-anchor="middle" x="65" y="-377.8" font-family="Helvetica,sans-Serif" font-size="9.00"> </text>
<polyline fill="none" stroke="black" points="0,-371 130,-371 "/>
<text text-anchor="start" x="8" y="-359.8" font-family="Helvetica,sans-Serif" font-size="9.00">+ documentation()</text>
<text text-anchor="start" x="8" y="-349.8" font-family="Helvetica,sans-Serif" font-size="9.00">+ id()</text>
</a>
</g>
</g>
<!-- Node2&#45;&gt;Node1 -->
<g id="edge1" class="edge"><title>Node2&#45;&gt;Node1</title>
<path fill="none" stroke="#404040" d="M84.4523,-342.81C95.0777,-323.041 108.961,-297.212 123.257,-270.615"/>
<polygon fill="none" stroke="#404040" points="123.284,-270.565 122.601,-263.386 128.965,-259.995 129.648,-267.174 123.284,-270.565"/>
<text text-anchor="middle" x="138.5" y="-296.8" font-family="Helvetica,sans-Serif" font-size="9.00"> &#45;m_grammar</text>
</g>
<!-- Node3 -->
<g id="node3" class="node"><title>Node3</title>
<g id="a_node3"><a xlink:href="../../dd/da7/interfacede_1_1flashpixx_1_1rrd__antlr4_1_1antlr_1_1IGrammarElement.html" target="_top" xlink:title="any grammar element ">
<polygon fill="none" stroke="black" points="0,-477 0,-551 130,-551 130,-477 0,-477"/>
<text text-anchor="start" x="8" y="-539.8" font-family="Helvetica,sans-Serif" font-size="9.00">de.flashpixx.rrd_antlr4.antlr.</text>
<text text-anchor="middle" x="65" y="-529.8" font-family="Helvetica,sans-Serif" font-size="9.00">IGrammarElement</text>
<polyline fill="none" stroke="black" points="0,-523 130,-523 "/>
<text text-anchor="middle" x="65" y="-511.8" font-family="Helvetica,sans-Serif" font-size="9.00"> </text>
<polyline fill="none" stroke="black" points="0,-505 130,-505 "/>
<text text-anchor="start" x="8" y="-493.8" font-family="Helvetica,sans-Serif" font-size="9.00">+ cardinality()</text>
<text text-anchor="start" x="8" y="-483.8" font-family="Helvetica,sans-Serif" font-size="9.00">+ cardinality()</text>
</a>
</g>
</g>
<!-- Node3&#45;&gt;Node2 -->
<g id="edge2" class="edge"><title>Node3&#45;&gt;Node2</title>
<path fill="none" stroke="midnightblue" d="M65,-466.546C65,-450.292 65,-432.299 65,-417.026"/>
<polygon fill="none" stroke="midnightblue" points="61.5001,-466.93 65,-476.93 68.5001,-466.93 61.5001,-466.93"/>
</g>
<!-- Node4 -->
<g id="node4" class="node"><title>Node4</title>
<g id="a_node4"><a xlink:href="../../d6/d71/interfacede_1_1flashpixx_1_1rrd__antlr4_1_1engine_1_1template_1_1ITemplate.html" target="_top" xlink:title="interface of a template ">
<polygon fill="none" stroke="black" points="148,-323 148,-437 326,-437 326,-323 148,-323"/>
<text text-anchor="start" x="156" y="-425.8" font-family="Helvetica,sans-Serif" font-size="9.00">de.flashpixx.rrd_antlr4.engine.template.</text>
<text text-anchor="middle" x="237" y="-415.8" font-family="Helvetica,sans-Serif" font-size="9.00">ITemplate</text>
<polyline fill="none" stroke="black" points="148,-409 326,-409 "/>
<text text-anchor="middle" x="237" y="-397.8" font-family="Helvetica,sans-Serif" font-size="9.00"> </text>
<polyline fill="none" stroke="black" points="148,-391 326,-391 "/>
<text text-anchor="start" x="156" y="-379.8" font-family="Helvetica,sans-Serif" font-size="9.00">+ element()</text>
<text text-anchor="start" x="156" y="-369.8" font-family="Helvetica,sans-Serif" font-size="9.00">+ grammar()</text>
<text text-anchor="start" x="156" y="-359.8" font-family="Helvetica,sans-Serif" font-size="9.00">+ index()</text>
<text text-anchor="start" x="156" y="-349.8" font-family="Helvetica,sans-Serif" font-size="9.00">+ name()</text>
<text text-anchor="start" x="156" y="-339.8" font-family="Helvetica,sans-Serif" font-size="9.00">+ postprocess()</text>
<text text-anchor="start" x="156" y="-329.8" font-family="Helvetica,sans-Serif" font-size="9.00">+ preprocess()</text>
</a>
</g>
</g>
<!-- Node4&#45;&gt;Node1 -->
<g id="edge3" class="edge"><title>Node4&#45;&gt;Node1</title>
<path fill="none" stroke="#404040" d="M226.918,-322.731C224.943,-311.706 222.787,-299.671 220.553,-287.205"/>
<polygon fill="none" stroke="#404040" points="220.508,-286.953 215.513,-281.752 218.392,-275.141 223.387,-280.341 220.508,-286.953"/>
<text text-anchor="middle" x="250" y="-296.8" font-family="Helvetica,sans-Serif" font-size="9.00"> &#45;m_template</text>
</g>
</g>
</svg>
