<?xml version="1.0" encoding="UTF-8" standalone="no"?>
<!DOCTYPE svg PUBLIC "-//W3C//DTD SVG 1.1//EN"
 "http://www.w3.org/Graphics/SVG/1.1/DTD/svg11.dtd">
<!-- Generated by graphviz version 2.36.0 (20140111.2315)
 -->
<!-- Title: de.flashpixx.rrd_antlr4.antlr.IGrammarIdentifier Pages: 1 -->
<!--zoomable 528 -->
<svg id="main" version="1.1" xmlns="http://www.w3.org/2000/svg" xmlns:xlink="http://www.w3.org/1999/xlink" xml:space="preserve" onload="init(evt)">
<style type="text/css"><![CDATA[
.edge:hover path { stroke: red; }
.edge:hover polygon { stroke: red; fill: red; }
]]></style>
<script type="text/javascript"><![CDATA[
var edges = document.getElementsByTagName('g');
if (edges && edges.length) {
  for (var i=0;i<edges.length;i++) {
    if (edges[i].id.substr(0,4)=='edge') {
      edges[i].setAttribute('class','edge');
    }
  }
}
]]></script>
        <defs>
                <circle id="rim" cx="0" cy="0" r="7"/>
                <circle id="rim2" cx="0" cy="0" r="3.5"/>
                <g id="zoomPlus">
                        <use xlink:href="#rim" fill="#404040">
                                <set attributeName="fill" to="#808080" begin="zoomplus.mouseover" end="zoomplus.mouseout"/>
                        </use>
                        <path d="M-4,0h8M0,-4v8" fill="none" stroke="white" stroke-width="1.5" pointer-events="none"/>
                </g>
                <g id="zoomMin">
                        <use xlink:href="#rim" fill="#404040">
                                <set attributeName="fill" to="#808080" begin="zoomminus.mouseover" end="zoomminus.mouseout"/>
                        </use>
                        <path d="M-4,0h8" fill="none" stroke="white" stroke-width="1.5" pointer-events="none"/>
                </g>
                <g id="dirArrow">
                        <path fill="none" stroke="white" stroke-width="1.5" d="M0,-3.0v7 M-2.5,-0.5L0,-3.0L2.5,-0.5"/>
                </g>
               <g id="resetDef">
                       <use xlink:href="#rim2" fill="#404040">
                               <set attributeName="fill" to="#808080" begin="reset.mouseover" end="reset.mouseout"/>
                       </use>
               </g>
        </defs>

<script type="text/javascript">
var viewWidth = 164;
var viewHeight = 528;
var sectionId = 'dynsection-0';
</script>
<script xlink:href="../../svgpan.js"/>
<svg id="graph" class="graph">
<g id="viewport">
<title>de.flashpixx.rrd_antlr4.antlr.IGrammarIdentifier</title>
<!-- Node0 -->
<g id="node1" class="node"><title>Node0</title>
<polygon fill="#bfbfbf" stroke="black" points="13,-105 13,-169 143,-169 143,-105 13,-105"/>
<text text-anchor="start" x="21" y="-157.8" font-family="Helvetica,sans-Serif" font-size="9.00">de.flashpixx.rrd_antlr4.antlr.</text>
<text text-anchor="middle" x="78" y="-147.8" font-family="Helvetica,sans-Serif" font-size="9.00">IGrammarIdentifier</text>
<polyline fill="none" stroke="black" points="13,-141 143,-141 "/>
<text text-anchor="middle" x="78" y="-129.8" font-family="Helvetica,sans-Serif" font-size="9.00"> </text>
<polyline fill="none" stroke="black" points="13,-123 143,-123 "/>
<text text-anchor="middle" x="78" y="-111.8" font-family="Helvetica,sans-Serif" font-size="9.00"> </text>
</g>
<!-- Node4 -->
<g id="node5" class="node"><title>Node4</title>
<g id="a_node5"><a xlink:href="../../d0/dbc/classde_1_1flashpixx_1_1rrd__antlr4_1_1antlr_1_1CGrammarIdentifier.html" target="_top" xlink:title="identifier of a rule for referencing ">
<polygon fill="none" stroke="black" points="13,-1 13,-65 143,-65 143,-1 13,-1"/>
<text text-anchor="start" x="21" y="-53.8" font-family="Helvetica,sans-Serif" font-size="9.00">de.flashpixx.rrd_antlr4.antlr.</text>
<text text-anchor="middle" x="78" y="-43.8" font-family="Helvetica,sans-Serif" font-size="9.00">CGrammarIdentifier</text>
<polyline fill="none" stroke="black" points="13,-37 143,-37 "/>
<text text-anchor="middle" x="78" y="-25.8" font-family="Helvetica,sans-Serif" font-size="9.00"> </text>
<polyline fill="none" stroke="black" points="13,-19 143,-19 "/>
<text text-anchor="start" x="21" y="-7.8" font-family="Helvetica,sans-Serif" font-size="9.00">+ CGrammarIdentifier()</text>
</a>
</g>
</g>
<!-- Node0&#45;&gt;Node4 -->
<g id="edge4" class="edge"><title>Node0&#45;&gt;Node4</title>
<path fill="none" stroke="midnightblue" d="M78,-94.8321C78,-84.9878 78,-74.6354 78,-65.3183"/>
<polygon fill="none" stroke="midnightblue" points="74.5001,-94.8424 78,-104.842 81.5001,-94.8424 74.5001,-94.8424"/>
</g>
<!-- Node1 -->
<g id="node2" class="node"><title>Node1</title>
<g id="a_node2"><a xlink:href="../../dd/d41/interfacede_1_1flashpixx_1_1rrd__antlr4_1_1antlr_1_1IGrammarSimpleElement.html" target="_top" xlink:title="{de.flashpixx.rrd_antlr4.antlr.\lIGrammarSimpleElement\&lt; String \&gt;\n||+ get()\l+ isValueAssignableTo()\l}">
<polygon fill="none" stroke="black" points="-1,-209 -1,-283 157,-283 157,-209 -1,-209"/>
<text text-anchor="start" x="7" y="-271.8" font-family="Helvetica,sans-Serif" font-size="9.00">de.flashpixx.rrd_antlr4.antlr.</text>
<text text-anchor="middle" x="78" y="-261.8" font-family="Helvetica,sans-Serif" font-size="9.00">IGrammarSimpleElement&lt; String &gt;</text>
<polyline fill="none" stroke="black" points="-1,-255 157,-255 "/>
<text text-anchor="middle" x="78" y="-243.8" font-family="Helvetica,sans-Serif" font-size="9.00"> </text>
<polyline fill="none" stroke="black" points="-1,-237 157,-237 "/>
<text text-anchor="start" x="7" y="-225.8" font-family="Helvetica,sans-Serif" font-size="9.00">+ get()</text>
<text text-anchor="start" x="7" y="-215.8" font-family="Helvetica,sans-Serif" font-size="9.00">+ isValueAssignableTo()</text>
</a>
</g>
</g>
<!-- Node1&#45;&gt;Node0 -->
<g id="edge1" class="edge"><title>Node1&#45;&gt;Node0</title>
<path fill="none" stroke="midnightblue" d="M78,-198.595C78,-188.655 78,-178.382 78,-169.182"/>
<polygon fill="none" stroke="midnightblue" points="74.5001,-198.775 78,-208.775 81.5001,-198.775 74.5001,-198.775"/>
</g>
<!-- Node2 -->
<g id="node3" class="node"><title>Node2</title>
<g id="a_node3"><a xlink:href="../../dd/d41/interfacede_1_1flashpixx_1_1rrd__antlr4_1_1antlr_1_1IGrammarSimpleElement.html" target="_top" xlink:title="a simple grammar element ">
<polygon fill="none" stroke="black" points="8,-331 8,-405 148,-405 148,-331 8,-331"/>
<text text-anchor="start" x="16" y="-393.8" font-family="Helvetica,sans-Serif" font-size="9.00">de.flashpixx.rrd_antlr4.antlr.</text>
<text text-anchor="middle" x="78" y="-383.8" font-family="Helvetica,sans-Serif" font-size="9.00">IGrammarSimpleElement&lt; T &gt;</text>
<polyline fill="none" stroke="black" points="8,-377 148,-377 "/>
<text text-anchor="middle" x="78" y="-365.8" font-family="Helvetica,sans-Serif" font-size="9.00"> </text>
<polyline fill="none" stroke="black" points="8,-359 148,-359 "/>
<text text-anchor="start" x="16" y="-347.8" font-family="Helvetica,sans-Serif" font-size="9.00">+ get()</text>
<text text-anchor="start" x="16" y="-337.8" font-family="Helvetica,sans-Serif" font-size="9.00">+ isValueAssignableTo()</text>
</a>
</g>
</g>
<!-- Node2&#45;&gt;Node1 -->
<g id="edge2" class="edge"><title>Node2&#45;&gt;Node1</title>
<path fill="none" stroke="orange" d="M78,-320.823C78,-308.42 78,-295.183 78,-283.393"/>
<polygon fill="orange" stroke="orange" points="74.5001,-320.996 78,-330.996 81.5001,-320.996 74.5001,-320.996"/>
<text text-anchor="middle" x="99" y="-304.8" font-family="Helvetica,sans-Serif" font-size="9.00"> &lt; String &gt;</text>
</g>
<!-- Node3 -->
<g id="node4" class="node"><title>Node3</title>
<g id="a_node4"><a xlink:href="../../dd/da7/interfacede_1_1flashpixx_1_1rrd__antlr4_1_1antlr_1_1IGrammarElement.html" target="_top" xlink:title="any grammar element ">
<polygon fill="none" stroke="black" points="13,-445 13,-519 143,-519 143,-445 13,-445"/>
<text text-anchor="start" x="21" y="-507.8" font-family="Helvetica,sans-Serif" font-size="9.00">de.flashpixx.rrd_antlr4.antlr.</text>
<text text-anchor="middle" x="78" y="-497.8" font-family="Helvetica,sans-Serif" font-size="9.00">IGrammarElement</text>
<polyline fill="none" stroke="black" points="13,-491 143,-491 "/>
<text text-anchor="middle" x="78" y="-479.8" font-family="Helvetica,sans-Serif" font-size="9.00"> </text>
<polyline fill="none" stroke="black" points="13,-473 143,-473 "/>
<text text-anchor="start" x="21" y="-461.8" font-family="Helvetica,sans-Serif" font-size="9.00">+ cardinality()</text>
<text text-anchor="start" x="21" y="-451.8" font-family="Helvetica,sans-Serif" font-size="9.00">+ cardinality()</text>
</a>
</g>
</g>
<!-- Node3&#45;&gt;Node2 -->
<g id="edge3" class="edge"><title>Node3&#45;&gt;Node2</title>
<path fill="none" stroke="midnightblue" d="M78,-434.894C78,-425.051 78,-414.787 78,-405.37"/>
<polygon fill="none" stroke="midnightblue" points="74.5001,-434.946 78,-444.946 81.5001,-434.946 74.5001,-434.946"/>
</g>
</g>
</svg>
        <g id="navigator" transform="translate(0 0)" fill="#404254">
                <rect fill="#f2f5e9" fill-opacity="0.5" stroke="#606060" stroke-width=".5" x="0" y="0" width="60" height="60"/>
                <use id="zoomplus" xlink:href="#zoomPlus" x="17" y="9" onmousedown="handleZoom(evt,'in')"/>
                <use id="zoomminus" xlink:href="#zoomMin" x="42" y="9" onmousedown="handleZoom(evt,'out')"/>
                <use id="reset" xlink:href="#resetDef" x="30" y="36" onmousedown="handleReset()"/>
                <g id="arrowUp" xlink:href="#dirArrow" transform="translate(30 24)" onmousedown="handlePan(0,-1)">
                  <use xlink:href="#rim" fill="#404040">
                        <set attributeName="fill" to="#808080" begin="arrowUp.mouseover" end="arrowUp.mouseout"/>
                  </use>
                  <path fill="none" stroke="white" stroke-width="1.5" d="M0,-3.0v7 M-2.5,-0.5L0,-3.0L2.5,-0.5"/>
                </g>
                <g id="arrowRight" xlink:href="#dirArrow" transform="rotate(90) translate(36 -43)" onmousedown="handlePan(1,0)">
                  <use xlink:href="#rim" fill="#404040">
                        <set attributeName="fill" to="#808080" begin="arrowRight.mouseover" end="arrowRight.mouseout"/>
                  </use>
                  <path fill="none" stroke="white" stroke-width="1.5" d="M0,-3.0v7 M-2.5,-0.5L0,-3.0L2.5,-0.5"/>
                </g>
                <g id="arrowDown" xlink:href="#dirArrow" transform="rotate(180) translate(-30 -48)" onmousedown="handlePan(0,1)">
                  <use xlink:href="#rim" fill="#404040">
                        <set attributeName="fill" to="#808080" begin="arrowDown.mouseover" end="arrowDown.mouseout"/>
                  </use>
                  <path fill="none" stroke="white" stroke-width="1.5" d="M0,-3.0v7 M-2.5,-0.5L0,-3.0L2.5,-0.5"/>
                </g>
                <g id="arrowLeft" xlink:href="#dirArrow" transform="rotate(270) translate(-36 17)" onmousedown="handlePan(-1,0)">
                  <use xlink:href="#rim" fill="#404040">
                        <set attributeName="fill" to="#808080" begin="arrowLeft.mouseover" end="arrowLeft.mouseout"/>
                  </use>
                  <path fill="none" stroke="white" stroke-width="1.5" d="M0,-3.0v7 M-2.5,-0.5L0,-3.0L2.5,-0.5"/>
                </g>
        </g>
        <svg viewBox="0 0 15 15" width="100%" height="30px" preserveAspectRatio="xMaxYMin meet">
         <g id="arrow_out" transform="scale(0.3 0.3)">
          <a xlink:href="interfacede_1_1flashpixx_1_1rrd__antlr4_1_1antlr_1_1IGrammarIdentifier__inherit__graph_org.svg" target="_base">
           <rect id="button" ry="5" rx="5" y="6" x="6" height="38" width="38"
                fill="#f2f5e9" fill-opacity="0.5" stroke="#606060" stroke-width="1.0"/>
           <path id="arrow"
             d="M 11.500037,31.436501 C 11.940474,20.09759 22.043105,11.32322 32.158766,21.979434 L 37.068811,17.246167 C 37.068811,17.246167 37.088388,32 37.088388,32 L 22.160133,31.978069 C 22.160133,31.978069 26.997745,27.140456 26.997745,27.140456 C 18.528582,18.264221 13.291696,25.230495 11.500037,31.436501 z"
             style="fill:#404040;"/>
          </a>
         </g>
        </svg>
</svg>
