<?xml version="1.0" encoding="UTF-8" standalone="no"?>
<!DOCTYPE svg PUBLIC "-//W3C//DTD SVG 1.1//EN"
 "http://www.w3.org/Graphics/SVG/1.1/DTD/svg11.dtd">
<!-- Generated by graphviz version 2.36.0 (20140111.2315)
 -->
<!-- Title: de.flashpixx.rrd_antlr4.antlr.IGrammarTerminal.children Pages: 1 -->
<!--zoomable 365 -->
<svg id="main" version="1.1" xmlns="http://www.w3.org/2000/svg" xmlns:xlink="http://www.w3.org/1999/xlink" xml:space="preserve" onload="init(evt)">
<style type="text/css"><![CDATA[
.edge:hover path { stroke: red; }
.edge:hover polygon { stroke: red; fill: red; }
]]></style>
<script type="text/javascript"><![CDATA[
var edges = document.getElementsByTagName('g');
if (edges && edges.length) {
  for (var i=0;i<edges.length;i++) {
    if (edges[i].id.substr(0,4)=='edge') {
      edges[i].setAttribute('class','edge');
    }
  }
}
]]></script>
        <defs>
                <circle id="rim" cx="0" cy="0" r="7"/>
                <circle id="rim2" cx="0" cy="0" r="3.5"/>
                <g id="zoomPlus">
                        <use xlink:href="#rim" fill="#404040">
                                <set attributeName="fill" to="#808080" begin="zoomplus.mouseover" end="zoomplus.mouseout"/>
                        </use>
                        <path d="M-4,0h8M0,-4v8" fill="none" stroke="white" stroke-width="1.5" pointer-events="none"/>
                </g>
                <g id="zoomMin">
                        <use xlink:href="#rim" fill="#404040">
                                <set attributeName="fill" to="#808080" begin="zoomminus.mouseover" end="zoomminus.mouseout"/>
                        </use>
                        <path d="M-4,0h8" fill="none" stroke="white" stroke-width="1.5" pointer-events="none"/>
                </g>
                <g id="dirArrow">
                        <path fill="none" stroke="white" stroke-width="1.5" d="M0,-3.0v7 M-2.5,-0.5L0,-3.0L2.5,-0.5"/>
                </g>
               <g id="resetDef">
                       <use xlink:href="#rim2" fill="#404040">
                               <set attributeName="fill" to="#808080" begin="reset.mouseover" end="reset.mouseout"/>
                       </use>
               </g>
        </defs>

<script type="text/javascript">
var viewWidth = 780;
var viewHeight = 365;
var sectionId = 'dynsection-2';
</script>
<script xlink:href="../../svgpan.js"/>
<svg id="graph" class="graph">
<g id="viewport">
<title>de.flashpixx.rrd_antlr4.antlr.IGrammarTerminal.children</title>
<!-- Node1 -->
<g id="node1" class="node"><title>Node1</title>
<polygon fill="#bfbfbf" stroke="black" points="0,-141 0,-169 130,-169 130,-141 0,-141"/>
<text text-anchor="start" x="8" y="-157.8" font-family="Helvetica,sans-Serif" font-size="9.00">de.flashpixx.rrd_antlr4.antlr.</text>
<text text-anchor="middle" x="65" y="-147.8" font-family="Helvetica,sans-Serif" font-size="9.00">IGrammarTerminal.children</text>
</g>
<!-- Node2 -->
<g id="node2" class="node"><title>Node2</title>
<g id="a_node2"><a xlink:href="../../d5/dcc/classde_1_1flashpixx_1_1rrd__antlr4_1_1engine_1_1template_1_1IBaseTemplate.html#aed006de3401e84ff45301922a9ebd7f3" target="_top" xlink:title="creates a terminal ">
<polygon fill="none" stroke="black" points="166,-141 166,-169 344,-169 344,-141 166,-141"/>
<text text-anchor="start" x="174" y="-157.8" font-family="Helvetica,sans-Serif" font-size="9.00">de.flashpixx.rrd_antlr4.engine.template.</text>
<text text-anchor="middle" x="255" y="-147.8" font-family="Helvetica,sans-Serif" font-size="9.00">IBaseTemplate.terminal</text>
</a>
</g>
</g>
<!-- Node1&#45;&gt;Node2 -->
<g id="edge1" class="edge"><title>Node1&#45;&gt;Node2</title>
<path fill="none" stroke="midnightblue" d="M140.283,-155C148.675,-155 157.288,-155 165.836,-155"/>
<polygon fill="midnightblue" stroke="midnightblue" points="140.173,-151.5 130.173,-155 140.173,-158.5 140.173,-151.5"/>
</g>
<!-- Node3 -->
<g id="node3" class="node"><title>Node3</title>
<g id="a_node3"><a xlink:href="../../d5/dcc/classde_1_1flashpixx_1_1rrd__antlr4_1_1engine_1_1template_1_1IBaseTemplate.html#aba059762f4ecba4c0fa04758165dbf11" target="_top" xlink:title="calls the sub routines to format the lement ">
<polygon fill="none" stroke="black" points="380,-141 380,-169 558,-169 558,-141 380,-141"/>
<text text-anchor="start" x="388" y="-157.8" font-family="Helvetica,sans-Serif" font-size="9.00">de.flashpixx.rrd_antlr4.engine.template.</text>
<text text-anchor="middle" x="469" y="-147.8" font-family="Helvetica,sans-Serif" font-size="9.00">IBaseTemplate.map</text>
</a>
</g>
</g>
<!-- Node2&#45;&gt;Node3 -->
<g id="edge2" class="edge"><title>Node2&#45;&gt;Node3</title>
<path fill="none" stroke="midnightblue" d="M354.107,-148.267C362.7,-148.23 371.363,-148.253 379.868,-148.336"/>
<polygon fill="midnightblue" stroke="midnightblue" points="354.041,-144.767 344.065,-148.337 354.09,-151.767 354.041,-144.767"/>
</g>
<!-- Node3&#45;&gt;Node2 -->
<g id="edge12" class="edge"><title>Node3&#45;&gt;Node2</title>
<path fill="none" stroke="midnightblue" d="M369.825,-161.734C361.232,-161.77 352.569,-161.746 344.065,-161.663"/>
<polygon fill="midnightblue" stroke="midnightblue" points="369.892,-165.233 379.868,-161.664 369.844,-158.234 369.892,-165.233"/>
</g>
<!-- Node4 -->
<g id="node4" class="node"><title>Node4</title>
<g id="a_node4"><a xlink:href="../../df/db0/classde_1_1flashpixx_1_1rrd__antlr4_1_1engine_1_1template_1_1CHTML.html#a4a9260119c44dc505e7d8269f408bb4a" target="_top" xlink:title="is called if any grammar element is completed ">
<polygon fill="none" stroke="black" points="594,-329 594,-357 772,-357 772,-329 594,-329"/>
<text text-anchor="start" x="602" y="-345.8" font-family="Helvetica,sans-Serif" font-size="9.00">de.flashpixx.rrd_antlr4.engine.template.</text>
<text text-anchor="middle" x="683" y="-335.8" font-family="Helvetica,sans-Serif" font-size="9.00">CHTML.element</text>
</a>
</g>
</g>
<!-- Node3&#45;&gt;Node4 -->
<g id="edge3" class="edge"><title>Node3&#45;&gt;Node4</title>
<path fill="none" stroke="midnightblue" d="M481.358,-178.582C499.863,-214.46 539.953,-282.434 594,-319 599.771,-322.904 606.158,-326.176 612.778,-328.916"/>
<polygon fill="midnightblue" stroke="midnightblue" points="484.341,-176.724 476.717,-169.367 478.089,-179.872 484.341,-176.724"/>
</g>
<!-- Node5 -->
<g id="node5" class="node"><title>Node5</title>
<g id="a_node5"><a xlink:href="../../df/db0/classde_1_1flashpixx_1_1rrd__antlr4_1_1engine_1_1template_1_1CHTML.html#a5386e78d33f56f39bda5e51841c5ca79" target="_top" xlink:title="de.flashpixx.rrd_antlr4.engine.template.\lCHTML.group">
<polygon fill="none" stroke="black" points="594,-282 594,-310 772,-310 772,-282 594,-282"/>
<text text-anchor="start" x="602" y="-298.8" font-family="Helvetica,sans-Serif" font-size="9.00">de.flashpixx.rrd_antlr4.engine.template.</text>
<text text-anchor="middle" x="683" y="-288.8" font-family="Helvetica,sans-Serif" font-size="9.00">CHTML.group</text>
</a>
</g>
</g>
<!-- Node3&#45;&gt;Node5 -->
<g id="edge4" class="edge"><title>Node3&#45;&gt;Node5</title>
<path fill="none" stroke="midnightblue" d="M487.512,-177.152C509.578,-203.585 549.978,-247.301 594,-272 600.905,-275.874 608.47,-279.151 616.173,-281.915"/>
<polygon fill="midnightblue" stroke="midnightblue" points="490.057,-174.736 481.01,-169.223 484.644,-179.175 490.057,-174.736"/>
</g>
<!-- Node6 -->
<g id="node6" class="node"><title>Node6</title>
<g id="a_node6"><a xlink:href="../../df/db0/classde_1_1flashpixx_1_1rrd__antlr4_1_1engine_1_1template_1_1CHTML.html#a78b97b93b551354bf558d71e8e842778" target="_top" xlink:title="de.flashpixx.rrd_antlr4.engine.template.\lCHTML.choice">
<polygon fill="none" stroke="black" points="594,-235 594,-263 772,-263 772,-235 594,-235"/>
<text text-anchor="start" x="602" y="-251.8" font-family="Helvetica,sans-Serif" font-size="9.00">de.flashpixx.rrd_antlr4.engine.template.</text>
<text text-anchor="middle" x="683" y="-241.8" font-family="Helvetica,sans-Serif" font-size="9.00">CHTML.choice</text>
</a>
</g>
</g>
<!-- Node3&#45;&gt;Node6 -->
<g id="edge5" class="edge"><title>Node3&#45;&gt;Node6</title>
<path fill="none" stroke="midnightblue" d="M499.597,-174.484C524.081,-189.91 560.197,-211.102 594,-225 603.081,-228.734 612.924,-232.066 622.629,-234.974"/>
<polygon fill="midnightblue" stroke="midnightblue" points="501.443,-171.51 491.129,-169.086 497.68,-177.413 501.443,-171.51"/>
</g>
<!-- Node7 -->
<g id="node7" class="node"><title>Node7</title>
<g id="a_node7"><a xlink:href="../../df/db0/classde_1_1flashpixx_1_1rrd__antlr4_1_1engine_1_1template_1_1CHTML.html#ad38ec163952e6855c783251da5c0c618" target="_top" xlink:title="de.flashpixx.rrd_antlr4.engine.template.\lCHTML.negation">
<polygon fill="none" stroke="black" points="594,-188 594,-216 772,-216 772,-188 594,-188"/>
<text text-anchor="start" x="602" y="-204.8" font-family="Helvetica,sans-Serif" font-size="9.00">de.flashpixx.rrd_antlr4.engine.template.</text>
<text text-anchor="middle" x="683" y="-194.8" font-family="Helvetica,sans-Serif" font-size="9.00">CHTML.negation</text>
</a>
</g>
</g>
<!-- Node3&#45;&gt;Node7 -->
<g id="edge6" class="edge"><title>Node3&#45;&gt;Node7</title>
<path fill="none" stroke="midnightblue" d="M543.294,-171.249C567.821,-176.687 594.937,-182.698 618.64,-187.953"/>
<polygon fill="midnightblue" stroke="midnightblue" points="543.84,-167.785 533.32,-169.038 542.325,-174.619 543.84,-167.785"/>
</g>
<!-- Node8 -->
<g id="node8" class="node"><title>Node8</title>
<g id="a_node8"><a xlink:href="../../da/d63/classde_1_1flashpixx_1_1rrd__antlr4_1_1engine_1_1template_1_1CLaTeXSyntax.html#a7f1b2a77fcff93135d1dab1a98e0eab0" target="_top" xlink:title="is called if any grammar element is completed ">
<polygon fill="none" stroke="black" points="594,-141 594,-169 772,-169 772,-141 594,-141"/>
<text text-anchor="start" x="602" y="-157.8" font-family="Helvetica,sans-Serif" font-size="9.00">de.flashpixx.rrd_antlr4.engine.template.</text>
<text text-anchor="middle" x="683" y="-147.8" font-family="Helvetica,sans-Serif" font-size="9.00">CLaTeXSyntax.element</text>
</a>
</g>
</g>
<!-- Node3&#45;&gt;Node8 -->
<g id="edge7" class="edge"><title>Node3&#45;&gt;Node8</title>
<path fill="none" stroke="midnightblue" d="M568.107,-155C576.7,-155 585.363,-155 593.868,-155"/>
<polygon fill="midnightblue" stroke="midnightblue" points="568.065,-151.5 558.065,-155 568.065,-158.5 568.065,-151.5"/>
</g>
<!-- Node9 -->
<g id="node9" class="node"><title>Node9</title>
<g id="a_node9"><a xlink:href="../../da/d63/classde_1_1flashpixx_1_1rrd__antlr4_1_1engine_1_1template_1_1CLaTeXSyntax.html#a42c60e6e62f33c5775b5518415295848" target="_top" xlink:title="de.flashpixx.rrd_antlr4.engine.template.\lCLaTeXSyntax.group">
<polygon fill="none" stroke="black" points="594,-94 594,-122 772,-122 772,-94 594,-94"/>
<text text-anchor="start" x="602" y="-110.8" font-family="Helvetica,sans-Serif" font-size="9.00">de.flashpixx.rrd_antlr4.engine.template.</text>
<text text-anchor="middle" x="683" y="-100.8" font-family="Helvetica,sans-Serif" font-size="9.00">CLaTeXSyntax.group</text>
</a>
</g>
</g>
<!-- Node3&#45;&gt;Node9 -->
<g id="edge8" class="edge"><title>Node3&#45;&gt;Node9</title>
<path fill="none" stroke="midnightblue" d="M543.294,-138.751C567.821,-133.313 594.937,-127.302 618.64,-122.047"/>
<polygon fill="midnightblue" stroke="midnightblue" points="542.325,-135.381 533.32,-140.962 543.84,-142.215 542.325,-135.381"/>
</g>
<!-- Node10 -->
<g id="node10" class="node"><title>Node10</title>
<g id="a_node10"><a xlink:href="../../da/d63/classde_1_1flashpixx_1_1rrd__antlr4_1_1engine_1_1template_1_1CLaTeXSyntax.html#acc257f441259efa9986735bd21ae76ec" target="_top" xlink:title="de.flashpixx.rrd_antlr4.engine.template.\lCLaTeXSyntax.negation">
<polygon fill="none" stroke="black" points="594,-47 594,-75 772,-75 772,-47 594,-47"/>
<text text-anchor="start" x="602" y="-63.8" font-family="Helvetica,sans-Serif" font-size="9.00">de.flashpixx.rrd_antlr4.engine.template.</text>
<text text-anchor="middle" x="683" y="-53.8" font-family="Helvetica,sans-Serif" font-size="9.00">CLaTeXSyntax.negation</text>
</a>
</g>
</g>
<!-- Node3&#45;&gt;Node10 -->
<g id="edge9" class="edge"><title>Node3&#45;&gt;Node10</title>
<path fill="none" stroke="midnightblue" d="M499.597,-135.516C524.081,-120.09 560.197,-98.8983 594,-85 603.081,-81.2665 612.924,-77.9336 622.629,-75.0264"/>
<polygon fill="midnightblue" stroke="midnightblue" points="497.68,-132.587 491.129,-140.914 501.443,-138.49 497.68,-132.587"/>
</g>
<!-- Node11 -->
<g id="node11" class="node"><title>Node11</title>
<g id="a_node11"><a xlink:href="../../d5/dcc/classde_1_1flashpixx_1_1rrd__antlr4_1_1engine_1_1template_1_1IBaseTemplate.html#a644daf65240deb390d1b3b8715491f13" target="_top" xlink:title="creates a rule ">
<polygon fill="none" stroke="black" points="594,-0 594,-28 772,-28 772,-0 594,-0"/>
<text text-anchor="start" x="602" y="-16.8" font-family="Helvetica,sans-Serif" font-size="9.00">de.flashpixx.rrd_antlr4.engine.template.</text>
<text text-anchor="middle" x="683" y="-6.8" font-family="Helvetica,sans-Serif" font-size="9.00">IBaseTemplate.rule</text>
</a>
</g>
</g>
<!-- Node3&#45;&gt;Node11 -->
<g id="edge10" class="edge"><title>Node3&#45;&gt;Node11</title>
<path fill="none" stroke="midnightblue" d="M482.954,-132.667C503.666,-103.936 546.747,-55.5126 594,-29 594.552,-28.6901 595.109,-28.3839 595.67,-28.0816"/>
<polygon fill="midnightblue" stroke="midnightblue" points="480.067,-130.688 477.264,-140.905 485.827,-134.666 480.067,-130.688"/>
</g>
<!-- Node11&#45;&gt;Node3 -->
<g id="edge11" class="edge"><title>Node11&#45;&gt;Node3</title>
<path fill="none" stroke="midnightblue" d="M635.449,-30.7692C621.558,-34.7961 606.669,-39.8918 594,-47 549.086,-72.2001 507.942,-117.195 486.192,-140.608"/>
<polygon fill="midnightblue" stroke="midnightblue" points="636.649,-34.0685 645.342,-28.0125 634.77,-27.3254 636.649,-34.0685"/>
</g>
</g>
</svg>
        <g id="navigator" transform="translate(0 0)" fill="#404254">
                <rect fill="#f2f5e9" fill-opacity="0.5" stroke="#606060" stroke-width=".5" x="0" y="0" width="60" height="60"/>
                <use id="zoomplus" xlink:href="#zoomPlus" x="17" y="9" onmousedown="handleZoom(evt,'in')"/>
                <use id="zoomminus" xlink:href="#zoomMin" x="42" y="9" onmousedown="handleZoom(evt,'out')"/>
                <use id="reset" xlink:href="#resetDef" x="30" y="36" onmousedown="handleReset()"/>
                <g id="arrowUp" xlink:href="#dirArrow" transform="translate(30 24)" onmousedown="handlePan(0,-1)">
                  <use xlink:href="#rim" fill="#404040">
                        <set attributeName="fill" to="#808080" begin="arrowUp.mouseover" end="arrowUp.mouseout"/>
                  </use>
                  <path fill="none" stroke="white" stroke-width="1.5" d="M0,-3.0v7 M-2.5,-0.5L0,-3.0L2.5,-0.5"/>
                </g>
                <g id="arrowRight" xlink:href="#dirArrow" transform="rotate(90) translate(36 -43)" onmousedown="handlePan(1,0)">
                  <use xlink:href="#rim" fill="#404040">
                        <set attributeName="fill" to="#808080" begin="arrowRight.mouseover" end="arrowRight.mouseout"/>
                  </use>
                  <path fill="none" stroke="white" stroke-width="1.5" d="M0,-3.0v7 M-2.5,-0.5L0,-3.0L2.5,-0.5"/>
                </g>
                <g id="arrowDown" xlink:href="#dirArrow" transform="rotate(180) translate(-30 -48)" onmousedown="handlePan(0,1)">
                  <use xlink:href="#rim" fill="#404040">
                        <set attributeName="fill" to="#808080" begin="arrowDown.mouseover" end="arrowDown.mouseout"/>
                  </use>
                  <path fill="none" stroke="white" stroke-width="1.5" d="M0,-3.0v7 M-2.5,-0.5L0,-3.0L2.5,-0.5"/>
                </g>
                <g id="arrowLeft" xlink:href="#dirArrow" transform="rotate(270) translate(-36 17)" onmousedown="handlePan(-1,0)">
                  <use xlink:href="#rim" fill="#404040">
                        <set attributeName="fill" to="#808080" begin="arrowLeft.mouseover" end="arrowLeft.mouseout"/>
                  </use>
                  <path fill="none" stroke="white" stroke-width="1.5" d="M0,-3.0v7 M-2.5,-0.5L0,-3.0L2.5,-0.5"/>
                </g>
        </g>
        <svg viewBox="0 0 15 15" width="100%" height="30px" preserveAspectRatio="xMaxYMin meet">
         <g id="arrow_out" transform="scale(0.3 0.3)">
          <a xlink:href="interfacede_1_1flashpixx_1_1rrd__antlr4_1_1antlr_1_1IGrammarTerminal_a5335c08fcf626be523cb17e1e50d131a_icgraph_org.svg" target="_base">
           <rect id="button" ry="5" rx="5" y="6" x="6" height="38" width="38"
                fill="#f2f5e9" fill-opacity="0.5" stroke="#606060" stroke-width="1.0"/>
           <path id="arrow"
             d="M 11.500037,31.436501 C 11.940474,20.09759 22.043105,11.32322 32.158766,21.979434 L 37.068811,17.246167 C 37.068811,17.246167 37.088388,32 37.088388,32 L 22.160133,31.978069 C 22.160133,31.978069 26.997745,27.140456 26.997745,27.140456 C 18.528582,18.264221 13.291696,25.230495 11.500037,31.436501 z"
             style="fill:#404040;"/>
          </a>
         </g>
        </svg>
</svg>
