<?xml version="1.0" encoding="UTF-8" standalone="no"?>
<!DOCTYPE svg PUBLIC "-//W3C//DTD SVG 1.1//EN"
 "http://www.w3.org/Graphics/SVG/1.1/DTD/svg11.dtd">
<!-- Generated by graphviz version 2.36.0 (20140111.2315)
 -->
<!-- Title: de.flashpixx.rrd_antlr4.antlr.CASTVisitorPCRE.visitExpr Pages: 1 -->
<svg width="476pt" height="83pt"
 viewBox="0.00 0.00 476.00 83.00" xmlns="http://www.w3.org/2000/svg" xmlns:xlink="http://www.w3.org/1999/xlink">
<g id="graph0" class="graph" transform="scale(1 1) rotate(0) translate(4 79)">
<title>de.flashpixx.rrd_antlr4.antlr.CASTVisitorPCRE.visitExpr</title>
<!-- Node19 -->
<g id="node1" class="node"><title>Node19</title>
<polygon fill="#bfbfbf" stroke="black" points="0,-23 0,-51 130,-51 130,-23 0,-23"/>
<text text-anchor="start" x="8" y="-39.8" font-family="Helvetica,sans-Serif" font-size="9.00">de.flashpixx.rrd_antlr4.antlr.</text>
<text text-anchor="middle" x="65" y="-29.8" font-family="Helvetica,sans-Serif" font-size="9.00">CASTVisitorPCRE.visitExpr</text>
</g>
<!-- Node20 -->
<g id="node2" class="node"><title>Node20</title>
<g id="a_node2"><a xlink:href="../../d0/db6/classde_1_1flashpixx_1_1rrd__antlr4_1_1antlr_1_1CCommon.html#a0f33650de86e7f474f16a7fd109c8df3" target="_top" xlink:title="defines the cardinality of an grammar element ">
<polygon fill="none" stroke="black" points="166,-47 166,-75 296,-75 296,-47 166,-47"/>
<text text-anchor="start" x="174" y="-63.8" font-family="Helvetica,sans-Serif" font-size="9.00">de.flashpixx.rrd_antlr4.antlr.</text>
<text text-anchor="middle" x="231" y="-53.8" font-family="Helvetica,sans-Serif" font-size="9.00">CCommon.cardinality</text>
</a>
</g>
</g>
<!-- Node19&#45;&gt;Node20 -->
<g id="edge1" class="edge"><title>Node19&#45;&gt;Node20</title>
<path fill="none" stroke="midnightblue" d="M130.346,-46.4166C138.731,-47.6436 147.375,-48.9085 155.903,-50.1565"/>
<polygon fill="midnightblue" stroke="midnightblue" points="155.438,-53.6256 165.839,-51.6106 156.451,-46.6994 155.438,-53.6256"/>
</g>
<!-- Node22 -->
<g id="node4" class="node"><title>Node22</title>
<g id="a_node4"><a xlink:href="../../d0/db6/classde_1_1flashpixx_1_1rrd__antlr4_1_1antlr_1_1CCommon.html#a4a45c2c19172fc786c3f04712ef73767" target="_top" xlink:title="creates a sequence ">
<polygon fill="none" stroke="black" points="166,-0 166,-28 296,-28 296,-0 166,-0"/>
<text text-anchor="start" x="174" y="-16.8" font-family="Helvetica,sans-Serif" font-size="9.00">de.flashpixx.rrd_antlr4.antlr.</text>
<text text-anchor="middle" x="231" y="-6.8" font-family="Helvetica,sans-Serif" font-size="9.00">CCommon.sequence</text>
</a>
</g>
</g>
<!-- Node19&#45;&gt;Node22 -->
<g id="edge3" class="edge"><title>Node19&#45;&gt;Node22</title>
<path fill="none" stroke="midnightblue" d="M130.346,-27.9758C138.731,-26.7999 147.375,-25.5877 155.903,-24.3917"/>
<polygon fill="midnightblue" stroke="midnightblue" points="156.422,-27.8532 165.839,-22.9982 155.45,-20.921 156.422,-27.8532"/>
</g>
<!-- Node21 -->
<g id="node3" class="node"><title>Node21</title>
<g id="a_node3"><a xlink:href="../../dd/da7/interfacede_1_1flashpixx_1_1rrd__antlr4_1_1antlr_1_1IGrammarElement.html#ad38b129b0ef008046ccfe6eeae9cf0fe" target="_top" xlink:title="returns the cardinality ">
<polygon fill="none" stroke="black" points="332.5,-47 332.5,-75 467.5,-75 467.5,-47 332.5,-47"/>
<text text-anchor="start" x="340.5" y="-63.8" font-family="Helvetica,sans-Serif" font-size="9.00">de.flashpixx.rrd_antlr4.antlr.</text>
<text text-anchor="middle" x="400" y="-53.8" font-family="Helvetica,sans-Serif" font-size="9.00">IGrammarElement.cardinality</text>
</a>
</g>
</g>
<!-- Node20&#45;&gt;Node21 -->
<g id="edge2" class="edge"><title>Node20&#45;&gt;Node21</title>
<path fill="none" stroke="midnightblue" d="M296.089,-61C304.617,-61 313.432,-61 322.149,-61"/>
<polygon fill="midnightblue" stroke="midnightblue" points="322.315,-64.5001 332.315,-61 322.315,-57.5001 322.315,-64.5001"/>
</g>
</g>
</svg>
