<?xml version="1.0" encoding="UTF-8" standalone="no"?>
<!DOCTYPE svg PUBLIC "-//W3C//DTD SVG 1.1//EN"
 "http://www.w3.org/Graphics/SVG/1.1/DTD/svg11.dtd">
<!-- Generated by graphviz version 2.36.0 (20140111.2315)
 -->
<!-- Title: de.flashpixx.rrd_antlr4.antlr.CASTVisitorAntLR.visitParserRuleSpec Pages: 1 -->
<svg width="562pt" height="166pt"
 viewBox="0.00 0.00 562.00 166.00" xmlns="http://www.w3.org/2000/svg" xmlns:xlink="http://www.w3.org/1999/xlink">
<g id="graph0" class="graph" transform="scale(1 1) rotate(0) translate(4 162)">
<title>de.flashpixx.rrd_antlr4.antlr.CASTVisitorAntLR.visitParserRuleSpec</title>
<!-- Node57 -->
<g id="node1" class="node"><title>Node57</title>
<polygon fill="#bfbfbf" stroke="black" points="0.5,-23 0.5,-51 177.5,-51 177.5,-23 0.5,-23"/>
<text text-anchor="start" x="8.5" y="-39.8" font-family="Helvetica,sans-Serif" font-size="9.00">de.flashpixx.rrd_antlr4.antlr.</text>
<text text-anchor="middle" x="89" y="-29.8" font-family="Helvetica,sans-Serif" font-size="9.00">CASTVisitorAntLR.visitParserRuleSpec</text>
</g>
<!-- Node58 -->
<g id="node2" class="node"><title>Node58</title>
<g id="a_node2"><a xlink:href="../../d0/db6/classde_1_1flashpixx_1_1rrd__antlr4_1_1antlr_1_1CCommon.html#a046543cf95af34fb6ec4c2ccec471322" target="_top" xlink:title="cleanup comment from doxygen structure ">
<polygon fill="none" stroke="black" points="238,-47 238,-75 368,-75 368,-47 238,-47"/>
<text text-anchor="start" x="246" y="-63.8" font-family="Helvetica,sans-Serif" font-size="9.00">de.flashpixx.rrd_antlr4.antlr.</text>
<text text-anchor="middle" x="303" y="-53.8" font-family="Helvetica,sans-Serif" font-size="9.00">CCommon.cleanComment</text>
</a>
</g>
</g>
<!-- Node57&#45;&gt;Node58 -->
<g id="edge1" class="edge"><title>Node57&#45;&gt;Node58</title>
<path fill="none" stroke="midnightblue" d="M177.759,-46.935C194.456,-48.8252 211.775,-50.7859 227.992,-52.6218"/>
<polygon fill="midnightblue" stroke="midnightblue" points="227.602,-56.0998 237.932,-53.747 228.389,-49.1442 227.602,-56.0998"/>
</g>
<!-- Node62 -->
<g id="node6" class="node"><title>Node62</title>
<g id="a_node6"><a xlink:href="../../d6/d71/interfacede_1_1flashpixx_1_1rrd__antlr4_1_1engine_1_1template_1_1ITemplate.html#a91c8b3c62c414dec89e1a49c88da452b" target="_top" xlink:title="is called if any grammar element is completed ">
<polygon fill="none" stroke="black" points="214,-0 214,-28 392,-28 392,-0 214,-0"/>
<text text-anchor="start" x="222" y="-16.8" font-family="Helvetica,sans-Serif" font-size="9.00">de.flashpixx.rrd_antlr4.engine.template.</text>
<text text-anchor="middle" x="303" y="-6.8" font-family="Helvetica,sans-Serif" font-size="9.00">ITemplate.element</text>
</a>
</g>
</g>
<!-- Node57&#45;&gt;Node62 -->
<g id="edge7" class="edge"><title>Node57&#45;&gt;Node62</title>
<path fill="none" stroke="midnightblue" d="M177.759,-27.479C186.356,-26.5463 195.117,-25.5958 203.809,-24.6528"/>
<polygon fill="midnightblue" stroke="midnightblue" points="204.401,-28.1092 213.965,-23.5509 203.646,-21.15 204.401,-28.1092"/>
</g>
<!-- Node59 -->
<g id="node3" class="node"><title>Node59</title>
<g id="a_node3"><a xlink:href="../../de/d1c/classde_1_1flashpixx_1_1rrd__antlr4_1_1CStringReplace.html#a26311e2ab467fcf79cf389773a33b8cc" target="_top" xlink:title="replaces the content ">
<polygon fill="none" stroke="black" points="428.5,-112 428.5,-140 553.5,-140 553.5,-112 428.5,-112"/>
<text text-anchor="start" x="436.5" y="-128.8" font-family="Helvetica,sans-Serif" font-size="9.00">de.flashpixx.rrd_antlr4.</text>
<text text-anchor="middle" x="491" y="-118.8" font-family="Helvetica,sans-Serif" font-size="9.00">CStringReplace.replaceAll</text>
</a>
</g>
</g>
<!-- Node58&#45;&gt;Node59 -->
<g id="edge2" class="edge"><title>Node58&#45;&gt;Node59</title>
<path fill="none" stroke="midnightblue" d="M344.359,-75.104C372.511,-84.942 410.258,-98.1332 440.269,-108.621"/>
<polygon fill="midnightblue" stroke="midnightblue" points="439.125,-111.929 449.72,-111.923 441.434,-105.32 439.125,-111.929"/>
</g>
<!-- Node60 -->
<g id="node4" class="node"><title>Node60</title>
<g id="a_node4"><a xlink:href="../../de/d1c/classde_1_1flashpixx_1_1rrd__antlr4_1_1CStringReplace.html#a46fcaa4dfb93afd193cabe44c50ed976" target="_top" xlink:title="replace a char sequence ">
<polygon fill="none" stroke="black" points="433.5,-47 433.5,-75 548.5,-75 548.5,-47 433.5,-47"/>
<text text-anchor="start" x="441.5" y="-63.8" font-family="Helvetica,sans-Serif" font-size="9.00">de.flashpixx.rrd_antlr4.</text>
<text text-anchor="middle" x="491" y="-53.8" font-family="Helvetica,sans-Serif" font-size="9.00">CStringReplace.replace</text>
</a>
</g>
</g>
<!-- Node58&#45;&gt;Node60 -->
<g id="edge4" class="edge"><title>Node58&#45;&gt;Node60</title>
<path fill="none" stroke="midnightblue" d="M368.011,-61C385.838,-61 405.245,-61 423.226,-61"/>
<polygon fill="midnightblue" stroke="midnightblue" points="423.338,-64.5001 433.337,-61 423.337,-57.5001 423.338,-64.5001"/>
</g>
<!-- Node61 -->
<g id="node5" class="node"><title>Node61</title>
<g id="a_node5"><a xlink:href="../../de/d1c/classde_1_1flashpixx_1_1rrd__antlr4_1_1CStringReplace.html#a51cb976d0ad1aeb40be593e9d076048e" target="_top" xlink:title="returns the data ">
<polygon fill="none" stroke="black" points="436,-0 436,-28 546,-28 546,-0 436,-0"/>
<text text-anchor="start" x="444" y="-16.8" font-family="Helvetica,sans-Serif" font-size="9.00">de.flashpixx.rrd_antlr4.</text>
<text text-anchor="middle" x="491" y="-6.8" font-family="Helvetica,sans-Serif" font-size="9.00">CStringReplace.get</text>
</a>
</g>
</g>
<!-- Node58&#45;&gt;Node61 -->
<g id="edge6" class="edge"><title>Node58&#45;&gt;Node61</title>
<path fill="none" stroke="midnightblue" d="M359.554,-46.9621C380.441,-41.6843 404.353,-35.6421 425.95,-30.1846"/>
<polygon fill="midnightblue" stroke="midnightblue" points="426.854,-33.5663 435.692,-27.723 425.139,-26.7796 426.854,-33.5663"/>
</g>
<!-- Node59&#45;&gt;Node59 -->
<g id="edge3" class="edge"><title>Node59&#45;&gt;Node59</title>
<path fill="none" stroke="midnightblue" d="M458.538,-140.148C450.07,-149.245 460.891,-158 491,-158 509.348,-158 520.533,-154.749 524.556,-150.15"/>
<polygon fill="midnightblue" stroke="midnightblue" points="528.028,-149.708 523.462,-140.148 521.07,-150.469 528.028,-149.708"/>
</g>
<!-- Node60&#45;&gt;Node60 -->
<g id="edge5" class="edge"><title>Node60&#45;&gt;Node60</title>
<path fill="none" stroke="midnightblue" d="M458.538,-75.1476C450.07,-84.2448 460.891,-93 491,-93 509.348,-93 520.533,-89.7489 524.556,-85.1504"/>
<polygon fill="midnightblue" stroke="midnightblue" points="528.028,-84.7077 523.462,-75.1476 521.07,-85.4689 528.028,-84.7077"/>
</g>
</g>
</svg>
