<?xml version="1.0" encoding="UTF-8" standalone="no"?>
<!DOCTYPE svg PUBLIC "-//W3C//DTD SVG 1.1//EN"
 "http://www.w3.org/Graphics/SVG/1.1/DTD/svg11.dtd">
<!-- Generated by graphviz version 2.36.0 (20140111.2315)
 -->
<!-- Title: de.flashpixx.rrd_antlr4.antlr.CASTVisitorAntLR.visitGrammarSpec Pages: 1 -->
<!--zoomable 166 -->
<svg id="main" version="1.1" xmlns="http://www.w3.org/2000/svg" xmlns:xlink="http://www.w3.org/1999/xlink" xml:space="preserve" onload="init(evt)">
<style type="text/css"><![CDATA[
.edge:hover path { stroke: red; }
.edge:hover polygon { stroke: red; fill: red; }
]]></style>
<script type="text/javascript"><![CDATA[
var edges = document.getElementsByTagName('g');
if (edges && edges.length) {
  for (var i=0;i<edges.length;i++) {
    if (edges[i].id.substr(0,4)=='edge') {
      edges[i].setAttribute('class','edge');
    }
  }
}
]]></script>
        <defs>
                <circle id="rim" cx="0" cy="0" r="7"/>
                <circle id="rim2" cx="0" cy="0" r="3.5"/>
                <g id="zoomPlus">
                        <use xlink:href="#rim" fill="#404040">
                                <set attributeName="fill" to="#808080" begin="zoomplus.mouseover" end="zoomplus.mouseout"/>
                        </use>
                        <path d="M-4,0h8M0,-4v8" fill="none" stroke="white" stroke-width="1.5" pointer-events="none"/>
                </g>
                <g id="zoomMin">
                        <use xlink:href="#rim" fill="#404040">
                                <set attributeName="fill" to="#808080" begin="zoomminus.mouseover" end="zoomminus.mouseout"/>
                        </use>
                        <path d="M-4,0h8" fill="none" stroke="white" stroke-width="1.5" pointer-events="none"/>
                </g>
                <g id="dirArrow">
                        <path fill="none" stroke="white" stroke-width="1.5" d="M0,-3.0v7 M-2.5,-0.5L0,-3.0L2.5,-0.5"/>
                </g>
               <g id="resetDef">
                       <use xlink:href="#rim2" fill="#404040">
                               <set attributeName="fill" to="#808080" begin="reset.mouseover" end="reset.mouseout"/>
                       </use>
               </g>
        </defs>

<script type="text/javascript">
var viewWidth = 554;
var viewHeight = 166;
var sectionId = 'dynsection-7';
</script>
<script xlink:href="../../svgpan.js"/>
<svg id="graph" class="graph">
<g id="viewport">
<title>de.flashpixx.rrd_antlr4.antlr.CASTVisitorAntLR.visitGrammarSpec</title>
<!-- Node28 -->
<g id="node1" class="node"><title>Node28</title>
<polygon fill="#bfbfbf" stroke="black" points="0.5,-23 0.5,-51 169.5,-51 169.5,-23 0.5,-23"/>
<text text-anchor="start" x="8.5" y="-39.8" font-family="Helvetica,sans-Serif" font-size="9.00">de.flashpixx.rrd_antlr4.antlr.</text>
<text text-anchor="middle" x="85" y="-29.8" font-family="Helvetica,sans-Serif" font-size="9.00">CASTVisitorAntLR.visitGrammarSpec</text>
</g>
<!-- Node29 -->
<g id="node2" class="node"><title>Node29</title>
<g id="a_node2"><a xlink:href="../../d0/db6/classde_1_1flashpixx_1_1rrd__antlr4_1_1antlr_1_1CCommon.html#a046543cf95af34fb6ec4c2ccec471322" target="_top" xlink:title="cleanup comment from doxygen structure ">
<polygon fill="none" stroke="black" points="230,-47 230,-75 360,-75 360,-47 230,-47"/>
<text text-anchor="start" x="238" y="-63.8" font-family="Helvetica,sans-Serif" font-size="9.00">de.flashpixx.rrd_antlr4.antlr.</text>
<text text-anchor="middle" x="295" y="-53.8" font-family="Helvetica,sans-Serif" font-size="9.00">CCommon.cleanComment</text>
</a>
</g>
</g>
<!-- Node28&#45;&gt;Node29 -->
<g id="edge1" class="edge"><title>Node28&#45;&gt;Node29</title>
<path fill="none" stroke="midnightblue" d="M169.702,-46.658C186.343,-48.578 203.704,-50.5812 219.992,-52.4606"/>
<polygon fill="midnightblue" stroke="midnightblue" points="219.644,-55.9436 229.979,-53.613 220.446,-48.9897 219.644,-55.9436"/>
</g>
<!-- Node33 -->
<g id="node6" class="node"><title>Node33</title>
<g id="a_node6"><a xlink:href="../../d6/d71/interfacede_1_1flashpixx_1_1rrd__antlr4_1_1engine_1_1template_1_1ITemplate.html#a83e597c0b1c8042ea5154129135dfaf1" target="_top" xlink:title="is called on the grammar definition ">
<polygon fill="none" stroke="black" points="206,-0 206,-28 384,-28 384,-0 206,-0"/>
<text text-anchor="start" x="214" y="-16.8" font-family="Helvetica,sans-Serif" font-size="9.00">de.flashpixx.rrd_antlr4.engine.template.</text>
<text text-anchor="middle" x="295" y="-6.8" font-family="Helvetica,sans-Serif" font-size="9.00">ITemplate.grammar</text>
</a>
</g>
</g>
<!-- Node28&#45;&gt;Node33 -->
<g id="edge7" class="edge"><title>Node28&#45;&gt;Node33</title>
<path fill="none" stroke="midnightblue" d="M169.702,-27.7444C178.222,-26.8024 186.93,-25.8394 195.587,-24.8822"/>
<polygon fill="midnightblue" stroke="midnightblue" points="196.156,-28.3407 205.711,-23.7627 195.387,-21.3831 196.156,-28.3407"/>
</g>
<!-- Node30 -->
<g id="node3" class="node"><title>Node30</title>
<g id="a_node3"><a xlink:href="../../de/d1c/classde_1_1flashpixx_1_1rrd__antlr4_1_1CStringReplace.html#a26311e2ab467fcf79cf389773a33b8cc" target="_top" xlink:title="replaces the content ">
<polygon fill="none" stroke="black" points="420.5,-112 420.5,-140 545.5,-140 545.5,-112 420.5,-112"/>
<text text-anchor="start" x="428.5" y="-128.8" font-family="Helvetica,sans-Serif" font-size="9.00">de.flashpixx.rrd_antlr4.</text>
<text text-anchor="middle" x="483" y="-118.8" font-family="Helvetica,sans-Serif" font-size="9.00">CStringReplace.replaceAll</text>
</a>
</g>
</g>
<!-- Node29&#45;&gt;Node30 -->
<g id="edge2" class="edge"><title>Node29&#45;&gt;Node30</title>
<path fill="none" stroke="midnightblue" d="M336.359,-75.104C364.511,-84.942 402.258,-98.1332 432.269,-108.621"/>
<polygon fill="midnightblue" stroke="midnightblue" points="431.125,-111.929 441.72,-111.923 433.434,-105.32 431.125,-111.929"/>
</g>
<!-- Node31 -->
<g id="node4" class="node"><title>Node31</title>
<g id="a_node4"><a xlink:href="../../de/d1c/classde_1_1flashpixx_1_1rrd__antlr4_1_1CStringReplace.html#a46fcaa4dfb93afd193cabe44c50ed976" target="_top" xlink:title="replace a char sequence ">
<polygon fill="none" stroke="black" points="425.5,-47 425.5,-75 540.5,-75 540.5,-47 425.5,-47"/>
<text text-anchor="start" x="433.5" y="-63.8" font-family="Helvetica,sans-Serif" font-size="9.00">de.flashpixx.rrd_antlr4.</text>
<text text-anchor="middle" x="483" y="-53.8" font-family="Helvetica,sans-Serif" font-size="9.00">CStringReplace.replace</text>
</a>
</g>
</g>
<!-- Node29&#45;&gt;Node31 -->
<g id="edge4" class="edge"><title>Node29&#45;&gt;Node31</title>
<path fill="none" stroke="midnightblue" d="M360.011,-61C377.838,-61 397.245,-61 415.226,-61"/>
<polygon fill="midnightblue" stroke="midnightblue" points="415.338,-64.5001 425.337,-61 415.337,-57.5001 415.338,-64.5001"/>
</g>
<!-- Node32 -->
<g id="node5" class="node"><title>Node32</title>
<g id="a_node5"><a xlink:href="../../de/d1c/classde_1_1flashpixx_1_1rrd__antlr4_1_1CStringReplace.html#a51cb976d0ad1aeb40be593e9d076048e" target="_top" xlink:title="returns the data ">
<polygon fill="none" stroke="black" points="428,-0 428,-28 538,-28 538,-0 428,-0"/>
<text text-anchor="start" x="436" y="-16.8" font-family="Helvetica,sans-Serif" font-size="9.00">de.flashpixx.rrd_antlr4.</text>
<text text-anchor="middle" x="483" y="-6.8" font-family="Helvetica,sans-Serif" font-size="9.00">CStringReplace.get</text>
</a>
</g>
</g>
<!-- Node29&#45;&gt;Node32 -->
<g id="edge6" class="edge"><title>Node29&#45;&gt;Node32</title>
<path fill="none" stroke="midnightblue" d="M351.554,-46.9621C372.441,-41.6843 396.353,-35.6421 417.95,-30.1846"/>
<polygon fill="midnightblue" stroke="midnightblue" points="418.854,-33.5663 427.692,-27.723 417.139,-26.7796 418.854,-33.5663"/>
</g>
<!-- Node30&#45;&gt;Node30 -->
<g id="edge3" class="edge"><title>Node30&#45;&gt;Node30</title>
<path fill="none" stroke="midnightblue" d="M450.538,-140.148C442.07,-149.245 452.891,-158 483,-158 501.348,-158 512.533,-154.749 516.556,-150.15"/>
<polygon fill="midnightblue" stroke="midnightblue" points="520.028,-149.708 515.462,-140.148 513.07,-150.469 520.028,-149.708"/>
</g>
<!-- Node31&#45;&gt;Node31 -->
<g id="edge5" class="edge"><title>Node31&#45;&gt;Node31</title>
<path fill="none" stroke="midnightblue" d="M450.538,-75.1476C442.07,-84.2448 452.891,-93 483,-93 501.348,-93 512.533,-89.7489 516.556,-85.1504"/>
<polygon fill="midnightblue" stroke="midnightblue" points="520.028,-84.7077 515.462,-75.1476 513.07,-85.4689 520.028,-84.7077"/>
</g>
</g>
</svg>
        <g id="navigator" transform="translate(0 0)" fill="#404254">
                <rect fill="#f2f5e9" fill-opacity="0.5" stroke="#606060" stroke-width=".5" x="0" y="0" width="60" height="60"/>
                <use id="zoomplus" xlink:href="#zoomPlus" x="17" y="9" onmousedown="handleZoom(evt,'in')"/>
                <use id="zoomminus" xlink:href="#zoomMin" x="42" y="9" onmousedown="handleZoom(evt,'out')"/>
                <use id="reset" xlink:href="#resetDef" x="30" y="36" onmousedown="handleReset()"/>
                <g id="arrowUp" xlink:href="#dirArrow" transform="translate(30 24)" onmousedown="handlePan(0,-1)">
                  <use xlink:href="#rim" fill="#404040">
                        <set attributeName="fill" to="#808080" begin="arrowUp.mouseover" end="arrowUp.mouseout"/>
                  </use>
                  <path fill="none" stroke="white" stroke-width="1.5" d="M0,-3.0v7 M-2.5,-0.5L0,-3.0L2.5,-0.5"/>
                </g>
                <g id="arrowRight" xlink:href="#dirArrow" transform="rotate(90) translate(36 -43)" onmousedown="handlePan(1,0)">
                  <use xlink:href="#rim" fill="#404040">
                        <set attributeName="fill" to="#808080" begin="arrowRight.mouseover" end="arrowRight.mouseout"/>
                  </use>
                  <path fill="none" stroke="white" stroke-width="1.5" d="M0,-3.0v7 M-2.5,-0.5L0,-3.0L2.5,-0.5"/>
                </g>
                <g id="arrowDown" xlink:href="#dirArrow" transform="rotate(180) translate(-30 -48)" onmousedown="handlePan(0,1)">
                  <use xlink:href="#rim" fill="#404040">
                        <set attributeName="fill" to="#808080" begin="arrowDown.mouseover" end="arrowDown.mouseout"/>
                  </use>
                  <path fill="none" stroke="white" stroke-width="1.5" d="M0,-3.0v7 M-2.5,-0.5L0,-3.0L2.5,-0.5"/>
                </g>
                <g id="arrowLeft" xlink:href="#dirArrow" transform="rotate(270) translate(-36 17)" onmousedown="handlePan(-1,0)">
                  <use xlink:href="#rim" fill="#404040">
                        <set attributeName="fill" to="#808080" begin="arrowLeft.mouseover" end="arrowLeft.mouseout"/>
                  </use>
                  <path fill="none" stroke="white" stroke-width="1.5" d="M0,-3.0v7 M-2.5,-0.5L0,-3.0L2.5,-0.5"/>
                </g>
        </g>
        <svg viewBox="0 0 15 15" width="100%" height="30px" preserveAspectRatio="xMaxYMin meet">
         <g id="arrow_out" transform="scale(0.3 0.3)">
          <a xlink:href="classde_1_1flashpixx_1_1rrd__antlr4_1_1antlr_1_1CASTVisitorAntLR_a48686dd838370435e16abb39f3a51da1_cgraph_org.svg" target="_base">
           <rect id="button" ry="5" rx="5" y="6" x="6" height="38" width="38"
                fill="#f2f5e9" fill-opacity="0.5" stroke="#606060" stroke-width="1.0"/>
           <path id="arrow"
             d="M 11.500037,31.436501 C 11.940474,20.09759 22.043105,11.32322 32.158766,21.979434 L 37.068811,17.246167 C 37.068811,17.246167 37.088388,32 37.088388,32 L 22.160133,31.978069 C 22.160133,31.978069 26.997745,27.140456 26.997745,27.140456 C 18.528582,18.264221 13.291696,25.230495 11.500037,31.436501 z"
             style="fill:#404040;"/>
          </a>
         </g>
        </svg>
</svg>
