<?xml version="1.0" encoding="UTF-8" standalone="no"?>
<!DOCTYPE svg PUBLIC "-//W3C//DTD SVG 1.1//EN"
 "http://www.w3.org/Graphics/SVG/1.1/DTD/svg11.dtd">
<!-- Generated by graphviz version 2.36.0 (20140111.2315)
 -->
<!-- Title: de.flashpixx.rrd_antlr4.antlr.CASTVisitorAntLR.visitElement Pages: 1 -->
<svg width="490pt" height="36pt"
 viewBox="0.00 0.00 490.00 36.00" xmlns="http://www.w3.org/2000/svg" xmlns:xlink="http://www.w3.org/1999/xlink">
<g id="graph0" class="graph" transform="scale(1 1) rotate(0) translate(4 32)">
<title>de.flashpixx.rrd_antlr4.antlr.CASTVisitorAntLR.visitElement</title>
<!-- Node24 -->
<g id="node1" class="node"><title>Node24</title>
<polygon fill="#bfbfbf" stroke="black" points="0.5,-0 0.5,-28 143.5,-28 143.5,-0 0.5,-0"/>
<text text-anchor="start" x="8.5" y="-16.8" font-family="Helvetica,sans-Serif" font-size="9.00">de.flashpixx.rrd_antlr4.antlr.</text>
<text text-anchor="middle" x="72" y="-6.8" font-family="Helvetica,sans-Serif" font-size="9.00">CASTVisitorAntLR.visitElement</text>
</g>
<!-- Node25 -->
<g id="node2" class="node"><title>Node25</title>
<g id="a_node2"><a xlink:href="../../d0/db6/classde_1_1flashpixx_1_1rrd__antlr4_1_1antlr_1_1CCommon.html#a0f33650de86e7f474f16a7fd109c8df3" target="_top" xlink:title="defines the cardinality of an grammar element ">
<polygon fill="none" stroke="black" points="180,-0 180,-28 310,-28 310,-0 180,-0"/>
<text text-anchor="start" x="188" y="-16.8" font-family="Helvetica,sans-Serif" font-size="9.00">de.flashpixx.rrd_antlr4.antlr.</text>
<text text-anchor="middle" x="245" y="-6.8" font-family="Helvetica,sans-Serif" font-size="9.00">CCommon.cardinality</text>
</a>
</g>
</g>
<!-- Node24&#45;&gt;Node25 -->
<g id="edge1" class="edge"><title>Node24&#45;&gt;Node25</title>
<path fill="none" stroke="midnightblue" d="M143.54,-14C152.202,-14 161.076,-14 169.79,-14"/>
<polygon fill="midnightblue" stroke="midnightblue" points="169.925,-17.5001 179.925,-14 169.925,-10.5001 169.925,-17.5001"/>
</g>
<!-- Node26 -->
<g id="node3" class="node"><title>Node26</title>
<g id="a_node3"><a xlink:href="../../dd/da7/interfacede_1_1flashpixx_1_1rrd__antlr4_1_1antlr_1_1IGrammarElement.html#ad38b129b0ef008046ccfe6eeae9cf0fe" target="_top" xlink:title="returns the cardinality ">
<polygon fill="none" stroke="black" points="346.5,-0 346.5,-28 481.5,-28 481.5,-0 346.5,-0"/>
<text text-anchor="start" x="354.5" y="-16.8" font-family="Helvetica,sans-Serif" font-size="9.00">de.flashpixx.rrd_antlr4.antlr.</text>
<text text-anchor="middle" x="414" y="-6.8" font-family="Helvetica,sans-Serif" font-size="9.00">IGrammarElement.cardinality</text>
</a>
</g>
</g>
<!-- Node25&#45;&gt;Node26 -->
<g id="edge2" class="edge"><title>Node25&#45;&gt;Node26</title>
<path fill="none" stroke="midnightblue" d="M310.089,-14C318.617,-14 327.432,-14 336.149,-14"/>
<polygon fill="midnightblue" stroke="midnightblue" points="336.315,-17.5001 346.315,-14 336.315,-10.5001 336.315,-17.5001"/>
</g>
</g>
</svg>
