<?xml version="1.0" encoding="UTF-8" standalone="no"?>
<!DOCTYPE svg PUBLIC "-//W3C//DTD SVG 1.1//EN"
 "http://www.w3.org/Graphics/SVG/1.1/DTD/svg11.dtd">
<!-- Generated by graphviz version 2.36.0 (20140111.2315)
 -->
<!-- Title: de.flashpixx.rrd_antlr4.antlr.CASTVisitorAntLR.visitLexerRuleSpec Pages: 1 -->
<!--zoomable 166 -->
<svg id="main" version="1.1" xmlns="http://www.w3.org/2000/svg" xmlns:xlink="http://www.w3.org/1999/xlink" xml:space="preserve" onload="init(evt)">
<style type="text/css"><![CDATA[
.edge:hover path { stroke: red; }
.edge:hover polygon { stroke: red; fill: red; }
]]></style>
<script type="text/javascript"><![CDATA[
var edges = document.getElementsByTagName('g');
if (edges && edges.length) {
  for (var i=0;i<edges.length;i++) {
    if (edges[i].id.substr(0,4)=='edge') {
      edges[i].setAttribute('class','edge');
    }
  }
}
]]></script>
        <defs>
                <circle id="rim" cx="0" cy="0" r="7"/>
                <circle id="rim2" cx="0" cy="0" r="3.5"/>
                <g id="zoomPlus">
                        <use xlink:href="#rim" fill="#404040">
                                <set attributeName="fill" to="#808080" begin="zoomplus.mouseover" end="zoomplus.mouseout"/>
                        </use>
                        <path d="M-4,0h8M0,-4v8" fill="none" stroke="white" stroke-width="1.5" pointer-events="none"/>
                </g>
                <g id="zoomMin">
                        <use xlink:href="#rim" fill="#404040">
                                <set attributeName="fill" to="#808080" begin="zoomminus.mouseover" end="zoomminus.mouseout"/>
                        </use>
                        <path d="M-4,0h8" fill="none" stroke="white" stroke-width="1.5" pointer-events="none"/>
                </g>
                <g id="dirArrow">
                        <path fill="none" stroke="white" stroke-width="1.5" d="M0,-3.0v7 M-2.5,-0.5L0,-3.0L2.5,-0.5"/>
                </g>
               <g id="resetDef">
                       <use xlink:href="#rim2" fill="#404040">
                               <set attributeName="fill" to="#808080" begin="reset.mouseover" end="reset.mouseout"/>
                       </use>
               </g>
        </defs>

<script type="text/javascript">
var viewWidth = 558;
var viewHeight = 166;
var sectionId = 'dynsection-11';
</script>
<script xlink:href="../../svgpan.js"/>
<svg id="graph" class="graph">
<g id="viewport">
<title>de.flashpixx.rrd_antlr4.antlr.CASTVisitorAntLR.visitLexerRuleSpec</title>
<!-- Node48 -->
<g id="node1" class="node"><title>Node48</title>
<polygon fill="#bfbfbf" stroke="black" points="0.5,-23 0.5,-51 173.5,-51 173.5,-23 0.5,-23"/>
<text text-anchor="start" x="8.5" y="-39.8" font-family="Helvetica,sans-Serif" font-size="9.00">de.flashpixx.rrd_antlr4.antlr.</text>
<text text-anchor="middle" x="87" y="-29.8" font-family="Helvetica,sans-Serif" font-size="9.00">CASTVisitorAntLR.visitLexerRuleSpec</text>
</g>
<!-- Node49 -->
<g id="node2" class="node"><title>Node49</title>
<g id="a_node2"><a xlink:href="../../d0/db6/classde_1_1flashpixx_1_1rrd__antlr4_1_1antlr_1_1CCommon.html#a046543cf95af34fb6ec4c2ccec471322" target="_top" xlink:title="cleanup comment from doxygen structure ">
<polygon fill="none" stroke="black" points="234,-47 234,-75 364,-75 364,-47 234,-47"/>
<text text-anchor="start" x="242" y="-63.8" font-family="Helvetica,sans-Serif" font-size="9.00">de.flashpixx.rrd_antlr4.antlr.</text>
<text text-anchor="middle" x="299" y="-53.8" font-family="Helvetica,sans-Serif" font-size="9.00">CCommon.cleanComment</text>
</a>
</g>
</g>
<!-- Node48&#45;&gt;Node49 -->
<g id="edge1" class="edge"><title>Node48&#45;&gt;Node49</title>
<path fill="none" stroke="midnightblue" d="M173.718,-46.7963C190.342,-48.6962 207.633,-50.6724 223.848,-52.5255"/>
<polygon fill="midnightblue" stroke="midnightblue" points="223.456,-56.0034 233.789,-53.6616 224.251,-49.0487 223.456,-56.0034"/>
</g>
<!-- Node53 -->
<g id="node6" class="node"><title>Node53</title>
<g id="a_node6"><a xlink:href="../../d6/d71/interfacede_1_1flashpixx_1_1rrd__antlr4_1_1engine_1_1template_1_1ITemplate.html#a91c8b3c62c414dec89e1a49c88da452b" target="_top" xlink:title="is called if any grammar element is completed ">
<polygon fill="none" stroke="black" points="210,-0 210,-28 388,-28 388,-0 210,-0"/>
<text text-anchor="start" x="218" y="-16.8" font-family="Helvetica,sans-Serif" font-size="9.00">de.flashpixx.rrd_antlr4.engine.template.</text>
<text text-anchor="middle" x="299" y="-6.8" font-family="Helvetica,sans-Serif" font-size="9.00">ITemplate.element</text>
</a>
</g>
</g>
<!-- Node48&#45;&gt;Node53 -->
<g id="edge7" class="edge"><title>Node48&#45;&gt;Node53</title>
<path fill="none" stroke="midnightblue" d="M173.718,-27.6118C182.277,-26.6744 191.013,-25.7176 199.688,-24.7675"/>
<polygon fill="midnightblue" stroke="midnightblue" points="200.27,-28.2248 209.83,-23.6568 199.508,-21.2664 200.27,-28.2248"/>
</g>
<!-- Node50 -->
<g id="node3" class="node"><title>Node50</title>
<g id="a_node3"><a xlink:href="../../de/d1c/classde_1_1flashpixx_1_1rrd__antlr4_1_1CStringReplace.html#a26311e2ab467fcf79cf389773a33b8cc" target="_top" xlink:title="replaces the content ">
<polygon fill="none" stroke="black" points="424.5,-112 424.5,-140 549.5,-140 549.5,-112 424.5,-112"/>
<text text-anchor="start" x="432.5" y="-128.8" font-family="Helvetica,sans-Serif" font-size="9.00">de.flashpixx.rrd_antlr4.</text>
<text text-anchor="middle" x="487" y="-118.8" font-family="Helvetica,sans-Serif" font-size="9.00">CStringReplace.replaceAll</text>
</a>
</g>
</g>
<!-- Node49&#45;&gt;Node50 -->
<g id="edge2" class="edge"><title>Node49&#45;&gt;Node50</title>
<path fill="none" stroke="midnightblue" d="M340.359,-75.104C368.511,-84.942 406.258,-98.1332 436.269,-108.621"/>
<polygon fill="midnightblue" stroke="midnightblue" points="435.125,-111.929 445.72,-111.923 437.434,-105.32 435.125,-111.929"/>
</g>
<!-- Node51 -->
<g id="node4" class="node"><title>Node51</title>
<g id="a_node4"><a xlink:href="../../de/d1c/classde_1_1flashpixx_1_1rrd__antlr4_1_1CStringReplace.html#a46fcaa4dfb93afd193cabe44c50ed976" target="_top" xlink:title="replace a char sequence ">
<polygon fill="none" stroke="black" points="429.5,-47 429.5,-75 544.5,-75 544.5,-47 429.5,-47"/>
<text text-anchor="start" x="437.5" y="-63.8" font-family="Helvetica,sans-Serif" font-size="9.00">de.flashpixx.rrd_antlr4.</text>
<text text-anchor="middle" x="487" y="-53.8" font-family="Helvetica,sans-Serif" font-size="9.00">CStringReplace.replace</text>
</a>
</g>
</g>
<!-- Node49&#45;&gt;Node51 -->
<g id="edge4" class="edge"><title>Node49&#45;&gt;Node51</title>
<path fill="none" stroke="midnightblue" d="M364.011,-61C381.838,-61 401.245,-61 419.226,-61"/>
<polygon fill="midnightblue" stroke="midnightblue" points="419.338,-64.5001 429.337,-61 419.337,-57.5001 419.338,-64.5001"/>
</g>
<!-- Node52 -->
<g id="node5" class="node"><title>Node52</title>
<g id="a_node5"><a xlink:href="../../de/d1c/classde_1_1flashpixx_1_1rrd__antlr4_1_1CStringReplace.html#a51cb976d0ad1aeb40be593e9d076048e" target="_top" xlink:title="returns the data ">
<polygon fill="none" stroke="black" points="432,-0 432,-28 542,-28 542,-0 432,-0"/>
<text text-anchor="start" x="440" y="-16.8" font-family="Helvetica,sans-Serif" font-size="9.00">de.flashpixx.rrd_antlr4.</text>
<text text-anchor="middle" x="487" y="-6.8" font-family="Helvetica,sans-Serif" font-size="9.00">CStringReplace.get</text>
</a>
</g>
</g>
<!-- Node49&#45;&gt;Node52 -->
<g id="edge6" class="edge"><title>Node49&#45;&gt;Node52</title>
<path fill="none" stroke="midnightblue" d="M355.554,-46.9621C376.441,-41.6843 400.353,-35.6421 421.95,-30.1846"/>
<polygon fill="midnightblue" stroke="midnightblue" points="422.854,-33.5663 431.692,-27.723 421.139,-26.7796 422.854,-33.5663"/>
</g>
<!-- Node50&#45;&gt;Node50 -->
<g id="edge3" class="edge"><title>Node50&#45;&gt;Node50</title>
<path fill="none" stroke="midnightblue" d="M454.538,-140.148C446.07,-149.245 456.891,-158 487,-158 505.348,-158 516.533,-154.749 520.556,-150.15"/>
<polygon fill="midnightblue" stroke="midnightblue" points="524.028,-149.708 519.462,-140.148 517.07,-150.469 524.028,-149.708"/>
</g>
<!-- Node51&#45;&gt;Node51 -->
<g id="edge5" class="edge"><title>Node51&#45;&gt;Node51</title>
<path fill="none" stroke="midnightblue" d="M454.538,-75.1476C446.07,-84.2448 456.891,-93 487,-93 505.348,-93 516.533,-89.7489 520.556,-85.1504"/>
<polygon fill="midnightblue" stroke="midnightblue" points="524.028,-84.7077 519.462,-75.1476 517.07,-85.4689 524.028,-84.7077"/>
</g>
</g>
</svg>
        <g id="navigator" transform="translate(0 0)" fill="#404254">
                <rect fill="#f2f5e9" fill-opacity="0.5" stroke="#606060" stroke-width=".5" x="0" y="0" width="60" height="60"/>
                <use id="zoomplus" xlink:href="#zoomPlus" x="17" y="9" onmousedown="handleZoom(evt,'in')"/>
                <use id="zoomminus" xlink:href="#zoomMin" x="42" y="9" onmousedown="handleZoom(evt,'out')"/>
                <use id="reset" xlink:href="#resetDef" x="30" y="36" onmousedown="handleReset()"/>
                <g id="arrowUp" xlink:href="#dirArrow" transform="translate(30 24)" onmousedown="handlePan(0,-1)">
                  <use xlink:href="#rim" fill="#404040">
                        <set attributeName="fill" to="#808080" begin="arrowUp.mouseover" end="arrowUp.mouseout"/>
                  </use>
                  <path fill="none" stroke="white" stroke-width="1.5" d="M0,-3.0v7 M-2.5,-0.5L0,-3.0L2.5,-0.5"/>
                </g>
                <g id="arrowRight" xlink:href="#dirArrow" transform="rotate(90) translate(36 -43)" onmousedown="handlePan(1,0)">
                  <use xlink:href="#rim" fill="#404040">
                        <set attributeName="fill" to="#808080" begin="arrowRight.mouseover" end="arrowRight.mouseout"/>
                  </use>
                  <path fill="none" stroke="white" stroke-width="1.5" d="M0,-3.0v7 M-2.5,-0.5L0,-3.0L2.5,-0.5"/>
                </g>
                <g id="arrowDown" xlink:href="#dirArrow" transform="rotate(180) translate(-30 -48)" onmousedown="handlePan(0,1)">
                  <use xlink:href="#rim" fill="#404040">
                        <set attributeName="fill" to="#808080" begin="arrowDown.mouseover" end="arrowDown.mouseout"/>
                  </use>
                  <path fill="none" stroke="white" stroke-width="1.5" d="M0,-3.0v7 M-2.5,-0.5L0,-3.0L2.5,-0.5"/>
                </g>
                <g id="arrowLeft" xlink:href="#dirArrow" transform="rotate(270) translate(-36 17)" onmousedown="handlePan(-1,0)">
                  <use xlink:href="#rim" fill="#404040">
                        <set attributeName="fill" to="#808080" begin="arrowLeft.mouseover" end="arrowLeft.mouseout"/>
                  </use>
                  <path fill="none" stroke="white" stroke-width="1.5" d="M0,-3.0v7 M-2.5,-0.5L0,-3.0L2.5,-0.5"/>
                </g>
        </g>
        <svg viewBox="0 0 15 15" width="100%" height="30px" preserveAspectRatio="xMaxYMin meet">
         <g id="arrow_out" transform="scale(0.3 0.3)">
          <a xlink:href="classde_1_1flashpixx_1_1rrd__antlr4_1_1antlr_1_1CASTVisitorAntLR_a3001276765ec297b9e776a1f2445e522_cgraph_org.svg" target="_base">
           <rect id="button" ry="5" rx="5" y="6" x="6" height="38" width="38"
                fill="#f2f5e9" fill-opacity="0.5" stroke="#606060" stroke-width="1.0"/>
           <path id="arrow"
             d="M 11.500037,31.436501 C 11.940474,20.09759 22.043105,11.32322 32.158766,21.979434 L 37.068811,17.246167 C 37.068811,17.246167 37.088388,32 37.088388,32 L 22.160133,31.978069 C 22.160133,31.978069 26.997745,27.140456 26.997745,27.140456 C 18.528582,18.264221 13.291696,25.230495 11.500037,31.436501 z"
             style="fill:#404040;"/>
          </a>
         </g>
        </svg>
</svg>
