<?xml version="1.0" encoding="UTF-8" standalone="no"?>
<!DOCTYPE svg PUBLIC "-//W3C//DTD SVG 1.1//EN"
 "http://www.w3.org/Graphics/SVG/1.1/DTD/svg11.dtd">
<!-- Generated by graphviz version 2.36.0 (20140111.2315)
 -->
<!-- Title: de.flashpixx.rrd_antlr4.antlr.IGrammarSequence Pages: 1 -->
<svg width="138pt" height="288pt"
 viewBox="0.00 0.00 138.00 288.00" xmlns="http://www.w3.org/2000/svg" xmlns:xlink="http://www.w3.org/1999/xlink">
<g id="graph0" class="graph" transform="scale(1 1) rotate(0) translate(4 284)">
<title>de.flashpixx.rrd_antlr4.antlr.IGrammarSequence</title>
<!-- Node4 -->
<g id="node1" class="node"><title>Node4</title>
<polygon fill="#bfbfbf" stroke="black" points="0,-1 0,-65 130,-65 130,-1 0,-1"/>
<text text-anchor="start" x="8" y="-53.8" font-family="Helvetica,sans-Serif" font-size="9.00">de.flashpixx.rrd_antlr4.antlr.</text>
<text text-anchor="middle" x="65" y="-43.8" font-family="Helvetica,sans-Serif" font-size="9.00">IGrammarSequence</text>
<polyline fill="none" stroke="black" points="0,-37 130,-37 "/>
<text text-anchor="middle" x="65" y="-25.8" font-family="Helvetica,sans-Serif" font-size="9.00"> </text>
<polyline fill="none" stroke="black" points="0,-19 130,-19 "/>
<text text-anchor="middle" x="65" y="-7.8" font-family="Helvetica,sans-Serif" font-size="9.00"> </text>
</g>
<!-- Node5 -->
<g id="node2" class="node"><title>Node5</title>
<g id="a_node2"><a xlink:href="../../da/dbc/interfacede_1_1flashpixx_1_1rrd__antlr4_1_1antlr_1_1IGrammarCollection.html" target="_top" xlink:title="interface of grammar collection elements ">
<polygon fill="none" stroke="black" points="0,-103 0,-167 130,-167 130,-103 0,-103"/>
<text text-anchor="start" x="8" y="-155.8" font-family="Helvetica,sans-Serif" font-size="9.00">de.flashpixx.rrd_antlr4.antlr.</text>
<text text-anchor="middle" x="65" y="-145.8" font-family="Helvetica,sans-Serif" font-size="9.00">IGrammarCollection</text>
<polyline fill="none" stroke="black" points="0,-139 130,-139 "/>
<text text-anchor="middle" x="65" y="-127.8" font-family="Helvetica,sans-Serif" font-size="9.00"> </text>
<polyline fill="none" stroke="black" points="0,-121 130,-121 "/>
<text text-anchor="start" x="8" y="-109.8" font-family="Helvetica,sans-Serif" font-size="9.00">+ get()</text>
</a>
</g>
</g>
<!-- Node5&#45;&gt;Node4 -->
<g id="edge1" class="edge"><title>Node5&#45;&gt;Node4</title>
<path fill="none" stroke="midnightblue" d="M65,-92.7162C65,-83.4731 65,-73.8199 65,-65.0732"/>
<polygon fill="none" stroke="midnightblue" points="61.5001,-92.9075 65,-102.908 68.5001,-92.9076 61.5001,-92.9075"/>
</g>
<!-- Node6 -->
<g id="node3" class="node"><title>Node6</title>
<g id="a_node3"><a xlink:href="../../dd/da7/interfacede_1_1flashpixx_1_1rrd__antlr4_1_1antlr_1_1IGrammarElement.html" target="_top" xlink:title="any grammar element ">
<polygon fill="none" stroke="black" points="0,-205 0,-279 130,-279 130,-205 0,-205"/>
<text text-anchor="start" x="8" y="-267.8" font-family="Helvetica,sans-Serif" font-size="9.00">de.flashpixx.rrd_antlr4.antlr.</text>
<text text-anchor="middle" x="65" y="-257.8" font-family="Helvetica,sans-Serif" font-size="9.00">IGrammarElement</text>
<polyline fill="none" stroke="black" points="0,-251 130,-251 "/>
<text text-anchor="middle" x="65" y="-239.8" font-family="Helvetica,sans-Serif" font-size="9.00"> </text>
<polyline fill="none" stroke="black" points="0,-233 130,-233 "/>
<text text-anchor="start" x="8" y="-221.8" font-family="Helvetica,sans-Serif" font-size="9.00">+ cardinality()</text>
<text text-anchor="start" x="8" y="-211.8" font-family="Helvetica,sans-Serif" font-size="9.00">+ cardinality()</text>
</a>
</g>
</g>
<!-- Node6&#45;&gt;Node5 -->
<g id="edge2" class="edge"><title>Node6&#45;&gt;Node5</title>
<path fill="none" stroke="midnightblue" d="M65,-194.608C65,-185.372 65,-175.88 65,-167.297"/>
<polygon fill="none" stroke="midnightblue" points="61.5001,-194.865 65,-204.865 68.5001,-194.865 61.5001,-194.865"/>
</g>
</g>
</svg>
