<?xml version="1.0" encoding="UTF-8" standalone="no"?>
<!DOCTYPE svg PUBLIC "-//W3C//DTD SVG 1.1//EN"
 "http://www.w3.org/Graphics/SVG/1.1/DTD/svg11.dtd">
<!-- Generated by graphviz version 2.36.0 (20140111.2315)
 -->
<!-- Title: de.flashpixx.rrd_antlr4.generator.IBaseGenerator Pages: 1 -->
<svg width="318pt" height="296pt"
 viewBox="0.00 0.00 318.00 296.00" xmlns="http://www.w3.org/2000/svg" xmlns:xlink="http://www.w3.org/1999/xlink">
<g id="graph0" class="graph" transform="scale(1 1) rotate(0) translate(4 292)">
<title>de.flashpixx.rrd_antlr4.generator.IBaseGenerator</title>
<!-- Node4 -->
<g id="node1" class="node"><title>Node4</title>
<polygon fill="#bfbfbf" stroke="black" points="82,-1 82,-155 234,-155 234,-1 82,-1"/>
<text text-anchor="start" x="90" y="-143.8" font-family="Helvetica,sans-Serif" font-size="9.00">de.flashpixx.rrd_antlr4.generator.</text>
<text text-anchor="middle" x="158" y="-133.8" font-family="Helvetica,sans-Serif" font-size="9.00">IBaseGenerator</text>
<polyline fill="none" stroke="black" points="82,-127 234,-127 "/>
<text text-anchor="start" x="90" y="-115.8" font-family="Helvetica,sans-Serif" font-size="9.00"># m_baseoutput</text>
<text text-anchor="start" x="90" y="-105.8" font-family="Helvetica,sans-Serif" font-size="9.00"># m_error</text>
<text text-anchor="start" x="90" y="-95.8" font-family="Helvetica,sans-Serif" font-size="9.00"># m_templates</text>
<text text-anchor="start" x="90" y="-85.8" font-family="Helvetica,sans-Serif" font-size="9.00">&#45; m_docuclean</text>
<text text-anchor="start" x="90" y="-75.8" font-family="Helvetica,sans-Serif" font-size="9.00">&#45; m_imports</text>
<polyline fill="none" stroke="black" points="82,-69 234,-69 "/>
<text text-anchor="start" x="90" y="-57.8" font-family="Helvetica,sans-Serif" font-size="9.00">+ finish()</text>
<text text-anchor="start" x="90" y="-47.8" font-family="Helvetica,sans-Serif" font-size="9.00">+ generate()</text>
<text text-anchor="start" x="90" y="-37.8" font-family="Helvetica,sans-Serif" font-size="9.00">+ hasError()</text>
<text text-anchor="start" x="90" y="-27.8" font-family="Helvetica,sans-Serif" font-size="9.00"># IBaseGenerator()</text>
<text text-anchor="start" x="90" y="-17.8" font-family="Helvetica,sans-Serif" font-size="9.00"># processmessages()</text>
<text text-anchor="start" x="90" y="-7.8" font-family="Helvetica,sans-Serif" font-size="9.00"># processoutputdirectory()</text>
</g>
<!-- Node5 -->
<g id="node2" class="node"><title>Node5</title>
<g id="a_node2"><a xlink:href="../../df/dd6/interfacede_1_1flashpixx_1_1rrd__antlr4_1_1generator_1_1IGenerator.html" target="_top" xlink:title="interface to generate data ">
<polygon fill="none" stroke="black" points="0,-203 0,-287 152,-287 152,-203 0,-203"/>
<text text-anchor="start" x="8" y="-275.8" font-family="Helvetica,sans-Serif" font-size="9.00">de.flashpixx.rrd_antlr4.generator.</text>
<text text-anchor="middle" x="76" y="-265.8" font-family="Helvetica,sans-Serif" font-size="9.00">IGenerator</text>
<polyline fill="none" stroke="black" points="0,-259 152,-259 "/>
<text text-anchor="middle" x="76" y="-247.8" font-family="Helvetica,sans-Serif" font-size="9.00"> </text>
<polyline fill="none" stroke="black" points="0,-241 152,-241 "/>
<text text-anchor="start" x="8" y="-229.8" font-family="Helvetica,sans-Serif" font-size="9.00">+ finish()</text>
<text text-anchor="start" x="8" y="-219.8" font-family="Helvetica,sans-Serif" font-size="9.00">+ generate()</text>
<text text-anchor="start" x="8" y="-209.8" font-family="Helvetica,sans-Serif" font-size="9.00">+ hasError()</text>
</a>
</g>
</g>
<!-- Node5&#45;&gt;Node4 -->
<g id="edge1" class="edge"><title>Node5&#45;&gt;Node4</title>
<path fill="none" stroke="midnightblue" d="M101.005,-193.686C107.077,-181.468 113.704,-168.133 120.221,-155.018"/>
<polygon fill="none" stroke="midnightblue" points="97.7967,-192.276 96.4805,-202.789 104.065,-195.392 97.7967,-192.276"/>
</g>
<!-- Node6 -->
<g id="node3" class="node"><title>Node6</title>
<g id="a_node3"><a xlink:href="../../d9/d6b/classde_1_1flashpixx_1_1rrd__antlr4_1_1engine_1_1CEngine.html" target="_top" xlink:title="template engine ">
<polygon fill="none" stroke="black" points="170,-208 170,-282 310,-282 310,-208 170,-208"/>
<text text-anchor="start" x="178" y="-270.8" font-family="Helvetica,sans-Serif" font-size="9.00">de.flashpixx.rrd_antlr4.engine.</text>
<text text-anchor="middle" x="240" y="-260.8" font-family="Helvetica,sans-Serif" font-size="9.00">CEngine</text>
<polyline fill="none" stroke="black" points="170,-254 310,-254 "/>
<text text-anchor="middle" x="240" y="-242.8" font-family="Helvetica,sans-Serif" font-size="9.00"> </text>
<polyline fill="none" stroke="black" points="170,-236 310,-236 "/>
<text text-anchor="start" x="178" y="-224.8" font-family="Helvetica,sans-Serif" font-size="9.00">+ generate()</text>
<text text-anchor="start" x="178" y="-214.8" font-family="Helvetica,sans-Serif" font-size="9.00">&#45; parse()</text>
</a>
</g>
</g>
<!-- Node6&#45;&gt;Node4 -->
<g id="edge2" class="edge"><title>Node6&#45;&gt;Node4</title>
<path fill="none" stroke="#404040" d="M222.005,-207.79C215.783,-195.271 208.517,-180.649 201.157,-165.84"/>
<polygon fill="none" stroke="#404040" points="201.136,-165.798 194.884,-162.205 195.795,-155.052 202.048,-158.645 201.136,-165.798"/>
<text text-anchor="middle" x="228" y="-176.8" font-family="Helvetica,sans-Serif" font-size="9.00"> &#45;ENGINE</text>
</g>
</g>
</svg>
