<?xml version="1.0" encoding="UTF-8" standalone="no"?>
<!DOCTYPE svg PUBLIC "-//W3C//DTD SVG 1.1//EN"
 "http://www.w3.org/Graphics/SVG/1.1/DTD/svg11.dtd">
<!-- Generated by graphviz version 2.36.0 (20140111.2315)
 -->
<!-- Title: de.flashpixx.rrd_antlr4.antlr.IGrammarGroup Pages: 1 -->
<svg width="138pt" height="368pt"
 viewBox="0.00 0.00 138.00 368.00" xmlns="http://www.w3.org/2000/svg" xmlns:xlink="http://www.w3.org/1999/xlink">
<g id="graph0" class="graph" transform="scale(1 1) rotate(0) translate(4 364)">
<title>de.flashpixx.rrd_antlr4.antlr.IGrammarGroup</title>
<!-- Node0 -->
<g id="node1" class="node"><title>Node0</title>
<polygon fill="#bfbfbf" stroke="black" points="0,-183 0,-247 130,-247 130,-183 0,-183"/>
<text text-anchor="start" x="8" y="-235.8" font-family="Helvetica,sans-Serif" font-size="9.00">de.flashpixx.rrd_antlr4.antlr.</text>
<text text-anchor="middle" x="65" y="-225.8" font-family="Helvetica,sans-Serif" font-size="9.00">IGrammarGroup</text>
<polyline fill="none" stroke="black" points="0,-219 130,-219 "/>
<text text-anchor="middle" x="65" y="-207.8" font-family="Helvetica,sans-Serif" font-size="9.00"> </text>
<polyline fill="none" stroke="black" points="0,-201 130,-201 "/>
<text text-anchor="start" x="8" y="-189.8" font-family="Helvetica,sans-Serif" font-size="9.00">+ element()</text>
</g>
<!-- Node2 -->
<g id="node3" class="node"><title>Node2</title>
<g id="a_node3"><a xlink:href="../../d2/dea/classde_1_1flashpixx_1_1rrd__antlr4_1_1antlr_1_1CGrammarGroup.html" target="_top" xlink:title="group of grammar elements ">
<polygon fill="none" stroke="black" points="0,-1 0,-145 130,-145 130,-1 0,-1"/>
<text text-anchor="start" x="8" y="-133.8" font-family="Helvetica,sans-Serif" font-size="9.00">de.flashpixx.rrd_antlr4.antlr.</text>
<text text-anchor="middle" x="65" y="-123.8" font-family="Helvetica,sans-Serif" font-size="9.00">CGrammarGroup</text>
<polyline fill="none" stroke="black" points="0,-117 130,-117 "/>
<text text-anchor="start" x="8" y="-105.8" font-family="Helvetica,sans-Serif" font-size="9.00">&#45; m_cardinality</text>
<text text-anchor="start" x="8" y="-95.8" font-family="Helvetica,sans-Serif" font-size="9.00">&#45; m_element</text>
<polyline fill="none" stroke="black" points="0,-89 130,-89 "/>
<text text-anchor="start" x="8" y="-77.8" font-family="Helvetica,sans-Serif" font-size="9.00">+ CGrammarGroup()</text>
<text text-anchor="start" x="8" y="-67.8" font-family="Helvetica,sans-Serif" font-size="9.00">+ CGrammarGroup()</text>
<text text-anchor="start" x="8" y="-57.8" font-family="Helvetica,sans-Serif" font-size="9.00">+ cardinality()</text>
<text text-anchor="start" x="8" y="-47.8" font-family="Helvetica,sans-Serif" font-size="9.00">+ cardinality()</text>
<text text-anchor="start" x="8" y="-37.8" font-family="Helvetica,sans-Serif" font-size="9.00">+ element()</text>
<text text-anchor="start" x="8" y="-27.8" font-family="Helvetica,sans-Serif" font-size="9.00">+ equals()</text>
<text text-anchor="start" x="8" y="-17.8" font-family="Helvetica,sans-Serif" font-size="9.00">+ hashCode()</text>
<text text-anchor="start" x="8" y="-7.8" font-family="Helvetica,sans-Serif" font-size="9.00">+ toString()</text>
</a>
</g>
</g>
<!-- Node0&#45;&gt;Node2 -->
<g id="edge2" class="edge"><title>Node0&#45;&gt;Node2</title>
<path fill="none" stroke="midnightblue" d="M65,-172.7C65,-163.984 65,-154.55 65,-145.089"/>
<polygon fill="none" stroke="midnightblue" points="61.5001,-172.929 65,-182.929 68.5001,-172.929 61.5001,-172.929"/>
</g>
<!-- Node1 -->
<g id="node2" class="node"><title>Node1</title>
<g id="a_node2"><a xlink:href="../../dd/da7/interfacede_1_1flashpixx_1_1rrd__antlr4_1_1antlr_1_1IGrammarElement.html" target="_top" xlink:title="any grammar element ">
<polygon fill="none" stroke="black" points="0,-285 0,-359 130,-359 130,-285 0,-285"/>
<text text-anchor="start" x="8" y="-347.8" font-family="Helvetica,sans-Serif" font-size="9.00">de.flashpixx.rrd_antlr4.antlr.</text>
<text text-anchor="middle" x="65" y="-337.8" font-family="Helvetica,sans-Serif" font-size="9.00">IGrammarElement</text>
<polyline fill="none" stroke="black" points="0,-331 130,-331 "/>
<text text-anchor="middle" x="65" y="-319.8" font-family="Helvetica,sans-Serif" font-size="9.00"> </text>
<polyline fill="none" stroke="black" points="0,-313 130,-313 "/>
<text text-anchor="start" x="8" y="-301.8" font-family="Helvetica,sans-Serif" font-size="9.00">+ cardinality()</text>
<text text-anchor="start" x="8" y="-291.8" font-family="Helvetica,sans-Serif" font-size="9.00">+ cardinality()</text>
</a>
</g>
</g>
<!-- Node1&#45;&gt;Node0 -->
<g id="edge1" class="edge"><title>Node1&#45;&gt;Node0</title>
<path fill="none" stroke="midnightblue" d="M65,-274.608C65,-265.372 65,-255.88 65,-247.297"/>
<polygon fill="none" stroke="midnightblue" points="61.5001,-274.865 65,-284.865 68.5001,-274.865 61.5001,-274.865"/>
</g>
</g>
</svg>
