<?xml version="1.0" encoding="UTF-8" standalone="no"?>
<!DOCTYPE svg PUBLIC "-//W3C//DTD SVG 1.1//EN"
 "http://www.w3.org/Graphics/SVG/1.1/DTD/svg11.dtd">
<!-- Generated by graphviz version 2.36.0 (20140111.2315)
 -->
<!-- Title: de.flashpixx.rrd_antlr4.antlr.IGrammarCollection.get Pages: 1 -->
<svg width="352pt" height="177pt"
 viewBox="0.00 0.00 352.00 177.00" xmlns="http://www.w3.org/2000/svg" xmlns:xlink="http://www.w3.org/1999/xlink">
<g id="graph0" class="graph" transform="scale(1 1) rotate(0) translate(4 173)">
<title>de.flashpixx.rrd_antlr4.antlr.IGrammarCollection.get</title>
<!-- Node1 -->
<g id="node1" class="node"><title>Node1</title>
<polygon fill="#bfbfbf" stroke="black" points="0,-70 0,-98 130,-98 130,-70 0,-70"/>
<text text-anchor="start" x="8" y="-86.8" font-family="Helvetica,sans-Serif" font-size="9.00">de.flashpixx.rrd_antlr4.antlr.</text>
<text text-anchor="middle" x="65" y="-76.8" font-family="Helvetica,sans-Serif" font-size="9.00">IGrammarCollection.get</text>
</g>
<!-- Node2 -->
<g id="node2" class="node"><title>Node2</title>
<g id="a_node2"><a xlink:href="../../da/d63/classde_1_1flashpixx_1_1rrd__antlr4_1_1engine_1_1template_1_1CLaTeXSyntax.html#aa3dd291603ce86a90a5347c908394a35" target="_top" xlink:title="de.flashpixx.rrd_antlr4.engine.template.\lCLaTeXSyntax.choice">
<polygon fill="none" stroke="black" points="166,-141 166,-169 344,-169 344,-141 166,-141"/>
<text text-anchor="start" x="174" y="-157.8" font-family="Helvetica,sans-Serif" font-size="9.00">de.flashpixx.rrd_antlr4.engine.template.</text>
<text text-anchor="middle" x="255" y="-147.8" font-family="Helvetica,sans-Serif" font-size="9.00">CLaTeXSyntax.choice</text>
</a>
</g>
</g>
<!-- Node1&#45;&gt;Node2 -->
<g id="edge1" class="edge"><title>Node1&#45;&gt;Node2</title>
<path fill="none" stroke="midnightblue" d="M101.704,-102.625C120.501,-111.955 144.132,-122.948 166,-131 175.808,-134.611 186.408,-137.956 196.739,-140.931"/>
<polygon fill="midnightblue" stroke="midnightblue" points="103.129,-99.4239 92.6224,-98.0604 99.9857,-105.678 103.129,-99.4239"/>
</g>
<!-- Node3 -->
<g id="node3" class="node"><title>Node3</title>
<g id="a_node3"><a xlink:href="../../df/db0/classde_1_1flashpixx_1_1rrd__antlr4_1_1engine_1_1template_1_1CHTML.html#a78b97b93b551354bf558d71e8e842778" target="_top" xlink:title="de.flashpixx.rrd_antlr4.engine.template.\lCHTML.choice">
<polygon fill="none" stroke="black" points="166,-94 166,-122 344,-122 344,-94 166,-94"/>
<text text-anchor="start" x="174" y="-110.8" font-family="Helvetica,sans-Serif" font-size="9.00">de.flashpixx.rrd_antlr4.engine.template.</text>
<text text-anchor="middle" x="255" y="-100.8" font-family="Helvetica,sans-Serif" font-size="9.00">CHTML.choice</text>
</a>
</g>
</g>
<!-- Node1&#45;&gt;Node3 -->
<g id="edge2" class="edge"><title>Node1&#45;&gt;Node3</title>
<path fill="none" stroke="midnightblue" d="M140.283,-93.4829C148.675,-94.5543 157.288,-95.6538 165.836,-96.745"/>
<polygon fill="midnightblue" stroke="midnightblue" points="140.536,-89.9869 130.173,-92.1923 139.649,-96.9305 140.536,-89.9869"/>
</g>
<!-- Node4 -->
<g id="node4" class="node"><title>Node4</title>
<g id="a_node4"><a xlink:href="../../da/d63/classde_1_1flashpixx_1_1rrd__antlr4_1_1engine_1_1template_1_1CLaTeXSyntax.html#a35fe1b101c1e5cd4754e2f710e6bd7e4" target="_top" xlink:title="de.flashpixx.rrd_antlr4.engine.template.\lCLaTeXSyntax.sequence">
<polygon fill="none" stroke="black" points="166,-47 166,-75 344,-75 344,-47 166,-47"/>
<text text-anchor="start" x="174" y="-63.8" font-family="Helvetica,sans-Serif" font-size="9.00">de.flashpixx.rrd_antlr4.engine.template.</text>
<text text-anchor="middle" x="255" y="-53.8" font-family="Helvetica,sans-Serif" font-size="9.00">CLaTeXSyntax.sequence</text>
</a>
</g>
</g>
<!-- Node1&#45;&gt;Node4 -->
<g id="edge3" class="edge"><title>Node1&#45;&gt;Node4</title>
<path fill="none" stroke="midnightblue" d="M140.283,-74.9122C148.675,-73.8854 157.288,-72.8318 165.836,-71.786"/>
<polygon fill="midnightblue" stroke="midnightblue" points="139.674,-71.4605 130.173,-76.149 140.524,-78.4087 139.674,-71.4605"/>
</g>
<!-- Node5 -->
<g id="node5" class="node"><title>Node5</title>
<g id="a_node5"><a xlink:href="../../df/db0/classde_1_1flashpixx_1_1rrd__antlr4_1_1engine_1_1template_1_1CHTML.html#aec7490df3cc697993de04539f10e69cc" target="_top" xlink:title="de.flashpixx.rrd_antlr4.engine.template.\lCHTML.sequence">
<polygon fill="none" stroke="black" points="166,-0 166,-28 344,-28 344,-0 166,-0"/>
<text text-anchor="start" x="174" y="-16.8" font-family="Helvetica,sans-Serif" font-size="9.00">de.flashpixx.rrd_antlr4.engine.template.</text>
<text text-anchor="middle" x="255" y="-6.8" font-family="Helvetica,sans-Serif" font-size="9.00">CHTML.sequence</text>
</a>
</g>
</g>
<!-- Node1&#45;&gt;Node5 -->
<g id="edge4" class="edge"><title>Node1&#45;&gt;Node5</title>
<path fill="none" stroke="midnightblue" d="M102.544,-65.4274C121.22,-56.3909 144.49,-45.8199 166,-38 175.971,-34.3749 186.751,-31.0034 197.233,-28.001"/>
<polygon fill="midnightblue" stroke="midnightblue" points="100.943,-62.3139 93.5017,-69.8555 104.022,-68.6005 100.943,-62.3139"/>
</g>
</g>
</svg>
