<?xml version="1.0" encoding="UTF-8" standalone="no"?>
<!DOCTYPE svg PUBLIC "-//W3C//DTD SVG 1.1//EN"
 "http://www.w3.org/Graphics/SVG/1.1/DTD/svg11.dtd">
<!-- Generated by graphviz version 2.36.0 (20140111.2315)
 -->
<!-- Title: de.flashpixx.rrd_antlr4.CCommon.languagestring Pages: 1 -->
<svg width="750pt" height="372pt"
 viewBox="0.00 0.00 750.00 372.00" xmlns="http://www.w3.org/2000/svg" xmlns:xlink="http://www.w3.org/1999/xlink">
<g id="graph0" class="graph" transform="scale(1 1) rotate(0) translate(4 368)">
<title>de.flashpixx.rrd_antlr4.CCommon.languagestring</title>
<!-- Node17 -->
<g id="node1" class="node"><title>Node17</title>
<polygon fill="#bfbfbf" stroke="black" points="0.5,-154 0.5,-182 125.5,-182 125.5,-154 0.5,-154"/>
<text text-anchor="start" x="8.5" y="-170.8" font-family="Helvetica,sans-Serif" font-size="9.00">de.flashpixx.rrd_antlr4.</text>
<text text-anchor="middle" x="63" y="-160.8" font-family="Helvetica,sans-Serif" font-size="9.00">CCommon.languagestring</text>
</g>
<!-- Node18 -->
<g id="node2" class="node"><title>Node18</title>
<g id="a_node2"><a xlink:href="../../d0/d41/enumde_1_1flashpixx_1_1rrd__antlr4_1_1engine_1_1template_1_1ETemplate.html#a4dde2d8ecb9f01b04bd3f24b47bcbc71" target="_top" xlink:title="creates a new de.template ">
<polygon fill="none" stroke="black" points="162,-313 162,-341 340,-341 340,-313 162,-313"/>
<text text-anchor="start" x="170" y="-329.8" font-family="Helvetica,sans-Serif" font-size="9.00">de.flashpixx.rrd_antlr4.engine.template.</text>
<text text-anchor="middle" x="251" y="-319.8" font-family="Helvetica,sans-Serif" font-size="9.00">ETemplate.generate</text>
</a>
</g>
</g>
<!-- Node17&#45;&gt;Node18 -->
<g id="edge1" class="edge"><title>Node17&#45;&gt;Node18</title>
<path fill="none" stroke="midnightblue" d="M74.6865,-191.312C89.7975,-221.651 120.287,-274.182 162,-303 167.602,-306.87 173.806,-310.118 180.25,-312.842"/>
<polygon fill="midnightblue" stroke="midnightblue" points="77.832,-189.777 70.3259,-182.3 71.5308,-192.826 77.832,-189.777"/>
</g>
<!-- Node22 -->
<g id="node6" class="node"><title>Node22</title>
<g id="a_node6"><a xlink:href="../../da/d63/classde_1_1flashpixx_1_1rrd__antlr4_1_1engine_1_1template_1_1CLaTeXSyntax.html#acc257f441259efa9986735bd21ae76ec" target="_top" xlink:title="de.flashpixx.rrd_antlr4.engine.template.\lCLaTeXSyntax.negation">
<polygon fill="none" stroke="black" points="162,-266 162,-294 340,-294 340,-266 162,-266"/>
<text text-anchor="start" x="170" y="-282.8" font-family="Helvetica,sans-Serif" font-size="9.00">de.flashpixx.rrd_antlr4.engine.template.</text>
<text text-anchor="middle" x="251" y="-272.8" font-family="Helvetica,sans-Serif" font-size="9.00">CLaTeXSyntax.negation</text>
</a>
</g>
</g>
<!-- Node17&#45;&gt;Node22 -->
<g id="edge5" class="edge"><title>Node17&#45;&gt;Node22</title>
<path fill="none" stroke="midnightblue" d="M82.6835,-189.808C100.969,-209.821 130.588,-238.882 162,-256 169.092,-259.865 176.85,-263.142 184.728,-265.913"/>
<polygon fill="midnightblue" stroke="midnightblue" points="85.0707,-187.227 75.7957,-182.106 79.8528,-191.893 85.0707,-187.227"/>
</g>
<!-- Node23 -->
<g id="node7" class="node"><title>Node23</title>
<g id="a_node7"><a xlink:href="../../df/db0/classde_1_1flashpixx_1_1rrd__antlr4_1_1engine_1_1template_1_1CHTML.html#ad38ec163952e6855c783251da5c0c618" target="_top" xlink:title="de.flashpixx.rrd_antlr4.engine.template.\lCHTML.negation">
<polygon fill="none" stroke="black" points="162,-219 162,-247 340,-247 340,-219 162,-219"/>
<text text-anchor="start" x="170" y="-235.8" font-family="Helvetica,sans-Serif" font-size="9.00">de.flashpixx.rrd_antlr4.engine.template.</text>
<text text-anchor="middle" x="251" y="-225.8" font-family="Helvetica,sans-Serif" font-size="9.00">CHTML.negation</text>
</a>
</g>
</g>
<!-- Node17&#45;&gt;Node23 -->
<g id="edge6" class="edge"><title>Node17&#45;&gt;Node23</title>
<path fill="none" stroke="midnightblue" d="M111.293,-185.738C127.347,-191.662 145.415,-198.223 162,-204 176.431,-209.027 192.27,-214.317 206.485,-218.982"/>
<polygon fill="midnightblue" stroke="midnightblue" points="112.182,-182.335 101.588,-182.145 109.751,-188.9 112.182,-182.335"/>
</g>
<!-- Node24 -->
<g id="node8" class="node"><title>Node24</title>
<g id="a_node8"><a xlink:href="../../df/db0/classde_1_1flashpixx_1_1rrd__antlr4_1_1engine_1_1template_1_1CHTML.html#aa7507dba1f5f25745319524e2514dbc0" target="_top" xlink:title="postprocessing (after AST visiting) ">
<polygon fill="none" stroke="black" points="376,-157 376,-185 554,-185 554,-157 376,-157"/>
<text text-anchor="start" x="384" y="-173.8" font-family="Helvetica,sans-Serif" font-size="9.00">de.flashpixx.rrd_antlr4.engine.template.</text>
<text text-anchor="middle" x="465" y="-163.8" font-family="Helvetica,sans-Serif" font-size="9.00">CHTML.postprocess</text>
</a>
</g>
</g>
<!-- Node17&#45;&gt;Node24 -->
<g id="edge7" class="edge"><title>Node17&#45;&gt;Node24</title>
<path fill="none" stroke="midnightblue" d="M135.933,-169.609C144.714,-169.764 153.561,-169.9 162,-170 233.956,-170.853 315.563,-171.079 375.789,-171.105"/>
<polygon fill="midnightblue" stroke="midnightblue" points="135.748,-166.105 125.685,-169.42 135.618,-173.104 135.748,-166.105"/>
</g>
<!-- Node25 -->
<g id="node9" class="node"><title>Node25</title>
<g id="a_node9"><a xlink:href="../../da/d63/classde_1_1flashpixx_1_1rrd__antlr4_1_1engine_1_1template_1_1CLaTeXSyntax.html#af67e20f51735f5e721e494e7f9752c8d" target="_top" xlink:title="postprocessing (after AST visiting) ">
<polygon fill="none" stroke="black" points="376,-100 376,-128 554,-128 554,-100 376,-100"/>
<text text-anchor="start" x="384" y="-116.8" font-family="Helvetica,sans-Serif" font-size="9.00">de.flashpixx.rrd_antlr4.engine.template.</text>
<text text-anchor="middle" x="465" y="-106.8" font-family="Helvetica,sans-Serif" font-size="9.00">CLaTeXSyntax.postprocess</text>
</a>
</g>
</g>
<!-- Node17&#45;&gt;Node25 -->
<g id="edge8" class="edge"><title>Node17&#45;&gt;Node25</title>
<path fill="none" stroke="midnightblue" d="M97.3069,-149.14C115.757,-139.711 139.462,-129.219 162,-124 232.655,-107.639 315.073,-106.033 375.943,-108.016"/>
<polygon fill="midnightblue" stroke="midnightblue" points="95.663,-146.05 88.4365,-153.798 98.9174,-152.248 95.663,-146.05"/>
</g>
<!-- Node26 -->
<g id="node10" class="node"><title>Node26</title>
<g id="a_node10"><a xlink:href="../../d5/dcc/classde_1_1flashpixx_1_1rrd__antlr4_1_1engine_1_1template_1_1IBaseTemplate.html#a44c4b6d4587b3a9e7a802aede6424465" target="_top" xlink:title="replaces the string within the file ">
<polygon fill="none" stroke="black" points="162,-133 162,-161 340,-161 340,-133 162,-133"/>
<text text-anchor="start" x="170" y="-149.8" font-family="Helvetica,sans-Serif" font-size="9.00">de.flashpixx.rrd_antlr4.engine.template.</text>
<text text-anchor="middle" x="251" y="-139.8" font-family="Helvetica,sans-Serif" font-size="9.00">IBaseTemplate.replace</text>
</a>
</g>
</g>
<!-- Node17&#45;&gt;Node26 -->
<g id="edge9" class="edge"><title>Node17&#45;&gt;Node26</title>
<path fill="none" stroke="midnightblue" d="M135.648,-159.911C144.26,-158.938 153.129,-157.937 161.939,-156.942"/>
<polygon fill="midnightblue" stroke="midnightblue" points="135.221,-156.437 125.677,-161.036 136.007,-163.392 135.221,-156.437"/>
</g>
<!-- Node27 -->
<g id="node11" class="node"><title>Node27</title>
<g id="a_node11"><a xlink:href="../../d1/d8a/classde_1_1flashpixx_1_1rrd__antlr4_1_1CCommon.html#a462fea64266b69b5dfb64e63482b8762" target="_top" xlink:title="returns a file from a resource e.g. ">
<polygon fill="none" stroke="black" points="196,-47 196,-75 306,-75 306,-47 196,-47"/>
<text text-anchor="start" x="204" y="-63.8" font-family="Helvetica,sans-Serif" font-size="9.00">de.flashpixx.rrd_antlr4.</text>
<text text-anchor="middle" x="251" y="-53.8" font-family="Helvetica,sans-Serif" font-size="9.00">CCommon.resourceurl</text>
</a>
</g>
</g>
<!-- Node17&#45;&gt;Node27 -->
<g id="edge12" class="edge"><title>Node17&#45;&gt;Node27</title>
<path fill="none" stroke="midnightblue" d="M85.8726,-146.799C104.732,-129.497 133.374,-105.464 162,-90 172.898,-84.113 185.201,-79.1437 197.079,-75.0728"/>
<polygon fill="midnightblue" stroke="midnightblue" points="83.3394,-144.376 78.4172,-153.758 88.1158,-149.493 83.3394,-144.376"/>
</g>
<!-- Node28 -->
<g id="node12" class="node"><title>Node28</title>
<g id="a_node12"><a xlink:href="../../d7/d19/classde_1_1flashpixx_1_1rrd__antlr4_1_1antlr_1_1CASTVisitorPCRE.html#a4e664a1b82dc7691288b9bc7e864ad94" target="_top" xlink:title="create a terminal value of a string ">
<polygon fill="none" stroke="black" points="176.5,-0 176.5,-28 325.5,-28 325.5,-0 176.5,-0"/>
<text text-anchor="start" x="184.5" y="-16.8" font-family="Helvetica,sans-Serif" font-size="9.00">de.flashpixx.rrd_antlr4.antlr.</text>
<text text-anchor="middle" x="251" y="-6.8" font-family="Helvetica,sans-Serif" font-size="9.00">CASTVisitorPCRE.terminalvalue</text>
</a>
</g>
</g>
<!-- Node17&#45;&gt;Node28 -->
<g id="edge13" class="edge"><title>Node17&#45;&gt;Node28</title>
<path fill="none" stroke="midnightblue" d="M75.3525,-144.718C90.8568,-115.384 121.428,-65.4923 162,-38 167.768,-34.0914 174.153,-30.8174 180.773,-28.0753"/>
<polygon fill="midnightblue" stroke="midnightblue" points="72.1351,-143.321 70.6794,-153.815 78.3618,-146.519 72.1351,-143.321"/>
</g>
<!-- Node19 -->
<g id="node3" class="node"><title>Node19</title>
<g id="a_node3"><a xlink:href="../../d9/d6b/classde_1_1flashpixx_1_1rrd__antlr4_1_1engine_1_1CEngine.html#adfcfdc703142684016ec6cb0bf8722a5" target="_top" xlink:title="generator call ">
<polygon fill="none" stroke="black" points="395,-336 395,-364 535,-364 535,-336 395,-336"/>
<text text-anchor="start" x="403" y="-352.8" font-family="Helvetica,sans-Serif" font-size="9.00">de.flashpixx.rrd_antlr4.engine.</text>
<text text-anchor="middle" x="465" y="-342.8" font-family="Helvetica,sans-Serif" font-size="9.00">CEngine.generate</text>
</a>
</g>
</g>
<!-- Node18&#45;&gt;Node19 -->
<g id="edge2" class="edge"><title>Node18&#45;&gt;Node19</title>
<path fill="none" stroke="midnightblue" d="M350.431,-337.679C365.471,-339.311 380.717,-340.965 394.946,-342.508"/>
<polygon fill="midnightblue" stroke="midnightblue" points="350.385,-334.153 340.065,-336.554 349.629,-341.113 350.385,-334.153"/>
</g>
<!-- Node21 -->
<g id="node5" class="node"><title>Node21</title>
<g id="a_node5"><a xlink:href="../../d2/d08/classde_1_1flashpixx_1_1rrd__antlr4_1_1generator_1_1CPlugin.html#ad3887b358097a93113bd4a67370836e7" target="_top" xlink:title="de.flashpixx.rrd_antlr4.generator.\lCPlugin.processmessages">
<polygon fill="none" stroke="black" points="389,-289 389,-317 541,-317 541,-289 389,-289"/>
<text text-anchor="start" x="397" y="-305.8" font-family="Helvetica,sans-Serif" font-size="9.00">de.flashpixx.rrd_antlr4.generator.</text>
<text text-anchor="middle" x="465" y="-295.8" font-family="Helvetica,sans-Serif" font-size="9.00">CPlugin.processmessages</text>
</a>
</g>
</g>
<!-- Node18&#45;&gt;Node21 -->
<g id="edge4" class="edge"><title>Node18&#45;&gt;Node21</title>
<path fill="none" stroke="midnightblue" d="M350.35,-315.866C363.232,-314.408 376.266,-312.932 388.685,-311.526"/>
<polygon fill="midnightblue" stroke="midnightblue" points="349.608,-312.428 340.065,-317.03 350.396,-319.383 349.608,-312.428"/>
</g>
<!-- Node20 -->
<g id="node4" class="node"><title>Node20</title>
<g id="a_node4"><a xlink:href="../../d8/d1c/classde_1_1flashpixx_1_1rrd__antlr4_1_1generator_1_1IBaseGenerator.html#a4c93c2753b6799b45d62a1f64abfa023" target="_top" xlink:title="generates export for a grammar file ">
<polygon fill="none" stroke="black" points="590,-336 590,-364 742,-364 742,-336 590,-336"/>
<text text-anchor="start" x="598" y="-352.8" font-family="Helvetica,sans-Serif" font-size="9.00">de.flashpixx.rrd_antlr4.generator.</text>
<text text-anchor="middle" x="666" y="-342.8" font-family="Helvetica,sans-Serif" font-size="9.00">IBaseGenerator.generate</text>
</a>
</g>
</g>
<!-- Node19&#45;&gt;Node20 -->
<g id="edge3" class="edge"><title>Node19&#45;&gt;Node20</title>
<path fill="none" stroke="midnightblue" d="M545.153,-350C559.926,-350 575.324,-350 589.968,-350"/>
<polygon fill="midnightblue" stroke="midnightblue" points="545.042,-346.5 535.042,-350 545.042,-353.5 545.042,-346.5"/>
</g>
<!-- Node26&#45;&gt;Node24 -->
<g id="edge10" class="edge"><title>Node26&#45;&gt;Node24</title>
<path fill="none" stroke="midnightblue" d="M350.107,-158.106C358.7,-159.079 367.363,-160.06 375.868,-161.023"/>
<polygon fill="midnightblue" stroke="midnightblue" points="350.396,-154.617 340.065,-156.97 349.608,-161.572 350.396,-154.617"/>
</g>
<!-- Node26&#45;&gt;Node25 -->
<g id="edge11" class="edge"><title>Node26&#45;&gt;Node25</title>
<path fill="none" stroke="midnightblue" d="M350.107,-131.729C358.7,-130.391 367.363,-129.043 375.868,-127.719"/>
<polygon fill="midnightblue" stroke="midnightblue" points="349.408,-128.295 340.065,-133.292 350.485,-135.212 349.408,-128.295"/>
</g>
</g>
</svg>
