<?xml version="1.0" encoding="UTF-8" standalone="no"?>
<!DOCTYPE svg PUBLIC "-//W3C//DTD SVG 1.1//EN"
 "http://www.w3.org/Graphics/SVG/1.1/DTD/svg11.dtd">
<!-- Generated by graphviz version 2.36.0 (20140111.2315)
 -->
<!-- Title: de.flashpixx.rrd_antlr4.CCommon.outputdirectory Pages: 1 -->
<svg width="508pt" height="83pt"
 viewBox="0.00 0.00 508.00 83.00" xmlns="http://www.w3.org/2000/svg" xmlns:xlink="http://www.w3.org/1999/xlink">
<g id="graph0" class="graph" transform="scale(1 1) rotate(0) translate(4 79)">
<title>de.flashpixx.rrd_antlr4.CCommon.outputdirectory</title>
<!-- Node34 -->
<g id="node1" class="node"><title>Node34</title>
<polygon fill="#bfbfbf" stroke="black" points="0,-23 0,-51 124,-51 124,-23 0,-23"/>
<text text-anchor="start" x="8" y="-39.8" font-family="Helvetica,sans-Serif" font-size="9.00">de.flashpixx.rrd_antlr4.</text>
<text text-anchor="middle" x="62" y="-29.8" font-family="Helvetica,sans-Serif" font-size="9.00">CCommon.outputdirectory</text>
</g>
<!-- Node35 -->
<g id="node2" class="node"><title>Node35</title>
<g id="a_node2"><a xlink:href="../../d9/d6b/classde_1_1flashpixx_1_1rrd__antlr4_1_1engine_1_1CEngine.html#adfcfdc703142684016ec6cb0bf8722a5" target="_top" xlink:title="generator call ">
<polygon fill="none" stroke="black" points="166,-47 166,-75 306,-75 306,-47 166,-47"/>
<text text-anchor="start" x="174" y="-63.8" font-family="Helvetica,sans-Serif" font-size="9.00">de.flashpixx.rrd_antlr4.engine.</text>
<text text-anchor="middle" x="236" y="-53.8" font-family="Helvetica,sans-Serif" font-size="9.00">CEngine.generate</text>
</a>
</g>
</g>
<!-- Node34&#45;&gt;Node35 -->
<g id="edge1" class="edge"><title>Node34&#45;&gt;Node35</title>
<path fill="none" stroke="midnightblue" d="M134.083,-46.9186C144.59,-48.3847 155.403,-49.8935 165.87,-51.3539"/>
<polygon fill="midnightblue" stroke="midnightblue" points="134.513,-43.4447 124.125,-45.5291 133.545,-50.3775 134.513,-43.4447"/>
</g>
<!-- Node37 -->
<g id="node4" class="node"><title>Node37</title>
<g id="a_node4"><a xlink:href="../../d2/d08/classde_1_1flashpixx_1_1rrd__antlr4_1_1generator_1_1CPlugin.html#ad3887b358097a93113bd4a67370836e7" target="_top" xlink:title="de.flashpixx.rrd_antlr4.generator.\lCPlugin.processmessages">
<polygon fill="none" stroke="black" points="160,-0 160,-28 312,-28 312,-0 160,-0"/>
<text text-anchor="start" x="168" y="-16.8" font-family="Helvetica,sans-Serif" font-size="9.00">de.flashpixx.rrd_antlr4.generator.</text>
<text text-anchor="middle" x="236" y="-6.8" font-family="Helvetica,sans-Serif" font-size="9.00">CPlugin.processmessages</text>
</a>
</g>
</g>
<!-- Node34&#45;&gt;Node37 -->
<g id="edge3" class="edge"><title>Node34&#45;&gt;Node37</title>
<path fill="none" stroke="midnightblue" d="M134.037,-27.5009C142.578,-26.3588 151.322,-25.1895 159.918,-24.04"/>
<polygon fill="midnightblue" stroke="midnightblue" points="133.573,-24.0317 124.125,-28.8263 134.501,-30.9699 133.573,-24.0317"/>
</g>
<!-- Node36 -->
<g id="node3" class="node"><title>Node36</title>
<g id="a_node3"><a xlink:href="../../d8/d1c/classde_1_1flashpixx_1_1rrd__antlr4_1_1generator_1_1IBaseGenerator.html#a4c93c2753b6799b45d62a1f64abfa023" target="_top" xlink:title="generates export for a grammar file ">
<polygon fill="none" stroke="black" points="348,-47 348,-75 500,-75 500,-47 348,-47"/>
<text text-anchor="start" x="356" y="-63.8" font-family="Helvetica,sans-Serif" font-size="9.00">de.flashpixx.rrd_antlr4.generator.</text>
<text text-anchor="middle" x="424" y="-53.8" font-family="Helvetica,sans-Serif" font-size="9.00">IBaseGenerator.generate</text>
</a>
</g>
</g>
<!-- Node35&#45;&gt;Node36 -->
<g id="edge2" class="edge"><title>Node35&#45;&gt;Node36</title>
<path fill="none" stroke="midnightblue" d="M316.523,-61C326.881,-61 337.467,-61 347.753,-61"/>
<polygon fill="midnightblue" stroke="midnightblue" points="316.26,-57.5001 306.26,-61 316.26,-64.5001 316.26,-57.5001"/>
</g>
</g>
</svg>
