<?xml version="1.0" encoding="UTF-8" standalone="no"?>
<!DOCTYPE svg PUBLIC "-//W3C//DTD SVG 1.1//EN"
 "http://www.w3.org/Graphics/SVG/1.1/DTD/svg11.dtd">
<!-- Generated by graphviz version 2.36.0 (20140111.2315)
 -->
<!-- Title: de.flashpixx.rrd_antlr4.CCommon.resourceurl Pages: 1 -->
<svg width="546pt" height="106pt"
 viewBox="0.00 0.00 546.00 106.00" xmlns="http://www.w3.org/2000/svg" xmlns:xlink="http://www.w3.org/1999/xlink">
<g id="graph0" class="graph" transform="scale(1 1) rotate(0) translate(4 102)">
<title>de.flashpixx.rrd_antlr4.CCommon.resourceurl</title>
<!-- Node39 -->
<g id="node1" class="node"><title>Node39</title>
<polygon fill="#bfbfbf" stroke="black" points="0,-23 0,-51 110,-51 110,-23 0,-23"/>
<text text-anchor="start" x="8" y="-39.8" font-family="Helvetica,sans-Serif" font-size="9.00">de.flashpixx.rrd_antlr4.</text>
<text text-anchor="middle" x="55" y="-29.8" font-family="Helvetica,sans-Serif" font-size="9.00">CCommon.resourceurl</text>
</g>
<!-- Node40 -->
<g id="node2" class="node"><title>Node40</title>
<g id="a_node2"><a xlink:href="../../d5/dcc/classde_1_1flashpixx_1_1rrd__antlr4_1_1engine_1_1template_1_1IBaseTemplate.html#a45ff7afb0ca2176f7fa722db3a194bcf" target="_top" xlink:title="copies files from the directory of the template to the output directory ">
<polygon fill="none" stroke="black" points="146,-47 146,-75 324,-75 324,-47 146,-47"/>
<text text-anchor="start" x="154" y="-63.8" font-family="Helvetica,sans-Serif" font-size="9.00">de.flashpixx.rrd_antlr4.engine.template.</text>
<text text-anchor="middle" x="235" y="-53.8" font-family="Helvetica,sans-Serif" font-size="9.00">IBaseTemplate.copy</text>
</a>
</g>
</g>
<!-- Node39&#45;&gt;Node40 -->
<g id="edge1" class="edge"><title>Node39&#45;&gt;Node40</title>
<path fill="none" stroke="midnightblue" d="M120.323,-45.6728C128.625,-46.7921 137.237,-47.9533 145.839,-49.1132"/>
<polygon fill="midnightblue" stroke="midnightblue" points="120.751,-42.1989 110.373,-44.3312 119.816,-49.1361 120.751,-42.1989"/>
</g>
<!-- Node43 -->
<g id="node5" class="node"><title>Node43</title>
<g id="a_node5"><a xlink:href="../../d1/d8a/classde_1_1flashpixx_1_1rrd__antlr4_1_1CCommon.html#a8ec4626c6e6feafc410027572e7dd622" target="_top" xlink:title="returns a file from a resource e.g. ">
<polygon fill="none" stroke="black" points="180,-0 180,-28 290,-28 290,-0 180,-0"/>
<text text-anchor="start" x="188" y="-16.8" font-family="Helvetica,sans-Serif" font-size="9.00">de.flashpixx.rrd_antlr4.</text>
<text text-anchor="middle" x="235" y="-6.8" font-family="Helvetica,sans-Serif" font-size="9.00">CCommon.resourceurl</text>
</a>
</g>
</g>
<!-- Node39&#45;&gt;Node43 -->
<g id="edge4" class="edge"><title>Node39&#45;&gt;Node43</title>
<path fill="none" stroke="midnightblue" d="M120.408,-28.6776C139.938,-26.154 161.183,-23.4089 179.96,-20.9827"/>
<polygon fill="midnightblue" stroke="midnightblue" points="119.842,-25.2216 110.373,-29.9743 120.739,-32.1638 119.842,-25.2216"/>
</g>
<!-- Node41 -->
<g id="node3" class="node"><title>Node41</title>
<g id="a_node3"><a xlink:href="../../df/db0/classde_1_1flashpixx_1_1rrd__antlr4_1_1engine_1_1template_1_1CHTML.html#aa7507dba1f5f25745319524e2514dbc0" target="_top" xlink:title="postprocessing (after AST visiting) ">
<polygon fill="none" stroke="black" points="360,-70 360,-98 538,-98 538,-70 360,-70"/>
<text text-anchor="start" x="368" y="-86.8" font-family="Helvetica,sans-Serif" font-size="9.00">de.flashpixx.rrd_antlr4.engine.template.</text>
<text text-anchor="middle" x="449" y="-76.8" font-family="Helvetica,sans-Serif" font-size="9.00">CHTML.postprocess</text>
</a>
</g>
</g>
<!-- Node40&#45;&gt;Node41 -->
<g id="edge2" class="edge"><title>Node40&#45;&gt;Node41</title>
<path fill="none" stroke="midnightblue" d="M334.107,-71.6437C342.7,-72.576 351.363,-73.5158 359.868,-74.4385"/>
<polygon fill="midnightblue" stroke="midnightblue" points="334.385,-68.1533 324.065,-70.5543 333.629,-75.1125 334.385,-68.1533"/>
</g>
<!-- Node42 -->
<g id="node4" class="node"><title>Node42</title>
<g id="a_node4"><a xlink:href="../../da/d63/classde_1_1flashpixx_1_1rrd__antlr4_1_1engine_1_1template_1_1CLaTeXSyntax.html#af67e20f51735f5e721e494e7f9752c8d" target="_top" xlink:title="postprocessing (after AST visiting) ">
<polygon fill="none" stroke="black" points="360,-23 360,-51 538,-51 538,-23 360,-23"/>
<text text-anchor="start" x="368" y="-39.8" font-family="Helvetica,sans-Serif" font-size="9.00">de.flashpixx.rrd_antlr4.engine.template.</text>
<text text-anchor="middle" x="449" y="-29.8" font-family="Helvetica,sans-Serif" font-size="9.00">CLaTeXSyntax.postprocess</text>
</a>
</g>
</g>
<!-- Node40&#45;&gt;Node42 -->
<g id="edge3" class="edge"><title>Node40&#45;&gt;Node42</title>
<path fill="none" stroke="midnightblue" d="M334.107,-49.8935C342.7,-48.9207 351.363,-47.94 359.868,-46.9773"/>
<polygon fill="midnightblue" stroke="midnightblue" points="333.608,-46.4276 324.065,-51.0303 334.396,-53.3831 333.608,-46.4276"/>
</g>
</g>
</svg>
