<?xml version="1.0" encoding="UTF-8" standalone="no"?>
<!DOCTYPE svg PUBLIC "-//W3C//DTD SVG 1.1//EN"
 "http://www.w3.org/Graphics/SVG/1.1/DTD/svg11.dtd">
<!-- Generated by graphviz version 2.36.0 (20140111.2315)
 -->
<!-- Title: de.flashpixx.rrd_antlr4.generator.IBaseGenerator.generate Pages: 1 -->
<svg width="800pt" height="177pt"
 viewBox="0.00 0.00 800.00 177.00" xmlns="http://www.w3.org/2000/svg" xmlns:xlink="http://www.w3.org/1999/xlink">
<g id="graph0" class="graph" transform="scale(1 1) rotate(0) translate(4 173)">
<title>de.flashpixx.rrd_antlr4.generator.IBaseGenerator.generate</title>
<!-- Node6 -->
<g id="node1" class="node"><title>Node6</title>
<polygon fill="#bfbfbf" stroke="black" points="0,-47 0,-75 152,-75 152,-47 0,-47"/>
<text text-anchor="start" x="8" y="-63.8" font-family="Helvetica,sans-Serif" font-size="9.00">de.flashpixx.rrd_antlr4.generator.</text>
<text text-anchor="middle" x="76" y="-53.8" font-family="Helvetica,sans-Serif" font-size="9.00">IBaseGenerator.generate</text>
</g>
<!-- Node7 -->
<g id="node2" class="node"><title>Node7</title>
<g id="a_node2"><a xlink:href="../../d9/d6b/classde_1_1flashpixx_1_1rrd__antlr4_1_1engine_1_1CEngine.html#adfcfdc703142684016ec6cb0bf8722a5" target="_top" xlink:title="generator call ">
<polygon fill="none" stroke="black" points="206,-94 206,-122 346,-122 346,-94 206,-94"/>
<text text-anchor="start" x="214" y="-110.8" font-family="Helvetica,sans-Serif" font-size="9.00">de.flashpixx.rrd_antlr4.engine.</text>
<text text-anchor="middle" x="276" y="-100.8" font-family="Helvetica,sans-Serif" font-size="9.00">CEngine.generate</text>
</a>
</g>
</g>
<!-- Node6&#45;&gt;Node7 -->
<g id="edge1" class="edge"><title>Node6&#45;&gt;Node7</title>
<path fill="none" stroke="midnightblue" d="M136.138,-75.0379C158.076,-80.2452 183.148,-86.1967 205.896,-91.5965"/>
<polygon fill="midnightblue" stroke="midnightblue" points="205.286,-95.049 215.824,-93.9533 206.903,-88.2383 205.286,-95.049"/>
</g>
<!-- Node14 -->
<g id="node9" class="node"><title>Node14</title>
<g id="a_node9"><a xlink:href="../../d8/d1c/classde_1_1flashpixx_1_1rrd__antlr4_1_1generator_1_1IBaseGenerator.html#ae2dca945412e2bce12144e585b0475f5" target="_top" xlink:title="processes the error messages ">
<polygon fill="none" stroke="black" points="197,-47 197,-75 355,-75 355,-47 197,-47"/>
<text text-anchor="start" x="205" y="-63.8" font-family="Helvetica,sans-Serif" font-size="9.00">de.flashpixx.rrd_antlr4.generator.</text>
<text text-anchor="middle" x="276" y="-53.8" font-family="Helvetica,sans-Serif" font-size="9.00">IBaseGenerator.processmessages</text>
</a>
</g>
</g>
<!-- Node6&#45;&gt;Node14 -->
<g id="edge8" class="edge"><title>Node6&#45;&gt;Node14</title>
<path fill="none" stroke="midnightblue" d="M152.138,-61C163.476,-61 175.258,-61 186.84,-61"/>
<polygon fill="midnightblue" stroke="midnightblue" points="186.951,-64.5001 196.951,-61 186.951,-57.5001 186.951,-64.5001"/>
</g>
<!-- Node15 -->
<g id="node10" class="node"><title>Node15</title>
<g id="a_node10"><a xlink:href="../../d8/d1c/classde_1_1flashpixx_1_1rrd__antlr4_1_1generator_1_1IBaseGenerator.html#ac0c60198f918a14e54524798f02a80c6" target="_top" xlink:title="processes the output directory ">
<polygon fill="none" stroke="black" points="188,-0 188,-28 364,-28 364,-0 188,-0"/>
<text text-anchor="start" x="196" y="-16.8" font-family="Helvetica,sans-Serif" font-size="9.00">de.flashpixx.rrd_antlr4.generator.</text>
<text text-anchor="middle" x="276" y="-6.8" font-family="Helvetica,sans-Serif" font-size="9.00">IBaseGenerator.processoutputdirectory</text>
</a>
</g>
</g>
<!-- Node6&#45;&gt;Node15 -->
<g id="edge9" class="edge"><title>Node6&#45;&gt;Node15</title>
<path fill="none" stroke="midnightblue" d="M136.138,-46.9621C158.076,-41.7548 183.148,-35.8033 205.896,-30.4035"/>
<polygon fill="midnightblue" stroke="midnightblue" points="206.903,-33.7617 215.824,-28.0467 205.286,-26.951 206.903,-33.7617"/>
</g>
<!-- Node8 -->
<g id="node3" class="node"><title>Node8</title>
<g id="a_node3"><a xlink:href="../../d0/d41/enumde_1_1flashpixx_1_1rrd__antlr4_1_1engine_1_1template_1_1ETemplate.html#a4dde2d8ecb9f01b04bd3f24b47bcbc71" target="_top" xlink:title="creates a new de.template ">
<polygon fill="none" stroke="black" points="400,-141 400,-169 578,-169 578,-141 400,-141"/>
<text text-anchor="start" x="408" y="-157.8" font-family="Helvetica,sans-Serif" font-size="9.00">de.flashpixx.rrd_antlr4.engine.template.</text>
<text text-anchor="middle" x="489" y="-147.8" font-family="Helvetica,sans-Serif" font-size="9.00">ETemplate.generate</text>
</a>
</g>
</g>
<!-- Node7&#45;&gt;Node8 -->
<g id="edge2" class="edge"><title>Node7&#45;&gt;Node8</title>
<path fill="none" stroke="midnightblue" d="M340.021,-122.038C363.608,-127.292 390.597,-133.303 415.01,-138.742"/>
<polygon fill="midnightblue" stroke="midnightblue" points="414.417,-142.195 424.939,-140.953 415.939,-135.363 414.417,-142.195"/>
</g>
<!-- Node10 -->
<g id="node5" class="node"><title>Node10</title>
<g id="a_node5"><a xlink:href="../../d1/d8a/classde_1_1flashpixx_1_1rrd__antlr4_1_1CCommon.html#a29c6ecdaf50a517dc970e71726339c36" target="_top" xlink:title="generates the full output directory ">
<polygon fill="none" stroke="black" points="427,-94 427,-122 551,-122 551,-94 427,-94"/>
<text text-anchor="start" x="435" y="-110.8" font-family="Helvetica,sans-Serif" font-size="9.00">de.flashpixx.rrd_antlr4.</text>
<text text-anchor="middle" x="489" y="-100.8" font-family="Helvetica,sans-Serif" font-size="9.00">CCommon.outputdirectory</text>
</a>
</g>
</g>
<!-- Node7&#45;&gt;Node10 -->
<g id="edge4" class="edge"><title>Node7&#45;&gt;Node10</title>
<path fill="none" stroke="midnightblue" d="M346.089,-108C368.706,-108 393.868,-108 416.649,-108"/>
<polygon fill="midnightblue" stroke="midnightblue" points="416.93,-111.5 426.93,-108 416.93,-104.5 416.93,-111.5"/>
</g>
<!-- Node12 -->
<g id="node7" class="node"><title>Node12</title>
<g id="a_node7"><a xlink:href="../../d9/d6b/classde_1_1flashpixx_1_1rrd__antlr4_1_1engine_1_1CEngine.html#a2ff965913c04e9f31e5f09f93c0f943d" target="_top" xlink:title="runs parsing process with recursive descent of a grammar file ">
<polygon fill="none" stroke="black" points="419,-47 419,-75 559,-75 559,-47 419,-47"/>
<text text-anchor="start" x="427" y="-63.8" font-family="Helvetica,sans-Serif" font-size="9.00">de.flashpixx.rrd_antlr4.engine.</text>
<text text-anchor="middle" x="489" y="-53.8" font-family="Helvetica,sans-Serif" font-size="9.00">CEngine.parse</text>
</a>
</g>
</g>
<!-- Node7&#45;&gt;Node12 -->
<g id="edge6" class="edge"><title>Node7&#45;&gt;Node12</title>
<path fill="none" stroke="midnightblue" d="M340.021,-93.9621C363.608,-88.7081 390.597,-82.6965 415.01,-77.2583"/>
<polygon fill="midnightblue" stroke="midnightblue" points="415.939,-80.6373 424.939,-75.0467 414.417,-73.8047 415.939,-80.6373"/>
</g>
<!-- Node9 -->
<g id="node4" class="node"><title>Node9</title>
<g id="a_node4"><a xlink:href="../../d1/d8a/classde_1_1flashpixx_1_1rrd__antlr4_1_1CCommon.html#afff763186937c82606ef7ead705e9529" target="_top" xlink:title="returns the language depend string on any object ">
<polygon fill="none" stroke="black" points="640.5,-141 640.5,-169 765.5,-169 765.5,-141 640.5,-141"/>
<text text-anchor="start" x="648.5" y="-157.8" font-family="Helvetica,sans-Serif" font-size="9.00">de.flashpixx.rrd_antlr4.</text>
<text text-anchor="middle" x="703" y="-147.8" font-family="Helvetica,sans-Serif" font-size="9.00">CCommon.languagestring</text>
</a>
</g>
</g>
<!-- Node8&#45;&gt;Node9 -->
<g id="edge3" class="edge"><title>Node8&#45;&gt;Node9</title>
<path fill="none" stroke="midnightblue" d="M578.065,-155C595.4,-155 613.394,-155 630.119,-155"/>
<polygon fill="midnightblue" stroke="midnightblue" points="630.352,-158.5 640.352,-155 630.351,-151.5 630.352,-158.5"/>
</g>
<!-- Node11 -->
<g id="node6" class="node"><title>Node11</title>
<g id="a_node6"><a xlink:href="../../d6/d71/interfacede_1_1flashpixx_1_1rrd__antlr4_1_1engine_1_1template_1_1ITemplate.html#aa20a07a91d2bf3933a4f3f2cc84060f4" target="_top" xlink:title="returns the name of the template ">
<polygon fill="none" stroke="black" points="614,-94 614,-122 792,-122 792,-94 614,-94"/>
<text text-anchor="start" x="622" y="-110.8" font-family="Helvetica,sans-Serif" font-size="9.00">de.flashpixx.rrd_antlr4.engine.template.</text>
<text text-anchor="middle" x="703" y="-100.8" font-family="Helvetica,sans-Serif" font-size="9.00">ITemplate.name</text>
</a>
</g>
</g>
<!-- Node10&#45;&gt;Node11 -->
<g id="edge5" class="edge"><title>Node10&#45;&gt;Node11</title>
<path fill="none" stroke="midnightblue" d="M551.035,-108C567.472,-108 585.68,-108 603.596,-108"/>
<polygon fill="midnightblue" stroke="midnightblue" points="603.801,-111.5 613.801,-108 603.801,-104.5 603.801,-111.5"/>
</g>
<!-- Node13 -->
<g id="node8" class="node"><title>Node13</title>
<g id="a_node8"><a xlink:href="../../d6/da3/classde_1_1flashpixx_1_1rrd__antlr4_1_1antlr_1_1CASTVisitorAntLR.html#a811bd312a7fea90477558ebf7728db5b" target="_top" xlink:title="returns a set with grammar imports ">
<polygon fill="none" stroke="black" points="615.5,-47 615.5,-75 790.5,-75 790.5,-47 615.5,-47"/>
<text text-anchor="start" x="623.5" y="-63.8" font-family="Helvetica,sans-Serif" font-size="9.00">de.flashpixx.rrd_antlr4.antlr.</text>
<text text-anchor="middle" x="703" y="-53.8" font-family="Helvetica,sans-Serif" font-size="9.00">CASTVisitorAntLR.getGrammarImports</text>
</a>
</g>
</g>
<!-- Node12&#45;&gt;Node13 -->
<g id="edge7" class="edge"><title>Node12&#45;&gt;Node13</title>
<path fill="none" stroke="midnightblue" d="M559.123,-61C573.793,-61 589.539,-61 605.027,-61"/>
<polygon fill="midnightblue" stroke="midnightblue" points="605.153,-64.5001 615.153,-61 605.153,-57.5001 605.153,-64.5001"/>
</g>
</g>
</svg>
