<?xml version="1.0" encoding="UTF-8" standalone="no"?>
<!DOCTYPE svg PUBLIC "-//W3C//DTD SVG 1.1//EN"
 "http://www.w3.org/Graphics/SVG/1.1/DTD/svg11.dtd">
<!-- Generated by graphviz version 2.36.0 (20140111.2315)
 -->
<!-- Title: de.flashpixx.rrd_antlr4.generator.IBaseGenerator.finish Pages: 1 -->
<svg width="372pt" height="83pt"
 viewBox="0.00 0.00 372.00 83.00" xmlns="http://www.w3.org/2000/svg" xmlns:xlink="http://www.w3.org/1999/xlink">
<g id="graph0" class="graph" transform="scale(1 1) rotate(0) translate(4 79)">
<title>de.flashpixx.rrd_antlr4.generator.IBaseGenerator.finish</title>
<!-- Node2 -->
<g id="node1" class="node"><title>Node2</title>
<polygon fill="#bfbfbf" stroke="black" points="0,-23 0,-51 152,-51 152,-23 0,-23"/>
<text text-anchor="start" x="8" y="-39.8" font-family="Helvetica,sans-Serif" font-size="9.00">de.flashpixx.rrd_antlr4.generator.</text>
<text text-anchor="middle" x="76" y="-29.8" font-family="Helvetica,sans-Serif" font-size="9.00">IBaseGenerator.finish</text>
</g>
<!-- Node3 -->
<g id="node2" class="node"><title>Node3</title>
<g id="a_node2"><a xlink:href="../../d8/d1c/classde_1_1flashpixx_1_1rrd__antlr4_1_1generator_1_1IBaseGenerator.html#ae2dca945412e2bce12144e585b0475f5" target="_top" xlink:title="processes the error messages ">
<polygon fill="none" stroke="black" points="197,-47 197,-75 355,-75 355,-47 197,-47"/>
<text text-anchor="start" x="205" y="-63.8" font-family="Helvetica,sans-Serif" font-size="9.00">de.flashpixx.rrd_antlr4.generator.</text>
<text text-anchor="middle" x="276" y="-53.8" font-family="Helvetica,sans-Serif" font-size="9.00">IBaseGenerator.processmessages</text>
</a>
</g>
</g>
<!-- Node2&#45;&gt;Node3 -->
<g id="edge1" class="edge"><title>Node2&#45;&gt;Node3</title>
<path fill="none" stroke="midnightblue" d="M152.138,-46.1076C163.476,-47.4819 175.258,-48.9101 186.84,-50.314"/>
<polygon fill="midnightblue" stroke="midnightblue" points="186.602,-53.8106 196.951,-51.5395 187.444,-46.8615 186.602,-53.8106"/>
</g>
<!-- Node4 -->
<g id="node3" class="node"><title>Node4</title>
<g id="a_node3"><a xlink:href="../../d8/d1c/classde_1_1flashpixx_1_1rrd__antlr4_1_1generator_1_1IBaseGenerator.html#ac0c60198f918a14e54524798f02a80c6" target="_top" xlink:title="processes the output directory ">
<polygon fill="none" stroke="black" points="188,-0 188,-28 364,-28 364,-0 188,-0"/>
<text text-anchor="start" x="196" y="-16.8" font-family="Helvetica,sans-Serif" font-size="9.00">de.flashpixx.rrd_antlr4.generator.</text>
<text text-anchor="middle" x="276" y="-6.8" font-family="Helvetica,sans-Serif" font-size="9.00">IBaseGenerator.processoutputdirectory</text>
</a>
</g>
</g>
<!-- Node2&#45;&gt;Node4 -->
<g id="edge2" class="edge"><title>Node2&#45;&gt;Node4</title>
<path fill="none" stroke="midnightblue" d="M152.138,-28.2719C160.551,-27.2946 169.209,-26.2888 177.848,-25.2853"/>
<polygon fill="midnightblue" stroke="midnightblue" points="178.436,-28.7406 187.966,-24.11 177.629,-21.7874 178.436,-28.7406"/>
</g>
</g>
</svg>
