<?xml version="1.0" encoding="UTF-8" standalone="no"?>
<!DOCTYPE svg PUBLIC "-//W3C//DTD SVG 1.1//EN"
 "http://www.w3.org/Graphics/SVG/1.1/DTD/svg11.dtd">
<!-- Generated by graphviz version 2.36.0 (20140111.2315)
 -->
<!-- Title: de.flashpixx.rrd_antlr4.generator.IBaseGenerator.processoutputdirectory Pages: 1 -->
<svg width="372pt" height="83pt"
 viewBox="0.00 0.00 372.00 83.00" xmlns="http://www.w3.org/2000/svg" xmlns:xlink="http://www.w3.org/1999/xlink">
<g id="graph0" class="graph" transform="scale(1 1) rotate(0) translate(4 79)">
<title>de.flashpixx.rrd_antlr4.generator.IBaseGenerator.processoutputdirectory</title>
<!-- Node24 -->
<g id="node1" class="node"><title>Node24</title>
<polygon fill="#bfbfbf" stroke="black" points="0,-23 0,-51 176,-51 176,-23 0,-23"/>
<text text-anchor="start" x="8" y="-39.8" font-family="Helvetica,sans-Serif" font-size="9.00">de.flashpixx.rrd_antlr4.generator.</text>
<text text-anchor="middle" x="88" y="-29.8" font-family="Helvetica,sans-Serif" font-size="9.00">IBaseGenerator.processoutputdirectory</text>
</g>
<!-- Node25 -->
<g id="node2" class="node"><title>Node25</title>
<g id="a_node2"><a xlink:href="../../d8/d1c/classde_1_1flashpixx_1_1rrd__antlr4_1_1generator_1_1IBaseGenerator.html#a29d54ad601f2eeff2b29c914572d2e37" target="_top" xlink:title="finishing after all grammar files are proceed ">
<polygon fill="none" stroke="black" points="212,-47 212,-75 364,-75 364,-47 212,-47"/>
<text text-anchor="start" x="220" y="-63.8" font-family="Helvetica,sans-Serif" font-size="9.00">de.flashpixx.rrd_antlr4.generator.</text>
<text text-anchor="middle" x="288" y="-53.8" font-family="Helvetica,sans-Serif" font-size="9.00">IBaseGenerator.finish</text>
</a>
</g>
</g>
<!-- Node24&#45;&gt;Node25 -->
<g id="edge1" class="edge"><title>Node24&#45;&gt;Node25</title>
<path fill="none" stroke="midnightblue" d="M186.241,-48.7867C194.871,-49.8328 203.518,-50.881 211.921,-51.8996"/>
<polygon fill="midnightblue" stroke="midnightblue" points="186.482,-45.2905 176.134,-47.5617 185.64,-52.2396 186.482,-45.2905"/>
</g>
<!-- Node26 -->
<g id="node3" class="node"><title>Node26</title>
<g id="a_node3"><a xlink:href="../../d8/d1c/classde_1_1flashpixx_1_1rrd__antlr4_1_1generator_1_1IBaseGenerator.html#a4c93c2753b6799b45d62a1f64abfa023" target="_top" xlink:title="generates export for a grammar file ">
<polygon fill="none" stroke="black" points="212,-0 212,-28 364,-28 364,-0 212,-0"/>
<text text-anchor="start" x="220" y="-16.8" font-family="Helvetica,sans-Serif" font-size="9.00">de.flashpixx.rrd_antlr4.generator.</text>
<text text-anchor="middle" x="288" y="-6.8" font-family="Helvetica,sans-Serif" font-size="9.00">IBaseGenerator.generate</text>
</a>
</g>
</g>
<!-- Node24&#45;&gt;Node26 -->
<g id="edge2" class="edge"><title>Node24&#45;&gt;Node26</title>
<path fill="none" stroke="midnightblue" d="M186.241,-25.7044C194.871,-24.7019 203.518,-23.6974 211.921,-22.7213"/>
<polygon fill="midnightblue" stroke="midnightblue" points="185.663,-22.2478 176.134,-26.8784 186.471,-29.2011 185.663,-22.2478"/>
</g>
</g>
</svg>
