<?xml version="1.0" encoding="UTF-8" standalone="no"?>
<!DOCTYPE svg PUBLIC "-//W3C//DTD SVG 1.1//EN"
 "http://www.w3.org/Graphics/SVG/1.1/DTD/svg11.dtd">
<!-- Generated by graphviz version 2.36.0 (20140111.2315)
 -->
<!-- Title: de.flashpixx.rrd_antlr4.generator.IBaseGenerator.processmessages Pages: 1 -->
<svg width="354pt" height="83pt"
 viewBox="0.00 0.00 354.00 83.00" xmlns="http://www.w3.org/2000/svg" xmlns:xlink="http://www.w3.org/1999/xlink">
<g id="graph0" class="graph" transform="scale(1 1) rotate(0) translate(4 79)">
<title>de.flashpixx.rrd_antlr4.generator.IBaseGenerator.processmessages</title>
<!-- Node20 -->
<g id="node1" class="node"><title>Node20</title>
<polygon fill="#bfbfbf" stroke="black" points="0,-23 0,-51 158,-51 158,-23 0,-23"/>
<text text-anchor="start" x="8" y="-39.8" font-family="Helvetica,sans-Serif" font-size="9.00">de.flashpixx.rrd_antlr4.generator.</text>
<text text-anchor="middle" x="79" y="-29.8" font-family="Helvetica,sans-Serif" font-size="9.00">IBaseGenerator.processmessages</text>
</g>
<!-- Node21 -->
<g id="node2" class="node"><title>Node21</title>
<g id="a_node2"><a xlink:href="../../d8/d1c/classde_1_1flashpixx_1_1rrd__antlr4_1_1generator_1_1IBaseGenerator.html#a29d54ad601f2eeff2b29c914572d2e37" target="_top" xlink:title="finishing after all grammar files are proceed ">
<polygon fill="none" stroke="black" points="194,-47 194,-75 346,-75 346,-47 194,-47"/>
<text text-anchor="start" x="202" y="-63.8" font-family="Helvetica,sans-Serif" font-size="9.00">de.flashpixx.rrd_antlr4.generator.</text>
<text text-anchor="middle" x="270" y="-53.8" font-family="Helvetica,sans-Serif" font-size="9.00">IBaseGenerator.finish</text>
</a>
</g>
</g>
<!-- Node20&#45;&gt;Node21 -->
<g id="edge1" class="edge"><title>Node20&#45;&gt;Node21</title>
<path fill="none" stroke="midnightblue" d="M168.243,-48.2054C176.807,-49.293 185.44,-50.3892 193.859,-51.4583"/>
<polygon fill="midnightblue" stroke="midnightblue" points="168.599,-44.7227 158.238,-46.935 167.717,-51.6669 168.599,-44.7227"/>
</g>
<!-- Node22 -->
<g id="node3" class="node"><title>Node22</title>
<g id="a_node3"><a xlink:href="../../d8/d1c/classde_1_1flashpixx_1_1rrd__antlr4_1_1generator_1_1IBaseGenerator.html#a4c93c2753b6799b45d62a1f64abfa023" target="_top" xlink:title="generates export for a grammar file ">
<polygon fill="none" stroke="black" points="194,-0 194,-28 346,-28 346,-0 194,-0"/>
<text text-anchor="start" x="202" y="-16.8" font-family="Helvetica,sans-Serif" font-size="9.00">de.flashpixx.rrd_antlr4.generator.</text>
<text text-anchor="middle" x="270" y="-6.8" font-family="Helvetica,sans-Serif" font-size="9.00">IBaseGenerator.generate</text>
</a>
</g>
</g>
<!-- Node20&#45;&gt;Node22 -->
<g id="edge2" class="edge"><title>Node20&#45;&gt;Node22</title>
<path fill="none" stroke="midnightblue" d="M168.243,-26.2615C176.807,-25.2193 185.44,-24.1687 193.859,-23.1442"/>
<polygon fill="midnightblue" stroke="midnightblue" points="167.742,-22.7965 158.238,-27.479 168.587,-29.7453 167.742,-22.7965"/>
</g>
</g>
</svg>
