<?xml version="1.0" encoding="UTF-8" standalone="no"?>
<!DOCTYPE svg PUBLIC "-//W3C//DTD SVG 1.1//EN"
 "http://www.w3.org/Graphics/SVG/1.1/DTD/svg11.dtd">
<!-- Generated by graphviz version 2.36.0 (20140111.2315)
 -->
<!-- Title: de.flashpixx.rrd_antlr4.antlr.CCommon.cleanComment Pages: 1 -->
<svg width="300pt" height="166pt"
 viewBox="0.00 0.00 300.00 166.00" xmlns="http://www.w3.org/2000/svg" xmlns:xlink="http://www.w3.org/1999/xlink">
<g id="graph0" class="graph" transform="scale(1 1) rotate(0) translate(4 162)">
<title>de.flashpixx.rrd_antlr4.antlr.CCommon.cleanComment</title>
<!-- Node16 -->
<g id="node1" class="node"><title>Node16</title>
<polygon fill="#bfbfbf" stroke="black" points="0,-65 0,-93 130,-93 130,-65 0,-65"/>
<text text-anchor="start" x="8" y="-81.8" font-family="Helvetica,sans-Serif" font-size="9.00">de.flashpixx.rrd_antlr4.antlr.</text>
<text text-anchor="middle" x="65" y="-71.8" font-family="Helvetica,sans-Serif" font-size="9.00">CCommon.cleanComment</text>
</g>
<!-- Node17 -->
<g id="node2" class="node"><title>Node17</title>
<g id="a_node2"><a xlink:href="../../de/d1c/classde_1_1flashpixx_1_1rrd__antlr4_1_1CStringReplace.html#a51cb976d0ad1aeb40be593e9d076048e" target="_top" xlink:title="returns the data ">
<polygon fill="none" stroke="black" points="174,-130 174,-158 284,-158 284,-130 174,-130"/>
<text text-anchor="start" x="182" y="-146.8" font-family="Helvetica,sans-Serif" font-size="9.00">de.flashpixx.rrd_antlr4.</text>
<text text-anchor="middle" x="229" y="-136.8" font-family="Helvetica,sans-Serif" font-size="9.00">CStringReplace.get</text>
</a>
</g>
</g>
<!-- Node16&#45;&gt;Node17 -->
<g id="edge1" class="edge"><title>Node16&#45;&gt;Node17</title>
<path fill="none" stroke="midnightblue" d="M99.7228,-93.0202C119.079,-101.019 143.863,-111.178 166,-120 171.093,-122.03 176.431,-124.132 181.747,-126.211"/>
<polygon fill="midnightblue" stroke="midnightblue" points="180.646,-129.539 191.235,-129.906 183.186,-123.016 180.646,-129.539"/>
</g>
<!-- Node18 -->
<g id="node3" class="node"><title>Node18</title>
<g id="a_node3"><a xlink:href="../../de/d1c/classde_1_1flashpixx_1_1rrd__antlr4_1_1CStringReplace.html#a46fcaa4dfb93afd193cabe44c50ed976" target="_top" xlink:title="replace a char sequence ">
<polygon fill="none" stroke="black" points="171.5,-65 171.5,-93 286.5,-93 286.5,-65 171.5,-65"/>
<text text-anchor="start" x="179.5" y="-81.8" font-family="Helvetica,sans-Serif" font-size="9.00">de.flashpixx.rrd_antlr4.</text>
<text text-anchor="middle" x="229" y="-71.8" font-family="Helvetica,sans-Serif" font-size="9.00">CStringReplace.replace</text>
</a>
</g>
</g>
<!-- Node16&#45;&gt;Node18 -->
<g id="edge2" class="edge"><title>Node16&#45;&gt;Node18</title>
<path fill="none" stroke="midnightblue" d="M130.027,-79C140.242,-79 150.834,-79 161.113,-79"/>
<polygon fill="midnightblue" stroke="midnightblue" points="161.262,-82.5001 171.262,-79 161.262,-75.5001 161.262,-82.5001"/>
</g>
<!-- Node19 -->
<g id="node4" class="node"><title>Node19</title>
<g id="a_node4"><a xlink:href="../../de/d1c/classde_1_1flashpixx_1_1rrd__antlr4_1_1CStringReplace.html#a26311e2ab467fcf79cf389773a33b8cc" target="_top" xlink:title="replaces the content ">
<polygon fill="none" stroke="black" points="166.5,-0 166.5,-28 291.5,-28 291.5,-0 166.5,-0"/>
<text text-anchor="start" x="174.5" y="-16.8" font-family="Helvetica,sans-Serif" font-size="9.00">de.flashpixx.rrd_antlr4.</text>
<text text-anchor="middle" x="229" y="-6.8" font-family="Helvetica,sans-Serif" font-size="9.00">CStringReplace.replaceAll</text>
</a>
</g>
</g>
<!-- Node16&#45;&gt;Node19 -->
<g id="edge4" class="edge"><title>Node16&#45;&gt;Node19</title>
<path fill="none" stroke="midnightblue" d="M101.152,-64.896C125.246,-55.2284 157.411,-42.3226 183.322,-31.9262"/>
<polygon fill="midnightblue" stroke="midnightblue" points="184.94,-35.0486 192.917,-28.0765 182.333,-28.5521 184.94,-35.0486"/>
</g>
<!-- Node18&#45;&gt;Node18 -->
<g id="edge3" class="edge"><title>Node18&#45;&gt;Node18</title>
<path fill="none" stroke="midnightblue" d="M200.682,-93.1476C193.295,-102.245 202.734,-111 229,-111 245.006,-111 254.763,-107.749 258.272,-103.15"/>
<polygon fill="midnightblue" stroke="midnightblue" points="261.752,-102.77 257.318,-93.1476 254.783,-103.435 261.752,-102.77"/>
</g>
<!-- Node19&#45;&gt;Node19 -->
<g id="edge5" class="edge"><title>Node19&#45;&gt;Node19</title>
<path fill="none" stroke="midnightblue" d="M200.682,-28.1476C193.295,-37.2448 202.734,-46 229,-46 245.006,-46 254.763,-42.7489 258.272,-38.1504"/>
<polygon fill="midnightblue" stroke="midnightblue" points="261.752,-37.7699 257.318,-28.1476 254.783,-38.4348 261.752,-37.7699"/>
</g>
</g>
</svg>
