<?xml version="1.0" encoding="UTF-8" standalone="no"?>
<!DOCTYPE svg PUBLIC "-//W3C//DTD SVG 1.1//EN"
 "http://www.w3.org/Graphics/SVG/1.1/DTD/svg11.dtd">
<!-- Generated by graphviz version 2.36.0 (20140111.2315)
 -->
<!-- Title: de.flashpixx.rrd_antlr4.antlr.CCommon.sequence Pages: 1 -->
<svg width="346pt" height="130pt"
 viewBox="0.00 0.00 346.00 130.00" xmlns="http://www.w3.org/2000/svg" xmlns:xlink="http://www.w3.org/1999/xlink">
<g id="graph0" class="graph" transform="scale(1 1) rotate(0) translate(4 126)">
<title>de.flashpixx.rrd_antlr4.antlr.CCommon.sequence</title>
<!-- Node27 -->
<g id="node1" class="node"><title>Node27</title>
<polygon fill="#bfbfbf" stroke="black" points="0,-47 0,-75 130,-75 130,-47 0,-47"/>
<text text-anchor="start" x="8" y="-63.8" font-family="Helvetica,sans-Serif" font-size="9.00">de.flashpixx.rrd_antlr4.antlr.</text>
<text text-anchor="middle" x="65" y="-53.8" font-family="Helvetica,sans-Serif" font-size="9.00">CCommon.sequence</text>
</g>
<!-- Node28 -->
<g id="node2" class="node"><title>Node28</title>
<g id="a_node2"><a xlink:href="../../d6/da3/classde_1_1flashpixx_1_1rrd__antlr4_1_1antlr_1_1CASTVisitorAntLR.html#a3d059b8a77b41164c9c33efa4d734dfc" target="_top" xlink:title="de.flashpixx.rrd_antlr4.antlr.\lCASTVisitorAntLR.visitAlternative">
<polygon fill="none" stroke="black" points="175.5,-94 175.5,-122 328.5,-122 328.5,-94 175.5,-94"/>
<text text-anchor="start" x="183.5" y="-110.8" font-family="Helvetica,sans-Serif" font-size="9.00">de.flashpixx.rrd_antlr4.antlr.</text>
<text text-anchor="middle" x="252" y="-100.8" font-family="Helvetica,sans-Serif" font-size="9.00">CASTVisitorAntLR.visitAlternative</text>
</a>
</g>
</g>
<!-- Node27&#45;&gt;Node28 -->
<g id="edge1" class="edge"><title>Node27&#45;&gt;Node28</title>
<path fill="none" stroke="midnightblue" d="M131.103,-77.5398C152.203,-82.9002 175.393,-88.7918 195.71,-93.9533"/>
<polygon fill="midnightblue" stroke="midnightblue" points="131.809,-74.108 121.256,-75.0379 130.086,-80.8925 131.809,-74.108"/>
</g>
<!-- Node29 -->
<g id="node3" class="node"><title>Node29</title>
<g id="a_node3"><a xlink:href="../../d7/d19/classde_1_1flashpixx_1_1rrd__antlr4_1_1antlr_1_1CASTVisitorPCRE.html#ac536ea8f791fcf7e43d7df283621600f" target="_top" xlink:title="de.flashpixx.rrd_antlr4.antlr.\lCASTVisitorPCRE.visitExpr">
<polygon fill="none" stroke="black" points="187,-47 187,-75 317,-75 317,-47 187,-47"/>
<text text-anchor="start" x="195" y="-63.8" font-family="Helvetica,sans-Serif" font-size="9.00">de.flashpixx.rrd_antlr4.antlr.</text>
<text text-anchor="middle" x="252" y="-53.8" font-family="Helvetica,sans-Serif" font-size="9.00">CASTVisitorPCRE.visitExpr</text>
</a>
</g>
</g>
<!-- Node27&#45;&gt;Node29 -->
<g id="edge2" class="edge"><title>Node27&#45;&gt;Node29</title>
<path fill="none" stroke="midnightblue" d="M140.227,-61C155.692,-61 171.867,-61 186.929,-61"/>
<polygon fill="midnightblue" stroke="midnightblue" points="140.185,-57.5001 130.185,-61 140.185,-64.5001 140.185,-57.5001"/>
</g>
<!-- Node30 -->
<g id="node4" class="node"><title>Node30</title>
<g id="a_node4"><a xlink:href="../../d6/da3/classde_1_1flashpixx_1_1rrd__antlr4_1_1antlr_1_1CASTVisitorAntLR.html#a14c154e6228c79d56e07abd3244b7a8d" target="_top" xlink:title="de.flashpixx.rrd_antlr4.antlr.\lCASTVisitorAntLR.visitLexerElements">
<polygon fill="none" stroke="black" points="166.5,-0 166.5,-28 337.5,-28 337.5,-0 166.5,-0"/>
<text text-anchor="start" x="174.5" y="-16.8" font-family="Helvetica,sans-Serif" font-size="9.00">de.flashpixx.rrd_antlr4.antlr.</text>
<text text-anchor="middle" x="252" y="-6.8" font-family="Helvetica,sans-Serif" font-size="9.00">CASTVisitorAntLR.visitLexerElements</text>
</a>
</g>
</g>
<!-- Node27&#45;&gt;Node30 -->
<g id="edge3" class="edge"><title>Node27&#45;&gt;Node30</title>
<path fill="none" stroke="midnightblue" d="M131.103,-44.4602C152.203,-39.0998 175.393,-33.2082 195.71,-28.0467"/>
<polygon fill="midnightblue" stroke="midnightblue" points="130.086,-41.1075 121.256,-46.9621 131.809,-47.892 130.086,-41.1075"/>
</g>
</g>
</svg>
