<?xml version="1.0" encoding="UTF-8" standalone="no"?>
<!DOCTYPE svg PUBLIC "-//W3C//DTD SVG 1.1//EN"
 "http://www.w3.org/Graphics/SVG/1.1/DTD/svg11.dtd">
<!-- Generated by graphviz version 2.36.0 (20140111.2315)
 -->
<!-- Title: de.flashpixx.rrd_antlr4.antlr.CCommon.cardinality Pages: 1 -->
<svg width="318pt" height="130pt"
 viewBox="0.00 0.00 318.00 130.00" xmlns="http://www.w3.org/2000/svg" xmlns:xlink="http://www.w3.org/1999/xlink">
<g id="graph0" class="graph" transform="scale(1 1) rotate(0) translate(4 126)">
<title>de.flashpixx.rrd_antlr4.antlr.CCommon.cardinality</title>
<!-- Node4 -->
<g id="node1" class="node"><title>Node4</title>
<polygon fill="#bfbfbf" stroke="black" points="0,-47 0,-75 130,-75 130,-47 0,-47"/>
<text text-anchor="start" x="8" y="-63.8" font-family="Helvetica,sans-Serif" font-size="9.00">de.flashpixx.rrd_antlr4.antlr.</text>
<text text-anchor="middle" x="65" y="-53.8" font-family="Helvetica,sans-Serif" font-size="9.00">CCommon.cardinality</text>
</g>
<!-- Node5 -->
<g id="node2" class="node"><title>Node5</title>
<g id="a_node2"><a xlink:href="../../d6/da3/classde_1_1flashpixx_1_1rrd__antlr4_1_1antlr_1_1CASTVisitorAntLR.html#a7a4523ffe226a4d63bff950665cbc26c" target="_top" xlink:title="de.flashpixx.rrd_antlr4.antlr.\lCASTVisitorAntLR.visitEbnf">
<polygon fill="none" stroke="black" points="173,-94 173,-122 303,-122 303,-94 173,-94"/>
<text text-anchor="start" x="181" y="-110.8" font-family="Helvetica,sans-Serif" font-size="9.00">de.flashpixx.rrd_antlr4.antlr.</text>
<text text-anchor="middle" x="238" y="-100.8" font-family="Helvetica,sans-Serif" font-size="9.00">CASTVisitorAntLR.visitEbnf</text>
</a>
</g>
</g>
<!-- Node4&#45;&gt;Node5 -->
<g id="edge1" class="edge"><title>Node4&#45;&gt;Node5</title>
<path fill="none" stroke="midnightblue" d="M127.198,-77.8204C146.471,-83.1179 167.542,-88.9092 186.025,-93.9894"/>
<polygon fill="midnightblue" stroke="midnightblue" points="127.876,-74.377 117.306,-75.1015 126.02,-81.1267 127.876,-74.377"/>
</g>
<!-- Node6 -->
<g id="node3" class="node"><title>Node6</title>
<g id="a_node3"><a xlink:href="../../d6/da3/classde_1_1flashpixx_1_1rrd__antlr4_1_1antlr_1_1CASTVisitorAntLR.html#a92b44c44f225bcc85ceaa4a5a459b0d4" target="_top" xlink:title="de.flashpixx.rrd_antlr4.antlr.\lCASTVisitorAntLR.visitElement">
<polygon fill="none" stroke="black" points="166.5,-47 166.5,-75 309.5,-75 309.5,-47 166.5,-47"/>
<text text-anchor="start" x="174.5" y="-63.8" font-family="Helvetica,sans-Serif" font-size="9.00">de.flashpixx.rrd_antlr4.antlr.</text>
<text text-anchor="middle" x="238" y="-53.8" font-family="Helvetica,sans-Serif" font-size="9.00">CASTVisitorAntLR.visitElement</text>
</a>
</g>
</g>
<!-- Node4&#45;&gt;Node6 -->
<g id="edge2" class="edge"><title>Node4&#45;&gt;Node6</title>
<path fill="none" stroke="midnightblue" d="M140.272,-61C148.966,-61 157.818,-61 166.46,-61"/>
<polygon fill="midnightblue" stroke="midnightblue" points="140.161,-57.5001 130.161,-61 140.161,-64.5001 140.161,-57.5001"/>
</g>
<!-- Node7 -->
<g id="node4" class="node"><title>Node7</title>
<g id="a_node4"><a xlink:href="../../d7/d19/classde_1_1flashpixx_1_1rrd__antlr4_1_1antlr_1_1CASTVisitorPCRE.html#ac536ea8f791fcf7e43d7df283621600f" target="_top" xlink:title="de.flashpixx.rrd_antlr4.antlr.\lCASTVisitorPCRE.visitExpr">
<polygon fill="none" stroke="black" points="173,-0 173,-28 303,-28 303,-0 173,-0"/>
<text text-anchor="start" x="181" y="-16.8" font-family="Helvetica,sans-Serif" font-size="9.00">de.flashpixx.rrd_antlr4.antlr.</text>
<text text-anchor="middle" x="238" y="-6.8" font-family="Helvetica,sans-Serif" font-size="9.00">CASTVisitorPCRE.visitExpr</text>
</a>
</g>
</g>
<!-- Node4&#45;&gt;Node7 -->
<g id="edge3" class="edge"><title>Node4&#45;&gt;Node7</title>
<path fill="none" stroke="midnightblue" d="M127.198,-44.1796C146.471,-38.8821 167.542,-33.0908 186.025,-28.0106"/>
<polygon fill="midnightblue" stroke="midnightblue" points="126.02,-40.8733 117.306,-46.8985 127.876,-47.623 126.02,-40.8733"/>
</g>
</g>
</svg>
