<?xml version="1.0" encoding="UTF-8" standalone="no"?>
<!DOCTYPE svg PUBLIC "-//W3C//DTD SVG 1.1//EN"
 "http://www.w3.org/Graphics/SVG/1.1/DTD/svg11.dtd">
<!-- Generated by graphviz version 2.36.0 (20140111.2315)
 -->
<!-- Title: de.flashpixx.rrd_antlr4.antlr.CCommon.choice Pages: 1 -->
<svg width="350pt" height="271pt"
 viewBox="0.00 0.00 350.00 271.00" xmlns="http://www.w3.org/2000/svg" xmlns:xlink="http://www.w3.org/1999/xlink">
<g id="graph0" class="graph" transform="scale(1 1) rotate(0) translate(4 267)">
<title>de.flashpixx.rrd_antlr4.antlr.CCommon.choice</title>
<!-- Node9 -->
<g id="node1" class="node"><title>Node9</title>
<polygon fill="#bfbfbf" stroke="black" points="0,-117 0,-145 130,-145 130,-117 0,-117"/>
<text text-anchor="start" x="8" y="-133.8" font-family="Helvetica,sans-Serif" font-size="9.00">de.flashpixx.rrd_antlr4.antlr.</text>
<text text-anchor="middle" x="65" y="-123.8" font-family="Helvetica,sans-Serif" font-size="9.00">CCommon.choice</text>
</g>
<!-- Node10 -->
<g id="node2" class="node"><title>Node10</title>
<g id="a_node2"><a xlink:href="../../d7/d19/classde_1_1flashpixx_1_1rrd__antlr4_1_1antlr_1_1CASTVisitorPCRE.html#a067916b5b755dee467b8c9d271c6f9ca" target="_top" xlink:title="de.flashpixx.rrd_antlr4.antlr.\lCASTVisitorPCRE.visitAlternation">
<polygon fill="none" stroke="black" points="177,-235 177,-263 331,-263 331,-235 177,-235"/>
<text text-anchor="start" x="185" y="-251.8" font-family="Helvetica,sans-Serif" font-size="9.00">de.flashpixx.rrd_antlr4.antlr.</text>
<text text-anchor="middle" x="254" y="-241.8" font-family="Helvetica,sans-Serif" font-size="9.00">CASTVisitorPCRE.visitAlternation</text>
</a>
</g>
</g>
<!-- Node9&#45;&gt;Node10 -->
<g id="edge1" class="edge"><title>Node9&#45;&gt;Node10</title>
<path fill="none" stroke="midnightblue" d="M83.6911,-152.95C102.09,-174.362 132.806,-206.353 166,-225 172.83,-228.837 180.311,-232.091 187.928,-234.842"/>
<polygon fill="midnightblue" stroke="midnightblue" points="86.153,-150.439 77.0382,-145.038 80.7954,-154.944 86.153,-150.439"/>
</g>
<!-- Node11 -->
<g id="node3" class="node"><title>Node11</title>
<g id="a_node3"><a xlink:href="../../d6/da3/classde_1_1flashpixx_1_1rrd__antlr4_1_1antlr_1_1CASTVisitorAntLR.html#a28b1eb3b841b997d1d6ed4d99116ef5f" target="_top" xlink:title="de.flashpixx.rrd_antlr4.antlr.\lCASTVisitorAntLR.visitAltList">
<polygon fill="none" stroke="black" points="187,-188 187,-216 321,-216 321,-188 187,-188"/>
<text text-anchor="start" x="195" y="-204.8" font-family="Helvetica,sans-Serif" font-size="9.00">de.flashpixx.rrd_antlr4.antlr.</text>
<text text-anchor="middle" x="254" y="-194.8" font-family="Helvetica,sans-Serif" font-size="9.00">CASTVisitorAntLR.visitAltList</text>
</a>
</g>
</g>
<!-- Node9&#45;&gt;Node11 -->
<g id="edge2" class="edge"><title>Node9&#45;&gt;Node11</title>
<path fill="none" stroke="midnightblue" d="M101.714,-149.598C120.514,-158.921 144.144,-169.916 166,-178 175.699,-181.587 186.18,-184.92 196.394,-187.891"/>
<polygon fill="midnightblue" stroke="midnightblue" points="103.138,-146.397 92.6306,-145.038 99.9972,-152.653 103.138,-146.397"/>
</g>
<!-- Node12 -->
<g id="node4" class="node"><title>Node12</title>
<g id="a_node4"><a xlink:href="../../d6/da3/classde_1_1flashpixx_1_1rrd__antlr4_1_1antlr_1_1CASTVisitorAntLR.html#a4e7aa34eb588aebe46fbde999c5b378d" target="_top" xlink:title="de.flashpixx.rrd_antlr4.antlr.\lCASTVisitorAntLR.visitBlockSet">
<polygon fill="none" stroke="black" points="181,-141 181,-169 327,-169 327,-141 181,-141"/>
<text text-anchor="start" x="189" y="-157.8" font-family="Helvetica,sans-Serif" font-size="9.00">de.flashpixx.rrd_antlr4.antlr.</text>
<text text-anchor="middle" x="254" y="-147.8" font-family="Helvetica,sans-Serif" font-size="9.00">CASTVisitorAntLR.visitBlockSet</text>
</a>
</g>
</g>
<!-- Node9&#45;&gt;Node12 -->
<g id="edge3" class="edge"><title>Node9&#45;&gt;Node12</title>
<path fill="none" stroke="midnightblue" d="M140.226,-140.526C153.644,-142.248 167.615,-144.041 180.968,-145.755"/>
<polygon fill="midnightblue" stroke="midnightblue" points="140.457,-137.027 130.093,-139.226 139.566,-143.97 140.457,-137.027"/>
</g>
<!-- Node13 -->
<g id="node5" class="node"><title>Node13</title>
<g id="a_node5"><a xlink:href="../../d7/d19/classde_1_1flashpixx_1_1rrd__antlr4_1_1antlr_1_1CASTVisitorPCRE.html#a5c359861fd5b9582d82ca1fd7081d763" target="_top" xlink:title="de.flashpixx.rrd_antlr4.antlr.\lCASTVisitorPCRE.visitCharacter_class">
<polygon fill="none" stroke="black" points="166,-94 166,-122 342,-122 342,-94 166,-94"/>
<text text-anchor="start" x="174" y="-110.8" font-family="Helvetica,sans-Serif" font-size="9.00">de.flashpixx.rrd_antlr4.antlr.</text>
<text text-anchor="middle" x="254" y="-100.8" font-family="Helvetica,sans-Serif" font-size="9.00">CASTVisitorPCRE.visitCharacter_class</text>
</a>
</g>
</g>
<!-- Node9&#45;&gt;Node13 -->
<g id="edge4" class="edge"><title>Node9&#45;&gt;Node13</title>
<path fill="none" stroke="midnightblue" d="M140.234,-121.87C148.652,-120.834 157.288,-119.772 165.852,-118.719"/>
<polygon fill="midnightblue" stroke="midnightblue" points="139.591,-118.422 130.093,-123.117 140.446,-125.37 139.591,-118.422"/>
</g>
<!-- Node14 -->
<g id="node6" class="node"><title>Node14</title>
<g id="a_node6"><a xlink:href="../../d6/da3/classde_1_1flashpixx_1_1rrd__antlr4_1_1antlr_1_1CASTVisitorAntLR.html#a6ca013cb961ce8c2c0453a49ee952cb4" target="_top" xlink:title="de.flashpixx.rrd_antlr4.antlr.\lCASTVisitorAntLR.visitLexerAltList">
<polygon fill="none" stroke="black" points="175,-47 175,-75 333,-75 333,-47 175,-47"/>
<text text-anchor="start" x="183" y="-63.8" font-family="Helvetica,sans-Serif" font-size="9.00">de.flashpixx.rrd_antlr4.antlr.</text>
<text text-anchor="middle" x="254" y="-53.8" font-family="Helvetica,sans-Serif" font-size="9.00">CASTVisitorAntLR.visitLexerAltList</text>
</a>
</g>
</g>
<!-- Node9&#45;&gt;Node14 -->
<g id="edge5" class="edge"><title>Node9&#45;&gt;Node14</title>
<path fill="none" stroke="midnightblue" d="M102.553,-112.454C121.232,-103.424 144.502,-92.8512 166,-85 175.861,-81.3988 186.519,-78.0387 196.883,-75.0402"/>
<polygon fill="midnightblue" stroke="midnightblue" points="100.955,-109.34 93.5099,-116.878 104.031,-115.628 100.955,-109.34"/>
</g>
<!-- Node15 -->
<g id="node7" class="node"><title>Node15</title>
<g id="a_node7"><a xlink:href="../../d6/da3/classde_1_1flashpixx_1_1rrd__antlr4_1_1antlr_1_1CASTVisitorAntLR.html#a71ad747edc8bf6ff480065bcf9ccc961" target="_top" xlink:title="de.flashpixx.rrd_antlr4.antlr.\lCASTVisitorAntLR.visitRuleAltList">
<polygon fill="none" stroke="black" points="177,-0 177,-28 331,-28 331,-0 177,-0"/>
<text text-anchor="start" x="185" y="-16.8" font-family="Helvetica,sans-Serif" font-size="9.00">de.flashpixx.rrd_antlr4.antlr.</text>
<text text-anchor="middle" x="254" y="-6.8" font-family="Helvetica,sans-Serif" font-size="9.00">CASTVisitorAntLR.visitRuleAltList</text>
</a>
</g>
</g>
<!-- Node9&#45;&gt;Node15 -->
<g id="edge6" class="edge"><title>Node9&#45;&gt;Node15</title>
<path fill="none" stroke="midnightblue" d="M84.0469,-108.939C102.517,-87.7631 133.104,-56.364 166,-38 172.977,-34.1049 180.627,-30.8093 188.405,-28.0288"/>
<polygon fill="midnightblue" stroke="midnightblue" points="81.1863,-106.899 77.3551,-116.777 86.5101,-111.444 81.1863,-106.899"/>
</g>
</g>
</svg>
