<?xml version="1.0" encoding="UTF-8" standalone="no"?>
<!DOCTYPE svg PUBLIC "-//W3C//DTD SVG 1.1//EN"
 "http://www.w3.org/Graphics/SVG/1.1/DTD/svg11.dtd">
<!-- Generated by graphviz version 2.36.0 (20140111.2315)
 -->
<!-- Title: de.flashpixx.rrd_antlr4.antlr.CGrammarEmptyCollection.equals Pages: 1 -->
<svg width="376pt" height="54pt"
 viewBox="0.00 0.00 376.00 54.00" xmlns="http://www.w3.org/2000/svg" xmlns:xlink="http://www.w3.org/1999/xlink">
<g id="graph0" class="graph" transform="scale(1 1) rotate(0) translate(4 50)">
<title>de.flashpixx.rrd_antlr4.antlr.CGrammarEmptyCollection.equals</title>
<!-- Node6 -->
<g id="node1" class="node"><title>Node6</title>
<polygon fill="#bfbfbf" stroke="black" points="0,-0 0,-28 158,-28 158,-0 0,-0"/>
<text text-anchor="start" x="8" y="-16.8" font-family="Helvetica,sans-Serif" font-size="9.00">de.flashpixx.rrd_antlr4.antlr.</text>
<text text-anchor="middle" x="79" y="-6.8" font-family="Helvetica,sans-Serif" font-size="9.00">CGrammarEmptyCollection.equals</text>
</g>
<!-- Node7 -->
<g id="node2" class="node"><title>Node7</title>
<g id="a_node2"><a xlink:href="../../d5/d4c/classde_1_1flashpixx_1_1rrd__antlr4_1_1antlr_1_1CGrammarEmptyCollection.html#a2cfe77180a716631aa0ee61618d82af2" target="_top" xlink:title="de.flashpixx.rrd_antlr4.antlr.\lCGrammarEmptyCollection.hashCode">
<polygon fill="none" stroke="black" points="194.5,-0 194.5,-28 367.5,-28 367.5,-0 194.5,-0"/>
<text text-anchor="start" x="202.5" y="-16.8" font-family="Helvetica,sans-Serif" font-size="9.00">de.flashpixx.rrd_antlr4.antlr.</text>
<text text-anchor="middle" x="281" y="-6.8" font-family="Helvetica,sans-Serif" font-size="9.00">CGrammarEmptyCollection.hashCode</text>
</a>
</g>
</g>
<!-- Node6&#45;&gt;Node7 -->
<g id="edge1" class="edge"><title>Node6&#45;&gt;Node7</title>
<path fill="none" stroke="midnightblue" d="M158.185,-14C166.689,-14 175.415,-14 184.099,-14"/>
<polygon fill="midnightblue" stroke="midnightblue" points="184.26,-17.5001 194.259,-14 184.259,-10.5001 184.26,-17.5001"/>
</g>
<!-- Node7&#45;&gt;Node7 -->
<g id="edge2" class="edge"><title>Node7&#45;&gt;Node7</title>
<path fill="none" stroke="midnightblue" d="M246.121,-28.1476C237.022,-37.2448 248.648,-46 281,-46 300.714,-46 312.732,-42.7489 317.055,-38.1504"/>
<polygon fill="midnightblue" stroke="midnightblue" points="320.522,-37.6707 315.879,-28.1476 313.57,-38.4878 320.522,-37.6707"/>
</g>
</g>
</svg>
