<?xml version="1.0" encoding="UTF-8" standalone="no"?>
<!DOCTYPE svg PUBLIC "-//W3C//DTD SVG 1.1//EN"
 "http://www.w3.org/Graphics/SVG/1.1/DTD/svg11.dtd">
<!-- Generated by graphviz version 2.36.0 (20140111.2315)
 -->
<!-- Title: de.flashpixx.rrd_antlr4.antlr.CGrammarEmptyCollection.hashCode Pages: 1 -->
<svg width="376pt" height="54pt"
 viewBox="0.00 0.00 376.00 54.00" xmlns="http://www.w3.org/2000/svg" xmlns:xlink="http://www.w3.org/1999/xlink">
<g id="graph0" class="graph" transform="scale(1 1) rotate(0) translate(4 50)">
<title>de.flashpixx.rrd_antlr4.antlr.CGrammarEmptyCollection.hashCode</title>
<!-- Node12 -->
<g id="node1" class="node"><title>Node12</title>
<polygon fill="#bfbfbf" stroke="black" points="0.5,-0 0.5,-28 173.5,-28 173.5,-0 0.5,-0"/>
<text text-anchor="start" x="8.5" y="-16.8" font-family="Helvetica,sans-Serif" font-size="9.00">de.flashpixx.rrd_antlr4.antlr.</text>
<text text-anchor="middle" x="87" y="-6.8" font-family="Helvetica,sans-Serif" font-size="9.00">CGrammarEmptyCollection.hashCode</text>
</g>
<!-- Node12&#45;&gt;Node12 -->
<g id="edge2" class="edge"><title>Node12&#45;&gt;Node12</title>
<path fill="none" stroke="midnightblue" d="M50.9455,-38.1504C55.2676,-42.7489 67.2858,-46 87,-46 119.352,-46 130.978,-37.2448 121.879,-28.1476"/>
<polygon fill="midnightblue" stroke="midnightblue" points="54.4298,-38.4878 52.121,-28.1476 47.4777,-37.6707 54.4298,-38.4878"/>
</g>
<!-- Node13 -->
<g id="node2" class="node"><title>Node13</title>
<g id="a_node2"><a xlink:href="../../d5/d4c/classde_1_1flashpixx_1_1rrd__antlr4_1_1antlr_1_1CGrammarEmptyCollection.html#aa254aa708f67e9203c5c4dd35f3ba70d" target="_top" xlink:title="de.flashpixx.rrd_antlr4.antlr.\lCGrammarEmptyCollection.equals">
<polygon fill="none" stroke="black" points="210,-0 210,-28 368,-28 368,-0 210,-0"/>
<text text-anchor="start" x="218" y="-16.8" font-family="Helvetica,sans-Serif" font-size="9.00">de.flashpixx.rrd_antlr4.antlr.</text>
<text text-anchor="middle" x="289" y="-6.8" font-family="Helvetica,sans-Serif" font-size="9.00">CGrammarEmptyCollection.equals</text>
</a>
</g>
</g>
<!-- Node12&#45;&gt;Node13 -->
<g id="edge1" class="edge"><title>Node12&#45;&gt;Node13</title>
<path fill="none" stroke="midnightblue" d="M183.848,-14C192.532,-14 201.257,-14 209.762,-14"/>
<polygon fill="midnightblue" stroke="midnightblue" points="183.688,-10.5001 173.688,-14 183.688,-17.5001 183.688,-10.5001"/>
</g>
</g>
</svg>
