<?xml version="1.0" encoding="UTF-8" standalone="no"?>
<!DOCTYPE svg PUBLIC "-//W3C//DTD SVG 1.1//EN"
 "http://www.w3.org/Graphics/SVG/1.1/DTD/svg11.dtd">
<!-- Generated by graphviz version 2.36.0 (20140111.2315)
 -->
<!-- Title: de.flashpixx.rrd_antlr4.antlr.CGrammarNegation Pages: 1 -->
<svg width="233pt" height="362pt"
 viewBox="0.00 0.00 233.00 362.00" xmlns="http://www.w3.org/2000/svg" xmlns:xlink="http://www.w3.org/1999/xlink">
<g id="graph0" class="graph" transform="scale(1 1) rotate(0) translate(4 358)">
<title>de.flashpixx.rrd_antlr4.antlr.CGrammarNegation</title>
<!-- Node3 -->
<g id="node1" class="node"><title>Node3</title>
<polygon fill="#bfbfbf" stroke="black" points="0,-1 0,-135 130,-135 130,-1 0,-1"/>
<text text-anchor="start" x="8" y="-123.8" font-family="Helvetica,sans-Serif" font-size="9.00">de.flashpixx.rrd_antlr4.antlr.</text>
<text text-anchor="middle" x="65" y="-113.8" font-family="Helvetica,sans-Serif" font-size="9.00">CGrammarNegation</text>
<polyline fill="none" stroke="black" points="0,-107 130,-107 "/>
<text text-anchor="start" x="8" y="-95.8" font-family="Helvetica,sans-Serif" font-size="9.00">&#45; m_cardinality</text>
<polyline fill="none" stroke="black" points="0,-89 130,-89 "/>
<text text-anchor="start" x="8" y="-77.8" font-family="Helvetica,sans-Serif" font-size="9.00">+ CGrammarNegation()</text>
<text text-anchor="start" x="8" y="-67.8" font-family="Helvetica,sans-Serif" font-size="9.00">+ CGrammarNegation()</text>
<text text-anchor="start" x="8" y="-57.8" font-family="Helvetica,sans-Serif" font-size="9.00">+ cardinality()</text>
<text text-anchor="start" x="8" y="-47.8" font-family="Helvetica,sans-Serif" font-size="9.00">+ cardinality()</text>
<text text-anchor="start" x="8" y="-37.8" font-family="Helvetica,sans-Serif" font-size="9.00">+ equals()</text>
<text text-anchor="start" x="8" y="-27.8" font-family="Helvetica,sans-Serif" font-size="9.00">+ hashCode()</text>
<text text-anchor="start" x="8" y="-17.8" font-family="Helvetica,sans-Serif" font-size="9.00">+ inner()</text>
<text text-anchor="start" x="8" y="-7.8" font-family="Helvetica,sans-Serif" font-size="9.00">+ toString()</text>
</g>
<!-- Node4 -->
<g id="node2" class="node"><title>Node4</title>
<g id="a_node2"><a xlink:href="../../de/d81/interfacede_1_1flashpixx_1_1rrd__antlr4_1_1antlr_1_1IGrammarNegation.html" target="_top" xlink:title="a negation element ">
<polygon fill="none" stroke="black" points="95,-175 95,-239 225,-239 225,-175 95,-175"/>
<text text-anchor="start" x="103" y="-227.8" font-family="Helvetica,sans-Serif" font-size="9.00">de.flashpixx.rrd_antlr4.antlr.</text>
<text text-anchor="middle" x="160" y="-217.8" font-family="Helvetica,sans-Serif" font-size="9.00">IGrammarNegation</text>
<polyline fill="none" stroke="black" points="95,-211 225,-211 "/>
<text text-anchor="middle" x="160" y="-199.8" font-family="Helvetica,sans-Serif" font-size="9.00"> </text>
<polyline fill="none" stroke="black" points="95,-193 225,-193 "/>
<text text-anchor="start" x="103" y="-181.8" font-family="Helvetica,sans-Serif" font-size="9.00">+ inner()</text>
</a>
</g>
</g>
<!-- Node4&#45;&gt;Node3 -->
<g id="edge1" class="edge"><title>Node4&#45;&gt;Node3</title>
<path fill="none" stroke="midnightblue" d="M132.65,-166.559C125.839,-156.736 118.349,-145.935 110.911,-135.208"/>
<polygon fill="none" stroke="midnightblue" points="129.868,-168.689 138.443,-174.913 135.621,-164.701 129.868,-168.689"/>
</g>
<!-- Node5 -->
<g id="node3" class="node"><title>Node5</title>
<g id="a_node3"><a xlink:href="../../dd/da7/interfacede_1_1flashpixx_1_1rrd__antlr4_1_1antlr_1_1IGrammarElement.html" target="_top" xlink:title="any grammar element ">
<polygon fill="none" stroke="black" points="0,-279 0,-353 130,-353 130,-279 0,-279"/>
<text text-anchor="start" x="8" y="-341.8" font-family="Helvetica,sans-Serif" font-size="9.00">de.flashpixx.rrd_antlr4.antlr.</text>
<text text-anchor="middle" x="65" y="-331.8" font-family="Helvetica,sans-Serif" font-size="9.00">IGrammarElement</text>
<polyline fill="none" stroke="black" points="0,-325 130,-325 "/>
<text text-anchor="middle" x="65" y="-313.8" font-family="Helvetica,sans-Serif" font-size="9.00"> </text>
<polyline fill="none" stroke="black" points="0,-307 130,-307 "/>
<text text-anchor="start" x="8" y="-295.8" font-family="Helvetica,sans-Serif" font-size="9.00">+ cardinality()</text>
<text text-anchor="start" x="8" y="-285.8" font-family="Helvetica,sans-Serif" font-size="9.00">+ cardinality()</text>
</a>
</g>
</g>
<!-- Node5&#45;&gt;Node3 -->
<g id="edge3" class="edge"><title>Node5&#45;&gt;Node3</title>
<path fill="none" stroke="#404040" d="M46.7312,-278.897C41.5473,-266.842 36.6063,-253.129 34,-240 27.9844,-209.698 31.7402,-176.28 38.4132,-147.086"/>
<polygon fill="none" stroke="#404040" points="38.4513,-146.931 36.0014,-140.149 41.3196,-135.279 43.7695,-142.061 38.4513,-146.931"/>
<text text-anchor="middle" x="60" y="-204.8" font-family="Helvetica,sans-Serif" font-size="9.00"> &#45;m_element</text>
</g>
<!-- Node5&#45;&gt;Node4 -->
<g id="edge2" class="edge"><title>Node5&#45;&gt;Node4</title>
<path fill="none" stroke="midnightblue" d="M103.978,-271.099C113.483,-260.393 123.459,-249.157 132.315,-239.182"/>
<polygon fill="none" stroke="midnightblue" points="101.185,-268.973 97.1627,-278.775 106.419,-273.62 101.185,-268.973"/>
</g>
</g>
</svg>
