<?xml version="1.0" encoding="UTF-8" standalone="no"?>
<!DOCTYPE svg PUBLIC "-//W3C//DTD SVG 1.1//EN"
 "http://www.w3.org/Graphics/SVG/1.1/DTD/svg11.dtd">
<!-- Generated by graphviz version 2.36.0 (20140111.2315)
 -->
<!-- Title: de.flashpixx.rrd_antlr4.CStringReplace.replace Pages: 1 -->
<svg width="504pt" height="130pt"
 viewBox="0.00 0.00 504.00 130.00" xmlns="http://www.w3.org/2000/svg" xmlns:xlink="http://www.w3.org/1999/xlink">
<g id="graph0" class="graph" transform="scale(1 1) rotate(0) translate(4 126)">
<title>de.flashpixx.rrd_antlr4.CStringReplace.replace</title>
<!-- Node15 -->
<g id="node1" class="node"><title>Node15</title>
<polygon fill="#bfbfbf" stroke="black" points="0.5,-47 0.5,-75 115.5,-75 115.5,-47 0.5,-47"/>
<text text-anchor="start" x="8.5" y="-63.8" font-family="Helvetica,sans-Serif" font-size="9.00">de.flashpixx.rrd_antlr4.</text>
<text text-anchor="middle" x="58" y="-53.8" font-family="Helvetica,sans-Serif" font-size="9.00">CStringReplace.replace</text>
</g>
<!-- Node15&#45;&gt;Node15 -->
<g id="edge5" class="edge"><title>Node15&#45;&gt;Node15</title>
<path fill="none" stroke="midnightblue" d="M29.7989,-85.1504C33.1796,-89.7489 42.58,-93 58,-93 83.3047,-93 92.3986,-84.2448 85.2816,-75.1476"/>
<polygon fill="midnightblue" stroke="midnightblue" points="33.2883,-85.426 30.7184,-75.1476 26.3177,-84.7852 33.2883,-85.426"/>
</g>
<!-- Node16 -->
<g id="node2" class="node"><title>Node16</title>
<g id="a_node2"><a xlink:href="../../d0/db6/classde_1_1flashpixx_1_1rrd__antlr4_1_1antlr_1_1CCommon.html#a046543cf95af34fb6ec4c2ccec471322" target="_top" xlink:title="cleanup comment from doxygen structure ">
<polygon fill="none" stroke="black" points="152,-47 152,-75 282,-75 282,-47 152,-47"/>
<text text-anchor="start" x="160" y="-63.8" font-family="Helvetica,sans-Serif" font-size="9.00">de.flashpixx.rrd_antlr4.antlr.</text>
<text text-anchor="middle" x="217" y="-53.8" font-family="Helvetica,sans-Serif" font-size="9.00">CCommon.cleanComment</text>
</a>
</g>
</g>
<!-- Node15&#45;&gt;Node16 -->
<g id="edge1" class="edge"><title>Node15&#45;&gt;Node16</title>
<path fill="none" stroke="midnightblue" d="M125.754,-61C134.434,-61 143.31,-61 151.944,-61"/>
<polygon fill="midnightblue" stroke="midnightblue" points="125.681,-57.5001 115.681,-61 125.681,-64.5001 125.681,-57.5001"/>
</g>
<!-- Node17 -->
<g id="node3" class="node"><title>Node17</title>
<g id="a_node3"><a xlink:href="../../d6/da3/classde_1_1flashpixx_1_1rrd__antlr4_1_1antlr_1_1CASTVisitorAntLR.html#a48686dd838370435e16abb39f3a51da1" target="_top" xlink:title="de.flashpixx.rrd_antlr4.antlr.\lCASTVisitorAntLR.visitGrammarSpec">
<polygon fill="none" stroke="black" points="322.5,-94 322.5,-122 491.5,-122 491.5,-94 322.5,-94"/>
<text text-anchor="start" x="330.5" y="-110.8" font-family="Helvetica,sans-Serif" font-size="9.00">de.flashpixx.rrd_antlr4.antlr.</text>
<text text-anchor="middle" x="407" y="-100.8" font-family="Helvetica,sans-Serif" font-size="9.00">CASTVisitorAntLR.visitGrammarSpec</text>
</a>
</g>
</g>
<!-- Node16&#45;&gt;Node17 -->
<g id="edge2" class="edge"><title>Node16&#45;&gt;Node17</title>
<path fill="none" stroke="midnightblue" d="M283.868,-77.467C305.388,-82.8469 329.074,-88.7685 349.813,-93.9533"/>
<polygon fill="midnightblue" stroke="midnightblue" points="284.702,-74.0678 274.152,-75.0379 283.004,-80.8588 284.702,-74.0678"/>
</g>
<!-- Node18 -->
<g id="node4" class="node"><title>Node18</title>
<g id="a_node4"><a xlink:href="../../d6/da3/classde_1_1flashpixx_1_1rrd__antlr4_1_1antlr_1_1CASTVisitorAntLR.html#af09827c856efc9b8ba62a94af7795208" target="_top" xlink:title="de.flashpixx.rrd_antlr4.antlr.\lCASTVisitorAntLR.visitParserRuleSpec">
<polygon fill="none" stroke="black" points="318.5,-47 318.5,-75 495.5,-75 495.5,-47 318.5,-47"/>
<text text-anchor="start" x="326.5" y="-63.8" font-family="Helvetica,sans-Serif" font-size="9.00">de.flashpixx.rrd_antlr4.antlr.</text>
<text text-anchor="middle" x="407" y="-53.8" font-family="Helvetica,sans-Serif" font-size="9.00">CASTVisitorAntLR.visitParserRuleSpec</text>
</a>
</g>
</g>
<!-- Node16&#45;&gt;Node18 -->
<g id="edge3" class="edge"><title>Node16&#45;&gt;Node18</title>
<path fill="none" stroke="midnightblue" d="M292.377,-61C300.85,-61 309.544,-61 318.17,-61"/>
<polygon fill="midnightblue" stroke="midnightblue" points="292.173,-57.5001 282.173,-61 292.173,-64.5001 292.173,-57.5001"/>
</g>
<!-- Node19 -->
<g id="node5" class="node"><title>Node19</title>
<g id="a_node5"><a xlink:href="../../d6/da3/classde_1_1flashpixx_1_1rrd__antlr4_1_1antlr_1_1CASTVisitorAntLR.html#a3001276765ec297b9e776a1f2445e522" target="_top" xlink:title="de.flashpixx.rrd_antlr4.antlr.\lCASTVisitorAntLR.visitLexerRuleSpec">
<polygon fill="none" stroke="black" points="320.5,-0 320.5,-28 493.5,-28 493.5,-0 320.5,-0"/>
<text text-anchor="start" x="328.5" y="-16.8" font-family="Helvetica,sans-Serif" font-size="9.00">de.flashpixx.rrd_antlr4.antlr.</text>
<text text-anchor="middle" x="407" y="-6.8" font-family="Helvetica,sans-Serif" font-size="9.00">CASTVisitorAntLR.visitLexerRuleSpec</text>
</a>
</g>
</g>
<!-- Node16&#45;&gt;Node19 -->
<g id="edge4" class="edge"><title>Node16&#45;&gt;Node19</title>
<path fill="none" stroke="midnightblue" d="M283.868,-44.533C305.388,-39.1531 329.074,-33.2315 349.813,-28.0467"/>
<polygon fill="midnightblue" stroke="midnightblue" points="283.004,-41.1412 274.152,-46.9621 284.702,-47.9322 283.004,-41.1412"/>
</g>
</g>
</svg>
