<?xml version="1.0" encoding="UTF-8" standalone="no"?>
<!DOCTYPE svg PUBLIC "-//W3C//DTD SVG 1.1//EN"
 "http://www.w3.org/Graphics/SVG/1.1/DTD/svg11.dtd">
<!-- Generated by graphviz version 2.36.0 (20140111.2315)
 -->
<!-- Title: de.flashpixx.rrd_antlr4.CStringReplace.get Pages: 1 -->
<svg width="498pt" height="130pt"
 viewBox="0.00 0.00 498.00 130.00" xmlns="http://www.w3.org/2000/svg" xmlns:xlink="http://www.w3.org/1999/xlink">
<g id="graph0" class="graph" transform="scale(1 1) rotate(0) translate(4 126)">
<title>de.flashpixx.rrd_antlr4.CStringReplace.get</title>
<!-- Node7 -->
<g id="node1" class="node"><title>Node7</title>
<polygon fill="#bfbfbf" stroke="black" points="0,-47 0,-75 110,-75 110,-47 0,-47"/>
<text text-anchor="start" x="8" y="-63.8" font-family="Helvetica,sans-Serif" font-size="9.00">de.flashpixx.rrd_antlr4.</text>
<text text-anchor="middle" x="55" y="-53.8" font-family="Helvetica,sans-Serif" font-size="9.00">CStringReplace.get</text>
</g>
<!-- Node8 -->
<g id="node2" class="node"><title>Node8</title>
<g id="a_node2"><a xlink:href="../../d0/db6/classde_1_1flashpixx_1_1rrd__antlr4_1_1antlr_1_1CCommon.html#a046543cf95af34fb6ec4c2ccec471322" target="_top" xlink:title="cleanup comment from doxygen structure ">
<polygon fill="none" stroke="black" points="146,-47 146,-75 276,-75 276,-47 146,-47"/>
<text text-anchor="start" x="154" y="-63.8" font-family="Helvetica,sans-Serif" font-size="9.00">de.flashpixx.rrd_antlr4.antlr.</text>
<text text-anchor="middle" x="211" y="-53.8" font-family="Helvetica,sans-Serif" font-size="9.00">CCommon.cleanComment</text>
</a>
</g>
</g>
<!-- Node7&#45;&gt;Node8 -->
<g id="edge1" class="edge"><title>Node7&#45;&gt;Node8</title>
<path fill="none" stroke="midnightblue" d="M120.441,-61C128.866,-61 137.497,-61 145.916,-61"/>
<polygon fill="midnightblue" stroke="midnightblue" points="120.295,-57.5001 110.295,-61 120.295,-64.5001 120.295,-57.5001"/>
</g>
<!-- Node9 -->
<g id="node3" class="node"><title>Node9</title>
<g id="a_node3"><a xlink:href="../../d6/da3/classde_1_1flashpixx_1_1rrd__antlr4_1_1antlr_1_1CASTVisitorAntLR.html#a48686dd838370435e16abb39f3a51da1" target="_top" xlink:title="de.flashpixx.rrd_antlr4.antlr.\lCASTVisitorAntLR.visitGrammarSpec">
<polygon fill="none" stroke="black" points="316.5,-94 316.5,-122 485.5,-122 485.5,-94 316.5,-94"/>
<text text-anchor="start" x="324.5" y="-110.8" font-family="Helvetica,sans-Serif" font-size="9.00">de.flashpixx.rrd_antlr4.antlr.</text>
<text text-anchor="middle" x="401" y="-100.8" font-family="Helvetica,sans-Serif" font-size="9.00">CASTVisitorAntLR.visitGrammarSpec</text>
</a>
</g>
</g>
<!-- Node8&#45;&gt;Node9 -->
<g id="edge2" class="edge"><title>Node8&#45;&gt;Node9</title>
<path fill="none" stroke="midnightblue" d="M277.868,-77.467C299.388,-82.8469 323.074,-88.7685 343.813,-93.9533"/>
<polygon fill="midnightblue" stroke="midnightblue" points="278.702,-74.0678 268.152,-75.0379 277.004,-80.8588 278.702,-74.0678"/>
</g>
<!-- Node10 -->
<g id="node4" class="node"><title>Node10</title>
<g id="a_node4"><a xlink:href="../../d6/da3/classde_1_1flashpixx_1_1rrd__antlr4_1_1antlr_1_1CASTVisitorAntLR.html#af09827c856efc9b8ba62a94af7795208" target="_top" xlink:title="de.flashpixx.rrd_antlr4.antlr.\lCASTVisitorAntLR.visitParserRuleSpec">
<polygon fill="none" stroke="black" points="312.5,-47 312.5,-75 489.5,-75 489.5,-47 312.5,-47"/>
<text text-anchor="start" x="320.5" y="-63.8" font-family="Helvetica,sans-Serif" font-size="9.00">de.flashpixx.rrd_antlr4.antlr.</text>
<text text-anchor="middle" x="401" y="-53.8" font-family="Helvetica,sans-Serif" font-size="9.00">CASTVisitorAntLR.visitParserRuleSpec</text>
</a>
</g>
</g>
<!-- Node8&#45;&gt;Node10 -->
<g id="edge3" class="edge"><title>Node8&#45;&gt;Node10</title>
<path fill="none" stroke="midnightblue" d="M286.377,-61C294.85,-61 303.544,-61 312.17,-61"/>
<polygon fill="midnightblue" stroke="midnightblue" points="286.173,-57.5001 276.173,-61 286.173,-64.5001 286.173,-57.5001"/>
</g>
<!-- Node11 -->
<g id="node5" class="node"><title>Node11</title>
<g id="a_node5"><a xlink:href="../../d6/da3/classde_1_1flashpixx_1_1rrd__antlr4_1_1antlr_1_1CASTVisitorAntLR.html#a3001276765ec297b9e776a1f2445e522" target="_top" xlink:title="de.flashpixx.rrd_antlr4.antlr.\lCASTVisitorAntLR.visitLexerRuleSpec">
<polygon fill="none" stroke="black" points="314.5,-0 314.5,-28 487.5,-28 487.5,-0 314.5,-0"/>
<text text-anchor="start" x="322.5" y="-16.8" font-family="Helvetica,sans-Serif" font-size="9.00">de.flashpixx.rrd_antlr4.antlr.</text>
<text text-anchor="middle" x="401" y="-6.8" font-family="Helvetica,sans-Serif" font-size="9.00">CASTVisitorAntLR.visitLexerRuleSpec</text>
</a>
</g>
</g>
<!-- Node8&#45;&gt;Node11 -->
<g id="edge4" class="edge"><title>Node8&#45;&gt;Node11</title>
<path fill="none" stroke="midnightblue" d="M277.868,-44.533C299.388,-39.1531 323.074,-33.2315 343.813,-28.0467"/>
<polygon fill="midnightblue" stroke="midnightblue" points="277.004,-41.1412 268.152,-46.9621 278.702,-47.9322 277.004,-41.1412"/>
</g>
</g>
</svg>
