<?xml version="1.0" encoding="UTF-8" standalone="no"?>
<!DOCTYPE svg PUBLIC "-//W3C//DTD SVG 1.1//EN"
 "http://www.w3.org/Graphics/SVG/1.1/DTD/svg11.dtd">
<!-- Generated by graphviz version 2.36.0 (20140111.2315)
 -->
<!-- Title: de.flashpixx.rrd_antlr4.CStringReplace.replaceAll Pages: 1 -->
<svg width="514pt" height="130pt"
 viewBox="0.00 0.00 514.00 130.00" xmlns="http://www.w3.org/2000/svg" xmlns:xlink="http://www.w3.org/1999/xlink">
<g id="graph0" class="graph" transform="scale(1 1) rotate(0) translate(4 126)">
<title>de.flashpixx.rrd_antlr4.CStringReplace.replaceAll</title>
<!-- Node21 -->
<g id="node1" class="node"><title>Node21</title>
<polygon fill="#bfbfbf" stroke="black" points="0.5,-47 0.5,-75 125.5,-75 125.5,-47 0.5,-47"/>
<text text-anchor="start" x="8.5" y="-63.8" font-family="Helvetica,sans-Serif" font-size="9.00">de.flashpixx.rrd_antlr4.</text>
<text text-anchor="middle" x="63" y="-53.8" font-family="Helvetica,sans-Serif" font-size="9.00">CStringReplace.replaceAll</text>
</g>
<!-- Node21&#45;&gt;Node21 -->
<g id="edge5" class="edge"><title>Node21&#45;&gt;Node21</title>
<path fill="none" stroke="midnightblue" d="M33.728,-85.1504C37.2371,-89.7489 46.9944,-93 63,-93 89.2656,-93 98.7048,-84.2448 91.3176,-75.1476"/>
<polygon fill="midnightblue" stroke="midnightblue" points="37.2167,-85.4348 34.6824,-75.1476 30.2483,-84.7699 37.2167,-85.4348"/>
</g>
<!-- Node22 -->
<g id="node2" class="node"><title>Node22</title>
<g id="a_node2"><a xlink:href="../../d0/db6/classde_1_1flashpixx_1_1rrd__antlr4_1_1antlr_1_1CCommon.html#a046543cf95af34fb6ec4c2ccec471322" target="_top" xlink:title="cleanup comment from doxygen structure ">
<polygon fill="none" stroke="black" points="162,-47 162,-75 292,-75 292,-47 162,-47"/>
<text text-anchor="start" x="170" y="-63.8" font-family="Helvetica,sans-Serif" font-size="9.00">de.flashpixx.rrd_antlr4.antlr.</text>
<text text-anchor="middle" x="227" y="-53.8" font-family="Helvetica,sans-Serif" font-size="9.00">CCommon.cleanComment</text>
</a>
</g>
</g>
<!-- Node21&#45;&gt;Node22 -->
<g id="edge1" class="edge"><title>Node21&#45;&gt;Node22</title>
<path fill="none" stroke="midnightblue" d="M135.78,-61C144.436,-61 153.235,-61 161.773,-61"/>
<polygon fill="midnightblue" stroke="midnightblue" points="135.707,-57.5001 125.707,-61 135.707,-64.5001 135.707,-57.5001"/>
</g>
<!-- Node23 -->
<g id="node3" class="node"><title>Node23</title>
<g id="a_node3"><a xlink:href="../../d6/da3/classde_1_1flashpixx_1_1rrd__antlr4_1_1antlr_1_1CASTVisitorAntLR.html#a48686dd838370435e16abb39f3a51da1" target="_top" xlink:title="de.flashpixx.rrd_antlr4.antlr.\lCASTVisitorAntLR.visitGrammarSpec">
<polygon fill="none" stroke="black" points="332.5,-94 332.5,-122 501.5,-122 501.5,-94 332.5,-94"/>
<text text-anchor="start" x="340.5" y="-110.8" font-family="Helvetica,sans-Serif" font-size="9.00">de.flashpixx.rrd_antlr4.antlr.</text>
<text text-anchor="middle" x="417" y="-100.8" font-family="Helvetica,sans-Serif" font-size="9.00">CASTVisitorAntLR.visitGrammarSpec</text>
</a>
</g>
</g>
<!-- Node22&#45;&gt;Node23 -->
<g id="edge2" class="edge"><title>Node22&#45;&gt;Node23</title>
<path fill="none" stroke="midnightblue" d="M293.868,-77.467C315.388,-82.8469 339.074,-88.7685 359.813,-93.9533"/>
<polygon fill="midnightblue" stroke="midnightblue" points="294.702,-74.0678 284.152,-75.0379 293.004,-80.8588 294.702,-74.0678"/>
</g>
<!-- Node24 -->
<g id="node4" class="node"><title>Node24</title>
<g id="a_node4"><a xlink:href="../../d6/da3/classde_1_1flashpixx_1_1rrd__antlr4_1_1antlr_1_1CASTVisitorAntLR.html#af09827c856efc9b8ba62a94af7795208" target="_top" xlink:title="de.flashpixx.rrd_antlr4.antlr.\lCASTVisitorAntLR.visitParserRuleSpec">
<polygon fill="none" stroke="black" points="328.5,-47 328.5,-75 505.5,-75 505.5,-47 328.5,-47"/>
<text text-anchor="start" x="336.5" y="-63.8" font-family="Helvetica,sans-Serif" font-size="9.00">de.flashpixx.rrd_antlr4.antlr.</text>
<text text-anchor="middle" x="417" y="-53.8" font-family="Helvetica,sans-Serif" font-size="9.00">CASTVisitorAntLR.visitParserRuleSpec</text>
</a>
</g>
</g>
<!-- Node22&#45;&gt;Node24 -->
<g id="edge3" class="edge"><title>Node22&#45;&gt;Node24</title>
<path fill="none" stroke="midnightblue" d="M302.377,-61C310.85,-61 319.544,-61 328.17,-61"/>
<polygon fill="midnightblue" stroke="midnightblue" points="302.173,-57.5001 292.173,-61 302.173,-64.5001 302.173,-57.5001"/>
</g>
<!-- Node25 -->
<g id="node5" class="node"><title>Node25</title>
<g id="a_node5"><a xlink:href="../../d6/da3/classde_1_1flashpixx_1_1rrd__antlr4_1_1antlr_1_1CASTVisitorAntLR.html#a3001276765ec297b9e776a1f2445e522" target="_top" xlink:title="de.flashpixx.rrd_antlr4.antlr.\lCASTVisitorAntLR.visitLexerRuleSpec">
<polygon fill="none" stroke="black" points="330.5,-0 330.5,-28 503.5,-28 503.5,-0 330.5,-0"/>
<text text-anchor="start" x="338.5" y="-16.8" font-family="Helvetica,sans-Serif" font-size="9.00">de.flashpixx.rrd_antlr4.antlr.</text>
<text text-anchor="middle" x="417" y="-6.8" font-family="Helvetica,sans-Serif" font-size="9.00">CASTVisitorAntLR.visitLexerRuleSpec</text>
</a>
</g>
</g>
<!-- Node22&#45;&gt;Node25 -->
<g id="edge4" class="edge"><title>Node22&#45;&gt;Node25</title>
<path fill="none" stroke="midnightblue" d="M293.868,-44.533C315.388,-39.1531 339.074,-33.2315 359.813,-28.0467"/>
<polygon fill="midnightblue" stroke="midnightblue" points="293.004,-41.1412 284.152,-46.9621 294.702,-47.9322 293.004,-41.1412"/>
</g>
</g>
</svg>
