<?xml version="1.0" encoding="UTF-8" standalone="no"?>
<!DOCTYPE svg PUBLIC "-//W3C//DTD SVG 1.1//EN"
 "http://www.w3.org/Graphics/SVG/1.1/DTD/svg11.dtd">
<!-- Generated by graphviz version 2.36.0 (20140111.2315)
 -->
<!-- Title: de.flashpixx.rrd_antlr4.antlr.CGrammarSequence Pages: 1 -->
<svg width="289pt" height="480pt"
 viewBox="0.00 0.00 289.00 480.00" xmlns="http://www.w3.org/2000/svg" xmlns:xlink="http://www.w3.org/1999/xlink">
<g id="graph0" class="graph" transform="scale(1 1) rotate(0) translate(4 476)">
<title>de.flashpixx.rrd_antlr4.antlr.CGrammarSequence</title>
<!-- Node0 -->
<g id="node1" class="node"><title>Node0</title>
<polygon fill="#bfbfbf" stroke="black" points="76,-1 76,-95 206,-95 206,-1 76,-1"/>
<text text-anchor="start" x="84" y="-83.8" font-family="Helvetica,sans-Serif" font-size="9.00">de.flashpixx.rrd_antlr4.antlr.</text>
<text text-anchor="middle" x="141" y="-73.8" font-family="Helvetica,sans-Serif" font-size="9.00">CGrammarSequence</text>
<polyline fill="none" stroke="black" points="76,-67 206,-67 "/>
<text text-anchor="middle" x="141" y="-55.8" font-family="Helvetica,sans-Serif" font-size="9.00"> </text>
<polyline fill="none" stroke="black" points="76,-49 206,-49 "/>
<text text-anchor="start" x="84" y="-37.8" font-family="Helvetica,sans-Serif" font-size="9.00">+ CGrammarSequence()</text>
<text text-anchor="start" x="84" y="-27.8" font-family="Helvetica,sans-Serif" font-size="9.00">+ CGrammarSequence()</text>
<text text-anchor="start" x="84" y="-17.8" font-family="Helvetica,sans-Serif" font-size="9.00">+ CGrammarSequence()</text>
<text text-anchor="start" x="84" y="-7.8" font-family="Helvetica,sans-Serif" font-size="9.00">+ toString()</text>
</g>
<!-- Node1 -->
<g id="node2" class="node"><title>Node1</title>
<g id="a_node2"><a xlink:href="../../d1/de6/classde_1_1flashpixx_1_1rrd__antlr4_1_1antlr_1_1IGrammarBaseCollection.html" target="_top" xlink:title="abstract class for collection ">
<polygon fill="none" stroke="black" points="-0.5,-133 -0.5,-257 132.5,-257 132.5,-133 -0.5,-133"/>
<text text-anchor="start" x="7.5" y="-245.8" font-family="Helvetica,sans-Serif" font-size="9.00">de.flashpixx.rrd_antlr4.antlr.</text>
<text text-anchor="middle" x="66" y="-235.8" font-family="Helvetica,sans-Serif" font-size="9.00">IGrammarBaseCollection</text>
<polyline fill="none" stroke="black" points="-0.5,-229 132.5,-229 "/>
<text text-anchor="start" x="7.5" y="-217.8" font-family="Helvetica,sans-Serif" font-size="9.00"># m_cardinality</text>
<text text-anchor="start" x="7.5" y="-207.8" font-family="Helvetica,sans-Serif" font-size="9.00"># m_data</text>
<polyline fill="none" stroke="black" points="-0.5,-201 132.5,-201 "/>
<text text-anchor="start" x="7.5" y="-189.8" font-family="Helvetica,sans-Serif" font-size="9.00">+ cardinality()</text>
<text text-anchor="start" x="7.5" y="-179.8" font-family="Helvetica,sans-Serif" font-size="9.00">+ cardinality()</text>
<text text-anchor="start" x="7.5" y="-169.8" font-family="Helvetica,sans-Serif" font-size="9.00">+ equals()</text>
<text text-anchor="start" x="7.5" y="-159.8" font-family="Helvetica,sans-Serif" font-size="9.00">+ get()</text>
<text text-anchor="start" x="7.5" y="-149.8" font-family="Helvetica,sans-Serif" font-size="9.00">+ hashCode()</text>
<text text-anchor="start" x="7.5" y="-139.8" font-family="Helvetica,sans-Serif" font-size="9.00"># IGrammarBaseCollection()</text>
</a>
</g>
</g>
<!-- Node1&#45;&gt;Node0 -->
<g id="edge1" class="edge"><title>Node1&#45;&gt;Node0</title>
<path fill="none" stroke="midnightblue" d="M102.236,-123.944C107.316,-114.121 112.428,-104.239 117.197,-95.019"/>
<polygon fill="none" stroke="midnightblue" points="99.0749,-122.437 97.5894,-132.927 105.292,-125.653 99.0749,-122.437"/>
</g>
<!-- Node2 -->
<g id="node3" class="node"><title>Node2</title>
<g id="a_node3"><a xlink:href="../../da/dbc/interfacede_1_1flashpixx_1_1rrd__antlr4_1_1antlr_1_1IGrammarCollection.html" target="_top" xlink:title="interface of grammar collection elements ">
<polygon fill="none" stroke="black" points="76,-295 76,-359 206,-359 206,-295 76,-295"/>
<text text-anchor="start" x="84" y="-347.8" font-family="Helvetica,sans-Serif" font-size="9.00">de.flashpixx.rrd_antlr4.antlr.</text>
<text text-anchor="middle" x="141" y="-337.8" font-family="Helvetica,sans-Serif" font-size="9.00">IGrammarCollection</text>
<polyline fill="none" stroke="black" points="76,-331 206,-331 "/>
<text text-anchor="middle" x="141" y="-319.8" font-family="Helvetica,sans-Serif" font-size="9.00"> </text>
<polyline fill="none" stroke="black" points="76,-313 206,-313 "/>
<text text-anchor="start" x="84" y="-301.8" font-family="Helvetica,sans-Serif" font-size="9.00">+ get()</text>
</a>
</g>
</g>
<!-- Node2&#45;&gt;Node1 -->
<g id="edge2" class="edge"><title>Node2&#45;&gt;Node1</title>
<path fill="none" stroke="midnightblue" d="M117.94,-286.03C112.677,-276.906 106.965,-267.006 101.32,-257.221"/>
<polygon fill="none" stroke="midnightblue" points="115.007,-287.949 123.036,-294.862 121.07,-284.451 115.007,-287.949"/>
</g>
<!-- Node4 -->
<g id="node5" class="node"><title>Node4</title>
<g id="a_node5"><a xlink:href="../../d8/d61/interfacede_1_1flashpixx_1_1rrd__antlr4_1_1antlr_1_1IGrammarSequence.html" target="_top" xlink:title="grammar element sequence ">
<polygon fill="none" stroke="black" points="151,-163 151,-227 281,-227 281,-163 151,-163"/>
<text text-anchor="start" x="159" y="-215.8" font-family="Helvetica,sans-Serif" font-size="9.00">de.flashpixx.rrd_antlr4.antlr.</text>
<text text-anchor="middle" x="216" y="-205.8" font-family="Helvetica,sans-Serif" font-size="9.00">IGrammarSequence</text>
<polyline fill="none" stroke="black" points="151,-199 281,-199 "/>
<text text-anchor="middle" x="216" y="-187.8" font-family="Helvetica,sans-Serif" font-size="9.00"> </text>
<polyline fill="none" stroke="black" points="151,-181 281,-181 "/>
<text text-anchor="middle" x="216" y="-169.8" font-family="Helvetica,sans-Serif" font-size="9.00"> </text>
</a>
</g>
</g>
<!-- Node2&#45;&gt;Node4 -->
<g id="edge5" class="edge"><title>Node2&#45;&gt;Node4</title>
<path fill="none" stroke="midnightblue" d="M163.981,-286.166C174.886,-267.265 187.727,-245.007 197.922,-227.335"/>
<polygon fill="none" stroke="midnightblue" points="160.93,-284.451 158.964,-294.862 166.993,-287.949 160.93,-284.451"/>
</g>
<!-- Node3 -->
<g id="node4" class="node"><title>Node3</title>
<g id="a_node4"><a xlink:href="../../dd/da7/interfacede_1_1flashpixx_1_1rrd__antlr4_1_1antlr_1_1IGrammarElement.html" target="_top" xlink:title="any grammar element ">
<polygon fill="none" stroke="black" points="76,-397 76,-471 206,-471 206,-397 76,-397"/>
<text text-anchor="start" x="84" y="-459.8" font-family="Helvetica,sans-Serif" font-size="9.00">de.flashpixx.rrd_antlr4.antlr.</text>
<text text-anchor="middle" x="141" y="-449.8" font-family="Helvetica,sans-Serif" font-size="9.00">IGrammarElement</text>
<polyline fill="none" stroke="black" points="76,-443 206,-443 "/>
<text text-anchor="middle" x="141" y="-431.8" font-family="Helvetica,sans-Serif" font-size="9.00"> </text>
<polyline fill="none" stroke="black" points="76,-425 206,-425 "/>
<text text-anchor="start" x="84" y="-413.8" font-family="Helvetica,sans-Serif" font-size="9.00">+ cardinality()</text>
<text text-anchor="start" x="84" y="-403.8" font-family="Helvetica,sans-Serif" font-size="9.00">+ cardinality()</text>
</a>
</g>
</g>
<!-- Node3&#45;&gt;Node2 -->
<g id="edge3" class="edge"><title>Node3&#45;&gt;Node2</title>
<path fill="none" stroke="midnightblue" d="M141,-386.608C141,-377.372 141,-367.88 141,-359.297"/>
<polygon fill="none" stroke="midnightblue" points="137.5,-386.865 141,-396.865 144.5,-386.865 137.5,-386.865"/>
</g>
<!-- Node4&#45;&gt;Node0 -->
<g id="edge4" class="edge"><title>Node4&#45;&gt;Node0</title>
<path fill="none" stroke="midnightblue" d="M195.175,-153.738C185.781,-135.576 174.633,-114.024 164.9,-95.2067"/>
<polygon fill="none" stroke="midnightblue" points="192.208,-155.62 199.911,-162.894 198.425,-152.404 192.208,-155.62"/>
</g>
</g>
</svg>
