<?xml version="1.0" encoding="UTF-8" standalone="no"?>
<!DOCTYPE svg PUBLIC "-//W3C//DTD SVG 1.1//EN"
 "http://www.w3.org/Graphics/SVG/1.1/DTD/svg11.dtd">
<!-- Generated by graphviz version 2.36.0 (20140111.2315)
 -->
<!-- Title: de.flashpixx.rrd_antlr4.antlr.CGrammarRule Pages: 1 -->
<svg width="138pt" height="500pt"
 viewBox="0.00 0.00 138.00 500.00" xmlns="http://www.w3.org/2000/svg" xmlns:xlink="http://www.w3.org/1999/xlink">
<g id="graph0" class="graph" transform="scale(1 1) rotate(0) translate(4 496)">
<title>de.flashpixx.rrd_antlr4.antlr.CGrammarRule</title>
<!-- Node0 -->
<g id="node1" class="node"><title>Node0</title>
<polygon fill="#bfbfbf" stroke="black" points="0,-1 0,-165 130,-165 130,-1 0,-1"/>
<text text-anchor="start" x="8" y="-153.8" font-family="Helvetica,sans-Serif" font-size="9.00">de.flashpixx.rrd_antlr4.antlr.</text>
<text text-anchor="middle" x="65" y="-143.8" font-family="Helvetica,sans-Serif" font-size="9.00">CGrammarRule</text>
<polyline fill="none" stroke="black" points="0,-137 130,-137 "/>
<text text-anchor="start" x="8" y="-125.8" font-family="Helvetica,sans-Serif" font-size="9.00">&#45; m_documentation</text>
<text text-anchor="start" x="8" y="-115.8" font-family="Helvetica,sans-Serif" font-size="9.00">&#45; m_element</text>
<text text-anchor="start" x="8" y="-105.8" font-family="Helvetica,sans-Serif" font-size="9.00">&#45; m_id</text>
<polyline fill="none" stroke="black" points="0,-99 130,-99 "/>
<text text-anchor="start" x="8" y="-87.8" font-family="Helvetica,sans-Serif" font-size="9.00">+ CGrammarRule()</text>
<text text-anchor="start" x="8" y="-77.8" font-family="Helvetica,sans-Serif" font-size="9.00">+ cardinality()</text>
<text text-anchor="start" x="8" y="-67.8" font-family="Helvetica,sans-Serif" font-size="9.00">+ cardinality()</text>
<text text-anchor="start" x="8" y="-57.8" font-family="Helvetica,sans-Serif" font-size="9.00">+ children()</text>
<text text-anchor="start" x="8" y="-47.8" font-family="Helvetica,sans-Serif" font-size="9.00">+ documentation()</text>
<text text-anchor="start" x="8" y="-37.8" font-family="Helvetica,sans-Serif" font-size="9.00">+ equals()</text>
<text text-anchor="start" x="8" y="-27.8" font-family="Helvetica,sans-Serif" font-size="9.00">+ hashCode()</text>
<text text-anchor="start" x="8" y="-17.8" font-family="Helvetica,sans-Serif" font-size="9.00">+ id()</text>
<text text-anchor="start" x="8" y="-7.8" font-family="Helvetica,sans-Serif" font-size="9.00">+ toString()</text>
</g>
<!-- Node1 -->
<g id="node2" class="node"><title>Node1</title>
<g id="a_node2"><a xlink:href="../../d3/d53/interfacede_1_1flashpixx_1_1rrd__antlr4_1_1antlr_1_1IGrammarRule.html" target="_top" xlink:title="interface for a grammar rule ">
<polygon fill="none" stroke="black" points="0,-203 0,-267 130,-267 130,-203 0,-203"/>
<text text-anchor="start" x="8" y="-255.8" font-family="Helvetica,sans-Serif" font-size="9.00">de.flashpixx.rrd_antlr4.antlr.</text>
<text text-anchor="middle" x="65" y="-245.8" font-family="Helvetica,sans-Serif" font-size="9.00">IGrammarRule</text>
<polyline fill="none" stroke="black" points="0,-239 130,-239 "/>
<text text-anchor="middle" x="65" y="-227.8" font-family="Helvetica,sans-Serif" font-size="9.00"> </text>
<polyline fill="none" stroke="black" points="0,-221 130,-221 "/>
<text text-anchor="start" x="8" y="-209.8" font-family="Helvetica,sans-Serif" font-size="9.00">+ children()</text>
</a>
</g>
</g>
<!-- Node1&#45;&gt;Node0 -->
<g id="edge1" class="edge"><title>Node1&#45;&gt;Node0</title>
<path fill="none" stroke="midnightblue" d="M65,-192.786C65,-184.136 65,-174.727 65,-165.184"/>
<polygon fill="none" stroke="midnightblue" points="61.5001,-192.92 65,-202.92 68.5001,-192.92 61.5001,-192.92"/>
</g>
<!-- Node2 -->
<g id="node3" class="node"><title>Node2</title>
<g id="a_node3"><a xlink:href="../../df/ddb/interfacede_1_1flashpixx_1_1rrd__antlr4_1_1antlr_1_1IGrammarComplexElement.html" target="_top" xlink:title="base interface of a complex grammar element ">
<polygon fill="none" stroke="black" points="0,-305 0,-379 130,-379 130,-305 0,-305"/>
<text text-anchor="start" x="8" y="-367.8" font-family="Helvetica,sans-Serif" font-size="9.00">de.flashpixx.rrd_antlr4.antlr.</text>
<text text-anchor="middle" x="65" y="-357.8" font-family="Helvetica,sans-Serif" font-size="9.00">IGrammarComplexElement</text>
<polyline fill="none" stroke="black" points="0,-351 130,-351 "/>
<text text-anchor="middle" x="65" y="-339.8" font-family="Helvetica,sans-Serif" font-size="9.00"> </text>
<polyline fill="none" stroke="black" points="0,-333 130,-333 "/>
<text text-anchor="start" x="8" y="-321.8" font-family="Helvetica,sans-Serif" font-size="9.00">+ documentation()</text>
<text text-anchor="start" x="8" y="-311.8" font-family="Helvetica,sans-Serif" font-size="9.00">+ id()</text>
</a>
</g>
</g>
<!-- Node2&#45;&gt;Node1 -->
<g id="edge2" class="edge"><title>Node2&#45;&gt;Node1</title>
<path fill="none" stroke="midnightblue" d="M65,-294.608C65,-285.372 65,-275.88 65,-267.297"/>
<polygon fill="none" stroke="midnightblue" points="61.5001,-294.865 65,-304.865 68.5001,-294.865 61.5001,-294.865"/>
</g>
<!-- Node3 -->
<g id="node4" class="node"><title>Node3</title>
<g id="a_node4"><a xlink:href="../../dd/da7/interfacede_1_1flashpixx_1_1rrd__antlr4_1_1antlr_1_1IGrammarElement.html" target="_top" xlink:title="any grammar element ">
<polygon fill="none" stroke="black" points="0,-417 0,-491 130,-491 130,-417 0,-417"/>
<text text-anchor="start" x="8" y="-479.8" font-family="Helvetica,sans-Serif" font-size="9.00">de.flashpixx.rrd_antlr4.antlr.</text>
<text text-anchor="middle" x="65" y="-469.8" font-family="Helvetica,sans-Serif" font-size="9.00">IGrammarElement</text>
<polyline fill="none" stroke="black" points="0,-463 130,-463 "/>
<text text-anchor="middle" x="65" y="-451.8" font-family="Helvetica,sans-Serif" font-size="9.00"> </text>
<polyline fill="none" stroke="black" points="0,-445 130,-445 "/>
<text text-anchor="start" x="8" y="-433.8" font-family="Helvetica,sans-Serif" font-size="9.00">+ cardinality()</text>
<text text-anchor="start" x="8" y="-423.8" font-family="Helvetica,sans-Serif" font-size="9.00">+ cardinality()</text>
</a>
</g>
</g>
<!-- Node3&#45;&gt;Node2 -->
<g id="edge3" class="edge"><title>Node3&#45;&gt;Node2</title>
<path fill="none" stroke="midnightblue" d="M65,-406.752C65,-397.513 65,-387.935 65,-379.099"/>
<polygon fill="none" stroke="midnightblue" points="61.5001,-406.982 65,-416.982 68.5001,-406.982 61.5001,-406.982"/>
</g>
</g>
</svg>
