<?xml version="1.0" encoding="UTF-8" standalone="no"?>
<!DOCTYPE svg PUBLIC "-//W3C//DTD SVG 1.1//EN"
 "http://www.w3.org/Graphics/SVG/1.1/DTD/svg11.dtd">
<!-- Generated by graphviz version 2.36.0 (20140111.2315)
 -->
<!-- Title: de.flashpixx.rrd_antlr4.antlr.CGrammarTerminalValue&lt; T &gt; Pages: 1 -->
<svg width="168pt" height="708pt"
 viewBox="0.00 0.00 168.00 708.00" xmlns="http://www.w3.org/2000/svg" xmlns:xlink="http://www.w3.org/1999/xlink">
<g id="graph0" class="graph" transform="scale(1 1) rotate(0) translate(4 704)">
<title>de.flashpixx.rrd_antlr4.antlr.CGrammarTerminalValue&lt; T &gt;</title>
<!-- Node0 -->
<g id="node1" class="node"><title>Node0</title>
<polygon fill="#bfbfbf" stroke="black" points="9,-307 9,-461 151,-461 151,-307 9,-307"/>
<text text-anchor="start" x="17" y="-449.8" font-family="Helvetica,sans-Serif" font-size="9.00">de.flashpixx.rrd_antlr4.antlr.</text>
<text text-anchor="middle" x="80" y="-439.8" font-family="Helvetica,sans-Serif" font-size="9.00">CGrammarTerminalValue&lt; T &gt;</text>
<polyline fill="none" stroke="black" points="9,-433 151,-433 "/>
<text text-anchor="start" x="17" y="-421.8" font-family="Helvetica,sans-Serif" font-size="9.00">&#45; m_cardinality</text>
<text text-anchor="start" x="17" y="-411.8" font-family="Helvetica,sans-Serif" font-size="9.00">&#45; m_value</text>
<polyline fill="none" stroke="black" points="9,-405 151,-405 "/>
<text text-anchor="start" x="17" y="-393.8" font-family="Helvetica,sans-Serif" font-size="9.00">+ CGrammarTerminalValue()</text>
<text text-anchor="start" x="17" y="-383.8" font-family="Helvetica,sans-Serif" font-size="9.00">+ CGrammarTerminalValue()</text>
<text text-anchor="start" x="17" y="-373.8" font-family="Helvetica,sans-Serif" font-size="9.00">+ cardinality()</text>
<text text-anchor="start" x="17" y="-363.8" font-family="Helvetica,sans-Serif" font-size="9.00">+ cardinality()</text>
<text text-anchor="start" x="17" y="-353.8" font-family="Helvetica,sans-Serif" font-size="9.00">+ equals()</text>
<text text-anchor="start" x="17" y="-343.8" font-family="Helvetica,sans-Serif" font-size="9.00">+ get()</text>
<text text-anchor="start" x="17" y="-333.8" font-family="Helvetica,sans-Serif" font-size="9.00">+ hashCode()</text>
<text text-anchor="start" x="17" y="-323.8" font-family="Helvetica,sans-Serif" font-size="9.00">+ isValueAssignableTo()</text>
<text text-anchor="start" x="17" y="-313.8" font-family="Helvetica,sans-Serif" font-size="9.00">+ toString()</text>
</g>
<!-- Node3 -->
<g id="node4" class="node"><title>Node3</title>
<g id="a_node4"><a xlink:href="../../df/dba/classde_1_1flashpixx_1_1rrd__antlr4_1_1antlr_1_1CGrammarTerminalValue.html" target="_top" xlink:title="{de.flashpixx.rrd_antlr4.antlr.\lCGrammarTerminalValue\&lt; String \&gt;\n|&#45; m_cardinality\l&#45; m_value\l|+ CGrammarTerminalValue()\l+ CGrammarTerminalValue()\l+ cardinality()\l+ cardinality()\l+ equals()\l+ get()\l+ hashCode()\l+ isValueAssignableTo()\l+ toString()\l}">
<polygon fill="none" stroke="black" points="-0.5,-105 -0.5,-259 160.5,-259 160.5,-105 -0.5,-105"/>
<text text-anchor="start" x="7.5" y="-247.8" font-family="Helvetica,sans-Serif" font-size="9.00">de.flashpixx.rrd_antlr4.antlr.</text>
<text text-anchor="middle" x="80" y="-237.8" font-family="Helvetica,sans-Serif" font-size="9.00">CGrammarTerminalValue&lt; String &gt;</text>
<polyline fill="none" stroke="black" points="-0.5,-231 160.5,-231 "/>
<text text-anchor="start" x="7.5" y="-219.8" font-family="Helvetica,sans-Serif" font-size="9.00">&#45; m_cardinality</text>
<text text-anchor="start" x="7.5" y="-209.8" font-family="Helvetica,sans-Serif" font-size="9.00">&#45; m_value</text>
<polyline fill="none" stroke="black" points="-0.5,-203 160.5,-203 "/>
<text text-anchor="start" x="7.5" y="-191.8" font-family="Helvetica,sans-Serif" font-size="9.00">+ CGrammarTerminalValue()</text>
<text text-anchor="start" x="7.5" y="-181.8" font-family="Helvetica,sans-Serif" font-size="9.00">+ CGrammarTerminalValue()</text>
<text text-anchor="start" x="7.5" y="-171.8" font-family="Helvetica,sans-Serif" font-size="9.00">+ cardinality()</text>
<text text-anchor="start" x="7.5" y="-161.8" font-family="Helvetica,sans-Serif" font-size="9.00">+ cardinality()</text>
<text text-anchor="start" x="7.5" y="-151.8" font-family="Helvetica,sans-Serif" font-size="9.00">+ equals()</text>
<text text-anchor="start" x="7.5" y="-141.8" font-family="Helvetica,sans-Serif" font-size="9.00">+ get()</text>
<text text-anchor="start" x="7.5" y="-131.8" font-family="Helvetica,sans-Serif" font-size="9.00">+ hashCode()</text>
<text text-anchor="start" x="7.5" y="-121.8" font-family="Helvetica,sans-Serif" font-size="9.00">+ isValueAssignableTo()</text>
<text text-anchor="start" x="7.5" y="-111.8" font-family="Helvetica,sans-Serif" font-size="9.00">+ toString()</text>
</a>
</g>
</g>
<!-- Node0&#45;&gt;Node3 -->
<g id="edge3" class="edge"><title>Node0&#45;&gt;Node3</title>
<path fill="none" stroke="orange" d="M80,-296.503C80,-284.125 80,-271.465 80,-259.301"/>
<polygon fill="orange" stroke="orange" points="76.5001,-296.818 80,-306.818 83.5001,-296.818 76.5001,-296.818"/>
<text text-anchor="middle" x="101" y="-280.8" font-family="Helvetica,sans-Serif" font-size="9.00"> &lt; String &gt;</text>
</g>
<!-- Node1 -->
<g id="node2" class="node"><title>Node1</title>
<g id="a_node2"><a xlink:href="../../dd/d41/interfacede_1_1flashpixx_1_1rrd__antlr4_1_1antlr_1_1IGrammarSimpleElement.html" target="_top" xlink:title="a simple grammar element ">
<polygon fill="none" stroke="black" points="9.5,-501 9.5,-585 150.5,-585 150.5,-501 9.5,-501"/>
<text text-anchor="start" x="17.5" y="-573.8" font-family="Helvetica,sans-Serif" font-size="9.00">de::flashpixx::rrd</text>
<text text-anchor="start" x="17.5" y="-563.8" font-family="Helvetica,sans-Serif" font-size="9.00">_antlr4::antlr::IGrammarSimple</text>
<text text-anchor="middle" x="80" y="-553.8" font-family="Helvetica,sans-Serif" font-size="9.00">Element&lt; T &gt;</text>
<polyline fill="none" stroke="black" points="9.5,-547 150.5,-547 "/>
<text text-anchor="middle" x="80" y="-535.8" font-family="Helvetica,sans-Serif" font-size="9.00"> </text>
<polyline fill="none" stroke="black" points="9.5,-529 150.5,-529 "/>
<text text-anchor="start" x="17.5" y="-517.8" font-family="Helvetica,sans-Serif" font-size="9.00">+ get()</text>
<text text-anchor="start" x="17.5" y="-507.8" font-family="Helvetica,sans-Serif" font-size="9.00">+ isValueAssignableTo()</text>
</a>
</g>
</g>
<!-- Node1&#45;&gt;Node0 -->
<g id="edge1" class="edge"><title>Node1&#45;&gt;Node0</title>
<path fill="none" stroke="midnightblue" d="M80,-490.448C80,-481.074 80,-471.116 80,-461.208"/>
<polygon fill="none" stroke="midnightblue" points="76.5001,-490.75 80,-500.75 83.5001,-490.75 76.5001,-490.75"/>
</g>
<!-- Node2 -->
<g id="node3" class="node"><title>Node2</title>
<g id="a_node3"><a xlink:href="../../dd/da7/interfacede_1_1flashpixx_1_1rrd__antlr4_1_1antlr_1_1IGrammarElement.html" target="_top" xlink:title="any grammar element ">
<polygon fill="none" stroke="black" points="15,-625 15,-699 145,-699 145,-625 15,-625"/>
<text text-anchor="start" x="23" y="-687.8" font-family="Helvetica,sans-Serif" font-size="9.00">de.flashpixx.rrd_antlr4.antlr.</text>
<text text-anchor="middle" x="80" y="-677.8" font-family="Helvetica,sans-Serif" font-size="9.00">IGrammarElement</text>
<polyline fill="none" stroke="black" points="15,-671 145,-671 "/>
<text text-anchor="middle" x="80" y="-659.8" font-family="Helvetica,sans-Serif" font-size="9.00"> </text>
<polyline fill="none" stroke="black" points="15,-653 145,-653 "/>
<text text-anchor="start" x="23" y="-641.8" font-family="Helvetica,sans-Serif" font-size="9.00">+ cardinality()</text>
<text text-anchor="start" x="23" y="-631.8" font-family="Helvetica,sans-Serif" font-size="9.00">+ cardinality()</text>
</a>
</g>
</g>
<!-- Node2&#45;&gt;Node1 -->
<g id="edge2" class="edge"><title>Node2&#45;&gt;Node1</title>
<path fill="none" stroke="midnightblue" d="M80,-614.901C80,-605.047 80,-594.701 80,-585.052"/>
<polygon fill="none" stroke="midnightblue" points="76.5001,-614.941 80,-624.941 83.5001,-614.941 76.5001,-614.941"/>
</g>
<!-- Node4 -->
<g id="node5" class="node"><title>Node4</title>
<g id="a_node5"><a xlink:href="../../d0/dbc/classde_1_1flashpixx_1_1rrd__antlr4_1_1antlr_1_1CGrammarIdentifier.html" target="_top" xlink:title="identifier of a rule for referencing ">
<polygon fill="none" stroke="black" points="15,-1 15,-65 145,-65 145,-1 15,-1"/>
<text text-anchor="start" x="23" y="-53.8" font-family="Helvetica,sans-Serif" font-size="9.00">de.flashpixx.rrd_antlr4.antlr.</text>
<text text-anchor="middle" x="80" y="-43.8" font-family="Helvetica,sans-Serif" font-size="9.00">CGrammarIdentifier</text>
<polyline fill="none" stroke="black" points="15,-37 145,-37 "/>
<text text-anchor="middle" x="80" y="-25.8" font-family="Helvetica,sans-Serif" font-size="9.00"> </text>
<polyline fill="none" stroke="black" points="15,-19 145,-19 "/>
<text text-anchor="start" x="23" y="-7.8" font-family="Helvetica,sans-Serif" font-size="9.00">+ CGrammarIdentifier()</text>
</a>
</g>
</g>
<!-- Node3&#45;&gt;Node4 -->
<g id="edge4" class="edge"><title>Node3&#45;&gt;Node4</title>
<path fill="none" stroke="midnightblue" d="M80,-94.7874C80,-84.3062 80,-74.1806 80,-65.2986"/>
<polygon fill="none" stroke="midnightblue" points="76.5001,-94.9165 80,-104.916 83.5001,-94.9165 76.5001,-94.9165"/>
</g>
</g>
</svg>
