<?xml version="1.0" encoding="UTF-8" standalone="no"?>
<!DOCTYPE svg PUBLIC "-//W3C//DTD SVG 1.1//EN"
 "http://www.w3.org/Graphics/SVG/1.1/DTD/svg11.dtd">
<!-- Generated by graphviz version 2.36.0 (20140111.2315)
 -->
<!-- Title: de.flashpixx.rrd_antlr4.antlr.CGrammarNonTerminal Pages: 1 -->
<svg width="138pt" height="520pt"
 viewBox="0.00 0.00 138.00 520.00" xmlns="http://www.w3.org/2000/svg" xmlns:xlink="http://www.w3.org/1999/xlink">
<g id="graph0" class="graph" transform="scale(1 1) rotate(0) translate(4 516)">
<title>de.flashpixx.rrd_antlr4.antlr.CGrammarNonTerminal</title>
<!-- Node0 -->
<g id="node1" class="node"><title>Node0</title>
<polygon fill="#bfbfbf" stroke="black" points="0,-1 0,-185 130,-185 130,-1 0,-1"/>
<text text-anchor="start" x="8" y="-173.8" font-family="Helvetica,sans-Serif" font-size="9.00">de.flashpixx.rrd_antlr4.antlr.</text>
<text text-anchor="middle" x="65" y="-163.8" font-family="Helvetica,sans-Serif" font-size="9.00">CGrammarNonTerminal</text>
<polyline fill="none" stroke="black" points="0,-157 130,-157 "/>
<text text-anchor="start" x="8" y="-145.8" font-family="Helvetica,sans-Serif" font-size="9.00">&#45; m_cardinality</text>
<text text-anchor="start" x="8" y="-135.8" font-family="Helvetica,sans-Serif" font-size="9.00">&#45; m_documentation</text>
<text text-anchor="start" x="8" y="-125.8" font-family="Helvetica,sans-Serif" font-size="9.00">&#45; m_element</text>
<text text-anchor="start" x="8" y="-115.8" font-family="Helvetica,sans-Serif" font-size="9.00">&#45; m_id</text>
<polyline fill="none" stroke="black" points="0,-109 130,-109 "/>
<text text-anchor="start" x="8" y="-97.8" font-family="Helvetica,sans-Serif" font-size="9.00">+ CGrammarNonTerminal()</text>
<text text-anchor="start" x="8" y="-87.8" font-family="Helvetica,sans-Serif" font-size="9.00">+ CGrammarNonTerminal()</text>
<text text-anchor="start" x="8" y="-77.8" font-family="Helvetica,sans-Serif" font-size="9.00">+ cardinality()</text>
<text text-anchor="start" x="8" y="-67.8" font-family="Helvetica,sans-Serif" font-size="9.00">+ cardinality()</text>
<text text-anchor="start" x="8" y="-57.8" font-family="Helvetica,sans-Serif" font-size="9.00">+ children()</text>
<text text-anchor="start" x="8" y="-47.8" font-family="Helvetica,sans-Serif" font-size="9.00">+ documentation()</text>
<text text-anchor="start" x="8" y="-37.8" font-family="Helvetica,sans-Serif" font-size="9.00">+ equals()</text>
<text text-anchor="start" x="8" y="-27.8" font-family="Helvetica,sans-Serif" font-size="9.00">+ hashCode()</text>
<text text-anchor="start" x="8" y="-17.8" font-family="Helvetica,sans-Serif" font-size="9.00">+ id()</text>
<text text-anchor="start" x="8" y="-7.8" font-family="Helvetica,sans-Serif" font-size="9.00">+ toString()</text>
</g>
<!-- Node1 -->
<g id="node2" class="node"><title>Node1</title>
<g id="a_node2"><a xlink:href="../../da/d3c/interfacede_1_1flashpixx_1_1rrd__antlr4_1_1antlr_1_1IGrammarTerminal.html" target="_top" xlink:title="interface of grammar terminal ">
<polygon fill="none" stroke="black" points="0,-223 0,-287 130,-287 130,-223 0,-223"/>
<text text-anchor="start" x="8" y="-275.8" font-family="Helvetica,sans-Serif" font-size="9.00">de.flashpixx.rrd_antlr4.antlr.</text>
<text text-anchor="middle" x="65" y="-265.8" font-family="Helvetica,sans-Serif" font-size="9.00">IGrammarTerminal</text>
<polyline fill="none" stroke="black" points="0,-259 130,-259 "/>
<text text-anchor="middle" x="65" y="-247.8" font-family="Helvetica,sans-Serif" font-size="9.00"> </text>
<polyline fill="none" stroke="black" points="0,-241 130,-241 "/>
<text text-anchor="start" x="8" y="-229.8" font-family="Helvetica,sans-Serif" font-size="9.00">+ children()</text>
</a>
</g>
</g>
<!-- Node1&#45;&gt;Node0 -->
<g id="edge1" class="edge"><title>Node1&#45;&gt;Node0</title>
<path fill="none" stroke="midnightblue" d="M65,-212.68C65,-204.055 65,-194.64 65,-185.008"/>
<polygon fill="none" stroke="midnightblue" points="61.5001,-212.771 65,-222.771 68.5001,-212.771 61.5001,-212.771"/>
</g>
<!-- Node2 -->
<g id="node3" class="node"><title>Node2</title>
<g id="a_node3"><a xlink:href="../../df/ddb/interfacede_1_1flashpixx_1_1rrd__antlr4_1_1antlr_1_1IGrammarComplexElement.html" target="_top" xlink:title="base interface of a complex grammar element ">
<polygon fill="none" stroke="black" points="0,-325 0,-399 130,-399 130,-325 0,-325"/>
<text text-anchor="start" x="8" y="-387.8" font-family="Helvetica,sans-Serif" font-size="9.00">de.flashpixx.rrd_antlr4.antlr.</text>
<text text-anchor="middle" x="65" y="-377.8" font-family="Helvetica,sans-Serif" font-size="9.00">IGrammarComplexElement</text>
<polyline fill="none" stroke="black" points="0,-371 130,-371 "/>
<text text-anchor="middle" x="65" y="-359.8" font-family="Helvetica,sans-Serif" font-size="9.00"> </text>
<polyline fill="none" stroke="black" points="0,-353 130,-353 "/>
<text text-anchor="start" x="8" y="-341.8" font-family="Helvetica,sans-Serif" font-size="9.00">+ documentation()</text>
<text text-anchor="start" x="8" y="-331.8" font-family="Helvetica,sans-Serif" font-size="9.00">+ id()</text>
</a>
</g>
</g>
<!-- Node2&#45;&gt;Node1 -->
<g id="edge2" class="edge"><title>Node2&#45;&gt;Node1</title>
<path fill="none" stroke="midnightblue" d="M65,-314.608C65,-305.372 65,-295.88 65,-287.297"/>
<polygon fill="none" stroke="midnightblue" points="61.5001,-314.865 65,-324.865 68.5001,-314.865 61.5001,-314.865"/>
</g>
<!-- Node3 -->
<g id="node4" class="node"><title>Node3</title>
<g id="a_node4"><a xlink:href="../../dd/da7/interfacede_1_1flashpixx_1_1rrd__antlr4_1_1antlr_1_1IGrammarElement.html" target="_top" xlink:title="any grammar element ">
<polygon fill="none" stroke="black" points="0,-437 0,-511 130,-511 130,-437 0,-437"/>
<text text-anchor="start" x="8" y="-499.8" font-family="Helvetica,sans-Serif" font-size="9.00">de.flashpixx.rrd_antlr4.antlr.</text>
<text text-anchor="middle" x="65" y="-489.8" font-family="Helvetica,sans-Serif" font-size="9.00">IGrammarElement</text>
<polyline fill="none" stroke="black" points="0,-483 130,-483 "/>
<text text-anchor="middle" x="65" y="-471.8" font-family="Helvetica,sans-Serif" font-size="9.00"> </text>
<polyline fill="none" stroke="black" points="0,-465 130,-465 "/>
<text text-anchor="start" x="8" y="-453.8" font-family="Helvetica,sans-Serif" font-size="9.00">+ cardinality()</text>
<text text-anchor="start" x="8" y="-443.8" font-family="Helvetica,sans-Serif" font-size="9.00">+ cardinality()</text>
</a>
</g>
</g>
<!-- Node3&#45;&gt;Node2 -->
<g id="edge3" class="edge"><title>Node3&#45;&gt;Node2</title>
<path fill="none" stroke="midnightblue" d="M65,-426.752C65,-417.513 65,-407.935 65,-399.099"/>
<polygon fill="none" stroke="midnightblue" points="61.5001,-426.982 65,-436.982 68.5001,-426.982 61.5001,-426.982"/>
</g>
</g>
</svg>
