<?xml version="1.0" encoding="UTF-8" standalone="no"?>
<!DOCTYPE svg PUBLIC "-//W3C//DTD SVG 1.1//EN"
 "http://www.w3.org/Graphics/SVG/1.1/DTD/svg11.dtd">
<!-- Generated by graphviz version 2.36.0 (20140111.2315)
 -->
<!-- Title: de.flashpixx.rrd_antlr4.engine.template.CHTML.postprocess Pages: 1 -->
<!--zoomable 263 -->
<svg id="main" version="1.1" xmlns="http://www.w3.org/2000/svg" xmlns:xlink="http://www.w3.org/1999/xlink" xml:space="preserve" onload="init(evt)">
<style type="text/css"><![CDATA[
.edge:hover path { stroke: red; }
.edge:hover polygon { stroke: red; fill: red; }
]]></style>
<script type="text/javascript"><![CDATA[
var edges = document.getElementsByTagName('g');
if (edges && edges.length) {
  for (var i=0;i<edges.length;i++) {
    if (edges[i].id.substr(0,4)=='edge') {
      edges[i].setAttribute('class','edge');
    }
  }
}
]]></script>
        <defs>
                <circle id="rim" cx="0" cy="0" r="7"/>
                <circle id="rim2" cx="0" cy="0" r="3.5"/>
                <g id="zoomPlus">
                        <use xlink:href="#rim" fill="#404040">
                                <set attributeName="fill" to="#808080" begin="zoomplus.mouseover" end="zoomplus.mouseout"/>
                        </use>
                        <path d="M-4,0h8M0,-4v8" fill="none" stroke="white" stroke-width="1.5" pointer-events="none"/>
                </g>
                <g id="zoomMin">
                        <use xlink:href="#rim" fill="#404040">
                                <set attributeName="fill" to="#808080" begin="zoomminus.mouseover" end="zoomminus.mouseout"/>
                        </use>
                        <path d="M-4,0h8" fill="none" stroke="white" stroke-width="1.5" pointer-events="none"/>
                </g>
                <g id="dirArrow">
                        <path fill="none" stroke="white" stroke-width="1.5" d="M0,-3.0v7 M-2.5,-0.5L0,-3.0L2.5,-0.5"/>
                </g>
               <g id="resetDef">
                       <use xlink:href="#rim2" fill="#404040">
                               <set attributeName="fill" to="#808080" begin="reset.mouseover" end="reset.mouseout"/>
                       </use>
               </g>
        </defs>

<script type="text/javascript">
var viewWidth = 576;
var viewHeight = 263;
var sectionId = 'dynsection-7';
</script>
<script xlink:href="../../svgpan.js"/>
<svg id="graph" class="graph">
<g id="viewport">
<title>de.flashpixx.rrd_antlr4.engine.template.CHTML.postprocess</title>
<!-- Node77 -->
<g id="node1" class="node"><title>Node77</title>
<polygon fill="#bfbfbf" stroke="black" points="0,-111 0,-139 178,-139 178,-111 0,-111"/>
<text text-anchor="start" x="8" y="-127.8" font-family="Helvetica,sans-Serif" font-size="9.00">de.flashpixx.rrd_antlr4.engine.template.</text>
<text text-anchor="middle" x="89" y="-117.8" font-family="Helvetica,sans-Serif" font-size="9.00">CHTML.postprocess</text>
</g>
<!-- Node78 -->
<g id="node2" class="node"><title>Node78</title>
<g id="a_node2"><a xlink:href="../../d5/dcc/classde_1_1flashpixx_1_1rrd__antlr4_1_1engine_1_1template_1_1IBaseTemplate.html#a45ff7afb0ca2176f7fa722db3a194bcf" target="_top" xlink:title="copies files from the directory of the template to the output directory ">
<polygon fill="none" stroke="black" points="221,-227 221,-255 399,-255 399,-227 221,-227"/>
<text text-anchor="start" x="229" y="-243.8" font-family="Helvetica,sans-Serif" font-size="9.00">de.flashpixx.rrd_antlr4.engine.template.</text>
<text text-anchor="middle" x="310" y="-233.8" font-family="Helvetica,sans-Serif" font-size="9.00">IBaseTemplate.copy</text>
</a>
</g>
</g>
<!-- Node77&#45;&gt;Node78 -->
<g id="edge1" class="edge"><title>Node77&#45;&gt;Node78</title>
<path fill="none" stroke="midnightblue" d="M104.77,-139.044C126.812,-159.239 170.405,-196.322 214,-217 219.219,-219.475 224.724,-221.716 230.348,-223.741"/>
<polygon fill="midnightblue" stroke="midnightblue" points="229.302,-227.082 239.896,-226.949 231.532,-220.446 229.302,-227.082"/>
</g>
<!-- Node80 -->
<g id="node4" class="node"><title>Node80</title>
<g id="a_node4"><a xlink:href="../../df/ddb/interfacede_1_1flashpixx_1_1rrd__antlr4_1_1antlr_1_1IGrammarComplexElement.html#aa73d20b5f90dd7499fd8b0e895107b05" target="_top" xlink:title="documentation of the element ">
<polygon fill="none" stroke="black" points="214.5,-180 214.5,-208 405.5,-208 405.5,-180 214.5,-180"/>
<text text-anchor="start" x="222.5" y="-196.8" font-family="Helvetica,sans-Serif" font-size="9.00">de.flashpixx.rrd_antlr4.antlr.</text>
<text text-anchor="middle" x="310" y="-186.8" font-family="Helvetica,sans-Serif" font-size="9.00">IGrammarComplexElement.documentation</text>
</a>
</g>
</g>
<!-- Node77&#45;&gt;Node80 -->
<g id="edge3" class="edge"><title>Node77&#45;&gt;Node80</title>
<path fill="none" stroke="midnightblue" d="M125.76,-139.061C150.358,-148.465 183.896,-160.761 214,-170 222.271,-172.538 231.005,-175.016 239.692,-177.356"/>
<polygon fill="midnightblue" stroke="midnightblue" points="238.89,-180.764 249.453,-179.935 240.679,-173.996 238.89,-180.764"/>
</g>
<!-- Node81 -->
<g id="node5" class="node"><title>Node81</title>
<g id="a_node5"><a xlink:href="../../df/ddb/interfacede_1_1flashpixx_1_1rrd__antlr4_1_1antlr_1_1IGrammarComplexElement.html#aeb2381bd8483a7b056d018c57690599e" target="_top" xlink:title="ID of the element. ">
<polygon fill="none" stroke="black" points="241.5,-133 241.5,-161 378.5,-161 378.5,-133 241.5,-133"/>
<text text-anchor="start" x="249.5" y="-149.8" font-family="Helvetica,sans-Serif" font-size="9.00">de.flashpixx.rrd_antlr4.antlr.</text>
<text text-anchor="middle" x="310" y="-139.8" font-family="Helvetica,sans-Serif" font-size="9.00">IGrammarComplexElement.id</text>
</a>
</g>
</g>
<!-- Node77&#45;&gt;Node81 -->
<g id="edge4" class="edge"><title>Node77&#45;&gt;Node81</title>
<path fill="none" stroke="midnightblue" d="M178.129,-133.853C195.715,-135.62 214.066,-137.463 231.272,-139.192"/>
<polygon fill="midnightblue" stroke="midnightblue" points="230.956,-142.677 241.255,-140.195 231.655,-135.712 230.956,-142.677"/>
</g>
<!-- Node82 -->
<g id="node6" class="node"><title>Node82</title>
<g id="a_node6"><a xlink:href="../../d1/d8a/classde_1_1flashpixx_1_1rrd__antlr4_1_1CCommon.html#afff763186937c82606ef7ead705e9529" target="_top" xlink:title="returns the language depend string on any object ">
<polygon fill="none" stroke="black" points="442.5,-45 442.5,-73 567.5,-73 567.5,-45 442.5,-45"/>
<text text-anchor="start" x="450.5" y="-61.8" font-family="Helvetica,sans-Serif" font-size="9.00">de.flashpixx.rrd_antlr4.</text>
<text text-anchor="middle" x="505" y="-51.8" font-family="Helvetica,sans-Serif" font-size="9.00">CCommon.languagestring</text>
</a>
</g>
</g>
<!-- Node77&#45;&gt;Node82 -->
<g id="edge5" class="edge"><title>Node77&#45;&gt;Node82</title>
<path fill="none" stroke="midnightblue" d="M178.313,-116.43C241.936,-109.554 329.664,-98.6335 406,-84 418.383,-81.6263 431.529,-78.6173 444.036,-75.5163"/>
<polygon fill="midnightblue" stroke="midnightblue" points="445.067,-78.8658 453.903,-73.0199 443.35,-72.0796 445.067,-78.8658"/>
</g>
<!-- Node83 -->
<g id="node7" class="node"><title>Node83</title>
<g id="a_node7"><a xlink:href="../../d5/dcc/classde_1_1flashpixx_1_1rrd__antlr4_1_1engine_1_1template_1_1IBaseTemplate.html#acc4ece554ebc5db2c72a71615af0022d" target="_top" xlink:title="create a hash of a link ">
<polygon fill="none" stroke="black" points="221,-47 221,-75 399,-75 399,-47 221,-47"/>
<text text-anchor="start" x="229" y="-63.8" font-family="Helvetica,sans-Serif" font-size="9.00">de.flashpixx.rrd_antlr4.engine.template.</text>
<text text-anchor="middle" x="310" y="-53.8" font-family="Helvetica,sans-Serif" font-size="9.00">IBaseTemplate.linkhash</text>
</a>
</g>
</g>
<!-- Node77&#45;&gt;Node83 -->
<g id="edge6" class="edge"><title>Node77&#45;&gt;Node83</title>
<path fill="none" stroke="midnightblue" d="M138.06,-110.955C171.437,-101.201 216.073,-88.1569 251.363,-77.8437"/>
<polygon fill="midnightblue" stroke="midnightblue" points="252.435,-81.1769 261.052,-75.0123 250.471,-74.4579 252.435,-81.1769"/>
</g>
<!-- Node84 -->
<g id="node8" class="node"><title>Node84</title>
<g id="a_node8"><a xlink:href="../../d5/dcc/classde_1_1flashpixx_1_1rrd__antlr4_1_1engine_1_1template_1_1IBaseTemplate.html#a44c4b6d4587b3a9e7a802aede6424465" target="_top" xlink:title="replaces the string within the file ">
<polygon fill="none" stroke="black" points="221,-0 221,-28 399,-28 399,-0 221,-0"/>
<text text-anchor="start" x="229" y="-16.8" font-family="Helvetica,sans-Serif" font-size="9.00">de.flashpixx.rrd_antlr4.engine.template.</text>
<text text-anchor="middle" x="310" y="-6.8" font-family="Helvetica,sans-Serif" font-size="9.00">IBaseTemplate.replace</text>
</a>
</g>
</g>
<!-- Node77&#45;&gt;Node84 -->
<g id="edge7" class="edge"><title>Node77&#45;&gt;Node84</title>
<path fill="none" stroke="midnightblue" d="M105.61,-110.894C127.993,-91.4123 171.238,-56.4754 214,-37 218.611,-34.8999 223.439,-32.9767 228.371,-31.2179"/>
<polygon fill="midnightblue" stroke="midnightblue" points="229.565,-34.5092 237.952,-28.0347 227.358,-27.8662 229.565,-34.5092"/>
</g>
<!-- Node79 -->
<g id="node3" class="node"><title>Node79</title>
<g id="a_node3"><a xlink:href="../../d1/d8a/classde_1_1flashpixx_1_1rrd__antlr4_1_1CCommon.html#a96c623ea7b0c0ea08382908043612f86" target="_top" xlink:title="returns root path of the resource ">
<polygon fill="none" stroke="black" points="450,-227 450,-255 560,-255 560,-227 450,-227"/>
<text text-anchor="start" x="458" y="-243.8" font-family="Helvetica,sans-Serif" font-size="9.00">de.flashpixx.rrd_antlr4.</text>
<text text-anchor="middle" x="505" y="-233.8" font-family="Helvetica,sans-Serif" font-size="9.00">CCommon.resourceurl</text>
</a>
</g>
</g>
<!-- Node78&#45;&gt;Node79 -->
<g id="edge2" class="edge"><title>Node78&#45;&gt;Node79</title>
<path fill="none" stroke="midnightblue" d="M399.028,-241C412.678,-241 426.556,-241 439.557,-241"/>
<polygon fill="midnightblue" stroke="midnightblue" points="439.775,-244.5 449.775,-241 439.775,-237.5 439.775,-244.5"/>
</g>
<!-- Node84&#45;&gt;Node82 -->
<g id="edge8" class="edge"><title>Node84&#45;&gt;Node82</title>
<path fill="none" stroke="midnightblue" d="M371.273,-28.0532C391.138,-32.685 413.399,-37.8754 433.931,-42.6626"/>
<polygon fill="midnightblue" stroke="midnightblue" points="433.319,-46.1138 443.853,-44.9761 434.909,-39.2967 433.319,-46.1138"/>
</g>
</g>
</svg>
        <g id="navigator" transform="translate(0 0)" fill="#404254">
                <rect fill="#f2f5e9" fill-opacity="0.5" stroke="#606060" stroke-width=".5" x="0" y="0" width="60" height="60"/>
                <use id="zoomplus" xlink:href="#zoomPlus" x="17" y="9" onmousedown="handleZoom(evt,'in')"/>
                <use id="zoomminus" xlink:href="#zoomMin" x="42" y="9" onmousedown="handleZoom(evt,'out')"/>
                <use id="reset" xlink:href="#resetDef" x="30" y="36" onmousedown="handleReset()"/>
                <g id="arrowUp" xlink:href="#dirArrow" transform="translate(30 24)" onmousedown="handlePan(0,-1)">
                  <use xlink:href="#rim" fill="#404040">
                        <set attributeName="fill" to="#808080" begin="arrowUp.mouseover" end="arrowUp.mouseout"/>
                  </use>
                  <path fill="none" stroke="white" stroke-width="1.5" d="M0,-3.0v7 M-2.5,-0.5L0,-3.0L2.5,-0.5"/>
                </g>
                <g id="arrowRight" xlink:href="#dirArrow" transform="rotate(90) translate(36 -43)" onmousedown="handlePan(1,0)">
                  <use xlink:href="#rim" fill="#404040">
                        <set attributeName="fill" to="#808080" begin="arrowRight.mouseover" end="arrowRight.mouseout"/>
                  </use>
                  <path fill="none" stroke="white" stroke-width="1.5" d="M0,-3.0v7 M-2.5,-0.5L0,-3.0L2.5,-0.5"/>
                </g>
                <g id="arrowDown" xlink:href="#dirArrow" transform="rotate(180) translate(-30 -48)" onmousedown="handlePan(0,1)">
                  <use xlink:href="#rim" fill="#404040">
                        <set attributeName="fill" to="#808080" begin="arrowDown.mouseover" end="arrowDown.mouseout"/>
                  </use>
                  <path fill="none" stroke="white" stroke-width="1.5" d="M0,-3.0v7 M-2.5,-0.5L0,-3.0L2.5,-0.5"/>
                </g>
                <g id="arrowLeft" xlink:href="#dirArrow" transform="rotate(270) translate(-36 17)" onmousedown="handlePan(-1,0)">
                  <use xlink:href="#rim" fill="#404040">
                        <set attributeName="fill" to="#808080" begin="arrowLeft.mouseover" end="arrowLeft.mouseout"/>
                  </use>
                  <path fill="none" stroke="white" stroke-width="1.5" d="M0,-3.0v7 M-2.5,-0.5L0,-3.0L2.5,-0.5"/>
                </g>
        </g>
        <svg viewBox="0 0 15 15" width="100%" height="30px" preserveAspectRatio="xMaxYMin meet">
         <g id="arrow_out" transform="scale(0.3 0.3)">
          <a xlink:href="classde_1_1flashpixx_1_1rrd__antlr4_1_1engine_1_1template_1_1CHTML_aa7507dba1f5f25745319524e2514dbc0_cgraph_org.svg" target="_base">
           <rect id="button" ry="5" rx="5" y="6" x="6" height="38" width="38"
                fill="#f2f5e9" fill-opacity="0.5" stroke="#606060" stroke-width="1.0"/>
           <path id="arrow"
             d="M 11.500037,31.436501 C 11.940474,20.09759 22.043105,11.32322 32.158766,21.979434 L 37.068811,17.246167 C 37.068811,17.246167 37.088388,32 37.088388,32 L 22.160133,31.978069 C 22.160133,31.978069 26.997745,27.140456 26.997745,27.140456 C 18.528582,18.264221 13.291696,25.230495 11.500037,31.436501 z"
             style="fill:#404040;"/>
          </a>
         </g>
        </svg>
</svg>
