<?xml version="1.0" encoding="UTF-8" standalone="no"?>
<!DOCTYPE svg PUBLIC "-//W3C//DTD SVG 1.1//EN"
 "http://www.w3.org/Graphics/SVG/1.1/DTD/svg11.dtd">
<!-- Generated by graphviz version 2.36.0 (20140111.2315)
 -->
<!-- Title: de.flashpixx.rrd_antlr4.engine.template.CHTML.element Pages: 1 -->
<svg width="842pt" height="434pt"
 viewBox="0.00 0.00 842.00 434.00" xmlns="http://www.w3.org/2000/svg" xmlns:xlink="http://www.w3.org/1999/xlink">
<g id="graph0" class="graph" transform="scale(1 1) rotate(0) translate(4 430)">
<title>de.flashpixx.rrd_antlr4.engine.template.CHTML.element</title>
<!-- Node20 -->
<g id="node1" class="node"><title>Node20</title>
<polygon fill="#bfbfbf" stroke="black" points="0,-256 0,-284 178,-284 178,-256 0,-256"/>
<text text-anchor="start" x="8" y="-272.8" font-family="Helvetica,sans-Serif" font-size="9.00">de.flashpixx.rrd_antlr4.engine.template.</text>
<text text-anchor="middle" x="89" y="-262.8" font-family="Helvetica,sans-Serif" font-size="9.00">CHTML.element</text>
</g>
<!-- Node21 -->
<g id="node2" class="node"><title>Node21</title>
<g id="a_node2"><a xlink:href="../../df/ddb/interfacede_1_1flashpixx_1_1rrd__antlr4_1_1antlr_1_1IGrammarComplexElement.html#aa73d20b5f90dd7499fd8b0e895107b05" target="_top" xlink:title="documentation of the element ">
<polygon fill="none" stroke="black" points="214.5,-327 214.5,-355 405.5,-355 405.5,-327 214.5,-327"/>
<text text-anchor="start" x="222.5" y="-343.8" font-family="Helvetica,sans-Serif" font-size="9.00">de.flashpixx.rrd_antlr4.antlr.</text>
<text text-anchor="middle" x="310" y="-333.8" font-family="Helvetica,sans-Serif" font-size="9.00">IGrammarComplexElement.documentation</text>
</a>
</g>
</g>
<!-- Node20&#45;&gt;Node21 -->
<g id="edge1" class="edge"><title>Node20&#45;&gt;Node21</title>
<path fill="none" stroke="midnightblue" d="M123.842,-284.033C148.564,-293.988 183.036,-307.256 214,-317 222.194,-319.579 230.851,-322.074 239.471,-324.418"/>
<polygon fill="midnightblue" stroke="midnightblue" points="238.596,-327.807 249.16,-326.997 240.397,-321.042 238.596,-327.807"/>
</g>
<!-- Node22 -->
<g id="node3" class="node"><title>Node22</title>
<g id="a_node3"><a xlink:href="../../df/ddb/interfacede_1_1flashpixx_1_1rrd__antlr4_1_1antlr_1_1IGrammarComplexElement.html#aeb2381bd8483a7b056d018c57690599e" target="_top" xlink:title="ID of the element. ">
<polygon fill="none" stroke="black" points="241.5,-280 241.5,-308 378.5,-308 378.5,-280 241.5,-280"/>
<text text-anchor="start" x="249.5" y="-296.8" font-family="Helvetica,sans-Serif" font-size="9.00">de.flashpixx.rrd_antlr4.antlr.</text>
<text text-anchor="middle" x="310" y="-286.8" font-family="Helvetica,sans-Serif" font-size="9.00">IGrammarComplexElement.id</text>
</a>
</g>
</g>
<!-- Node20&#45;&gt;Node22 -->
<g id="edge2" class="edge"><title>Node20&#45;&gt;Node22</title>
<path fill="none" stroke="midnightblue" d="M178.129,-279.658C195.715,-281.585 214.066,-283.596 231.272,-285.482"/>
<polygon fill="midnightblue" stroke="midnightblue" points="230.934,-288.966 241.255,-286.576 231.696,-282.007 230.934,-288.966"/>
</g>
<!-- Node23 -->
<g id="node4" class="node"><title>Node23</title>
<g id="a_node4"><a xlink:href="../../d5/dcc/classde_1_1flashpixx_1_1rrd__antlr4_1_1engine_1_1template_1_1IBaseTemplate.html#acc4ece554ebc5db2c72a71615af0022d" target="_top" xlink:title="create a hash of a link ">
<polygon fill="none" stroke="black" points="221,-233 221,-261 399,-261 399,-233 221,-233"/>
<text text-anchor="start" x="229" y="-249.8" font-family="Helvetica,sans-Serif" font-size="9.00">de.flashpixx.rrd_antlr4.engine.template.</text>
<text text-anchor="middle" x="310" y="-239.8" font-family="Helvetica,sans-Serif" font-size="9.00">IBaseTemplate.linkhash</text>
</a>
</g>
</g>
<!-- Node20&#45;&gt;Node23 -->
<g id="edge3" class="edge"><title>Node20&#45;&gt;Node23</title>
<path fill="none" stroke="midnightblue" d="M178.129,-260.744C188.757,-259.628 199.665,-258.483 210.431,-257.352"/>
<polygon fill="midnightblue" stroke="midnightblue" points="211.115,-260.799 220.695,-256.274 210.384,-253.838 211.115,-260.799"/>
</g>
<!-- Node24 -->
<g id="node5" class="node"><title>Node24</title>
<g id="a_node5"><a xlink:href="../../d5/dcc/classde_1_1flashpixx_1_1rrd__antlr4_1_1engine_1_1template_1_1IBaseTemplate.html#aba059762f4ecba4c0fa04758165dbf11" target="_top" xlink:title="calls the sub routines to format the lement ">
<polygon fill="none" stroke="black" points="221,-186 221,-214 399,-214 399,-186 221,-186"/>
<text text-anchor="start" x="229" y="-202.8" font-family="Helvetica,sans-Serif" font-size="9.00">de.flashpixx.rrd_antlr4.engine.template.</text>
<text text-anchor="middle" x="310" y="-192.8" font-family="Helvetica,sans-Serif" font-size="9.00">IBaseTemplate.map</text>
</a>
</g>
</g>
<!-- Node20&#45;&gt;Node24 -->
<g id="edge4" class="edge"><title>Node20&#45;&gt;Node24</title>
<path fill="none" stroke="midnightblue" d="M123.55,-255.98C148.276,-245.969 182.878,-232.624 214,-223 221.158,-220.786 228.673,-218.652 236.208,-216.636"/>
<polygon fill="midnightblue" stroke="midnightblue" points="237.305,-219.967 246.098,-214.056 235.539,-213.194 237.305,-219.967"/>
</g>
<!-- Node25 -->
<g id="node6" class="node"><title>Node25</title>
<g id="a_node6"><a xlink:href="../../d5/dcc/classde_1_1flashpixx_1_1rrd__antlr4_1_1engine_1_1template_1_1IBaseTemplate.html#a1f104e1a0c40d1716200169010c13ed5" target="_top" xlink:title="sets the cardinality ">
<polygon fill="none" stroke="black" points="656,-398 656,-426 834,-426 834,-398 656,-398"/>
<text text-anchor="start" x="664" y="-414.8" font-family="Helvetica,sans-Serif" font-size="9.00">de.flashpixx.rrd_antlr4.engine.template.</text>
<text text-anchor="middle" x="745" y="-404.8" font-family="Helvetica,sans-Serif" font-size="9.00">IBaseTemplate.cardinality</text>
</a>
</g>
</g>
<!-- Node24&#45;&gt;Node25 -->
<g id="edge5" class="edge"><title>Node24&#45;&gt;Node25</title>
<path fill="none" stroke="midnightblue" d="M394.36,-214.024C398.571,-216.572 402.499,-219.542 406,-223 452.017,-268.448 394.204,-320.426 442,-364 496.184,-413.398 579.803,-423.466 645.326,-422.264"/>
<polygon fill="midnightblue" stroke="midnightblue" points="645.78,-425.753 655.68,-421.979 645.587,-418.756 645.78,-425.753"/>
</g>
<!-- Node26 -->
<g id="node7" class="node"><title>Node26</title>
<g id="a_node7"><a xlink:href="../../d5/dcc/classde_1_1flashpixx_1_1rrd__antlr4_1_1engine_1_1template_1_1IBaseTemplate.html#a2197fdee7c3dfb376324cf4682029b59" target="_top" xlink:title="creates a non&#45;terminal ">
<polygon fill="none" stroke="black" points="656,-116 656,-144 834,-144 834,-116 656,-116"/>
<text text-anchor="start" x="664" y="-132.8" font-family="Helvetica,sans-Serif" font-size="9.00">de.flashpixx.rrd_antlr4.engine.template.</text>
<text text-anchor="middle" x="745" y="-122.8" font-family="Helvetica,sans-Serif" font-size="9.00">IBaseTemplate.nonterminal</text>
</a>
</g>
</g>
<!-- Node24&#45;&gt;Node26 -->
<g id="edge6" class="edge"><title>Node24&#45;&gt;Node26</title>
<path fill="none" stroke="midnightblue" d="M397.843,-185.961C470.024,-174.292 572.646,-157.702 647.405,-145.616"/>
<polygon fill="midnightblue" stroke="midnightblue" points="647.988,-149.067 657.301,-144.016 646.871,-142.157 647.988,-149.067"/>
</g>
<!-- Node27 -->
<g id="node8" class="node"><title>Node27</title>
<g id="a_node8"><a xlink:href="../../d5/dcc/classde_1_1flashpixx_1_1rrd__antlr4_1_1engine_1_1template_1_1IBaseTemplate.html#a644daf65240deb390d1b3b8715491f13" target="_top" xlink:title="creates a rule ">
<polygon fill="none" stroke="black" points="442,-286 442,-314 620,-314 620,-286 442,-286"/>
<text text-anchor="start" x="450" y="-302.8" font-family="Helvetica,sans-Serif" font-size="9.00">de.flashpixx.rrd_antlr4.engine.template.</text>
<text text-anchor="middle" x="531" y="-292.8" font-family="Helvetica,sans-Serif" font-size="9.00">IBaseTemplate.rule</text>
</a>
</g>
</g>
<!-- Node24&#45;&gt;Node27 -->
<g id="edge7" class="edge"><title>Node24&#45;&gt;Node27</title>
<path fill="none" stroke="midnightblue" d="M399.408,-210.052C401.671,-211.285 403.874,-212.6 406,-214 428.27,-228.668 420.34,-246.445 442,-262 455.183,-271.468 471.644,-277.977 486.752,-282.941"/>
<polygon fill="midnightblue" stroke="midnightblue" points="485.847,-286.325 496.436,-285.995 487.952,-279.649 485.847,-286.325"/>
</g>
<!-- Node29 -->
<g id="node10" class="node"><title>Node29</title>
<g id="a_node10"><a xlink:href="../../d5/dcc/classde_1_1flashpixx_1_1rrd__antlr4_1_1engine_1_1template_1_1IBaseTemplate.html#ada35faeaaf5646a4818d934aac5a6103" target="_top" xlink:title="creates a grammar sequence ">
<polygon fill="none" stroke="black" points="656,-351 656,-379 834,-379 834,-351 656,-351"/>
<text text-anchor="start" x="664" y="-367.8" font-family="Helvetica,sans-Serif" font-size="9.00">de.flashpixx.rrd_antlr4.engine.template.</text>
<text text-anchor="middle" x="745" y="-357.8" font-family="Helvetica,sans-Serif" font-size="9.00">IBaseTemplate.sequence</text>
</a>
</g>
</g>
<!-- Node24&#45;&gt;Node29 -->
<g id="edge25" class="edge"><title>Node24&#45;&gt;Node29</title>
<path fill="none" stroke="midnightblue" d="M393.533,-214.177C398.006,-216.681 402.211,-219.6 406,-223 441.156,-254.55 405.321,-293.235 442,-323 498.379,-368.751 581.039,-377.534 645.632,-375.828"/>
<polygon fill="midnightblue" stroke="midnightblue" points="645.967,-379.318 655.837,-375.468 645.72,-372.323 645.967,-379.318"/>
</g>
<!-- Node30 -->
<g id="node11" class="node"><title>Node30</title>
<g id="a_node11"><a xlink:href="../../d5/dcc/classde_1_1flashpixx_1_1rrd__antlr4_1_1engine_1_1template_1_1IBaseTemplate.html#a835ed841a393331edd830c5ed9b1c62d" target="_top" xlink:title="creates a grammar choice ">
<polygon fill="none" stroke="black" points="656,-257 656,-285 834,-285 834,-257 656,-257"/>
<text text-anchor="start" x="664" y="-273.8" font-family="Helvetica,sans-Serif" font-size="9.00">de.flashpixx.rrd_antlr4.engine.template.</text>
<text text-anchor="middle" x="745" y="-263.8" font-family="Helvetica,sans-Serif" font-size="9.00">IBaseTemplate.choice</text>
</a>
</g>
</g>
<!-- Node24&#45;&gt;Node30 -->
<g id="edge24" class="edge"><title>Node24&#45;&gt;Node30</title>
<path fill="none" stroke="midnightblue" d="M375.155,-214.005C396.382,-218.429 420.159,-223.161 442,-227 509.829,-238.921 586.634,-250.079 645.814,-258.177"/>
<polygon fill="midnightblue" stroke="midnightblue" points="645.522,-261.669 655.903,-259.551 646.467,-254.733 645.522,-261.669"/>
</g>
<!-- Node31 -->
<g id="node12" class="node"><title>Node31</title>
<g id="a_node12"><a xlink:href="../../d5/dcc/classde_1_1flashpixx_1_1rrd__antlr4_1_1engine_1_1template_1_1IBaseTemplate.html#a68821bc9abb712354d06330676499b0d" target="_top" xlink:title="crates a grammer group ">
<polygon fill="none" stroke="black" points="656,-210 656,-238 834,-238 834,-210 656,-210"/>
<text text-anchor="start" x="664" y="-226.8" font-family="Helvetica,sans-Serif" font-size="9.00">de.flashpixx.rrd_antlr4.engine.template.</text>
<text text-anchor="middle" x="745" y="-216.8" font-family="Helvetica,sans-Serif" font-size="9.00">IBaseTemplate.group</text>
</a>
</g>
</g>
<!-- Node24&#45;&gt;Node31 -->
<g id="edge23" class="edge"><title>Node24&#45;&gt;Node31</title>
<path fill="none" stroke="midnightblue" d="M399.146,-204.886C470.703,-208.852 571.539,-214.441 645.696,-218.551"/>
<polygon fill="midnightblue" stroke="midnightblue" points="645.799,-222.062 655.978,-219.121 646.187,-215.073 645.799,-222.062"/>
</g>
<!-- Node32 -->
<g id="node13" class="node"><title>Node32</title>
<g id="a_node13"><a xlink:href="../../d5/dcc/classde_1_1flashpixx_1_1rrd__antlr4_1_1engine_1_1template_1_1IBaseTemplate.html#af9d688420b32b00be68a53432053dda2" target="_top" xlink:title="creates a terminal ">
<polygon fill="none" stroke="black" points="656,-163 656,-191 834,-191 834,-163 656,-163"/>
<text text-anchor="start" x="664" y="-179.8" font-family="Helvetica,sans-Serif" font-size="9.00">de.flashpixx.rrd_antlr4.engine.template.</text>
<text text-anchor="middle" x="745" y="-169.8" font-family="Helvetica,sans-Serif" font-size="9.00">IBaseTemplate.terminalvalue</text>
</a>
</g>
</g>
<!-- Node24&#45;&gt;Node32 -->
<g id="edge16" class="edge"><title>Node24&#45;&gt;Node32</title>
<path fill="none" stroke="midnightblue" d="M399.146,-195.318C470.703,-191.517 571.539,-186.161 645.696,-182.222"/>
<polygon fill="midnightblue" stroke="midnightblue" points="646.177,-185.701 655.978,-181.676 645.806,-178.711 646.177,-185.701"/>
</g>
<!-- Node33 -->
<g id="node14" class="node"><title>Node33</title>
<g id="a_node14"><a xlink:href="../../dd/da7/interfacede_1_1flashpixx_1_1rrd__antlr4_1_1antlr_1_1IGrammarElement.html#ad38b129b0ef008046ccfe6eeae9cf0fe" target="_top" xlink:title="returns the cardinality ">
<polygon fill="none" stroke="black" points="463.5,-0 463.5,-28 598.5,-28 598.5,-0 463.5,-0"/>
<text text-anchor="start" x="471.5" y="-16.8" font-family="Helvetica,sans-Serif" font-size="9.00">de.flashpixx.rrd_antlr4.antlr.</text>
<text text-anchor="middle" x="531" y="-6.8" font-family="Helvetica,sans-Serif" font-size="9.00">IGrammarElement.cardinality</text>
</a>
</g>
</g>
<!-- Node24&#45;&gt;Node33 -->
<g id="edge15" class="edge"><title>Node24&#45;&gt;Node33</title>
<path fill="none" stroke="midnightblue" d="M319.174,-185.559C337.293,-154.82 383.865,-82.5068 442,-43 448.361,-38.6771 455.416,-34.9573 462.683,-31.7662"/>
<polygon fill="midnightblue" stroke="midnightblue" points="464.015,-35.0033 471.966,-28.0013 461.384,-28.5165 464.015,-35.0033"/>
</g>
<!-- Node34 -->
<g id="node15" class="node"><title>Node34</title>
<g id="a_node15"><a xlink:href="../../d5/dcc/classde_1_1flashpixx_1_1rrd__antlr4_1_1engine_1_1template_1_1IBaseTemplate.html#aed006de3401e84ff45301922a9ebd7f3" target="_top" xlink:title="creates a terminal ">
<polygon fill="none" stroke="black" points="442,-86 442,-114 620,-114 620,-86 442,-86"/>
<text text-anchor="start" x="450" y="-102.8" font-family="Helvetica,sans-Serif" font-size="9.00">de.flashpixx.rrd_antlr4.engine.template.</text>
<text text-anchor="middle" x="531" y="-92.8" font-family="Helvetica,sans-Serif" font-size="9.00">IBaseTemplate.terminal</text>
</a>
</g>
</g>
<!-- Node24&#45;&gt;Node34 -->
<g id="edge17" class="edge"><title>Node24&#45;&gt;Node34</title>
<path fill="none" stroke="midnightblue" d="M324.741,-185.993C348.159,-168.219 397.587,-139.172 442,-120 443.625,-119.299 445.272,-118.604 446.937,-117.918"/>
<polygon fill="midnightblue" stroke="midnightblue" points="448.622,-121.016 456.636,-114.086 446.05,-114.505 448.622,-121.016"/>
</g>
<!-- Node36 -->
<g id="node17" class="node"><title>Node36</title>
<g id="a_node17"><a xlink:href="../../d5/dcc/classde_1_1flashpixx_1_1rrd__antlr4_1_1engine_1_1template_1_1IBaseTemplate.html#aad62be40b5226177829c66f72e638569" target="_top" xlink:title="creates a negation structure ">
<polygon fill="none" stroke="black" points="656,-22 656,-50 834,-50 834,-22 656,-22"/>
<text text-anchor="start" x="664" y="-38.8" font-family="Helvetica,sans-Serif" font-size="9.00">de.flashpixx.rrd_antlr4.engine.template.</text>
<text text-anchor="middle" x="745" y="-28.8" font-family="Helvetica,sans-Serif" font-size="9.00">IBaseTemplate.negation</text>
</a>
</g>
</g>
<!-- Node24&#45;&gt;Node36 -->
<g id="edge22" class="edge"><title>Node24&#45;&gt;Node36</title>
<path fill="none" stroke="midnightblue" d="M320.984,-185.892C340.69,-159.279 387.442,-102.007 442,-76 477.11,-59.2638 571.564,-48.555 645.583,-42.4722"/>
<polygon fill="midnightblue" stroke="midnightblue" points="646.195,-45.9343 655.883,-41.6444 645.635,-38.9568 646.195,-45.9343"/>
</g>
<!-- Node27&#45;&gt;Node24 -->
<g id="edge8" class="edge"><title>Node27&#45;&gt;Node24</title>
<path fill="none" stroke="midnightblue" d="M451.043,-285.774C447.905,-283.988 444.874,-282.064 442,-280 420.34,-264.445 428.27,-246.668 406,-232 395.6,-225.15 383.357,-220.338 371.181,-216.745"/>
<polygon fill="midnightblue" stroke="midnightblue" points="372.035,-213.351 361.467,-214.11 370.202,-220.106 372.035,-213.351"/>
</g>
<!-- Node27&#45;&gt;Node25 -->
<g id="edge10" class="edge"><title>Node27&#45;&gt;Node25</title>
<path fill="none" stroke="midnightblue" d="M548.07,-314.262C570.653,-333.604 613.76,-368.025 656,-388 661.011,-390.369 666.296,-392.54 671.687,-394.521"/>
<polygon fill="midnightblue" stroke="midnightblue" points="670.875,-397.942 681.47,-397.884 673.151,-391.323 670.875,-397.942"/>
</g>
<!-- Node28 -->
<g id="node9" class="node"><title>Node28</title>
<g id="a_node9"><a xlink:href="../../d3/d53/interfacede_1_1flashpixx_1_1rrd__antlr4_1_1antlr_1_1IGrammarRule.html#aeea0d2d97829ead065e371fad38a54c9" target="_top" xlink:title="returns child element ">
<polygon fill="none" stroke="black" points="680,-304 680,-332 810,-332 810,-304 680,-304"/>
<text text-anchor="start" x="688" y="-320.8" font-family="Helvetica,sans-Serif" font-size="9.00">de.flashpixx.rrd_antlr4.antlr.</text>
<text text-anchor="middle" x="745" y="-310.8" font-family="Helvetica,sans-Serif" font-size="9.00">IGrammarRule.children</text>
</a>
</g>
</g>
<!-- Node27&#45;&gt;Node28 -->
<g id="edge9" class="edge"><title>Node27&#45;&gt;Node28</title>
<path fill="none" stroke="midnightblue" d="M620.065,-307.477C636.49,-308.872 653.506,-310.317 669.474,-311.672"/>
<polygon fill="midnightblue" stroke="midnightblue" points="669.539,-315.19 679.8,-312.549 670.132,-308.215 669.539,-315.19"/>
</g>
<!-- Node27&#45;&gt;Node29 -->
<g id="edge11" class="edge"><title>Node27&#45;&gt;Node29</title>
<path fill="none" stroke="midnightblue" d="M572.597,-314.027C596.728,-322.213 627.995,-332.558 656,-341 664.064,-343.431 672.576,-345.888 681.002,-348.255"/>
<polygon fill="midnightblue" stroke="midnightblue" points="680.248,-351.678 690.821,-350.985 682.124,-344.934 680.248,-351.678"/>
</g>
<!-- Node27&#45;&gt;Node30 -->
<g id="edge12" class="edge"><title>Node27&#45;&gt;Node30</title>
<path fill="none" stroke="midnightblue" d="M620.065,-287.953C628.569,-286.79 637.232,-285.605 645.825,-284.43"/>
<polygon fill="midnightblue" stroke="midnightblue" points="646.434,-287.879 655.868,-283.056 645.485,-280.944 646.434,-287.879"/>
</g>
<!-- Node27&#45;&gt;Node31 -->
<g id="edge13" class="edge"><title>Node27&#45;&gt;Node31</title>
<path fill="none" stroke="midnightblue" d="M561.582,-285.883C586.405,-274.398 622.996,-258.297 656,-247 662.324,-244.835 668.962,-242.758 675.638,-240.798"/>
<polygon fill="midnightblue" stroke="midnightblue" points="676.756,-244.119 685.414,-238.014 674.838,-237.387 676.756,-244.119"/>
</g>
<!-- Node27&#45;&gt;Node32 -->
<g id="edge14" class="edge"><title>Node27&#45;&gt;Node32</title>
<path fill="none" stroke="midnightblue" d="M545.475,-285.803C566.865,-264.099 610.812,-222.792 656,-200 659.807,-198.08 663.789,-196.309 667.868,-194.677"/>
<polygon fill="midnightblue" stroke="midnightblue" points="669.352,-197.86 677.524,-191.117 666.931,-191.293 669.352,-197.86"/>
</g>
<!-- Node34&#45;&gt;Node24 -->
<g id="edge18" class="edge"><title>Node34&#45;&gt;Node24</title>
<path fill="none" stroke="midnightblue" d="M506.044,-114.065C488.103,-120.903 463.119,-128.884 442,-138 412.281,-150.829 380.316,-168.08 355.401,-181.314"/>
<polygon fill="midnightblue" stroke="midnightblue" points="353.761,-178.222 346.558,-185.992 357.034,-184.409 353.761,-178.222"/>
</g>
<!-- Node34&#45;&gt;Node26 -->
<g id="edge20" class="edge"><title>Node34&#45;&gt;Node26</title>
<path fill="none" stroke="midnightblue" d="M620.065,-112.462C628.569,-113.665 637.232,-114.891 645.825,-116.107"/>
<polygon fill="midnightblue" stroke="midnightblue" points="645.476,-119.593 655.868,-117.528 646.457,-112.662 645.476,-119.593"/>
</g>
<!-- Node35 -->
<g id="node16" class="node"><title>Node35</title>
<g id="a_node16"><a xlink:href="../../da/d3c/interfacede_1_1flashpixx_1_1rrd__antlr4_1_1antlr_1_1IGrammarTerminal.html#a5335c08fcf626be523cb17e1e50d131a" target="_top" xlink:title="terminal alternatives ">
<polygon fill="none" stroke="black" points="680,-69 680,-97 810,-97 810,-69 680,-69"/>
<text text-anchor="start" x="688" y="-85.8" font-family="Helvetica,sans-Serif" font-size="9.00">de.flashpixx.rrd_antlr4.antlr.</text>
<text text-anchor="middle" x="745" y="-75.8" font-family="Helvetica,sans-Serif" font-size="9.00">IGrammarTerminal.children</text>
</a>
</g>
</g>
<!-- Node34&#45;&gt;Node35 -->
<g id="edge19" class="edge"><title>Node34&#45;&gt;Node35</title>
<path fill="none" stroke="midnightblue" d="M620.065,-92.9382C636.49,-91.6211 653.506,-90.2566 669.474,-88.9761"/>
<polygon fill="midnightblue" stroke="midnightblue" points="670.111,-92.4363 679.8,-88.1481 669.552,-85.4587 670.111,-92.4363"/>
</g>
<!-- Node34&#45;&gt;Node36 -->
<g id="edge21" class="edge"><title>Node34&#45;&gt;Node36</title>
<path fill="none" stroke="midnightblue" d="M574.978,-85.8692C589.302,-81.1511 605.342,-75.8584 620,-71 636.009,-65.694 639.832,-63.8017 656,-59 663.157,-56.8744 670.672,-54.7493 678.169,-52.6972"/>
<polygon fill="midnightblue" stroke="midnightblue" points="679.241,-56.0334 687.982,-50.0475 677.416,-49.2754 679.241,-56.0334"/>
</g>
</g>
</svg>
