<?xml version="1.0" encoding="UTF-8" standalone="no"?>
<!DOCTYPE svg PUBLIC "-//W3C//DTD SVG 1.1//EN"
 "http://www.w3.org/Graphics/SVG/1.1/DTD/svg11.dtd">
<!-- Generated by graphviz version 2.36.0 (20140111.2315)
 -->
<!-- Title: de.flashpixx.rrd_antlr4.engine.template.CHTML.terminalvalue Pages: 1 -->
<svg width="400pt" height="130pt"
 viewBox="0.00 0.00 400.00 130.00" xmlns="http://www.w3.org/2000/svg" xmlns:xlink="http://www.w3.org/1999/xlink">
<g id="graph0" class="graph" transform="scale(1 1) rotate(0) translate(4 126)">
<title>de.flashpixx.rrd_antlr4.engine.template.CHTML.terminalvalue</title>
<!-- Node91 -->
<g id="node1" class="node"><title>Node91</title>
<polygon fill="#bfbfbf" stroke="black" points="0,-47 0,-75 178,-75 178,-47 0,-47"/>
<text text-anchor="start" x="8" y="-63.8" font-family="Helvetica,sans-Serif" font-size="9.00">de.flashpixx.rrd_antlr4.engine.template.</text>
<text text-anchor="middle" x="89" y="-53.8" font-family="Helvetica,sans-Serif" font-size="9.00">CHTML.terminalvalue</text>
</g>
<!-- Node92 -->
<g id="node2" class="node"><title>Node92</title>
<g id="a_node2"><a xlink:href="../../dd/d41/interfacede_1_1flashpixx_1_1rrd__antlr4_1_1antlr_1_1IGrammarSimpleElement.html#aaa4656f7504bb80065785898d27e90de" target="_top" xlink:title="return native value ">
<polygon fill="none" stroke="black" points="236,-94 236,-122 370,-122 370,-94 236,-94"/>
<text text-anchor="start" x="244" y="-110.8" font-family="Helvetica,sans-Serif" font-size="9.00">de.flashpixx.rrd_antlr4.antlr.</text>
<text text-anchor="middle" x="303" y="-100.8" font-family="Helvetica,sans-Serif" font-size="9.00">IGrammarSimpleElement.get</text>
</a>
</g>
</g>
<!-- Node91&#45;&gt;Node92 -->
<g id="edge1" class="edge"><title>Node91&#45;&gt;Node92</title>
<path fill="none" stroke="midnightblue" d="M153.32,-75.0379C177.019,-80.2919 204.135,-86.3035 228.664,-91.7417"/>
<polygon fill="midnightblue" stroke="midnightblue" points="228.12,-95.2058 238.64,-93.9533 229.635,-88.3718 228.12,-95.2058"/>
</g>
<!-- Node93 -->
<g id="node3" class="node"><title>Node93</title>
<g id="a_node3"><a xlink:href="../../d5/dcc/classde_1_1flashpixx_1_1rrd__antlr4_1_1engine_1_1template_1_1IBaseTemplate.html#acc4ece554ebc5db2c72a71615af0022d" target="_top" xlink:title="create a hash of a link ">
<polygon fill="none" stroke="black" points="214,-47 214,-75 392,-75 392,-47 214,-47"/>
<text text-anchor="start" x="222" y="-63.8" font-family="Helvetica,sans-Serif" font-size="9.00">de.flashpixx.rrd_antlr4.engine.template.</text>
<text text-anchor="middle" x="303" y="-53.8" font-family="Helvetica,sans-Serif" font-size="9.00">IBaseTemplate.linkhash</text>
</a>
</g>
</g>
<!-- Node91&#45;&gt;Node93 -->
<g id="edge2" class="edge"><title>Node91&#45;&gt;Node93</title>
<path fill="none" stroke="midnightblue" d="M178.065,-61C186.569,-61 195.232,-61 203.825,-61"/>
<polygon fill="midnightblue" stroke="midnightblue" points="203.868,-64.5001 213.868,-61 203.868,-57.5001 203.868,-64.5001"/>
</g>
<!-- Node94 -->
<g id="node4" class="node"><title>Node94</title>
<g id="a_node4"><a xlink:href="../../d5/dcc/classde_1_1flashpixx_1_1rrd__antlr4_1_1engine_1_1template_1_1IBaseTemplate.html#ad97d291c7774c7a0782d23262bc7b4a0" target="_top" xlink:title="removing quotes if needed ">
<polygon fill="none" stroke="black" points="214,-0 214,-28 392,-28 392,-0 214,-0"/>
<text text-anchor="start" x="222" y="-16.8" font-family="Helvetica,sans-Serif" font-size="9.00">de.flashpixx.rrd_antlr4.engine.template.</text>
<text text-anchor="middle" x="303" y="-6.8" font-family="Helvetica,sans-Serif" font-size="9.00">IBaseTemplate.removequotes</text>
</a>
</g>
</g>
<!-- Node91&#45;&gt;Node94 -->
<g id="edge3" class="edge"><title>Node91&#45;&gt;Node94</title>
<path fill="none" stroke="midnightblue" d="M153.32,-46.9621C177.019,-41.7081 204.135,-35.6965 228.664,-30.2583"/>
<polygon fill="midnightblue" stroke="midnightblue" points="229.635,-33.6282 238.64,-28.0467 228.12,-26.7942 229.635,-33.6282"/>
</g>
</g>
</svg>
