<?xml version="1.0" encoding="UTF-8" standalone="no"?>
<!DOCTYPE svg PUBLIC "-//W3C//DTD SVG 1.1//EN"
 "http://www.w3.org/Graphics/SVG/1.1/DTD/svg11.dtd">
<!-- Generated by graphviz version 2.36.0 (20140111.2315)
 -->
<!-- Title: de.flashpixx.rrd_antlr4.antlr.CGrammarRule Pages: 1 -->
<svg width="202pt" height="504pt"
 viewBox="0.00 0.00 202.00 504.00" xmlns="http://www.w3.org/2000/svg" xmlns:xlink="http://www.w3.org/1999/xlink">
<g id="graph0" class="graph" transform="scale(1 1) rotate(0) translate(4 500)">
<title>de.flashpixx.rrd_antlr4.antlr.CGrammarRule</title>
<!-- Node4 -->
<g id="node1" class="node"><title>Node4</title>
<polygon fill="#bfbfbf" stroke="black" points="0,-1 0,-155 130,-155 130,-1 0,-1"/>
<text text-anchor="start" x="8" y="-143.8" font-family="Helvetica,sans-Serif" font-size="9.00">de.flashpixx.rrd_antlr4.antlr.</text>
<text text-anchor="middle" x="65" y="-133.8" font-family="Helvetica,sans-Serif" font-size="9.00">CGrammarRule</text>
<polyline fill="none" stroke="black" points="0,-127 130,-127 "/>
<text text-anchor="start" x="8" y="-115.8" font-family="Helvetica,sans-Serif" font-size="9.00">&#45; m_documentation</text>
<text text-anchor="start" x="8" y="-105.8" font-family="Helvetica,sans-Serif" font-size="9.00">&#45; m_id</text>
<polyline fill="none" stroke="black" points="0,-99 130,-99 "/>
<text text-anchor="start" x="8" y="-87.8" font-family="Helvetica,sans-Serif" font-size="9.00">+ CGrammarRule()</text>
<text text-anchor="start" x="8" y="-77.8" font-family="Helvetica,sans-Serif" font-size="9.00">+ cardinality()</text>
<text text-anchor="start" x="8" y="-67.8" font-family="Helvetica,sans-Serif" font-size="9.00">+ cardinality()</text>
<text text-anchor="start" x="8" y="-57.8" font-family="Helvetica,sans-Serif" font-size="9.00">+ children()</text>
<text text-anchor="start" x="8" y="-47.8" font-family="Helvetica,sans-Serif" font-size="9.00">+ documentation()</text>
<text text-anchor="start" x="8" y="-37.8" font-family="Helvetica,sans-Serif" font-size="9.00">+ equals()</text>
<text text-anchor="start" x="8" y="-27.8" font-family="Helvetica,sans-Serif" font-size="9.00">+ hashCode()</text>
<text text-anchor="start" x="8" y="-17.8" font-family="Helvetica,sans-Serif" font-size="9.00">+ id()</text>
<text text-anchor="start" x="8" y="-7.8" font-family="Helvetica,sans-Serif" font-size="9.00">+ toString()</text>
</g>
<!-- Node5 -->
<g id="node2" class="node"><title>Node5</title>
<g id="a_node2"><a xlink:href="../../d3/d53/interfacede_1_1flashpixx_1_1rrd__antlr4_1_1antlr_1_1IGrammarRule.html" target="_top" xlink:title="interface for a grammar rule ">
<polygon fill="none" stroke="black" points="64,-195 64,-259 194,-259 194,-195 64,-195"/>
<text text-anchor="start" x="72" y="-247.8" font-family="Helvetica,sans-Serif" font-size="9.00">de.flashpixx.rrd_antlr4.antlr.</text>
<text text-anchor="middle" x="129" y="-237.8" font-family="Helvetica,sans-Serif" font-size="9.00">IGrammarRule</text>
<polyline fill="none" stroke="black" points="64,-231 194,-231 "/>
<text text-anchor="middle" x="129" y="-219.8" font-family="Helvetica,sans-Serif" font-size="9.00"> </text>
<polyline fill="none" stroke="black" points="64,-213 194,-213 "/>
<text text-anchor="start" x="72" y="-201.8" font-family="Helvetica,sans-Serif" font-size="9.00">+ children()</text>
</a>
</g>
</g>
<!-- Node5&#45;&gt;Node4 -->
<g id="edge1" class="edge"><title>Node5&#45;&gt;Node4</title>
<path fill="none" stroke="midnightblue" d="M111.309,-185.366C107.205,-175.939 102.705,-165.605 98.1746,-155.198"/>
<polygon fill="none" stroke="midnightblue" points="108.226,-187.054 115.427,-194.825 114.644,-184.259 108.226,-187.054"/>
</g>
<!-- Node6 -->
<g id="node3" class="node"><title>Node6</title>
<g id="a_node3"><a xlink:href="../../df/ddb/interfacede_1_1flashpixx_1_1rrd__antlr4_1_1antlr_1_1IGrammarComplexElement.html" target="_top" xlink:title="base interface of a complex grammar element ">
<polygon fill="none" stroke="black" points="64,-307 64,-381 194,-381 194,-307 64,-307"/>
<text text-anchor="start" x="72" y="-369.8" font-family="Helvetica,sans-Serif" font-size="9.00">de.flashpixx.rrd_antlr4.antlr.</text>
<text text-anchor="middle" x="129" y="-359.8" font-family="Helvetica,sans-Serif" font-size="9.00">IGrammarComplexElement</text>
<polyline fill="none" stroke="black" points="64,-353 194,-353 "/>
<text text-anchor="middle" x="129" y="-341.8" font-family="Helvetica,sans-Serif" font-size="9.00"> </text>
<polyline fill="none" stroke="black" points="64,-335 194,-335 "/>
<text text-anchor="start" x="72" y="-323.8" font-family="Helvetica,sans-Serif" font-size="9.00">+ documentation()</text>
<text text-anchor="start" x="72" y="-313.8" font-family="Helvetica,sans-Serif" font-size="9.00">+ id()</text>
</a>
</g>
</g>
<!-- Node6&#45;&gt;Node5 -->
<g id="edge2" class="edge"><title>Node6&#45;&gt;Node5</title>
<path fill="none" stroke="midnightblue" d="M129,-296.617C129,-284.07 129,-270.788 129,-259.287"/>
<polygon fill="none" stroke="midnightblue" points="125.5,-296.929 129,-306.929 132.5,-296.929 125.5,-296.929"/>
</g>
<!-- Node7 -->
<g id="node4" class="node"><title>Node7</title>
<g id="a_node4"><a xlink:href="../../dd/da7/interfacede_1_1flashpixx_1_1rrd__antlr4_1_1antlr_1_1IGrammarElement.html" target="_top" xlink:title="any grammar element ">
<polygon fill="none" stroke="black" points="0,-421 0,-495 130,-495 130,-421 0,-421"/>
<text text-anchor="start" x="8" y="-483.8" font-family="Helvetica,sans-Serif" font-size="9.00">de.flashpixx.rrd_antlr4.antlr.</text>
<text text-anchor="middle" x="65" y="-473.8" font-family="Helvetica,sans-Serif" font-size="9.00">IGrammarElement</text>
<polyline fill="none" stroke="black" points="0,-467 130,-467 "/>
<text text-anchor="middle" x="65" y="-455.8" font-family="Helvetica,sans-Serif" font-size="9.00"> </text>
<polyline fill="none" stroke="black" points="0,-449 130,-449 "/>
<text text-anchor="start" x="8" y="-437.8" font-family="Helvetica,sans-Serif" font-size="9.00">+ cardinality()</text>
<text text-anchor="start" x="8" y="-427.8" font-family="Helvetica,sans-Serif" font-size="9.00">+ cardinality()</text>
</a>
</g>
</g>
<!-- Node7&#45;&gt;Node4 -->
<g id="edge4" class="edge"><title>Node7&#45;&gt;Node4</title>
<path fill="none" stroke="#404040" d="M59.1957,-420.857C57.4839,-408.561 55.8439,-394.714 55,-382 49.4663,-298.628 51.3774,-277.477 55,-194 55.3763,-185.328 55.9116,-176.299 56.5412,-167.281"/>
<polygon fill="none" stroke="#404040" points="56.5625,-166.993 53.0183,-160.713 57.4522,-155.026 60.9963,-161.306 56.5625,-166.993"/>
<text text-anchor="middle" x="77" y="-280.8" font-family="Helvetica,sans-Serif" font-size="9.00"> &#45;m_element</text>
</g>
<!-- Node7&#45;&gt;Node6 -->
<g id="edge3" class="edge"><title>Node7&#45;&gt;Node6</title>
<path fill="none" stroke="midnightblue" d="M90.637,-412.135C96.476,-401.917 102.609,-391.183 108.217,-381.37"/>
<polygon fill="none" stroke="midnightblue" points="87.5249,-410.527 85.6023,-420.946 93.6026,-414 87.5249,-410.527"/>
</g>
</g>
</svg>
