<?xml version="1.0" encoding="UTF-8" standalone="no"?>
<!DOCTYPE svg PUBLIC "-//W3C//DTD SVG 1.1//EN"
 "http://www.w3.org/Graphics/SVG/1.1/DTD/svg11.dtd">
<!-- Generated by graphviz version 2.36.0 (20140111.2315)
 -->
<!-- Title: de.flashpixx.rrd_antlr4.antlr.IGrammarSequence Pages: 1 -->
<svg width="138pt" height="420pt"
 viewBox="0.00 0.00 138.00 420.00" xmlns="http://www.w3.org/2000/svg" xmlns:xlink="http://www.w3.org/1999/xlink">
<g id="graph0" class="graph" transform="scale(1 1) rotate(0) translate(4 416)">
<title>de.flashpixx.rrd_antlr4.antlr.IGrammarSequence</title>
<!-- Node0 -->
<g id="node1" class="node"><title>Node0</title>
<polygon fill="#bfbfbf" stroke="black" points="0,-133 0,-197 130,-197 130,-133 0,-133"/>
<text text-anchor="start" x="8" y="-185.8" font-family="Helvetica,sans-Serif" font-size="9.00">de.flashpixx.rrd_antlr4.antlr.</text>
<text text-anchor="middle" x="65" y="-175.8" font-family="Helvetica,sans-Serif" font-size="9.00">IGrammarSequence</text>
<polyline fill="none" stroke="black" points="0,-169 130,-169 "/>
<text text-anchor="middle" x="65" y="-157.8" font-family="Helvetica,sans-Serif" font-size="9.00"> </text>
<polyline fill="none" stroke="black" points="0,-151 130,-151 "/>
<text text-anchor="middle" x="65" y="-139.8" font-family="Helvetica,sans-Serif" font-size="9.00"> </text>
</g>
<!-- Node3 -->
<g id="node4" class="node"><title>Node3</title>
<g id="a_node4"><a xlink:href="../../dc/df3/classde_1_1flashpixx_1_1rrd__antlr4_1_1antlr_1_1CGrammarSequence.html" target="_top" xlink:title="grammar sequence ">
<polygon fill="none" stroke="black" points="0,-1 0,-95 130,-95 130,-1 0,-1"/>
<text text-anchor="start" x="8" y="-83.8" font-family="Helvetica,sans-Serif" font-size="9.00">de.flashpixx.rrd_antlr4.antlr.</text>
<text text-anchor="middle" x="65" y="-73.8" font-family="Helvetica,sans-Serif" font-size="9.00">CGrammarSequence</text>
<polyline fill="none" stroke="black" points="0,-67 130,-67 "/>
<text text-anchor="middle" x="65" y="-55.8" font-family="Helvetica,sans-Serif" font-size="9.00"> </text>
<polyline fill="none" stroke="black" points="0,-49 130,-49 "/>
<text text-anchor="start" x="8" y="-37.8" font-family="Helvetica,sans-Serif" font-size="9.00">+ CGrammarSequence()</text>
<text text-anchor="start" x="8" y="-27.8" font-family="Helvetica,sans-Serif" font-size="9.00">+ CGrammarSequence()</text>
<text text-anchor="start" x="8" y="-17.8" font-family="Helvetica,sans-Serif" font-size="9.00">+ CGrammarSequence()</text>
<text text-anchor="start" x="8" y="-7.8" font-family="Helvetica,sans-Serif" font-size="9.00">+ toString()</text>
</a>
</g>
</g>
<!-- Node0&#45;&gt;Node3 -->
<g id="edge3" class="edge"><title>Node0&#45;&gt;Node3</title>
<path fill="none" stroke="midnightblue" d="M65,-122.739C65,-113.83 65,-104.355 65,-95.2687"/>
<polygon fill="none" stroke="midnightblue" points="61.5001,-122.879 65,-132.879 68.5001,-122.879 61.5001,-122.879"/>
</g>
<!-- Node1 -->
<g id="node2" class="node"><title>Node1</title>
<g id="a_node2"><a xlink:href="../../da/dbc/interfacede_1_1flashpixx_1_1rrd__antlr4_1_1antlr_1_1IGrammarCollection.html" target="_top" xlink:title="interface of grammar collection elements ">
<polygon fill="none" stroke="black" points="0,-235 0,-299 130,-299 130,-235 0,-235"/>
<text text-anchor="start" x="8" y="-287.8" font-family="Helvetica,sans-Serif" font-size="9.00">de.flashpixx.rrd_antlr4.antlr.</text>
<text text-anchor="middle" x="65" y="-277.8" font-family="Helvetica,sans-Serif" font-size="9.00">IGrammarCollection</text>
<polyline fill="none" stroke="black" points="0,-271 130,-271 "/>
<text text-anchor="middle" x="65" y="-259.8" font-family="Helvetica,sans-Serif" font-size="9.00"> </text>
<polyline fill="none" stroke="black" points="0,-253 130,-253 "/>
<text text-anchor="start" x="8" y="-241.8" font-family="Helvetica,sans-Serif" font-size="9.00">+ get()</text>
</a>
</g>
</g>
<!-- Node1&#45;&gt;Node0 -->
<g id="edge1" class="edge"><title>Node1&#45;&gt;Node0</title>
<path fill="none" stroke="midnightblue" d="M65,-224.716C65,-215.473 65,-205.82 65,-197.073"/>
<polygon fill="none" stroke="midnightblue" points="61.5001,-224.908 65,-234.908 68.5001,-224.908 61.5001,-224.908"/>
</g>
<!-- Node2 -->
<g id="node3" class="node"><title>Node2</title>
<g id="a_node3"><a xlink:href="../../dd/da7/interfacede_1_1flashpixx_1_1rrd__antlr4_1_1antlr_1_1IGrammarElement.html" target="_top" xlink:title="any grammar element ">
<polygon fill="none" stroke="black" points="0,-337 0,-411 130,-411 130,-337 0,-337"/>
<text text-anchor="start" x="8" y="-399.8" font-family="Helvetica,sans-Serif" font-size="9.00">de.flashpixx.rrd_antlr4.antlr.</text>
<text text-anchor="middle" x="65" y="-389.8" font-family="Helvetica,sans-Serif" font-size="9.00">IGrammarElement</text>
<polyline fill="none" stroke="black" points="0,-383 130,-383 "/>
<text text-anchor="middle" x="65" y="-371.8" font-family="Helvetica,sans-Serif" font-size="9.00"> </text>
<polyline fill="none" stroke="black" points="0,-365 130,-365 "/>
<text text-anchor="start" x="8" y="-353.8" font-family="Helvetica,sans-Serif" font-size="9.00">+ cardinality()</text>
<text text-anchor="start" x="8" y="-343.8" font-family="Helvetica,sans-Serif" font-size="9.00">+ cardinality()</text>
</a>
</g>
</g>
<!-- Node2&#45;&gt;Node1 -->
<g id="edge2" class="edge"><title>Node2&#45;&gt;Node1</title>
<path fill="none" stroke="midnightblue" d="M65,-326.608C65,-317.372 65,-307.88 65,-299.297"/>
<polygon fill="none" stroke="midnightblue" points="61.5001,-326.865 65,-336.865 68.5001,-326.865 61.5001,-326.865"/>
</g>
</g>
</svg>
