<?xml version="1.0" encoding="UTF-8" standalone="no"?>
<!DOCTYPE svg PUBLIC "-//W3C//DTD SVG 1.1//EN"
 "http://www.w3.org/Graphics/SVG/1.1/DTD/svg11.dtd">
<!-- Generated by graphviz version 2.36.0 (20140111.2315)
 -->
<!-- Title: de.flashpixx.rrd_antlr4.antlr.IGrammarGroup.element Pages: 1 -->
<svg width="352pt" height="83pt"
 viewBox="0.00 0.00 352.00 83.00" xmlns="http://www.w3.org/2000/svg" xmlns:xlink="http://www.w3.org/1999/xlink">
<g id="graph0" class="graph" transform="scale(1 1) rotate(0) translate(4 79)">
<title>de.flashpixx.rrd_antlr4.antlr.IGrammarGroup.element</title>
<!-- Node1 -->
<g id="node1" class="node"><title>Node1</title>
<polygon fill="#bfbfbf" stroke="black" points="0,-23 0,-51 130,-51 130,-23 0,-23"/>
<text text-anchor="start" x="8" y="-39.8" font-family="Helvetica,sans-Serif" font-size="9.00">de.flashpixx.rrd_antlr4.antlr.</text>
<text text-anchor="middle" x="65" y="-29.8" font-family="Helvetica,sans-Serif" font-size="9.00">IGrammarGroup.element</text>
</g>
<!-- Node2 -->
<g id="node2" class="node"><title>Node2</title>
<g id="a_node2"><a xlink:href="../../da/d63/classde_1_1flashpixx_1_1rrd__antlr4_1_1engine_1_1template_1_1CLaTeXSyntax.html#a42c60e6e62f33c5775b5518415295848" target="_top" xlink:title="de.flashpixx.rrd_antlr4.engine.template.\lCLaTeXSyntax.group">
<polygon fill="none" stroke="black" points="166,-47 166,-75 344,-75 344,-47 166,-47"/>
<text text-anchor="start" x="174" y="-63.8" font-family="Helvetica,sans-Serif" font-size="9.00">de.flashpixx.rrd_antlr4.engine.template.</text>
<text text-anchor="middle" x="255" y="-53.8" font-family="Helvetica,sans-Serif" font-size="9.00">CLaTeXSyntax.group</text>
</a>
</g>
</g>
<!-- Node1&#45;&gt;Node2 -->
<g id="edge1" class="edge"><title>Node1&#45;&gt;Node2</title>
<path fill="none" stroke="midnightblue" d="M140.283,-46.4829C148.675,-47.5543 157.288,-48.6538 165.836,-49.745"/>
<polygon fill="midnightblue" stroke="midnightblue" points="140.536,-42.9869 130.173,-45.1923 139.649,-49.9305 140.536,-42.9869"/>
</g>
<!-- Node3 -->
<g id="node3" class="node"><title>Node3</title>
<g id="a_node3"><a xlink:href="../../df/db0/classde_1_1flashpixx_1_1rrd__antlr4_1_1engine_1_1template_1_1CHTML.html#a5386e78d33f56f39bda5e51841c5ca79" target="_top" xlink:title="de.flashpixx.rrd_antlr4.engine.template.\lCHTML.group">
<polygon fill="none" stroke="black" points="166,-0 166,-28 344,-28 344,-0 166,-0"/>
<text text-anchor="start" x="174" y="-16.8" font-family="Helvetica,sans-Serif" font-size="9.00">de.flashpixx.rrd_antlr4.engine.template.</text>
<text text-anchor="middle" x="255" y="-6.8" font-family="Helvetica,sans-Serif" font-size="9.00">CHTML.group</text>
</a>
</g>
</g>
<!-- Node1&#45;&gt;Node3 -->
<g id="edge2" class="edge"><title>Node1&#45;&gt;Node3</title>
<path fill="none" stroke="midnightblue" d="M140.283,-27.9122C148.675,-26.8854 157.288,-25.8318 165.836,-24.786"/>
<polygon fill="midnightblue" stroke="midnightblue" points="139.674,-24.4605 130.173,-29.149 140.524,-31.4087 139.674,-24.4605"/>
</g>
</g>
</svg>
