<?xml version="1.0" encoding="UTF-8" standalone="no"?>
<!DOCTYPE svg PUBLIC "-//W3C//DTD SVG 1.1//EN"
 "http://www.w3.org/Graphics/SVG/1.1/DTD/svg11.dtd">
<!-- Generated by graphviz version 2.36.0 (20140111.2315)
 -->
<!-- Title: de.flashpixx.rrd_antlr4.engine.template.CLaTeXSyntax.postprocess Pages: 1 -->
<!--zoomable 216 -->
<svg id="main" version="1.1" xmlns="http://www.w3.org/2000/svg" xmlns:xlink="http://www.w3.org/1999/xlink" xml:space="preserve" onload="init(evt)">
<style type="text/css"><![CDATA[
.edge:hover path { stroke: red; }
.edge:hover polygon { stroke: red; fill: red; }
]]></style>
<script type="text/javascript"><![CDATA[
var edges = document.getElementsByTagName('g');
if (edges && edges.length) {
  for (var i=0;i<edges.length;i++) {
    if (edges[i].id.substr(0,4)=='edge') {
      edges[i].setAttribute('class','edge');
    }
  }
}
]]></script>
        <defs>
                <circle id="rim" cx="0" cy="0" r="7"/>
                <circle id="rim2" cx="0" cy="0" r="3.5"/>
                <g id="zoomPlus">
                        <use xlink:href="#rim" fill="#404040">
                                <set attributeName="fill" to="#808080" begin="zoomplus.mouseover" end="zoomplus.mouseout"/>
                        </use>
                        <path d="M-4,0h8M0,-4v8" fill="none" stroke="white" stroke-width="1.5" pointer-events="none"/>
                </g>
                <g id="zoomMin">
                        <use xlink:href="#rim" fill="#404040">
                                <set attributeName="fill" to="#808080" begin="zoomminus.mouseover" end="zoomminus.mouseout"/>
                        </use>
                        <path d="M-4,0h8" fill="none" stroke="white" stroke-width="1.5" pointer-events="none"/>
                </g>
                <g id="dirArrow">
                        <path fill="none" stroke="white" stroke-width="1.5" d="M0,-3.0v7 M-2.5,-0.5L0,-3.0L2.5,-0.5"/>
                </g>
               <g id="resetDef">
                       <use xlink:href="#rim2" fill="#404040">
                               <set attributeName="fill" to="#808080" begin="reset.mouseover" end="reset.mouseout"/>
                       </use>
               </g>
        </defs>

<script type="text/javascript">
var viewWidth = 576;
var viewHeight = 216;
var sectionId = 'dynsection-9';
</script>
<script xlink:href="../../svgpan.js"/>
<svg id="graph" class="graph">
<g id="viewport">
<title>de.flashpixx.rrd_antlr4.engine.template.CLaTeXSyntax.postprocess</title>
<!-- Node65 -->
<g id="node1" class="node"><title>Node65</title>
<polygon fill="#bfbfbf" stroke="black" points="0,-86 0,-114 178,-114 178,-86 0,-86"/>
<text text-anchor="start" x="8" y="-102.8" font-family="Helvetica,sans-Serif" font-size="9.00">de.flashpixx.rrd_antlr4.engine.template.</text>
<text text-anchor="middle" x="89" y="-92.8" font-family="Helvetica,sans-Serif" font-size="9.00">CLaTeXSyntax.postprocess</text>
</g>
<!-- Node66 -->
<g id="node2" class="node"><title>Node66</title>
<g id="a_node2"><a xlink:href="../../d5/dcc/classde_1_1flashpixx_1_1rrd__antlr4_1_1engine_1_1template_1_1IBaseTemplate.html#a45ff7afb0ca2176f7fa722db3a194bcf" target="_top" xlink:title="copies files from the directory of the template to the output directory ">
<polygon fill="none" stroke="black" points="221,-180 221,-208 399,-208 399,-180 221,-180"/>
<text text-anchor="start" x="229" y="-196.8" font-family="Helvetica,sans-Serif" font-size="9.00">de.flashpixx.rrd_antlr4.engine.template.</text>
<text text-anchor="middle" x="310" y="-186.8" font-family="Helvetica,sans-Serif" font-size="9.00">IBaseTemplate.copy</text>
</a>
</g>
</g>
<!-- Node65&#45;&gt;Node66 -->
<g id="edge1" class="edge"><title>Node65&#45;&gt;Node66</title>
<path fill="none" stroke="midnightblue" d="M111.075,-114.218C135.073,-129.846 175.901,-154.752 214,-170 220.314,-172.527 226.972,-174.85 233.714,-176.971"/>
<polygon fill="midnightblue" stroke="midnightblue" points="233.036,-180.421 243.62,-179.934 235.042,-173.715 233.036,-180.421"/>
</g>
<!-- Node68 -->
<g id="node4" class="node"><title>Node68</title>
<g id="a_node4"><a xlink:href="../../df/ddb/interfacede_1_1flashpixx_1_1rrd__antlr4_1_1antlr_1_1IGrammarComplexElement.html#aa73d20b5f90dd7499fd8b0e895107b05" target="_top" xlink:title="documentation of the element ">
<polygon fill="none" stroke="black" points="214.5,-133 214.5,-161 405.5,-161 405.5,-133 214.5,-133"/>
<text text-anchor="start" x="222.5" y="-149.8" font-family="Helvetica,sans-Serif" font-size="9.00">de.flashpixx.rrd_antlr4.antlr.</text>
<text text-anchor="middle" x="310" y="-139.8" font-family="Helvetica,sans-Serif" font-size="9.00">IGrammarComplexElement.documentation</text>
</a>
</g>
</g>
<!-- Node65&#45;&gt;Node68 -->
<g id="edge3" class="edge"><title>Node65&#45;&gt;Node68</title>
<path fill="none" stroke="midnightblue" d="M155.411,-114.038C180.001,-119.315 208.153,-125.357 233.581,-130.814"/>
<polygon fill="midnightblue" stroke="midnightblue" points="233.036,-134.277 243.548,-132.953 234.505,-127.433 233.036,-134.277"/>
</g>
<!-- Node69 -->
<g id="node5" class="node"><title>Node69</title>
<g id="a_node5"><a xlink:href="../../df/ddb/interfacede_1_1flashpixx_1_1rrd__antlr4_1_1antlr_1_1IGrammarComplexElement.html#aeb2381bd8483a7b056d018c57690599e" target="_top" xlink:title="ID of the element. ">
<polygon fill="none" stroke="black" points="241.5,-86 241.5,-114 378.5,-114 378.5,-86 241.5,-86"/>
<text text-anchor="start" x="249.5" y="-102.8" font-family="Helvetica,sans-Serif" font-size="9.00">de.flashpixx.rrd_antlr4.antlr.</text>
<text text-anchor="middle" x="310" y="-92.8" font-family="Helvetica,sans-Serif" font-size="9.00">IGrammarComplexElement.id</text>
</a>
</g>
</g>
<!-- Node65&#45;&gt;Node69 -->
<g id="edge4" class="edge"><title>Node65&#45;&gt;Node69</title>
<path fill="none" stroke="midnightblue" d="M178.129,-100C195.551,-100 213.723,-100 230.789,-100"/>
<polygon fill="midnightblue" stroke="midnightblue" points="231.255,-103.5 241.255,-100 231.255,-96.5001 231.255,-103.5"/>
</g>
<!-- Node70 -->
<g id="node6" class="node"><title>Node70</title>
<g id="a_node6"><a xlink:href="../../d1/d8a/classde_1_1flashpixx_1_1rrd__antlr4_1_1CCommon.html#afff763186937c82606ef7ead705e9529" target="_top" xlink:title="returns the language depend string on any object ">
<polygon fill="none" stroke="black" points="442.5,-22 442.5,-50 567.5,-50 567.5,-22 442.5,-22"/>
<text text-anchor="start" x="450.5" y="-38.8" font-family="Helvetica,sans-Serif" font-size="9.00">de.flashpixx.rrd_antlr4.</text>
<text text-anchor="middle" x="505" y="-28.8" font-family="Helvetica,sans-Serif" font-size="9.00">CCommon.languagestring</text>
</a>
</g>
</g>
<!-- Node65&#45;&gt;Node70 -->
<g id="edge5" class="edge"><title>Node65&#45;&gt;Node70</title>
<path fill="none" stroke="midnightblue" d="M162.69,-85.9772C179.514,-82.8817 197.361,-79.718 214,-77 288.241,-64.8724 373.524,-53.0693 432.294,-45.2658"/>
<polygon fill="midnightblue" stroke="midnightblue" points="432.765,-48.7339 442.22,-43.9523 431.847,-41.7944 432.765,-48.7339"/>
</g>
<!-- Node71 -->
<g id="node7" class="node"><title>Node71</title>
<g id="a_node7"><a xlink:href="../../d5/dcc/classde_1_1flashpixx_1_1rrd__antlr4_1_1engine_1_1template_1_1IBaseTemplate.html#a44c4b6d4587b3a9e7a802aede6424465" target="_top" xlink:title="replaces the string within the file ">
<polygon fill="none" stroke="black" points="221,-0 221,-28 399,-28 399,-0 221,-0"/>
<text text-anchor="start" x="229" y="-16.8" font-family="Helvetica,sans-Serif" font-size="9.00">de.flashpixx.rrd_antlr4.engine.template.</text>
<text text-anchor="middle" x="310" y="-6.8" font-family="Helvetica,sans-Serif" font-size="9.00">IBaseTemplate.replace</text>
</a>
</g>
</g>
<!-- Node65&#45;&gt;Node71 -->
<g id="edge6" class="edge"><title>Node65&#45;&gt;Node71</title>
<path fill="none" stroke="midnightblue" d="M118.101,-85.7627C142.937,-73.5006 180.34,-55.8072 214,-43 225.081,-38.784 237.061,-34.7409 248.659,-31.0819"/>
<polygon fill="midnightblue" stroke="midnightblue" points="249.765,-34.4034 258.284,-28.1033 247.696,-27.7163 249.765,-34.4034"/>
</g>
<!-- Node67 -->
<g id="node3" class="node"><title>Node67</title>
<g id="a_node3"><a xlink:href="../../d1/d8a/classde_1_1flashpixx_1_1rrd__antlr4_1_1CCommon.html#a96c623ea7b0c0ea08382908043612f86" target="_top" xlink:title="returns root path of the resource ">
<polygon fill="none" stroke="black" points="450,-180 450,-208 560,-208 560,-180 450,-180"/>
<text text-anchor="start" x="458" y="-196.8" font-family="Helvetica,sans-Serif" font-size="9.00">de.flashpixx.rrd_antlr4.</text>
<text text-anchor="middle" x="505" y="-186.8" font-family="Helvetica,sans-Serif" font-size="9.00">CCommon.resourceurl</text>
</a>
</g>
</g>
<!-- Node66&#45;&gt;Node67 -->
<g id="edge2" class="edge"><title>Node66&#45;&gt;Node67</title>
<path fill="none" stroke="midnightblue" d="M399.028,-194C412.678,-194 426.556,-194 439.557,-194"/>
<polygon fill="midnightblue" stroke="midnightblue" points="439.775,-197.5 449.775,-194 439.775,-190.5 439.775,-197.5"/>
</g>
<!-- Node71&#45;&gt;Node70 -->
<g id="edge7" class="edge"><title>Node71&#45;&gt;Node70</title>
<path fill="none" stroke="midnightblue" d="M399.028,-24.0343C410.103,-25.2967 421.328,-26.5763 432.114,-27.8057"/>
<polygon fill="midnightblue" stroke="midnightblue" points="431.968,-31.3117 442.3,-28.9669 432.761,-24.3567 431.968,-31.3117"/>
</g>
</g>
</svg>
        <g id="navigator" transform="translate(0 0)" fill="#404254">
                <rect fill="#f2f5e9" fill-opacity="0.5" stroke="#606060" stroke-width=".5" x="0" y="0" width="60" height="60"/>
                <use id="zoomplus" xlink:href="#zoomPlus" x="17" y="9" onmousedown="handleZoom(evt,'in')"/>
                <use id="zoomminus" xlink:href="#zoomMin" x="42" y="9" onmousedown="handleZoom(evt,'out')"/>
                <use id="reset" xlink:href="#resetDef" x="30" y="36" onmousedown="handleReset()"/>
                <g id="arrowUp" xlink:href="#dirArrow" transform="translate(30 24)" onmousedown="handlePan(0,-1)">
                  <use xlink:href="#rim" fill="#404040">
                        <set attributeName="fill" to="#808080" begin="arrowUp.mouseover" end="arrowUp.mouseout"/>
                  </use>
                  <path fill="none" stroke="white" stroke-width="1.5" d="M0,-3.0v7 M-2.5,-0.5L0,-3.0L2.5,-0.5"/>
                </g>
                <g id="arrowRight" xlink:href="#dirArrow" transform="rotate(90) translate(36 -43)" onmousedown="handlePan(1,0)">
                  <use xlink:href="#rim" fill="#404040">
                        <set attributeName="fill" to="#808080" begin="arrowRight.mouseover" end="arrowRight.mouseout"/>
                  </use>
                  <path fill="none" stroke="white" stroke-width="1.5" d="M0,-3.0v7 M-2.5,-0.5L0,-3.0L2.5,-0.5"/>
                </g>
                <g id="arrowDown" xlink:href="#dirArrow" transform="rotate(180) translate(-30 -48)" onmousedown="handlePan(0,1)">
                  <use xlink:href="#rim" fill="#404040">
                        <set attributeName="fill" to="#808080" begin="arrowDown.mouseover" end="arrowDown.mouseout"/>
                  </use>
                  <path fill="none" stroke="white" stroke-width="1.5" d="M0,-3.0v7 M-2.5,-0.5L0,-3.0L2.5,-0.5"/>
                </g>
                <g id="arrowLeft" xlink:href="#dirArrow" transform="rotate(270) translate(-36 17)" onmousedown="handlePan(-1,0)">
                  <use xlink:href="#rim" fill="#404040">
                        <set attributeName="fill" to="#808080" begin="arrowLeft.mouseover" end="arrowLeft.mouseout"/>
                  </use>
                  <path fill="none" stroke="white" stroke-width="1.5" d="M0,-3.0v7 M-2.5,-0.5L0,-3.0L2.5,-0.5"/>
                </g>
        </g>
        <svg viewBox="0 0 15 15" width="100%" height="30px" preserveAspectRatio="xMaxYMin meet">
         <g id="arrow_out" transform="scale(0.3 0.3)">
          <a xlink:href="classde_1_1flashpixx_1_1rrd__antlr4_1_1engine_1_1template_1_1CLaTeXSyntax_af67e20f51735f5e721e494e7f9752c8d_cgraph_org.svg" target="_base">
           <rect id="button" ry="5" rx="5" y="6" x="6" height="38" width="38"
                fill="#f2f5e9" fill-opacity="0.5" stroke="#606060" stroke-width="1.0"/>
           <path id="arrow"
             d="M 11.500037,31.436501 C 11.940474,20.09759 22.043105,11.32322 32.158766,21.979434 L 37.068811,17.246167 C 37.068811,17.246167 37.088388,32 37.088388,32 L 22.160133,31.978069 C 22.160133,31.978069 26.997745,27.140456 26.997745,27.140456 C 18.528582,18.264221 13.291696,25.230495 11.500037,31.436501 z"
             style="fill:#404040;"/>
          </a>
         </g>
        </svg>
</svg>
