<?xml version="1.0" encoding="UTF-8" standalone="no"?>
<!DOCTYPE svg PUBLIC "-//W3C//DTD SVG 1.1//EN"
 "http://www.w3.org/Graphics/SVG/1.1/DTD/svg11.dtd">
<!-- Generated by graphviz version 2.36.0 (20140111.2315)
 -->
<!-- Title: de.flashpixx.rrd_antlr4.engine.template.CLaTeXSyntax.group Pages: 1 -->
<svg width="828pt" height="434pt"
 viewBox="0.00 0.00 828.00 434.00" xmlns="http://www.w3.org/2000/svg" xmlns:xlink="http://www.w3.org/1999/xlink">
<g id="graph0" class="graph" transform="scale(1 1) rotate(0) translate(4 430)">
<title>de.flashpixx.rrd_antlr4.engine.template.CLaTeXSyntax.group</title>
<!-- Node29 -->
<g id="node1" class="node"><title>Node29</title>
<polygon fill="#bfbfbf" stroke="black" points="0,-209 0,-237 178,-237 178,-209 0,-209"/>
<text text-anchor="start" x="8" y="-225.8" font-family="Helvetica,sans-Serif" font-size="9.00">de.flashpixx.rrd_antlr4.engine.template.</text>
<text text-anchor="middle" x="89" y="-215.8" font-family="Helvetica,sans-Serif" font-size="9.00">CLaTeXSyntax.group</text>
</g>
<!-- Node30 -->
<g id="node2" class="node"><title>Node30</title>
<g id="a_node2"><a xlink:href="../../dc/d3e/interfacede_1_1flashpixx_1_1rrd__antlr4_1_1antlr_1_1IGrammarGroup.html#a45298bbd21d0f9c9601a6eb47ccd3ae9" target="_top" xlink:title="returns the inner grammar element ">
<polygon fill="none" stroke="black" points="238,-233 238,-261 368,-261 368,-233 238,-233"/>
<text text-anchor="start" x="246" y="-249.8" font-family="Helvetica,sans-Serif" font-size="9.00">de.flashpixx.rrd_antlr4.antlr.</text>
<text text-anchor="middle" x="303" y="-239.8" font-family="Helvetica,sans-Serif" font-size="9.00">IGrammarGroup.element</text>
</a>
</g>
</g>
<!-- Node29&#45;&gt;Node30 -->
<g id="edge1" class="edge"><title>Node29&#45;&gt;Node30</title>
<path fill="none" stroke="midnightblue" d="M178.065,-232.97C194.49,-234.829 211.506,-236.755 227.474,-238.563"/>
<polygon fill="midnightblue" stroke="midnightblue" points="227.469,-242.085 237.8,-239.732 228.257,-235.129 227.469,-242.085"/>
</g>
<!-- Node31 -->
<g id="node3" class="node"><title>Node31</title>
<g id="a_node3"><a xlink:href="../../d5/dcc/classde_1_1flashpixx_1_1rrd__antlr4_1_1engine_1_1template_1_1IBaseTemplate.html#aba059762f4ecba4c0fa04758165dbf11" target="_top" xlink:title="calls the sub routines to format the lement ">
<polygon fill="none" stroke="black" points="214,-186 214,-214 392,-214 392,-186 214,-186"/>
<text text-anchor="start" x="222" y="-202.8" font-family="Helvetica,sans-Serif" font-size="9.00">de.flashpixx.rrd_antlr4.engine.template.</text>
<text text-anchor="middle" x="303" y="-192.8" font-family="Helvetica,sans-Serif" font-size="9.00">IBaseTemplate.map</text>
</a>
</g>
</g>
<!-- Node29&#45;&gt;Node31 -->
<g id="edge2" class="edge"><title>Node29&#45;&gt;Node31</title>
<path fill="none" stroke="midnightblue" d="M178.065,-213.446C186.569,-212.523 195.232,-211.583 203.825,-210.651"/>
<polygon fill="midnightblue" stroke="midnightblue" points="204.303,-214.12 213.868,-209.562 203.548,-207.161 204.303,-214.12"/>
</g>
<!-- Node32 -->
<g id="node4" class="node"><title>Node32</title>
<g id="a_node4"><a xlink:href="../../d5/dcc/classde_1_1flashpixx_1_1rrd__antlr4_1_1engine_1_1template_1_1IBaseTemplate.html#a1f104e1a0c40d1716200169010c13ed5" target="_top" xlink:title="sets the cardinality ">
<polygon fill="none" stroke="black" points="642,-398 642,-426 820,-426 820,-398 642,-398"/>
<text text-anchor="start" x="650" y="-414.8" font-family="Helvetica,sans-Serif" font-size="9.00">de.flashpixx.rrd_antlr4.engine.template.</text>
<text text-anchor="middle" x="731" y="-404.8" font-family="Helvetica,sans-Serif" font-size="9.00">IBaseTemplate.cardinality</text>
</a>
</g>
</g>
<!-- Node31&#45;&gt;Node32 -->
<g id="edge3" class="edge"><title>Node31&#45;&gt;Node32</title>
<path fill="none" stroke="midnightblue" d="M380.442,-214.026C384.642,-216.561 388.548,-219.529 392,-223 437.604,-268.863 380.204,-320.426 428,-364 482.184,-413.398 565.803,-423.466 631.326,-422.264"/>
<polygon fill="midnightblue" stroke="midnightblue" points="631.78,-425.753 641.68,-421.979 631.587,-418.756 631.78,-425.753"/>
</g>
<!-- Node33 -->
<g id="node5" class="node"><title>Node33</title>
<g id="a_node5"><a xlink:href="../../d5/dcc/classde_1_1flashpixx_1_1rrd__antlr4_1_1engine_1_1template_1_1IBaseTemplate.html#a2197fdee7c3dfb376324cf4682029b59" target="_top" xlink:title="creates a non&#45;terminal ">
<polygon fill="none" stroke="black" points="642,-116 642,-144 820,-144 820,-116 642,-116"/>
<text text-anchor="start" x="650" y="-132.8" font-family="Helvetica,sans-Serif" font-size="9.00">de.flashpixx.rrd_antlr4.engine.template.</text>
<text text-anchor="middle" x="731" y="-122.8" font-family="Helvetica,sans-Serif" font-size="9.00">IBaseTemplate.nonterminal</text>
</a>
</g>
</g>
<!-- Node31&#45;&gt;Node33 -->
<g id="edge4" class="edge"><title>Node31&#45;&gt;Node33</title>
<path fill="none" stroke="midnightblue" d="M389.439,-185.961C460.308,-174.316 561.004,-157.769 634.516,-145.69"/>
<polygon fill="midnightblue" stroke="midnightblue" points="635.403,-149.091 644.703,-144.016 634.268,-142.184 635.403,-149.091"/>
</g>
<!-- Node34 -->
<g id="node6" class="node"><title>Node34</title>
<g id="a_node6"><a xlink:href="../../d5/dcc/classde_1_1flashpixx_1_1rrd__antlr4_1_1engine_1_1template_1_1IBaseTemplate.html#a644daf65240deb390d1b3b8715491f13" target="_top" xlink:title="creates a rule ">
<polygon fill="none" stroke="black" points="428,-286 428,-314 606,-314 606,-286 428,-286"/>
<text text-anchor="start" x="436" y="-302.8" font-family="Helvetica,sans-Serif" font-size="9.00">de.flashpixx.rrd_antlr4.engine.template.</text>
<text text-anchor="middle" x="517" y="-292.8" font-family="Helvetica,sans-Serif" font-size="9.00">IBaseTemplate.rule</text>
</a>
</g>
</g>
<!-- Node31&#45;&gt;Node34 -->
<g id="edge5" class="edge"><title>Node31&#45;&gt;Node34</title>
<path fill="none" stroke="midnightblue" d="M392.258,-214.174C414.076,-229.006 406.425,-246.505 428,-262 441.183,-271.468 457.644,-277.977 472.752,-282.941"/>
<polygon fill="midnightblue" stroke="midnightblue" points="471.847,-286.325 482.436,-285.995 473.952,-279.649 471.847,-286.325"/>
</g>
<!-- Node36 -->
<g id="node8" class="node"><title>Node36</title>
<g id="a_node8"><a xlink:href="../../d5/dcc/classde_1_1flashpixx_1_1rrd__antlr4_1_1engine_1_1template_1_1IBaseTemplate.html#ada35faeaaf5646a4818d934aac5a6103" target="_top" xlink:title="creates a grammar sequence ">
<polygon fill="none" stroke="black" points="642,-351 642,-379 820,-379 820,-351 642,-351"/>
<text text-anchor="start" x="650" y="-367.8" font-family="Helvetica,sans-Serif" font-size="9.00">de.flashpixx.rrd_antlr4.engine.template.</text>
<text text-anchor="middle" x="731" y="-357.8" font-family="Helvetica,sans-Serif" font-size="9.00">IBaseTemplate.sequence</text>
</a>
</g>
</g>
<!-- Node31&#45;&gt;Node36 -->
<g id="edge23" class="edge"><title>Node31&#45;&gt;Node36</title>
<path fill="none" stroke="midnightblue" d="M379.651,-214.182C384.097,-216.675 388.27,-219.591 392,-223 426.869,-254.867 391.321,-293.235 428,-323 484.379,-368.751 567.039,-377.534 631.632,-375.828"/>
<polygon fill="midnightblue" stroke="midnightblue" points="631.967,-379.318 641.837,-375.468 631.72,-372.323 631.967,-379.318"/>
</g>
<!-- Node37 -->
<g id="node9" class="node"><title>Node37</title>
<g id="a_node9"><a xlink:href="../../d5/dcc/classde_1_1flashpixx_1_1rrd__antlr4_1_1engine_1_1template_1_1IBaseTemplate.html#a835ed841a393331edd830c5ed9b1c62d" target="_top" xlink:title="creates a grammar choice ">
<polygon fill="none" stroke="black" points="642,-257 642,-285 820,-285 820,-257 642,-257"/>
<text text-anchor="start" x="650" y="-273.8" font-family="Helvetica,sans-Serif" font-size="9.00">de.flashpixx.rrd_antlr4.engine.template.</text>
<text text-anchor="middle" x="731" y="-263.8" font-family="Helvetica,sans-Serif" font-size="9.00">IBaseTemplate.choice</text>
</a>
</g>
</g>
<!-- Node31&#45;&gt;Node37 -->
<g id="edge22" class="edge"><title>Node31&#45;&gt;Node37</title>
<path fill="none" stroke="midnightblue" d="M367.261,-214.013C386.699,-218.117 408.189,-222.45 428,-226 495.822,-238.152 572.627,-249.565 631.809,-257.857"/>
<polygon fill="midnightblue" stroke="midnightblue" points="631.51,-261.349 641.898,-259.264 632.477,-254.416 631.51,-261.349"/>
</g>
<!-- Node38 -->
<g id="node10" class="node"><title>Node38</title>
<g id="a_node10"><a xlink:href="../../d5/dcc/classde_1_1flashpixx_1_1rrd__antlr4_1_1engine_1_1template_1_1IBaseTemplate.html#a68821bc9abb712354d06330676499b0d" target="_top" xlink:title="crates a grammer group ">
<polygon fill="none" stroke="black" points="642,-210 642,-238 820,-238 820,-210 642,-210"/>
<text text-anchor="start" x="650" y="-226.8" font-family="Helvetica,sans-Serif" font-size="9.00">de.flashpixx.rrd_antlr4.engine.template.</text>
<text text-anchor="middle" x="731" y="-216.8" font-family="Helvetica,sans-Serif" font-size="9.00">IBaseTemplate.group</text>
</a>
</g>
</g>
<!-- Node31&#45;&gt;Node38 -->
<g id="edge21" class="edge"><title>Node31&#45;&gt;Node38</title>
<path fill="none" stroke="midnightblue" d="M392.009,-204.958C461.817,-208.891 559.342,-214.385 631.701,-218.462"/>
<polygon fill="midnightblue" stroke="midnightblue" points="631.558,-221.959 641.739,-219.028 631.951,-214.97 631.558,-221.959"/>
</g>
<!-- Node39 -->
<g id="node11" class="node"><title>Node39</title>
<g id="a_node11"><a xlink:href="../../d5/dcc/classde_1_1flashpixx_1_1rrd__antlr4_1_1engine_1_1template_1_1IBaseTemplate.html#af9d688420b32b00be68a53432053dda2" target="_top" xlink:title="creates a terminal ">
<polygon fill="none" stroke="black" points="642,-163 642,-191 820,-191 820,-163 642,-163"/>
<text text-anchor="start" x="650" y="-179.8" font-family="Helvetica,sans-Serif" font-size="9.00">de.flashpixx.rrd_antlr4.engine.template.</text>
<text text-anchor="middle" x="731" y="-169.8" font-family="Helvetica,sans-Serif" font-size="9.00">IBaseTemplate.terminalvalue</text>
</a>
</g>
</g>
<!-- Node31&#45;&gt;Node39 -->
<g id="edge14" class="edge"><title>Node31&#45;&gt;Node39</title>
<path fill="none" stroke="midnightblue" d="M392.009,-195.248C461.817,-191.479 559.342,-186.214 631.701,-182.307"/>
<polygon fill="midnightblue" stroke="midnightblue" points="631.942,-185.799 641.739,-181.765 631.564,-178.81 631.942,-185.799"/>
</g>
<!-- Node40 -->
<g id="node12" class="node"><title>Node40</title>
<g id="a_node12"><a xlink:href="../../dd/da7/interfacede_1_1flashpixx_1_1rrd__antlr4_1_1antlr_1_1IGrammarElement.html#ad38b129b0ef008046ccfe6eeae9cf0fe" target="_top" xlink:title="returns the cardinality ">
<polygon fill="none" stroke="black" points="449.5,-0 449.5,-28 584.5,-28 584.5,-0 449.5,-0"/>
<text text-anchor="start" x="457.5" y="-16.8" font-family="Helvetica,sans-Serif" font-size="9.00">de.flashpixx.rrd_antlr4.antlr.</text>
<text text-anchor="middle" x="517" y="-6.8" font-family="Helvetica,sans-Serif" font-size="9.00">IGrammarElement.cardinality</text>
</a>
</g>
</g>
<!-- Node31&#45;&gt;Node40 -->
<g id="edge13" class="edge"><title>Node31&#45;&gt;Node40</title>
<path fill="none" stroke="midnightblue" d="M311.533,-185.545C328.286,-154.778 371.644,-82.4149 428,-43 433.981,-38.8167 440.607,-35.2053 447.46,-32.0945"/>
<polygon fill="midnightblue" stroke="midnightblue" points="449.025,-35.2343 456.908,-28.156 446.332,-28.7732 449.025,-35.2343"/>
</g>
<!-- Node41 -->
<g id="node13" class="node"><title>Node41</title>
<g id="a_node13"><a xlink:href="../../d5/dcc/classde_1_1flashpixx_1_1rrd__antlr4_1_1engine_1_1template_1_1IBaseTemplate.html#aed006de3401e84ff45301922a9ebd7f3" target="_top" xlink:title="creates a terminal ">
<polygon fill="none" stroke="black" points="428,-86 428,-114 606,-114 606,-86 428,-86"/>
<text text-anchor="start" x="436" y="-102.8" font-family="Helvetica,sans-Serif" font-size="9.00">de.flashpixx.rrd_antlr4.engine.template.</text>
<text text-anchor="middle" x="517" y="-92.8" font-family="Helvetica,sans-Serif" font-size="9.00">IBaseTemplate.terminal</text>
</a>
</g>
</g>
<!-- Node31&#45;&gt;Node41 -->
<g id="edge15" class="edge"><title>Node31&#45;&gt;Node41</title>
<path fill="none" stroke="midnightblue" d="M316.934,-185.929C338.994,-168.062 385.627,-138.881 428,-120 429.566,-119.302 431.154,-118.612 432.759,-117.932"/>
<polygon fill="midnightblue" stroke="midnightblue" points="434.162,-121.14 442.114,-114.14 431.532,-114.653 434.162,-121.14"/>
</g>
<!-- Node43 -->
<g id="node15" class="node"><title>Node43</title>
<g id="a_node15"><a xlink:href="../../d5/dcc/classde_1_1flashpixx_1_1rrd__antlr4_1_1engine_1_1template_1_1IBaseTemplate.html#aad62be40b5226177829c66f72e638569" target="_top" xlink:title="creates a negation structure ">
<polygon fill="none" stroke="black" points="642,-22 642,-50 820,-50 820,-22 642,-22"/>
<text text-anchor="start" x="650" y="-38.8" font-family="Helvetica,sans-Serif" font-size="9.00">de.flashpixx.rrd_antlr4.engine.template.</text>
<text text-anchor="middle" x="731" y="-28.8" font-family="Helvetica,sans-Serif" font-size="9.00">IBaseTemplate.negation</text>
</a>
</g>
</g>
<!-- Node31&#45;&gt;Node43 -->
<g id="edge20" class="edge"><title>Node31&#45;&gt;Node43</title>
<path fill="none" stroke="midnightblue" d="M313.26,-185.893C331.589,-159.28 375.311,-102.009 428,-76 462.877,-58.7836 557.366,-48.1464 631.456,-42.2114"/>
<polygon fill="midnightblue" stroke="midnightblue" points="632.07,-45.6742 641.767,-41.405 631.524,-38.6955 632.07,-45.6742"/>
</g>
<!-- Node34&#45;&gt;Node31 -->
<g id="edge6" class="edge"><title>Node34&#45;&gt;Node31</title>
<path fill="none" stroke="midnightblue" d="M437.043,-285.774C433.905,-283.988 430.874,-282.064 428,-280 406.34,-264.445 414.137,-246.869 392,-232 381.964,-225.259 370.06,-220.493 358.303,-216.882"/>
<polygon fill="midnightblue" stroke="midnightblue" points="359.081,-213.465 348.505,-214.104 357.171,-220.199 359.081,-213.465"/>
</g>
<!-- Node34&#45;&gt;Node32 -->
<g id="edge8" class="edge"><title>Node34&#45;&gt;Node32</title>
<path fill="none" stroke="midnightblue" d="M534.07,-314.262C556.653,-333.604 599.76,-368.025 642,-388 647.011,-390.369 652.296,-392.54 657.687,-394.521"/>
<polygon fill="midnightblue" stroke="midnightblue" points="656.875,-397.942 667.47,-397.884 659.151,-391.323 656.875,-397.942"/>
</g>
<!-- Node35 -->
<g id="node7" class="node"><title>Node35</title>
<g id="a_node7"><a xlink:href="../../d3/d53/interfacede_1_1flashpixx_1_1rrd__antlr4_1_1antlr_1_1IGrammarRule.html#aeea0d2d97829ead065e371fad38a54c9" target="_top" xlink:title="returns child element ">
<polygon fill="none" stroke="black" points="666,-304 666,-332 796,-332 796,-304 666,-304"/>
<text text-anchor="start" x="674" y="-320.8" font-family="Helvetica,sans-Serif" font-size="9.00">de.flashpixx.rrd_antlr4.antlr.</text>
<text text-anchor="middle" x="731" y="-310.8" font-family="Helvetica,sans-Serif" font-size="9.00">IGrammarRule.children</text>
</a>
</g>
</g>
<!-- Node34&#45;&gt;Node35 -->
<g id="edge7" class="edge"><title>Node34&#45;&gt;Node35</title>
<path fill="none" stroke="midnightblue" d="M606.065,-307.477C622.49,-308.872 639.506,-310.317 655.474,-311.672"/>
<polygon fill="midnightblue" stroke="midnightblue" points="655.539,-315.19 665.8,-312.549 656.132,-308.215 655.539,-315.19"/>
</g>
<!-- Node34&#45;&gt;Node36 -->
<g id="edge9" class="edge"><title>Node34&#45;&gt;Node36</title>
<path fill="none" stroke="midnightblue" d="M558.597,-314.027C582.728,-322.213 613.995,-332.558 642,-341 650.064,-343.431 658.576,-345.888 667.002,-348.255"/>
<polygon fill="midnightblue" stroke="midnightblue" points="666.248,-351.678 676.821,-350.985 668.124,-344.934 666.248,-351.678"/>
</g>
<!-- Node34&#45;&gt;Node37 -->
<g id="edge10" class="edge"><title>Node34&#45;&gt;Node37</title>
<path fill="none" stroke="midnightblue" d="M606.065,-287.953C614.569,-286.79 623.232,-285.605 631.825,-284.43"/>
<polygon fill="midnightblue" stroke="midnightblue" points="632.434,-287.879 641.868,-283.056 631.485,-280.944 632.434,-287.879"/>
</g>
<!-- Node34&#45;&gt;Node38 -->
<g id="edge11" class="edge"><title>Node34&#45;&gt;Node38</title>
<path fill="none" stroke="midnightblue" d="M547.582,-285.883C572.405,-274.398 608.996,-258.297 642,-247 648.324,-244.835 654.962,-242.758 661.638,-240.798"/>
<polygon fill="midnightblue" stroke="midnightblue" points="662.756,-244.119 671.414,-238.014 660.838,-237.387 662.756,-244.119"/>
</g>
<!-- Node34&#45;&gt;Node39 -->
<g id="edge12" class="edge"><title>Node34&#45;&gt;Node39</title>
<path fill="none" stroke="midnightblue" d="M531.475,-285.803C552.865,-264.099 596.812,-222.792 642,-200 645.807,-198.08 649.789,-196.309 653.868,-194.677"/>
<polygon fill="midnightblue" stroke="midnightblue" points="655.352,-197.86 663.524,-191.117 652.931,-191.293 655.352,-197.86"/>
</g>
<!-- Node41&#45;&gt;Node31 -->
<g id="edge16" class="edge"><title>Node41&#45;&gt;Node31</title>
<path fill="none" stroke="midnightblue" d="M491.602,-114.064C473.658,-120.797 448.865,-128.703 428,-138 399.895,-150.523 369.915,-167.579 346.475,-180.811"/>
<polygon fill="midnightblue" stroke="midnightblue" points="344.503,-177.904 337.505,-185.859 347.937,-184.004 344.503,-177.904"/>
</g>
<!-- Node41&#45;&gt;Node33 -->
<g id="edge18" class="edge"><title>Node41&#45;&gt;Node33</title>
<path fill="none" stroke="midnightblue" d="M606.065,-112.462C614.569,-113.665 623.232,-114.891 631.825,-116.107"/>
<polygon fill="midnightblue" stroke="midnightblue" points="631.476,-119.593 641.868,-117.528 632.457,-112.662 631.476,-119.593"/>
</g>
<!-- Node42 -->
<g id="node14" class="node"><title>Node42</title>
<g id="a_node14"><a xlink:href="../../da/d3c/interfacede_1_1flashpixx_1_1rrd__antlr4_1_1antlr_1_1IGrammarTerminal.html#a5335c08fcf626be523cb17e1e50d131a" target="_top" xlink:title="terminal alternatives ">
<polygon fill="none" stroke="black" points="666,-69 666,-97 796,-97 796,-69 666,-69"/>
<text text-anchor="start" x="674" y="-85.8" font-family="Helvetica,sans-Serif" font-size="9.00">de.flashpixx.rrd_antlr4.antlr.</text>
<text text-anchor="middle" x="731" y="-75.8" font-family="Helvetica,sans-Serif" font-size="9.00">IGrammarTerminal.children</text>
</a>
</g>
</g>
<!-- Node41&#45;&gt;Node42 -->
<g id="edge17" class="edge"><title>Node41&#45;&gt;Node42</title>
<path fill="none" stroke="midnightblue" d="M606.065,-92.9382C622.49,-91.6211 639.506,-90.2566 655.474,-88.9761"/>
<polygon fill="midnightblue" stroke="midnightblue" points="656.111,-92.4363 665.8,-88.1481 655.552,-85.4587 656.111,-92.4363"/>
</g>
<!-- Node41&#45;&gt;Node43 -->
<g id="edge19" class="edge"><title>Node41&#45;&gt;Node43</title>
<path fill="none" stroke="midnightblue" d="M560.978,-85.8692C575.302,-81.1511 591.342,-75.8584 606,-71 622.009,-65.694 625.832,-63.8017 642,-59 649.157,-56.8744 656.672,-54.7493 664.169,-52.6972"/>
<polygon fill="midnightblue" stroke="midnightblue" points="665.241,-56.0334 673.982,-50.0475 663.416,-49.2754 665.241,-56.0334"/>
</g>
</g>
</svg>
