<?xml version="1.0" encoding="UTF-8" standalone="no"?>
<!DOCTYPE svg PUBLIC "-//W3C//DTD SVG 1.1//EN"
 "http://www.w3.org/Graphics/SVG/1.1/DTD/svg11.dtd">
<!-- Generated by graphviz version 2.36.0 (20140111.2315)
 -->
<!-- Title: de.flashpixx.rrd_antlr4.engine.template.CLaTeXSyntax.negation Pages: 1 -->
<!--zoomable 434 -->
<svg id="main" version="1.1" xmlns="http://www.w3.org/2000/svg" xmlns:xlink="http://www.w3.org/1999/xlink" xml:space="preserve" onload="init(evt)">
<style type="text/css"><![CDATA[
.edge:hover path { stroke: red; }
.edge:hover polygon { stroke: red; fill: red; }
]]></style>
<script type="text/javascript"><![CDATA[
var edges = document.getElementsByTagName('g');
if (edges && edges.length) {
  for (var i=0;i<edges.length;i++) {
    if (edges[i].id.substr(0,4)=='edge') {
      edges[i].setAttribute('class','edge');
    }
  }
}
]]></script>
        <defs>
                <circle id="rim" cx="0" cy="0" r="7"/>
                <circle id="rim2" cx="0" cy="0" r="3.5"/>
                <g id="zoomPlus">
                        <use xlink:href="#rim" fill="#404040">
                                <set attributeName="fill" to="#808080" begin="zoomplus.mouseover" end="zoomplus.mouseout"/>
                        </use>
                        <path d="M-4,0h8M0,-4v8" fill="none" stroke="white" stroke-width="1.5" pointer-events="none"/>
                </g>
                <g id="zoomMin">
                        <use xlink:href="#rim" fill="#404040">
                                <set attributeName="fill" to="#808080" begin="zoomminus.mouseover" end="zoomminus.mouseout"/>
                        </use>
                        <path d="M-4,0h8" fill="none" stroke="white" stroke-width="1.5" pointer-events="none"/>
                </g>
                <g id="dirArrow">
                        <path fill="none" stroke="white" stroke-width="1.5" d="M0,-3.0v7 M-2.5,-0.5L0,-3.0L2.5,-0.5"/>
                </g>
               <g id="resetDef">
                       <use xlink:href="#rim2" fill="#404040">
                               <set attributeName="fill" to="#808080" begin="reset.mouseover" end="reset.mouseout"/>
                       </use>
               </g>
        </defs>

<script type="text/javascript">
var viewWidth = 828;
var viewHeight = 434;
var sectionId = 'dynsection-7';
</script>
<script xlink:href="../../svgpan.js"/>
<svg id="graph" class="graph">
<g id="viewport">
<title>de.flashpixx.rrd_antlr4.engine.template.CLaTeXSyntax.negation</title>
<!-- Node45 -->
<g id="node1" class="node"><title>Node45</title>
<polygon fill="#bfbfbf" stroke="black" points="0,-209 0,-237 178,-237 178,-209 0,-209"/>
<text text-anchor="start" x="8" y="-225.8" font-family="Helvetica,sans-Serif" font-size="9.00">de.flashpixx.rrd_antlr4.engine.template.</text>
<text text-anchor="middle" x="89" y="-215.8" font-family="Helvetica,sans-Serif" font-size="9.00">CLaTeXSyntax.negation</text>
</g>
<!-- Node46 -->
<g id="node2" class="node"><title>Node46</title>
<g id="a_node2"><a xlink:href="../../d1/d8a/classde_1_1flashpixx_1_1rrd__antlr4_1_1CCommon.html#afff763186937c82606ef7ead705e9529" target="_top" xlink:title="returns the language depend string on any object ">
<polygon fill="none" stroke="black" points="240.5,-233 240.5,-261 365.5,-261 365.5,-233 240.5,-233"/>
<text text-anchor="start" x="248.5" y="-249.8" font-family="Helvetica,sans-Serif" font-size="9.00">de.flashpixx.rrd_antlr4.</text>
<text text-anchor="middle" x="303" y="-239.8" font-family="Helvetica,sans-Serif" font-size="9.00">CCommon.languagestring</text>
</a>
</g>
</g>
<!-- Node45&#45;&gt;Node46 -->
<g id="edge1" class="edge"><title>Node45&#45;&gt;Node46</title>
<path fill="none" stroke="midnightblue" d="M178.065,-232.97C195.4,-234.932 213.394,-236.969 230.119,-238.863"/>
<polygon fill="midnightblue" stroke="midnightblue" points="230.021,-242.374 240.352,-240.021 230.809,-235.418 230.021,-242.374"/>
</g>
<!-- Node47 -->
<g id="node3" class="node"><title>Node47</title>
<g id="a_node3"><a xlink:href="../../d5/dcc/classde_1_1flashpixx_1_1rrd__antlr4_1_1engine_1_1template_1_1IBaseTemplate.html#aba059762f4ecba4c0fa04758165dbf11" target="_top" xlink:title="calls the sub routines to format the lement ">
<polygon fill="none" stroke="black" points="214,-186 214,-214 392,-214 392,-186 214,-186"/>
<text text-anchor="start" x="222" y="-202.8" font-family="Helvetica,sans-Serif" font-size="9.00">de.flashpixx.rrd_antlr4.engine.template.</text>
<text text-anchor="middle" x="303" y="-192.8" font-family="Helvetica,sans-Serif" font-size="9.00">IBaseTemplate.map</text>
</a>
</g>
</g>
<!-- Node45&#45;&gt;Node47 -->
<g id="edge2" class="edge"><title>Node45&#45;&gt;Node47</title>
<path fill="none" stroke="midnightblue" d="M178.065,-213.446C186.569,-212.523 195.232,-211.583 203.825,-210.651"/>
<polygon fill="midnightblue" stroke="midnightblue" points="204.303,-214.12 213.868,-209.562 203.548,-207.161 204.303,-214.12"/>
</g>
<!-- Node48 -->
<g id="node4" class="node"><title>Node48</title>
<g id="a_node4"><a xlink:href="../../d5/dcc/classde_1_1flashpixx_1_1rrd__antlr4_1_1engine_1_1template_1_1IBaseTemplate.html#a1f104e1a0c40d1716200169010c13ed5" target="_top" xlink:title="sets the cardinality ">
<polygon fill="none" stroke="black" points="642,-398 642,-426 820,-426 820,-398 642,-398"/>
<text text-anchor="start" x="650" y="-414.8" font-family="Helvetica,sans-Serif" font-size="9.00">de.flashpixx.rrd_antlr4.engine.template.</text>
<text text-anchor="middle" x="731" y="-404.8" font-family="Helvetica,sans-Serif" font-size="9.00">IBaseTemplate.cardinality</text>
</a>
</g>
</g>
<!-- Node47&#45;&gt;Node48 -->
<g id="edge3" class="edge"><title>Node47&#45;&gt;Node48</title>
<path fill="none" stroke="midnightblue" d="M380.442,-214.026C384.642,-216.561 388.548,-219.529 392,-223 437.604,-268.863 380.204,-320.426 428,-364 482.184,-413.398 565.803,-423.466 631.326,-422.264"/>
<polygon fill="midnightblue" stroke="midnightblue" points="631.78,-425.753 641.68,-421.979 631.587,-418.756 631.78,-425.753"/>
</g>
<!-- Node49 -->
<g id="node5" class="node"><title>Node49</title>
<g id="a_node5"><a xlink:href="../../d5/dcc/classde_1_1flashpixx_1_1rrd__antlr4_1_1engine_1_1template_1_1IBaseTemplate.html#a2197fdee7c3dfb376324cf4682029b59" target="_top" xlink:title="creates a non&#45;terminal ">
<polygon fill="none" stroke="black" points="642,-116 642,-144 820,-144 820,-116 642,-116"/>
<text text-anchor="start" x="650" y="-132.8" font-family="Helvetica,sans-Serif" font-size="9.00">de.flashpixx.rrd_antlr4.engine.template.</text>
<text text-anchor="middle" x="731" y="-122.8" font-family="Helvetica,sans-Serif" font-size="9.00">IBaseTemplate.nonterminal</text>
</a>
</g>
</g>
<!-- Node47&#45;&gt;Node49 -->
<g id="edge4" class="edge"><title>Node47&#45;&gt;Node49</title>
<path fill="none" stroke="midnightblue" d="M389.439,-185.961C460.308,-174.316 561.004,-157.769 634.516,-145.69"/>
<polygon fill="midnightblue" stroke="midnightblue" points="635.403,-149.091 644.703,-144.016 634.268,-142.184 635.403,-149.091"/>
</g>
<!-- Node50 -->
<g id="node6" class="node"><title>Node50</title>
<g id="a_node6"><a xlink:href="../../d5/dcc/classde_1_1flashpixx_1_1rrd__antlr4_1_1engine_1_1template_1_1IBaseTemplate.html#a644daf65240deb390d1b3b8715491f13" target="_top" xlink:title="creates a rule ">
<polygon fill="none" stroke="black" points="428,-286 428,-314 606,-314 606,-286 428,-286"/>
<text text-anchor="start" x="436" y="-302.8" font-family="Helvetica,sans-Serif" font-size="9.00">de.flashpixx.rrd_antlr4.engine.template.</text>
<text text-anchor="middle" x="517" y="-292.8" font-family="Helvetica,sans-Serif" font-size="9.00">IBaseTemplate.rule</text>
</a>
</g>
</g>
<!-- Node47&#45;&gt;Node50 -->
<g id="edge5" class="edge"><title>Node47&#45;&gt;Node50</title>
<path fill="none" stroke="midnightblue" d="M392.258,-214.174C414.076,-229.006 406.425,-246.505 428,-262 441.183,-271.468 457.644,-277.977 472.752,-282.941"/>
<polygon fill="midnightblue" stroke="midnightblue" points="471.847,-286.325 482.436,-285.995 473.952,-279.649 471.847,-286.325"/>
</g>
<!-- Node52 -->
<g id="node8" class="node"><title>Node52</title>
<g id="a_node8"><a xlink:href="../../d5/dcc/classde_1_1flashpixx_1_1rrd__antlr4_1_1engine_1_1template_1_1IBaseTemplate.html#ada35faeaaf5646a4818d934aac5a6103" target="_top" xlink:title="creates a grammar sequence ">
<polygon fill="none" stroke="black" points="642,-351 642,-379 820,-379 820,-351 642,-351"/>
<text text-anchor="start" x="650" y="-367.8" font-family="Helvetica,sans-Serif" font-size="9.00">de.flashpixx.rrd_antlr4.engine.template.</text>
<text text-anchor="middle" x="731" y="-357.8" font-family="Helvetica,sans-Serif" font-size="9.00">IBaseTemplate.sequence</text>
</a>
</g>
</g>
<!-- Node47&#45;&gt;Node52 -->
<g id="edge23" class="edge"><title>Node47&#45;&gt;Node52</title>
<path fill="none" stroke="midnightblue" d="M379.651,-214.182C384.097,-216.675 388.27,-219.591 392,-223 426.869,-254.867 391.321,-293.235 428,-323 484.379,-368.751 567.039,-377.534 631.632,-375.828"/>
<polygon fill="midnightblue" stroke="midnightblue" points="631.967,-379.318 641.837,-375.468 631.72,-372.323 631.967,-379.318"/>
</g>
<!-- Node53 -->
<g id="node9" class="node"><title>Node53</title>
<g id="a_node9"><a xlink:href="../../d5/dcc/classde_1_1flashpixx_1_1rrd__antlr4_1_1engine_1_1template_1_1IBaseTemplate.html#a835ed841a393331edd830c5ed9b1c62d" target="_top" xlink:title="creates a grammar choice ">
<polygon fill="none" stroke="black" points="642,-257 642,-285 820,-285 820,-257 642,-257"/>
<text text-anchor="start" x="650" y="-273.8" font-family="Helvetica,sans-Serif" font-size="9.00">de.flashpixx.rrd_antlr4.engine.template.</text>
<text text-anchor="middle" x="731" y="-263.8" font-family="Helvetica,sans-Serif" font-size="9.00">IBaseTemplate.choice</text>
</a>
</g>
</g>
<!-- Node47&#45;&gt;Node53 -->
<g id="edge22" class="edge"><title>Node47&#45;&gt;Node53</title>
<path fill="none" stroke="midnightblue" d="M367.261,-214.013C386.699,-218.117 408.189,-222.45 428,-226 495.822,-238.152 572.627,-249.565 631.809,-257.857"/>
<polygon fill="midnightblue" stroke="midnightblue" points="631.51,-261.349 641.898,-259.264 632.477,-254.416 631.51,-261.349"/>
</g>
<!-- Node54 -->
<g id="node10" class="node"><title>Node54</title>
<g id="a_node10"><a xlink:href="../../d5/dcc/classde_1_1flashpixx_1_1rrd__antlr4_1_1engine_1_1template_1_1IBaseTemplate.html#a68821bc9abb712354d06330676499b0d" target="_top" xlink:title="crates a grammer group ">
<polygon fill="none" stroke="black" points="642,-210 642,-238 820,-238 820,-210 642,-210"/>
<text text-anchor="start" x="650" y="-226.8" font-family="Helvetica,sans-Serif" font-size="9.00">de.flashpixx.rrd_antlr4.engine.template.</text>
<text text-anchor="middle" x="731" y="-216.8" font-family="Helvetica,sans-Serif" font-size="9.00">IBaseTemplate.group</text>
</a>
</g>
</g>
<!-- Node47&#45;&gt;Node54 -->
<g id="edge21" class="edge"><title>Node47&#45;&gt;Node54</title>
<path fill="none" stroke="midnightblue" d="M392.009,-204.958C461.817,-208.891 559.342,-214.385 631.701,-218.462"/>
<polygon fill="midnightblue" stroke="midnightblue" points="631.558,-221.959 641.739,-219.028 631.951,-214.97 631.558,-221.959"/>
</g>
<!-- Node55 -->
<g id="node11" class="node"><title>Node55</title>
<g id="a_node11"><a xlink:href="../../d5/dcc/classde_1_1flashpixx_1_1rrd__antlr4_1_1engine_1_1template_1_1IBaseTemplate.html#af9d688420b32b00be68a53432053dda2" target="_top" xlink:title="creates a terminal ">
<polygon fill="none" stroke="black" points="642,-163 642,-191 820,-191 820,-163 642,-163"/>
<text text-anchor="start" x="650" y="-179.8" font-family="Helvetica,sans-Serif" font-size="9.00">de.flashpixx.rrd_antlr4.engine.template.</text>
<text text-anchor="middle" x="731" y="-169.8" font-family="Helvetica,sans-Serif" font-size="9.00">IBaseTemplate.terminalvalue</text>
</a>
</g>
</g>
<!-- Node47&#45;&gt;Node55 -->
<g id="edge14" class="edge"><title>Node47&#45;&gt;Node55</title>
<path fill="none" stroke="midnightblue" d="M392.009,-195.248C461.817,-191.479 559.342,-186.214 631.701,-182.307"/>
<polygon fill="midnightblue" stroke="midnightblue" points="631.942,-185.799 641.739,-181.765 631.564,-178.81 631.942,-185.799"/>
</g>
<!-- Node56 -->
<g id="node12" class="node"><title>Node56</title>
<g id="a_node12"><a xlink:href="../../dd/da7/interfacede_1_1flashpixx_1_1rrd__antlr4_1_1antlr_1_1IGrammarElement.html#ad38b129b0ef008046ccfe6eeae9cf0fe" target="_top" xlink:title="returns the cardinality ">
<polygon fill="none" stroke="black" points="449.5,-0 449.5,-28 584.5,-28 584.5,-0 449.5,-0"/>
<text text-anchor="start" x="457.5" y="-16.8" font-family="Helvetica,sans-Serif" font-size="9.00">de.flashpixx.rrd_antlr4.antlr.</text>
<text text-anchor="middle" x="517" y="-6.8" font-family="Helvetica,sans-Serif" font-size="9.00">IGrammarElement.cardinality</text>
</a>
</g>
</g>
<!-- Node47&#45;&gt;Node56 -->
<g id="edge13" class="edge"><title>Node47&#45;&gt;Node56</title>
<path fill="none" stroke="midnightblue" d="M311.533,-185.545C328.286,-154.778 371.644,-82.4149 428,-43 433.981,-38.8167 440.607,-35.2053 447.46,-32.0945"/>
<polygon fill="midnightblue" stroke="midnightblue" points="449.025,-35.2343 456.908,-28.156 446.332,-28.7732 449.025,-35.2343"/>
</g>
<!-- Node57 -->
<g id="node13" class="node"><title>Node57</title>
<g id="a_node13"><a xlink:href="../../d5/dcc/classde_1_1flashpixx_1_1rrd__antlr4_1_1engine_1_1template_1_1IBaseTemplate.html#aed006de3401e84ff45301922a9ebd7f3" target="_top" xlink:title="creates a terminal ">
<polygon fill="none" stroke="black" points="428,-86 428,-114 606,-114 606,-86 428,-86"/>
<text text-anchor="start" x="436" y="-102.8" font-family="Helvetica,sans-Serif" font-size="9.00">de.flashpixx.rrd_antlr4.engine.template.</text>
<text text-anchor="middle" x="517" y="-92.8" font-family="Helvetica,sans-Serif" font-size="9.00">IBaseTemplate.terminal</text>
</a>
</g>
</g>
<!-- Node47&#45;&gt;Node57 -->
<g id="edge15" class="edge"><title>Node47&#45;&gt;Node57</title>
<path fill="none" stroke="midnightblue" d="M316.934,-185.929C338.994,-168.062 385.627,-138.881 428,-120 429.566,-119.302 431.154,-118.612 432.759,-117.932"/>
<polygon fill="midnightblue" stroke="midnightblue" points="434.162,-121.14 442.114,-114.14 431.532,-114.653 434.162,-121.14"/>
</g>
<!-- Node59 -->
<g id="node15" class="node"><title>Node59</title>
<g id="a_node15"><a xlink:href="../../d5/dcc/classde_1_1flashpixx_1_1rrd__antlr4_1_1engine_1_1template_1_1IBaseTemplate.html#aad62be40b5226177829c66f72e638569" target="_top" xlink:title="creates a negation structure ">
<polygon fill="none" stroke="black" points="642,-22 642,-50 820,-50 820,-22 642,-22"/>
<text text-anchor="start" x="650" y="-38.8" font-family="Helvetica,sans-Serif" font-size="9.00">de.flashpixx.rrd_antlr4.engine.template.</text>
<text text-anchor="middle" x="731" y="-28.8" font-family="Helvetica,sans-Serif" font-size="9.00">IBaseTemplate.negation</text>
</a>
</g>
</g>
<!-- Node47&#45;&gt;Node59 -->
<g id="edge20" class="edge"><title>Node47&#45;&gt;Node59</title>
<path fill="none" stroke="midnightblue" d="M313.26,-185.893C331.589,-159.28 375.311,-102.009 428,-76 462.877,-58.7836 557.366,-48.1464 631.456,-42.2114"/>
<polygon fill="midnightblue" stroke="midnightblue" points="632.07,-45.6742 641.767,-41.405 631.524,-38.6955 632.07,-45.6742"/>
</g>
<!-- Node50&#45;&gt;Node47 -->
<g id="edge6" class="edge"><title>Node50&#45;&gt;Node47</title>
<path fill="none" stroke="midnightblue" d="M437.043,-285.774C433.905,-283.988 430.874,-282.064 428,-280 406.34,-264.445 414.137,-246.869 392,-232 381.964,-225.259 370.06,-220.493 358.303,-216.882"/>
<polygon fill="midnightblue" stroke="midnightblue" points="359.081,-213.465 348.505,-214.104 357.171,-220.199 359.081,-213.465"/>
</g>
<!-- Node50&#45;&gt;Node48 -->
<g id="edge8" class="edge"><title>Node50&#45;&gt;Node48</title>
<path fill="none" stroke="midnightblue" d="M534.07,-314.262C556.653,-333.604 599.76,-368.025 642,-388 647.011,-390.369 652.296,-392.54 657.687,-394.521"/>
<polygon fill="midnightblue" stroke="midnightblue" points="656.875,-397.942 667.47,-397.884 659.151,-391.323 656.875,-397.942"/>
</g>
<!-- Node51 -->
<g id="node7" class="node"><title>Node51</title>
<g id="a_node7"><a xlink:href="../../d3/d53/interfacede_1_1flashpixx_1_1rrd__antlr4_1_1antlr_1_1IGrammarRule.html#aeea0d2d97829ead065e371fad38a54c9" target="_top" xlink:title="returns child element ">
<polygon fill="none" stroke="black" points="666,-304 666,-332 796,-332 796,-304 666,-304"/>
<text text-anchor="start" x="674" y="-320.8" font-family="Helvetica,sans-Serif" font-size="9.00">de.flashpixx.rrd_antlr4.antlr.</text>
<text text-anchor="middle" x="731" y="-310.8" font-family="Helvetica,sans-Serif" font-size="9.00">IGrammarRule.children</text>
</a>
</g>
</g>
<!-- Node50&#45;&gt;Node51 -->
<g id="edge7" class="edge"><title>Node50&#45;&gt;Node51</title>
<path fill="none" stroke="midnightblue" d="M606.065,-307.477C622.49,-308.872 639.506,-310.317 655.474,-311.672"/>
<polygon fill="midnightblue" stroke="midnightblue" points="655.539,-315.19 665.8,-312.549 656.132,-308.215 655.539,-315.19"/>
</g>
<!-- Node50&#45;&gt;Node52 -->
<g id="edge9" class="edge"><title>Node50&#45;&gt;Node52</title>
<path fill="none" stroke="midnightblue" d="M558.597,-314.027C582.728,-322.213 613.995,-332.558 642,-341 650.064,-343.431 658.576,-345.888 667.002,-348.255"/>
<polygon fill="midnightblue" stroke="midnightblue" points="666.248,-351.678 676.821,-350.985 668.124,-344.934 666.248,-351.678"/>
</g>
<!-- Node50&#45;&gt;Node53 -->
<g id="edge10" class="edge"><title>Node50&#45;&gt;Node53</title>
<path fill="none" stroke="midnightblue" d="M606.065,-287.953C614.569,-286.79 623.232,-285.605 631.825,-284.43"/>
<polygon fill="midnightblue" stroke="midnightblue" points="632.434,-287.879 641.868,-283.056 631.485,-280.944 632.434,-287.879"/>
</g>
<!-- Node50&#45;&gt;Node54 -->
<g id="edge11" class="edge"><title>Node50&#45;&gt;Node54</title>
<path fill="none" stroke="midnightblue" d="M547.582,-285.883C572.405,-274.398 608.996,-258.297 642,-247 648.324,-244.835 654.962,-242.758 661.638,-240.798"/>
<polygon fill="midnightblue" stroke="midnightblue" points="662.756,-244.119 671.414,-238.014 660.838,-237.387 662.756,-244.119"/>
</g>
<!-- Node50&#45;&gt;Node55 -->
<g id="edge12" class="edge"><title>Node50&#45;&gt;Node55</title>
<path fill="none" stroke="midnightblue" d="M531.475,-285.803C552.865,-264.099 596.812,-222.792 642,-200 645.807,-198.08 649.789,-196.309 653.868,-194.677"/>
<polygon fill="midnightblue" stroke="midnightblue" points="655.352,-197.86 663.524,-191.117 652.931,-191.293 655.352,-197.86"/>
</g>
<!-- Node57&#45;&gt;Node47 -->
<g id="edge16" class="edge"><title>Node57&#45;&gt;Node47</title>
<path fill="none" stroke="midnightblue" d="M491.602,-114.064C473.658,-120.797 448.865,-128.703 428,-138 399.895,-150.523 369.915,-167.579 346.475,-180.811"/>
<polygon fill="midnightblue" stroke="midnightblue" points="344.503,-177.904 337.505,-185.859 347.937,-184.004 344.503,-177.904"/>
</g>
<!-- Node57&#45;&gt;Node49 -->
<g id="edge18" class="edge"><title>Node57&#45;&gt;Node49</title>
<path fill="none" stroke="midnightblue" d="M606.065,-112.462C614.569,-113.665 623.232,-114.891 631.825,-116.107"/>
<polygon fill="midnightblue" stroke="midnightblue" points="631.476,-119.593 641.868,-117.528 632.457,-112.662 631.476,-119.593"/>
</g>
<!-- Node58 -->
<g id="node14" class="node"><title>Node58</title>
<g id="a_node14"><a xlink:href="../../da/d3c/interfacede_1_1flashpixx_1_1rrd__antlr4_1_1antlr_1_1IGrammarTerminal.html#a5335c08fcf626be523cb17e1e50d131a" target="_top" xlink:title="terminal alternatives ">
<polygon fill="none" stroke="black" points="666,-69 666,-97 796,-97 796,-69 666,-69"/>
<text text-anchor="start" x="674" y="-85.8" font-family="Helvetica,sans-Serif" font-size="9.00">de.flashpixx.rrd_antlr4.antlr.</text>
<text text-anchor="middle" x="731" y="-75.8" font-family="Helvetica,sans-Serif" font-size="9.00">IGrammarTerminal.children</text>
</a>
</g>
</g>
<!-- Node57&#45;&gt;Node58 -->
<g id="edge17" class="edge"><title>Node57&#45;&gt;Node58</title>
<path fill="none" stroke="midnightblue" d="M606.065,-92.9382C622.49,-91.6211 639.506,-90.2566 655.474,-88.9761"/>
<polygon fill="midnightblue" stroke="midnightblue" points="656.111,-92.4363 665.8,-88.1481 655.552,-85.4587 656.111,-92.4363"/>
</g>
<!-- Node57&#45;&gt;Node59 -->
<g id="edge19" class="edge"><title>Node57&#45;&gt;Node59</title>
<path fill="none" stroke="midnightblue" d="M560.978,-85.8692C575.302,-81.1511 591.342,-75.8584 606,-71 622.009,-65.694 625.832,-63.8017 642,-59 649.157,-56.8744 656.672,-54.7493 664.169,-52.6972"/>
<polygon fill="midnightblue" stroke="midnightblue" points="665.241,-56.0334 673.982,-50.0475 663.416,-49.2754 665.241,-56.0334"/>
</g>
</g>
</svg>
        <g id="navigator" transform="translate(0 0)" fill="#404254">
                <rect fill="#f2f5e9" fill-opacity="0.5" stroke="#606060" stroke-width=".5" x="0" y="0" width="60" height="60"/>
                <use id="zoomplus" xlink:href="#zoomPlus" x="17" y="9" onmousedown="handleZoom(evt,'in')"/>
                <use id="zoomminus" xlink:href="#zoomMin" x="42" y="9" onmousedown="handleZoom(evt,'out')"/>
                <use id="reset" xlink:href="#resetDef" x="30" y="36" onmousedown="handleReset()"/>
                <g id="arrowUp" xlink:href="#dirArrow" transform="translate(30 24)" onmousedown="handlePan(0,-1)">
                  <use xlink:href="#rim" fill="#404040">
                        <set attributeName="fill" to="#808080" begin="arrowUp.mouseover" end="arrowUp.mouseout"/>
                  </use>
                  <path fill="none" stroke="white" stroke-width="1.5" d="M0,-3.0v7 M-2.5,-0.5L0,-3.0L2.5,-0.5"/>
                </g>
                <g id="arrowRight" xlink:href="#dirArrow" transform="rotate(90) translate(36 -43)" onmousedown="handlePan(1,0)">
                  <use xlink:href="#rim" fill="#404040">
                        <set attributeName="fill" to="#808080" begin="arrowRight.mouseover" end="arrowRight.mouseout"/>
                  </use>
                  <path fill="none" stroke="white" stroke-width="1.5" d="M0,-3.0v7 M-2.5,-0.5L0,-3.0L2.5,-0.5"/>
                </g>
                <g id="arrowDown" xlink:href="#dirArrow" transform="rotate(180) translate(-30 -48)" onmousedown="handlePan(0,1)">
                  <use xlink:href="#rim" fill="#404040">
                        <set attributeName="fill" to="#808080" begin="arrowDown.mouseover" end="arrowDown.mouseout"/>
                  </use>
                  <path fill="none" stroke="white" stroke-width="1.5" d="M0,-3.0v7 M-2.5,-0.5L0,-3.0L2.5,-0.5"/>
                </g>
                <g id="arrowLeft" xlink:href="#dirArrow" transform="rotate(270) translate(-36 17)" onmousedown="handlePan(-1,0)">
                  <use xlink:href="#rim" fill="#404040">
                        <set attributeName="fill" to="#808080" begin="arrowLeft.mouseover" end="arrowLeft.mouseout"/>
                  </use>
                  <path fill="none" stroke="white" stroke-width="1.5" d="M0,-3.0v7 M-2.5,-0.5L0,-3.0L2.5,-0.5"/>
                </g>
        </g>
        <svg viewBox="0 0 15 15" width="100%" height="30px" preserveAspectRatio="xMaxYMin meet">
         <g id="arrow_out" transform="scale(0.3 0.3)">
          <a xlink:href="classde_1_1flashpixx_1_1rrd__antlr4_1_1engine_1_1template_1_1CLaTeXSyntax_acc257f441259efa9986735bd21ae76ec_cgraph_org.svg" target="_base">
           <rect id="button" ry="5" rx="5" y="6" x="6" height="38" width="38"
                fill="#f2f5e9" fill-opacity="0.5" stroke="#606060" stroke-width="1.0"/>
           <path id="arrow"
             d="M 11.500037,31.436501 C 11.940474,20.09759 22.043105,11.32322 32.158766,21.979434 L 37.068811,17.246167 C 37.068811,17.246167 37.088388,32 37.088388,32 L 22.160133,31.978069 C 22.160133,31.978069 26.997745,27.140456 26.997745,27.140456 C 18.528582,18.264221 13.291696,25.230495 11.500037,31.436501 z"
             style="fill:#404040;"/>
          </a>
         </g>
        </svg>
</svg>
