<?xml version="1.0" encoding="UTF-8" standalone="no"?>
<!DOCTYPE svg PUBLIC "-//W3C//DTD SVG 1.1//EN"
 "http://www.w3.org/Graphics/SVG/1.1/DTD/svg11.dtd">
<!-- Generated by graphviz version 2.36.0 (20140111.2315)
 -->
<!-- Title: de.flashpixx.rrd_antlr4.antlr.IGrammarBaseCollection Pages: 1 -->
<!--zoomable 480 -->
<svg id="main" version="1.1" xmlns="http://www.w3.org/2000/svg" xmlns:xlink="http://www.w3.org/1999/xlink" xml:space="preserve" onload="init(evt)">
<style type="text/css"><![CDATA[
.edge:hover path { stroke: red; }
.edge:hover polygon { stroke: red; fill: red; }
]]></style>
<script type="text/javascript"><![CDATA[
var edges = document.getElementsByTagName('g');
if (edges && edges.length) {
  for (var i=0;i<edges.length;i++) {
    if (edges[i].id.substr(0,4)=='edge') {
      edges[i].setAttribute('class','edge');
    }
  }
}
]]></script>
        <defs>
                <circle id="rim" cx="0" cy="0" r="7"/>
                <circle id="rim2" cx="0" cy="0" r="3.5"/>
                <g id="zoomPlus">
                        <use xlink:href="#rim" fill="#404040">
                                <set attributeName="fill" to="#808080" begin="zoomplus.mouseover" end="zoomplus.mouseout"/>
                        </use>
                        <path d="M-4,0h8M0,-4v8" fill="none" stroke="white" stroke-width="1.5" pointer-events="none"/>
                </g>
                <g id="zoomMin">
                        <use xlink:href="#rim" fill="#404040">
                                <set attributeName="fill" to="#808080" begin="zoomminus.mouseover" end="zoomminus.mouseout"/>
                        </use>
                        <path d="M-4,0h8" fill="none" stroke="white" stroke-width="1.5" pointer-events="none"/>
                </g>
                <g id="dirArrow">
                        <path fill="none" stroke="white" stroke-width="1.5" d="M0,-3.0v7 M-2.5,-0.5L0,-3.0L2.5,-0.5"/>
                </g>
               <g id="resetDef">
                       <use xlink:href="#rim2" fill="#404040">
                               <set attributeName="fill" to="#808080" begin="reset.mouseover" end="reset.mouseout"/>
                       </use>
               </g>
        </defs>

<script type="text/javascript">
var viewWidth = 286;
var viewHeight = 480;
var sectionId = 'dynsection-0';
</script>
<script xlink:href="../../svgpan.js"/>
<svg id="graph" class="graph">
<g id="viewport">
<title>de.flashpixx.rrd_antlr4.antlr.IGrammarBaseCollection</title>
<!-- Node0 -->
<g id="node1" class="node"><title>Node0</title>
<polygon fill="#bfbfbf" stroke="black" points="72.5,-133 72.5,-257 205.5,-257 205.5,-133 72.5,-133"/>
<text text-anchor="start" x="80.5" y="-245.8" font-family="Helvetica,sans-Serif" font-size="9.00">de.flashpixx.rrd_antlr4.antlr.</text>
<text text-anchor="middle" x="139" y="-235.8" font-family="Helvetica,sans-Serif" font-size="9.00">IGrammarBaseCollection</text>
<polyline fill="none" stroke="black" points="72.5,-229 205.5,-229 "/>
<text text-anchor="start" x="80.5" y="-217.8" font-family="Helvetica,sans-Serif" font-size="9.00"># m_cardinality</text>
<text text-anchor="start" x="80.5" y="-207.8" font-family="Helvetica,sans-Serif" font-size="9.00"># m_data</text>
<polyline fill="none" stroke="black" points="72.5,-201 205.5,-201 "/>
<text text-anchor="start" x="80.5" y="-189.8" font-family="Helvetica,sans-Serif" font-size="9.00">+ cardinality()</text>
<text text-anchor="start" x="80.5" y="-179.8" font-family="Helvetica,sans-Serif" font-size="9.00">+ cardinality()</text>
<text text-anchor="start" x="80.5" y="-169.8" font-family="Helvetica,sans-Serif" font-size="9.00">+ equals()</text>
<text text-anchor="start" x="80.5" y="-159.8" font-family="Helvetica,sans-Serif" font-size="9.00">+ get()</text>
<text text-anchor="start" x="80.5" y="-149.8" font-family="Helvetica,sans-Serif" font-size="9.00">+ hashCode()</text>
<text text-anchor="start" x="80.5" y="-139.8" font-family="Helvetica,sans-Serif" font-size="9.00"># IGrammarBaseCollection()</text>
</g>
<!-- Node3 -->
<g id="node4" class="node"><title>Node3</title>
<g id="a_node4"><a xlink:href="../../df/d2c/classde_1_1flashpixx_1_1rrd__antlr4_1_1antlr_1_1CGrammarChoice.html" target="_top" xlink:title="grammar choice ">
<polygon fill="none" stroke="black" points="0,-1 0,-95 130,-95 130,-1 0,-1"/>
<text text-anchor="start" x="8" y="-83.8" font-family="Helvetica,sans-Serif" font-size="9.00">de.flashpixx.rrd_antlr4.antlr.</text>
<text text-anchor="middle" x="65" y="-73.8" font-family="Helvetica,sans-Serif" font-size="9.00">CGrammarChoice</text>
<polyline fill="none" stroke="black" points="0,-67 130,-67 "/>
<text text-anchor="middle" x="65" y="-55.8" font-family="Helvetica,sans-Serif" font-size="9.00"> </text>
<polyline fill="none" stroke="black" points="0,-49 130,-49 "/>
<text text-anchor="start" x="8" y="-37.8" font-family="Helvetica,sans-Serif" font-size="9.00">+ CGrammarChoice()</text>
<text text-anchor="start" x="8" y="-27.8" font-family="Helvetica,sans-Serif" font-size="9.00">+ CGrammarChoice()</text>
<text text-anchor="start" x="8" y="-17.8" font-family="Helvetica,sans-Serif" font-size="9.00">+ CGrammarChoice()</text>
<text text-anchor="start" x="8" y="-7.8" font-family="Helvetica,sans-Serif" font-size="9.00">+ toString()</text>
</a>
</g>
</g>
<!-- Node0&#45;&gt;Node3 -->
<g id="edge3" class="edge"><title>Node0&#45;&gt;Node3</title>
<path fill="none" stroke="midnightblue" d="M103.247,-123.944C98.2344,-114.121 93.1909,-104.239 88.4855,-95.019"/>
<polygon fill="none" stroke="midnightblue" points="100.169,-125.611 107.832,-132.927 106.404,-122.429 100.169,-125.611"/>
</g>
<!-- Node4 -->
<g id="node5" class="node"><title>Node4</title>
<g id="a_node5"><a xlink:href="../../dc/df3/classde_1_1flashpixx_1_1rrd__antlr4_1_1antlr_1_1CGrammarSequence.html" target="_top" xlink:title="grammar sequence ">
<polygon fill="none" stroke="black" points="148,-1 148,-95 278,-95 278,-1 148,-1"/>
<text text-anchor="start" x="156" y="-83.8" font-family="Helvetica,sans-Serif" font-size="9.00">de.flashpixx.rrd_antlr4.antlr.</text>
<text text-anchor="middle" x="213" y="-73.8" font-family="Helvetica,sans-Serif" font-size="9.00">CGrammarSequence</text>
<polyline fill="none" stroke="black" points="148,-67 278,-67 "/>
<text text-anchor="middle" x="213" y="-55.8" font-family="Helvetica,sans-Serif" font-size="9.00"> </text>
<polyline fill="none" stroke="black" points="148,-49 278,-49 "/>
<text text-anchor="start" x="156" y="-37.8" font-family="Helvetica,sans-Serif" font-size="9.00">+ CGrammarSequence()</text>
<text text-anchor="start" x="156" y="-27.8" font-family="Helvetica,sans-Serif" font-size="9.00">+ CGrammarSequence()</text>
<text text-anchor="start" x="156" y="-17.8" font-family="Helvetica,sans-Serif" font-size="9.00">+ CGrammarSequence()</text>
<text text-anchor="start" x="156" y="-7.8" font-family="Helvetica,sans-Serif" font-size="9.00">+ toString()</text>
</a>
</g>
</g>
<!-- Node0&#45;&gt;Node4 -->
<g id="edge4" class="edge"><title>Node0&#45;&gt;Node4</title>
<path fill="none" stroke="midnightblue" d="M174.753,-123.944C179.766,-114.121 184.809,-104.239 189.514,-95.019"/>
<polygon fill="none" stroke="midnightblue" points="171.596,-122.429 170.168,-132.927 177.831,-125.611 171.596,-122.429"/>
</g>
<!-- Node1 -->
<g id="node2" class="node"><title>Node1</title>
<g id="a_node2"><a xlink:href="../../da/dbc/interfacede_1_1flashpixx_1_1rrd__antlr4_1_1antlr_1_1IGrammarCollection.html" target="_top" xlink:title="interface of grammar collection elements ">
<polygon fill="none" stroke="black" points="74,-295 74,-359 204,-359 204,-295 74,-295"/>
<text text-anchor="start" x="82" y="-347.8" font-family="Helvetica,sans-Serif" font-size="9.00">de.flashpixx.rrd_antlr4.antlr.</text>
<text text-anchor="middle" x="139" y="-337.8" font-family="Helvetica,sans-Serif" font-size="9.00">IGrammarCollection</text>
<polyline fill="none" stroke="black" points="74,-331 204,-331 "/>
<text text-anchor="middle" x="139" y="-319.8" font-family="Helvetica,sans-Serif" font-size="9.00"> </text>
<polyline fill="none" stroke="black" points="74,-313 204,-313 "/>
<text text-anchor="start" x="82" y="-301.8" font-family="Helvetica,sans-Serif" font-size="9.00">+ get()</text>
</a>
</g>
</g>
<!-- Node1&#45;&gt;Node0 -->
<g id="edge1" class="edge"><title>Node1&#45;&gt;Node0</title>
<path fill="none" stroke="midnightblue" d="M139,-284.598C139,-275.875 139,-266.497 139,-257.221"/>
<polygon fill="none" stroke="midnightblue" points="135.5,-284.862 139,-294.862 142.5,-284.862 135.5,-284.862"/>
</g>
<!-- Node2 -->
<g id="node3" class="node"><title>Node2</title>
<g id="a_node3"><a xlink:href="../../dd/da7/interfacede_1_1flashpixx_1_1rrd__antlr4_1_1antlr_1_1IGrammarElement.html" target="_top" xlink:title="any grammar element ">
<polygon fill="none" stroke="black" points="74,-397 74,-471 204,-471 204,-397 74,-397"/>
<text text-anchor="start" x="82" y="-459.8" font-family="Helvetica,sans-Serif" font-size="9.00">de.flashpixx.rrd_antlr4.antlr.</text>
<text text-anchor="middle" x="139" y="-449.8" font-family="Helvetica,sans-Serif" font-size="9.00">IGrammarElement</text>
<polyline fill="none" stroke="black" points="74,-443 204,-443 "/>
<text text-anchor="middle" x="139" y="-431.8" font-family="Helvetica,sans-Serif" font-size="9.00"> </text>
<polyline fill="none" stroke="black" points="74,-425 204,-425 "/>
<text text-anchor="start" x="82" y="-413.8" font-family="Helvetica,sans-Serif" font-size="9.00">+ cardinality()</text>
<text text-anchor="start" x="82" y="-403.8" font-family="Helvetica,sans-Serif" font-size="9.00">+ cardinality()</text>
</a>
</g>
</g>
<!-- Node2&#45;&gt;Node1 -->
<g id="edge2" class="edge"><title>Node2&#45;&gt;Node1</title>
<path fill="none" stroke="midnightblue" d="M139,-386.608C139,-377.372 139,-367.88 139,-359.297"/>
<polygon fill="none" stroke="midnightblue" points="135.5,-386.865 139,-396.865 142.5,-386.865 135.5,-386.865"/>
</g>
</g>
</svg>
        <g id="navigator" transform="translate(0 0)" fill="#404254">
                <rect fill="#f2f5e9" fill-opacity="0.5" stroke="#606060" stroke-width=".5" x="0" y="0" width="60" height="60"/>
                <use id="zoomplus" xlink:href="#zoomPlus" x="17" y="9" onmousedown="handleZoom(evt,'in')"/>
                <use id="zoomminus" xlink:href="#zoomMin" x="42" y="9" onmousedown="handleZoom(evt,'out')"/>
                <use id="reset" xlink:href="#resetDef" x="30" y="36" onmousedown="handleReset()"/>
                <g id="arrowUp" xlink:href="#dirArrow" transform="translate(30 24)" onmousedown="handlePan(0,-1)">
                  <use xlink:href="#rim" fill="#404040">
                        <set attributeName="fill" to="#808080" begin="arrowUp.mouseover" end="arrowUp.mouseout"/>
                  </use>
                  <path fill="none" stroke="white" stroke-width="1.5" d="M0,-3.0v7 M-2.5,-0.5L0,-3.0L2.5,-0.5"/>
                </g>
                <g id="arrowRight" xlink:href="#dirArrow" transform="rotate(90) translate(36 -43)" onmousedown="handlePan(1,0)">
                  <use xlink:href="#rim" fill="#404040">
                        <set attributeName="fill" to="#808080" begin="arrowRight.mouseover" end="arrowRight.mouseout"/>
                  </use>
                  <path fill="none" stroke="white" stroke-width="1.5" d="M0,-3.0v7 M-2.5,-0.5L0,-3.0L2.5,-0.5"/>
                </g>
                <g id="arrowDown" xlink:href="#dirArrow" transform="rotate(180) translate(-30 -48)" onmousedown="handlePan(0,1)">
                  <use xlink:href="#rim" fill="#404040">
                        <set attributeName="fill" to="#808080" begin="arrowDown.mouseover" end="arrowDown.mouseout"/>
                  </use>
                  <path fill="none" stroke="white" stroke-width="1.5" d="M0,-3.0v7 M-2.5,-0.5L0,-3.0L2.5,-0.5"/>
                </g>
                <g id="arrowLeft" xlink:href="#dirArrow" transform="rotate(270) translate(-36 17)" onmousedown="handlePan(-1,0)">
                  <use xlink:href="#rim" fill="#404040">
                        <set attributeName="fill" to="#808080" begin="arrowLeft.mouseover" end="arrowLeft.mouseout"/>
                  </use>
                  <path fill="none" stroke="white" stroke-width="1.5" d="M0,-3.0v7 M-2.5,-0.5L0,-3.0L2.5,-0.5"/>
                </g>
        </g>
        <svg viewBox="0 0 15 15" width="100%" height="30px" preserveAspectRatio="xMaxYMin meet">
         <g id="arrow_out" transform="scale(0.3 0.3)">
          <a xlink:href="classde_1_1flashpixx_1_1rrd__antlr4_1_1antlr_1_1IGrammarBaseCollection__inherit__graph_org.svg" target="_base">
           <rect id="button" ry="5" rx="5" y="6" x="6" height="38" width="38"
                fill="#f2f5e9" fill-opacity="0.5" stroke="#606060" stroke-width="1.0"/>
           <path id="arrow"
             d="M 11.500037,31.436501 C 11.940474,20.09759 22.043105,11.32322 32.158766,21.979434 L 37.068811,17.246167 C 37.068811,17.246167 37.088388,32 37.088388,32 L 22.160133,31.978069 C 22.160133,31.978069 26.997745,27.140456 26.997745,27.140456 C 18.528582,18.264221 13.291696,25.230495 11.500037,31.436501 z"
             style="fill:#404040;"/>
          </a>
         </g>
        </svg>
</svg>
