<?xml version="1.0" encoding="UTF-8" standalone="no"?>
<!DOCTYPE svg PUBLIC "-//W3C//DTD SVG 1.1//EN"
 "http://www.w3.org/Graphics/SVG/1.1/DTD/svg11.dtd">
<!-- Generated by graphviz version 2.36.0 (20140111.2315)
 -->
<!-- Title: de.flashpixx.rrd_antlr4.antlr.IGrammarBaseCollection Pages: 1 -->
<svg width="286pt" height="480pt"
 viewBox="0.00 0.00 286.00 480.00" xmlns="http://www.w3.org/2000/svg" xmlns:xlink="http://www.w3.org/1999/xlink">
<g id="graph0" class="graph" transform="scale(1 1) rotate(0) translate(4 476)">
<title>de.flashpixx.rrd_antlr4.antlr.IGrammarBaseCollection</title>
<!-- Node0 -->
<g id="node1" class="node"><title>Node0</title>
<polygon fill="#bfbfbf" stroke="black" points="72.5,-133 72.5,-257 205.5,-257 205.5,-133 72.5,-133"/>
<text text-anchor="start" x="80.5" y="-245.8" font-family="Helvetica,sans-Serif" font-size="9.00">de.flashpixx.rrd_antlr4.antlr.</text>
<text text-anchor="middle" x="139" y="-235.8" font-family="Helvetica,sans-Serif" font-size="9.00">IGrammarBaseCollection</text>
<polyline fill="none" stroke="black" points="72.5,-229 205.5,-229 "/>
<text text-anchor="start" x="80.5" y="-217.8" font-family="Helvetica,sans-Serif" font-size="9.00"># m_cardinality</text>
<text text-anchor="start" x="80.5" y="-207.8" font-family="Helvetica,sans-Serif" font-size="9.00"># m_data</text>
<polyline fill="none" stroke="black" points="72.5,-201 205.5,-201 "/>
<text text-anchor="start" x="80.5" y="-189.8" font-family="Helvetica,sans-Serif" font-size="9.00">+ cardinality()</text>
<text text-anchor="start" x="80.5" y="-179.8" font-family="Helvetica,sans-Serif" font-size="9.00">+ cardinality()</text>
<text text-anchor="start" x="80.5" y="-169.8" font-family="Helvetica,sans-Serif" font-size="9.00">+ equals()</text>
<text text-anchor="start" x="80.5" y="-159.8" font-family="Helvetica,sans-Serif" font-size="9.00">+ get()</text>
<text text-anchor="start" x="80.5" y="-149.8" font-family="Helvetica,sans-Serif" font-size="9.00">+ hashCode()</text>
<text text-anchor="start" x="80.5" y="-139.8" font-family="Helvetica,sans-Serif" font-size="9.00"># IGrammarBaseCollection()</text>
</g>
<!-- Node3 -->
<g id="node4" class="node"><title>Node3</title>
<g id="a_node4"><a xlink:href="../../df/d2c/classde_1_1flashpixx_1_1rrd__antlr4_1_1antlr_1_1CGrammarChoice.html" target="_top" xlink:title="grammar choice ">
<polygon fill="none" stroke="black" points="0,-1 0,-95 130,-95 130,-1 0,-1"/>
<text text-anchor="start" x="8" y="-83.8" font-family="Helvetica,sans-Serif" font-size="9.00">de.flashpixx.rrd_antlr4.antlr.</text>
<text text-anchor="middle" x="65" y="-73.8" font-family="Helvetica,sans-Serif" font-size="9.00">CGrammarChoice</text>
<polyline fill="none" stroke="black" points="0,-67 130,-67 "/>
<text text-anchor="middle" x="65" y="-55.8" font-family="Helvetica,sans-Serif" font-size="9.00"> </text>
<polyline fill="none" stroke="black" points="0,-49 130,-49 "/>
<text text-anchor="start" x="8" y="-37.8" font-family="Helvetica,sans-Serif" font-size="9.00">+ CGrammarChoice()</text>
<text text-anchor="start" x="8" y="-27.8" font-family="Helvetica,sans-Serif" font-size="9.00">+ CGrammarChoice()</text>
<text text-anchor="start" x="8" y="-17.8" font-family="Helvetica,sans-Serif" font-size="9.00">+ CGrammarChoice()</text>
<text text-anchor="start" x="8" y="-7.8" font-family="Helvetica,sans-Serif" font-size="9.00">+ toString()</text>
</a>
</g>
</g>
<!-- Node0&#45;&gt;Node3 -->
<g id="edge3" class="edge"><title>Node0&#45;&gt;Node3</title>
<path fill="none" stroke="midnightblue" d="M103.247,-123.944C98.2344,-114.121 93.1909,-104.239 88.4855,-95.019"/>
<polygon fill="none" stroke="midnightblue" points="100.169,-125.611 107.832,-132.927 106.404,-122.429 100.169,-125.611"/>
</g>
<!-- Node4 -->
<g id="node5" class="node"><title>Node4</title>
<g id="a_node5"><a xlink:href="../../dc/df3/classde_1_1flashpixx_1_1rrd__antlr4_1_1antlr_1_1CGrammarSequence.html" target="_top" xlink:title="grammar sequence ">
<polygon fill="none" stroke="black" points="148,-1 148,-95 278,-95 278,-1 148,-1"/>
<text text-anchor="start" x="156" y="-83.8" font-family="Helvetica,sans-Serif" font-size="9.00">de.flashpixx.rrd_antlr4.antlr.</text>
<text text-anchor="middle" x="213" y="-73.8" font-family="Helvetica,sans-Serif" font-size="9.00">CGrammarSequence</text>
<polyline fill="none" stroke="black" points="148,-67 278,-67 "/>
<text text-anchor="middle" x="213" y="-55.8" font-family="Helvetica,sans-Serif" font-size="9.00"> </text>
<polyline fill="none" stroke="black" points="148,-49 278,-49 "/>
<text text-anchor="start" x="156" y="-37.8" font-family="Helvetica,sans-Serif" font-size="9.00">+ CGrammarSequence()</text>
<text text-anchor="start" x="156" y="-27.8" font-family="Helvetica,sans-Serif" font-size="9.00">+ CGrammarSequence()</text>
<text text-anchor="start" x="156" y="-17.8" font-family="Helvetica,sans-Serif" font-size="9.00">+ CGrammarSequence()</text>
<text text-anchor="start" x="156" y="-7.8" font-family="Helvetica,sans-Serif" font-size="9.00">+ toString()</text>
</a>
</g>
</g>
<!-- Node0&#45;&gt;Node4 -->
<g id="edge4" class="edge"><title>Node0&#45;&gt;Node4</title>
<path fill="none" stroke="midnightblue" d="M174.753,-123.944C179.766,-114.121 184.809,-104.239 189.514,-95.019"/>
<polygon fill="none" stroke="midnightblue" points="171.596,-122.429 170.168,-132.927 177.831,-125.611 171.596,-122.429"/>
</g>
<!-- Node1 -->
<g id="node2" class="node"><title>Node1</title>
<g id="a_node2"><a xlink:href="../../da/dbc/interfacede_1_1flashpixx_1_1rrd__antlr4_1_1antlr_1_1IGrammarCollection.html" target="_top" xlink:title="interface of grammar collection elements ">
<polygon fill="none" stroke="black" points="74,-295 74,-359 204,-359 204,-295 74,-295"/>
<text text-anchor="start" x="82" y="-347.8" font-family="Helvetica,sans-Serif" font-size="9.00">de.flashpixx.rrd_antlr4.antlr.</text>
<text text-anchor="middle" x="139" y="-337.8" font-family="Helvetica,sans-Serif" font-size="9.00">IGrammarCollection</text>
<polyline fill="none" stroke="black" points="74,-331 204,-331 "/>
<text text-anchor="middle" x="139" y="-319.8" font-family="Helvetica,sans-Serif" font-size="9.00"> </text>
<polyline fill="none" stroke="black" points="74,-313 204,-313 "/>
<text text-anchor="start" x="82" y="-301.8" font-family="Helvetica,sans-Serif" font-size="9.00">+ get()</text>
</a>
</g>
</g>
<!-- Node1&#45;&gt;Node0 -->
<g id="edge1" class="edge"><title>Node1&#45;&gt;Node0</title>
<path fill="none" stroke="midnightblue" d="M139,-284.598C139,-275.875 139,-266.497 139,-257.221"/>
<polygon fill="none" stroke="midnightblue" points="135.5,-284.862 139,-294.862 142.5,-284.862 135.5,-284.862"/>
</g>
<!-- Node2 -->
<g id="node3" class="node"><title>Node2</title>
<g id="a_node3"><a xlink:href="../../dd/da7/interfacede_1_1flashpixx_1_1rrd__antlr4_1_1antlr_1_1IGrammarElement.html" target="_top" xlink:title="any grammar element ">
<polygon fill="none" stroke="black" points="74,-397 74,-471 204,-471 204,-397 74,-397"/>
<text text-anchor="start" x="82" y="-459.8" font-family="Helvetica,sans-Serif" font-size="9.00">de.flashpixx.rrd_antlr4.antlr.</text>
<text text-anchor="middle" x="139" y="-449.8" font-family="Helvetica,sans-Serif" font-size="9.00">IGrammarElement</text>
<polyline fill="none" stroke="black" points="74,-443 204,-443 "/>
<text text-anchor="middle" x="139" y="-431.8" font-family="Helvetica,sans-Serif" font-size="9.00"> </text>
<polyline fill="none" stroke="black" points="74,-425 204,-425 "/>
<text text-anchor="start" x="82" y="-413.8" font-family="Helvetica,sans-Serif" font-size="9.00">+ cardinality()</text>
<text text-anchor="start" x="82" y="-403.8" font-family="Helvetica,sans-Serif" font-size="9.00">+ cardinality()</text>
</a>
</g>
</g>
<!-- Node2&#45;&gt;Node1 -->
<g id="edge2" class="edge"><title>Node2&#45;&gt;Node1</title>
<path fill="none" stroke="midnightblue" d="M139,-386.608C139,-377.372 139,-367.88 139,-359.297"/>
<polygon fill="none" stroke="midnightblue" points="135.5,-386.865 139,-396.865 142.5,-386.865 135.5,-386.865"/>
</g>
</g>
</svg>
