<?xml version="1.0" encoding="UTF-8" standalone="no"?>
<!DOCTYPE svg PUBLIC "-//W3C//DTD SVG 1.1//EN"
 "http://www.w3.org/Graphics/SVG/1.1/DTD/svg11.dtd">
<!-- Generated by graphviz version 2.36.0 (20140111.2315)
 -->
<!-- Title: de.flashpixx.rrd_antlr4.antlr.IGrammarSimpleElement&lt; T &gt; Pages: 1 -->
<svg width="148pt" height="196pt"
 viewBox="0.00 0.00 148.00 196.00" xmlns="http://www.w3.org/2000/svg" xmlns:xlink="http://www.w3.org/1999/xlink">
<g id="graph0" class="graph" transform="scale(1 1) rotate(0) translate(4 192)">
<title>de.flashpixx.rrd_antlr4.antlr.IGrammarSimpleElement&lt; T &gt;</title>
<!-- Node7 -->
<g id="node1" class="node"><title>Node7</title>
<polygon fill="#bfbfbf" stroke="black" points="0,-1 0,-75 140,-75 140,-1 0,-1"/>
<text text-anchor="start" x="8" y="-63.8" font-family="Helvetica,sans-Serif" font-size="9.00">de.flashpixx.rrd_antlr4.antlr.</text>
<text text-anchor="middle" x="70" y="-53.8" font-family="Helvetica,sans-Serif" font-size="9.00">IGrammarSimpleElement&lt; T &gt;</text>
<polyline fill="none" stroke="black" points="0,-47 140,-47 "/>
<text text-anchor="middle" x="70" y="-35.8" font-family="Helvetica,sans-Serif" font-size="9.00"> </text>
<polyline fill="none" stroke="black" points="0,-29 140,-29 "/>
<text text-anchor="start" x="8" y="-17.8" font-family="Helvetica,sans-Serif" font-size="9.00">+ get()</text>
<text text-anchor="start" x="8" y="-7.8" font-family="Helvetica,sans-Serif" font-size="9.00">+ isValueAssignableTo()</text>
</g>
<!-- Node8 -->
<g id="node2" class="node"><title>Node8</title>
<g id="a_node2"><a xlink:href="../../dd/da7/interfacede_1_1flashpixx_1_1rrd__antlr4_1_1antlr_1_1IGrammarElement.html" target="_top" xlink:title="any grammar element ">
<polygon fill="none" stroke="black" points="5,-113 5,-187 135,-187 135,-113 5,-113"/>
<text text-anchor="start" x="13" y="-175.8" font-family="Helvetica,sans-Serif" font-size="9.00">de.flashpixx.rrd_antlr4.antlr.</text>
<text text-anchor="middle" x="70" y="-165.8" font-family="Helvetica,sans-Serif" font-size="9.00">IGrammarElement</text>
<polyline fill="none" stroke="black" points="5,-159 135,-159 "/>
<text text-anchor="middle" x="70" y="-147.8" font-family="Helvetica,sans-Serif" font-size="9.00"> </text>
<polyline fill="none" stroke="black" points="5,-141 135,-141 "/>
<text text-anchor="start" x="13" y="-129.8" font-family="Helvetica,sans-Serif" font-size="9.00">+ cardinality()</text>
<text text-anchor="start" x="13" y="-119.8" font-family="Helvetica,sans-Serif" font-size="9.00">+ cardinality()</text>
</a>
</g>
</g>
<!-- Node8&#45;&gt;Node7 -->
<g id="edge1" class="edge"><title>Node8&#45;&gt;Node7</title>
<path fill="none" stroke="midnightblue" d="M70,-102.752C70,-93.5127 70,-83.9353 70,-75.099"/>
<polygon fill="none" stroke="midnightblue" points="66.5001,-102.982 70,-112.982 73.5001,-102.982 66.5001,-102.982"/>
</g>
</g>
</svg>
